<svg width="440" height="956" viewBox="0 0 440 956" fill="none" xmlns="http://www.w3.org/2000/svg">
<g clip-path="url(#clip0_359_298)">
<rect width="440" height="956" fill="#0094FA"/>
<g opacity="0.2">
<path d="M519.687 270.457H250.747C251.558 122.287 371.517 2.3288 519.687 1.51758V270.457Z" stroke="white" stroke-width="3.02506"/>
<path d="M250.456 270.457H-18.4834C-17.6722 122.287 102.287 2.3288 250.456 1.51758V270.457Z" stroke="white" stroke-width="3.02506"/>
<path d="M519.687 539.688H250.747C251.558 391.518 371.517 271.559 519.687 270.748V539.688Z" stroke="white" stroke-width="3.02506"/>
<path d="M250.456 271.027L250.456 539.967C102.286 539.156 -17.6722 419.197 -18.4834 271.027L250.456 271.027Z" stroke="white" stroke-width="3.02506"/>
<path d="M250.456 1078.15H-18.4834C-17.6722 929.979 102.286 810.02 250.456 809.209L250.456 1078.15Z" stroke="white" stroke-width="3.02506"/>
<path d="M519.687 808.918H250.747C251.558 660.748 371.517 540.79 519.687 539.979V808.918Z" stroke="white" stroke-width="3.02506"/>
<path d="M-18.4893 808.918L-18.4893 539.979C129.68 540.79 249.639 660.748 250.45 808.918L-18.4893 808.918Z" stroke="white" stroke-width="3.02506"/>
</g>
<g filter="url(#filter0_f_359_298)">
<circle cx="417" cy="703" r="296" fill="#5CC5FE" fill-opacity="0.8"/>
</g>
<g filter="url(#filter1_f_359_298)">
<circle cx="105.312" cy="229.5" r="259.5" fill="#2D333F" fill-opacity="0.13"/>
</g>
<path d="M119.177 294.607L119.797 293.183C121.914 293.232 123.653 293.56 125.016 294.169C126.403 294.753 127.437 295.58 128.118 296.65C128.799 297.696 129.14 298.913 129.14 300.3C129.14 301.784 128.799 303.11 128.118 304.278C127.437 305.421 126.415 306.333 125.052 307.015C123.714 307.672 122.035 308 120.016 308H99.7982V293.95V280.629H119.286C121.816 280.629 123.787 281.225 125.198 282.417C126.609 283.585 127.315 285.215 127.315 287.308C127.315 288.451 127.047 289.546 126.512 290.592C125.977 291.638 125.113 292.526 123.921 293.256C122.753 293.962 121.172 294.412 119.177 294.607ZM107.28 306.248L104.36 302.708H117.972C119.067 302.708 119.919 302.441 120.527 301.905C121.135 301.37 121.439 300.628 121.439 299.679C121.439 298.73 121.111 297.976 120.454 297.417C119.797 296.833 118.824 296.541 117.534 296.541H104.36V291.359H116.513C117.389 291.359 118.118 291.103 118.702 290.592C119.311 290.057 119.615 289.339 119.615 288.439C119.615 287.709 119.359 287.113 118.848 286.651C118.337 286.164 117.607 285.921 116.659 285.921H104.396L107.28 282.381V293.95V306.248ZM158.182 287.162H165.664V308H158.182V287.162ZM133.439 308V287.162H140.884V306.175L138.585 302.781H145.957C146.881 302.781 147.599 302.562 148.11 302.124C148.621 301.662 148.876 301.03 148.876 300.227C148.876 299.399 148.621 298.767 148.11 298.329C147.599 297.867 146.881 297.636 145.957 297.636H138.548V292.599H147.198C149.047 292.599 150.652 292.928 152.015 293.585C153.377 294.217 154.436 295.117 155.19 296.285C155.968 297.429 156.358 298.767 156.358 300.3C156.358 301.857 155.981 303.219 155.226 304.387C154.472 305.531 153.414 306.419 152.051 307.051C150.689 307.684 149.107 308 147.307 308H133.439ZM184.098 308.584C181.154 308.584 178.636 308.049 176.543 306.978C174.475 305.883 172.882 304.314 171.763 302.27C170.668 300.202 170.12 297.721 170.12 294.826C170.12 290.519 171.313 287.125 173.697 284.644C176.081 282.138 179.487 280.69 183.915 280.301C185.74 280.155 187.248 280.033 188.441 279.936C189.633 279.814 190.606 279.705 191.36 279.607C192.139 279.486 192.796 279.364 193.331 279.242C193.89 279.121 194.426 278.975 194.937 278.804V284.863C194.353 285.081 193.659 285.264 192.856 285.41C192.054 285.556 191.044 285.678 189.827 285.775C188.635 285.872 187.139 285.957 185.339 286.03C182.224 286.152 179.937 286.943 178.478 288.402C177.042 289.838 176.324 291.93 176.324 294.68V295.446L176.105 294.898C176.543 293.682 177.249 292.636 178.222 291.76C179.195 290.884 180.375 290.215 181.762 289.753C183.149 289.266 184.657 289.023 186.287 289.023C188.404 289.023 190.253 289.412 191.835 290.191C193.416 290.969 194.645 292.076 195.521 293.512C196.396 294.947 196.834 296.602 196.834 298.475C196.834 300.519 196.299 302.307 195.229 303.84C194.182 305.348 192.71 306.516 190.813 307.343C188.915 308.17 186.677 308.584 184.098 308.584ZM184.28 303.073C185.302 303.073 186.19 302.891 186.944 302.526C187.699 302.161 188.282 301.638 188.696 300.957C189.11 300.275 189.316 299.497 189.316 298.621C189.316 297.696 189.11 296.906 188.696 296.249C188.282 295.592 187.699 295.081 186.944 294.716C186.19 294.351 185.302 294.169 184.28 294.169C182.845 294.169 181.543 294.546 180.375 295.3C179.232 296.03 178.38 297.052 177.821 298.365C178.161 299.777 178.916 300.92 180.083 301.796C181.276 302.647 182.674 303.073 184.28 303.073ZM213.324 308.584C210.793 308.584 208.531 308.122 206.536 307.197C204.565 306.273 203.008 304.983 201.864 303.329C200.721 301.65 200.149 299.704 200.149 297.49C200.149 295.324 200.696 293.427 201.791 291.796C202.886 290.142 204.382 288.853 206.28 287.928C208.202 287.004 210.367 286.541 212.776 286.541C215.282 286.541 217.411 287.089 219.163 288.184C220.939 289.254 222.301 290.775 223.25 292.745C224.223 294.716 224.71 297.04 224.71 299.716H206.171V295.227H220.513L218.068 296.796C217.97 295.726 217.703 294.826 217.265 294.096C216.827 293.341 216.243 292.77 215.513 292.38C214.808 291.991 213.956 291.796 212.959 291.796C211.864 291.796 210.927 292.015 210.149 292.453C209.37 292.891 208.762 293.5 208.324 294.278C207.886 295.032 207.667 295.92 207.667 296.942C207.667 298.256 207.959 299.375 208.543 300.3C209.151 301.2 210.027 301.893 211.17 302.38C212.338 302.866 213.761 303.11 215.44 303.11C216.973 303.11 218.494 302.915 220.002 302.526C221.535 302.112 222.922 301.54 224.162 300.811V305.555C222.727 306.528 221.085 307.282 219.236 307.818C217.411 308.328 215.44 308.584 213.324 308.584ZM228.993 287.162H236.475V293.147L236.146 294.023V299.862L236.475 301.577V314.022H228.993V287.162ZM234.103 297.599C234.419 295.336 235.076 293.39 236.073 291.76C237.095 290.106 238.385 288.828 239.942 287.928C241.499 287.004 243.263 286.541 245.233 286.541C247.277 286.541 249.065 287.004 250.598 287.928C252.155 288.853 253.359 290.142 254.211 291.796C255.087 293.451 255.525 295.385 255.525 297.599C255.525 299.764 255.087 301.686 254.211 303.365C253.359 305.02 252.155 306.309 250.598 307.234C249.065 308.134 247.277 308.584 245.233 308.584C243.263 308.584 241.499 308.134 239.942 307.234C238.385 306.309 237.107 305.02 236.11 303.365C235.112 301.711 234.443 299.789 234.103 297.599ZM248.007 297.599C248.007 296.553 247.788 295.628 247.35 294.826C246.936 294.023 246.34 293.39 245.562 292.928C244.808 292.466 243.944 292.234 242.971 292.234C241.973 292.234 241.024 292.466 240.124 292.928C239.224 293.39 238.433 294.023 237.752 294.826C237.071 295.628 236.548 296.553 236.183 297.599C236.548 298.621 237.071 299.533 237.752 300.336C238.433 301.139 239.224 301.772 240.124 302.234C241.024 302.672 241.973 302.891 242.971 302.891C243.944 302.891 244.808 302.672 245.562 302.234C246.34 301.772 246.936 301.139 247.35 300.336C247.788 299.533 248.007 298.621 248.007 297.599ZM259.847 308V287.162H267.219V303.949L265.613 303.438L276.525 287.162H286.086V308H278.751V290.738L280.357 291.286L269.153 308H259.847ZM297.693 289.716H305.174V308H297.693V289.716ZM289.773 287.162H313.093V292.782H289.773V287.162ZM328.291 308.584C325.761 308.584 323.498 308.122 321.503 307.197C319.532 306.273 317.975 304.983 316.832 303.329C315.688 301.65 315.116 299.704 315.116 297.49C315.116 295.324 315.664 293.427 316.759 291.796C317.854 290.142 319.35 288.853 321.248 287.928C323.17 287.004 325.335 286.541 327.744 286.541C330.249 286.541 332.378 287.089 334.13 288.184C335.906 289.254 337.269 290.775 338.217 292.745C339.191 294.716 339.677 297.04 339.677 299.716H321.138V295.227H335.48L333.035 296.796C332.938 295.726 332.67 294.826 332.232 294.096C331.794 293.341 331.21 292.77 330.481 292.38C329.775 291.991 328.923 291.796 327.926 291.796C326.831 291.796 325.894 292.015 325.116 292.453C324.337 292.891 323.729 293.5 323.291 294.278C322.853 295.032 322.634 295.92 322.634 296.942C322.634 298.256 322.926 299.375 323.51 300.3C324.118 301.2 324.994 301.893 326.138 302.38C327.306 302.866 328.729 303.11 330.408 303.11C331.94 303.11 333.461 302.915 334.969 302.526C336.502 302.112 337.889 301.54 339.13 300.811V305.555C337.694 306.528 336.052 307.282 334.203 307.818C332.378 308.328 330.408 308.584 328.291 308.584ZM168.211 333.162V338.782H154.088L157.518 335.351V354H150.037V333.162H168.211ZM183.534 354.584C180.857 354.584 178.522 354.134 176.527 353.234C174.532 352.309 172.974 351.02 171.855 349.365C170.736 347.686 170.177 345.764 170.177 343.599C170.177 341.385 170.736 339.451 171.855 337.796C172.974 336.142 174.532 334.853 176.527 333.928C178.522 333.004 180.857 332.541 183.534 332.541C186.185 332.541 188.509 333.004 190.504 333.928C192.523 334.853 194.093 336.142 195.212 337.796C196.331 339.451 196.89 341.385 196.89 343.599C196.89 345.764 196.331 347.686 195.212 349.365C194.093 351.02 192.523 352.309 190.504 353.234C188.509 354.134 186.185 354.584 183.534 354.584ZM183.534 349.073C184.75 349.073 185.784 348.854 186.636 348.416C187.511 347.978 188.18 347.346 188.643 346.519C189.105 345.691 189.336 344.718 189.336 343.599C189.336 342.431 189.105 341.446 188.643 340.643C188.18 339.816 187.511 339.183 186.636 338.745C185.784 338.307 184.75 338.088 183.534 338.088C182.317 338.088 181.271 338.307 180.395 338.745C179.519 339.183 178.85 339.816 178.388 340.643C177.926 341.446 177.694 342.419 177.694 343.563C177.694 344.706 177.926 345.691 178.388 346.519C178.85 347.346 179.519 347.978 180.395 348.416C181.271 348.854 182.317 349.073 183.534 349.073ZM201.124 333.162H208.605V339.147L208.276 340.023V345.862L208.605 347.577V360.022H201.124V333.162ZM206.233 343.599C206.549 341.336 207.206 339.39 208.203 337.76C209.225 336.106 210.515 334.828 212.072 333.928C213.629 333.004 215.393 332.541 217.364 332.541C219.407 332.541 221.195 333.004 222.728 333.928C224.285 334.853 225.49 336.142 226.341 337.796C227.217 339.451 227.655 341.385 227.655 343.599C227.655 345.764 227.217 347.686 226.341 349.365C225.49 351.02 224.285 352.309 222.728 353.234C221.195 354.134 219.407 354.584 217.364 354.584C215.393 354.584 213.629 354.134 212.072 353.234C210.515 352.309 209.237 351.02 208.24 349.365C207.242 347.711 206.573 345.789 206.233 343.599ZM220.137 343.599C220.137 342.553 219.918 341.628 219.48 340.826C219.067 340.023 218.471 339.39 217.692 338.928C216.938 338.466 216.074 338.234 215.101 338.234C214.103 338.234 213.155 338.466 212.254 338.928C211.354 339.39 210.563 340.023 209.882 340.826C209.201 341.628 208.678 342.553 208.313 343.599C208.678 344.621 209.201 345.533 209.882 346.336C210.563 347.139 211.354 347.772 212.254 348.234C213.155 348.672 214.103 348.891 215.101 348.891C216.074 348.891 216.938 348.672 217.692 348.234C218.471 347.772 219.067 347.139 219.48 346.336C219.918 345.533 220.137 344.621 220.137 343.599ZM244.385 354.584C241.709 354.584 239.373 354.134 237.378 353.234C235.383 352.309 233.826 351.02 232.707 349.365C231.588 347.686 231.028 345.764 231.028 343.599C231.028 341.385 231.588 339.451 232.707 337.796C233.826 336.142 235.383 334.853 237.378 333.928C239.373 333.004 241.709 332.541 244.385 332.541C247.037 332.541 249.361 333.004 251.356 333.928C253.375 334.853 254.944 336.142 256.063 337.796C257.182 339.451 257.742 341.385 257.742 343.599C257.742 345.764 257.182 347.686 256.063 349.365C254.944 351.02 253.375 352.309 251.356 353.234C249.361 354.134 247.037 354.584 244.385 354.584ZM244.385 349.073C245.602 349.073 246.636 348.854 247.487 348.416C248.363 347.978 249.032 347.346 249.494 346.519C249.957 345.691 250.188 344.718 250.188 343.599C250.188 342.431 249.957 341.446 249.494 340.643C249.032 339.816 248.363 339.183 247.487 338.745C246.636 338.307 245.602 338.088 244.385 338.088C243.169 338.088 242.122 338.307 241.247 338.745C240.371 339.183 239.702 339.816 239.239 340.643C238.777 341.446 238.546 342.419 238.546 343.563C238.546 344.706 238.777 345.691 239.239 346.519C239.702 347.346 240.371 347.978 241.247 348.416C242.122 348.854 243.169 349.073 244.385 349.073ZM291.075 348.453V359H284.652V354H266.441V359H260.018V348.453H266.295L267.682 348.562H282.791L284.068 348.453H291.075ZM264.361 333.162H287.279V352.577H279.871V335.169L283.265 338.563H268.01L270.784 335.862C271.125 336.86 271.331 337.809 271.404 338.709C271.477 339.585 271.514 340.388 271.514 341.117C271.514 344.475 270.942 347.09 269.799 348.964C268.655 350.813 267.049 351.737 264.981 351.737L261.952 349.183C263.85 347.869 264.799 344.682 264.799 339.621C264.799 338.648 264.762 337.614 264.689 336.519C264.616 335.424 264.507 334.305 264.361 333.162Z" fill="white"/>
<path d="M110.161 71.7294C110.867 71.2569 111.789 71.2568 112.495 71.7294L138.724 89.2775C139.306 89.6671 139.656 90.3215 139.656 91.0221V113.585C139.656 114.744 138.716 115.684 137.557 115.684H120.987C120.408 115.684 119.938 115.214 119.938 114.634V99.5387C119.938 98.9591 119.467 98.4859 118.888 98.5207C110.224 99.0419 103.288 105.973 102.758 114.635C102.723 115.213 102.257 115.684 101.677 115.684H85.099C83.9398 115.684 83.0001 114.744 83 113.585V91.0221C83 90.3215 83.3496 89.6671 83.9318 89.2775L110.161 71.7294Z" fill="white"/>
<path d="M328.378 115.65C327.798 115.65 327.328 115.18 327.328 114.6V107.084C327.328 106.504 327.798 106.034 328.378 106.034H331.992L333.892 106.092H348.862L350.359 106.034H355.586C356.165 106.034 356.635 106.504 356.635 107.084V114.6C356.635 115.18 356.165 115.65 355.586 115.65H352.1C351.52 115.65 351.05 115.18 351.05 114.6V111.302H332.913V114.6C332.913 115.18 332.443 115.65 331.864 115.65H328.378ZM331.937 90.8735C331.878 90.2523 332.364 89.7109 332.988 89.7109H351.872C352.451 89.7109 352.921 90.1808 352.921 90.7604V108.583C352.921 109.163 352.451 109.633 351.872 109.633H347.983C347.403 109.633 346.933 109.163 346.933 108.583V94.1291C346.933 93.4229 347.787 93.0693 348.286 93.5686V93.5686C348.786 94.0679 348.432 94.9217 347.726 94.9217H336.976C336.315 94.9217 336.022 94.0901 336.538 93.6766V93.6766C336.953 93.3434 337.57 93.5787 337.628 94.1079C337.679 94.5799 337.71 95.043 337.721 95.4975C337.759 96.3227 337.778 97.1096 337.778 97.8581C337.778 100.104 337.577 101.994 337.174 103.53C336.79 105.065 336.205 106.226 335.418 107.013C334.734 107.714 333.891 108.102 332.888 108.179C332.644 108.198 332.407 108.108 332.219 107.952L330.005 106.121C330.773 105.218 331.339 103.99 331.704 102.436C332.069 100.862 332.251 98.9233 332.251 96.6202C332.251 95.5646 332.213 94.4611 332.136 93.3095C332.083 92.5201 332.017 91.7081 331.937 90.8735Z" fill="white"/>
<path d="M322.169 98.3476C322.748 98.3476 323.218 98.8174 323.218 99.3971V101.616C323.218 102.196 322.748 102.666 322.169 102.666H307.858C307.279 102.666 306.809 102.196 306.809 101.616V99.3971C306.809 98.8174 307.279 98.3476 307.858 98.3476H322.169ZM310.062 100.507V107.214C310.062 107.9 309.214 108.224 308.757 107.712V107.712C308.326 107.23 308.668 106.466 309.314 106.466H323.119C323.698 106.466 324.168 106.936 324.168 107.515V110.253C324.168 110.833 323.698 111.302 323.119 111.302H305.152C304.572 111.302 304.103 110.833 304.103 110.253V100.507V90.7604C304.103 90.1808 304.572 89.7109 305.152 89.7109H322.975C323.554 89.7109 324.024 90.1808 324.024 90.7604V93.4979C324.024 94.0776 323.554 94.5474 322.975 94.5474H309.314C308.668 94.5474 308.326 93.7834 308.757 93.3017V93.3017C309.214 92.7898 310.062 93.1134 310.062 93.7999V100.507Z" fill="white"/>
<path d="M293.796 100.626C293.407 100.688 293.118 100.293 293.275 99.9319V99.9319C293.359 99.7398 293.551 99.6167 293.76 99.6256C295.274 99.69 296.531 99.9454 297.531 100.392C298.625 100.852 299.44 101.505 299.978 102.349C300.515 103.174 300.784 104.134 300.784 105.228C300.784 106.399 300.515 107.445 299.978 108.366C299.44 109.268 298.634 109.988 297.559 110.525C296.504 111.043 295.18 111.302 293.587 111.302H278.687C278.108 111.302 277.638 110.833 277.638 110.253V100.219V90.7604C277.638 90.1808 278.108 89.7109 278.687 89.7109H293.011C295.007 89.7109 296.561 90.1812 297.675 91.1216C298.788 92.0428 299.344 93.3287 299.344 94.9793C299.344 95.8813 299.133 96.745 298.711 97.5703C298.289 98.3955 297.607 99.0961 296.667 99.6718C295.923 100.121 294.966 100.44 293.796 100.626ZM283.539 107.866C283.539 108.558 282.672 108.869 282.232 108.336V108.336C281.835 107.854 282.178 107.128 282.801 107.128H291.974C292.838 107.128 293.51 106.917 293.99 106.495C294.469 106.073 294.709 105.487 294.709 104.739C294.709 103.99 294.45 103.395 293.932 102.954C293.414 102.493 292.646 102.263 291.629 102.263H282.286C281.706 102.263 281.236 101.793 281.236 101.213V99.2243C281.236 98.6447 281.706 98.1748 282.286 98.1748H290.823C291.514 98.1748 292.09 97.9733 292.55 97.5703C293.03 97.148 293.27 96.5818 293.27 95.8717C293.27 95.2959 293.068 94.8257 292.665 94.4611C292.262 94.0772 291.687 93.8853 290.938 93.8853H282.807C282.189 93.8853 281.849 93.1686 282.239 92.6899V92.6899C282.674 92.1554 283.539 92.4633 283.539 93.1526V100.219V107.866Z" fill="white"/>
<path d="M261.378 111.763C258.826 111.763 256.58 111.293 254.642 110.352C252.723 109.412 251.226 108.097 250.151 106.408C249.095 104.719 248.567 102.752 248.567 100.506C248.567 98.2609 249.095 96.2936 250.151 94.6047C251.226 92.9158 252.723 91.6011 254.642 90.6606C256.58 89.7202 258.826 89.25 261.378 89.25C263.95 89.25 266.196 89.7202 268.115 90.6606C270.034 91.6011 271.531 92.9158 272.606 94.6047C273.681 96.2936 274.218 98.2609 274.218 100.506C274.218 102.752 273.681 104.719 272.606 106.408C271.531 108.097 270.034 109.412 268.115 110.352C266.196 111.293 263.95 111.763 261.378 111.763ZM261.378 106.437C262.779 106.437 263.989 106.197 265.006 105.717C266.023 105.237 266.8 104.556 267.338 103.673C267.894 102.79 268.172 101.735 268.172 100.506C268.172 99.2781 267.894 98.2225 267.338 97.3396C266.8 96.4568 266.023 95.7754 265.006 95.2956C263.989 94.8158 262.779 94.5759 261.378 94.5759C259.997 94.5759 258.797 94.8158 257.78 95.2956C256.763 95.7754 255.976 96.4568 255.419 97.3396C254.863 98.2225 254.584 99.2781 254.584 100.506C254.584 101.735 254.863 102.79 255.419 103.673C255.976 104.556 256.763 105.237 257.78 105.717C258.797 106.197 259.997 106.437 261.378 106.437Z" fill="white"/>
<path d="M244.218 89.7109C244.797 89.7109 245.267 90.1808 245.267 90.7604V110.253C245.267 110.833 244.797 111.302 244.218 111.302H240.645C240.066 111.302 239.596 110.833 239.596 110.253V92.4197C239.596 92.1114 239.864 91.8718 240.171 91.9066V91.9066C240.515 91.9457 240.724 92.3064 240.586 92.6246L232.788 110.669C232.621 111.054 232.243 111.302 231.824 111.302H227.156C226.738 111.302 226.36 111.055 226.194 110.672L218.376 92.6981C218.234 92.3726 218.448 92.0031 218.801 91.9639V91.9639C219.113 91.9292 219.386 92.1736 219.386 92.4878V110.253C219.386 110.833 218.916 111.302 218.337 111.302H214.764C214.185 111.302 213.715 110.833 213.715 110.253V90.7604C213.715 90.1808 214.185 89.7109 214.764 89.7109H222.228C222.652 89.7109 223.033 89.9653 223.197 90.3559L230.227 107.187C230.438 107.693 230.067 108.251 229.518 108.251V108.251C228.971 108.251 228.599 107.694 228.809 107.189L235.786 90.3585C235.949 89.9665 236.332 89.7109 236.756 89.7109H244.218Z" fill="white"/>
<path d="M197.589 111.763C195.037 111.763 192.791 111.293 190.853 110.352C188.933 109.412 187.436 108.097 186.362 106.408C185.306 104.719 184.778 102.752 184.778 100.506C184.778 98.2609 185.306 96.2936 186.362 94.6047C187.436 92.9158 188.933 91.6011 190.853 90.6606C192.791 89.7202 195.037 89.25 197.589 89.25C200.161 89.25 202.407 89.7202 204.326 90.6606C206.245 91.6011 207.742 92.9158 208.817 94.6047C209.892 96.2936 210.429 98.2609 210.429 100.506C210.429 102.752 209.892 104.719 208.817 106.408C207.742 108.097 206.245 109.412 204.326 110.352C202.407 111.293 200.161 111.763 197.589 111.763ZM197.589 106.437C198.99 106.437 200.199 106.197 201.217 105.717C202.234 105.237 203.011 104.556 203.549 103.673C204.105 102.79 204.383 101.735 204.383 100.506C204.383 99.2781 204.105 98.2225 203.549 97.3396C203.011 96.4568 202.234 95.7754 201.217 95.2956C200.199 94.8158 198.99 94.5759 197.589 94.5759C196.207 94.5759 195.008 94.8158 193.991 95.2956C192.974 95.7754 192.187 96.4568 191.63 97.3396C191.073 98.2225 190.795 99.2781 190.795 100.506C190.795 101.735 191.073 102.79 191.63 103.673C192.187 104.556 192.974 105.237 193.991 105.717C195.008 106.197 196.207 106.437 197.589 106.437Z" fill="white"/>
<path d="M154.961 115.65C154.381 115.65 153.911 115.18 153.911 114.6V107.084C153.911 106.504 154.381 106.034 154.961 106.034H158.575L160.475 106.092H175.445L176.942 106.034H182.169C182.748 106.034 183.218 106.504 183.218 107.084V114.6C183.218 115.18 182.748 115.65 182.169 115.65H178.683C178.103 115.65 177.633 115.18 177.633 114.6V111.302H159.496V114.6C159.496 115.18 159.026 115.65 158.447 115.65H154.961ZM158.52 90.8735C158.461 90.2523 158.947 89.7109 159.571 89.7109H178.455C179.034 89.7109 179.504 90.1808 179.504 90.7604V108.583C179.504 109.163 179.034 109.633 178.455 109.633H174.566C173.986 109.633 173.516 109.163 173.516 108.583V94.1291C173.516 93.4229 174.37 93.0693 174.869 93.5686V93.5686C175.369 94.0679 175.015 94.9217 174.309 94.9217H163.559C162.898 94.9217 162.605 94.0901 163.121 93.6766V93.6766C163.536 93.3434 164.154 93.5787 164.211 94.1079C164.262 94.5798 164.293 95.043 164.304 95.4975C164.342 96.3227 164.361 97.1096 164.361 97.8581C164.361 100.104 164.16 101.994 163.757 103.53C163.373 105.065 162.788 106.226 162.001 107.013C161.317 107.714 160.474 108.102 159.471 108.179C159.227 108.198 158.99 108.108 158.802 107.952L156.588 106.121C157.356 105.218 157.922 103.99 158.287 102.436C158.652 100.862 158.834 98.9233 158.834 96.6202C158.834 95.5646 158.796 94.4611 158.719 93.3095C158.666 92.5201 158.6 91.7081 158.52 90.8735Z" fill="white"/>
</g>
<defs>
<filter id="filter0_f_359_298" x="-135.293" y="150.707" width="1104.59" height="1104.59" filterUnits="userSpaceOnUse" color-interpolation-filters="sRGB">
<feFlood flood-opacity="0" result="BackgroundImageFix"/>
<feBlend mode="normal" in="SourceGraphic" in2="BackgroundImageFix" result="shape"/>
<feGaussianBlur stdDeviation="128.146" result="effect1_foregroundBlur_359_298"/>
</filter>
<filter id="filter1_f_359_298" x="-378.876" y="-254.689" width="968.378" height="968.378" filterUnits="userSpaceOnUse" color-interpolation-filters="sRGB">
<feFlood flood-opacity="0" result="BackgroundImageFix"/>
<feBlend mode="normal" in="SourceGraphic" in2="BackgroundImageFix" result="shape"/>
<feGaussianBlur stdDeviation="112.344" result="effect1_foregroundBlur_359_298"/>
</filter>
<clipPath id="clip0_359_298">
<rect width="440" height="956" fill="white"/>
</clipPath>
</defs>
</svg>
