<svg width="414" height="33" viewBox="0 0 414 33" fill="none" xmlns="http://www.w3.org/2000/svg">
<rect width="414" height="33" rx="16.5" fill="white"/>
<path d="M22.624 21.014V19.866C23.0067 19.866 23.3427 19.8333 23.632 19.768C23.9307 19.7027 24.1967 19.572 24.43 19.376C24.6727 19.18 24.8967 18.886 25.102 18.494L21.21 11.102H22.652L25.802 17.234L28.294 11.102H29.61L27.832 15.288C27.7107 15.5867 27.552 15.9693 27.356 16.436C27.16 16.8933 26.9407 17.374 26.698 17.878C26.4647 18.3727 26.2173 18.8347 25.956 19.264C25.704 19.6933 25.4473 20.0247 25.186 20.258C24.8407 20.566 24.4627 20.7713 24.052 20.874C23.6413 20.9673 23.1653 21.014 22.624 21.014ZM32.2596 21V14.672H29.7256V13.622H35.9836V14.672H33.4496V21H32.2596ZM37.0454 23.66V13.622H38.1794L38.2354 14.756C38.4874 14.3547 38.8281 14.0513 39.2574 13.846C39.6961 13.6407 40.1674 13.538 40.6714 13.538C41.4181 13.538 42.0294 13.706 42.5054 14.042C42.9814 14.3687 43.3314 14.8167 43.5554 15.386C43.7888 15.9553 43.9054 16.5993 43.9054 17.318C43.9054 18.0367 43.7888 18.6807 43.5554 19.25C43.3221 19.8193 42.9628 20.2673 42.4774 20.594C41.9921 20.9207 41.3714 21.084 40.6154 21.084C40.2421 21.084 39.9061 21.0467 39.6074 20.972C39.3088 20.888 39.0474 20.7713 38.8234 20.622C38.5994 20.4727 38.4034 20.3047 38.2354 20.118V23.66H37.0454ZM40.5174 20.034C41.0588 20.034 41.4881 19.9127 41.8054 19.67C42.1228 19.418 42.3514 19.0867 42.4914 18.676C42.6408 18.2653 42.7154 17.8127 42.7154 17.318C42.7154 16.814 42.6408 16.3567 42.4914 15.946C42.3514 15.5353 42.1181 15.2087 41.7914 14.966C41.4648 14.7233 41.0308 14.602 40.4894 14.602C40.0041 14.602 39.5888 14.728 39.2434 14.98C38.9074 15.2227 38.6508 15.554 38.4734 15.974C38.2961 16.3847 38.2074 16.8373 38.2074 17.332C38.2074 17.8453 38.2914 18.3073 38.4594 18.718C38.6274 19.1287 38.8841 19.4507 39.2294 19.684C39.5748 19.9173 40.0041 20.034 40.5174 20.034ZM48.66 21.084C47.8853 21.084 47.2366 20.9253 46.714 20.608C46.1913 20.2813 45.7993 19.8333 45.538 19.264C45.286 18.6947 45.16 18.046 45.16 17.318C45.16 16.5807 45.286 15.932 45.538 15.372C45.7993 14.8027 46.1913 14.3547 46.714 14.028C47.2366 13.7013 47.8946 13.538 48.688 13.538C49.4626 13.538 50.1066 13.7013 50.62 14.028C51.1426 14.3547 51.53 14.8027 51.782 15.372C52.0433 15.932 52.174 16.5807 52.174 17.318C52.174 18.046 52.0433 18.6947 51.782 19.264C51.5206 19.8333 51.1286 20.2813 50.606 20.608C50.0926 20.9253 49.444 21.084 48.66 21.084ZM48.66 20.034C49.2013 20.034 49.64 19.9127 49.976 19.67C50.3213 19.4273 50.5733 19.1007 50.732 18.69C50.9 18.2793 50.984 17.822 50.984 17.318C50.984 16.814 50.9 16.3567 50.732 15.946C50.5733 15.5353 50.3213 15.2087 49.976 14.966C49.64 14.7233 49.2013 14.602 48.66 14.602C48.128 14.602 47.6893 14.7233 47.344 14.966C47.008 15.2087 46.756 15.5353 46.588 15.946C46.4293 16.3567 46.35 16.814 46.35 17.318C46.35 17.822 46.4293 18.2793 46.588 18.69C46.756 19.1007 47.008 19.4273 47.344 19.67C47.6893 19.9127 48.128 20.034 48.66 20.034Z" fill="black"/>
<path d="M355.204 21V11.102H358.676C359.171 11.102 359.619 11.144 360.02 11.228C360.421 11.3027 360.767 11.4333 361.056 11.62C361.355 11.8067 361.583 12.0587 361.742 12.376C361.901 12.6933 361.98 13.0947 361.98 13.58C361.98 14.084 361.863 14.532 361.63 14.924C361.406 15.316 361.056 15.6053 360.58 15.792C361.215 15.904 361.691 16.1747 362.008 16.604C362.325 17.024 362.484 17.57 362.484 18.242C362.484 18.774 362.381 19.2173 362.176 19.572C361.98 19.9267 361.7 20.2113 361.336 20.426C360.981 20.6313 360.571 20.7807 360.104 20.874C359.637 20.958 359.138 21 358.606 21H355.204ZM356.422 19.894H358.564C358.853 19.894 359.152 19.88 359.46 19.852C359.777 19.8147 360.071 19.7447 360.342 19.642C360.613 19.53 360.832 19.3573 361 19.124C361.168 18.8907 361.252 18.578 361.252 18.186C361.252 17.85 361.187 17.5747 361.056 17.36C360.935 17.1453 360.767 16.9773 360.552 16.856C360.347 16.7347 360.109 16.6507 359.838 16.604C359.567 16.5573 359.292 16.534 359.012 16.534H356.422V19.894ZM356.422 15.442H358.326C358.671 15.442 358.993 15.414 359.292 15.358C359.591 15.2927 359.852 15.19 360.076 15.05C360.3 14.91 360.473 14.728 360.594 14.504C360.725 14.28 360.79 14 360.79 13.664C360.79 13.2347 360.692 12.9173 360.496 12.712C360.3 12.5067 360.043 12.3713 359.726 12.306C359.409 12.2407 359.063 12.208 358.69 12.208H356.422V15.442ZM367.304 21.084C366.52 21.084 365.871 20.9253 365.358 20.608C364.844 20.2813 364.462 19.8333 364.21 19.264C363.958 18.6947 363.832 18.046 363.832 17.318C363.832 16.5807 363.962 15.932 364.224 15.372C364.494 14.8027 364.886 14.3547 365.4 14.028C365.913 13.7013 366.543 13.538 367.29 13.538C367.84 13.538 368.321 13.6453 368.732 13.86C369.152 14.0653 369.497 14.3453 369.768 14.7C370.048 15.0547 370.248 15.4513 370.37 15.89C370.5 16.3287 370.556 16.7813 370.538 17.248C370.528 17.332 370.524 17.416 370.524 17.5C370.524 17.584 370.519 17.668 370.51 17.752H365.036C365.073 18.1813 365.18 18.5687 365.358 18.914C365.535 19.2593 365.787 19.5347 366.114 19.74C366.44 19.936 366.846 20.034 367.332 20.034C367.574 20.034 367.817 20.006 368.06 19.95C368.312 19.8847 368.536 19.7773 368.732 19.628C368.937 19.4787 369.082 19.278 369.166 19.026H370.384C370.272 19.502 370.062 19.894 369.754 20.202C369.446 20.5007 369.077 20.7247 368.648 20.874C368.218 21.014 367.77 21.084 367.304 21.084ZM365.064 16.716H369.334C369.324 16.296 369.231 15.9273 369.054 15.61C368.876 15.2927 368.634 15.0453 368.326 14.868C368.027 14.6907 367.668 14.602 367.248 14.602C366.79 14.602 366.403 14.7 366.086 14.896C365.778 15.092 365.54 15.3487 365.372 15.666C365.204 15.9833 365.101 16.3333 365.064 16.716ZM376.477 21V18.158C376.123 18.2233 375.777 18.27 375.441 18.298C375.115 18.3167 374.821 18.326 374.559 18.326C373.869 18.326 373.323 18.2187 372.921 18.004C372.52 17.7893 372.235 17.4627 372.067 17.024C371.899 16.576 371.815 16.0207 371.815 15.358V13.622H373.005V15.274C373.005 15.7033 373.047 16.0673 373.131 16.366C373.215 16.6647 373.379 16.8933 373.621 17.052C373.864 17.2013 374.228 17.276 374.713 17.276C374.993 17.276 375.287 17.262 375.595 17.234C375.913 17.206 376.207 17.164 376.477 17.108V13.622H377.667V21H376.477ZM382.739 21.084C381.955 21.084 381.307 20.9253 380.793 20.608C380.28 20.2813 379.897 19.8333 379.645 19.264C379.393 18.6947 379.267 18.046 379.267 17.318C379.267 16.5807 379.398 15.932 379.659 15.372C379.93 14.8027 380.322 14.3547 380.835 14.028C381.349 13.7013 381.979 13.538 382.725 13.538C383.276 13.538 383.757 13.6453 384.167 13.86C384.587 14.0653 384.933 14.3453 385.203 14.7C385.483 15.0547 385.684 15.4513 385.805 15.89C385.936 16.3287 385.992 16.7813 385.973 17.248C385.964 17.332 385.959 17.416 385.959 17.5C385.959 17.584 385.955 17.668 385.945 17.752H380.471C380.509 18.1813 380.616 18.5687 380.793 18.914C380.971 19.2593 381.223 19.5347 381.549 19.74C381.876 19.936 382.282 20.034 382.767 20.034C383.01 20.034 383.253 20.006 383.495 19.95C383.747 19.8847 383.971 19.7773 384.167 19.628C384.373 19.4787 384.517 19.278 384.601 19.026H385.819C385.707 19.502 385.497 19.894 385.189 20.202C384.881 20.5007 384.513 20.7247 384.083 20.874C383.654 21.014 383.206 21.084 382.739 21.084ZM380.499 16.716H384.769C384.76 16.296 384.667 15.9273 384.489 15.61C384.312 15.2927 384.069 15.0453 383.761 14.868C383.463 14.6907 383.103 14.602 382.683 14.602C382.226 14.602 381.839 14.7 381.521 14.896C381.213 15.092 380.975 15.3487 380.807 15.666C380.639 15.9833 380.537 16.3333 380.499 16.716ZM387.573 23.66V13.622H388.707L388.763 14.756C389.015 14.3547 389.355 14.0513 389.785 13.846C390.223 13.6407 390.695 13.538 391.199 13.538C391.945 13.538 392.557 13.706 393.033 14.042C393.509 14.3687 393.859 14.8167 394.083 15.386C394.316 15.9553 394.433 16.5993 394.433 17.318C394.433 18.0367 394.316 18.6807 394.083 19.25C393.849 19.8193 393.49 20.2673 393.005 20.594C392.519 20.9207 391.899 21.084 391.143 21.084C390.769 21.084 390.433 21.0467 390.135 20.972C389.836 20.888 389.575 20.7713 389.351 20.622C389.127 20.4727 388.931 20.3047 388.763 20.118V23.66H387.573ZM391.045 20.034C391.586 20.034 392.015 19.9127 392.333 19.67C392.65 19.418 392.879 19.0867 393.019 18.676C393.168 18.2653 393.243 17.8127 393.243 17.318C393.243 16.814 393.168 16.3567 393.019 15.946C392.879 15.5353 392.645 15.2087 392.319 14.966C391.992 14.7233 391.558 14.602 391.017 14.602C390.531 14.602 390.116 14.728 389.771 14.98C389.435 15.2227 389.178 15.554 389.001 15.974C388.823 16.3847 388.735 16.8373 388.735 17.332C388.735 17.8453 388.819 18.3073 388.987 18.718C389.155 19.1287 389.411 19.4507 389.757 19.684C390.102 19.9173 390.531 20.034 391.045 20.034Z" fill="black"/>
</svg>
