<svg width="88" height="36" viewBox="0 0 88 36" fill="none" xmlns="http://www.w3.org/2000/svg">
<path d="M0 18C0 8.05887 8.05887 0 18 0H70C79.9411 0 88 8.05887 88 18V18C88 27.9411 79.9411 36 70 36H18C8.05887 36 0 27.9411 0 18V18Z" fill="#D9D9D9"/>
<path d="M21.392 23V11.688H22.784V16.808H28.848V11.688H30.24V23H28.848V18.088H22.784V23H21.392ZM35.401 23.096C35.017 23.096 34.6437 23.048 34.281 22.952C33.929 22.8453 33.609 22.6907 33.321 22.488C33.0437 22.2747 32.8197 22.0133 32.649 21.704C32.489 21.384 32.409 21.016 32.409 20.6C32.409 20.12 32.4943 19.7147 32.665 19.384C32.8463 19.0533 33.0863 18.792 33.385 18.6C33.6837 18.408 34.0303 18.2693 34.425 18.184C34.8197 18.0987 35.2303 18.056 35.657 18.056H38.137C38.137 17.576 38.0677 17.16 37.929 16.808C37.801 16.456 37.5877 16.184 37.289 15.992C36.9903 15.7893 36.5957 15.688 36.105 15.688C35.8063 15.688 35.529 15.72 35.273 15.784C35.017 15.848 34.7983 15.9493 34.617 16.088C34.4357 16.2267 34.3023 16.4133 34.217 16.648H32.761C32.8357 16.264 32.9797 15.9387 33.193 15.672C33.417 15.3947 33.6837 15.1707 33.993 15C34.313 14.8187 34.6543 14.6853 35.017 14.6C35.3797 14.5147 35.7423 14.472 36.105 14.472C36.9157 14.472 37.5663 14.6373 38.057 14.968C38.5477 15.288 38.905 15.7467 39.129 16.344C39.353 16.9307 39.465 17.6293 39.465 18.44V23H38.329L38.249 21.928C38.0143 22.248 37.7317 22.4933 37.401 22.664C37.0703 22.8347 36.729 22.9467 36.377 23C36.0357 23.064 35.7103 23.096 35.401 23.096ZM35.529 21.896C36.0623 21.896 36.521 21.8107 36.905 21.64C37.2997 21.4587 37.6037 21.1973 37.817 20.856C38.0303 20.5147 38.137 20.0987 38.137 19.608V19.192H36.649C36.297 19.192 35.9503 19.1973 35.609 19.208C35.2677 19.2187 34.9583 19.2613 34.681 19.336C34.4037 19.4107 34.1797 19.5387 34.009 19.72C33.849 19.9013 33.769 20.1627 33.769 20.504C33.769 20.824 33.849 21.0853 34.009 21.288C34.1797 21.4907 34.3983 21.6453 34.665 21.752C34.9423 21.848 35.2303 21.896 35.529 21.896ZM44.628 23.096C44.2227 23.096 43.8173 23.0587 43.412 22.984C43.0067 22.9093 42.628 22.7867 42.276 22.616C41.9347 22.4347 41.6573 22.1947 41.444 21.896C41.2307 21.5867 41.1133 21.2027 41.092 20.744H42.42C42.4733 21.032 42.628 21.2613 42.884 21.432C43.14 21.6027 43.428 21.7253 43.748 21.8C44.0787 21.864 44.372 21.896 44.628 21.896C44.9267 21.896 45.2307 21.864 45.54 21.8C45.86 21.736 46.1267 21.608 46.34 21.416C46.564 21.224 46.676 20.9413 46.676 20.568C46.676 20.2053 46.5853 19.9387 46.404 19.768C46.2333 19.5973 46.004 19.4853 45.716 19.432C45.4387 19.3787 45.1347 19.352 44.804 19.352H43.3V18.152H44.532C44.7347 18.152 44.9427 18.136 45.156 18.104C45.3693 18.0613 45.5667 17.9973 45.748 17.912C45.9293 17.816 46.0733 17.6827 46.18 17.512C46.2973 17.3413 46.356 17.1227 46.356 16.856C46.356 16.5573 46.2707 16.3227 46.1 16.152C45.9293 15.9813 45.7107 15.864 45.444 15.8C45.1773 15.7253 44.9053 15.688 44.628 15.688C44.372 15.688 44.1 15.7147 43.812 15.768C43.5347 15.8213 43.2947 15.928 43.092 16.088C42.8893 16.2373 42.7667 16.4613 42.724 16.76H41.38C41.4013 16.184 41.5773 15.7307 41.908 15.4C42.2387 15.0693 42.6493 14.8347 43.14 14.696C43.6307 14.5467 44.1213 14.472 44.612 14.472C44.9853 14.472 45.3533 14.5093 45.716 14.584C46.0787 14.6587 46.4093 14.7867 46.708 14.968C47.0067 15.1387 47.2413 15.368 47.412 15.656C47.5933 15.944 47.684 16.3013 47.684 16.728C47.684 17.112 47.5933 17.4533 47.412 17.752C47.2307 18.0507 46.9533 18.2907 46.58 18.472C47.124 18.6427 47.5027 18.9093 47.716 19.272C47.9293 19.6347 48.036 20.0667 48.036 20.568C48.036 21.016 47.94 21.4 47.748 21.72C47.556 22.0293 47.2947 22.2907 46.964 22.504C46.644 22.7067 46.2813 22.856 45.876 22.952C45.4707 23.048 45.0547 23.096 44.628 23.096ZM52.4948 23.096C52.1108 23.096 51.7374 23.048 51.3748 22.952C51.0228 22.8453 50.7028 22.6907 50.4148 22.488C50.1374 22.2747 49.9134 22.0133 49.7428 21.704C49.5828 21.384 49.5028 21.016 49.5028 20.6C49.5028 20.12 49.5881 19.7147 49.7588 19.384C49.9401 19.0533 50.1801 18.792 50.4788 18.6C50.7774 18.408 51.1241 18.2693 51.5188 18.184C51.9134 18.0987 52.3241 18.056 52.7508 18.056H55.2308C55.2308 17.576 55.1614 17.16 55.0228 16.808C54.8948 16.456 54.6814 16.184 54.3828 15.992C54.0841 15.7893 53.6894 15.688 53.1988 15.688C52.9001 15.688 52.6228 15.72 52.3668 15.784C52.1108 15.848 51.8921 15.9493 51.7108 16.088C51.5294 16.2267 51.3961 16.4133 51.3108 16.648H49.8548C49.9294 16.264 50.0734 15.9387 50.2868 15.672C50.5108 15.3947 50.7774 15.1707 51.0868 15C51.4068 14.8187 51.7481 14.6853 52.1108 14.6C52.4734 14.5147 52.8361 14.472 53.1988 14.472C54.0094 14.472 54.6601 14.6373 55.1508 14.968C55.6414 15.288 55.9988 15.7467 56.2228 16.344C56.4468 16.9307 56.5588 17.6293 56.5588 18.44V23H55.4228L55.3428 21.928C55.1081 22.248 54.8254 22.4933 54.4948 22.664C54.1641 22.8347 53.8228 22.9467 53.4708 23C53.1294 23.064 52.8041 23.096 52.4948 23.096ZM52.6228 21.896C53.1561 21.896 53.6148 21.8107 53.9988 21.64C54.3934 21.4587 54.6974 21.1973 54.9108 20.856C55.1241 20.5147 55.2308 20.0987 55.2308 19.608V19.192H53.7428C53.3908 19.192 53.0441 19.1973 52.7028 19.208C52.3614 19.2187 52.0521 19.2613 51.7748 19.336C51.4974 19.4107 51.2734 19.5387 51.1028 19.72C50.9428 19.9013 50.8628 20.1627 50.8628 20.504C50.8628 20.824 50.9428 21.0853 51.1028 21.288C51.2734 21.4907 51.4921 21.6453 51.7588 21.752C52.0361 21.848 52.3241 21.896 52.6228 21.896ZM57.9458 25.592V21.816C58.2551 21.816 58.5004 21.7307 58.6818 21.56C58.8738 21.3893 59.0231 21.1653 59.1298 20.888C59.2364 20.6107 59.3164 20.312 59.3698 19.992C59.4231 19.6613 59.4658 19.3467 59.4978 19.048C59.5511 18.5573 59.5831 18.072 59.5938 17.592C59.6151 17.1013 59.6258 16.712 59.6258 16.424C59.6364 16.1147 59.6418 15.8053 59.6418 15.496C59.6418 15.1867 59.6418 14.8773 59.6418 14.568H65.6258V21.816H66.7298V25.592H65.4178V23H59.2578V25.592H57.9458ZM60.1058 21.816H64.2658V15.768H60.9378C60.9271 16.216 60.9164 16.7173 60.9058 17.272C60.8951 17.8267 60.8738 18.344 60.8418 18.824C60.8311 19.1013 60.8044 19.416 60.7618 19.768C60.7298 20.12 60.6658 20.4773 60.5698 20.84C60.4738 21.192 60.3191 21.5173 60.1058 21.816Z" fill="black"/>
</svg>
