<svg width="100" height="36" viewBox="0 0 100 36" fill="none" xmlns="http://www.w3.org/2000/svg">
<rect width="100" height="36" rx="18" fill="#0094FA"/>
<path d="M20.352 26.12V21.736C20.736 21.736 21.024 21.6667 21.216 21.528C21.4187 21.3787 21.5733 21.1813 21.68 20.936C21.7653 20.7227 21.84 20.4667 21.904 20.168C21.968 19.8587 22.0213 19.528 22.064 19.176C22.1173 18.8133 22.1547 18.4507 22.176 18.088C22.2507 17.0213 22.304 15.9547 22.336 14.888C22.368 13.8213 22.3893 12.7547 22.4 11.688H29.632V21.736H30.992V26.12H29.6V23H21.744V26.12H20.352ZM22.928 21.736H28.24V12.952H23.76L23.616 17.352C23.6053 17.608 23.5893 17.912 23.568 18.264C23.5573 18.616 23.5253 18.9893 23.472 19.384C23.4293 19.768 23.3653 20.1627 23.28 20.568C23.1947 20.9733 23.0773 21.3627 22.928 21.736ZM35.1198 23.096C34.7358 23.096 34.3624 23.048 33.9998 22.952C33.6478 22.8453 33.3278 22.6907 33.0398 22.488C32.7624 22.2747 32.5384 22.0133 32.3678 21.704C32.2078 21.384 32.1278 21.016 32.1278 20.6C32.1278 20.12 32.2131 19.7147 32.3838 19.384C32.5651 19.0533 32.8051 18.792 33.1038 18.6C33.4024 18.408 33.7491 18.2693 34.1438 18.184C34.5384 18.0987 34.9491 18.056 35.3758 18.056H37.8558C37.8558 17.576 37.7864 17.16 37.6478 16.808C37.5198 16.456 37.3064 16.184 37.0078 15.992C36.7091 15.7893 36.3144 15.688 35.8238 15.688C35.5251 15.688 35.2478 15.72 34.9918 15.784C34.7358 15.848 34.5171 15.9493 34.3358 16.088C34.1544 16.2267 34.0211 16.4133 33.9358 16.648H32.4798C32.5544 16.264 32.6984 15.9387 32.9118 15.672C33.1358 15.3947 33.4024 15.1707 33.7118 15C34.0318 14.8187 34.3731 14.6853 34.7358 14.6C35.0984 14.5147 35.4611 14.472 35.8238 14.472C36.6344 14.472 37.2851 14.6373 37.7758 14.968C38.2664 15.288 38.6238 15.7467 38.8478 16.344C39.0718 16.9307 39.1838 17.6293 39.1838 18.44V23H38.0478L37.9678 21.928C37.7331 22.248 37.4504 22.4933 37.1198 22.664C36.7891 22.8347 36.4478 22.9467 36.0958 23C35.7544 23.064 35.4291 23.096 35.1198 23.096ZM35.2478 21.896C35.7811 21.896 36.2398 21.8107 36.6238 21.64C37.0184 21.4587 37.3224 21.1973 37.5358 20.856C37.7491 20.5147 37.8558 20.0987 37.8558 19.608V19.192H36.3678C36.0158 19.192 35.6691 19.1973 35.3278 19.208C34.9864 19.2187 34.6771 19.2613 34.3998 19.336C34.1224 19.4107 33.8984 19.5387 33.7278 19.72C33.5678 19.9013 33.4878 20.1627 33.4878 20.504C33.4878 20.824 33.5678 21.0853 33.7278 21.288C33.8984 21.4907 34.1171 21.6453 34.3838 21.752C34.6611 21.848 34.9491 21.896 35.2478 21.896ZM40.5228 23.016V21.832C40.7361 21.832 40.9281 21.7893 41.0988 21.704C41.2694 21.608 41.4188 21.4693 41.5468 21.288C41.6961 21.0747 41.8134 20.7653 41.8988 20.36C41.9841 19.9547 42.0428 19.5227 42.0748 19.064C42.1174 18.552 42.1494 18.0507 42.1708 17.56C42.1921 17.0587 42.2081 16.5627 42.2188 16.072C42.2401 15.5813 42.2508 15.08 42.2508 14.568H48.1068V23H46.7468V15.768H43.5788C43.5681 16.1307 43.5521 16.4987 43.5308 16.872C43.5201 17.2347 43.5041 17.6027 43.4828 17.976C43.4721 18.3387 43.4561 18.7067 43.4348 19.08C43.4241 19.5067 43.3814 19.9867 43.3068 20.52C43.2321 21.0533 43.0721 21.5387 42.8268 21.976C42.5921 22.392 42.3041 22.6693 41.9628 22.808C41.6321 22.9467 41.1521 23.016 40.5228 23.016ZM50.2439 23V14.568H51.6359V17.784H53.4919C53.9932 17.784 54.4412 17.8267 54.8359 17.912C55.2412 17.9867 55.5879 18.12 55.8759 18.312C56.1639 18.504 56.3825 18.7653 56.5319 19.096C56.6919 19.416 56.7719 19.8267 56.7719 20.328C56.7719 20.7867 56.6919 21.1867 56.5319 21.528C56.3719 21.8587 56.1479 22.136 55.8599 22.36C55.5719 22.5733 55.2252 22.7333 54.8199 22.84C54.4252 22.9467 53.9879 23 53.5079 23H50.2439ZM51.6359 21.816H52.4359C52.8092 21.816 53.1665 21.8053 53.5079 21.784C53.8599 21.7627 54.1799 21.7093 54.4679 21.624C54.7559 21.5387 54.9799 21.4 55.1399 21.208C55.3105 21.0053 55.3959 20.728 55.3959 20.376C55.3959 20.0347 55.3265 19.7733 55.1879 19.592C55.0599 19.4 54.8892 19.2613 54.6759 19.176C54.4625 19.08 54.2279 19.0213 53.9719 19C53.7265 18.9787 53.4812 18.968 53.2359 18.968H51.6359V21.816ZM58.5408 23V14.568H59.9008V21.816H63.0688V14.568H64.4288V21.816H67.6288V14.568H68.9888V23H58.5408ZM74.7825 23.096C73.8865 23.096 73.1452 22.9147 72.5585 22.552C71.9718 22.1787 71.5345 21.6667 71.2465 21.016C70.9585 20.3653 70.8145 19.624 70.8145 18.792C70.8145 17.9493 70.9638 17.208 71.2625 16.568C71.5718 15.9173 72.0198 15.4053 72.6065 15.032C73.1932 14.6587 73.9132 14.472 74.7665 14.472C75.3958 14.472 75.9452 14.5947 76.4145 14.84C76.8945 15.0747 77.2892 15.3947 77.5985 15.8C77.9185 16.2053 78.1478 16.6587 78.2865 17.16C78.4358 17.6613 78.4998 18.1787 78.4785 18.712C78.4678 18.808 78.4625 18.904 78.4625 19C78.4625 19.096 78.4572 19.192 78.4465 19.288H72.1905C72.2332 19.7787 72.3558 20.2213 72.5585 20.616C72.7612 21.0107 73.0492 21.3253 73.4225 21.56C73.7958 21.784 74.2598 21.896 74.8145 21.896C75.0918 21.896 75.3692 21.864 75.6465 21.8C75.9345 21.7253 76.1905 21.6027 76.4145 21.432C76.6492 21.2613 76.8145 21.032 76.9105 20.744H78.3025C78.1745 21.288 77.9345 21.736 77.5825 22.088C77.2305 22.4293 76.8092 22.6853 76.3185 22.856C75.8278 23.016 75.3158 23.096 74.7825 23.096ZM72.2225 18.104H77.1025C77.0918 17.624 76.9852 17.2027 76.7825 16.84C76.5798 16.4773 76.3025 16.1947 75.9505 15.992C75.6092 15.7893 75.1985 15.688 74.7185 15.688C74.1958 15.688 73.7532 15.8 73.3905 16.024C73.0385 16.248 72.7665 16.5413 72.5745 16.904C72.3825 17.2667 72.2652 17.6667 72.2225 18.104Z" fill="white"/>
</svg>
