<svg width="241" height="83" viewBox="0 0 241 83" fill="none" xmlns="http://www.w3.org/2000/svg">
<path d="M217.132 82.604C215.599 82.604 214.237 82.4093 213.045 82.0201C211.853 81.6551 210.697 81.0834 209.578 80.3048V75.1226C210.721 75.8525 211.792 76.3756 212.789 76.6919C213.787 77.0082 214.882 77.1663 216.074 77.1663C217.071 77.1663 217.959 76.9473 218.738 76.5094C219.517 76.0715 220.149 75.2686 220.636 74.1008L228.628 55.1602H236.547L226.548 76.3999C225.842 77.9327 224.979 79.1492 223.957 80.0494C222.959 80.9739 221.876 81.6308 220.709 82.0201C219.541 82.4093 218.349 82.604 217.132 82.604ZM217.388 74.0643L208.52 55.1602H216.731L224.577 74.0643H217.388Z" fill="white"/>
<path d="M180.594 55.1634H188.075V61.1485L187.747 62.0243V67.8634L188.075 69.5787V82.0233H180.594V55.1634ZM185.703 65.6008C186.019 63.3381 186.676 61.3918 187.674 59.7617C188.696 58.1073 189.985 56.83 191.542 55.9298C193.099 55.0052 194.863 54.543 196.834 54.543C198.877 54.543 200.666 55.0052 202.198 55.9298C203.756 56.8543 204.96 58.1437 205.811 59.7982C206.687 61.4526 207.125 63.3868 207.125 65.6008C207.125 67.7661 206.687 69.6882 205.811 71.3669C204.96 73.0213 203.756 74.3108 202.198 75.2353C200.666 76.1355 198.877 76.5856 196.834 76.5856C194.863 76.5856 193.099 76.1355 191.542 75.2353C189.985 74.3108 188.708 73.0213 187.71 71.3669C186.713 69.7125 186.044 67.7904 185.703 65.6008ZM199.607 65.6008C199.607 64.5546 199.388 63.6301 198.95 62.8272C198.537 62.0243 197.941 61.3918 197.162 60.9295C196.408 60.4672 195.544 60.2361 194.571 60.2361C193.574 60.2361 192.625 60.4672 191.725 60.9295C190.824 61.3918 190.034 62.0243 189.352 62.8272C188.671 63.6301 188.148 64.5546 187.783 65.6008C188.148 66.6226 188.671 67.535 189.352 68.3379C190.034 69.1407 190.824 69.7733 191.725 70.2356C192.625 70.6735 193.574 70.8925 194.571 70.8925C195.544 70.8925 196.408 70.6735 197.162 70.2356C197.941 69.7733 198.537 69.1407 198.95 68.3379C199.388 67.535 199.607 66.6226 199.607 65.6008Z" fill="white"/>
<path d="M149.135 75.9985V55.1602H156.507V71.9476L154.901 71.4367L165.813 55.1602H175.374V75.9985H168.039V58.7366L169.645 59.284L158.441 75.9985H149.135Z" fill="white"/>
<path d="M130.085 57.7148H137.567V75.9985H130.085V57.7148ZM122.166 55.1602H145.486V60.7803H122.166V55.1602Z" fill="white"/>
<path d="M93.4863 55.1634H100.968V61.1485L100.639 62.0243V67.8634L100.968 69.5787V82.0233H93.4863V55.1634ZM98.5956 65.6008C98.9118 63.3381 99.5687 61.3918 100.566 59.7617C101.588 58.1073 102.878 56.83 104.435 55.9298C105.992 55.0052 107.756 54.543 109.726 54.543C111.77 54.543 113.558 55.0052 115.091 55.9298C116.648 56.8543 117.852 58.1437 118.704 59.7982C119.58 61.4526 120.018 63.3868 120.018 65.6008C120.018 67.7661 119.58 69.6882 118.704 71.3669C117.852 73.0213 116.648 74.3108 115.091 75.2353C113.558 76.1355 111.77 76.5856 109.726 76.5856C107.756 76.5856 105.992 76.1355 104.435 75.2353C102.878 74.3108 101.6 73.0213 100.603 71.3669C99.6052 69.7125 98.9362 67.7904 98.5956 65.6008ZM112.5 65.6008C112.5 64.5546 112.281 63.6301 111.843 62.8272C111.429 62.0243 110.833 61.3918 110.055 60.9295C109.301 60.4672 108.437 60.2361 107.464 60.2361C106.466 60.2361 105.517 60.4672 104.617 60.9295C103.717 61.3918 102.926 62.0243 102.245 62.8272C101.564 63.6301 101.041 64.5546 100.676 65.6008C101.041 66.6226 101.564 67.535 102.245 68.3379C102.926 69.1407 103.717 69.7733 104.617 70.2356C105.517 70.6735 106.466 70.8925 107.464 70.8925C108.437 70.8925 109.301 70.6735 110.055 70.2356C110.833 69.7733 111.429 69.1407 111.843 68.3379C112.281 67.535 112.5 66.6226 112.5 65.6008Z" fill="white"/>
<path d="M81.3014 64.433C81.3014 63.0705 80.7662 62.0243 79.6957 61.2944C78.6252 60.5645 76.9099 60.1996 74.55 60.1996C73.0902 60.1996 71.6061 60.3699 70.0976 60.7105C68.6135 61.0268 67.2146 61.5134 65.9008 62.1703V56.7691C67.5795 55.9906 69.2704 55.431 70.9735 55.0904C72.6766 54.7254 74.4648 54.543 76.3382 54.543C78.8685 54.543 81.0217 54.9201 82.7977 55.6743C84.5981 56.4042 86.0092 57.4747 87.0311 58.8858C88.0529 60.2726 88.5638 61.9757 88.5638 63.995V76.0017H81.3379L81.3014 64.433ZM73.1267 62.8272C76.3139 62.7299 78.7347 62.9732 80.3891 63.5571C82.0678 64.141 82.9923 64.5789 83.1626 64.8709C83.333 65.1628 83.4181 66.7686 83.4181 69.6882C83.4181 70.2721 83.1748 70.9655 82.6882 71.7683C82.2016 72.5712 81.5082 73.3376 80.608 74.0675C79.7079 74.7974 78.6252 75.4056 77.36 75.8922C76.0949 76.3545 74.6838 76.5856 73.1267 76.5856C71.4236 76.5856 69.8908 76.318 68.5284 75.7827C67.1903 75.2231 66.1319 74.4324 65.3534 73.4106C64.5748 72.3644 64.1855 71.1358 64.1855 69.7247C64.1855 68.3135 64.5748 67.0971 65.3534 66.0752C66.1562 65.0534 67.2268 64.2748 68.5649 63.7396C69.9273 63.18 71.4479 62.8759 73.1267 62.8272ZM76.6301 66.8416C74.4161 66.8416 72.8956 67.0727 72.0683 67.535C71.2411 67.9972 70.8275 68.5933 70.8275 69.3232C70.8275 70.0531 71.229 70.6492 72.0319 71.1114C72.8591 71.5737 74.0025 71.8048 75.4623 71.8048C77.1654 71.8048 78.5643 71.3791 79.6592 70.5275C80.754 69.6517 81.3014 68.6298 81.3014 67.462C80.4256 67.0484 78.8685 66.8416 76.6301 66.8416Z" fill="white"/>
<path d="M35.7949 75.9985V65.5611V55.1602H52.7648C54.7842 55.1602 56.3899 55.6346 57.5821 56.5834C58.7742 57.508 59.3703 58.7731 59.3703 60.3789C59.3703 61.8873 58.7621 63.1159 57.5456 64.0648C56.3535 64.9893 54.699 65.5611 52.5824 65.78L53.0568 64.5757C55.5141 64.673 57.3875 65.1961 58.6769 66.145C59.9907 67.0938 60.6476 68.4076 60.6476 70.0864C60.6476 71.8868 59.9786 73.3222 58.6404 74.3927C57.3023 75.4632 55.5019 75.9985 53.2393 75.9985H35.7949ZM42.9843 74.4292L40.1013 71.3637H50.7576C51.5605 71.3637 52.1566 71.1934 52.5459 70.8528C52.9595 70.4878 53.1663 69.9891 53.1663 69.3565C53.1663 68.7726 52.9473 68.2981 52.5094 67.9332C52.0958 67.5439 51.4267 67.3493 50.5022 67.3493H40.3567V63.4809H49.6263C50.3805 63.4809 50.9523 63.3106 51.3415 62.97C51.7308 62.6293 51.9255 62.1792 51.9255 61.6197C51.9255 61.0601 51.743 60.61 51.378 60.2694C51.0374 59.9288 50.5022 59.7585 49.7723 59.7585H40.1378L42.9843 56.7294V65.5611V74.4292Z" fill="white"/>
<path d="M7.44727 75.9985V55.1602H14.9286V75.9985H7.44727ZM25.0741 75.9985L16.4979 65.3056L25.0011 55.1602H33.0663L24.4172 64.9042L33.6503 75.9985H25.0741ZM11.7536 62.5685H22.6654V68.1157H11.7536V62.5685Z" fill="white"/>
<path d="M229.292 30.5856C226.761 30.5856 224.499 30.1233 222.504 29.1988C220.533 28.2743 218.976 26.9848 217.832 25.3304C216.689 23.6517 216.117 21.7053 216.117 19.4913C216.117 17.326 216.665 15.4282 217.759 13.7982C218.854 12.1438 220.351 10.8543 222.248 9.92976C224.17 9.00523 226.336 8.54297 228.744 8.54297C231.25 8.54297 233.379 9.09039 235.131 10.1852C236.907 11.2557 238.269 12.7763 239.218 14.747C240.191 16.7177 240.678 19.0412 240.678 21.7175H222.139V17.2286H236.481L234.036 18.7979C233.939 17.7274 233.671 16.8272 233.233 16.0973C232.795 15.3431 232.211 14.7714 231.481 14.3821C230.776 13.9928 229.924 13.7982 228.927 13.7982C227.832 13.7982 226.895 14.0171 226.117 14.4551C225.338 14.893 224.73 15.5012 224.292 16.2798C223.854 17.034 223.635 17.922 223.635 18.9439C223.635 20.2577 223.927 21.3768 224.511 22.3014C225.119 23.2016 225.995 23.895 227.139 24.3815C228.306 24.8681 229.73 25.1114 231.408 25.1114C232.941 25.1114 234.462 24.9168 235.97 24.5275C237.503 24.1139 238.89 23.5422 240.131 22.8123V27.5566C238.695 28.5298 237.053 29.284 235.204 29.8192C233.379 30.3301 231.408 30.5856 229.292 30.5856Z" fill="white"/>
<path d="M198.693 11.7148H206.174V29.9985H198.693V11.7148ZM190.773 9.16016H214.093V14.7803H190.773V9.16016Z" fill="white"/>
<path d="M160.848 29.9985V9.16016H168.22V25.9476L166.614 25.4367L177.526 9.16016H187.087V29.9985H179.752V12.7366L181.358 13.284L170.154 29.9985H160.848Z" fill="white"/>
<path d="M129.994 9.16337H137.475V15.1485L137.147 16.0243V21.8634L137.475 23.5787V36.0233H129.994V9.16337ZM135.103 19.6008C135.42 17.3381 136.077 15.3918 137.074 13.7617C138.096 12.1073 139.385 10.83 140.942 9.92976C142.5 9.00523 144.263 8.54297 146.234 8.54297C148.278 8.54297 150.066 9.00523 151.599 9.92976C153.156 10.8543 154.36 12.1438 155.212 13.7982C156.088 15.4526 156.526 17.3868 156.526 19.6008C156.526 21.7661 156.088 23.6882 155.212 25.3669C154.36 27.0213 153.156 28.3108 151.599 29.2353C150.066 30.1355 148.278 30.5856 146.234 30.5856C144.263 30.5856 142.5 30.1355 140.942 29.2353C139.385 28.3108 138.108 27.0213 137.111 25.3669C136.113 23.7125 135.444 21.7904 135.103 19.6008ZM149.008 19.6008C149.008 18.5546 148.789 17.6301 148.351 16.8272C147.937 16.0243 147.341 15.3918 146.563 14.9295C145.808 14.4672 144.945 14.2361 143.972 14.2361C142.974 14.2361 142.025 14.4672 141.125 14.9295C140.225 15.3918 139.434 16.0243 138.753 16.8272C138.072 17.6301 137.548 18.5546 137.184 19.6008C137.548 20.6226 138.072 21.535 138.753 22.3379C139.434 23.1407 140.225 23.7733 141.125 24.2356C142.025 24.6735 142.974 24.8925 143.972 24.8925C144.945 24.8925 145.808 24.6735 146.563 24.2356C147.341 23.7733 147.937 23.1407 148.351 22.3379C148.789 21.535 149.008 20.6226 149.008 19.6008Z" fill="white"/>
<path d="M114.323 30.5856C111.793 30.5856 109.53 30.1233 107.535 29.1988C105.564 28.2743 104.007 26.9848 102.864 25.3304C101.72 23.6517 101.148 21.7053 101.148 19.4913C101.148 17.326 101.696 15.4282 102.791 13.7982C103.886 12.1438 105.382 10.8543 107.279 9.92976C109.202 9.00523 111.367 8.54297 113.776 8.54297C116.281 8.54297 118.41 9.09039 120.162 10.1852C121.938 11.2557 123.301 12.7763 124.249 14.747C125.223 16.7177 125.709 19.0412 125.709 21.7175H107.17V17.2286H121.512L119.067 18.7979C118.97 17.7274 118.702 16.8272 118.264 16.0973C117.826 15.3431 117.242 14.7714 116.513 14.3821C115.807 13.9928 114.955 13.7982 113.958 13.7982C112.863 13.7982 111.926 14.0171 111.148 14.4551C110.369 14.893 109.761 15.5012 109.323 16.2798C108.885 17.034 108.666 17.922 108.666 18.9439C108.666 20.2577 108.958 21.3768 109.542 22.3014C110.15 23.2016 111.026 23.895 112.17 24.3815C113.338 24.8681 114.761 25.1114 116.44 25.1114C117.972 25.1114 119.493 24.9168 121.001 24.5275C122.534 24.1139 123.921 23.5422 125.162 22.8123V27.5566C123.726 28.5298 122.084 29.284 120.235 29.8192C118.41 30.3301 116.44 30.5856 114.323 30.5856Z" fill="white"/>
<path d="M85.0985 30.5841C82.1546 30.5841 79.6365 30.0489 77.5441 28.9784C75.4761 27.8836 73.8825 26.3143 72.7633 24.2706C71.6685 22.2026 71.1211 19.721 71.1211 16.8257C71.1211 12.5194 72.3132 9.12542 74.6975 6.64379C77.0819 4.13784 80.488 2.69023 84.916 2.30096C86.7407 2.15498 88.2492 2.03333 89.4413 1.93601C90.6335 1.81437 91.6066 1.70488 92.3608 1.60756C93.1394 1.48592 93.7963 1.36427 94.3316 1.24262C94.8911 1.12097 95.4264 0.974994 95.9373 0.804688V6.86276C95.3534 7.08173 94.66 7.2642 93.8571 7.41018C93.0542 7.55616 92.0446 7.6778 90.8281 7.77512C89.6359 7.87244 88.1397 7.95759 86.3393 8.03058C83.2251 8.15223 80.9381 8.94294 79.4783 10.4027C78.0429 11.8382 77.3251 13.9305 77.3251 16.6798V17.4461L77.1062 16.8987C77.5441 15.6822 78.2497 14.6361 79.2229 13.7602C80.196 12.8843 81.376 12.2153 82.7628 11.753C84.1496 11.2664 85.658 11.0231 87.2881 11.0231C89.4048 11.0231 91.2539 11.4124 92.8353 12.1909C94.4167 12.9695 95.6454 14.0765 96.5212 15.5119C97.3971 16.9474 97.835 18.6018 97.835 20.4752C97.835 22.5189 97.2998 24.3071 96.2293 25.8399C95.1831 27.3483 93.7111 28.5161 91.8134 29.3433C89.9157 30.1705 87.6774 30.5841 85.0985 30.5841ZM85.2809 25.0735C86.3028 25.0735 87.1908 24.891 87.945 24.5261C88.6992 24.1611 89.2832 23.638 89.6968 22.9568C90.1104 22.2756 90.3172 21.497 90.3172 20.6212C90.3172 19.6966 90.1104 18.9059 89.6968 18.249C89.2832 17.5921 88.6992 17.0812 87.945 16.7163C87.1908 16.3513 86.3028 16.1688 85.2809 16.1688C83.8455 16.1688 82.5439 16.5459 81.376 17.3002C80.2325 18.0301 79.381 19.0519 78.8214 20.3657C79.162 21.7768 79.9162 22.9203 81.0841 23.7962C82.2762 24.6477 83.6752 25.0735 85.2809 25.0735Z" fill="white"/>
<path d="M59.1827 9.16016H66.664V29.9985H59.1827V9.16016ZM34.4395 29.9985V9.16016H41.8843V28.1738L39.5852 24.7798H46.957C47.8816 24.7798 48.5993 24.5608 49.1102 24.1229C49.6211 23.6606 49.8766 23.028 49.8766 22.2252C49.8766 21.398 49.6211 20.7654 49.1102 20.3275C48.5993 19.8652 47.8816 19.6341 46.957 19.6341H39.5487V14.5978H48.1979C50.0469 14.5978 51.6527 14.9263 53.0151 15.5832C54.3776 16.2157 55.4359 17.1159 56.1901 18.2838C56.9687 19.4273 57.358 20.7654 57.358 22.2982C57.358 23.8552 56.9808 25.2177 56.2266 26.3855C55.4724 27.529 54.4141 28.417 53.0516 29.0496C51.6892 29.6822 50.1077 29.9985 48.3073 29.9985H34.4395Z" fill="white"/>
<path d="M20.1774 16.6063L20.7978 15.183C22.9145 15.2316 24.654 15.5601 26.0165 16.1683C27.4033 16.7523 28.4373 17.5795 29.1185 18.65C29.7997 19.6961 30.1403 20.9126 30.1403 22.2994C30.1403 23.7835 29.7997 25.1095 29.1185 26.2773C28.4373 27.4208 27.4154 28.3332 26.053 29.0144C24.7148 29.6713 23.0361 29.9997 21.0167 29.9997H0.798828V15.9494V2.62891H20.2869C22.8171 2.62891 24.7878 3.22498 26.1989 4.41713C27.6101 5.58495 28.3156 7.21504 28.3156 9.30739C28.3156 10.4509 28.048 11.5457 27.5128 12.5919C26.9775 13.6381 26.1138 14.5261 24.9216 15.256C23.7538 15.9615 22.1724 16.4116 20.1774 16.6063ZM8.28019 28.248L5.36063 24.708H18.9731C20.0679 24.708 20.9194 24.4404 21.5277 23.9052C22.1359 23.3699 22.44 22.6279 22.44 21.679C22.44 20.7301 22.1116 19.9759 21.4547 19.4163C20.7978 18.8324 19.8246 18.5405 18.5351 18.5405H5.36063V13.3583H17.5133C18.3891 13.3583 19.119 13.1028 19.7029 12.5919C20.3112 12.0566 20.6153 11.3389 20.6153 10.4387C20.6153 9.70883 20.3598 9.11275 19.8489 8.65049C19.338 8.1639 18.6081 7.9206 17.6593 7.9206H5.39713L8.28019 4.38064V15.9494V28.248Z" fill="white"/>
</svg>
