<svg width="240" height="82" viewBox="0 0 240 82" fill="none" xmlns="http://www.w3.org/2000/svg">
<path d="M191.275 69.6466V80.1935H184.852V75.1938H166.642V80.1935H160.219V69.6466H166.496L167.883 69.7561H182.991L184.269 69.6466H191.275ZM164.562 54.3555H187.48V73.7705H180.072V56.3627L183.466 59.7566H168.211L170.985 57.0561C171.325 58.0536 171.532 59.0024 171.605 59.9026C171.678 60.7785 171.714 61.5814 171.714 62.3113C171.714 65.6687 171.143 68.2842 169.999 70.1576C168.856 72.0066 167.25 72.9311 165.182 72.9311L162.153 70.3765C164.051 69.0627 165 65.8755 165 60.815C165 59.8418 164.963 58.8078 164.89 57.713C164.817 56.6181 164.708 55.499 164.562 54.3555Z" fill="white"/>
<path d="M144.585 75.7809C141.909 75.7809 139.574 75.3308 137.579 74.4306C135.584 73.5061 134.026 72.2166 132.907 70.5622C131.788 68.8835 131.229 66.9614 131.229 64.7961C131.229 62.5821 131.788 60.6479 132.907 58.9935C134.026 57.3391 135.584 56.0496 137.579 55.1251C139.574 54.2005 141.909 53.7383 144.585 53.7383C147.237 53.7383 149.561 54.2005 151.556 55.1251C153.575 56.0496 155.145 57.3391 156.264 58.9935C157.383 60.6479 157.942 62.5821 157.942 64.7961C157.942 66.9614 157.383 68.8835 156.264 70.5622C155.145 72.2166 153.575 73.5061 151.556 74.4306C149.561 75.3308 147.237 75.7809 144.585 75.7809ZM144.585 70.2703C145.802 70.2703 146.836 70.0513 147.688 69.6134C148.563 69.1754 149.232 68.5428 149.695 67.7156C150.157 66.8884 150.388 65.9153 150.388 64.7961C150.388 63.6283 150.157 62.6429 149.695 61.84C149.232 61.0128 148.563 60.3803 147.688 59.9423C146.836 59.5044 145.802 59.2854 144.585 59.2854C143.369 59.2854 142.323 59.5044 141.447 59.9423C140.571 60.3803 139.902 61.0128 139.44 61.84C138.977 62.6429 138.746 63.6161 138.746 64.7596C138.746 65.9031 138.977 66.8884 139.44 67.7156C139.902 68.5428 140.571 69.1754 141.447 69.6134C142.323 70.0513 143.369 70.2703 144.585 70.2703Z" fill="white"/>
<path d="M101.324 54.3587H108.806V60.3438L108.477 61.2196V67.0587L108.806 68.774V81.2186H101.324V54.3587ZM106.433 64.7961C106.75 62.5334 107.407 60.5871 108.404 58.957C109.426 57.3026 110.715 56.0253 112.273 55.1251C113.83 54.2005 115.594 53.7383 117.564 53.7383C119.608 53.7383 121.396 54.2005 122.929 55.1251C124.486 56.0496 125.69 57.3391 126.542 58.9935C127.418 60.6479 127.856 62.5821 127.856 64.7961C127.856 66.9614 127.418 68.8835 126.542 70.5622C125.69 72.2166 124.486 73.5061 122.929 74.4306C121.396 75.3308 119.608 75.7809 117.564 75.7809C115.594 75.7809 113.83 75.3308 112.273 74.4306C110.715 73.5061 109.438 72.2166 108.441 70.5622C107.443 68.9078 106.774 66.9858 106.433 64.7961ZM120.338 64.7961C120.338 63.7499 120.119 62.8254 119.681 62.0225C119.267 61.2196 118.671 60.5871 117.893 60.1248C117.138 59.6625 116.275 59.4314 115.302 59.4314C114.304 59.4314 113.355 59.6625 112.455 60.1248C111.555 60.5871 110.764 61.2196 110.083 62.0225C109.402 62.8254 108.879 63.7499 108.514 64.7961C108.879 65.8179 109.402 66.7303 110.083 67.5332C110.764 68.336 111.555 68.9686 112.455 69.4309C113.355 69.8688 114.304 70.0878 115.302 70.0878C116.275 70.0878 117.138 69.8688 117.893 69.4309C118.671 68.9686 119.267 68.336 119.681 67.5332C120.119 66.7303 120.338 65.8179 120.338 64.7961Z" fill="white"/>
<path d="M83.7339 75.7809C81.0577 75.7809 78.722 75.3308 76.727 74.4306C74.732 73.5061 73.1749 72.2166 72.0557 70.5622C70.9365 68.8835 70.377 66.9614 70.377 64.7961C70.377 62.5821 70.9365 60.6479 72.0557 58.9935C73.1749 57.3391 74.732 56.0496 76.727 55.1251C78.722 54.2005 81.0577 53.7383 83.7339 53.7383C86.3858 53.7383 88.7093 54.2005 90.7043 55.1251C92.7237 56.0496 94.293 57.3391 95.4121 58.9935C96.5313 60.6479 97.0909 62.5821 97.0909 64.7961C97.0909 66.9614 96.5313 68.8835 95.4121 70.5622C94.293 72.2166 92.7237 73.5061 90.7043 74.4306C88.7093 75.3308 86.3858 75.7809 83.7339 75.7809ZM83.7339 70.2703C84.9504 70.2703 85.9844 70.0513 86.8359 69.6134C87.7118 69.1754 88.3809 68.5428 88.8431 67.7156C89.3054 66.8884 89.5365 65.9153 89.5365 64.7961C89.5365 63.6283 89.3054 62.6429 88.8431 61.84C88.3809 61.0128 87.7118 60.3803 86.8359 59.9423C85.9844 59.5044 84.9504 59.2854 83.7339 59.2854C82.5174 59.2854 81.4713 59.5044 80.5954 59.9423C79.7195 60.3803 79.0505 61.0128 78.5882 61.84C78.1259 62.6429 77.8948 63.6161 77.8948 64.7596C77.8948 65.9031 78.1259 66.8884 78.5882 67.7156C79.0505 68.5428 79.7195 69.1754 80.5954 69.6134C81.4713 70.0513 82.5174 70.2703 83.7339 70.2703Z" fill="white"/>
<path d="M68.4125 54.3555V59.9756H54.2892L57.7196 56.5451V75.1938H50.2383V54.3555H68.4125Z" fill="white"/>
<path d="M228.493 29.7809C225.963 29.7809 223.7 29.3187 221.705 28.3941C219.734 27.4696 218.177 26.1801 217.034 24.5257C215.89 22.847 215.318 20.9006 215.318 18.6866C215.318 16.5213 215.866 14.6236 216.961 12.9935C218.055 11.3391 219.552 10.0496 221.449 9.12507C223.371 8.20054 225.537 7.73828 227.945 7.73828C230.451 7.73828 232.58 8.2857 234.332 9.38053C236.108 10.451 237.47 11.9716 238.419 13.9423C239.393 15.913 239.879 18.2365 239.879 20.9128H221.34V16.424H235.682L233.237 17.9932C233.14 16.9227 232.872 16.0225 232.434 15.2926C231.996 14.5384 231.412 13.9667 230.683 13.5774C229.977 13.1881 229.125 12.9935 228.128 12.9935C227.033 12.9935 226.096 13.2124 225.318 13.6504C224.539 14.0883 223.931 14.6966 223.493 15.4751C223.055 16.2293 222.836 17.1173 222.836 18.1392C222.836 19.453 223.128 20.5722 223.712 21.4967C224.32 22.3969 225.196 23.0903 226.34 23.5769C227.508 24.0635 228.931 24.3067 230.61 24.3067C232.142 24.3067 233.663 24.1121 235.171 23.7228C236.704 23.3092 238.091 22.7375 239.332 22.0076V26.7519C237.896 27.7251 236.254 28.4793 234.405 29.0145C232.58 29.5255 230.61 29.7809 228.493 29.7809Z" fill="white"/>
<path d="M197.894 10.9101H205.375V29.1938H197.894V10.9101ZM189.975 8.35547H213.295V13.9756H189.975V8.35547Z" fill="white"/>
<path d="M160.049 29.1938V8.35547H167.421V25.1429L165.815 24.632L176.727 8.35547H186.288V29.1938H178.953V11.9319L180.559 12.4793L169.355 29.1938H160.049Z" fill="white"/>
<path d="M129.195 8.35868H136.677V14.3438L136.348 15.2196V21.0587L136.677 22.774V35.2186H129.195V8.35868ZM134.305 18.7961C134.621 16.5334 135.278 14.5871 136.275 12.957C137.297 11.3026 138.587 10.0253 140.144 9.12507C141.701 8.20054 143.465 7.73828 145.435 7.73828C147.479 7.73828 149.267 8.20054 150.8 9.12507C152.357 10.0496 153.561 11.3391 154.413 12.9935C155.289 14.6479 155.727 16.5821 155.727 18.7961C155.727 20.9614 155.289 22.8835 154.413 24.5622C153.561 26.2166 152.357 27.5061 150.8 28.4306C149.267 29.3308 147.479 29.7809 145.435 29.7809C143.465 29.7809 141.701 29.3308 140.144 28.4306C138.587 27.5061 137.309 26.2166 136.312 24.5622C135.314 22.9078 134.645 20.9858 134.305 18.7961ZM148.209 18.7961C148.209 17.7499 147.99 16.8254 147.552 16.0225C147.138 15.2196 146.542 14.5871 145.764 14.1248C145.01 13.6625 144.146 13.4314 143.173 13.4314C142.175 13.4314 141.226 13.6625 140.326 14.1248C139.426 14.5871 138.635 15.2196 137.954 16.0225C137.273 16.8254 136.75 17.7499 136.385 18.7961C136.75 19.8179 137.273 20.7303 137.954 21.5332C138.635 22.3361 139.426 22.9686 140.326 23.4309C141.226 23.8688 142.175 24.0878 143.173 24.0878C144.146 24.0878 145.01 23.8688 145.764 23.4309C146.542 22.9686 147.138 22.3361 147.552 21.5332C147.99 20.7303 148.209 19.8179 148.209 18.7961Z" fill="white"/>
<path d="M113.524 29.7809C110.994 29.7809 108.731 29.3187 106.736 28.3941C104.765 27.4696 103.208 26.1801 102.065 24.5257C100.921 22.847 100.35 20.9006 100.35 18.6866C100.35 16.5213 100.897 14.6236 101.992 12.9935C103.087 11.3391 104.583 10.0496 106.481 9.12507C108.403 8.20054 110.568 7.73828 112.977 7.73828C115.483 7.73828 117.611 8.2857 119.363 9.38053C121.139 10.451 122.502 11.9716 123.451 13.9423C124.424 15.913 124.91 18.2365 124.91 20.9128H106.371V16.424H120.714L118.268 17.9932C118.171 16.9227 117.903 16.0225 117.465 15.2926C117.028 14.5384 116.444 13.9667 115.714 13.5774C115.008 13.1881 114.157 12.9935 113.159 12.9935C112.064 12.9935 111.128 13.2124 110.349 13.6504C109.571 14.0883 108.962 14.6966 108.524 15.4751C108.086 16.2293 107.867 17.1173 107.867 18.1392C107.867 19.453 108.159 20.5722 108.743 21.4967C109.352 22.3969 110.227 23.0903 111.371 23.5769C112.539 24.0635 113.962 24.3067 115.641 24.3067C117.174 24.3067 118.694 24.1121 120.203 23.7228C121.735 23.3092 123.122 22.7375 124.363 22.0076V26.7519C122.927 27.7251 121.285 28.4793 119.436 29.0145C117.611 29.5255 115.641 29.7809 113.524 29.7809Z" fill="white"/>
<path d="M84.2996 29.7795C81.3557 29.7795 78.8376 29.2442 76.7453 28.1737C74.6773 27.0789 73.0837 25.5096 71.9645 23.4659C70.8697 21.3979 70.3223 18.9163 70.3223 16.0211C70.3223 11.7147 71.5144 8.32073 73.8987 5.83911C76.283 3.33316 79.6892 1.88554 84.1172 1.49627C85.9419 1.35029 87.4503 1.22864 88.6425 1.13133C89.8346 1.00968 90.8078 0.900195 91.562 0.802876C92.3406 0.681228 92.9975 0.55958 93.5327 0.437932C94.0923 0.316284 94.6276 0.170307 95.1385 0V6.05808C94.5546 6.27704 93.8612 6.45951 93.0583 6.60549C92.2554 6.75147 91.2457 6.87312 90.0293 6.97043C88.8371 7.06775 87.3408 7.15291 85.5404 7.22589C82.4263 7.34754 80.1393 8.13826 78.6795 9.59803C77.244 11.0335 76.5263 13.1258 76.5263 15.8751V16.6415L76.3074 16.094C76.7453 14.8776 77.4508 13.8314 78.424 12.9555C79.3972 12.0797 80.5772 11.4106 81.964 10.9483C83.3508 10.4617 84.8592 10.2184 86.4893 10.2184C88.606 10.2184 90.455 10.6077 92.0365 11.3863C93.6179 12.1648 94.8465 13.2718 95.7224 14.7073C96.5983 16.1427 97.0362 17.7971 97.0362 19.6705C97.0362 21.7142 96.5009 23.5024 95.4304 25.0352C94.3843 26.5436 92.9123 27.7114 91.0146 28.5386C89.1169 29.3658 86.8786 29.7795 84.2996 29.7795ZM84.4821 24.2688C85.504 24.2688 86.392 24.0863 87.1462 23.7214C87.9004 23.3564 88.4843 22.8333 88.8979 22.1521C89.3115 21.4709 89.5183 20.6923 89.5183 19.8165C89.5183 18.8919 89.3115 18.1012 88.8979 17.4443C88.4843 16.7874 87.9004 16.2765 87.1462 15.9116C86.392 15.5466 85.504 15.3642 84.4821 15.3642C83.0467 15.3642 81.745 15.7413 80.5772 16.4955C79.4337 17.2254 78.5822 18.2472 78.0226 19.561C78.3632 20.9721 79.1174 22.1156 80.2852 22.9915C81.4774 23.843 82.8764 24.2688 84.4821 24.2688Z" fill="white"/>
<path d="M58.3839 8.35547H65.8652V29.1938H58.3839V8.35547ZM33.6406 29.1938V8.35547H41.0855V27.3691L38.7863 23.9751H46.1582C47.0827 23.9751 47.8005 23.7561 48.3114 23.3182C48.8223 22.8559 49.0778 22.2234 49.0778 21.4205C49.0778 20.5933 48.8223 19.9607 48.3114 19.5228C47.8005 19.0605 47.0827 18.8294 46.1582 18.8294H38.7498V13.7931H47.399C49.2481 13.7931 50.8538 14.1216 52.2163 14.7785C53.5788 15.4111 54.6371 16.3113 55.3913 17.4791C56.1699 18.6226 56.5591 19.9607 56.5591 21.4935C56.5591 23.0506 56.182 24.413 55.4278 25.5808C54.6736 26.7243 53.6152 27.6124 52.2528 28.2449C50.8903 28.8775 49.3089 29.1938 47.5085 29.1938H33.6406Z" fill="white"/>
<path d="M19.3785 15.8016L19.999 14.3783C22.1156 14.427 23.8552 14.7554 25.2177 15.3637C26.6044 15.9476 27.6384 16.7748 28.3197 17.8453C29.0009 18.8914 29.3415 20.1079 29.3415 21.4947C29.3415 22.9788 29.0009 24.3048 28.3197 25.4726C27.6384 26.6161 26.6166 27.5285 25.2541 28.2097C23.916 28.8666 22.2373 29.195 20.2179 29.195H0V15.1447V1.82422H19.488C22.0183 1.82422 23.989 2.42029 25.4001 3.61245C26.8112 4.78027 27.5168 6.41035 27.5168 8.5027C27.5168 9.64619 27.2492 10.741 26.7139 11.7872C26.1787 12.8334 25.315 13.7214 24.1228 14.4513C22.955 15.1568 21.3736 15.6069 19.3785 15.8016ZM7.48136 27.4433L4.56181 23.9033H18.1742C19.2691 23.9033 20.1206 23.6357 20.7288 23.1005C21.3371 22.5652 21.6412 21.8232 21.6412 20.8743C21.6412 19.9255 21.3127 19.1712 20.6558 18.6117C19.9989 18.0277 19.0258 17.7358 17.7363 17.7358H4.56181V12.5536H16.7145C17.5903 12.5536 18.3202 12.2981 18.9041 11.7872C19.5124 11.2519 19.8165 10.5342 19.8165 9.63403C19.8165 8.90414 19.561 8.30806 19.0501 7.8458C18.5392 7.35921 17.8093 7.11591 16.8604 7.11591H4.5983L7.48136 3.57595V15.1447V27.4433Z" fill="white"/>
</svg>
