<svg width="241" height="83" viewBox="0 0 241 83" fill="none" xmlns="http://www.w3.org/2000/svg">
<path d="M168.784 55.1602H176.229V75.9985H168.784V55.1602ZM186.083 55.1602H193.527V75.9985H186.083V55.1602ZM173.091 62.5685H188.893V68.1157H173.091V62.5685Z" fill="white"/>
<path d="M151.194 76.5856C148.518 76.5856 146.182 76.1355 144.187 75.2353C142.192 74.3108 140.635 73.0213 139.516 71.3669C138.396 69.6882 137.837 67.7661 137.837 65.6008C137.837 63.3868 138.396 61.4526 139.516 59.7982C140.635 58.1437 142.192 56.8543 144.187 55.9298C146.182 55.0052 148.518 54.543 151.194 54.543C153.846 54.543 156.169 55.0052 158.164 55.9298C160.184 56.8543 161.753 58.1437 162.872 59.7982C163.991 61.4526 164.551 63.3868 164.551 65.6008C164.551 67.7661 163.991 69.6882 162.872 71.3669C161.753 73.0213 160.184 74.3108 158.164 75.2353C156.169 76.1355 153.846 76.5856 151.194 76.5856ZM151.194 71.0749C152.41 71.0749 153.444 70.856 154.296 70.418C155.172 69.9801 155.841 69.3475 156.303 68.5203C156.765 67.6931 156.996 66.7199 156.996 65.6008C156.996 64.433 156.765 63.4476 156.303 62.6447C155.841 61.8175 155.172 61.185 154.296 60.747C153.444 60.3091 152.41 60.0901 151.194 60.0901C149.977 60.0901 148.931 60.3091 148.055 60.747C147.179 61.185 146.51 61.8175 146.048 62.6447C145.586 63.4476 145.355 64.4208 145.355 65.5643C145.355 66.7078 145.586 67.6931 146.048 68.5203C146.51 69.3475 147.179 69.9801 148.055 70.418C148.931 70.856 149.977 71.0749 151.194 71.0749Z" fill="white"/>
<path d="M107.327 76.0008V55.1625H114.699V71.9499L113.093 71.439L124.005 55.1625H133.567V76.0008H126.231V58.7389L127.837 59.2863L116.633 76.0008H107.327ZM120.246 53.4107C117.692 53.4107 115.648 52.8025 114.115 51.586C112.582 50.3452 111.633 48.5691 111.269 46.2578H116.962C117.156 47.2067 117.533 47.9366 118.093 48.4475C118.653 48.9584 119.37 49.2139 120.246 49.2139C121.122 49.2139 121.84 48.9584 122.399 48.4475C122.959 47.9366 123.324 47.2067 123.494 46.2578H129.224C128.859 48.5691 127.898 50.3452 126.341 51.586C124.808 52.8025 122.776 53.4107 120.246 53.4107Z" fill="white"/>
<path d="M95.1422 64.433C95.1422 63.0705 94.607 62.0243 93.5365 61.2944C92.466 60.5645 90.7508 60.1996 88.3908 60.1996C86.931 60.1996 85.4469 60.3699 83.9385 60.7105C82.4544 61.0268 81.0554 61.5134 79.7416 62.1703V56.7691C81.4203 55.9906 83.1113 55.431 84.8143 55.0904C86.5174 54.7254 88.3056 54.543 90.179 54.543C92.7093 54.543 94.8625 54.9201 96.6385 55.6743C98.4389 56.4042 99.85 57.4747 100.872 58.8858C101.894 60.2726 102.405 61.9757 102.405 63.995V76.0017H95.1787L95.1422 64.433ZM86.9675 62.8272C90.1547 62.7299 92.5755 62.9732 94.2299 63.5571C95.9086 64.141 96.8332 64.5789 97.0035 64.8709C97.1738 65.1628 97.2589 66.7686 97.2589 69.6882C97.2589 70.2721 97.0156 70.9655 96.529 71.7683C96.0424 72.5712 95.349 73.3376 94.4489 74.0675C93.5487 74.7974 92.466 75.4056 91.2009 75.8922C89.9357 76.3545 88.5246 76.5856 86.9675 76.5856C85.2644 76.5856 83.7317 76.318 82.3692 75.7827C81.0311 75.2231 79.9727 74.4324 79.1942 73.4106C78.4156 72.3644 78.0264 71.1358 78.0264 69.7247C78.0264 68.3135 78.4156 67.0971 79.1942 66.0752C79.9971 65.0534 81.0676 64.2748 82.4057 63.7396C83.7681 63.18 85.2888 62.8759 86.9675 62.8272ZM90.471 66.8416C88.257 66.8416 86.7364 67.0727 85.9092 67.535C85.082 67.9972 84.6684 68.5933 84.6684 69.3232C84.6684 70.0531 85.0698 70.6492 85.8727 71.1114C86.6999 71.5737 87.8434 71.8048 89.3031 71.8048C91.0062 71.8048 92.4052 71.3791 93.5 70.5275C94.5948 69.6517 95.1422 68.6298 95.1422 67.462C94.2664 67.0484 92.7093 66.8416 90.471 66.8416Z" fill="white"/>
<path d="M48.4707 55.1634H55.9521V61.1485L55.6236 62.0243V67.8634L55.9521 69.5787V82.0233H48.4707V55.1634ZM53.5799 65.6008C53.8962 63.3381 54.5531 61.3918 55.5506 59.7617C56.5725 58.1073 57.8619 56.83 59.419 55.9298C60.9761 55.0052 62.74 54.543 64.7107 54.543C66.7544 54.543 68.5426 55.0052 70.0754 55.9298C71.6325 56.8543 72.8368 58.1437 73.6884 59.7982C74.5642 61.4526 75.0022 63.3868 75.0022 65.6008C75.0022 67.7661 74.5642 69.6882 73.6884 71.3669C72.8368 73.0213 71.6325 74.3108 70.0754 75.2353C68.5426 76.1355 66.7544 76.5856 64.7107 76.5856C62.74 76.5856 60.9761 76.1355 59.419 75.2353C57.8619 74.3108 56.5846 73.0213 55.5871 71.3669C54.5896 69.7125 53.9205 67.7904 53.5799 65.6008ZM67.4843 65.6008C67.4843 64.5546 67.2653 63.6301 66.8274 62.8272C66.4138 62.0243 65.8177 61.3918 65.0392 60.9295C64.285 60.4672 63.4213 60.2361 62.4481 60.2361C61.4506 60.2361 60.5017 60.4672 59.6015 60.9295C58.7013 61.3918 57.9106 62.0243 57.2294 62.8272C56.5481 63.6301 56.0251 64.5546 55.6601 65.6008C56.0251 66.6226 56.5481 67.535 57.2294 68.3379C57.9106 69.1407 58.7013 69.7733 59.6015 70.2356C60.5017 70.6735 61.4506 70.8925 62.4481 70.8925C63.4213 70.8925 64.285 70.6735 65.0392 70.2356C65.8177 69.7733 66.4138 69.1407 66.8274 68.3379C67.2653 67.535 67.4843 66.6226 67.4843 65.6008Z" fill="white"/>
<path d="M229.291 30.5856C226.76 30.5856 224.498 30.1233 222.503 29.1988C220.532 28.2743 218.975 26.9848 217.831 25.3304C216.688 23.6517 216.116 21.7053 216.116 19.4913C216.116 17.326 216.664 15.4282 217.758 13.7982C218.853 12.1438 220.35 10.8543 222.247 9.92976C224.169 9.00523 226.335 8.54297 228.743 8.54297C231.249 8.54297 233.378 9.09039 235.13 10.1852C236.906 11.2557 238.268 12.7763 239.217 14.747C240.19 16.7177 240.677 19.0412 240.677 21.7175H222.138V17.2286H236.48L234.035 18.7979C233.938 17.7274 233.67 16.8272 233.232 16.0973C232.794 15.3431 232.21 14.7714 231.48 14.3821C230.775 13.9928 229.923 13.7982 228.926 13.7982C227.831 13.7982 226.894 14.0171 226.116 14.4551C225.337 14.893 224.729 15.5012 224.291 16.2798C223.853 17.034 223.634 17.922 223.634 18.9439C223.634 20.2577 223.926 21.3768 224.51 22.3014C225.118 23.2016 225.994 23.895 227.138 24.3815C228.305 24.8681 229.729 25.1114 231.407 25.1114C232.94 25.1114 234.461 24.9168 235.969 24.5275C237.502 24.1139 238.889 23.5422 240.13 22.8123V27.5566C238.694 28.5298 237.052 29.284 235.203 29.8192C233.378 30.3301 231.407 30.5856 229.291 30.5856Z" fill="white"/>
<path d="M198.693 11.7148H206.174V29.9985H198.693V11.7148ZM190.773 9.16016H214.093V14.7803H190.773V9.16016Z" fill="white"/>
<path d="M160.847 29.9985V9.16016H168.219V25.9476L166.613 25.4367L177.525 9.16016H187.086V29.9985H179.751V12.7366L181.357 13.284L170.153 29.9985H160.847Z" fill="white"/>
<path d="M129.993 9.16337H137.475V15.1485L137.146 16.0243V21.8634L137.475 23.5787V36.0233H129.993V9.16337ZM135.102 19.6008C135.419 17.3381 136.076 15.3918 137.073 13.7617C138.095 12.1073 139.384 10.83 140.941 9.92976C142.499 9.00523 144.262 8.54297 146.233 8.54297C148.277 8.54297 150.065 9.00523 151.598 9.92976C153.155 10.8543 154.359 12.1438 155.211 13.7982C156.087 15.4526 156.525 17.3868 156.525 19.6008C156.525 21.7661 156.087 23.6882 155.211 25.3669C154.359 27.0213 153.155 28.3108 151.598 29.2353C150.065 30.1355 148.277 30.5856 146.233 30.5856C144.262 30.5856 142.499 30.1355 140.941 29.2353C139.384 28.3108 138.107 27.0213 137.11 25.3669C136.112 23.7125 135.443 21.7904 135.102 19.6008ZM149.007 19.6008C149.007 18.5546 148.788 17.6301 148.35 16.8272C147.936 16.0243 147.34 15.3918 146.562 14.9295C145.807 14.4672 144.944 14.2361 143.971 14.2361C142.973 14.2361 142.024 14.4672 141.124 14.9295C140.224 15.3918 139.433 16.0243 138.752 16.8272C138.071 17.6301 137.548 18.5546 137.183 19.6008C137.548 20.6226 138.071 21.535 138.752 22.3379C139.433 23.1407 140.224 23.7733 141.124 24.2356C142.024 24.6735 142.973 24.8925 143.971 24.8925C144.944 24.8925 145.807 24.6735 146.562 24.2356C147.34 23.7733 147.936 23.1407 148.35 22.3379C148.788 21.535 149.007 20.6226 149.007 19.6008Z" fill="white"/>
<path d="M114.324 30.5856C111.794 30.5856 109.531 30.1233 107.536 29.1988C105.565 28.2743 104.008 26.9848 102.865 25.3304C101.721 23.6517 101.149 21.7053 101.149 19.4913C101.149 17.326 101.697 15.4282 102.792 13.7982C103.886 12.1438 105.383 10.8543 107.28 9.92976C109.203 9.00523 111.368 8.54297 113.776 8.54297C116.282 8.54297 118.411 9.09039 120.163 10.1852C121.939 11.2557 123.302 12.7763 124.25 14.747C125.224 16.7177 125.71 19.0412 125.71 21.7175H107.171V17.2286H121.513L119.068 18.7979C118.971 17.7274 118.703 16.8272 118.265 16.0973C117.827 15.3431 117.243 14.7714 116.514 14.3821C115.808 13.9928 114.956 13.7982 113.959 13.7982C112.864 13.7982 111.927 14.0171 111.149 14.4551C110.37 14.893 109.762 15.5012 109.324 16.2798C108.886 17.034 108.667 17.922 108.667 18.9439C108.667 20.2577 108.959 21.3768 109.543 22.3014C110.151 23.2016 111.027 23.895 112.171 24.3815C113.339 24.8681 114.762 25.1114 116.441 25.1114C117.973 25.1114 119.494 24.9168 121.002 24.5275C122.535 24.1139 123.922 23.5422 125.163 22.8123V27.5566C123.727 28.5298 122.085 29.284 120.236 29.8192C118.411 30.3301 116.441 30.5856 114.324 30.5856Z" fill="white"/>
<path d="M85.0975 30.5841C82.1536 30.5841 79.6355 30.0489 77.5431 28.9784C75.4751 27.8836 73.8815 26.3143 72.7624 24.2706C71.6675 22.2026 71.1201 19.721 71.1201 16.8257C71.1201 12.5194 72.3123 9.12542 74.6966 6.64379C77.0809 4.13784 80.487 2.69023 84.915 2.30096C86.7397 2.15498 88.2482 2.03333 89.4403 1.93601C90.6325 1.81437 91.6057 1.70488 92.3599 1.60756C93.1384 1.48592 93.7953 1.36427 94.3306 1.24262C94.8902 1.12097 95.4254 0.974994 95.9363 0.804688V6.86276C95.3524 7.08173 94.659 7.2642 93.8561 7.41018C93.0533 7.55616 92.0436 7.6778 90.8271 7.77512C89.635 7.87244 88.1387 7.95759 86.3383 8.03058C83.2241 8.15223 80.9371 8.94294 79.4773 10.4027C78.0419 11.8382 77.3242 13.9305 77.3242 16.6798V17.4461L77.1052 16.8987C77.5431 15.6822 78.2487 14.6361 79.2219 13.7602C80.1951 12.8843 81.3751 12.2153 82.7618 11.753C84.1486 11.2664 85.6571 11.0231 87.2871 11.0231C89.4038 11.0231 91.2529 11.4124 92.8343 12.1909C94.4157 12.9695 95.6444 14.0765 96.5202 15.5119C97.3961 16.9474 97.834 18.6018 97.834 20.4752C97.834 22.5189 97.2988 24.3071 96.2283 25.8399C95.1821 27.3483 93.7102 28.5161 91.8125 29.3433C89.9148 30.1705 87.6764 30.5841 85.0975 30.5841ZM85.28 25.0735C86.3018 25.0735 87.1898 24.891 87.9441 24.5261C88.6983 24.1611 89.2822 23.638 89.6958 22.9568C90.1094 22.2756 90.3162 21.497 90.3162 20.6212C90.3162 19.6966 90.1094 18.9059 89.6958 18.249C89.2822 17.5921 88.6983 17.0812 87.9441 16.7163C87.1898 16.3513 86.3018 16.1688 85.28 16.1688C83.8445 16.1688 82.5429 16.5459 81.3751 17.3002C80.2316 18.0301 79.38 19.0519 78.8204 20.3657C79.1611 21.7768 79.9153 22.9203 81.0831 23.7962C82.2752 24.6477 83.6742 25.0735 85.28 25.0735Z" fill="white"/>
<path d="M59.1827 9.16016H66.664V29.9985H59.1827V9.16016ZM34.4395 29.9985V9.16016H41.8843V28.1738L39.5852 24.7798H46.957C47.8816 24.7798 48.5993 24.5608 49.1102 24.1229C49.6211 23.6606 49.8766 23.028 49.8766 22.2252C49.8766 21.398 49.6211 20.7654 49.1102 20.3275C48.5993 19.8652 47.8816 19.6341 46.957 19.6341H39.5487V14.5978H48.1979C50.0469 14.5978 51.6527 14.9263 53.0151 15.5832C54.3776 16.2157 55.4359 17.1159 56.1901 18.2838C56.9687 19.4273 57.358 20.7654 57.358 22.2982C57.358 23.8552 56.9808 25.2177 56.2266 26.3855C55.4724 27.529 54.4141 28.417 53.0516 29.0496C51.6892 29.6822 50.1077 29.9985 48.3073 29.9985H34.4395Z" fill="white"/>
<path d="M20.1764 16.6063L20.7968 15.183C22.9135 15.2316 24.653 15.5601 26.0155 16.1683C27.4023 16.7523 28.4363 17.5795 29.1175 18.65C29.7988 19.6961 30.1394 20.9126 30.1394 22.2994C30.1394 23.7835 29.7988 25.1095 29.1175 26.2773C28.4363 27.4208 27.4145 28.3332 26.052 29.0144C24.7139 29.6713 23.0351 29.9997 21.0158 29.9997H0.797852V15.9494V2.62891H20.2859C22.8162 2.62891 24.7869 3.22498 26.198 4.41713C27.6091 5.58495 28.3147 7.21504 28.3147 9.30739C28.3147 10.4509 28.047 11.5457 27.5118 12.5919C26.9765 13.6381 26.1128 14.5261 24.9207 15.256C23.7528 15.9615 22.1714 16.4116 20.1764 16.6063ZM8.27921 28.248L5.35966 24.708H18.9721C20.0669 24.708 20.9185 24.4404 21.5267 23.9052C22.1349 23.3699 22.4391 22.6279 22.4391 21.679C22.4391 20.7301 22.1106 19.9759 21.4537 19.4163C20.7968 18.8324 19.8236 18.5405 18.5341 18.5405H5.35966V13.3583H17.5123C18.3882 13.3583 19.1181 13.1028 19.702 12.5919C20.3102 12.0566 20.6143 11.3389 20.6143 10.4387C20.6143 9.70883 20.3589 9.11275 19.8479 8.65049C19.337 8.1639 18.6071 7.9206 17.6583 7.9206H5.39615L8.27921 4.38064V15.9494V28.248Z" fill="white"/>
</svg>
