<svg width="293" height="83" viewBox="0 0 293 83" fill="none" xmlns="http://www.w3.org/2000/svg">
<path d="M285.007 64.433C285.007 63.0705 284.471 62.0243 283.401 61.2944C282.33 60.5645 280.615 60.1996 278.255 60.1996C276.795 60.1996 275.311 60.3699 273.803 60.7105C272.319 61.0268 270.92 61.5134 269.606 62.1703V56.7691C271.285 55.9906 272.976 55.431 274.679 55.0904C276.382 54.7254 278.17 54.543 280.043 54.543C282.574 54.543 284.727 54.9201 286.503 55.6743C288.303 56.4042 289.714 57.4747 290.736 58.8858C291.758 60.2726 292.269 61.9757 292.269 63.995V76.0017H285.043L285.007 64.433ZM276.832 62.8272C280.019 62.7299 282.44 62.9732 284.094 63.5571C285.773 64.141 286.697 64.5789 286.868 64.8709C287.038 65.1628 287.123 66.7686 287.123 69.6882C287.123 70.2721 286.88 70.9655 286.393 71.7683C285.907 72.5712 285.213 73.3376 284.313 74.0675C283.413 74.7974 282.33 75.4056 281.065 75.8922C279.8 76.3545 278.389 76.5856 276.832 76.5856C275.129 76.5856 273.596 76.318 272.233 75.7827C270.895 75.2231 269.837 74.4324 269.058 73.4106C268.28 72.3644 267.891 71.1358 267.891 69.7247C267.891 68.3135 268.28 67.0971 269.058 66.0752C269.861 65.0534 270.932 64.2748 272.27 63.7396C273.632 63.18 275.153 62.8759 276.832 62.8272ZM280.335 66.8416C278.121 66.8416 276.601 67.0727 275.773 67.535C274.946 67.9972 274.533 68.5933 274.533 69.3232C274.533 70.0531 274.934 70.6492 275.737 71.1114C276.564 71.5737 277.708 71.8048 279.167 71.8048C280.87 71.8048 282.269 71.3791 283.364 70.5275C284.459 69.6517 285.007 68.6298 285.007 67.462C284.131 67.0484 282.574 66.8416 280.335 66.8416Z" fill="white"/>
<path d="M230.174 75.9985V55.1602H241.378L247.837 71.9476H245.757L252.107 55.1602H263.311V75.9985H256.34V57.9702H257.545L250.173 75.9985H243.348L235.976 58.0432L237.181 57.9702V75.9985H230.174Z" fill="white"/>
<path d="M212.585 76.5856C209.909 76.5856 207.574 76.1355 205.579 75.2353C203.584 74.3108 202.026 73.0213 200.907 71.3669C199.788 69.6882 199.229 67.7661 199.229 65.6008C199.229 63.3868 199.788 61.4526 200.907 59.7982C202.026 58.1437 203.584 56.8543 205.579 55.9298C207.574 55.0052 209.909 54.543 212.585 54.543C215.237 54.543 217.561 55.0052 219.556 55.9298C221.575 56.8543 223.145 58.1437 224.264 59.7982C225.383 61.4526 225.942 63.3868 225.942 65.6008C225.942 67.7661 225.383 69.6882 224.264 71.3669C223.145 73.0213 221.575 74.3108 219.556 75.2353C217.561 76.1355 215.237 76.5856 212.585 76.5856ZM212.585 71.0749C213.802 71.0749 214.836 70.856 215.688 70.418C216.563 69.9801 217.232 69.3475 217.695 68.5203C218.157 67.6931 218.388 66.7199 218.388 65.6008C218.388 64.433 218.157 63.4476 217.695 62.6447C217.232 61.8175 216.563 61.185 215.688 60.747C214.836 60.3091 213.802 60.0901 212.585 60.0901C211.369 60.0901 210.323 60.3091 209.447 60.747C208.571 61.185 207.902 61.8175 207.44 62.6447C206.977 63.4476 206.746 64.4208 206.746 65.5643C206.746 66.7078 206.977 67.6931 207.44 68.5203C207.902 69.3475 208.571 69.9801 209.447 70.418C210.323 70.856 211.369 71.0749 212.585 71.0749Z" fill="white"/>
<path d="M196.606 70.4513V80.9982H190.183V75.9985H171.972V80.9982H165.549V70.4513H171.826L173.213 70.5608H188.321L189.599 70.4513H196.606ZM169.892 55.1602H192.81V74.5752H185.402V57.1674L188.796 60.5613H173.541L176.315 57.8607C176.655 58.8583 176.862 59.8071 176.935 60.7073C177.008 61.5832 177.045 62.3861 177.045 63.1159C177.045 66.4734 176.473 69.0889 175.329 70.9622C174.186 72.8113 172.58 73.7358 170.512 73.7358L167.483 71.1812C169.381 69.8674 170.33 66.6802 170.33 61.6197C170.33 60.6465 170.293 59.6125 170.22 58.5176C170.147 57.4228 170.038 56.3036 169.892 55.1602Z" fill="white"/>
<path d="M126.184 55.1634H133.665V61.1485L133.337 62.0243V67.8634L133.665 69.5787V82.0233H126.184V55.1634ZM131.293 65.6008C131.609 63.3381 132.266 61.3918 133.264 59.7617C134.285 58.1073 135.575 56.83 137.132 55.9298C138.689 55.0052 140.453 54.543 142.424 54.543C144.467 54.543 146.256 55.0052 147.788 55.9298C149.345 56.8543 150.55 58.1437 151.401 59.7982C152.277 61.4526 152.715 63.3868 152.715 65.6008C152.715 67.7661 152.277 69.6882 151.401 71.3669C150.55 73.0213 149.345 74.3108 147.788 75.2353C146.256 76.1355 144.467 76.5856 142.424 76.5856C140.453 76.5856 138.689 76.1355 137.132 75.2353C135.575 74.3108 134.298 73.0213 133.3 71.3669C132.302 69.7125 131.633 67.7904 131.293 65.6008ZM145.197 65.6008C145.197 64.5546 144.978 63.6301 144.54 62.8272C144.127 62.0243 143.531 61.3918 142.752 60.9295C141.998 60.4672 141.134 60.2361 140.161 60.2361C139.163 60.2361 138.215 60.4672 137.314 60.9295C136.414 61.3918 135.623 62.0243 134.942 62.8272C134.261 63.6301 133.738 64.5546 133.373 65.6008C133.738 66.6226 134.261 67.535 134.942 68.3379C135.623 69.1407 136.414 69.7733 137.314 70.2356C138.215 70.6735 139.163 70.8925 140.161 70.8925C141.134 70.8925 141.998 70.6735 142.752 70.2356C143.531 69.7733 144.127 69.1407 144.54 68.3379C144.978 67.535 145.197 66.6226 145.197 65.6008Z" fill="white"/>
<path d="M110.514 76.5856C107.984 76.5856 105.721 76.1233 103.726 75.1988C101.756 74.2743 100.199 72.9848 99.0551 71.3304C97.9116 69.6517 97.3398 67.7053 97.3398 65.4913C97.3398 63.326 97.8873 61.4282 98.9821 59.7982C100.077 58.1437 101.573 56.8543 103.471 55.9298C105.393 55.0052 107.558 54.543 109.967 54.543C112.473 54.543 114.602 55.0904 116.353 56.1852C118.13 57.2557 119.492 58.7763 120.441 60.747C121.414 62.7177 121.901 65.0412 121.901 67.7175H103.361V63.2286H117.704L115.259 64.7979C115.161 63.7274 114.894 62.8272 114.456 62.0973C114.018 61.3431 113.434 60.7714 112.704 60.3821C111.998 59.9928 111.147 59.7982 110.149 59.7982C109.055 59.7982 108.118 60.0171 107.339 60.4551C106.561 60.893 105.953 61.5012 105.515 62.2798C105.077 63.034 104.858 63.922 104.858 64.9439C104.858 66.2577 105.15 67.3768 105.734 68.3014C106.342 69.2016 107.218 69.895 108.361 70.3815C109.529 70.8681 110.952 71.1114 112.631 71.1114C114.164 71.1114 115.684 70.9168 117.193 70.5275C118.726 70.1139 120.112 69.5422 121.353 68.8123V73.5566C119.918 74.5297 118.275 75.284 116.426 75.8192C114.602 76.3301 112.631 76.5856 110.514 76.5856Z" fill="white"/>
<path d="M59.916 75.9985V55.1602H71.1198L77.5793 71.9476H75.4991L81.8492 55.1602H93.053V75.9985H86.0825V57.9702H87.2868L79.915 75.9985H73.0905L65.7186 58.0432L66.923 57.9702V75.9985H59.916Z" fill="white"/>
<path d="M42.3257 76.5856C39.6495 76.5856 37.3138 76.1355 35.3188 75.2353C33.3238 74.3108 31.7667 73.0213 30.6475 71.3669C29.5283 69.6882 28.9688 67.7661 28.9688 65.6008C28.9688 63.3868 29.5283 61.4526 30.6475 59.7982C31.7667 58.1437 33.3238 56.8543 35.3188 55.9298C37.3138 55.0052 39.6495 54.543 42.3257 54.543C44.9776 54.543 47.3011 55.0052 49.2961 55.9298C51.3155 56.8543 52.8848 58.1437 54.0039 59.7982C55.1231 61.4526 55.6827 63.3868 55.6827 65.6008C55.6827 67.7661 55.1231 69.6882 54.0039 71.3669C52.8848 73.0213 51.3155 74.3108 49.2961 75.2353C47.3011 76.1355 44.9776 76.5856 42.3257 76.5856ZM42.3257 71.0749C43.5422 71.0749 44.5762 70.856 45.4277 70.418C46.3036 69.9801 46.9727 69.3475 47.4349 68.5203C47.8972 67.6931 48.1283 66.7199 48.1283 65.6008C48.1283 64.433 47.8972 63.4476 47.4349 62.6447C46.9727 61.8175 46.3036 61.185 45.4277 60.747C44.5762 60.3091 43.5422 60.0901 42.3257 60.0901C41.1092 60.0901 40.0631 60.3091 39.1872 60.747C38.3113 61.185 37.6423 61.8175 37.18 62.6447C36.7177 63.4476 36.4866 64.4208 36.4866 65.5643C36.4866 66.7078 36.7177 67.6931 37.18 68.5203C37.6423 69.3475 38.3113 69.9801 39.1872 70.418C40.0631 70.856 41.1092 71.0749 42.3257 71.0749Z" fill="white"/>
<path d="M-0.00976562 55.1602H7.4351V75.9985H-0.00976562V55.1602ZM17.2886 55.1602H24.7335V75.9985H17.2886V55.1602ZM4.29658 62.5685H20.0987V68.1157H4.29658V62.5685Z" fill="white"/>
<path d="M254.292 30.5856C251.761 30.5856 249.499 30.1233 247.504 29.1988C245.533 28.2743 243.976 26.9848 242.832 25.3304C241.689 23.6517 241.117 21.7053 241.117 19.4913C241.117 17.326 241.665 15.4282 242.759 13.7982C243.854 12.1438 245.351 10.8543 247.248 9.92976C249.17 9.00523 251.336 8.54297 253.744 8.54297C256.25 8.54297 258.379 9.09039 260.131 10.1852C261.907 11.2557 263.269 12.7763 264.218 14.747C265.191 16.7177 265.678 19.0412 265.678 21.7175H247.139V17.2286H261.481L259.036 18.7979C258.939 17.7274 258.671 16.8272 258.233 16.0973C257.795 15.3431 257.211 14.7714 256.481 14.3821C255.776 13.9928 254.924 13.7982 253.927 13.7982C252.832 13.7982 251.895 14.0171 251.117 14.4551C250.338 14.893 249.73 15.5012 249.292 16.2798C248.854 17.034 248.635 17.922 248.635 18.9439C248.635 20.2577 248.927 21.3768 249.511 22.3014C250.119 23.2016 250.995 23.895 252.139 24.3815C253.306 24.8681 254.73 25.1114 256.408 25.1114C257.941 25.1114 259.462 24.9168 260.97 24.5275C262.503 24.1139 263.89 23.5422 265.131 22.8123V27.5566C263.695 28.5298 262.053 29.284 260.204 29.8192C258.379 30.3301 256.408 30.5856 254.292 30.5856Z" fill="white"/>
<path d="M223.693 11.7148H231.174V29.9985H223.693V11.7148ZM215.773 9.16016H239.093V14.7803H215.773V9.16016Z" fill="white"/>
<path d="M185.848 29.9985V9.16016H193.22V25.9476L191.614 25.4367L202.526 9.16016H212.087V29.9985H204.752V12.7366L206.358 13.284L195.154 29.9985H185.848Z" fill="white"/>
<path d="M154.994 9.16337H162.475V15.1485L162.147 16.0243V21.8634L162.475 23.5787V36.0233H154.994V9.16337ZM160.103 19.6008C160.42 17.3381 161.077 15.3918 162.074 13.7617C163.096 12.1073 164.385 10.83 165.942 9.92976C167.5 9.00523 169.263 8.54297 171.234 8.54297C173.278 8.54297 175.066 9.00523 176.599 9.92976C178.156 10.8543 179.36 12.1438 180.212 13.7982C181.088 15.4526 181.526 17.3868 181.526 19.6008C181.526 21.7661 181.088 23.6882 180.212 25.3669C179.36 27.0213 178.156 28.3108 176.599 29.2353C175.066 30.1355 173.278 30.5856 171.234 30.5856C169.263 30.5856 167.5 30.1355 165.942 29.2353C164.385 28.3108 163.108 27.0213 162.111 25.3669C161.113 23.7125 160.444 21.7904 160.103 19.6008ZM174.008 19.6008C174.008 18.5546 173.789 17.6301 173.351 16.8272C172.937 16.0243 172.341 15.3918 171.563 14.9295C170.808 14.4672 169.945 14.2361 168.972 14.2361C167.974 14.2361 167.025 14.4672 166.125 14.9295C165.225 15.3918 164.434 16.0243 163.753 16.8272C163.072 17.6301 162.548 18.5546 162.184 19.6008C162.548 20.6226 163.072 21.535 163.753 22.3379C164.434 23.1407 165.225 23.7733 166.125 24.2356C167.025 24.6735 167.974 24.8925 168.972 24.8925C169.945 24.8925 170.808 24.6735 171.563 24.2356C172.341 23.7733 172.937 23.1407 173.351 22.3379C173.789 21.535 174.008 20.6226 174.008 19.6008Z" fill="white"/>
<path d="M139.323 30.5856C136.793 30.5856 134.53 30.1233 132.535 29.1988C130.564 28.2743 129.007 26.9848 127.864 25.3304C126.72 23.6517 126.148 21.7053 126.148 19.4913C126.148 17.326 126.696 15.4282 127.791 13.7982C128.886 12.1438 130.382 10.8543 132.279 9.92976C134.202 9.00523 136.367 8.54297 138.776 8.54297C141.281 8.54297 143.41 9.09039 145.162 10.1852C146.938 11.2557 148.301 12.7763 149.249 14.747C150.223 16.7177 150.709 19.0412 150.709 21.7175H132.17V17.2286H146.512L144.067 18.7979C143.97 17.7274 143.702 16.8272 143.264 16.0973C142.826 15.3431 142.242 14.7714 141.513 14.3821C140.807 13.9928 139.955 13.7982 138.958 13.7982C137.863 13.7982 136.926 14.0171 136.148 14.4551C135.369 14.893 134.761 15.5012 134.323 16.2798C133.885 17.034 133.666 17.922 133.666 18.9439C133.666 20.2577 133.958 21.3768 134.542 22.3014C135.15 23.2016 136.026 23.895 137.17 24.3815C138.338 24.8681 139.761 25.1114 141.44 25.1114C142.972 25.1114 144.493 24.9168 146.001 24.5275C147.534 24.1139 148.921 23.5422 150.162 22.8123V27.5566C148.726 28.5298 147.084 29.284 145.235 29.8192C143.41 30.3301 141.44 30.5856 139.323 30.5856Z" fill="white"/>
<path d="M110.098 30.5841C107.155 30.5841 104.636 30.0489 102.544 28.9784C100.476 27.8836 98.8825 26.3143 97.7633 24.2706C96.6685 22.2026 96.1211 19.721 96.1211 16.8257C96.1211 12.5194 97.3132 9.12542 99.6975 6.64379C102.082 4.13784 105.488 2.69023 109.916 2.30096C111.741 2.15498 113.249 2.03333 114.441 1.93601C115.633 1.81437 116.607 1.70488 117.361 1.60756C118.139 1.48592 118.796 1.36427 119.332 1.24262C119.891 1.12097 120.426 0.974994 120.937 0.804688V6.86276C120.353 7.08173 119.66 7.2642 118.857 7.41018C118.054 7.55616 117.045 7.6778 115.828 7.77512C114.636 7.87244 113.14 7.95759 111.339 8.03058C108.225 8.15223 105.938 8.94294 104.478 10.4027C103.043 11.8382 102.325 13.9305 102.325 16.6798V17.4461L102.106 16.8987C102.544 15.6822 103.25 14.6361 104.223 13.7602C105.196 12.8843 106.376 12.2153 107.763 11.753C109.15 11.2664 110.658 11.0231 112.288 11.0231C114.405 11.0231 116.254 11.4124 117.835 12.1909C119.417 12.9695 120.645 14.0765 121.521 15.5119C122.397 16.9474 122.835 18.6018 122.835 20.4752C122.835 22.5189 122.3 24.3071 121.229 25.8399C120.183 27.3483 118.711 28.5161 116.813 29.3433C114.916 30.1705 112.677 30.5841 110.098 30.5841ZM110.281 25.0735C111.303 25.0735 112.191 24.891 112.945 24.5261C113.699 24.1611 114.283 23.638 114.697 22.9568C115.11 22.2756 115.317 21.497 115.317 20.6212C115.317 19.6966 115.11 18.9059 114.697 18.249C114.283 17.5921 113.699 17.0812 112.945 16.7163C112.191 16.3513 111.303 16.1688 110.281 16.1688C108.845 16.1688 107.544 16.5459 106.376 17.3002C105.233 18.0301 104.381 19.0519 103.821 20.3657C104.162 21.7768 104.916 22.9203 106.084 23.7962C107.276 24.6477 108.675 25.0735 110.281 25.0735Z" fill="white"/>
<path d="M84.1827 9.16016H91.664V29.9985H84.1827V9.16016ZM59.4395 29.9985V9.16016H66.8843V28.1738L64.5852 24.7798H71.957C72.8816 24.7798 73.5993 24.5608 74.1102 24.1229C74.6211 23.6606 74.8766 23.028 74.8766 22.2252C74.8766 21.398 74.6211 20.7654 74.1102 20.3275C73.5993 19.8652 72.8816 19.6341 71.957 19.6341H64.5487V14.5978H73.1979C75.0469 14.5978 76.6527 14.9263 78.0151 15.5832C79.3776 16.2157 80.4359 17.1159 81.1901 18.2838C81.9687 19.4273 82.358 20.7654 82.358 22.2982C82.358 23.8552 81.9808 25.2177 81.2266 26.3855C80.4724 27.529 79.4141 28.417 78.0516 29.0496C76.6892 29.6822 75.1077 29.9985 73.3073 29.9985H59.4395Z" fill="white"/>
<path d="M45.1774 16.6063L45.7978 15.183C47.9145 15.2316 49.654 15.5601 51.0165 16.1683C52.4033 16.7523 53.4373 17.5795 54.1185 18.65C54.7997 19.6961 55.1403 20.9126 55.1403 22.2994C55.1403 23.7835 54.7997 25.1095 54.1185 26.2773C53.4373 27.4208 52.4154 28.3332 51.053 29.0144C49.7148 29.6713 48.0361 29.9997 46.0167 29.9997H25.7988V15.9494V2.62891H45.2869C47.8171 2.62891 49.7878 3.22498 51.1989 4.41713C52.6101 5.58495 53.3156 7.21504 53.3156 9.30739C53.3156 10.4509 53.048 11.5457 52.5128 12.5919C51.9775 13.6381 51.1138 14.5261 49.9216 15.256C48.7538 15.9615 47.1724 16.4116 45.1774 16.6063ZM33.2802 28.248L30.3606 24.708H43.9731C45.0679 24.708 45.9194 24.4404 46.5277 23.9052C47.1359 23.3699 47.44 22.6279 47.44 21.679C47.44 20.7301 47.1116 19.9759 46.4547 19.4163C45.7978 18.8324 44.8246 18.5405 43.5351 18.5405H30.3606V13.3583H42.5133C43.3891 13.3583 44.119 13.1028 44.7029 12.5919C45.3112 12.0566 45.6153 11.3389 45.6153 10.4387C45.6153 9.70883 45.3598 9.11275 44.8489 8.65049C44.338 8.1639 43.6081 7.9206 42.6593 7.9206H30.3971L33.2802 4.38064V15.9494V28.248Z" fill="white"/>
</svg>
