<svg width="241" height="83" viewBox="0 0 241 83" fill="none" xmlns="http://www.w3.org/2000/svg">
<path d="M176.304 82.604C174.771 82.604 173.409 82.4093 172.217 82.0201C171.025 81.6551 169.869 81.0834 168.75 80.3048V75.1226C169.893 75.8525 170.964 76.3756 171.961 76.6919C172.959 77.0082 174.054 77.1663 175.246 77.1663C176.243 77.1663 177.131 76.9473 177.91 76.5094C178.688 76.0715 179.321 75.2686 179.808 74.1008L187.8 55.1602H195.719L185.72 76.3999C185.014 77.9327 184.15 79.1492 183.129 80.0494C182.131 80.9739 181.048 81.6308 179.881 82.0201C178.713 82.4093 177.521 82.604 176.304 82.604ZM176.56 74.0643L167.691 55.1602H175.903L183.749 74.0643H176.56Z" fill="white"/>
<path d="M162.645 55.1602V71.8381L161.003 70.4513H166.441V80.9982H160.018V74.3927L161.368 75.9985H138.34V55.1602H145.821V71.8381L144.617 70.4513H156.624L155.164 71.8381V55.1602H162.645Z" fill="white"/>
<path d="M106.881 75.9985V55.1602H114.253V71.9476L112.647 71.4367L123.559 55.1602H133.12V75.9985H125.785V58.7366L127.391 59.284L116.187 75.9985H106.881Z" fill="white"/>
<path d="M79.0695 55.1602H101.696V75.9985H94.2147V57.2768L97.6452 60.7073H82.792L85.9305 57.8242C86.0765 59.2597 86.186 60.5613 86.2589 61.7291C86.3319 62.897 86.3684 63.9431 86.3684 64.8677C86.3684 68.9551 85.7359 71.9111 84.4707 73.7358C83.2299 75.5362 81.2105 76.4364 78.4126 76.4364C77.5854 76.4364 76.8069 76.3513 76.077 76.1809C75.3471 76.0106 74.6294 75.7308 73.9238 75.3416V70.0499C74.3618 70.2202 74.7875 70.354 75.2011 70.4513C75.6391 70.5243 76.0283 70.5608 76.369 70.5608C77.5611 70.5608 78.4005 70.0377 78.8871 68.9915C79.3737 67.9454 79.617 66.2301 79.617 63.8458C79.617 62.7023 79.5683 61.4129 79.471 59.9774C79.398 58.5176 79.2642 56.9119 79.0695 55.1602Z" fill="white"/>
<path d="M55.1361 82.604C53.6034 82.604 52.2409 82.4093 51.0487 82.0201C49.8566 81.6551 48.7009 81.0834 47.5818 80.3048V75.1226C48.7253 75.8525 49.7958 76.3756 50.7933 76.6919C51.7908 77.0082 52.8856 77.1663 54.0778 77.1663C55.0753 77.1663 55.9633 76.9473 56.7419 76.5094C57.5204 76.0715 58.153 75.2686 58.6396 74.1008L66.6319 55.1602H74.5512L64.5517 76.3999C63.8461 77.9327 62.9824 79.1492 61.9606 80.0494C60.9631 80.9739 59.8804 81.6308 58.7126 82.0201C57.5448 82.4093 56.3526 82.604 55.1361 82.604ZM55.3916 74.0643L46.5234 55.1602H54.7347L62.581 74.0643H55.3916Z" fill="white"/>
<path d="M229.292 30.5856C226.761 30.5856 224.499 30.1233 222.504 29.1988C220.533 28.2743 218.976 26.9848 217.832 25.3304C216.689 23.6517 216.117 21.7053 216.117 19.4913C216.117 17.326 216.665 15.4282 217.759 13.7982C218.854 12.1438 220.351 10.8543 222.248 9.92976C224.17 9.00523 226.336 8.54297 228.744 8.54297C231.25 8.54297 233.379 9.09039 235.131 10.1852C236.907 11.2557 238.269 12.7763 239.218 14.747C240.191 16.7177 240.678 19.0412 240.678 21.7175H222.139V17.2286H236.481L234.036 18.7979C233.939 17.7274 233.671 16.8272 233.233 16.0973C232.795 15.3431 232.211 14.7714 231.481 14.3821C230.776 13.9928 229.924 13.7982 228.927 13.7982C227.832 13.7982 226.895 14.0171 226.117 14.4551C225.338 14.893 224.73 15.5012 224.292 16.2798C223.854 17.034 223.635 17.922 223.635 18.9439C223.635 20.2577 223.927 21.3768 224.511 22.3014C225.119 23.2016 225.995 23.895 227.139 24.3815C228.306 24.8681 229.73 25.1114 231.408 25.1114C232.941 25.1114 234.462 24.9168 235.97 24.5275C237.503 24.1139 238.89 23.5422 240.131 22.8123V27.5566C238.695 28.5298 237.053 29.284 235.204 29.8192C233.379 30.3301 231.408 30.5856 229.292 30.5856Z" fill="white"/>
<path d="M198.693 11.7148H206.174V29.9985H198.693V11.7148ZM190.773 9.16016H214.093V14.7803H190.773V9.16016Z" fill="white"/>
<path d="M160.848 29.9985V9.16016H168.22V25.9476L166.614 25.4367L177.526 9.16016H187.087V29.9985H179.752V12.7366L181.358 13.284L170.154 29.9985H160.848Z" fill="white"/>
<path d="M129.994 9.16337H137.475V15.1485L137.147 16.0243V21.8634L137.475 23.5787V36.0233H129.994V9.16337ZM135.103 19.6008C135.42 17.3381 136.077 15.3918 137.074 13.7617C138.096 12.1073 139.385 10.83 140.942 9.92976C142.5 9.00523 144.263 8.54297 146.234 8.54297C148.278 8.54297 150.066 9.00523 151.599 9.92976C153.156 10.8543 154.36 12.1438 155.212 13.7982C156.088 15.4526 156.526 17.3868 156.526 19.6008C156.526 21.7661 156.088 23.6882 155.212 25.3669C154.36 27.0213 153.156 28.3108 151.599 29.2353C150.066 30.1355 148.278 30.5856 146.234 30.5856C144.263 30.5856 142.5 30.1355 140.942 29.2353C139.385 28.3108 138.108 27.0213 137.111 25.3669C136.113 23.7125 135.444 21.7904 135.103 19.6008ZM149.008 19.6008C149.008 18.5546 148.789 17.6301 148.351 16.8272C147.937 16.0243 147.341 15.3918 146.563 14.9295C145.808 14.4672 144.945 14.2361 143.972 14.2361C142.974 14.2361 142.025 14.4672 141.125 14.9295C140.225 15.3918 139.434 16.0243 138.753 16.8272C138.072 17.6301 137.548 18.5546 137.184 19.6008C137.548 20.6226 138.072 21.535 138.753 22.3379C139.434 23.1407 140.225 23.7733 141.125 24.2356C142.025 24.6735 142.974 24.8925 143.972 24.8925C144.945 24.8925 145.808 24.6735 146.563 24.2356C147.341 23.7733 147.937 23.1407 148.351 22.3379C148.789 21.535 149.008 20.6226 149.008 19.6008Z" fill="white"/>
<path d="M114.323 30.5856C111.793 30.5856 109.53 30.1233 107.535 29.1988C105.564 28.2743 104.007 26.9848 102.864 25.3304C101.72 23.6517 101.148 21.7053 101.148 19.4913C101.148 17.326 101.696 15.4282 102.791 13.7982C103.886 12.1438 105.382 10.8543 107.279 9.92976C109.202 9.00523 111.367 8.54297 113.776 8.54297C116.281 8.54297 118.41 9.09039 120.162 10.1852C121.938 11.2557 123.301 12.7763 124.249 14.747C125.223 16.7177 125.709 19.0412 125.709 21.7175H107.17V17.2286H121.512L119.067 18.7979C118.97 17.7274 118.702 16.8272 118.264 16.0973C117.826 15.3431 117.242 14.7714 116.513 14.3821C115.807 13.9928 114.955 13.7982 113.958 13.7982C112.863 13.7982 111.926 14.0171 111.148 14.4551C110.369 14.893 109.761 15.5012 109.323 16.2798C108.885 17.034 108.666 17.922 108.666 18.9439C108.666 20.2577 108.958 21.3768 109.542 22.3014C110.15 23.2016 111.026 23.895 112.17 24.3815C113.338 24.8681 114.761 25.1114 116.44 25.1114C117.972 25.1114 119.493 24.9168 121.001 24.5275C122.534 24.1139 123.921 23.5422 125.162 22.8123V27.5566C123.726 28.5298 122.084 29.284 120.235 29.8192C118.41 30.3301 116.44 30.5856 114.323 30.5856Z" fill="white"/>
<path d="M85.0985 30.5841C82.1546 30.5841 79.6365 30.0489 77.5441 28.9784C75.4761 27.8836 73.8825 26.3143 72.7633 24.2706C71.6685 22.2026 71.1211 19.721 71.1211 16.8257C71.1211 12.5194 72.3132 9.12542 74.6975 6.64379C77.0819 4.13784 80.488 2.69023 84.916 2.30096C86.7407 2.15498 88.2492 2.03333 89.4413 1.93601C90.6335 1.81437 91.6066 1.70488 92.3608 1.60756C93.1394 1.48592 93.7963 1.36427 94.3316 1.24262C94.8911 1.12097 95.4264 0.974994 95.9373 0.804688V6.86276C95.3534 7.08173 94.66 7.2642 93.8571 7.41018C93.0542 7.55616 92.0446 7.6778 90.8281 7.77512C89.6359 7.87244 88.1397 7.95759 86.3393 8.03058C83.2251 8.15223 80.9381 8.94294 79.4783 10.4027C78.0429 11.8382 77.3251 13.9305 77.3251 16.6798V17.4461L77.1062 16.8987C77.5441 15.6822 78.2497 14.6361 79.2229 13.7602C80.196 12.8843 81.376 12.2153 82.7628 11.753C84.1496 11.2664 85.658 11.0231 87.2881 11.0231C89.4048 11.0231 91.2539 11.4124 92.8353 12.1909C94.4167 12.9695 95.6454 14.0765 96.5212 15.5119C97.3971 16.9474 97.835 18.6018 97.835 20.4752C97.835 22.5189 97.2998 24.3071 96.2293 25.8399C95.1831 27.3483 93.7111 28.5161 91.8134 29.3433C89.9157 30.1705 87.6774 30.5841 85.0985 30.5841ZM85.2809 25.0735C86.3028 25.0735 87.1908 24.891 87.945 24.5261C88.6992 24.1611 89.2832 23.638 89.6968 22.9568C90.1104 22.2756 90.3172 21.497 90.3172 20.6212C90.3172 19.6966 90.1104 18.9059 89.6968 18.249C89.2832 17.5921 88.6992 17.0812 87.945 16.7163C87.1908 16.3513 86.3028 16.1688 85.2809 16.1688C83.8455 16.1688 82.5439 16.5459 81.376 17.3002C80.2325 18.0301 79.381 19.0519 78.8214 20.3657C79.162 21.7768 79.9162 22.9203 81.0841 23.7962C82.2762 24.6477 83.6752 25.0735 85.2809 25.0735Z" fill="white"/>
<path d="M59.1827 9.16016H66.664V29.9985H59.1827V9.16016ZM34.4395 29.9985V9.16016H41.8843V28.1738L39.5852 24.7798H46.957C47.8816 24.7798 48.5993 24.5608 49.1102 24.1229C49.6211 23.6606 49.8766 23.028 49.8766 22.2252C49.8766 21.398 49.6211 20.7654 49.1102 20.3275C48.5993 19.8652 47.8816 19.6341 46.957 19.6341H39.5487V14.5978H48.1979C50.0469 14.5978 51.6527 14.9263 53.0151 15.5832C54.3776 16.2157 55.4359 17.1159 56.1901 18.2838C56.9687 19.4273 57.358 20.7654 57.358 22.2982C57.358 23.8552 56.9808 25.2177 56.2266 26.3855C55.4724 27.529 54.4141 28.417 53.0516 29.0496C51.6892 29.6822 50.1077 29.9985 48.3073 29.9985H34.4395Z" fill="white"/>
<path d="M20.1764 16.6063L20.7968 15.183C22.9135 15.2316 24.653 15.5601 26.0155 16.1683C27.4023 16.7523 28.4363 17.5795 29.1175 18.65C29.7988 19.6961 30.1394 20.9126 30.1394 22.2994C30.1394 23.7835 29.7988 25.1095 29.1175 26.2773C28.4363 27.4208 27.4145 28.3332 26.052 29.0144C24.7139 29.6713 23.0351 29.9997 21.0158 29.9997H0.797852V15.9494V2.62891H20.2859C22.8162 2.62891 24.7869 3.22498 26.198 4.41713C27.6091 5.58495 28.3147 7.21504 28.3147 9.30739C28.3147 10.4509 28.047 11.5457 27.5118 12.5919C26.9765 13.6381 26.1128 14.5261 24.9207 15.256C23.7528 15.9615 22.1714 16.4116 20.1764 16.6063ZM8.27921 28.248L5.35966 24.708H18.9721C20.0669 24.708 20.9185 24.4404 21.5267 23.9052C22.1349 23.3699 22.4391 22.6279 22.4391 21.679C22.4391 20.7301 22.1106 19.9759 21.4537 19.4163C20.7968 18.8324 19.8236 18.5405 18.5341 18.5405H5.35966V13.3583H17.5123C18.3882 13.3583 19.1181 13.1028 19.702 12.5919C20.3102 12.0566 20.6143 11.3389 20.6143 10.4387C20.6143 9.70883 20.3589 9.11275 19.8479 8.65049C19.337 8.1639 18.6071 7.9206 17.6583 7.9206H5.39615L8.27921 4.38064V15.9494V28.248Z" fill="white"/>
</svg>
