<svg width="128" height="45" viewBox="0 0 128 45" fill="none" xmlns="http://www.w3.org/2000/svg">
<rect width="128" height="45" rx="22.5" fill="white"/>
<path d="M41.8529 28V16.688H43.2449V21.808H49.3089V16.688H50.7009V28H49.3089V23.088H43.2449V28H41.8529ZM55.8619 28.096C55.4779 28.096 55.1046 28.048 54.7419 27.952C54.3899 27.8453 54.0699 27.6907 53.7819 27.488C53.5046 27.2747 53.2806 27.0133 53.1099 26.704C52.9499 26.384 52.8699 26.016 52.8699 25.6C52.8699 25.12 52.9553 24.7147 53.1259 24.384C53.3073 24.0533 53.5473 23.792 53.8459 23.6C54.1446 23.408 54.4913 23.2693 54.8859 23.184C55.2806 23.0987 55.6913 23.056 56.1179 23.056H58.5979C58.5979 22.576 58.5286 22.16 58.3899 21.808C58.2619 21.456 58.0486 21.184 57.7499 20.992C57.4513 20.7893 57.0566 20.688 56.5659 20.688C56.2673 20.688 55.9899 20.72 55.7339 20.784C55.4779 20.848 55.2593 20.9493 55.0779 21.088C54.8966 21.2267 54.7633 21.4133 54.6779 21.648H53.2219C53.2966 21.264 53.4406 20.9387 53.6539 20.672C53.8779 20.3947 54.1446 20.1707 54.4539 20C54.7739 19.8187 55.1153 19.6853 55.4779 19.6C55.8406 19.5147 56.2033 19.472 56.5659 19.472C57.3766 19.472 58.0273 19.6373 58.5179 19.968C59.0086 20.288 59.3659 20.7467 59.5899 21.344C59.8139 21.9307 59.9259 22.6293 59.9259 23.44V28H58.7899L58.7099 26.928C58.4753 27.248 58.1926 27.4933 57.8619 27.664C57.5313 27.8347 57.1899 27.9467 56.8379 28C56.4966 28.064 56.1713 28.096 55.8619 28.096ZM55.9899 26.896C56.5233 26.896 56.9819 26.8107 57.3659 26.64C57.7606 26.4587 58.0646 26.1973 58.2779 25.856C58.4913 25.5147 58.5979 25.0987 58.5979 24.608V24.192H57.1099C56.7579 24.192 56.4113 24.1973 56.0699 24.208C55.7286 24.2187 55.4193 24.2613 55.1419 24.336C54.8646 24.4107 54.6406 24.5387 54.4699 24.72C54.3099 24.9013 54.2299 25.1627 54.2299 25.504C54.2299 25.824 54.3099 26.0853 54.4699 26.288C54.6406 26.4907 54.8593 26.6453 55.1259 26.752C55.4033 26.848 55.6913 26.896 55.9899 26.896ZM65.0889 28.096C64.6836 28.096 64.2783 28.0587 63.8729 27.984C63.4676 27.9093 63.0889 27.7867 62.7369 27.616C62.3956 27.4347 62.1183 27.1947 61.9049 26.896C61.6916 26.5867 61.5743 26.2027 61.5529 25.744H62.8809C62.9343 26.032 63.0889 26.2613 63.3449 26.432C63.6009 26.6027 63.8889 26.7253 64.2089 26.8C64.5396 26.864 64.8329 26.896 65.0889 26.896C65.3876 26.896 65.6916 26.864 66.0009 26.8C66.3209 26.736 66.5876 26.608 66.8009 26.416C67.0249 26.224 67.1369 25.9413 67.1369 25.568C67.1369 25.2053 67.0463 24.9387 66.8649 24.768C66.6943 24.5973 66.4649 24.4853 66.1769 24.432C65.8996 24.3787 65.5956 24.352 65.2649 24.352H63.7609V23.152H64.9929C65.1956 23.152 65.4036 23.136 65.6169 23.104C65.8303 23.0613 66.0276 22.9973 66.2089 22.912C66.3903 22.816 66.5343 22.6827 66.6409 22.512C66.7583 22.3413 66.8169 22.1227 66.8169 21.856C66.8169 21.5573 66.7316 21.3227 66.5609 21.152C66.3903 20.9813 66.1716 20.864 65.9049 20.8C65.6383 20.7253 65.3663 20.688 65.0889 20.688C64.8329 20.688 64.5609 20.7147 64.2729 20.768C63.9956 20.8213 63.7556 20.928 63.5529 21.088C63.3503 21.2373 63.2276 21.4613 63.1849 21.76H61.8409C61.8623 21.184 62.0383 20.7307 62.3689 20.4C62.6996 20.0693 63.1103 19.8347 63.6009 19.696C64.0916 19.5467 64.5823 19.472 65.0729 19.472C65.4463 19.472 65.8143 19.5093 66.1769 19.584C66.5396 19.6587 66.8703 19.7867 67.1689 19.968C67.4676 20.1387 67.7023 20.368 67.8729 20.656C68.0543 20.944 68.1449 21.3013 68.1449 21.728C68.1449 22.112 68.0543 22.4533 67.8729 22.752C67.6916 23.0507 67.4143 23.2907 67.0409 23.472C67.5849 23.6427 67.9636 23.9093 68.1769 24.272C68.3903 24.6347 68.4969 25.0667 68.4969 25.568C68.4969 26.016 68.4009 26.4 68.2089 26.72C68.0169 27.0293 67.7556 27.2907 67.4249 27.504C67.1049 27.7067 66.7423 27.856 66.3369 27.952C65.9316 28.048 65.5156 28.096 65.0889 28.096ZM72.9557 28.096C72.5717 28.096 72.1984 28.048 71.8357 27.952C71.4837 27.8453 71.1637 27.6907 70.8757 27.488C70.5984 27.2747 70.3744 27.0133 70.2037 26.704C70.0437 26.384 69.9637 26.016 69.9637 25.6C69.9637 25.12 70.049 24.7147 70.2197 24.384C70.401 24.0533 70.641 23.792 70.9397 23.6C71.2384 23.408 71.585 23.2693 71.9797 23.184C72.3744 23.0987 72.785 23.056 73.2117 23.056H75.6917C75.6917 22.576 75.6224 22.16 75.4837 21.808C75.3557 21.456 75.1424 21.184 74.8437 20.992C74.545 20.7893 74.1504 20.688 73.6597 20.688C73.361 20.688 73.0837 20.72 72.8277 20.784C72.5717 20.848 72.353 20.9493 72.1717 21.088C71.9904 21.2267 71.857 21.4133 71.7717 21.648H70.3157C70.3904 21.264 70.5344 20.9387 70.7477 20.672C70.9717 20.3947 71.2384 20.1707 71.5477 20C71.8677 19.8187 72.209 19.6853 72.5717 19.6C72.9344 19.5147 73.297 19.472 73.6597 19.472C74.4704 19.472 75.121 19.6373 75.6117 19.968C76.1024 20.288 76.4597 20.7467 76.6837 21.344C76.9077 21.9307 77.0197 22.6293 77.0197 23.44V28H75.8837L75.8037 26.928C75.569 27.248 75.2864 27.4933 74.9557 27.664C74.625 27.8347 74.2837 27.9467 73.9317 28C73.5904 28.064 73.265 28.096 72.9557 28.096ZM73.0837 26.896C73.617 26.896 74.0757 26.8107 74.4597 26.64C74.8544 26.4587 75.1584 26.1973 75.3717 25.856C75.585 25.5147 75.6917 25.0987 75.6917 24.608V24.192H74.2037C73.8517 24.192 73.505 24.1973 73.1637 24.208C72.8224 24.2187 72.513 24.2613 72.2357 24.336C71.9584 24.4107 71.7344 24.5387 71.5637 24.72C71.4037 24.9013 71.3237 25.1627 71.3237 25.504C71.3237 25.824 71.4037 26.0853 71.5637 26.288C71.7344 26.4907 71.953 26.6453 72.2197 26.752C72.497 26.848 72.785 26.896 73.0837 26.896ZM78.4067 30.592V26.816C78.716 26.816 78.9614 26.7307 79.1427 26.56C79.3347 26.3893 79.484 26.1653 79.5907 25.888C79.6974 25.6107 79.7774 25.312 79.8307 24.992C79.884 24.6613 79.9267 24.3467 79.9587 24.048C80.012 23.5573 80.044 23.072 80.0547 22.592C80.076 22.1013 80.0867 21.712 80.0867 21.424C80.0974 21.1147 80.1027 20.8053 80.1027 20.496C80.1027 20.1867 80.1027 19.8773 80.1027 19.568H86.0867V26.816H87.1907V30.592H85.8787V28H79.7187V30.592H78.4067ZM80.5667 26.816H84.7267V20.768H81.3987C81.388 21.216 81.3774 21.7173 81.3667 22.272C81.356 22.8267 81.3347 23.344 81.3027 23.824C81.292 24.1013 81.2654 24.416 81.2227 24.768C81.1907 25.12 81.1267 25.4773 81.0307 25.84C80.9347 26.192 80.78 26.5173 80.5667 26.816Z" fill="black"/>
</svg>
