<svg width="440" height="956" viewBox="0 0 440 956" fill="none" xmlns="http://www.w3.org/2000/svg">
<g clip-path="url(#clip0_175_69)">
<rect width="440" height="956" fill="#0094FA"/>
<g filter="url(#filter0_f_175_69)">
<circle cx="417" cy="703" r="296" fill="#5CC5FE" fill-opacity="0.8"/>
</g>
<g filter="url(#filter1_f_175_69)">
<circle cx="105.312" cy="229.5" r="259.5" fill="#2D333F" fill-opacity="0.13"/>
</g>
<path d="M352.999 99.1909V106.782H349.057V102.633H333.081V106.782H329.139V99.1909H333.67L334.758 99.2497H346.909L347.88 99.1909H352.999ZM332.757 85.9219H349.94V101.515H345.379V87.2458L347.468 89.3347H335.082L336.935 87.746C337.092 88.5894 337.19 89.4034 337.23 90.188C337.269 90.9529 337.288 91.659 337.288 92.3063C337.288 95.1111 336.876 97.3079 336.053 98.8967C335.229 100.485 334.072 101.28 332.581 101.28L330.727 99.7205C332.316 98.5829 333.111 95.8173 333.111 91.4237C333.111 90.5606 333.081 89.6682 333.022 88.7463C332.963 87.8245 332.875 86.883 332.757 85.9219Z" fill="white"/>
<path d="M318.268 103.074C316.306 103.074 314.551 102.702 313.001 101.956C311.471 101.211 310.265 100.181 309.383 98.8672C308.5 97.5334 308.059 95.9937 308.059 94.248C308.059 92.5024 308.471 90.9823 309.294 89.6877C310.138 88.3736 311.295 87.3438 312.766 86.5985C314.237 85.8531 315.924 85.4805 317.826 85.4805C319.729 85.4805 321.367 85.912 322.74 86.775C324.132 87.6184 325.201 88.8051 325.947 90.335C326.712 91.8649 327.094 93.6694 327.094 95.7485H311.677V92.6004H324.711L322.769 93.7479C322.71 92.7279 322.465 91.8649 322.034 91.1588C321.602 90.4331 321.033 89.8741 320.327 89.4818C319.621 89.0895 318.778 88.8933 317.797 88.8933C316.758 88.8933 315.855 89.1091 315.09 89.5406C314.325 89.9525 313.727 90.5311 313.296 91.2765C312.864 92.0218 312.648 92.9045 312.648 93.9244C312.648 95.1012 312.913 96.1212 313.443 96.9842C313.992 97.8276 314.757 98.4749 315.738 98.926C316.738 99.3772 317.934 99.6027 319.327 99.6027C320.602 99.6027 321.887 99.4164 323.181 99.0437C324.476 98.6514 325.633 98.1218 326.653 97.455V100.574C325.574 101.358 324.299 101.976 322.828 102.427C321.377 102.859 319.857 103.074 318.268 103.074Z" fill="white"/>
<path d="M287.213 102.633V94.2775V85.9219H299.835C301.443 85.9219 302.708 86.3044 303.63 87.0693C304.571 87.8146 305.042 88.8346 305.042 90.1291C305.042 91.3452 304.571 92.3259 303.63 93.0713C302.708 93.8166 301.414 94.2677 299.746 94.4246L300.07 93.6303C302.012 93.6695 303.493 94.0716 304.513 94.8365C305.552 95.5819 306.072 96.6312 306.072 97.9846C306.072 99.4165 305.552 100.554 304.513 101.397C303.473 102.221 302.041 102.633 300.217 102.633H287.213ZM291.626 101.574L289.861 99.6322H298.893C299.795 99.6322 300.452 99.4557 300.864 99.1026C301.296 98.73 301.512 98.2102 301.512 97.5433C301.512 96.9549 301.276 96.4743 300.806 96.1017C300.354 95.7094 299.599 95.5132 298.54 95.5132H289.949V92.8065H297.922C298.785 92.8065 299.423 92.6299 299.835 92.2769C300.247 91.9238 300.453 91.4531 300.453 90.8647C300.453 90.2958 300.266 89.8349 299.893 89.4819C299.54 89.1092 298.952 88.9229 298.128 88.9229H289.89L291.626 87.0105V94.2775V101.574Z" fill="white"/>
<path d="M273.677 103.074C271.598 103.074 269.783 102.712 268.234 101.986C266.684 101.241 265.478 100.211 264.615 98.8966C263.752 97.5628 263.32 96.0231 263.32 94.2775C263.32 92.5318 263.752 91.0019 264.615 89.6877C265.478 88.3736 266.684 87.3438 268.234 86.5985C269.783 85.8531 271.598 85.4805 273.677 85.4805C275.736 85.4805 277.541 85.8531 279.09 86.5985C280.64 87.3438 281.846 88.3736 282.709 89.6877C283.592 91.0019 284.033 92.5318 284.033 94.2775C284.033 96.0231 283.592 97.5628 282.709 98.8966C281.846 100.211 280.64 101.241 279.09 101.986C277.541 102.712 275.736 103.074 273.677 103.074ZM273.677 99.5733C274.853 99.5733 275.864 99.3575 276.707 98.926C277.57 98.4945 278.237 97.8865 278.708 97.1019C279.178 96.3173 279.414 95.3758 279.414 94.2775C279.414 93.1791 279.178 92.2376 278.708 91.453C278.237 90.6684 277.57 90.0604 276.707 89.6289C275.864 89.1974 274.853 88.9816 273.677 88.9816C272.5 88.9816 271.48 89.1974 270.617 89.6289C269.754 90.0604 269.087 90.6684 268.616 91.453C268.145 92.2376 267.91 93.1791 267.91 94.2775C267.91 95.3758 268.145 96.3173 268.616 97.1019C269.087 97.8865 269.754 98.4945 270.617 98.926C271.48 99.3575 272.5 99.5733 273.677 99.5733Z" fill="white"/>
<path d="M235.564 102.633V85.9219H242.361L248.745 100.338H247.186L253.541 85.9219H260.337V102.633H256.071V87.54H257.042L250.099 102.633H245.774L238.83 87.5989L239.831 87.54V102.633H235.564Z" fill="white"/>
<path d="M221.913 103.074C219.834 103.074 218.02 102.712 216.47 101.986C214.92 101.241 213.714 100.211 212.851 98.8966C211.988 97.5628 211.557 96.0231 211.557 94.2775C211.557 92.5318 211.988 91.0019 212.851 89.6877C213.714 88.3736 214.92 87.3438 216.47 86.5985C218.02 85.8531 219.834 85.4805 221.913 85.4805C223.972 85.4805 225.777 85.8531 227.326 86.5985C228.876 87.3438 230.082 88.3736 230.945 89.6877C231.828 91.0019 232.269 92.5318 232.269 94.2775C232.269 96.0231 231.828 97.5628 230.945 98.8966C230.082 100.211 228.876 101.241 227.326 101.986C225.777 102.712 223.972 103.074 221.913 103.074ZM221.913 99.5733C223.09 99.5733 224.1 99.3575 224.943 98.926C225.806 98.4945 226.473 97.8865 226.944 97.1019C227.415 96.3173 227.65 95.3758 227.65 94.2775C227.65 93.1791 227.415 92.2376 226.944 91.453C226.473 90.6684 225.806 90.0604 224.943 89.6289C224.1 89.1974 223.09 88.9816 221.913 88.9816C220.736 88.9816 219.716 89.1974 218.853 89.6289C217.99 90.0604 217.323 90.6684 216.852 91.453C216.382 92.2376 216.146 93.1791 216.146 94.2775C216.146 95.3758 216.382 96.3173 216.852 97.1019C217.323 97.8865 217.99 98.4945 218.853 98.926C219.716 99.3575 220.736 99.5733 221.913 99.5733Z" fill="white"/>
<path d="M180.055 107.134V98.5723H183.938L186.115 98.6311H202.18L203.298 98.5723H209.064V107.134H204.769V102.632H184.35V107.134H180.055ZM184.821 80.5664H205.21V101.073H200.591V82.5082L202.68 84.6266H187.292L189.234 83.1261C189.352 84.146 189.43 85.1463 189.47 86.127C189.509 87.1078 189.528 88.0394 189.528 88.9221C189.528 91.3346 189.342 93.3843 188.969 95.0711C188.597 96.758 188.047 98.0427 187.322 98.9253C186.616 99.808 185.733 100.249 184.674 100.249L182.732 98.6311C183.595 97.67 184.223 96.3166 184.615 94.571C185.027 92.8253 185.233 90.6383 185.233 88.01C185.233 86.8528 185.194 85.6465 185.115 84.3912C185.037 83.1359 184.939 81.8609 184.821 80.5664Z" fill="white"/>
<circle cx="125.945" cy="93.8006" r="37.9451" fill="white"/>
<path d="M121.565 71.3164H130.325V80.0766H121.565V99.2856H130.325L130.325 80.0766L139.086 80.0766V97.5969C143.924 97.5969 147.846 101.519 147.846 106.357L147.846 115.117H139.086L139.086 106.357H130.325V106.322H121.565V106.357H112.805L112.805 115.117H104.045C104.045 110.467 107.668 106.663 112.245 106.375H104.045C104.045 101.537 107.967 97.6145 112.805 97.6145V80.0766C112.805 75.2385 116.727 71.3164 121.565 71.3164Z" fill="#0094FA"/>
<path d="M119.177 255.607L119.797 254.183C121.914 254.232 123.653 254.56 125.016 255.169C126.403 255.753 127.437 256.58 128.118 257.65C128.799 258.696 129.14 259.913 129.14 261.3C129.14 262.784 128.799 264.11 128.118 265.278C127.437 266.421 126.415 267.333 125.052 268.015C123.714 268.672 122.035 269 120.016 269H99.7982V254.95V241.629H119.286C121.816 241.629 123.787 242.225 125.198 243.417C126.609 244.585 127.315 246.215 127.315 248.308C127.315 249.451 127.047 250.546 126.512 251.592C125.977 252.638 125.113 253.526 123.921 254.256C122.753 254.962 121.172 255.412 119.177 255.607ZM107.28 267.248L104.36 263.708H117.972C119.067 263.708 119.919 263.441 120.527 262.905C121.135 262.37 121.439 261.628 121.439 260.679C121.439 259.73 121.111 258.976 120.454 258.417C119.797 257.833 118.824 257.541 117.534 257.541H104.36V252.359H116.513C117.389 252.359 118.118 252.103 118.702 251.592C119.311 251.057 119.615 250.339 119.615 249.439C119.615 248.709 119.359 248.113 118.848 247.651C118.337 247.164 117.607 246.921 116.659 246.921H104.396L107.28 243.381V254.95V267.248ZM158.182 248.162H165.664V269H158.182V248.162ZM133.439 269V248.162H140.884V267.175L138.585 263.781H145.957C146.881 263.781 147.599 263.562 148.11 263.124C148.621 262.662 148.876 262.03 148.876 261.227C148.876 260.399 148.621 259.767 148.11 259.329C147.599 258.867 146.881 258.636 145.957 258.636H138.548V253.599H147.198C149.047 253.599 150.652 253.928 152.015 254.585C153.377 255.217 154.436 256.117 155.19 257.285C155.968 258.429 156.358 259.767 156.358 261.3C156.358 262.857 155.981 264.219 155.226 265.387C154.472 266.531 153.414 267.419 152.051 268.051C150.689 268.684 149.107 269 147.307 269H133.439ZM184.098 269.584C181.154 269.584 178.636 269.049 176.543 267.978C174.475 266.883 172.882 265.314 171.763 263.27C170.668 261.202 170.12 258.721 170.12 255.826C170.12 251.519 171.313 248.125 173.697 245.644C176.081 243.138 179.487 241.69 183.915 241.301C185.74 241.155 187.248 241.033 188.441 240.936C189.633 240.814 190.606 240.705 191.36 240.607C192.139 240.486 192.796 240.364 193.331 240.242C193.89 240.121 194.426 239.975 194.937 239.804V245.863C194.353 246.081 193.659 246.264 192.856 246.41C192.054 246.556 191.044 246.678 189.827 246.775C188.635 246.872 187.139 246.957 185.339 247.03C182.224 247.152 179.937 247.943 178.478 249.402C177.042 250.838 176.324 252.93 176.324 255.68V256.446L176.105 255.898C176.543 254.682 177.249 253.636 178.222 252.76C179.195 251.884 180.375 251.215 181.762 250.753C183.149 250.266 184.657 250.023 186.287 250.023C188.404 250.023 190.253 250.412 191.835 251.191C193.416 251.969 194.645 253.076 195.521 254.512C196.396 255.947 196.834 257.602 196.834 259.475C196.834 261.519 196.299 263.307 195.229 264.84C194.182 266.348 192.71 267.516 190.813 268.343C188.915 269.17 186.677 269.584 184.098 269.584ZM184.28 264.073C185.302 264.073 186.19 263.891 186.944 263.526C187.699 263.161 188.282 262.638 188.696 261.957C189.11 261.275 189.316 260.497 189.316 259.621C189.316 258.696 189.11 257.906 188.696 257.249C188.282 256.592 187.699 256.081 186.944 255.716C186.19 255.351 185.302 255.169 184.28 255.169C182.845 255.169 181.543 255.546 180.375 256.3C179.232 257.03 178.38 258.052 177.821 259.365C178.161 260.777 178.916 261.92 180.083 262.796C181.276 263.647 182.674 264.073 184.28 264.073ZM213.324 269.584C210.793 269.584 208.531 269.122 206.536 268.197C204.565 267.273 203.008 265.983 201.864 264.329C200.721 262.65 200.149 260.704 200.149 258.49C200.149 256.324 200.696 254.427 201.791 252.796C202.886 251.142 204.382 249.853 206.28 248.928C208.202 248.004 210.367 247.541 212.776 247.541C215.282 247.541 217.411 248.089 219.163 249.184C220.939 250.254 222.301 251.775 223.25 253.745C224.223 255.716 224.71 258.04 224.71 260.716H206.171V256.227H220.513L218.068 257.796C217.97 256.726 217.703 255.826 217.265 255.096C216.827 254.341 216.243 253.77 215.513 253.38C214.808 252.991 213.956 252.796 212.959 252.796C211.864 252.796 210.927 253.015 210.149 253.453C209.37 253.891 208.762 254.5 208.324 255.278C207.886 256.032 207.667 256.92 207.667 257.942C207.667 259.256 207.959 260.375 208.543 261.3C209.151 262.2 210.027 262.893 211.17 263.38C212.338 263.866 213.761 264.11 215.44 264.11C216.973 264.11 218.494 263.915 220.002 263.526C221.535 263.112 222.922 262.54 224.162 261.811V266.555C222.727 267.528 221.085 268.282 219.236 268.818C217.411 269.328 215.44 269.584 213.324 269.584ZM228.993 248.162H236.475V254.147L236.146 255.023V260.862L236.475 262.577V275.022H228.993V248.162ZM234.103 258.599C234.419 256.336 235.076 254.39 236.073 252.76C237.095 251.106 238.385 249.828 239.942 248.928C241.499 248.004 243.263 247.541 245.233 247.541C247.277 247.541 249.065 248.004 250.598 248.928C252.155 249.853 253.359 251.142 254.211 252.796C255.087 254.451 255.525 256.385 255.525 258.599C255.525 260.764 255.087 262.686 254.211 264.365C253.359 266.02 252.155 267.309 250.598 268.234C249.065 269.134 247.277 269.584 245.233 269.584C243.263 269.584 241.499 269.134 239.942 268.234C238.385 267.309 237.107 266.02 236.11 264.365C235.112 262.711 234.443 260.789 234.103 258.599ZM248.007 258.599C248.007 257.553 247.788 256.628 247.35 255.826C246.936 255.023 246.34 254.39 245.562 253.928C244.808 253.466 243.944 253.234 242.971 253.234C241.973 253.234 241.024 253.466 240.124 253.928C239.224 254.39 238.433 255.023 237.752 255.826C237.071 256.628 236.548 257.553 236.183 258.599C236.548 259.621 237.071 260.533 237.752 261.336C238.433 262.139 239.224 262.772 240.124 263.234C241.024 263.672 241.973 263.891 242.971 263.891C243.944 263.891 244.808 263.672 245.562 263.234C246.34 262.772 246.936 262.139 247.35 261.336C247.788 260.533 248.007 259.621 248.007 258.599ZM259.847 269V248.162H267.219V264.949L265.613 264.438L276.525 248.162H286.086V269H278.751V251.738L280.357 252.286L269.153 269H259.847ZM297.693 250.716H305.174V269H297.693V250.716ZM289.773 248.162H313.093V253.782H289.773V248.162ZM328.291 269.584C325.761 269.584 323.498 269.122 321.503 268.197C319.532 267.273 317.975 265.983 316.832 264.329C315.688 262.65 315.116 260.704 315.116 258.49C315.116 256.324 315.664 254.427 316.759 252.796C317.854 251.142 319.35 249.853 321.248 248.928C323.17 248.004 325.335 247.541 327.744 247.541C330.249 247.541 332.378 248.089 334.13 249.184C335.906 250.254 337.269 251.775 338.217 253.745C339.191 255.716 339.677 258.04 339.677 260.716H321.138V256.227H335.48L333.035 257.796C332.938 256.726 332.67 255.826 332.232 255.096C331.794 254.341 331.21 253.77 330.481 253.38C329.775 252.991 328.923 252.796 327.926 252.796C326.831 252.796 325.894 253.015 325.116 253.453C324.337 253.891 323.729 254.5 323.291 255.278C322.853 256.032 322.634 256.92 322.634 257.942C322.634 259.256 322.926 260.375 323.51 261.3C324.118 262.2 324.994 262.893 326.138 263.38C327.306 263.866 328.729 264.11 330.408 264.11C331.94 264.11 333.461 263.915 334.969 263.526C336.502 263.112 337.889 262.54 339.13 261.811V266.555C337.694 267.528 336.052 268.282 334.203 268.818C332.378 269.328 330.408 269.584 328.291 269.584ZM168.211 294.162V299.782H154.088L157.518 296.351V315H150.037V294.162H168.211ZM183.534 315.584C180.857 315.584 178.522 315.134 176.527 314.234C174.532 313.309 172.974 312.02 171.855 310.365C170.736 308.686 170.177 306.764 170.177 304.599C170.177 302.385 170.736 300.451 171.855 298.796C172.974 297.142 174.532 295.853 176.527 294.928C178.522 294.004 180.857 293.541 183.534 293.541C186.185 293.541 188.509 294.004 190.504 294.928C192.523 295.853 194.093 297.142 195.212 298.796C196.331 300.451 196.89 302.385 196.89 304.599C196.89 306.764 196.331 308.686 195.212 310.365C194.093 312.02 192.523 313.309 190.504 314.234C188.509 315.134 186.185 315.584 183.534 315.584ZM183.534 310.073C184.75 310.073 185.784 309.854 186.636 309.416C187.511 308.978 188.18 308.346 188.643 307.519C189.105 306.691 189.336 305.718 189.336 304.599C189.336 303.431 189.105 302.446 188.643 301.643C188.18 300.816 187.511 300.183 186.636 299.745C185.784 299.307 184.75 299.088 183.534 299.088C182.317 299.088 181.271 299.307 180.395 299.745C179.519 300.183 178.85 300.816 178.388 301.643C177.926 302.446 177.694 303.419 177.694 304.563C177.694 305.706 177.926 306.691 178.388 307.519C178.85 308.346 179.519 308.978 180.395 309.416C181.271 309.854 182.317 310.073 183.534 310.073ZM201.124 294.162H208.605V300.147L208.276 301.023V306.862L208.605 308.577V321.022H201.124V294.162ZM206.233 304.599C206.549 302.336 207.206 300.39 208.203 298.76C209.225 297.106 210.515 295.828 212.072 294.928C213.629 294.004 215.393 293.541 217.364 293.541C219.407 293.541 221.195 294.004 222.728 294.928C224.285 295.853 225.49 297.142 226.341 298.796C227.217 300.451 227.655 302.385 227.655 304.599C227.655 306.764 227.217 308.686 226.341 310.365C225.49 312.02 224.285 313.309 222.728 314.234C221.195 315.134 219.407 315.584 217.364 315.584C215.393 315.584 213.629 315.134 212.072 314.234C210.515 313.309 209.237 312.02 208.24 310.365C207.242 308.711 206.573 306.789 206.233 304.599ZM220.137 304.599C220.137 303.553 219.918 302.628 219.48 301.826C219.067 301.023 218.471 300.39 217.692 299.928C216.938 299.466 216.074 299.234 215.101 299.234C214.103 299.234 213.155 299.466 212.254 299.928C211.354 300.39 210.563 301.023 209.882 301.826C209.201 302.628 208.678 303.553 208.313 304.599C208.678 305.621 209.201 306.533 209.882 307.336C210.563 308.139 211.354 308.772 212.254 309.234C213.155 309.672 214.103 309.891 215.101 309.891C216.074 309.891 216.938 309.672 217.692 309.234C218.471 308.772 219.067 308.139 219.48 307.336C219.918 306.533 220.137 305.621 220.137 304.599ZM244.385 315.584C241.709 315.584 239.373 315.134 237.378 314.234C235.383 313.309 233.826 312.02 232.707 310.365C231.588 308.686 231.028 306.764 231.028 304.599C231.028 302.385 231.588 300.451 232.707 298.796C233.826 297.142 235.383 295.853 237.378 294.928C239.373 294.004 241.709 293.541 244.385 293.541C247.037 293.541 249.361 294.004 251.356 294.928C253.375 295.853 254.944 297.142 256.063 298.796C257.182 300.451 257.742 302.385 257.742 304.599C257.742 306.764 257.182 308.686 256.063 310.365C254.944 312.02 253.375 313.309 251.356 314.234C249.361 315.134 247.037 315.584 244.385 315.584ZM244.385 310.073C245.602 310.073 246.636 309.854 247.487 309.416C248.363 308.978 249.032 308.346 249.494 307.519C249.957 306.691 250.188 305.718 250.188 304.599C250.188 303.431 249.957 302.446 249.494 301.643C249.032 300.816 248.363 300.183 247.487 299.745C246.636 299.307 245.602 299.088 244.385 299.088C243.169 299.088 242.122 299.307 241.247 299.745C240.371 300.183 239.702 300.816 239.239 301.643C238.777 302.446 238.546 303.419 238.546 304.563C238.546 305.706 238.777 306.691 239.239 307.519C239.702 308.346 240.371 308.978 241.247 309.416C242.122 309.854 243.169 310.073 244.385 310.073ZM291.075 309.453V320H284.652V315H266.441V320H260.018V309.453H266.295L267.682 309.562H282.791L284.068 309.453H291.075ZM264.361 294.162H287.279V313.577H279.871V296.169L283.265 299.563H268.01L270.784 296.862C271.125 297.86 271.331 298.809 271.404 299.709C271.477 300.585 271.514 301.388 271.514 302.117C271.514 305.475 270.942 308.09 269.799 309.964C268.655 311.813 267.049 312.737 264.981 312.737L261.952 310.183C263.85 308.869 264.799 305.682 264.799 300.621C264.799 299.648 264.762 298.614 264.689 297.519C264.616 296.424 264.507 295.305 264.361 294.162Z" fill="white"/>
</g>
<defs>
<filter id="filter0_f_175_69" x="-135.293" y="150.707" width="1104.59" height="1104.59" filterUnits="userSpaceOnUse" color-interpolation-filters="sRGB">
<feFlood flood-opacity="0" result="BackgroundImageFix"/>
<feBlend mode="normal" in="SourceGraphic" in2="BackgroundImageFix" result="shape"/>
<feGaussianBlur stdDeviation="128.146" result="effect1_foregroundBlur_175_69"/>
</filter>
<filter id="filter1_f_175_69" x="-378.876" y="-254.689" width="968.378" height="968.378" filterUnits="userSpaceOnUse" color-interpolation-filters="sRGB">
<feFlood flood-opacity="0" result="BackgroundImageFix"/>
<feBlend mode="normal" in="SourceGraphic" in2="BackgroundImageFix" result="shape"/>
<feGaussianBlur stdDeviation="112.344" result="effect1_foregroundBlur_175_69"/>
</filter>
<clipPath id="clip0_175_69">
<rect width="440" height="956" fill="white"/>
</clipPath>
</defs>
</svg>
