<svg width="128" height="45" viewBox="0 0 128 45" fill="none" xmlns="http://www.w3.org/2000/svg">
<rect width="128" height="45" rx="22.5" fill="white"/>
<path d="M41.4541 28V16.688H45.4221C45.9875 16.688 46.4995 16.736 46.9581 16.832C47.4168 16.9173 47.8115 17.0667 48.1421 17.28C48.4835 17.4933 48.7448 17.7813 48.9261 18.144C49.1075 18.5067 49.1981 18.9653 49.1981 19.52C49.1981 20.096 49.0648 20.608 48.7981 21.056C48.5421 21.504 48.1421 21.8347 47.5981 22.048C48.3235 22.176 48.8675 22.4853 49.2301 22.976C49.5928 23.456 49.7741 24.08 49.7741 24.848C49.7741 25.456 49.6568 25.9627 49.4221 26.368C49.1981 26.7733 48.8781 27.0987 48.4621 27.344C48.0568 27.5787 47.5875 27.7493 47.0541 27.856C46.5208 27.952 45.9501 28 45.3421 28H41.4541ZM42.8461 26.736H45.2941C45.6248 26.736 45.9661 26.72 46.3181 26.688C46.6808 26.6453 47.0168 26.5653 47.3261 26.448C47.6355 26.32 47.8861 26.1227 48.0781 25.856C48.2701 25.5893 48.3661 25.232 48.3661 24.784C48.3661 24.4 48.2915 24.0853 48.1421 23.84C48.0035 23.5947 47.8115 23.4027 47.5661 23.264C47.3315 23.1253 47.0595 23.0293 46.7501 22.976C46.4408 22.9227 46.1261 22.896 45.8061 22.896H42.8461V26.736ZM42.8461 21.648H45.0221C45.4168 21.648 45.7848 21.616 46.1261 21.552C46.4675 21.4773 46.7661 21.36 47.0221 21.2C47.2781 21.04 47.4755 20.832 47.6141 20.576C47.7635 20.32 47.8381 20 47.8381 19.616C47.8381 19.1253 47.7261 18.7627 47.5021 18.528C47.2781 18.2933 46.9848 18.1387 46.6221 18.064C46.2595 17.9893 45.8648 17.952 45.4381 17.952H42.8461V21.648ZM51.6345 28V19.568H53.0265V22.784H54.5465C55.0478 22.784 55.5012 22.8267 55.9065 22.912C56.3118 22.9973 56.6585 23.136 56.9465 23.328C57.2345 23.52 57.4532 23.7813 57.6025 24.112C57.7518 24.432 57.8265 24.8373 57.8265 25.328C57.8265 25.7973 57.7465 26.2027 57.5865 26.544C57.4265 26.8853 57.1972 27.1627 56.8985 27.376C56.6105 27.5893 56.2638 27.7493 55.8585 27.856C55.4638 27.952 55.0318 28 54.5625 28H51.6345ZM53.0265 26.816H53.4745C53.8478 26.816 54.2105 26.8107 54.5625 26.8C54.9145 26.7787 55.2292 26.7253 55.5065 26.64C55.7945 26.5547 56.0238 26.416 56.1945 26.224C56.3652 26.0213 56.4505 25.7387 56.4505 25.376C56.4505 25.0347 56.3812 24.7733 56.2425 24.592C56.1145 24.4 55.9438 24.2613 55.7305 24.176C55.5172 24.08 55.2825 24.0213 55.0265 24C54.7812 23.9787 54.5358 23.968 54.2905 23.968H53.0265V26.816ZM58.9945 28V19.568H60.3545V28H58.9945ZM62.4939 28V19.568H63.8539V26.032C63.9285 25.8827 64.0299 25.7227 64.1579 25.552C64.2859 25.3707 64.3872 25.232 64.4619 25.136L68.5419 19.568H69.8859V28H68.5259V21.536C68.4405 21.696 68.3445 21.8453 68.2379 21.984C68.1419 22.1227 68.0512 22.2507 67.9659 22.368L63.8219 28H62.4939ZM66.3019 18.384C65.4592 18.384 64.7979 18.2027 64.3179 17.84C63.8485 17.4773 63.6032 16.9493 63.5819 16.256H64.8299C64.8512 16.6293 64.9899 16.9013 65.2459 17.072C65.5125 17.2427 65.8699 17.328 66.3179 17.328C66.7659 17.328 67.1179 17.2427 67.3739 17.072C67.6405 16.9013 67.7845 16.6293 67.8059 16.256H69.0539C69.0432 16.7147 68.9259 17.104 68.7019 17.424C68.4779 17.744 68.1632 17.984 67.7579 18.144C67.3525 18.304 66.8672 18.384 66.3019 18.384ZM73.9931 28V20.768H71.0971V19.568H78.2491V20.768H75.3531V28H73.9931ZM79.4626 28V19.568H80.8226V26.032C80.8973 25.8827 80.9986 25.7227 81.1266 25.552C81.2546 25.3707 81.356 25.232 81.4306 25.136L85.5106 19.568H86.8546V28H85.4946V21.536C85.4093 21.696 85.3133 21.8453 85.2066 21.984C85.1106 22.1227 85.02 22.2507 84.9346 22.368L80.7906 28H79.4626Z" fill="black"/>
</svg>
