<svg width="440" height="956" viewBox="0 0 440 956" fill="none" xmlns="http://www.w3.org/2000/svg">
<g clip-path="url(#clip0_175_91)">
<rect width="440" height="956" fill="#0094FA"/>
<g filter="url(#filter0_f_175_91)">
<circle cx="417" cy="240" r="296" fill="#5CC5FE" fill-opacity="0.8"/>
</g>
<g filter="url(#filter1_f_175_91)">
<circle cx="105.312" cy="840.5" r="259.5" fill="#2D333F" fill-opacity="0.13"/>
</g>
<path d="M352.999 99.1909V106.782H349.057V102.633H333.081V106.782H329.139V99.1909H333.67L334.758 99.2497H346.909L347.88 99.1909H352.999ZM332.757 85.9219H349.94V101.515H345.379V87.2458L347.468 89.3347H335.082L336.935 87.746C337.092 88.5894 337.19 89.4034 337.23 90.188C337.269 90.9529 337.288 91.659 337.288 92.3063C337.288 95.1111 336.876 97.3079 336.053 98.8967C335.229 100.485 334.072 101.28 332.581 101.28L330.727 99.7205C332.316 98.5829 333.111 95.8173 333.111 91.4237C333.111 90.5606 333.081 89.6682 333.022 88.7463C332.963 87.8245 332.875 86.883 332.757 85.9219Z" fill="white"/>
<path d="M318.268 103.074C316.306 103.074 314.551 102.702 313.001 101.956C311.471 101.211 310.265 100.181 309.383 98.8672C308.5 97.5334 308.059 95.9937 308.059 94.248C308.059 92.5024 308.471 90.9823 309.294 89.6877C310.138 88.3736 311.295 87.3438 312.766 86.5985C314.237 85.8531 315.924 85.4805 317.826 85.4805C319.729 85.4805 321.367 85.912 322.74 86.775C324.132 87.6184 325.201 88.8051 325.947 90.335C326.712 91.8649 327.094 93.6694 327.094 95.7485H311.677V92.6004H324.711L322.769 93.7479C322.71 92.7279 322.465 91.8649 322.034 91.1588C321.602 90.4331 321.033 89.8741 320.327 89.4818C319.621 89.0895 318.778 88.8933 317.797 88.8933C316.758 88.8933 315.855 89.1091 315.09 89.5406C314.325 89.9525 313.727 90.5311 313.296 91.2765C312.864 92.0218 312.648 92.9045 312.648 93.9244C312.648 95.1012 312.913 96.1212 313.443 96.9842C313.992 97.8276 314.757 98.4749 315.738 98.926C316.738 99.3772 317.934 99.6027 319.327 99.6027C320.602 99.6027 321.887 99.4164 323.181 99.0437C324.476 98.6514 325.633 98.1218 326.653 97.455V100.574C325.574 101.358 324.299 101.976 322.828 102.427C321.377 102.859 319.857 103.074 318.268 103.074Z" fill="white"/>
<path d="M287.213 102.633V94.2775V85.9219H299.835C301.443 85.9219 302.708 86.3044 303.63 87.0693C304.571 87.8146 305.042 88.8346 305.042 90.1291C305.042 91.3452 304.571 92.3259 303.63 93.0713C302.708 93.8166 301.414 94.2677 299.746 94.4246L300.07 93.6303C302.012 93.6695 303.493 94.0716 304.513 94.8365C305.552 95.5819 306.072 96.6312 306.072 97.9846C306.072 99.4165 305.552 100.554 304.513 101.397C303.473 102.221 302.041 102.633 300.217 102.633H287.213ZM291.626 101.574L289.861 99.6322H298.893C299.795 99.6322 300.452 99.4557 300.864 99.1026C301.296 98.73 301.512 98.2102 301.512 97.5433C301.512 96.9549 301.276 96.4743 300.806 96.1017C300.354 95.7094 299.599 95.5132 298.54 95.5132H289.949V92.8065H297.922C298.785 92.8065 299.423 92.6299 299.835 92.2769C300.247 91.9238 300.453 91.4531 300.453 90.8647C300.453 90.2958 300.266 89.8349 299.893 89.4819C299.54 89.1092 298.952 88.9229 298.128 88.9229H289.89L291.626 87.0105V94.2775V101.574Z" fill="white"/>
<path d="M273.677 103.074C271.598 103.074 269.783 102.712 268.234 101.986C266.684 101.241 265.478 100.211 264.615 98.8966C263.752 97.5628 263.32 96.0231 263.32 94.2775C263.32 92.5318 263.752 91.0019 264.615 89.6877C265.478 88.3736 266.684 87.3438 268.234 86.5985C269.783 85.8531 271.598 85.4805 273.677 85.4805C275.736 85.4805 277.541 85.8531 279.09 86.5985C280.64 87.3438 281.846 88.3736 282.709 89.6877C283.592 91.0019 284.033 92.5318 284.033 94.2775C284.033 96.0231 283.592 97.5628 282.709 98.8966C281.846 100.211 280.64 101.241 279.09 101.986C277.541 102.712 275.736 103.074 273.677 103.074ZM273.677 99.5733C274.853 99.5733 275.864 99.3575 276.707 98.926C277.57 98.4945 278.237 97.8865 278.708 97.1019C279.178 96.3173 279.414 95.3758 279.414 94.2775C279.414 93.1791 279.178 92.2376 278.708 91.453C278.237 90.6684 277.57 90.0604 276.707 89.6289C275.864 89.1974 274.853 88.9816 273.677 88.9816C272.5 88.9816 271.48 89.1974 270.617 89.6289C269.754 90.0604 269.087 90.6684 268.616 91.453C268.145 92.2376 267.91 93.1791 267.91 94.2775C267.91 95.3758 268.145 96.3173 268.616 97.1019C269.087 97.8865 269.754 98.4945 270.617 98.926C271.48 99.3575 272.5 99.5733 273.677 99.5733Z" fill="white"/>
<path d="M235.564 102.633V85.9219H242.361L248.745 100.338H247.186L253.541 85.9219H260.337V102.633H256.071V87.54H257.042L250.099 102.633H245.774L238.83 87.5989L239.831 87.54V102.633H235.564Z" fill="white"/>
<path d="M221.913 103.074C219.834 103.074 218.02 102.712 216.47 101.986C214.92 101.241 213.714 100.211 212.851 98.8966C211.988 97.5628 211.557 96.0231 211.557 94.2775C211.557 92.5318 211.988 91.0019 212.851 89.6877C213.714 88.3736 214.92 87.3438 216.47 86.5985C218.02 85.8531 219.834 85.4805 221.913 85.4805C223.972 85.4805 225.777 85.8531 227.326 86.5985C228.876 87.3438 230.082 88.3736 230.945 89.6877C231.828 91.0019 232.269 92.5318 232.269 94.2775C232.269 96.0231 231.828 97.5628 230.945 98.8966C230.082 100.211 228.876 101.241 227.326 101.986C225.777 102.712 223.972 103.074 221.913 103.074ZM221.913 99.5733C223.09 99.5733 224.1 99.3575 224.943 98.926C225.806 98.4945 226.473 97.8865 226.944 97.1019C227.415 96.3173 227.65 95.3758 227.65 94.2775C227.65 93.1791 227.415 92.2376 226.944 91.453C226.473 90.6684 225.806 90.0604 224.943 89.6289C224.1 89.1974 223.09 88.9816 221.913 88.9816C220.736 88.9816 219.716 89.1974 218.853 89.6289C217.99 90.0604 217.323 90.6684 216.852 91.453C216.382 92.2376 216.146 93.1791 216.146 94.2775C216.146 95.3758 216.382 96.3173 216.852 97.1019C217.323 97.8865 217.99 98.4945 218.853 98.926C219.716 99.3575 220.736 99.5733 221.913 99.5733Z" fill="white"/>
<path d="M180.055 107.134V98.5723H183.938L186.115 98.6311H202.18L203.298 98.5723H209.064V107.134H204.769V102.632H184.35V107.134H180.055ZM184.821 80.5664H205.21V101.073H200.591V82.5082L202.68 84.6266H187.292L189.234 83.1261C189.352 84.146 189.43 85.1463 189.47 86.127C189.509 87.1078 189.528 88.0394 189.528 88.9221C189.528 91.3346 189.342 93.3843 188.969 95.0711C188.597 96.758 188.047 98.0427 187.322 98.9253C186.616 99.808 185.733 100.249 184.674 100.249L182.732 98.6311C183.595 97.67 184.223 96.3166 184.615 94.571C185.027 92.8253 185.233 90.6383 185.233 88.01C185.233 86.8528 185.194 85.6465 185.115 84.3912C185.037 83.1359 184.939 81.8609 184.821 80.5664Z" fill="white"/>
<circle cx="125.945" cy="93.8006" r="37.9451" fill="white"/>
<path d="M121.565 71.3164H130.325V80.0766H121.565V99.2856H130.325L130.325 80.0766L139.086 80.0766V97.5969C143.924 97.5969 147.846 101.519 147.846 106.357L147.846 115.117H139.086L139.086 106.357H130.325V106.322H121.565V106.357H112.805L112.805 115.117H104.045C104.045 110.467 107.668 106.663 112.245 106.375H104.045C104.045 101.537 107.967 97.6145 112.805 97.6145V80.0766C112.805 75.2385 116.727 71.3164 121.565 71.3164Z" fill="#0094FA"/>
<path d="M61.5337 528.607L62.1541 527.183C64.2708 527.232 66.0104 527.56 67.3728 528.169C68.7596 528.753 69.7936 529.58 70.4748 530.65C71.1561 531.696 71.4967 532.913 71.4967 534.3C71.4967 535.784 71.1561 537.11 70.4748 538.278C69.7936 539.421 68.7718 540.333 67.4093 541.015C66.0712 541.672 64.3924 542 62.3731 542H42.1552V527.95V514.629H61.6432C64.1735 514.629 66.1442 515.225 67.5553 516.417C68.9664 517.585 69.672 519.215 69.672 521.308C69.672 522.451 69.4043 523.546 68.8691 524.592C68.3338 525.638 67.4701 526.526 66.278 527.256C65.1102 527.962 63.5287 528.412 61.5337 528.607ZM49.6365 540.248L46.717 536.708H60.3294C61.4242 536.708 62.2758 536.441 62.884 535.905C63.4922 535.37 63.7964 534.628 63.7964 533.679C63.7964 532.73 63.4679 531.976 62.811 531.417C62.1541 530.833 61.1809 530.541 59.8915 530.541H46.717V525.359H58.8696C59.7455 525.359 60.4754 525.103 61.0593 524.592C61.6675 524.057 61.9716 523.339 61.9716 522.439C61.9716 521.709 61.7162 521.113 61.2053 520.651C60.6943 520.164 59.9644 519.921 59.0156 519.921H46.7535L49.6365 516.381V527.95V540.248ZM75.7962 542V521.162H83.1681V537.949L81.5623 537.438L92.4741 521.162H102.036V542H94.7003V524.738L96.3061 525.286L85.1023 542H75.7962ZM118.167 542.584C115.759 542.584 113.642 542.28 111.817 541.672C110.017 541.039 108.606 540.151 107.584 539.007C106.562 537.84 106.015 536.465 105.942 534.884H113.131C113.277 535.759 113.776 536.429 114.627 536.891C115.503 537.353 116.683 537.584 118.167 537.584C119.603 537.584 120.71 537.402 121.488 537.037C122.267 536.672 122.656 536.124 122.656 535.395C122.656 534.738 122.316 534.263 121.634 533.971C120.953 533.679 119.87 533.533 118.386 533.533H114.7V529.519H118.277C119.591 529.519 120.564 529.349 121.196 529.008C121.829 528.667 122.145 528.205 122.145 527.621C122.145 526.964 121.792 526.466 121.087 526.125C120.381 525.76 119.408 525.578 118.167 525.578C116.805 525.578 115.71 525.796 114.883 526.234C114.08 526.648 113.618 527.268 113.496 528.096H106.343C106.416 526.709 106.927 525.444 107.876 524.3C108.849 523.157 110.224 522.244 112 521.563C113.776 520.882 115.929 520.541 118.459 520.541C120.698 520.541 122.656 520.809 124.335 521.344C126.014 521.855 127.315 522.573 128.24 523.497C129.189 524.398 129.663 525.432 129.663 526.599C129.663 527.5 129.371 528.351 128.787 529.154C128.228 529.933 127.303 530.553 126.014 531.015C124.724 531.477 122.997 531.709 120.831 531.709V531.088C123.848 530.967 126.16 531.307 127.765 532.11C129.371 532.913 130.174 534.178 130.174 535.905C130.174 537.171 129.7 538.314 128.751 539.336C127.826 540.333 126.464 541.124 124.663 541.708C122.887 542.292 120.722 542.584 118.167 542.584ZM140.372 548.605C138.84 548.605 137.477 548.411 136.285 548.022C135.093 547.657 133.937 547.085 132.818 546.306V541.124C133.962 541.854 135.032 542.377 136.03 542.693C137.027 543.01 138.122 543.168 139.314 543.168C140.312 543.168 141.2 542.949 141.978 542.511C142.757 542.073 143.389 541.27 143.876 540.102L151.868 521.162H159.788L149.788 542.401C149.083 543.934 148.219 545.151 147.197 546.051C146.199 546.975 145.117 547.632 143.949 548.022C142.781 548.411 141.589 548.605 140.372 548.605ZM140.628 540.066L131.76 521.162H139.971L147.817 540.066H140.628ZM178.294 530.431C178.294 529.069 177.758 528.023 176.688 527.293C175.617 526.563 173.902 526.198 171.542 526.198C170.082 526.198 168.598 526.368 167.09 526.709C165.606 527.025 164.207 527.512 162.893 528.169V522.767C164.572 521.989 166.263 521.429 167.966 521.089C169.669 520.724 171.457 520.541 173.33 520.541C175.861 520.541 178.014 520.918 179.79 521.673C181.59 522.402 183.001 523.473 184.023 524.884C185.045 526.271 185.556 527.974 185.556 529.993V542H178.33L178.294 530.431ZM170.119 528.826C173.306 528.728 175.727 528.971 177.381 529.555C179.06 530.139 179.985 530.577 180.155 530.869C180.325 531.161 180.41 532.767 180.41 535.686C180.41 536.27 180.167 536.964 179.68 537.767C179.194 538.57 178.5 539.336 177.6 540.066C176.7 540.796 175.617 541.404 174.352 541.891C173.087 542.353 171.676 542.584 170.119 542.584C168.416 542.584 166.883 542.316 165.521 541.781C164.182 541.221 163.124 540.431 162.346 539.409C161.567 538.363 161.178 537.134 161.178 535.723C161.178 534.312 161.567 533.095 162.346 532.074C163.148 531.052 164.219 530.273 165.557 529.738C166.92 529.178 168.44 528.874 170.119 528.826ZM173.622 532.84C171.408 532.84 169.888 533.071 169.061 533.533C168.233 533.996 167.82 534.592 167.82 535.322C167.82 536.051 168.221 536.647 169.024 537.11C169.851 537.572 170.995 537.803 172.455 537.803C174.158 537.803 175.557 537.377 176.651 536.526C177.746 535.65 178.294 534.628 178.294 533.46C177.418 533.047 175.861 532.84 173.622 532.84ZM194.055 521.162H216.681V542H209.2V523.278L212.631 526.709H197.777L200.916 523.826C201.062 525.261 201.171 526.563 201.244 527.731C201.317 528.898 201.354 529.945 201.354 530.869C201.354 534.957 200.721 537.913 199.456 539.737C198.215 541.538 196.196 542.438 193.398 542.438C192.571 542.438 191.792 542.353 191.062 542.182C190.333 542.012 189.615 541.732 188.909 541.343V536.051C189.347 536.222 189.773 536.356 190.187 536.453C190.624 536.526 191.014 536.562 191.354 536.562C192.547 536.562 193.386 536.039 193.872 534.993C194.359 533.947 194.602 532.232 194.602 529.847C194.602 528.704 194.554 527.414 194.456 525.979C194.383 524.519 194.25 522.913 194.055 521.162ZM221.867 542V521.162H229.238V537.949L227.633 537.438L238.545 521.162H248.106V542H240.771V524.738L242.376 525.286L231.173 542H221.867ZM264.238 542.584C261.829 542.584 259.712 542.28 257.888 541.672C256.087 541.039 254.676 540.151 253.654 539.007C252.632 537.84 252.085 536.465 252.012 534.884H259.201C259.347 535.759 259.846 536.429 260.698 536.891C261.574 537.353 262.754 537.584 264.238 537.584C265.673 537.584 266.78 537.402 267.559 537.037C268.337 536.672 268.727 536.124 268.727 535.395C268.727 534.738 268.386 534.263 267.705 533.971C267.023 533.679 265.941 533.533 264.457 533.533H260.771V529.519H264.347C265.661 529.519 266.634 529.349 267.267 529.008C267.899 528.667 268.216 528.205 268.216 527.621C268.216 526.964 267.863 526.466 267.157 526.125C266.452 525.76 265.479 525.578 264.238 525.578C262.875 525.578 261.78 525.796 260.953 526.234C260.15 526.648 259.688 527.268 259.566 528.096H252.414C252.487 526.709 252.997 525.444 253.946 524.3C254.919 523.157 256.294 522.244 258.07 521.563C259.846 520.882 261.999 520.541 264.53 520.541C266.768 520.541 268.727 520.809 270.405 521.344C272.084 521.855 273.386 522.573 274.31 523.497C275.259 524.398 275.733 525.432 275.733 526.599C275.733 527.5 275.442 528.351 274.858 529.154C274.298 529.933 273.373 530.553 272.084 531.015C270.795 531.477 269.067 531.709 266.902 531.709V531.088C269.919 530.967 272.23 531.307 273.836 532.11C275.442 532.913 276.244 534.178 276.244 535.905C276.244 537.171 275.77 538.314 274.821 539.336C273.897 540.333 272.534 541.124 270.734 541.708C268.958 542.292 266.792 542.584 264.238 542.584ZM280.544 542V521.162H287.916V537.949L286.31 537.438L297.222 521.162H306.784V542H299.448V524.738L301.054 525.286L289.85 542H280.544ZM312.004 521.162H319.485V527.147L319.156 528.023V533.862L319.485 535.577V548.022H312.004V521.162ZM317.113 531.599C317.429 529.336 318.086 527.39 319.083 525.76C320.105 524.106 321.395 522.828 322.952 521.928C324.509 521.004 326.273 520.541 328.244 520.541C330.287 520.541 332.075 521.004 333.608 521.928C335.165 522.853 336.37 524.142 337.221 525.796C338.097 527.451 338.535 529.385 338.535 531.599C338.535 533.764 338.097 535.686 337.221 537.365C336.37 539.02 335.165 540.309 333.608 541.234C332.075 542.134 330.287 542.584 328.244 542.584C326.273 542.584 324.509 542.134 322.952 541.234C321.395 540.309 320.117 539.02 319.12 537.365C318.122 535.711 317.453 533.789 317.113 531.599ZM331.017 531.599C331.017 530.553 330.798 529.628 330.36 528.826C329.947 528.023 329.351 527.39 328.572 526.928C327.818 526.466 326.954 526.234 325.981 526.234C324.983 526.234 324.035 526.466 323.134 526.928C322.234 527.39 321.443 528.023 320.762 528.826C320.081 529.628 319.558 530.553 319.193 531.599C319.558 532.621 320.081 533.533 320.762 534.336C321.443 535.139 322.234 535.772 323.134 536.234C324.035 536.672 324.983 536.891 325.981 536.891C326.954 536.891 327.818 536.672 328.572 536.234C329.351 535.772 329.947 535.139 330.36 534.336C330.798 533.533 331.017 532.621 331.017 531.599ZM348.542 548.605C347.009 548.605 345.647 548.411 344.454 548.022C343.262 547.657 342.107 547.085 340.988 546.306V541.124C342.131 541.854 343.201 542.377 344.199 542.693C345.197 543.01 346.291 543.168 347.484 543.168C348.481 543.168 349.369 542.949 350.148 542.511C350.926 542.073 351.559 541.27 352.045 540.102L360.038 521.162H367.957L357.957 542.401C357.252 543.934 356.388 545.151 355.366 546.051C354.369 546.975 353.286 547.632 352.118 548.022C350.95 548.411 349.758 548.605 348.542 548.605ZM348.797 540.066L339.929 521.162H348.14L355.987 540.066H348.797ZM371.144 542V521.162H378.516V537.949L376.911 537.438L387.822 521.162H397.384V542H390.049V524.738L391.654 525.286L380.451 542H371.144ZM384.063 519.41C381.509 519.41 379.465 518.802 377.932 517.585C376.4 516.344 375.451 514.568 375.086 512.257H380.779C380.974 513.206 381.351 513.936 381.91 514.447C382.47 514.958 383.188 515.213 384.063 515.213C384.939 515.213 385.657 514.958 386.217 514.447C386.776 513.936 387.141 513.206 387.311 512.257H393.041C392.676 514.568 391.715 516.344 390.158 517.585C388.625 518.802 386.594 519.41 384.063 519.41ZM74.476 567.162V588H66.9946V569.315L70.4251 572.709H53.9296L57.3601 569.315V588H49.8787V567.162H74.476ZM79.663 567.162H87.1444V573.147L86.8159 574.023V579.862L87.1444 581.577V594.022H79.663V567.162ZM84.7722 577.599C85.0885 575.336 85.7454 573.39 86.7429 571.76C87.7648 570.106 89.0542 568.828 90.6113 567.928C92.1684 567.004 93.9323 566.541 95.903 566.541C97.9467 566.541 99.7349 567.004 101.268 567.928C102.825 568.853 104.029 570.142 104.881 571.796C105.757 573.451 106.194 575.385 106.194 577.599C106.194 579.764 105.757 581.686 104.881 583.365C104.029 585.02 102.825 586.309 101.268 587.234C99.7349 588.134 97.9467 588.584 95.903 588.584C93.9323 588.584 92.1684 588.134 90.6113 587.234C89.0542 586.309 87.7769 585.02 86.7794 583.365C85.7819 581.711 85.1128 579.789 84.7722 577.599ZM98.6766 577.599C98.6766 576.553 98.4576 575.628 98.0197 574.826C97.6061 574.023 97.01 573.39 96.2315 572.928C95.4773 572.466 94.6136 572.234 93.6404 572.234C92.6429 572.234 91.694 572.466 90.7938 572.928C89.8936 573.39 89.1029 574.023 88.4217 574.826C87.7404 575.628 87.2174 576.553 86.8524 577.599C87.2174 578.621 87.7404 579.533 88.4217 580.336C89.1029 581.139 89.8936 581.772 90.7938 582.234C91.694 582.672 92.6429 582.891 93.6404 582.891C94.6136 582.891 95.4773 582.672 96.2315 582.234C97.01 581.772 97.6061 581.139 98.0197 580.336C98.4576 579.533 98.6766 578.621 98.6766 577.599ZM122.925 588.584C120.248 588.584 117.913 588.134 115.918 587.234C113.923 586.309 112.366 585.02 111.246 583.365C110.127 581.686 109.568 579.764 109.568 577.599C109.568 575.385 110.127 573.451 111.246 571.796C112.366 570.142 113.923 568.853 115.918 567.928C117.913 567.004 120.248 566.541 122.925 566.541C125.577 566.541 127.9 567.004 129.895 567.928C131.914 568.853 133.484 570.142 134.603 571.796C135.722 573.451 136.282 575.385 136.282 577.599C136.282 579.764 135.722 581.686 134.603 583.365C133.484 585.02 131.914 586.309 129.895 587.234C127.9 588.134 125.577 588.584 122.925 588.584ZM122.925 583.073C124.141 583.073 125.175 582.854 126.027 582.416C126.902 581.978 127.572 581.346 128.034 580.519C128.496 579.691 128.727 578.718 128.727 577.599C128.727 576.431 128.496 575.446 128.034 574.643C127.572 573.816 126.902 573.183 126.027 572.745C125.175 572.307 124.141 572.088 122.925 572.088C121.708 572.088 120.662 572.307 119.786 572.745C118.91 573.183 118.241 573.816 117.779 574.643C117.317 575.446 117.085 576.419 117.085 577.563C117.085 578.706 117.317 579.691 117.779 580.519C118.241 581.346 118.91 581.978 119.786 582.416C120.662 582.854 121.708 583.073 122.925 583.073ZM165.367 579.205C165.173 581.078 164.491 582.72 163.324 584.132C162.156 585.543 160.635 586.638 158.762 587.416C156.913 588.195 154.833 588.584 152.521 588.584C149.967 588.584 147.716 588.122 145.77 587.197C143.823 586.273 142.303 584.983 141.208 583.329C140.113 581.674 139.566 579.764 139.566 577.599C139.566 575.409 140.113 573.487 141.208 571.833C142.303 570.179 143.823 568.889 145.77 567.965C147.716 567.016 149.967 566.541 152.521 566.541C154.833 566.541 156.913 566.943 158.762 567.746C160.635 568.524 162.156 569.619 163.324 571.03C164.491 572.417 165.173 574.059 165.367 575.957H157.959C157.691 574.716 157.071 573.767 156.098 573.11C155.125 572.429 153.932 572.088 152.521 572.088C151.426 572.088 150.465 572.307 149.638 572.745C148.835 573.159 148.203 573.779 147.741 574.607C147.303 575.409 147.084 576.407 147.084 577.599C147.084 578.767 147.303 579.764 147.741 580.592C148.203 581.395 148.835 582.015 149.638 582.453C150.465 582.866 151.426 583.073 152.521 583.073C153.932 583.073 155.125 582.72 156.098 582.015C157.095 581.309 157.716 580.373 157.959 579.205H165.367ZM175.153 569.716H182.634V588H175.153V569.716ZM167.234 567.162H190.554V572.782H167.234V567.162ZM194.203 567.162H201.684V573.147L201.356 574.023V579.862L201.684 581.577V594.022H194.203V567.162ZM199.312 577.599C199.628 575.336 200.285 573.39 201.283 571.76C202.305 570.106 203.594 568.828 205.151 567.928C206.708 567.004 208.472 566.541 210.443 566.541C212.486 566.541 214.275 567.004 215.807 567.928C217.365 568.853 218.569 570.142 219.42 571.796C220.296 573.451 220.734 575.385 220.734 577.599C220.734 579.764 220.296 581.686 219.42 583.365C218.569 585.02 217.365 586.309 215.807 587.234C214.275 588.134 212.486 588.584 210.443 588.584C208.472 588.584 206.708 588.134 205.151 587.234C203.594 586.309 202.317 585.02 201.319 583.365C200.322 581.711 199.653 579.789 199.312 577.599ZM213.216 577.599C213.216 576.553 212.997 575.628 212.559 574.826C212.146 574.023 211.55 573.39 210.771 572.928C210.017 572.466 209.153 572.234 208.18 572.234C207.183 572.234 206.234 572.466 205.334 572.928C204.433 573.39 203.643 574.023 202.961 574.826C202.28 575.628 201.757 576.553 201.392 577.599C201.757 578.621 202.28 579.533 202.961 580.336C203.643 581.139 204.433 581.772 205.334 582.234C206.234 582.672 207.183 582.891 208.18 582.891C209.153 582.891 210.017 582.672 210.771 582.234C211.55 581.772 212.146 581.139 212.559 580.336C212.997 579.533 213.216 578.621 213.216 577.599ZM240.874 576.431C240.874 575.069 240.338 574.023 239.268 573.293C238.197 572.563 236.482 572.198 234.122 572.198C232.662 572.198 231.178 572.368 229.67 572.709C228.186 573.025 226.787 573.512 225.473 574.169V568.767C227.152 567.989 228.843 567.429 230.546 567.089C232.249 566.724 234.037 566.541 235.91 566.541C238.441 566.541 240.594 566.918 242.37 567.673C244.17 568.402 245.582 569.473 246.603 570.884C247.625 572.271 248.136 573.974 248.136 575.993V588H240.91L240.874 576.431ZM232.699 574.826C235.886 574.728 238.307 574.971 239.961 575.555C241.64 576.139 242.565 576.577 242.735 576.869C242.905 577.161 242.99 578.767 242.99 581.686C242.99 582.27 242.747 582.964 242.261 583.767C241.774 584.57 241.081 585.336 240.18 586.066C239.28 586.796 238.197 587.404 236.932 587.891C235.667 588.353 234.256 588.584 232.699 588.584C230.996 588.584 229.463 588.316 228.101 587.781C226.763 587.221 225.704 586.431 224.926 585.409C224.147 584.363 223.758 583.134 223.758 581.723C223.758 580.312 224.147 579.095 224.926 578.074C225.729 577.052 226.799 576.273 228.137 575.738C229.5 575.178 231.02 574.874 232.699 574.826ZM236.202 578.84C233.988 578.84 232.468 579.071 231.641 579.533C230.813 579.996 230.4 580.592 230.4 581.322C230.4 582.051 230.801 582.647 231.604 583.11C232.431 583.572 233.575 583.803 235.035 583.803C236.738 583.803 238.137 583.377 239.231 582.526C240.326 581.65 240.874 580.628 240.874 579.46C239.998 579.047 238.441 578.84 236.202 578.84ZM253.059 567.162H260.503V588H253.059V567.162ZM270.357 567.162H277.802V588H270.357V567.162ZM257.365 574.57H273.167V580.117H257.365V574.57ZM307.838 579.205C307.643 581.078 306.962 582.72 305.794 584.132C304.627 585.543 303.106 586.638 301.233 587.416C299.384 588.195 297.303 588.584 294.992 588.584C292.437 588.584 290.187 588.122 288.241 587.197C286.294 586.273 284.774 584.983 283.679 583.329C282.584 581.674 282.037 579.764 282.037 577.599C282.037 575.409 282.584 573.487 283.679 571.833C284.774 570.179 286.294 568.889 288.241 567.965C290.187 567.016 292.437 566.541 294.992 566.541C297.303 566.541 299.384 566.943 301.233 567.746C303.106 568.524 304.627 569.619 305.794 571.03C306.962 572.417 307.643 574.059 307.838 575.957H300.43C300.162 574.716 299.542 573.767 298.569 573.11C297.595 572.429 296.403 572.088 294.992 572.088C293.897 572.088 292.936 572.307 292.109 572.745C291.306 573.159 290.674 573.779 290.211 574.607C289.773 575.409 289.554 576.407 289.554 577.599C289.554 578.767 289.773 579.764 290.211 580.592C290.674 581.395 291.306 582.015 292.109 582.453C292.936 582.866 293.897 583.073 294.992 583.073C296.403 583.073 297.595 582.72 298.569 582.015C299.566 581.309 300.186 580.373 300.43 579.205H307.838ZM317.624 569.716H325.105V588H317.624V569.716ZM309.704 567.162H333.024V572.782H309.704V567.162ZM336.163 588V577.563V567.162H353.133C355.152 567.162 356.758 567.636 357.95 568.585C359.142 569.509 359.738 570.775 359.738 572.38C359.738 573.889 359.13 575.117 357.913 576.066C356.721 576.991 355.067 577.563 352.95 577.782L353.425 576.577C355.882 576.675 357.755 577.198 359.045 578.147C360.358 579.095 361.015 580.409 361.015 582.088C361.015 583.888 360.346 585.324 359.008 586.394C357.67 587.465 355.87 588 353.607 588H336.163ZM343.352 586.431L340.469 583.365H351.125C351.928 583.365 352.524 583.195 352.914 582.854C353.327 582.489 353.534 581.991 353.534 581.358C353.534 580.774 353.315 580.3 352.877 579.935C352.463 579.545 351.794 579.351 350.87 579.351H340.724V575.482H349.994C350.748 575.482 351.32 575.312 351.709 574.971C352.099 574.631 352.293 574.181 352.293 573.621C352.293 573.062 352.111 572.612 351.746 572.271C351.405 571.93 350.87 571.76 350.14 571.76H340.505L343.352 568.731V577.563V586.431ZM377.619 588.584C374.942 588.584 372.607 588.134 370.612 587.234C368.617 586.309 367.06 585.02 365.94 583.365C364.821 581.686 364.262 579.764 364.262 577.599C364.262 575.385 364.821 573.451 365.94 571.796C367.06 570.142 368.617 568.853 370.612 567.928C372.607 567.004 374.942 566.541 377.619 566.541C380.271 566.541 382.594 567.004 384.589 567.928C386.608 568.853 388.178 570.142 389.297 571.796C390.416 573.451 390.976 575.385 390.976 577.599C390.976 579.764 390.416 581.686 389.297 583.365C388.178 585.02 386.608 586.309 384.589 587.234C382.594 588.134 380.271 588.584 377.619 588.584ZM377.619 583.073C378.835 583.073 379.869 582.854 380.721 582.416C381.597 581.978 382.266 581.346 382.728 580.519C383.19 579.691 383.421 578.718 383.421 577.599C383.421 576.431 383.19 575.446 382.728 574.643C382.266 573.816 381.597 573.183 380.721 572.745C379.869 572.307 378.835 572.088 377.619 572.088C376.402 572.088 375.356 572.307 374.48 572.745C373.604 573.183 372.935 573.816 372.473 574.643C372.011 575.446 371.78 576.419 371.78 577.563C371.78 578.706 372.011 579.691 372.473 580.519C372.935 581.346 373.604 581.978 374.48 582.416C375.356 582.854 376.402 583.073 377.619 583.073ZM144.461 634V613.162H155.664L162.124 629.949H160.044L166.394 613.162H177.598V634H170.627V615.972H171.831L164.46 634H157.635L150.263 616.045L151.468 615.972V634H144.461ZM195.06 634.584C192.529 634.584 190.267 634.122 188.272 633.197C186.301 632.273 184.744 630.983 183.6 629.329C182.457 627.65 181.885 625.704 181.885 623.49C181.885 621.324 182.432 619.427 183.527 617.796C184.622 616.142 186.118 614.853 188.016 613.928C189.938 613.004 192.103 612.541 194.512 612.541C197.018 612.541 199.147 613.089 200.899 614.184C202.675 615.254 204.037 616.775 204.986 618.745C205.959 620.716 206.446 623.04 206.446 625.716H187.907V621.227H202.249L199.804 622.796C199.707 621.726 199.439 620.826 199.001 620.096C198.563 619.341 197.979 618.77 197.249 618.38C196.544 617.991 195.692 617.796 194.695 617.796C193.6 617.796 192.663 618.015 191.885 618.453C191.106 618.891 190.498 619.5 190.06 620.278C189.622 621.032 189.403 621.92 189.403 622.942C189.403 624.256 189.695 625.375 190.279 626.3C190.887 627.2 191.763 627.893 192.906 628.38C194.074 628.866 195.497 629.11 197.176 629.11C198.709 629.11 200.23 628.915 201.738 628.526C203.271 628.112 204.658 627.54 205.898 626.811V631.555C204.463 632.528 202.821 633.282 200.972 633.818C199.147 634.328 197.176 634.584 195.06 634.584ZM218.728 628.343C215.784 628.343 213.533 627.528 211.976 625.898C210.419 624.268 209.64 621.908 209.64 618.818V613.162H217.085V618.49C217.085 621.263 218.387 622.65 220.99 622.65C222.158 622.65 223.265 622.334 224.311 621.701C225.357 621.044 226.258 620.096 227.012 618.855L227.377 623.636C226.769 625.095 225.686 626.251 224.129 627.103C222.596 627.93 220.796 628.343 218.728 628.343ZM226.209 634V613.162H233.69V634H226.209ZM245.261 615.716H252.742V634H245.261V615.716ZM237.341 613.162H260.661V618.782H237.341V613.162ZM289.054 613.162H296.535V634H289.054V613.162ZM264.311 634V613.162H271.755V632.175L269.456 628.781H276.828C277.753 628.781 278.47 628.562 278.981 628.124C279.492 627.662 279.748 627.03 279.748 626.227C279.748 625.399 279.492 624.767 278.981 624.329C278.47 623.867 277.753 623.636 276.828 623.636H269.42V618.599H278.069C279.918 618.599 281.524 618.928 282.886 619.585C284.249 620.217 285.307 621.117 286.061 622.285C286.84 623.429 287.229 624.767 287.229 626.3C287.229 627.857 286.852 629.219 286.098 630.387C285.344 631.531 284.285 632.419 282.923 633.051C281.56 633.684 279.979 634 278.178 634H264.311Z" fill="white"/>
</g>
<defs>
<filter id="filter0_f_175_91" x="-135.293" y="-312.293" width="1104.59" height="1104.59" filterUnits="userSpaceOnUse" color-interpolation-filters="sRGB">
<feFlood flood-opacity="0" result="BackgroundImageFix"/>
<feBlend mode="normal" in="SourceGraphic" in2="BackgroundImageFix" result="shape"/>
<feGaussianBlur stdDeviation="128.146" result="effect1_foregroundBlur_175_91"/>
</filter>
<filter id="filter1_f_175_91" x="-378.876" y="356.311" width="968.378" height="968.378" filterUnits="userSpaceOnUse" color-interpolation-filters="sRGB">
<feFlood flood-opacity="0" result="BackgroundImageFix"/>
<feBlend mode="normal" in="SourceGraphic" in2="BackgroundImageFix" result="shape"/>
<feGaussianBlur stdDeviation="112.344" result="effect1_foregroundBlur_175_91"/>
</filter>
<clipPath id="clip0_175_91">
<rect width="440" height="956" fill="white"/>
</clipPath>
</defs>
</svg>
