<svg width="51" height="51" viewBox="0 0 51 51" fill="none" xmlns="http://www.w3.org/2000/svg">
<circle cx="25.1875" cy="25.0938" r="25" fill="white"/>
<path d="M25.2656 11C26.5853 11.0002 27.8519 11.5249 28.7852 12.458L28.9561 12.6367C29.7827 13.5498 30.2432 14.741 30.2432 15.9785V19.7422H31.1377C33.858 19.7422 36.0634 21.9477 36.0635 24.668V31.6504C36.0634 34.3706 33.8579 36.5762 31.1377 36.5762H19.3867C16.6667 36.576 14.4611 34.3705 14.4609 31.6504V24.668C14.461 21.9478 16.6666 19.7424 19.3867 19.7422H20.2881V15.9785C20.2881 14.6584 20.8126 13.3915 21.7461 12.458L21.9248 12.2891C22.8378 11.4623 24.0281 11.0002 25.2656 11ZM25.2637 24.8125C24.1477 24.8129 23.2425 25.718 23.2422 26.834C23.2422 27.6327 23.7074 28.321 24.3799 28.6494V29.9385C24.3796 30.1725 24.4727 30.3975 24.6377 30.5635C24.803 30.7295 25.0284 30.8234 25.2627 30.8242C25.497 30.8241 25.7219 30.731 25.8877 30.5654C26.0536 30.3995 26.1475 30.1741 26.1475 29.9395V28.6504C26.8207 28.3223 27.2852 27.6333 27.2852 26.834C27.2848 25.7177 26.38 24.8125 25.2637 24.8125ZM25.2656 12.5664C24.4743 12.5666 23.7104 12.8418 23.1035 13.3389L22.8535 13.5654C22.2138 14.2052 21.8545 15.0738 21.8545 15.9785V19.7422H28.6777V15.9785C28.6777 15.1869 28.4016 14.4225 27.9043 13.8154L27.6777 13.5654C27.0382 12.9261 26.1699 12.5666 25.2656 12.5664Z" fill="#010101"/>
</svg>
