<svg width="408" height="56" viewBox="0 0 408 56" fill="none" xmlns="http://www.w3.org/2000/svg">
<rect width="408" height="56" rx="28" fill="white"/>
<path d="M119.249 35.7383V18.7703H125.705C126.521 18.7703 127.265 18.8423 127.937 18.9863C128.625 19.1143 129.217 19.3463 129.713 19.6823C130.209 20.0023 130.585 20.4423 130.841 21.0023C131.113 21.5463 131.249 22.2343 131.249 23.0663C131.249 23.8823 131.065 24.6183 130.697 25.2743C130.329 25.9143 129.769 26.3943 129.017 26.7143C130.025 26.9383 130.785 27.4103 131.297 28.1303C131.825 28.8343 132.089 29.7463 132.089 30.8663C132.089 31.8103 131.913 32.6023 131.561 33.2423C131.209 33.8663 130.721 34.3623 130.097 34.7303C129.473 35.0983 128.753 35.3623 127.937 35.5223C127.137 35.6663 126.281 35.7383 125.369 35.7383H119.249ZM121.793 33.4103H125.417C125.897 33.4103 126.377 33.3863 126.857 33.3383C127.337 33.2743 127.777 33.1543 128.177 32.9783C128.593 32.8023 128.921 32.5383 129.161 32.1863C129.417 31.8343 129.545 31.3623 129.545 30.7703C129.545 30.2743 129.449 29.8663 129.257 29.5463C129.065 29.2103 128.809 28.9463 128.489 28.7543C128.169 28.5623 127.793 28.4263 127.361 28.3463C126.945 28.2663 126.513 28.2263 126.065 28.2263H121.793V33.4103ZM121.793 26.0423H125.009C125.553 26.0423 126.049 25.9943 126.497 25.8983C126.961 25.8023 127.361 25.6423 127.697 25.4183C128.033 25.1943 128.289 24.9143 128.465 24.5783C128.657 24.2423 128.753 23.8263 128.753 23.3303C128.753 22.6743 128.609 22.1943 128.321 21.8903C128.033 21.5703 127.641 21.3543 127.145 21.2423C126.665 21.1303 126.129 21.0743 125.537 21.0743H121.793V26.0423ZM134.684 35.7383V23.0903H137.204V27.6503H139.34C140.092 27.6503 140.772 27.7143 141.38 27.8423C141.988 27.9703 142.508 28.1863 142.94 28.4903C143.388 28.7783 143.732 29.1783 143.972 29.6903C144.212 30.1863 144.332 30.8183 144.332 31.5863C144.332 32.3223 144.196 32.9623 143.924 33.5063C143.668 34.0343 143.308 34.4663 142.844 34.8023C142.38 35.1223 141.836 35.3623 141.212 35.5223C140.604 35.6663 139.948 35.7383 139.244 35.7383H134.684ZM137.204 33.5783H137.972C138.484 33.5783 138.964 33.5623 139.412 33.5303C139.876 33.4983 140.284 33.4263 140.636 33.3143C141.004 33.2023 141.292 33.0183 141.5 32.7623C141.724 32.4903 141.836 32.1223 141.836 31.6583C141.836 31.2263 141.748 30.8903 141.572 30.6503C141.412 30.3943 141.188 30.2023 140.9 30.0743C140.628 29.9463 140.324 29.8663 139.988 29.8343C139.652 29.8023 139.316 29.7863 138.98 29.7863H137.204V33.5783ZM146.012 35.7383V23.0903H148.484V35.7383H146.012ZM157.104 35.8823C156.272 35.8823 155.528 35.7623 154.872 35.5223C154.216 35.2823 153.656 34.9463 153.192 34.5143C152.728 34.0663 152.344 33.5463 152.04 32.9543C151.736 32.3463 151.504 31.6903 151.344 30.9863C151.2 30.2663 151.128 29.5063 151.128 28.7063C151.128 27.4903 151.168 26.3623 151.248 25.3223C151.328 24.2823 151.52 23.3543 151.824 22.5383C152.128 21.7223 152.608 21.0423 153.264 20.4983C153.92 19.9543 154.816 19.5543 155.952 19.2983C156.592 19.1543 157.232 19.0343 157.872 18.9383C158.528 18.8423 159.2 18.7543 159.888 18.6743C160.272 18.6103 160.608 18.5623 160.896 18.5303C161.184 18.4823 161.448 18.4423 161.688 18.4103C161.944 18.3623 162.176 18.3223 162.384 18.2903V20.6663C162.224 20.7303 162.04 20.7783 161.832 20.8103C161.64 20.8423 161.44 20.8743 161.232 20.9063C161.024 20.9383 160.816 20.9623 160.608 20.9783C160.4 20.9943 160.192 21.0183 159.984 21.0503C159.776 21.0663 159.576 21.0903 159.384 21.1223C158.776 21.1703 158.144 21.2263 157.488 21.2903C156.848 21.3543 156.24 21.4903 155.664 21.6983C155.104 21.8903 154.64 22.2583 154.272 22.8023C154.096 23.0583 153.944 23.3623 153.816 23.7143C153.688 24.0663 153.592 24.4343 153.528 24.8183C153.48 25.2023 153.448 25.5703 153.432 25.9223C153.768 25.4423 154.168 25.0583 154.632 24.7703C155.112 24.4823 155.616 24.2743 156.144 24.1463C156.672 24.0183 157.176 23.9543 157.656 23.9543C158.808 23.9543 159.784 24.2023 160.584 24.6983C161.384 25.1783 161.992 25.8583 162.408 26.7383C162.824 27.6023 163.032 28.6023 163.032 29.7383C163.032 30.9223 162.792 31.9783 162.312 32.9063C161.848 33.8343 161.168 34.5623 160.272 35.0903C159.392 35.6183 158.336 35.8823 157.104 35.8823ZM157.128 33.6983C157.88 33.6983 158.504 33.5223 159 33.1703C159.512 32.8183 159.896 32.3463 160.152 31.7543C160.424 31.1623 160.56 30.5223 160.56 29.8343C160.56 29.1623 160.424 28.5543 160.152 28.0103C159.896 27.4503 159.52 27.0103 159.024 26.6903C158.528 26.3703 157.912 26.2103 157.176 26.2103C156.456 26.2103 155.832 26.3783 155.304 26.7143C154.792 27.0503 154.4 27.4983 154.128 28.0583C153.856 28.6183 153.72 29.2263 153.72 29.8823C153.72 30.5383 153.848 31.1623 154.104 31.7543C154.36 32.3463 154.736 32.8183 155.232 33.1703C155.728 33.5223 156.36 33.6983 157.128 33.6983ZM165.575 40.3463V23.0903H167.927L168.047 24.9143C168.495 24.2423 169.087 23.7463 169.823 23.4263C170.559 23.0903 171.343 22.9223 172.175 22.9223C173.423 22.9223 174.455 23.2103 175.271 23.7863C176.087 24.3623 176.695 25.1383 177.095 26.1143C177.495 27.0903 177.695 28.1943 177.695 29.4263C177.695 30.6583 177.487 31.7623 177.071 32.7383C176.671 33.7143 176.047 34.4823 175.199 35.0423C174.367 35.6023 173.303 35.8823 172.007 35.8823C171.383 35.8823 170.823 35.8183 170.327 35.6903C169.831 35.5623 169.399 35.3783 169.031 35.1383C168.663 34.8823 168.335 34.6103 168.047 34.3223V40.3463H165.575ZM171.719 33.6743C172.583 33.6743 173.271 33.4823 173.783 33.0983C174.295 32.6983 174.663 32.1783 174.887 31.5383C175.111 30.8983 175.223 30.2023 175.223 29.4503C175.223 28.6663 175.103 27.9543 174.863 27.3143C174.639 26.6583 174.263 26.1383 173.735 25.7543C173.223 25.3543 172.535 25.1543 171.671 25.1543C170.887 25.1543 170.223 25.3543 169.679 25.7543C169.135 26.1383 168.719 26.6583 168.431 27.3143C168.159 27.9703 168.023 28.6823 168.023 29.4503C168.023 30.2343 168.151 30.9543 168.407 31.6103C168.679 32.2503 169.087 32.7543 169.631 33.1223C170.191 33.4903 170.887 33.6743 171.719 33.6743ZM184.137 35.8823C183.577 35.8823 183.033 35.8103 182.505 35.6663C181.977 35.5063 181.505 35.2743 181.089 34.9703C180.673 34.6503 180.337 34.2583 180.081 33.7943C179.841 33.3143 179.721 32.7543 179.721 32.1143C179.721 31.3463 179.865 30.7143 180.153 30.2183C180.457 29.7063 180.857 29.3143 181.353 29.0423C181.849 28.7543 182.417 28.5543 183.057 28.4423C183.713 28.3143 184.393 28.2503 185.097 28.2503H188.193C188.193 27.6263 188.097 27.0823 187.905 26.6183C187.713 26.1383 187.409 25.7703 186.993 25.5143C186.593 25.2423 186.057 25.1063 185.385 25.1063C184.985 25.1063 184.601 25.1543 184.233 25.2503C183.881 25.3303 183.577 25.4663 183.321 25.6583C183.065 25.8503 182.889 26.1063 182.793 26.4263H180.201C180.297 25.8183 180.513 25.2983 180.849 24.8663C181.185 24.4183 181.601 24.0503 182.097 23.7623C182.593 23.4743 183.121 23.2663 183.681 23.1383C184.257 22.9943 184.841 22.9223 185.433 22.9223C186.649 22.9223 187.633 23.1623 188.385 23.6423C189.153 24.1223 189.713 24.8103 190.065 25.7063C190.417 26.6023 190.593 27.6663 190.593 28.8983V35.7383H188.457L188.361 34.1783C187.993 34.6423 187.569 35.0023 187.089 35.2583C186.625 35.4983 186.137 35.6583 185.625 35.7383C185.113 35.8343 184.617 35.8823 184.137 35.8823ZM184.569 33.7943C185.305 33.7943 185.945 33.6743 186.489 33.4343C187.033 33.1783 187.449 32.8183 187.737 32.3543C188.041 31.8743 188.193 31.3063 188.193 30.6503V30.1463H185.937C185.473 30.1463 185.017 30.1623 184.569 30.1943C184.121 30.2103 183.713 30.2743 183.345 30.3863C182.993 30.4823 182.713 30.6503 182.505 30.8903C182.297 31.1303 182.193 31.4743 182.193 31.9223C182.193 32.3543 182.305 32.7063 182.529 32.9783C182.753 33.2503 183.049 33.4583 183.417 33.6023C183.785 33.7303 184.169 33.7943 184.569 33.7943ZM196.535 35.7383V25.2983H192.263V23.0903H203.279V25.2983H199.007V35.7383H196.535ZM204.996 35.7383V23.0903H207.516V27.6503H210.228C210.98 27.6503 211.652 27.7143 212.244 27.8423C212.852 27.9703 213.372 28.1863 213.804 28.4903C214.252 28.7783 214.596 29.1783 214.836 29.6903C215.076 30.1863 215.196 30.8183 215.196 31.5863C215.196 32.3063 215.068 32.9303 214.812 33.4583C214.556 33.9863 214.196 34.4183 213.732 34.7543C213.284 35.0903 212.748 35.3383 212.124 35.4983C211.516 35.6583 210.852 35.7383 210.132 35.7383H204.996ZM207.516 33.5783H208.884C209.38 33.5783 209.852 33.5623 210.3 33.5303C210.748 33.4983 211.156 33.4263 211.524 33.3143C211.892 33.1863 212.18 32.9943 212.388 32.7383C212.612 32.4663 212.724 32.1063 212.724 31.6583C212.724 31.2103 212.636 30.8663 212.46 30.6263C212.284 30.3863 212.052 30.2023 211.764 30.0743C211.492 29.9463 211.188 29.8663 210.852 29.8343C210.532 29.8023 210.196 29.7863 209.844 29.7863H207.516V33.5783ZM224.262 35.7383V23.0903H233.118V25.2983H226.734V35.7383H224.262ZM240.519 35.8823C239.207 35.8823 238.095 35.6183 237.183 35.0903C236.271 34.5463 235.575 33.7863 235.095 32.8103C234.631 31.8343 234.399 30.7063 234.399 29.4263C234.399 28.1303 234.631 27.0023 235.095 26.0423C235.575 25.0663 236.271 24.3063 237.183 23.7623C238.095 23.2023 239.215 22.9223 240.543 22.9223C241.855 22.9223 242.967 23.2023 243.879 23.7623C244.791 24.3063 245.479 25.0663 245.943 26.0423C246.407 27.0183 246.639 28.1543 246.639 29.4503C246.639 30.7143 246.399 31.8343 245.919 32.8103C245.455 33.7863 244.767 34.5463 243.855 35.0903C242.959 35.6183 241.847 35.8823 240.519 35.8823ZM240.519 33.6743C241.383 33.6743 242.079 33.4823 242.607 33.0983C243.151 32.7143 243.551 32.2023 243.807 31.5623C244.063 30.9223 244.191 30.2183 244.191 29.4503C244.191 28.6823 244.063 27.9783 243.807 27.3383C243.551 26.6823 243.151 26.1623 242.607 25.7783C242.079 25.3783 241.383 25.1783 240.519 25.1783C239.671 25.1783 238.975 25.3783 238.431 25.7783C237.887 26.1623 237.487 26.6743 237.231 27.3143C236.991 27.9543 236.871 28.6663 236.871 29.4503C236.871 30.2183 236.991 30.9223 237.231 31.5623C237.487 32.2023 237.887 32.7143 238.431 33.0983C238.975 33.4823 239.671 33.6743 240.519 33.6743ZM249.176 40.3463V23.0903H251.528L251.648 24.9143C252.096 24.2423 252.688 23.7463 253.424 23.4263C254.16 23.0903 254.944 22.9223 255.776 22.9223C257.024 22.9223 258.056 23.2103 258.872 23.7863C259.688 24.3623 260.296 25.1383 260.696 26.1143C261.096 27.0903 261.296 28.1943 261.296 29.4263C261.296 30.6583 261.088 31.7623 260.672 32.7383C260.272 33.7143 259.648 34.4823 258.8 35.0423C257.968 35.6023 256.904 35.8823 255.608 35.8823C254.984 35.8823 254.424 35.8183 253.928 35.6903C253.432 35.5623 253 35.3783 252.632 35.1383C252.264 34.8823 251.936 34.6103 251.648 34.3223V40.3463H249.176ZM255.32 33.6743C256.184 33.6743 256.872 33.4823 257.384 33.0983C257.896 32.6983 258.264 32.1783 258.488 31.5383C258.712 30.8983 258.824 30.2023 258.824 29.4503C258.824 28.6663 258.704 27.9543 258.464 27.3143C258.24 26.6583 257.864 26.1383 257.336 25.7543C256.824 25.3543 256.136 25.1543 255.272 25.1543C254.488 25.1543 253.824 25.3543 253.28 25.7543C252.736 26.1383 252.32 26.6583 252.032 27.3143C251.76 27.9703 251.624 28.6823 251.624 29.4503C251.624 30.2343 251.752 30.9543 252.008 31.6103C252.28 32.2503 252.688 32.7543 253.232 33.1223C253.792 33.4903 254.488 33.6743 255.32 33.6743ZM269.394 35.8823C268.082 35.8823 266.97 35.6183 266.058 35.0903C265.146 34.5463 264.45 33.7863 263.97 32.8103C263.506 31.8343 263.274 30.7063 263.274 29.4263C263.274 28.1303 263.506 27.0023 263.97 26.0423C264.45 25.0663 265.146 24.3063 266.058 23.7623C266.97 23.2023 268.09 22.9223 269.418 22.9223C270.73 22.9223 271.842 23.2023 272.754 23.7623C273.666 24.3063 274.354 25.0663 274.818 26.0423C275.282 27.0183 275.514 28.1543 275.514 29.4503C275.514 30.7143 275.274 31.8343 274.794 32.8103C274.33 33.7863 273.642 34.5463 272.73 35.0903C271.834 35.6183 270.722 35.8823 269.394 35.8823ZM269.394 33.6743C270.258 33.6743 270.954 33.4823 271.482 33.0983C272.026 32.7143 272.426 32.2023 272.682 31.5623C272.938 30.9223 273.066 30.2183 273.066 29.4503C273.066 28.6823 272.938 27.9783 272.682 27.3383C272.426 26.6823 272.026 26.1623 271.482 25.7783C270.954 25.3783 270.258 25.1783 269.394 25.1783C268.546 25.1783 267.85 25.3783 267.306 25.7783C266.762 26.1623 266.362 26.6743 266.106 27.3143C265.866 27.9543 265.746 28.6663 265.746 29.4503C265.746 30.2183 265.866 30.9223 266.106 31.5623C266.362 32.2023 266.762 32.7143 267.306 33.0983C267.85 33.4823 268.546 33.6743 269.394 33.6743ZM276.714 39.5063V33.5543C277.162 33.5543 277.522 33.4343 277.794 33.1943C278.066 32.9543 278.282 32.6423 278.442 32.2583C278.602 31.8743 278.722 31.4503 278.802 30.9863C278.898 30.5063 278.978 30.0423 279.042 29.5943C279.122 28.8743 279.17 28.1463 279.186 27.4103C279.218 26.6583 279.234 26.0343 279.234 25.5383C279.25 25.1383 279.258 24.7383 279.258 24.3383C279.258 23.9223 279.258 23.5063 279.258 23.0903H288.642V33.5543H290.274V39.5063H287.85V35.7383H279.138V39.5063H276.714ZM280.41 33.5543H286.146V25.2983H281.538C281.538 25.9223 281.53 26.6103 281.514 27.3623C281.498 28.1143 281.466 28.8263 281.418 29.4983C281.386 29.8823 281.346 30.3143 281.298 30.7943C281.25 31.2743 281.162 31.7543 281.034 32.2343C280.906 32.7143 280.698 33.1543 280.41 33.5543Z" fill="black"/>
</svg>
