<svg width="1012" height="290" viewBox="0 0 1012 290" fill="none" xmlns="http://www.w3.org/2000/svg">
<path d="M1011.26 165.37V194.337H996.217V178.506H935.252V194.337H920.207V165.37H937.497L941.651 165.595H988.021L991.726 165.37H1011.26ZM934.017 114.734H999.585V174.24H982.183V119.787L990.154 127.758H942.886L949.96 121.695C950.559 124.914 950.933 128.02 951.082 131.014C951.232 133.933 951.307 136.628 951.307 139.098C951.307 149.801 949.735 158.185 946.592 164.247C943.448 170.31 939.032 173.342 933.343 173.342L926.27 167.391C932.333 163.05 935.364 152.496 935.364 135.73C935.364 132.436 935.252 129.031 935.027 125.513C934.803 121.995 934.466 118.402 934.017 114.734Z" fill="white"/>
<path d="M878.721 180.19C871.236 180.19 864.537 178.768 858.624 175.924C852.786 173.08 848.182 169.15 844.814 164.135C841.446 159.045 839.762 153.17 839.762 146.508C839.762 139.846 841.334 134.046 844.477 129.106C847.696 124.091 852.112 120.161 857.726 117.317C863.339 114.472 869.776 113.05 877.037 113.05C884.297 113.05 890.547 114.697 895.787 117.99C901.101 121.209 905.18 125.737 908.025 131.576C910.944 137.414 912.403 144.3 912.403 152.234H853.571V140.221H903.309L895.899 144.599C895.674 140.707 894.739 137.414 893.092 134.719C891.445 131.95 889.275 129.817 886.58 128.32C883.886 126.823 880.667 126.074 876.925 126.074C872.958 126.074 869.514 126.897 866.595 128.544C863.676 130.116 861.393 132.324 859.747 135.168C858.1 138.013 857.277 141.381 857.277 145.273C857.277 149.764 858.287 153.656 860.308 156.95C862.404 160.168 865.323 162.638 869.065 164.36C872.883 166.081 877.449 166.942 882.763 166.942C887.628 166.942 892.531 166.231 897.471 164.809C902.411 163.312 906.827 161.291 910.719 158.746V170.647C906.602 173.641 901.737 175.999 896.124 177.72C890.585 179.367 884.784 180.19 878.721 180.19Z" fill="white"/>
<path d="M760.209 178.506V146.62V114.734H808.375C814.512 114.734 819.34 116.194 822.858 119.113C826.451 121.957 828.247 125.85 828.247 130.79C828.247 135.43 826.451 139.173 822.858 142.017C819.34 144.861 814.4 146.583 808.038 147.182L809.273 144.15C816.683 144.3 822.334 145.834 826.226 148.754C830.193 151.598 832.177 155.602 832.177 160.767C832.177 166.231 830.193 170.572 826.226 173.791C822.259 176.934 816.795 178.506 809.834 178.506H760.209ZM777.05 174.464L770.314 167.054H804.782C808.225 167.054 810.732 166.381 812.304 165.033C813.951 163.611 814.774 161.628 814.774 159.083C814.774 156.837 813.876 155.003 812.08 153.581C810.358 152.084 807.477 151.336 803.435 151.336H770.651V141.007H801.077C804.37 141.007 806.803 140.333 808.375 138.986C809.947 137.638 810.733 135.842 810.733 133.596C810.733 131.426 810.021 129.667 808.599 128.32C807.252 126.897 805.006 126.186 801.863 126.186H770.426L777.05 118.889V146.62V174.464Z" fill="white"/>
<path d="M708.558 180.19C700.624 180.19 693.7 178.806 687.787 176.036C681.874 173.192 677.271 169.262 673.977 164.247C670.684 159.158 669.037 153.282 669.037 146.62C669.037 139.959 670.684 134.12 673.977 129.106C677.271 124.091 681.874 120.161 687.787 117.317C693.7 114.472 700.624 113.05 708.558 113.05C716.417 113.05 723.303 114.472 729.216 117.317C735.129 120.161 739.733 124.091 743.026 129.106C746.394 134.12 748.078 139.959 748.078 146.62C748.078 153.282 746.394 159.158 743.026 164.247C739.733 169.262 735.129 173.192 729.216 176.036C723.303 178.806 716.417 180.19 708.558 180.19ZM708.558 166.83C713.049 166.83 716.903 166.006 720.122 164.36C723.415 162.713 725.96 160.393 727.757 157.399C729.553 154.405 730.451 150.812 730.451 146.62C730.451 142.429 729.553 138.836 727.757 135.842C725.96 132.848 723.415 130.528 720.122 128.881C716.903 127.234 713.049 126.411 708.558 126.411C704.067 126.411 700.175 127.234 696.881 128.881C693.588 130.528 691.043 132.848 689.246 135.842C687.45 138.836 686.552 142.429 686.552 146.62C686.552 150.812 687.45 154.405 689.246 157.399C691.043 160.393 693.588 162.713 696.881 164.36C700.175 166.006 704.067 166.83 708.558 166.83Z" fill="white"/>
<path d="M563.117 178.506V114.734H589.053L613.416 169.749H607.466L631.717 114.734H657.652V178.506H641.372V120.909H645.078L618.581 178.506H602.076L575.58 121.134L579.397 120.909V178.506H563.117Z" fill="white"/>
<path d="M511.021 180.19C503.087 180.19 496.163 178.806 490.25 176.036C484.337 173.192 479.733 169.262 476.44 164.247C473.147 159.158 471.5 153.282 471.5 146.62C471.5 139.959 473.147 134.12 476.44 129.106C479.733 124.091 484.337 120.161 490.25 117.317C496.163 114.472 503.087 113.05 511.021 113.05C518.88 113.05 525.766 114.472 531.679 117.317C537.592 120.161 542.195 124.091 545.489 129.106C548.857 134.12 550.541 139.959 550.541 146.62C550.541 153.282 548.857 159.158 545.489 164.247C542.195 169.262 537.592 173.192 531.679 176.036C525.766 178.806 518.88 180.19 511.021 180.19ZM511.021 166.83C515.512 166.83 519.366 166.006 522.585 164.36C525.878 162.713 528.423 160.393 530.22 157.399C532.016 154.405 532.914 150.812 532.914 146.62C532.914 142.429 532.016 138.836 530.22 135.842C528.423 132.848 525.878 130.528 522.585 128.881C519.366 127.234 515.512 126.411 511.021 126.411C506.53 126.411 502.637 127.234 499.344 128.881C496.051 130.528 493.506 132.848 491.709 135.842C489.913 138.836 489.015 142.429 489.015 146.62C489.015 150.812 489.913 154.405 491.709 157.399C493.506 160.393 496.051 162.713 499.344 164.36C502.637 166.006 506.53 166.83 511.021 166.83Z" fill="white"/>
<path d="M351.287 195.684V163.012H366.107L374.416 163.237H435.717L439.984 163.012H461.99V195.684H445.598V178.506H367.679V195.684H351.287ZM369.476 94.3003H447.282V172.556H429.655V101.71L437.626 109.794H378.907L386.317 104.068C386.766 107.96 387.065 111.778 387.215 115.52C387.365 119.263 387.439 122.818 387.439 126.186C387.439 135.393 386.728 143.215 385.306 149.652C383.884 156.089 381.788 160.991 379.019 164.36C376.324 167.728 372.956 169.412 368.914 169.412L361.504 163.237C364.797 159.569 367.193 154.405 368.69 147.743C370.261 141.081 371.047 132.736 371.047 122.706C371.047 118.29 370.898 113.686 370.598 108.896C370.299 104.106 369.925 99.2404 369.476 94.3003Z" fill="white"/>
<circle cx="144.802" cy="144.802" r="144.802" fill="white"/>
<path d="M97.5781 122.156L129.156 122.156L129.156 90.5781L97.5781 90.5781L97.5781 122.156Z" fill="#0093F7"/>
<path d="M160.736 90.5781H192.314V122.156H160.736V90.5781Z" fill="#0093F7"/>
<path d="M160.736 153.734H192.314V185.313H160.736V153.734Z" fill="#0093F7"/>
<path d="M160.736 122.156H192.314V153.734H160.736V122.156Z" fill="#0093F7"/>
<path d="M97.5781 153.734H129.156V185.313H97.5781V153.734Z" fill="#0093F7"/>
<path d="M97.5781 122.156H129.156V153.734H97.5781V122.156Z" fill="#0093F7"/>
<path d="M129.094 159.822H160.799V185.186H129.094V159.822Z" fill="#0093F7"/>
<path d="M97.5781 90.5781C97.5781 73.138 111.716 59 129.156 59V90.5781H97.5781Z" fill="#0093F7"/>
<path d="M129.156 59H160.734V90.5781H129.156V59Z" fill="#0093F7"/>
<path d="M160.48 59C177.921 59 192.059 73.138 192.059 90.5781H160.48V59Z" fill="#0093F7"/>
<path d="M97.5781 153.734C80.138 153.734 66 167.872 66 185.313L97.5781 185.313L97.5781 153.734Z" fill="#0093F7"/>
<path d="M97.5781 185.313C80.138 185.313 66 199.451 66 216.891L97.5781 216.891L97.5781 185.313Z" fill="#0093F7"/>
<path d="M223.891 185.313C223.891 167.873 209.753 153.735 192.312 153.735L192.312 185.313L223.891 185.313Z" fill="#0093F7"/>
<path d="M192.312 185.313L192.313 216.891L223.891 216.891L223.891 185.313L192.312 185.313Z" fill="#0093F7"/>
</svg>
