<svg width="408" height="56" viewBox="0 0 408 56" fill="none" xmlns="http://www.w3.org/2000/svg">
<rect width="408" height="56" rx="28" fill="white"/>
<path d="M155.863 35.9303C154.119 35.9303 152.639 35.5623 151.423 34.8263C150.223 34.0743 149.311 33.0423 148.687 31.7303C148.063 30.4183 147.751 28.9303 147.751 27.2663C147.751 25.5863 148.063 24.0903 148.687 22.7783C149.311 21.4663 150.231 20.4423 151.447 19.7063C152.663 18.9543 154.143 18.5783 155.887 18.5783C157.647 18.5783 159.127 18.9463 160.327 19.6823C161.527 20.4183 162.439 21.4423 163.063 22.7543C163.687 24.0663 163.999 25.5623 163.999 27.2423C163.999 28.9063 163.687 30.3943 163.063 31.7063C162.439 33.0183 161.519 34.0503 160.303 34.8023C159.103 35.5543 157.623 35.9303 155.863 35.9303ZM155.887 33.6023C157.167 33.6023 158.215 33.3063 159.031 32.7143C159.847 32.1223 160.447 31.3463 160.831 30.3863C161.215 29.4263 161.407 28.3863 161.407 27.2663C161.407 26.4183 161.295 25.6103 161.071 24.8423C160.863 24.0743 160.535 23.3943 160.087 22.8023C159.639 22.2103 159.063 21.7463 158.359 21.4103C157.655 21.0743 156.831 20.9063 155.887 20.9063C154.623 20.9063 153.575 21.2023 152.743 21.7943C151.927 22.3863 151.319 23.1623 150.919 24.1223C150.519 25.0823 150.319 26.1303 150.319 27.2663C150.319 28.3863 150.511 29.4263 150.895 30.3863C151.295 31.3463 151.903 32.1223 152.719 32.7143C153.551 33.3063 154.607 33.6023 155.887 33.6023ZM172.385 35.8823C171.553 35.8823 170.809 35.7623 170.153 35.5223C169.497 35.2823 168.937 34.9463 168.473 34.5143C168.009 34.0663 167.625 33.5463 167.321 32.9543C167.017 32.3463 166.785 31.6903 166.625 30.9863C166.481 30.2663 166.409 29.5063 166.409 28.7063C166.409 27.4903 166.449 26.3623 166.529 25.3223C166.609 24.2823 166.801 23.3543 167.105 22.5383C167.409 21.7223 167.889 21.0423 168.545 20.4983C169.201 19.9543 170.097 19.5543 171.233 19.2983C171.873 19.1543 172.513 19.0343 173.153 18.9383C173.809 18.8423 174.481 18.7543 175.169 18.6743C175.553 18.6103 175.889 18.5623 176.177 18.5303C176.465 18.4823 176.729 18.4423 176.969 18.4103C177.225 18.3623 177.457 18.3223 177.665 18.2903V20.6663C177.505 20.7303 177.321 20.7783 177.113 20.8103C176.921 20.8423 176.721 20.8743 176.513 20.9063C176.305 20.9383 176.097 20.9623 175.889 20.9783C175.681 20.9943 175.473 21.0183 175.265 21.0503C175.057 21.0663 174.857 21.0903 174.665 21.1223C174.057 21.1703 173.425 21.2263 172.769 21.2903C172.129 21.3543 171.521 21.4903 170.945 21.6983C170.385 21.8903 169.921 22.2583 169.553 22.8023C169.377 23.0583 169.225 23.3623 169.097 23.7143C168.969 24.0663 168.873 24.4343 168.809 24.8183C168.761 25.2023 168.729 25.5703 168.713 25.9223C169.049 25.4423 169.449 25.0583 169.913 24.7703C170.393 24.4823 170.897 24.2743 171.425 24.1463C171.953 24.0183 172.457 23.9543 172.937 23.9543C174.089 23.9543 175.065 24.2023 175.865 24.6983C176.665 25.1783 177.273 25.8583 177.689 26.7383C178.105 27.6023 178.313 28.6023 178.313 29.7383C178.313 30.9223 178.073 31.9783 177.593 32.9063C177.129 33.8343 176.449 34.5623 175.553 35.0903C174.673 35.6183 173.617 35.8823 172.385 35.8823ZM172.409 33.6983C173.161 33.6983 173.785 33.5223 174.281 33.1703C174.793 32.8183 175.177 32.3463 175.433 31.7543C175.705 31.1623 175.841 30.5223 175.841 29.8343C175.841 29.1623 175.705 28.5543 175.433 28.0103C175.177 27.4503 174.801 27.0103 174.305 26.6903C173.809 26.3703 173.193 26.2103 172.457 26.2103C171.737 26.2103 171.113 26.3783 170.585 26.7143C170.073 27.0503 169.681 27.4983 169.409 28.0583C169.137 28.6183 169.001 29.2263 169.001 29.8823C169.001 30.5383 169.129 31.1623 169.385 31.7543C169.641 32.3463 170.017 32.8183 170.513 33.1703C171.009 33.5223 171.641 33.6983 172.409 33.6983ZM181.336 41.2823V38.8343C182.072 38.8343 182.664 38.7463 183.112 38.5703C183.576 38.3943 183.96 38.1063 184.264 37.7063C184.568 37.3223 184.864 36.8183 185.152 36.1943L179.68 23.0903H182.584L186.544 33.3383L189.736 23.0903H192.496L189.016 33.3623C188.84 33.9063 188.632 34.4983 188.392 35.1383C188.168 35.7783 187.912 36.4183 187.624 37.0583C187.352 37.6983 187.04 38.2903 186.688 38.8343C186.336 39.3783 185.944 39.8183 185.512 40.1543C185.16 40.4423 184.808 40.6663 184.456 40.8263C184.104 41.0023 183.688 41.1223 183.208 41.1863C182.728 41.2503 182.104 41.2823 181.336 41.2823ZM201.512 35.7383V31.0823C200.904 31.1783 200.344 31.2423 199.832 31.2743C199.336 31.3063 198.888 31.3223 198.488 31.3223C197.288 31.3223 196.328 31.1383 195.608 30.7703C194.904 30.3863 194.4 29.8103 194.096 29.0423C193.792 28.2743 193.64 27.3143 193.64 26.1623V23.0903H196.112V26.0183C196.112 26.6743 196.176 27.2343 196.304 27.6983C196.432 28.1463 196.688 28.4983 197.072 28.7543C197.456 28.9943 198.04 29.1143 198.824 29.1143C199.24 29.1143 199.688 29.0903 200.168 29.0423C200.648 28.9943 201.096 28.9303 201.512 28.8503V23.0903H204.008V35.7383H201.512ZM212.603 35.8823C211.275 35.8823 210.163 35.6103 209.267 35.0663C208.371 34.5223 207.691 33.7703 207.227 32.8103C206.779 31.8343 206.555 30.7143 206.555 29.4503C206.555 28.1703 206.787 27.0423 207.251 26.0663C207.731 25.0903 208.419 24.3223 209.315 23.7623C210.227 23.2023 211.323 22.9223 212.603 22.9223C213.547 22.9223 214.371 23.0983 215.075 23.4503C215.795 23.7863 216.395 24.2583 216.875 24.8663C217.371 25.4583 217.731 26.1303 217.955 26.8823C218.179 27.6343 218.283 28.4263 218.267 29.2583C218.251 29.4343 218.235 29.6023 218.219 29.7623C218.219 29.9223 218.211 30.0903 218.195 30.2663H209.051C209.099 30.9063 209.259 31.4903 209.531 32.0183C209.819 32.5463 210.219 32.9703 210.731 33.2903C211.243 33.5943 211.875 33.7463 212.627 33.7463C213.043 33.7463 213.443 33.6983 213.827 33.6023C214.227 33.4903 214.579 33.3223 214.883 33.0983C215.203 32.8583 215.427 32.5543 215.555 32.1863H218.051C217.843 33.0343 217.467 33.7383 216.923 34.2983C216.395 34.8423 215.747 35.2423 214.979 35.4983C214.227 35.7543 213.435 35.8823 212.603 35.8823ZM209.099 28.2983H215.819C215.803 27.6743 215.659 27.1223 215.387 26.6423C215.115 26.1463 214.739 25.7623 214.259 25.4903C213.779 25.2023 213.203 25.0583 212.531 25.0583C211.795 25.0583 211.179 25.2103 210.683 25.5143C210.203 25.8183 209.827 26.2183 209.555 26.7143C209.299 27.1943 209.147 27.7223 209.099 28.2983ZM220.817 35.7383V23.0903H223.289V28.4183H229.121V23.0903H231.593V35.7383H229.121V30.6023H223.289V35.7383H220.817ZM234.621 35.7383V23.0903H237.093V32.0423C237.205 31.8503 237.349 31.6423 237.525 31.4183C237.701 31.1783 237.837 30.9863 237.933 30.8423L243.717 23.0903H246.021V35.7383H243.549V26.8343C243.421 27.0423 243.285 27.2503 243.141 27.4583C242.997 27.6503 242.861 27.8263 242.733 27.9863L236.949 35.7383H234.621ZM254.603 35.8823C253.275 35.8823 252.163 35.6103 251.267 35.0663C250.371 34.5223 249.691 33.7703 249.227 32.8103C248.779 31.8343 248.555 30.7143 248.555 29.4503C248.555 28.1703 248.787 27.0423 249.251 26.0663C249.731 25.0903 250.419 24.3223 251.315 23.7623C252.227 23.2023 253.323 22.9223 254.603 22.9223C255.547 22.9223 256.371 23.0983 257.075 23.4503C257.795 23.7863 258.395 24.2583 258.875 24.8663C259.371 25.4583 259.731 26.1303 259.955 26.8823C260.179 27.6343 260.283 28.4263 260.267 29.2583C260.251 29.4343 260.235 29.6023 260.219 29.7623C260.219 29.9223 260.211 30.0903 260.195 30.2663H251.051C251.099 30.9063 251.259 31.4903 251.531 32.0183C251.819 32.5463 252.219 32.9703 252.731 33.2903C253.243 33.5943 253.875 33.7463 254.627 33.7463C255.043 33.7463 255.443 33.6983 255.827 33.6023C256.227 33.4903 256.579 33.3223 256.883 33.0983C257.203 32.8583 257.427 32.5543 257.555 32.1863H260.051C259.843 33.0343 259.467 33.7383 258.923 34.2983C258.395 34.8423 257.747 35.2423 256.979 35.4983C256.227 35.7543 255.435 35.8823 254.603 35.8823ZM251.099 28.2983H257.819C257.803 27.6743 257.659 27.1223 257.387 26.6423C257.115 26.1463 256.739 25.7623 256.259 25.4903C255.779 25.2023 255.203 25.0583 254.531 25.0583C253.795 25.0583 253.179 25.2103 252.683 25.5143C252.203 25.8183 251.827 26.2183 251.555 26.7143C251.299 27.1943 251.147 27.7223 251.099 28.2983Z" fill="black"/>
</svg>
