<svg width="45" height="45" viewBox="0 0 45 45" fill="none" xmlns="http://www.w3.org/2000/svg">
<path d="M22.5 0C34.9264 5.15406e-06 45 10.0736 45 22.5C45 34.9264 34.9264 45 22.5 45C10.0736 45 5.15439e-06 34.9264 0 22.5C0 10.0736 10.0736 0 22.5 0ZM22.501 32.3535C21.5855 32.3535 20.8429 33.0953 20.8428 34.0107C20.8428 34.9264 21.5853 35.6689 22.501 35.6689C23.4164 35.6687 24.1582 34.9262 24.1582 34.0107C24.158 33.0954 23.4163 32.3538 22.501 32.3535ZM22.8047 9.83789C21.7512 9.797 20.7001 9.96988 19.7148 10.3447C18.7295 10.7196 17.8302 11.2896 17.0703 12.0205C16.3104 12.7514 15.705 13.6276 15.292 14.5977C14.879 15.5677 14.6661 16.6117 14.666 17.666H17.082C17.0821 16.9369 17.229 16.2148 17.5146 15.5439C17.8003 14.873 18.2185 14.2663 18.7441 13.7607C19.2697 13.2553 19.8926 12.8619 20.5742 12.6025C21.2542 12.3439 21.9792 12.2234 22.7061 12.251V12.252C24.0681 12.3106 25.3592 12.8778 26.3232 13.8418C27.2268 14.7455 27.7823 15.9366 27.8965 17.2041L27.9131 17.459C27.9495 18.4176 27.7308 19.3693 27.2793 20.2158C26.8277 21.0623 26.1592 21.7738 25.3428 22.2773L25.1133 22.4229C23.9788 23.1662 23.0384 24.1719 22.3721 25.3564C21.6614 26.6199 21.2861 28.0446 21.2832 29.4941L22.4912 29.4961L23.6992 29.499C23.7013 28.4627 23.9695 27.4442 24.4775 26.541C24.9856 25.6378 25.7169 24.8798 26.6016 24.3398L26.6055 24.3369C27.7886 23.6085 28.7572 22.5783 29.4111 21.3525C30.0242 20.2032 30.3404 18.92 30.333 17.6201L30.3271 17.3604L30.3262 17.3555L30.3018 16.9873C30.1369 15.1576 29.3357 13.4384 28.0312 12.1338C26.7267 10.8292 25.0075 10.0272 23.1777 9.8623L22.8096 9.83789H22.8047Z" fill="black" fill-opacity="0.9"/>
</svg>
