<svg width="356" height="123" viewBox="0 0 356 123" fill="none" xmlns="http://www.w3.org/2000/svg">
<path d="M19.5328 16.6073L20.1532 15.184C22.2699 15.2327 24.0095 15.5611 25.3719 16.1694C26.7587 16.7533 27.7927 17.5805 28.474 18.651C29.1552 19.6972 29.4958 20.9137 29.4958 22.3004C29.4958 23.7846 29.1552 25.1105 28.474 26.2783C27.7927 27.4218 26.7709 28.3342 25.4084 29.0154C24.0703 29.6723 22.3916 30.0008 20.3722 30.0008H0.154297V2.62995H19.6423C22.1726 2.62995 24.1433 3.22603 25.5544 4.41818C26.9655 5.586 27.6711 7.21608 27.6711 9.30843C27.6711 10.4519 27.4035 11.5468 26.8682 12.5929C26.333 13.6391 25.4693 14.5271 24.2771 15.257C23.1093 15.9626 21.5279 16.4127 19.5328 16.6073ZM7.63565 28.249L4.7161 24.7091H18.3285C19.4234 24.7091 20.2749 24.4415 20.8831 23.9062C21.4914 23.371 21.7955 22.6289 21.7955 21.68C21.7955 20.7312 21.467 19.977 20.8101 19.4174C20.1532 18.8335 19.1801 18.5415 17.8906 18.5415H4.7161V13.3593H16.8687C17.7446 13.3593 18.4745 13.1039 19.0584 12.5929C19.6667 12.0577 19.9708 11.34 19.9708 10.4398C19.9708 9.70987 19.7153 9.11379 19.2044 8.65153C18.6935 8.16494 17.9636 7.92164 17.0147 7.92164H4.75259L7.63565 4.38168V28.249Z" fill="white"/>
<path d="M33.7953 30.0008V9.16245H41.1672V25.9499L39.5614 25.439L50.4733 9.16245H60.0348V30.0008H52.6994V12.7389L54.3052 13.2863L43.1014 30.0008H33.7953Z" fill="white"/>
<path d="M76.1665 30.5847C73.7579 30.5847 71.6412 30.2806 69.8165 29.6723C68.0161 29.0398 66.6049 28.1517 65.5831 27.0082C64.5613 25.8404 64.0138 24.4658 63.9409 22.8844H71.1303C71.2762 23.7602 71.775 24.4293 72.6265 24.8916C73.5024 25.3538 74.6824 25.5849 76.1665 25.5849C77.6019 25.5849 78.7089 25.4025 79.4875 25.0375C80.266 24.6726 80.6553 24.1252 80.6553 23.3953C80.6553 22.7384 80.3147 22.264 79.6335 21.972C78.9522 21.68 77.8696 21.5341 76.3855 21.5341H72.6995V17.5197H76.276C77.5898 17.5197 78.563 17.3494 79.1955 17.0088C79.8281 16.6681 80.1444 16.2059 80.1444 15.622C80.1444 14.9651 79.7916 14.4663 79.086 14.1257C78.3805 13.7608 77.4073 13.5783 76.1665 13.5783C74.804 13.5783 73.7092 13.7972 72.882 14.2352C72.0791 14.6488 71.6168 15.2692 71.4952 16.0964H64.3423C64.4153 14.7096 64.9262 13.4445 65.8751 12.301C66.8482 11.1575 68.2229 10.2451 69.9989 9.56389C71.775 8.88266 73.9282 8.54205 76.4584 8.54205C78.6968 8.54205 80.6553 8.80967 82.334 9.34492C84.0128 9.85585 85.3144 10.5736 86.2389 11.4981C87.1878 12.3983 87.6622 13.4323 87.6622 14.6001C87.6622 15.5003 87.3703 16.3519 86.7864 17.1547C86.2268 17.9333 85.3023 18.5537 84.0128 19.0159C82.7233 19.4782 80.9959 19.7093 78.8306 19.7093V19.0889C81.8475 18.9673 84.1588 19.3079 85.7645 20.1108C87.3703 20.9137 88.1731 22.1788 88.1731 23.9062C88.1731 25.1713 87.6987 26.3148 86.7499 27.3367C85.8253 28.3342 84.4629 29.1249 82.6625 29.7088C80.8864 30.2927 78.7211 30.5847 76.1665 30.5847Z" fill="white"/>
<path d="M98.3716 36.6063C96.8389 36.6063 95.4764 36.4116 94.2843 36.0224C93.0921 35.6574 91.9364 35.0857 90.8173 34.3071V29.1249C91.9608 29.8548 93.0313 30.3779 94.0288 30.6942C95.0263 31.0105 96.1211 31.1686 97.3133 31.1686C98.3108 31.1686 99.1988 30.9496 99.9774 30.5117C100.756 30.0738 101.388 29.2709 101.875 28.1031L109.867 9.16245H117.787L107.787 30.4022C107.082 31.935 106.218 33.1515 105.196 34.0517C104.199 34.9762 103.116 35.6331 101.948 36.0224C100.78 36.4116 99.5881 36.6063 98.3716 36.6063ZM98.6271 28.0666L89.7589 9.16245H97.9702L105.816 28.0666H98.6271Z" fill="white"/>
<path d="M136.293 18.432C136.293 17.0696 135.758 16.0234 134.687 15.2935C133.617 14.5636 131.901 14.1987 129.541 14.1987C128.082 14.1987 126.597 14.369 125.089 14.7096C123.605 15.0259 122.206 15.5125 120.892 16.1694V10.7682C122.571 9.98966 124.262 9.43008 125.965 9.08947C127.668 8.72452 129.456 8.54205 131.33 8.54205C133.86 8.54205 136.013 8.91916 137.789 9.67338C139.589 10.4033 141.001 11.4738 142.022 12.8849C143.044 14.2717 143.555 15.9747 143.555 17.9941V30.0008H136.329L136.293 18.432ZM128.118 16.8263C131.305 16.729 133.726 16.9723 135.38 17.5562C137.059 18.1401 137.984 18.578 138.154 18.87C138.324 19.1619 138.409 20.7677 138.409 23.6872C138.409 24.2711 138.166 24.9645 137.68 25.7674C137.193 26.5703 136.5 27.3367 135.599 28.0666C134.699 28.7965 133.617 29.4047 132.351 29.8913C131.086 30.3536 129.675 30.5847 128.118 30.5847C126.415 30.5847 124.882 30.3171 123.52 29.7818C122.182 29.2222 121.123 28.4315 120.345 27.4097C119.566 26.3635 119.177 25.1348 119.177 23.7237C119.177 22.3126 119.566 21.0961 120.345 20.0743C121.148 19.0524 122.218 18.2739 123.556 17.7386C124.919 17.1791 126.439 16.8749 128.118 16.8263ZM131.621 20.8407C129.407 20.8407 127.887 21.0718 127.06 21.5341C126.232 21.9963 125.819 22.5924 125.819 23.3223C125.819 24.0522 126.22 24.6483 127.023 25.1105C127.85 25.5728 128.994 25.8039 130.454 25.8039C132.157 25.8039 133.556 25.3781 134.651 24.5266C135.745 23.6507 136.293 22.6289 136.293 21.4611C135.417 21.0475 133.86 20.8407 131.621 20.8407Z" fill="white"/>
<path d="M152.054 9.16245H174.681V30.0008H167.199V11.2791L170.63 14.7096H155.777L158.915 11.8265C159.061 13.262 159.17 14.5636 159.243 15.7315C159.316 16.8993 159.353 17.9454 159.353 18.87C159.353 22.9573 158.72 25.9134 157.455 27.7381C156.214 29.5385 154.195 30.4387 151.397 30.4387C150.57 30.4387 149.791 30.3536 149.062 30.1832C148.332 30.0129 147.614 29.7331 146.908 29.3439V24.0522C147.346 24.2225 147.772 24.3563 148.186 24.4536C148.624 24.5266 149.013 24.5631 149.353 24.5631C150.546 24.5631 151.385 24.04 151.872 22.9938C152.358 21.9477 152.601 20.2324 152.601 17.8481C152.601 16.7046 152.553 15.4152 152.456 13.9797C152.383 12.5199 152.249 10.9142 152.054 9.16245Z" fill="white"/>
<path d="M179.866 30.0008V9.16245H187.238V25.9499L185.632 25.439L196.544 9.16245H206.105V30.0008H198.77V12.7389L200.376 13.2863L189.172 30.0008H179.866Z" fill="white"/>
<path d="M222.237 30.5847C219.828 30.5847 217.712 30.2806 215.887 29.6723C214.086 29.0398 212.675 28.1517 211.653 27.0082C210.632 25.8404 210.084 24.4658 210.011 22.8844H217.201C217.347 23.7602 217.845 24.4293 218.697 24.8916C219.573 25.3538 220.753 25.5849 222.237 25.5849C223.672 25.5849 224.779 25.4025 225.558 25.0375C226.336 24.6726 226.726 24.1252 226.726 23.3953C226.726 22.7384 226.385 22.264 225.704 21.972C225.023 21.68 223.94 21.5341 222.456 21.5341H218.77V17.5197H222.346C223.66 17.5197 224.633 17.3494 225.266 17.0088C225.898 16.6681 226.215 16.2059 226.215 15.622C226.215 14.9651 225.862 14.4663 225.156 14.1257C224.451 13.7608 223.478 13.5783 222.237 13.5783C220.874 13.5783 219.78 13.7972 218.952 14.2352C218.149 14.6488 217.687 15.2692 217.566 16.0964H210.413C210.486 14.7096 210.997 13.4445 211.945 12.301C212.919 11.1575 214.293 10.2451 216.069 9.56389C217.845 8.88266 219.999 8.54205 222.529 8.54205C224.767 8.54205 226.726 8.80967 228.404 9.34492C230.083 9.85585 231.385 10.5736 232.309 11.4981C233.258 12.3983 233.733 13.4323 233.733 14.6001C233.733 15.5003 233.441 16.3519 232.857 17.1547C232.297 17.9333 231.373 18.5537 230.083 19.0159C228.794 19.4782 227.066 19.7093 224.901 19.7093V19.0889C227.918 18.9673 230.229 19.3079 231.835 20.1108C233.441 20.9137 234.244 22.1788 234.244 23.9062C234.244 25.1713 233.769 26.3148 232.82 27.3367C231.896 28.3342 230.533 29.1249 228.733 29.7088C226.957 30.2927 224.791 30.5847 222.237 30.5847Z" fill="white"/>
<path d="M238.543 30.0008V9.16245H245.915V25.9499L244.309 25.439L255.221 9.16245H264.783V30.0008H257.447V12.7389L259.053 13.2863L247.849 30.0008H238.543Z" fill="white"/>
<path d="M270.003 9.16245H277.484V15.1475L277.156 16.0234V21.8625L277.484 23.5778V36.0224H270.003V9.16245ZM275.112 19.5999C275.428 17.3372 276.085 15.3908 277.083 13.7608C278.104 12.1063 279.394 10.829 280.951 9.92884C282.508 9.00431 284.272 8.54205 286.243 8.54205C288.286 8.54205 290.075 9.00431 291.607 9.92884C293.164 10.8534 294.369 12.1428 295.22 13.7972C296.096 15.4517 296.534 17.3859 296.534 19.5999C296.534 21.7652 296.096 23.6872 295.22 25.366C294.369 27.0204 293.164 28.3099 291.607 29.2344C290.075 30.1346 288.286 30.5847 286.243 30.5847C284.272 30.5847 282.508 30.1346 280.951 29.2344C279.394 28.3099 278.117 27.0204 277.119 25.366C276.122 23.7116 275.452 21.7895 275.112 19.5999ZM289.016 19.5999C289.016 18.5537 288.797 17.6292 288.359 16.8263C287.946 16.0234 287.35 15.3908 286.571 14.9286C285.817 14.4663 284.953 14.2352 283.98 14.2352C282.982 14.2352 282.034 14.4663 281.133 14.9286C280.233 15.3908 279.443 16.0234 278.761 16.8263C278.08 17.6292 277.557 18.5537 277.192 19.5999C277.557 20.6217 278.08 21.5341 278.761 22.3369C279.443 23.1398 280.233 23.7724 281.133 24.2347C282.034 24.6726 282.982 24.8916 283.98 24.8916C284.953 24.8916 285.817 24.6726 286.571 24.2347C287.35 23.7724 287.946 23.1398 288.359 22.3369C288.797 21.5341 289.016 20.6217 289.016 19.5999Z" fill="white"/>
<path d="M306.541 36.6063C305.008 36.6063 303.646 36.4116 302.454 36.0224C301.261 35.6574 300.106 35.0857 298.987 34.3071V29.1249C300.13 29.8548 301.201 30.3779 302.198 30.6942C303.196 31.0105 304.29 31.1686 305.483 31.1686C306.48 31.1686 307.368 30.9496 308.147 30.5117C308.925 30.0738 309.558 29.2709 310.044 28.1031L318.037 9.16245H325.956L315.957 30.4022C315.251 31.935 314.387 33.1515 313.365 34.0517C312.368 34.9762 311.285 35.6331 310.117 36.0224C308.95 36.4116 307.757 36.6063 306.541 36.6063ZM306.796 28.0666L297.928 9.16245H306.14L313.986 28.0666H306.796Z" fill="white"/>
<path d="M329.144 30.0008V9.16245H336.515V25.9499L334.91 25.439L345.822 9.16245H355.383V30.0008H348.048V12.7389L349.653 13.2863L338.45 30.0008H329.144ZM342.063 7.41072C339.508 7.41072 337.464 6.80248 335.932 5.586C334.399 4.34519 333.45 2.56913 333.085 0.257812H338.778C338.973 1.20667 339.35 1.93656 339.909 2.44748C340.469 2.9584 341.187 3.21386 342.063 3.21386C342.938 3.21386 343.656 2.9584 344.216 2.44748C344.775 1.93656 345.14 1.20667 345.311 0.257812H351.04C350.675 2.56913 349.714 4.34519 348.157 5.586C346.624 6.80248 344.593 7.41072 342.063 7.41072Z" fill="white"/>
<path d="M32.4751 55.1625V76.0008H24.9937V57.3156L28.4242 60.7096H11.9287L15.3592 57.3156V76.0008H7.87784V55.1625H32.4751Z" fill="white"/>
<path d="M37.6621 55.1625H45.1435V61.1475L44.8151 62.0234V67.8625L45.1435 69.5778V82.0224H37.6621V55.1625ZM42.7714 65.5999C43.0877 63.3372 43.7445 61.3908 44.7421 59.7607C45.7639 58.1063 47.0534 56.829 48.6105 55.9288C50.1676 55.0043 51.9315 54.542 53.9022 54.542C55.9459 54.542 57.7341 55.0043 59.2668 55.9288C60.8239 56.8534 62.0283 58.1428 62.8798 59.7972C63.7557 61.4517 64.1936 63.3859 64.1936 65.5999C64.1936 67.7652 63.7557 69.6872 62.8798 71.366C62.0283 73.0204 60.8239 74.3099 59.2668 75.2344C57.7341 76.1346 55.9459 76.5847 53.9022 76.5847C51.9315 76.5847 50.1676 76.1346 48.6105 75.2344C47.0534 74.3099 45.7761 73.0204 44.7786 71.366C43.781 69.7116 43.112 67.7895 42.7714 65.5999ZM56.6757 65.5999C56.6757 64.5537 56.4568 63.6292 56.0188 62.8263C55.6052 62.0234 55.0092 61.3908 54.2306 60.9286C53.4764 60.4663 52.6127 60.2352 51.6395 60.2352C50.642 60.2352 49.6931 60.4663 48.7929 60.9286C47.8927 61.3908 47.102 62.0234 46.4208 62.8263C45.7396 63.6292 45.2165 64.5537 44.8515 65.5999C45.2165 66.6217 45.7396 67.5341 46.4208 68.3369C47.102 69.1398 47.8927 69.7724 48.7929 70.2346C49.6931 70.6726 50.642 70.8916 51.6395 70.8916C52.6127 70.8916 53.4764 70.6726 54.2306 70.2346C55.0092 69.7724 55.6052 69.1398 56.0188 68.3369C56.4568 67.5341 56.6757 66.6217 56.6757 65.5999Z" fill="white"/>
<path d="M80.9237 76.5847C78.2475 76.5847 75.9118 76.1346 73.9168 75.2344C71.9218 74.3099 70.3647 73.0204 69.2455 71.366C68.1263 69.6872 67.5668 67.7652 67.5668 65.5999C67.5668 63.3859 68.1263 61.4517 69.2455 59.7972C70.3647 58.1428 71.9218 56.8534 73.9168 55.9288C75.9118 55.0043 78.2475 54.542 80.9237 54.542C83.5756 54.542 85.8991 55.0043 87.8942 55.9288C89.9135 56.8534 91.4828 58.1428 92.6019 59.7972C93.7211 61.4517 94.2807 63.3859 94.2807 65.5999C94.2807 67.7652 93.7211 69.6872 92.6019 71.366C91.4828 73.0204 89.9135 74.3099 87.8942 75.2344C85.8991 76.1346 83.5756 76.5847 80.9237 76.5847ZM80.9237 71.074C82.1402 71.074 83.1742 70.8551 84.0257 70.4171C84.9016 69.9792 85.5707 69.3466 86.0329 68.5194C86.4952 67.6922 86.7263 66.719 86.7263 65.5999C86.7263 64.432 86.4952 63.4467 86.0329 62.6438C85.5707 61.8166 84.9016 61.184 84.0257 60.7461C83.1742 60.3082 82.1402 60.0892 80.9237 60.0892C79.7072 60.0892 78.6611 60.3082 77.7852 60.7461C76.9093 61.184 76.2403 61.8166 75.778 62.6438C75.3157 63.4467 75.0846 64.4199 75.0846 65.5634C75.0846 66.7069 75.3157 67.6922 75.778 68.5194C76.2403 69.3466 76.9093 69.9792 77.7852 70.4171C78.6611 70.8551 79.7072 71.074 80.9237 71.074Z" fill="white"/>
<path d="M123.366 67.2056C123.172 69.079 122.491 70.7212 121.323 72.1324C120.155 73.5435 118.634 74.6383 116.761 75.4169C114.912 76.1954 112.832 76.5847 110.52 76.5847C107.966 76.5847 105.715 76.1224 103.769 75.1979C101.823 74.2734 100.302 72.9839 99.2071 71.3295C98.1123 69.6751 97.5649 67.7652 97.5649 65.5999C97.5649 63.4102 98.1123 61.4882 99.2071 59.8337C100.302 58.1793 101.823 56.8899 103.769 55.9653C105.715 55.0165 107.966 54.542 110.52 54.542C112.832 54.542 114.912 54.9435 116.761 55.7464C118.634 56.5249 120.155 57.6197 121.323 59.0309C122.491 60.4176 123.172 62.0599 123.366 63.9576H115.958C115.69 62.7168 115.07 61.7679 114.097 61.111C113.124 60.4298 111.932 60.0892 110.52 60.0892C109.426 60.0892 108.465 60.3082 107.637 60.7461C106.834 61.1597 106.202 61.7801 105.74 62.6073C105.302 63.4102 105.083 64.4077 105.083 65.5999C105.083 66.7677 105.302 67.7652 105.74 68.5924C106.202 69.3953 106.834 70.0157 107.637 70.4536C108.465 70.8672 109.426 71.074 110.52 71.074C111.932 71.074 113.124 70.7212 114.097 70.0157C115.094 69.3101 115.715 68.3734 115.958 67.2056H123.366Z" fill="white"/>
<path d="M133.152 57.7171H140.633V76.0008H133.152V57.7171ZM125.233 55.1625H148.553V60.7826H125.233V55.1625Z" fill="white"/>
<path d="M152.202 55.1625H159.683V61.1475L159.355 62.0234V67.8625L159.683 69.5778V82.0224H152.202V55.1625ZM157.311 65.5999C157.627 63.3372 158.284 61.3908 159.282 59.7607C160.304 58.1063 161.593 56.829 163.15 55.9288C164.707 55.0043 166.471 54.542 168.442 54.542C170.486 54.542 172.274 55.0043 173.807 55.9288C175.364 56.8534 176.568 58.1428 177.42 59.7972C178.295 61.4517 178.733 63.3859 178.733 65.5999C178.733 67.7652 178.295 69.6872 177.42 71.366C176.568 73.0204 175.364 74.3099 173.807 75.2344C172.274 76.1346 170.486 76.5847 168.442 76.5847C166.471 76.5847 164.707 76.1346 163.15 75.2344C161.593 74.3099 160.316 73.0204 159.318 71.366C158.321 69.7116 157.652 67.7895 157.311 65.5999ZM171.215 65.5999C171.215 64.5537 170.997 63.6292 170.559 62.8263C170.145 62.0234 169.549 61.3908 168.77 60.9286C168.016 60.4663 167.152 60.2352 166.179 60.2352C165.182 60.2352 164.233 60.4663 163.333 60.9286C162.432 61.3908 161.642 62.0234 160.961 62.8263C160.279 63.6292 159.756 64.5537 159.391 65.5999C159.756 66.6217 160.279 67.5341 160.961 68.3369C161.642 69.1398 162.432 69.7724 163.333 70.2346C164.233 70.6726 165.182 70.8916 166.179 70.8916C167.152 70.8916 168.016 70.6726 168.77 70.2346C169.549 69.7724 170.145 69.1398 170.559 68.3369C170.997 67.5341 171.215 66.6217 171.215 65.5999Z" fill="white"/>
<path d="M198.873 64.432C198.873 63.0696 198.338 62.0234 197.267 61.2935C196.197 60.5636 194.481 60.1987 192.121 60.1987C190.662 60.1987 189.178 60.369 187.669 60.7096C186.185 61.0259 184.786 61.5125 183.472 62.1694V56.7682C185.151 55.9897 186.842 55.4301 188.545 55.0895C190.248 54.7245 192.036 54.542 193.91 54.542C196.44 54.542 198.593 54.9192 200.369 55.6734C202.17 56.4033 203.581 57.4738 204.602 58.8849C205.624 60.2717 206.135 61.9747 206.135 63.9941V76.0008H198.909L198.873 64.432ZM190.698 62.8263C193.885 62.729 196.306 62.9723 197.96 63.5562C199.639 64.1401 200.564 64.578 200.734 64.87C200.904 65.1619 200.99 66.7677 200.99 69.6872C200.99 70.2711 200.746 70.9645 200.26 71.7674C199.773 72.5703 199.08 73.3367 198.179 74.0666C197.279 74.7965 196.197 75.4047 194.931 75.8913C193.666 76.3536 192.255 76.5847 190.698 76.5847C188.995 76.5847 187.462 76.3171 186.1 75.7818C184.762 75.2222 183.703 74.4315 182.925 73.4097C182.146 72.3635 181.757 71.1348 181.757 69.7237C181.757 68.3126 182.146 67.0961 182.925 66.0743C183.728 65.0524 184.798 64.2739 186.136 63.7386C187.499 63.1791 189.019 62.8749 190.698 62.8263ZM194.202 66.8407C191.988 66.8407 190.467 67.0718 189.64 67.5341C188.813 67.9963 188.399 68.5924 188.399 69.3223C188.399 70.0522 188.8 70.6483 189.603 71.1105C190.43 71.5728 191.574 71.8039 193.034 71.8039C194.737 71.8039 196.136 71.3781 197.231 70.5266C198.325 69.6507 198.873 68.6289 198.873 67.4611C197.997 67.0475 196.44 66.8407 194.202 66.8407Z" fill="white"/>
<path d="M211.058 55.1625H218.503V76.0008H211.058V55.1625ZM228.356 55.1625H235.801V76.0008H228.356V55.1625ZM215.364 62.5708H231.166V68.118H215.364V62.5708Z" fill="white"/>
<path d="M265.837 67.2056C265.643 69.079 264.961 70.7212 263.794 72.1324C262.626 73.5435 261.105 74.6383 259.232 75.4169C257.383 76.1954 255.303 76.5847 252.991 76.5847C250.437 76.5847 248.186 76.1224 246.24 75.1979C244.293 74.2734 242.773 72.9839 241.678 71.3295C240.583 69.6751 240.036 67.7652 240.036 65.5999C240.036 63.4102 240.583 61.4882 241.678 59.8337C242.773 58.1793 244.293 56.8899 246.24 55.9653C248.186 55.0165 250.437 54.542 252.991 54.542C255.303 54.542 257.383 54.9435 259.232 55.7464C261.105 56.5249 262.626 57.6197 263.794 59.0309C264.961 60.4176 265.643 62.0599 265.837 63.9576H258.429C258.161 62.7168 257.541 61.7679 256.568 61.111C255.595 60.4298 254.402 60.0892 252.991 60.0892C251.896 60.0892 250.935 60.3082 250.108 60.7461C249.305 61.1597 248.673 61.7801 248.21 62.6073C247.773 63.4102 247.554 64.4077 247.554 65.5999C247.554 66.7677 247.773 67.7652 248.21 68.5924C248.673 69.3953 249.305 70.0157 250.108 70.4536C250.935 70.8672 251.896 71.074 252.991 71.074C254.402 71.074 255.595 70.7212 256.568 70.0157C257.565 69.3101 258.186 68.3734 258.429 67.2056H265.837Z" fill="white"/>
<path d="M275.623 57.7171H283.104V76.0008H275.623V57.7171ZM267.704 55.1625H291.024V60.7826H267.704V55.1625Z" fill="white"/>
<path d="M294.162 76.0008V55.1625H311.132C313.151 55.1625 314.757 55.6369 315.949 56.5857C317.141 57.5103 317.737 58.7754 317.737 60.3812C317.737 61.8896 317.129 63.1182 315.912 64.0671C314.72 64.9916 313.066 65.5634 310.949 65.7823L311.424 64.578C313.881 64.6753 315.754 65.1984 317.044 66.1473C318.358 67.0961 319.014 68.4099 319.014 70.0887C319.014 71.8891 318.345 73.3245 317.007 74.395C315.669 75.4655 313.869 76.0008 311.606 76.0008H294.162ZM301.351 74.4315L298.468 71.366H309.125C309.927 71.366 310.523 71.1957 310.913 70.8551C311.326 70.4901 311.533 69.9914 311.533 69.3588C311.533 68.7749 311.314 68.3004 310.876 67.9355C310.463 67.5462 309.794 67.3516 308.869 67.3516H298.724V63.4832H307.993C308.747 63.4832 309.319 63.3129 309.708 62.9723C310.098 62.6316 310.292 62.1815 310.292 61.622C310.292 61.0624 310.11 60.6123 309.745 60.2717C309.404 59.9311 308.869 59.7607 308.139 59.7607H298.505L301.351 56.7317V74.4315Z" fill="white"/>
<path d="M335.618 76.5847C332.942 76.5847 330.606 76.1346 328.611 75.2344C326.616 74.3099 325.059 73.0204 323.94 71.366C322.82 69.6872 322.261 67.7652 322.261 65.5999C322.261 63.3859 322.82 61.4517 323.94 59.7972C325.059 58.1428 326.616 56.8534 328.611 55.9288C330.606 55.0043 332.942 54.542 335.618 54.542C338.27 54.542 340.593 55.0043 342.588 55.9288C344.608 56.8534 346.177 58.1428 347.296 59.7972C348.415 61.4517 348.975 63.3859 348.975 65.5999C348.975 67.7652 348.415 69.6872 347.296 71.366C346.177 73.0204 344.608 74.3099 342.588 75.2344C340.593 76.1346 338.27 76.5847 335.618 76.5847ZM335.618 71.074C336.834 71.074 337.868 70.8551 338.72 70.4171C339.596 69.9792 340.265 69.3466 340.727 68.5194C341.189 67.6922 341.42 66.719 341.42 65.5999C341.42 64.432 341.189 63.4467 340.727 62.6438C340.265 61.8166 339.596 61.184 338.72 60.7461C337.868 60.3082 336.834 60.0892 335.618 60.0892C334.401 60.0892 333.355 60.3082 332.479 60.7461C331.603 61.184 330.934 61.8166 330.472 62.6438C330.01 63.4467 329.779 64.4199 329.779 65.5634C329.779 66.7069 330.01 67.6922 330.472 68.5194C330.934 69.3466 331.603 69.9792 332.479 70.4171C333.355 70.8551 334.401 71.074 335.618 71.074Z" fill="white"/>
<path d="M102.46 122.001V101.162H113.664L120.123 117.95H118.043L124.393 101.162H135.597V122.001H128.626V103.973H129.831L122.459 122.001H115.634L108.262 104.046L109.467 103.973V122.001H102.46Z" fill="white"/>
<path d="M153.059 122.585C150.528 122.585 148.266 122.122 146.271 121.198C144.3 120.273 142.743 118.984 141.599 117.329C140.456 115.651 139.884 113.704 139.884 111.49C139.884 109.325 140.432 107.427 141.526 105.797C142.621 104.143 144.118 102.853 146.015 101.929C147.937 101.004 150.103 100.542 152.511 100.542C155.017 100.542 157.146 101.089 158.898 102.184C160.674 103.255 162.036 104.775 162.985 106.746C163.958 108.717 164.445 111.04 164.445 113.717H145.906V109.228H160.248L157.803 110.797C157.706 109.726 157.438 108.826 157 108.096C156.562 107.342 155.978 106.77 155.248 106.381C154.543 105.992 153.691 105.797 152.694 105.797C151.599 105.797 150.662 106.016 149.884 106.454C149.105 106.892 148.497 107.5 148.059 108.279C147.621 109.033 147.402 109.921 147.402 110.943C147.402 112.257 147.694 113.376 148.278 114.3C148.886 115.201 149.762 115.894 150.906 116.381C152.073 116.867 153.497 117.111 155.175 117.111C156.708 117.111 158.229 116.916 159.737 116.527C161.27 116.113 162.657 115.541 163.898 114.811V119.556C162.462 120.529 160.82 121.283 158.971 121.818C157.146 122.329 155.175 122.585 153.059 122.585Z" fill="white"/>
<path d="M176.727 116.344C173.783 116.344 171.532 115.529 169.975 113.899C168.418 112.269 167.64 109.909 167.64 106.819V101.162H175.084V106.491C175.084 109.264 176.386 110.651 178.989 110.651C180.157 110.651 181.264 110.335 182.31 109.702C183.357 109.045 184.257 108.096 185.011 106.856L185.376 111.636C184.768 113.096 183.685 114.252 182.128 115.103C180.595 115.931 178.795 116.344 176.727 116.344ZM184.208 122.001V101.162H191.689V122.001H184.208Z" fill="white"/>
<path d="M203.26 103.717H210.741V122.001H203.26V103.717ZM195.341 101.162H218.661V106.783H195.341V101.162Z" fill="white"/>
<path d="M247.053 101.162H254.534V122.001H247.053V101.162ZM222.31 122.001V101.162H229.755V120.176L227.455 116.782H234.827C235.752 116.782 236.47 116.563 236.98 116.125C237.491 115.663 237.747 115.03 237.747 114.227C237.747 113.4 237.491 112.768 236.98 112.33C236.47 111.867 235.752 111.636 234.827 111.636H227.419V106.6H236.068C237.917 106.6 239.523 106.929 240.885 107.585C242.248 108.218 243.306 109.118 244.06 110.286C244.839 111.43 245.228 112.768 245.228 114.3C245.228 115.858 244.851 117.22 244.097 118.388C243.343 119.531 242.284 120.419 240.922 121.052C239.559 121.684 237.978 122.001 236.178 122.001H222.31Z" fill="white"/>
</svg>
