<svg width="408" height="191" viewBox="0 0 408 191" fill="none" xmlns="http://www.w3.org/2000/svg">
<rect width="408" height="191" rx="30" fill="white"/>
<path d="M57.9961 41C58.9162 40.9995 59.8205 41.2393 60.6191 41.6963C61.4178 42.1534 62.0831 42.8118 62.5488 43.6055L64.46 46.8604H69.3193C71.3419 46.8605 73.2818 47.6636 74.7119 49.0938C75.4208 49.8027 75.9829 50.6449 76.3662 51.5713C76.7495 52.4977 76.947 53.4906 76.9463 54.4932V76.7871C76.9466 77.7887 76.7493 78.7806 76.3662 79.7061C75.9831 80.6315 75.421 81.4723 74.7129 82.1807C74.0047 82.8891 73.1637 83.4516 72.2383 83.835C71.313 84.2183 70.3209 84.415 69.3193 84.415H37.6357C36.6333 84.4162 35.6403 84.2198 34.7139 83.8369C33.7875 83.4541 32.9454 82.893 32.2363 82.1846C31.5272 81.476 30.9647 80.6341 30.5811 79.708C30.1974 78.782 29.9997 77.7894 30 76.7871V54.4932C29.9997 53.4916 30.197 52.4997 30.5801 51.5742C30.9632 50.6487 31.5252 49.807 32.2334 49.0986C32.9415 48.3904 33.7827 47.8287 34.708 47.4453C35.6333 47.062 36.6254 46.8643 37.627 46.8643H42.5078L44.5713 43.5225C45.0424 42.7522 45.7037 42.1156 46.4912 41.6738C47.2787 41.2321 48.1665 41.0005 49.0693 41H57.9961ZM51.0488 50.5342L46.0166 53.2793C45.4606 53.5826 45.2554 54.28 45.5586 54.8359C45.8619 55.3918 46.5583 55.5961 47.1143 55.293L50.1592 53.6309C46.9883 57.0764 45.726 61.9941 47.3721 66.5801C49.0122 71.149 53.089 74.1364 57.7041 74.7959L54.8096 76.375C54.2535 76.6782 54.0483 77.3756 54.3516 77.9316C54.6549 78.4874 55.3513 78.6918 55.9072 78.3887L60.9424 75.6436L61.9492 75.0947L61.3994 74.0879L58.6543 69.0557L58.5928 68.9551C58.2644 68.4758 57.6198 68.3137 57.0986 68.5977C56.5774 68.882 56.3645 69.5121 56.5898 70.0479L56.6406 70.1533L57.9258 72.5098C54.1201 71.9327 50.844 69.4646 49.5303 65.8047C48.1552 61.9733 49.2697 57.7814 52.1201 54.8955L53.3359 57.125C53.6392 57.6809 54.3366 57.8852 54.8926 57.582C55.4482 57.2786 55.6527 56.5822 55.3496 56.0264L52.6045 50.9922L52.0557 49.9854L51.0488 50.5342Z" fill="#010101"/>
<path d="M105.352 59.12V54.736C105.736 54.736 106.024 54.6667 106.216 54.528C106.419 54.3787 106.573 54.1813 106.68 53.936C106.765 53.7227 106.84 53.4667 106.904 53.168C106.968 52.8587 107.021 52.528 107.064 52.176C107.117 51.8133 107.155 51.4507 107.176 51.088C107.251 50.0213 107.304 48.9547 107.336 47.888C107.368 46.8213 107.389 45.7547 107.4 44.688H114.632V54.736H115.992V59.12H114.6V56H106.744V59.12H105.352ZM107.928 54.736H113.24V45.952H108.76L108.616 50.352C108.605 50.608 108.589 50.912 108.568 51.264C108.557 51.616 108.525 51.9893 108.472 52.384C108.429 52.768 108.365 53.1627 108.28 53.568C108.195 53.9733 108.077 54.3627 107.928 54.736ZM116.96 56.016V54.832C117.174 54.832 117.366 54.7893 117.536 54.704C117.707 54.608 117.856 54.4693 117.984 54.288C118.134 54.0747 118.251 53.7653 118.336 53.36C118.422 52.9547 118.48 52.5227 118.512 52.064C118.555 51.552 118.587 51.0507 118.608 50.56C118.63 50.0587 118.646 49.5627 118.656 49.072C118.678 48.5813 118.688 48.08 118.688 47.568H124.544V56H123.184V48.768H120.016C120.006 49.1307 119.99 49.4987 119.968 49.872C119.958 50.2347 119.942 50.6027 119.92 50.976C119.91 51.3387 119.894 51.7067 119.872 52.08C119.862 52.5067 119.819 52.9867 119.744 53.52C119.67 54.0533 119.51 54.5387 119.264 54.976C119.03 55.392 118.742 55.6693 118.4 55.808C118.07 55.9467 117.59 56.016 116.96 56.016ZM126.153 56L128.345 52.672C127.737 52.5013 127.257 52.224 126.905 51.84C126.553 51.4453 126.377 50.9227 126.377 50.272C126.377 49.76 126.452 49.3333 126.601 48.992C126.751 48.64 126.969 48.3627 127.257 48.16C127.545 47.9467 127.892 47.7973 128.297 47.712C128.703 47.616 129.167 47.568 129.689 47.568H133.081V56H131.721V52.88H129.785L127.737 56H126.153ZM130.713 51.696H131.721V48.768H129.913C129.593 48.768 129.3 48.784 129.033 48.816C128.767 48.848 128.537 48.9173 128.345 49.024C128.164 49.12 128.02 49.264 127.913 49.456C127.807 49.6373 127.753 49.888 127.753 50.208C127.753 50.56 127.839 50.8373 128.009 51.04C128.191 51.2427 128.42 51.392 128.697 51.488C128.985 51.5733 129.305 51.632 129.657 51.664C130.009 51.6853 130.361 51.696 130.713 51.696ZM139.541 56V47.568H140.901V51.264H145.125V47.568H146.485V56H145.125V52.464H140.901V56H139.541ZM151.339 56.096C150.955 56.096 150.581 56.048 150.219 55.952C149.867 55.8453 149.547 55.6907 149.259 55.488C148.981 55.2747 148.757 55.0133 148.587 54.704C148.427 54.384 148.347 54.016 148.347 53.6C148.347 53.12 148.432 52.7147 148.603 52.384C148.784 52.0533 149.024 51.792 149.323 51.6C149.621 51.408 149.968 51.2693 150.363 51.184C150.757 51.0987 151.168 51.056 151.595 51.056H154.075C154.075 50.576 154.005 50.16 153.867 49.808C153.739 49.456 153.525 49.184 153.227 48.992C152.928 48.7893 152.533 48.688 152.043 48.688C151.744 48.688 151.467 48.72 151.211 48.784C150.955 48.848 150.736 48.9493 150.555 49.088C150.373 49.2267 150.24 49.4133 150.155 49.648H148.699C148.773 49.264 148.917 48.9387 149.131 48.672C149.355 48.3947 149.621 48.1707 149.931 48C150.251 47.8187 150.592 47.6853 150.955 47.6C151.317 47.5147 151.68 47.472 152.043 47.472C152.853 47.472 153.504 47.6373 153.995 47.968C154.485 48.288 154.843 48.7467 155.067 49.344C155.291 49.9307 155.403 50.6293 155.403 51.44V56H154.267L154.187 54.928C153.952 55.248 153.669 55.4933 153.339 55.664C153.008 55.8347 152.667 55.9467 152.315 56C151.973 56.064 151.648 56.096 151.339 56.096ZM151.467 54.896C152 54.896 152.459 54.8107 152.843 54.64C153.237 54.4587 153.541 54.1973 153.755 53.856C153.968 53.5147 154.075 53.0987 154.075 52.608V52.192H152.587C152.235 52.192 151.888 52.1973 151.547 52.208C151.205 52.2187 150.896 52.2613 150.619 52.336C150.341 52.4107 150.117 52.5387 149.947 52.72C149.787 52.9013 149.707 53.1627 149.707 53.504C149.707 53.824 149.787 54.0853 149.947 54.288C150.117 54.4907 150.336 54.6453 150.603 54.752C150.88 54.848 151.168 54.896 151.467 54.896ZM157.51 56V47.568H158.87V51.2H160.342L162.838 47.568H164.39L161.574 51.584L164.63 56H163.03L160.502 52.384H158.87V56H157.51ZM165.038 56.016V54.832C165.252 54.832 165.444 54.7893 165.614 54.704C165.785 54.608 165.934 54.4693 166.062 54.288C166.212 54.0747 166.329 53.7653 166.414 53.36C166.5 52.9547 166.558 52.5227 166.59 52.064C166.633 51.552 166.665 51.0507 166.686 50.56C166.708 50.0587 166.724 49.5627 166.734 49.072C166.756 48.5813 166.766 48.08 166.766 47.568H172.622V56H171.262V48.768H168.094C168.084 49.1307 168.068 49.4987 168.046 49.872C168.036 50.2347 168.02 50.6027 167.998 50.976C167.988 51.3387 167.972 51.7067 167.95 52.08C167.94 52.5067 167.897 52.9867 167.822 53.52C167.748 54.0533 167.588 54.5387 167.342 54.976C167.108 55.392 166.82 55.6693 166.478 55.808C166.148 55.9467 165.668 56.016 165.038 56.016ZM178.44 56.096C177.554 56.096 176.813 55.9147 176.216 55.552C175.618 55.1787 175.17 54.6667 174.872 54.016C174.584 53.3653 174.44 52.624 174.44 51.792C174.44 50.9493 174.584 50.208 174.872 49.568C175.17 48.9173 175.618 48.4053 176.216 48.032C176.813 47.6587 177.565 47.472 178.472 47.472C179.357 47.472 180.093 47.6587 180.68 48.032C181.277 48.4053 181.72 48.9173 182.008 49.568C182.306 50.208 182.456 50.9493 182.456 51.792C182.456 52.624 182.306 53.3653 182.008 54.016C181.709 54.6667 181.261 55.1787 180.664 55.552C180.077 55.9147 179.336 56.096 178.44 56.096ZM178.44 54.896C179.058 54.896 179.56 54.7573 179.944 54.48C180.338 54.2027 180.626 53.8293 180.808 53.36C181 52.8907 181.096 52.368 181.096 51.792C181.096 51.216 181 50.6933 180.808 50.224C180.626 49.7547 180.338 49.3813 179.944 49.104C179.56 48.8267 179.058 48.688 178.44 48.688C177.832 48.688 177.33 48.8267 176.936 49.104C176.552 49.3813 176.264 49.7547 176.072 50.224C175.89 50.6933 175.799 51.216 175.799 51.792C175.799 52.368 175.89 52.8907 176.072 53.36C176.264 53.8293 176.552 54.2027 176.936 54.48C177.33 54.7573 177.832 54.896 178.44 54.896ZM184.275 56V47.568H185.635V51.264H189.859V47.568H191.219V56H189.859V52.464H185.635V56H184.275ZM196.073 56.096C195.689 56.096 195.316 56.048 194.953 55.952C194.601 55.8453 194.281 55.6907 193.993 55.488C193.716 55.2747 193.492 55.0133 193.321 54.704C193.161 54.384 193.081 54.016 193.081 53.6C193.081 53.12 193.166 52.7147 193.337 52.384C193.518 52.0533 193.758 51.792 194.057 51.6C194.356 51.408 194.702 51.2693 195.097 51.184C195.492 51.0987 195.902 51.056 196.329 51.056H198.809C198.809 50.576 198.74 50.16 198.601 49.808C198.473 49.456 198.26 49.184 197.961 48.992C197.662 48.7893 197.268 48.688 196.777 48.688C196.478 48.688 196.201 48.72 195.945 48.784C195.689 48.848 195.47 48.9493 195.289 49.088C195.108 49.2267 194.974 49.4133 194.889 49.648H193.433C193.508 49.264 193.652 48.9387 193.865 48.672C194.089 48.3947 194.356 48.1707 194.665 48C194.985 47.8187 195.326 47.6853 195.689 47.6C196.052 47.5147 196.414 47.472 196.777 47.472C197.588 47.472 198.238 47.6373 198.729 47.968C199.22 48.288 199.577 48.7467 199.801 49.344C200.025 49.9307 200.137 50.6293 200.137 51.44V56H199.001L198.921 54.928C198.686 55.248 198.404 55.4933 198.073 55.664C197.742 55.8347 197.401 55.9467 197.049 56C196.708 56.064 196.382 56.096 196.073 56.096ZM196.201 54.896C196.734 54.896 197.193 54.8107 197.577 54.64C197.972 54.4587 198.276 54.1973 198.489 53.856C198.702 53.5147 198.809 53.0987 198.809 52.608V52.192H197.321C196.969 52.192 196.622 52.1973 196.281 52.208C195.94 52.2187 195.63 52.2613 195.353 52.336C195.076 52.4107 194.852 52.5387 194.681 52.72C194.521 52.9013 194.441 53.1627 194.441 53.504C194.441 53.824 194.521 54.0853 194.681 54.288C194.852 54.4907 195.07 54.6453 195.337 54.752C195.614 54.848 195.902 54.896 196.201 54.896ZM206.556 56V47.568H207.916V51.2H209.388L211.884 47.568H213.436L210.62 51.584L213.676 56H212.076L209.548 52.384H207.916V56H206.556ZM217.401 56.096C217.017 56.096 216.644 56.048 216.281 55.952C215.929 55.8453 215.609 55.6907 215.321 55.488C215.044 55.2747 214.82 55.0133 214.649 54.704C214.489 54.384 214.409 54.016 214.409 53.6C214.409 53.12 214.494 52.7147 214.665 52.384C214.846 52.0533 215.086 51.792 215.385 51.6C215.684 51.408 216.03 51.2693 216.425 51.184C216.82 51.0987 217.23 51.056 217.657 51.056H220.137C220.137 50.576 220.068 50.16 219.929 49.808C219.801 49.456 219.588 49.184 219.289 48.992C218.99 48.7893 218.596 48.688 218.105 48.688C217.806 48.688 217.529 48.72 217.273 48.784C217.017 48.848 216.798 48.9493 216.617 49.088C216.436 49.2267 216.302 49.4133 216.217 49.648H214.761C214.836 49.264 214.98 48.9387 215.193 48.672C215.417 48.3947 215.684 48.1707 215.993 48C216.313 47.8187 216.654 47.6853 217.017 47.6C217.38 47.5147 217.742 47.472 218.105 47.472C218.916 47.472 219.566 47.6373 220.057 47.968C220.548 48.288 220.905 48.7467 221.129 49.344C221.353 49.9307 221.465 50.6293 221.465 51.44V56H220.329L220.249 54.928C220.014 55.248 219.732 55.4933 219.401 55.664C219.07 55.8347 218.729 55.9467 218.377 56C218.036 56.064 217.71 56.096 217.401 56.096ZM217.529 54.896C218.062 54.896 218.521 54.8107 218.905 54.64C219.3 54.4587 219.604 54.1973 219.817 53.856C220.03 53.5147 220.137 53.0987 220.137 52.608V52.192H218.649C218.297 52.192 217.95 52.1973 217.609 52.208C217.268 52.2187 216.958 52.2613 216.681 52.336C216.404 52.4107 216.18 52.5387 216.009 52.72C215.849 52.9013 215.769 53.1627 215.769 53.504C215.769 53.824 215.849 54.0853 216.009 54.288C216.18 54.4907 216.398 54.6453 216.665 54.752C216.942 54.848 217.23 54.896 217.529 54.896ZM223.572 56V47.568H225.396L228.132 51.792L230.82 47.568H232.612V56H231.268V49.072L228.292 53.84H227.908L224.916 49.072V56H223.572ZM238.408 56.096C237.512 56.096 236.77 55.9147 236.184 55.552C235.597 55.1787 235.16 54.6667 234.872 54.016C234.584 53.3653 234.44 52.624 234.44 51.792C234.44 50.9493 234.589 50.208 234.888 49.568C235.197 48.9173 235.645 48.4053 236.232 48.032C236.818 47.6587 237.538 47.472 238.391 47.472C239.021 47.472 239.57 47.5947 240.04 47.84C240.52 48.0747 240.914 48.3947 241.224 48.8C241.544 49.2053 241.773 49.6587 241.911 50.16C242.061 50.6613 242.125 51.1787 242.104 51.712C242.093 51.808 242.088 51.904 242.088 52C242.088 52.096 242.082 52.192 242.072 52.288H235.816C235.858 52.7787 235.981 53.2213 236.184 53.616C236.386 54.0107 236.674 54.3253 237.048 54.56C237.421 54.784 237.885 54.896 238.44 54.896C238.717 54.896 238.994 54.864 239.272 54.8C239.56 54.7253 239.816 54.6027 240.04 54.432C240.274 54.2613 240.44 54.032 240.536 53.744H241.928C241.8 54.288 241.56 54.736 241.208 55.088C240.856 55.4293 240.434 55.6853 239.944 55.856C239.453 56.016 238.941 56.096 238.408 56.096ZM235.848 51.104H240.728C240.717 50.624 240.61 50.2027 240.408 49.84C240.205 49.4773 239.928 49.1947 239.576 48.992C239.234 48.7893 238.824 48.688 238.344 48.688C237.821 48.688 237.378 48.8 237.016 49.024C236.664 49.248 236.392 49.5413 236.2 49.904C236.008 50.2667 235.89 50.6667 235.848 51.104ZM243.931 59.04V47.568H245.227L245.291 48.864C245.579 48.4053 245.969 48.0587 246.459 47.824C246.961 47.5893 247.499 47.472 248.075 47.472C248.929 47.472 249.627 47.664 250.171 48.048C250.715 48.4213 251.115 48.9333 251.371 49.584C251.638 50.2347 251.771 50.9707 251.771 51.792C251.771 52.6133 251.638 53.3493 251.371 54C251.105 54.6507 250.694 55.1627 250.139 55.536C249.585 55.9093 248.875 56.096 248.011 56.096C247.585 56.096 247.201 56.0533 246.859 55.968C246.518 55.872 246.219 55.7387 245.963 55.568C245.707 55.3973 245.483 55.2053 245.291 54.992V59.04H243.931ZM247.899 54.896C248.518 54.896 249.009 54.7573 249.371 54.48C249.734 54.192 249.995 53.8133 250.155 53.344C250.326 52.8747 250.411 52.3573 250.411 51.792C250.411 51.216 250.326 50.6933 250.155 50.224C249.995 49.7547 249.729 49.3813 249.355 49.104C248.982 48.8267 248.486 48.688 247.867 48.688C247.313 48.688 246.838 48.832 246.443 49.12C246.059 49.3973 245.766 49.776 245.563 50.256C245.361 50.7253 245.259 51.2427 245.259 51.808C245.259 52.3947 245.355 52.9227 245.547 53.392C245.739 53.8613 246.033 54.2293 246.427 54.496C246.822 54.7627 247.313 54.896 247.899 54.896ZM253.525 56V47.568H254.917V50.784H256.437C256.938 50.784 257.392 50.8267 257.797 50.912C258.202 50.9973 258.549 51.136 258.837 51.328C259.125 51.52 259.344 51.7813 259.493 52.112C259.642 52.432 259.717 52.8373 259.717 53.328C259.717 53.7973 259.637 54.2027 259.477 54.544C259.317 54.8853 259.088 55.1627 258.789 55.376C258.501 55.5893 258.154 55.7493 257.749 55.856C257.354 55.952 256.922 56 256.453 56H253.525ZM254.917 54.816H255.365C255.738 54.816 256.101 54.8107 256.453 54.8C256.805 54.7787 257.12 54.7253 257.397 54.64C257.685 54.5547 257.914 54.416 258.085 54.224C258.256 54.0213 258.341 53.7387 258.341 53.376C258.341 53.0347 258.272 52.7733 258.133 52.592C258.005 52.4 257.834 52.2613 257.621 52.176C257.408 52.08 257.173 52.0213 256.917 52C256.672 51.9787 256.426 51.968 256.181 51.968H254.917V54.816ZM260.885 56V47.568H262.245V56H260.885ZM268.697 56V47.568H271.961C272.334 47.568 272.702 47.5947 273.065 47.648C273.438 47.6907 273.774 47.7867 274.073 47.936C274.382 48.0747 274.628 48.2827 274.809 48.56C275.001 48.8373 275.097 49.2053 275.097 49.664C275.097 49.9413 275.054 50.1973 274.969 50.432C274.884 50.656 274.756 50.8533 274.585 51.024C274.425 51.1947 274.217 51.344 273.961 51.472C274.537 51.6 274.953 51.8507 275.209 52.224C275.465 52.5973 275.593 53.024 275.593 53.504C275.593 53.9307 275.513 54.304 275.353 54.624C275.204 54.9333 274.99 55.1893 274.713 55.392C274.446 55.5947 274.132 55.7493 273.769 55.856C273.417 55.952 273.038 56 272.633 56H268.697ZM270.089 54.816H272.313C272.644 54.816 272.953 54.784 273.241 54.72C273.529 54.656 273.764 54.5387 273.945 54.368C274.126 54.1867 274.217 53.9307 274.217 53.6C274.217 53.2587 274.137 53.0027 273.977 52.832C273.828 52.6507 273.63 52.528 273.385 52.464C273.15 52.3893 272.894 52.3467 272.617 52.336C272.34 52.3253 272.078 52.32 271.833 52.32H270.089V54.816ZM270.089 51.168H271.257C271.47 51.168 271.716 51.1573 271.993 51.136C272.281 51.1147 272.558 51.0667 272.825 50.992C273.102 50.9067 273.326 50.7787 273.497 50.608C273.678 50.4373 273.769 50.2027 273.769 49.904C273.769 49.5093 273.657 49.2373 273.433 49.088C273.22 48.928 272.964 48.8373 272.665 48.816C272.366 48.784 272.089 48.768 271.833 48.768H270.089V51.168ZM277.447 56V47.568H280.711C281.084 47.568 281.452 47.5947 281.815 47.648C282.188 47.6907 282.524 47.7867 282.823 47.936C283.132 48.0747 283.378 48.2827 283.559 48.56C283.751 48.8373 283.847 49.2053 283.847 49.664C283.847 49.9413 283.804 50.1973 283.719 50.432C283.634 50.656 283.506 50.8533 283.335 51.024C283.175 51.1947 282.967 51.344 282.711 51.472C283.287 51.6 283.703 51.8507 283.959 52.224C284.215 52.5973 284.343 53.024 284.343 53.504C284.343 53.9307 284.263 54.304 284.103 54.624C283.954 54.9333 283.74 55.1893 283.463 55.392C283.196 55.5947 282.882 55.7493 282.519 55.856C282.167 55.952 281.788 56 281.383 56H277.447ZM278.839 54.816H281.063C281.394 54.816 281.703 54.784 281.991 54.72C282.279 54.656 282.514 54.5387 282.695 54.368C282.876 54.1867 282.967 53.9307 282.967 53.6C282.967 53.2587 282.887 53.0027 282.727 52.832C282.578 52.6507 282.38 52.528 282.135 52.464C281.9 52.3893 281.644 52.3467 281.367 52.336C281.09 52.3253 280.828 52.32 280.583 52.32H278.839V54.816ZM278.839 51.168H280.007C280.22 51.168 280.466 51.1573 280.743 51.136C281.031 51.1147 281.308 51.0667 281.575 50.992C281.852 50.9067 282.076 50.7787 282.247 50.608C282.428 50.4373 282.519 50.2027 282.519 49.904C282.519 49.5093 282.407 49.2373 282.183 49.088C281.97 48.928 281.714 48.8373 281.415 48.816C281.116 48.784 280.839 48.768 280.583 48.768H278.839V51.168ZM289.845 56.096C288.949 56.096 288.208 55.9147 287.621 55.552C287.034 55.1787 286.597 54.6667 286.309 54.016C286.021 53.3653 285.877 52.624 285.877 51.792C285.877 50.9493 286.026 50.208 286.325 49.568C286.634 48.9173 287.082 48.4053 287.669 48.032C288.256 47.6587 288.976 47.472 289.829 47.472C290.458 47.472 291.008 47.5947 291.477 47.84C291.957 48.0747 292.352 48.3947 292.661 48.8C292.981 49.2053 293.21 49.6587 293.349 50.16C293.498 50.6613 293.562 51.1787 293.541 51.712C293.53 51.808 293.525 51.904 293.525 52C293.525 52.096 293.52 52.192 293.509 52.288H287.253C287.296 52.7787 287.418 53.2213 287.621 53.616C287.824 54.0107 288.112 54.3253 288.485 54.56C288.858 54.784 289.322 54.896 289.877 54.896C290.154 54.896 290.432 54.864 290.709 54.8C290.997 54.7253 291.253 54.6027 291.477 54.432C291.712 54.2613 291.877 54.032 291.973 53.744H293.365C293.237 54.288 292.997 54.736 292.645 55.088C292.293 55.4293 291.872 55.6853 291.381 55.856C290.89 56.016 290.378 56.096 289.845 56.096ZM287.285 51.104H292.165C292.154 50.624 292.048 50.2027 291.845 49.84C291.642 49.4773 291.365 49.1947 291.013 48.992C290.672 48.7893 290.261 48.688 289.781 48.688C289.258 48.688 288.816 48.8 288.453 49.024C288.101 49.248 287.829 49.5413 287.637 49.904C287.445 50.2667 287.328 50.6667 287.285 51.104ZM295.369 59.04V47.568H296.665L296.729 48.864C297.017 48.4053 297.406 48.0587 297.897 47.824C298.398 47.5893 298.937 47.472 299.513 47.472C300.366 47.472 301.065 47.664 301.609 48.048C302.153 48.4213 302.553 48.9333 302.809 49.584C303.076 50.2347 303.209 50.9707 303.209 51.792C303.209 52.6133 303.076 53.3493 302.809 54C302.542 54.6507 302.132 55.1627 301.577 55.536C301.022 55.9093 300.313 56.096 299.449 56.096C299.022 56.096 298.638 56.0533 298.297 55.968C297.956 55.872 297.657 55.7387 297.401 55.568C297.145 55.3973 296.921 55.2053 296.729 54.992V59.04H295.369ZM299.337 54.896C299.956 54.896 300.446 54.7573 300.809 54.48C301.172 54.192 301.433 53.8133 301.593 53.344C301.764 52.8747 301.849 52.3573 301.849 51.792C301.849 51.216 301.764 50.6933 301.593 50.224C301.433 49.7547 301.166 49.3813 300.793 49.104C300.42 48.8267 299.924 48.688 299.305 48.688C298.75 48.688 298.276 48.832 297.881 49.12C297.497 49.3973 297.204 49.776 297.001 50.256C296.798 50.7253 296.697 51.2427 296.697 51.808C296.697 52.3947 296.793 52.9227 296.985 53.392C297.177 53.8613 297.47 54.2293 297.865 54.496C298.26 54.7627 298.75 54.896 299.337 54.896ZM303.958 56L306.966 51.696L304.102 47.568H305.734L307.878 50.768L309.958 47.568H311.542L308.694 51.744L311.75 56H310.134L307.798 52.784L305.494 56H303.958ZM317.353 56V47.568H318.713V54.032C318.788 53.8827 318.889 53.7227 319.017 53.552C319.145 53.3707 319.247 53.232 319.321 53.136L323.401 47.568H324.745V56H323.385V49.536C323.3 49.696 323.204 49.8453 323.097 49.984C323.001 50.1227 322.911 50.2507 322.825 50.368L318.681 56H317.353ZM326.117 56.016V54.832C326.33 54.832 326.522 54.7893 326.693 54.704C326.863 54.608 327.013 54.4693 327.141 54.288C327.29 54.0747 327.407 53.7653 327.493 53.36C327.578 52.9547 327.637 52.5227 327.669 52.064C327.711 51.552 327.743 51.0507 327.765 50.56C327.786 50.0587 327.802 49.5627 327.812 49.072C327.834 48.5813 327.845 48.08 327.845 47.568H333.701V56H332.341V48.768H329.173C329.162 49.1307 329.146 49.4987 329.125 49.872C329.114 50.2347 329.098 50.6027 329.077 50.976C329.066 51.3387 329.05 51.7067 329.029 52.08C329.018 52.5067 328.975 52.9867 328.901 53.52C328.826 54.0533 328.666 54.5387 328.421 54.976C328.186 55.392 327.898 55.6693 327.557 55.808C327.226 55.9467 326.746 56.016 326.117 56.016ZM335.838 56V47.568H337.198V54.032C337.272 53.8827 337.374 53.7227 337.502 53.552C337.63 53.3707 337.731 53.232 337.806 53.136L341.886 47.568H343.23V56H341.87V49.536C341.784 49.696 341.688 49.8453 341.582 49.984C341.486 50.1227 341.395 50.2507 341.31 50.368L337.166 56H335.838ZM106.072 76V67.568H109.336C109.709 67.568 110.077 67.5947 110.44 67.648C110.813 67.6907 111.149 67.7867 111.448 67.936C111.757 68.0747 112.003 68.2827 112.184 68.56C112.376 68.8373 112.472 69.2053 112.472 69.664C112.472 69.9413 112.429 70.1973 112.344 70.432C112.259 70.656 112.131 70.8533 111.96 71.024C111.8 71.1947 111.592 71.344 111.336 71.472C111.912 71.6 112.328 71.8507 112.584 72.224C112.84 72.5973 112.968 73.024 112.968 73.504C112.968 73.9307 112.888 74.304 112.728 74.624C112.579 74.9333 112.365 75.1893 112.088 75.392C111.821 75.5947 111.507 75.7493 111.144 75.856C110.792 75.952 110.413 76 110.008 76H106.072ZM107.464 74.816H109.688C110.019 74.816 110.328 74.784 110.616 74.72C110.904 74.656 111.139 74.5387 111.32 74.368C111.501 74.1867 111.592 73.9307 111.592 73.6C111.592 73.2587 111.512 73.0027 111.352 72.832C111.203 72.6507 111.005 72.528 110.76 72.464C110.525 72.3893 110.269 72.3467 109.992 72.336C109.715 72.3253 109.453 72.32 109.208 72.32H107.464V74.816ZM107.464 71.168H108.632C108.845 71.168 109.091 71.1573 109.368 71.136C109.656 71.1147 109.933 71.0667 110.2 70.992C110.477 70.9067 110.701 70.7787 110.872 70.608C111.053 70.4373 111.144 70.2027 111.144 69.904C111.144 69.5093 111.032 69.2373 110.808 69.088C110.595 68.928 110.339 68.8373 110.04 68.816C109.741 68.784 109.464 68.768 109.208 68.768H107.464V71.168ZM114.822 76V67.568H116.182V71.264H120.406V67.568H121.766V76H120.406V72.464H116.182V76H114.822ZM123.916 76V67.568H125.276V74.032C125.35 73.8827 125.452 73.7227 125.58 73.552C125.708 73.3707 125.809 73.232 125.884 73.136L129.964 67.568H131.308V76H129.948V69.536C129.862 69.696 129.766 69.8453 129.66 69.984C129.564 70.1227 129.473 70.2507 129.388 70.368L125.244 76H123.916ZM136.503 76.096C136.098 76.096 135.692 76.0587 135.287 75.984C134.882 75.9093 134.503 75.7867 134.151 75.616C133.81 75.4347 133.532 75.1947 133.319 74.896C133.106 74.5867 132.988 74.2027 132.967 73.744H134.295C134.348 74.032 134.503 74.2613 134.759 74.432C135.015 74.6027 135.303 74.7253 135.623 74.8C135.954 74.864 136.247 74.896 136.503 74.896C136.802 74.896 137.106 74.864 137.415 74.8C137.735 74.736 138.002 74.608 138.215 74.416C138.439 74.224 138.551 73.9413 138.551 73.568C138.551 73.2053 138.46 72.9387 138.279 72.768C138.108 72.5973 137.879 72.4853 137.591 72.432C137.314 72.3787 137.01 72.352 136.679 72.352H135.175V71.152H136.407C136.61 71.152 136.818 71.136 137.031 71.104C137.244 71.0613 137.442 70.9973 137.623 70.912C137.804 70.816 137.948 70.6827 138.055 70.512C138.172 70.3413 138.231 70.1227 138.231 69.856C138.231 69.5573 138.146 69.3227 137.975 69.152C137.804 68.9813 137.586 68.864 137.319 68.8C137.052 68.7253 136.78 68.688 136.503 68.688C136.247 68.688 135.975 68.7147 135.687 68.768C135.41 68.8213 135.17 68.928 134.967 69.088C134.764 69.2373 134.642 69.4613 134.599 69.76H133.255C133.276 69.184 133.452 68.7307 133.783 68.4C134.114 68.0693 134.524 67.8347 135.015 67.696C135.506 67.5467 135.996 67.472 136.487 67.472C136.86 67.472 137.228 67.5093 137.591 67.584C137.954 67.6587 138.284 67.7867 138.583 67.968C138.882 68.1387 139.116 68.368 139.287 68.656C139.468 68.944 139.559 69.3013 139.559 69.728C139.559 70.112 139.468 70.4533 139.287 70.752C139.106 71.0507 138.828 71.2907 138.455 71.472C138.999 71.6427 139.378 71.9093 139.591 72.272C139.804 72.6347 139.911 73.0667 139.911 73.568C139.911 74.016 139.815 74.4 139.623 74.72C139.431 75.0293 139.17 75.2907 138.839 75.504C138.519 75.7067 138.156 75.856 137.751 75.952C137.346 76.048 136.93 76.096 136.503 76.096ZM142.05 77.936L141.666 77.408C141.815 77.3013 141.954 77.1733 142.082 77.024C142.21 76.8747 142.322 76.7147 142.418 76.544C142.524 76.3733 142.599 76.2027 142.642 76.032C142.364 76.0107 142.14 75.92 141.97 75.76C141.799 75.6 141.714 75.3867 141.714 75.12C141.724 74.8427 141.82 74.624 142.002 74.464C142.194 74.2933 142.412 74.208 142.658 74.208C142.967 74.208 143.212 74.32 143.394 74.544C143.586 74.768 143.682 75.0827 143.682 75.488C143.682 75.808 143.602 76.1387 143.442 76.48C143.292 76.8213 143.095 77.12 142.85 77.376C142.604 77.6427 142.338 77.8293 142.05 77.936ZM149.666 76V67.568H151.026V71.264H155.25V67.568H156.61V76H155.25V72.464H151.026V76H149.666ZM159.032 79.616V78.32C159.554 78.32 159.97 78.2453 160.28 78.096C160.589 77.9573 160.845 77.7333 161.048 77.424C161.261 77.1253 161.464 76.7413 161.656 76.272L157.96 67.568H159.56L162.408 74.672L164.744 67.568H166.28L163.912 74.208C163.794 74.5493 163.661 74.9333 163.512 75.36C163.362 75.7867 163.197 76.2187 163.016 76.656C162.834 77.104 162.632 77.5147 162.408 77.888C162.194 78.272 161.954 78.5813 161.688 78.816C161.464 79.0187 161.245 79.1787 161.032 79.296C160.818 79.4133 160.557 79.4933 160.248 79.536C159.949 79.5893 159.544 79.616 159.032 79.616ZM166.693 76L169.429 71.584L166.933 67.568H168.389L170.613 71.216H171.877V67.568H173.237V71.216H174.501L176.725 67.568H178.181L175.685 71.584L178.421 76H176.837L174.645 72.368H173.237V76H171.877V72.368H170.469L168.277 76H166.693ZM179.713 76V67.568H181.073V71.264H185.297V67.568H186.657V76H185.297V72.464H181.073V76H179.713ZM192.486 76.096C191.601 76.096 190.86 75.9147 190.262 75.552C189.665 75.1787 189.217 74.6667 188.918 74.016C188.63 73.3653 188.486 72.624 188.486 71.792C188.486 70.9493 188.63 70.208 188.918 69.568C189.217 68.9173 189.665 68.4053 190.262 68.032C190.86 67.6587 191.612 67.472 192.518 67.472C193.404 67.472 194.14 67.6587 194.726 68.032C195.324 68.4053 195.766 68.9173 196.054 69.568C196.353 70.208 196.502 70.9493 196.502 71.792C196.502 72.624 196.353 73.3653 196.054 74.016C195.756 74.6667 195.308 75.1787 194.71 75.552C194.124 75.9147 193.382 76.096 192.486 76.096ZM192.486 74.896C193.105 74.896 193.606 74.7573 193.99 74.48C194.385 74.2027 194.673 73.8293 194.854 73.36C195.046 72.8907 195.142 72.368 195.142 71.792C195.142 71.216 195.046 70.6933 194.854 70.224C194.673 69.7547 194.385 69.3813 193.99 69.104C193.606 68.8267 193.105 68.688 192.486 68.688C191.878 68.688 191.377 68.8267 190.982 69.104C190.598 69.3813 190.31 69.7547 190.118 70.224C189.937 70.6933 189.846 71.216 189.846 71.792C189.846 72.368 189.937 72.8907 190.118 73.36C190.31 73.8293 190.598 74.2027 190.982 74.48C191.377 74.7573 191.878 74.896 192.486 74.896ZM205.339 76.096C204.955 76.096 204.581 76.048 204.219 75.952C203.867 75.8453 203.547 75.6907 203.259 75.488C202.981 75.2747 202.757 75.0133 202.587 74.704C202.427 74.384 202.347 74.016 202.347 73.6C202.347 73.12 202.432 72.7147 202.603 72.384C202.784 72.0533 203.024 71.792 203.323 71.6C203.621 71.408 203.968 71.2693 204.363 71.184C204.757 71.0987 205.168 71.056 205.595 71.056H208.075C208.075 70.576 208.005 70.16 207.867 69.808C207.739 69.456 207.525 69.184 207.227 68.992C206.928 68.7893 206.533 68.688 206.043 68.688C205.744 68.688 205.467 68.72 205.211 68.784C204.955 68.848 204.736 68.9493 204.555 69.088C204.373 69.2267 204.24 69.4133 204.155 69.648H202.699C202.773 69.264 202.917 68.9387 203.131 68.672C203.355 68.3947 203.621 68.1707 203.931 68C204.251 67.8187 204.592 67.6853 204.955 67.6C205.317 67.5147 205.68 67.472 206.043 67.472C206.853 67.472 207.504 67.6373 207.995 67.968C208.485 68.288 208.843 68.7467 209.067 69.344C209.291 69.9307 209.403 70.6293 209.403 71.44V76H208.267L208.187 74.928C207.952 75.248 207.669 75.4933 207.339 75.664C207.008 75.8347 206.667 75.9467 206.315 76C205.973 76.064 205.648 76.096 205.339 76.096ZM205.467 74.896C206 74.896 206.459 74.8107 206.843 74.64C207.237 74.4587 207.541 74.1973 207.755 73.856C207.968 73.5147 208.075 73.0987 208.075 72.608V72.192H206.587C206.235 72.192 205.888 72.1973 205.547 72.208C205.205 72.2187 204.896 72.2613 204.619 72.336C204.341 72.4107 204.117 72.5387 203.947 72.72C203.787 72.9013 203.707 73.1627 203.707 73.504C203.707 73.824 203.787 74.0853 203.947 74.288C204.117 74.4907 204.336 74.6453 204.603 74.752C204.88 74.848 205.168 74.896 205.467 74.896ZM211.51 76V67.568H212.87V71.2H214.342L216.838 67.568H218.39L215.574 71.584L218.63 76H217.03L214.502 72.384H212.87V76H211.51ZM221.774 76V68.768H218.878V67.568H226.03V68.768H223.134V76H221.774ZM227.244 76V67.568H228.604V74.032C228.679 73.8827 228.78 73.7227 228.908 73.552C229.036 73.3707 229.137 73.232 229.212 73.136L233.292 67.568H234.636V76H233.276V69.536C233.191 69.696 233.095 69.8453 232.988 69.984C232.892 70.1227 232.801 70.2507 232.716 70.368L228.572 76H227.244ZM236.775 76V67.568H240.039C240.412 67.568 240.78 67.5947 241.143 67.648C241.516 67.6907 241.852 67.7867 242.151 67.936C242.46 68.0747 242.706 68.2827 242.887 68.56C243.079 68.8373 243.175 69.2053 243.175 69.664C243.175 69.9413 243.132 70.1973 243.047 70.432C242.962 70.656 242.834 70.8533 242.663 71.024C242.503 71.1947 242.295 71.344 242.039 71.472C242.615 71.6 243.031 71.8507 243.287 72.224C243.543 72.5973 243.671 73.024 243.671 73.504C243.671 73.9307 243.591 74.304 243.431 74.624C243.282 74.9333 243.068 75.1893 242.791 75.392C242.524 75.5947 242.21 75.7493 241.847 75.856C241.495 75.952 241.116 76 240.711 76H236.775ZM238.167 74.816H240.391C240.722 74.816 241.031 74.784 241.319 74.72C241.607 74.656 241.842 74.5387 242.023 74.368C242.204 74.1867 242.295 73.9307 242.295 73.6C242.295 73.2587 242.215 73.0027 242.055 72.832C241.906 72.6507 241.708 72.528 241.463 72.464C241.228 72.3893 240.972 72.3467 240.695 72.336C240.418 72.3253 240.156 72.32 239.911 72.32H238.167V74.816ZM238.167 71.168H239.335C239.548 71.168 239.794 71.1573 240.071 71.136C240.359 71.1147 240.636 71.0667 240.903 70.992C241.18 70.9067 241.404 70.7787 241.575 70.608C241.756 70.4373 241.847 70.2027 241.847 69.904C241.847 69.5093 241.735 69.2373 241.511 69.088C241.298 68.928 241.042 68.8373 240.743 68.816C240.444 68.784 240.167 68.768 239.911 68.768H238.167V71.168ZM245.525 76V67.568H246.885V74.032C246.96 73.8827 247.061 73.7227 247.189 73.552C247.317 73.3707 247.418 73.232 247.493 73.136L251.573 67.568H252.917V76H251.557V69.536C251.472 69.696 251.376 69.8453 251.269 69.984C251.173 70.1227 251.082 70.2507 250.997 70.368L246.853 76H245.525ZM255.056 79.04V67.568H256.352L256.416 68.864C256.704 68.4053 257.094 68.0587 257.584 67.824C258.086 67.5893 258.624 67.472 259.2 67.472C260.054 67.472 260.752 67.664 261.296 68.048C261.84 68.4213 262.24 68.9333 262.496 69.584C262.763 70.2347 262.896 70.9707 262.896 71.792C262.896 72.6133 262.763 73.3493 262.496 74C262.23 74.6507 261.819 75.1627 261.264 75.536C260.71 75.9093 260 76.096 259.136 76.096C258.71 76.096 258.326 76.0533 257.984 75.968C257.643 75.872 257.344 75.7387 257.088 75.568C256.832 75.3973 256.608 75.2053 256.416 74.992V79.04H255.056ZM259.024 74.896C259.643 74.896 260.134 74.7573 260.496 74.48C260.859 74.192 261.12 73.8133 261.28 73.344C261.451 72.8747 261.536 72.3573 261.536 71.792C261.536 71.216 261.451 70.6933 261.28 70.224C261.12 69.7547 260.854 69.3813 260.48 69.104C260.107 68.8267 259.611 68.688 258.992 68.688C258.438 68.688 257.963 68.832 257.568 69.12C257.184 69.3973 256.891 69.776 256.688 70.256C256.486 70.7253 256.384 71.2427 256.384 71.808C256.384 72.3947 256.48 72.9227 256.672 73.392C256.864 73.8613 257.158 74.2293 257.552 74.496C257.947 74.7627 258.438 74.896 259.024 74.896ZM268.33 76.096C267.445 76.096 266.703 75.9147 266.106 75.552C265.509 75.1787 265.061 74.6667 264.762 74.016C264.474 73.3653 264.33 72.624 264.33 71.792C264.33 70.9493 264.474 70.208 264.762 69.568C265.061 68.9173 265.509 68.4053 266.106 68.032C266.703 67.6587 267.455 67.472 268.362 67.472C269.247 67.472 269.983 67.6587 270.57 68.032C271.167 68.4053 271.61 68.9173 271.898 69.568C272.197 70.208 272.346 70.9493 272.346 71.792C272.346 72.624 272.197 73.3653 271.898 74.016C271.599 74.6667 271.151 75.1787 270.554 75.552C269.967 75.9147 269.226 76.096 268.33 76.096ZM268.33 74.896C268.949 74.896 269.45 74.7573 269.834 74.48C270.229 74.2027 270.517 73.8293 270.698 73.36C270.89 72.8907 270.986 72.368 270.986 71.792C270.986 71.216 270.89 70.6933 270.698 70.224C270.517 69.7547 270.229 69.3813 269.834 69.104C269.45 68.8267 268.949 68.688 268.33 68.688C267.722 68.688 267.221 68.8267 266.826 69.104C266.442 69.3813 266.154 69.7547 265.962 70.224C265.781 70.6933 265.69 71.216 265.69 71.792C265.69 72.368 265.781 72.8907 265.962 73.36C266.154 73.8293 266.442 74.2027 266.826 74.48C267.221 74.7573 267.722 74.896 268.33 74.896ZM274.166 76V67.568H277.43C277.803 67.568 278.171 67.5947 278.534 67.648C278.907 67.6907 279.243 67.7867 279.542 67.936C279.851 68.0747 280.096 68.2827 280.278 68.56C280.47 68.8373 280.566 69.2053 280.566 69.664C280.566 69.9413 280.523 70.1973 280.438 70.432C280.352 70.656 280.224 70.8533 280.054 71.024C279.894 71.1947 279.686 71.344 279.43 71.472C280.006 71.6 280.422 71.8507 280.678 72.224C280.934 72.5973 281.062 73.024 281.062 73.504C281.062 73.9307 280.982 74.304 280.822 74.624C280.672 74.9333 280.459 75.1893 280.182 75.392C279.915 75.5947 279.6 75.7493 279.238 75.856C278.886 75.952 278.507 76 278.102 76H274.166ZM275.558 74.816H277.782C278.112 74.816 278.422 74.784 278.71 74.72C278.998 74.656 279.232 74.5387 279.414 74.368C279.595 74.1867 279.686 73.9307 279.686 73.6C279.686 73.2587 279.606 73.0027 279.446 72.832C279.296 72.6507 279.099 72.528 278.854 72.464C278.619 72.3893 278.363 72.3467 278.086 72.336C277.808 72.3253 277.547 72.32 277.302 72.32H275.558V74.816ZM275.558 71.168H276.726C276.939 71.168 277.184 71.1573 277.462 71.136C277.75 71.1147 278.027 71.0667 278.294 70.992C278.571 70.9067 278.795 70.7787 278.966 70.608C279.147 70.4373 279.238 70.2027 279.238 69.904C279.238 69.5093 279.126 69.2373 278.902 69.088C278.688 68.928 278.432 68.8373 278.134 68.816C277.835 68.784 277.558 68.768 277.302 68.768H275.558V71.168ZM285.62 76.096C285.236 76.096 284.862 76.048 284.5 75.952C284.148 75.8453 283.828 75.6907 283.54 75.488C283.262 75.2747 283.038 75.0133 282.868 74.704C282.708 74.384 282.628 74.016 282.628 73.6C282.628 73.12 282.713 72.7147 282.884 72.384C283.065 72.0533 283.305 71.792 283.604 71.6C283.902 71.408 284.249 71.2693 284.644 71.184C285.038 71.0987 285.449 71.056 285.876 71.056H288.356C288.356 70.576 288.286 70.16 288.148 69.808C288.02 69.456 287.806 69.184 287.508 68.992C287.209 68.7893 286.814 68.688 286.324 68.688C286.025 68.688 285.748 68.72 285.492 68.784C285.236 68.848 285.017 68.9493 284.836 69.088C284.654 69.2267 284.521 69.4133 284.436 69.648H282.98C283.054 69.264 283.198 68.9387 283.412 68.672C283.636 68.3947 283.902 68.1707 284.212 68C284.532 67.8187 284.873 67.6853 285.236 67.6C285.598 67.5147 285.961 67.472 286.324 67.472C287.134 67.472 287.785 67.6373 288.276 67.968C288.766 68.288 289.124 68.7467 289.348 69.344C289.572 69.9307 289.684 70.6293 289.684 71.44V76H288.548L288.468 74.928C288.233 75.248 287.95 75.4933 287.62 75.664C287.289 75.8347 286.948 75.9467 286.596 76C286.254 76.064 285.929 76.096 285.62 76.096ZM285.748 74.896C286.281 74.896 286.74 74.8107 287.124 74.64C287.518 74.4587 287.822 74.1973 288.036 73.856C288.249 73.5147 288.356 73.0987 288.356 72.608V72.192H286.868C286.516 72.192 286.169 72.1973 285.828 72.208C285.486 72.2187 285.177 72.2613 284.9 72.336C284.622 72.4107 284.398 72.5387 284.228 72.72C284.068 72.9013 283.988 73.1627 283.988 73.504C283.988 73.824 284.068 74.0853 284.228 74.288C284.398 74.4907 284.617 74.6453 284.884 74.752C285.161 74.848 285.449 74.896 285.748 74.896ZM293.759 76V68.768H290.863V67.568H298.015V68.768H295.119V76H293.759ZM299.228 76V67.568H300.62V70.784H302.476C302.978 70.784 303.426 70.8267 303.82 70.912C304.226 70.9867 304.572 71.12 304.86 71.312C305.148 71.504 305.367 71.7653 305.516 72.096C305.676 72.416 305.756 72.8267 305.756 73.328C305.756 73.7867 305.676 74.1867 305.516 74.528C305.356 74.8587 305.132 75.136 304.844 75.36C304.556 75.5733 304.21 75.7333 303.804 75.84C303.41 75.9467 302.972 76 302.492 76H299.228ZM300.62 74.816H301.42C301.794 74.816 302.151 74.8053 302.492 74.784C302.844 74.7627 303.164 74.7093 303.452 74.624C303.74 74.5387 303.964 74.4 304.124 74.208C304.295 74.0053 304.38 73.728 304.38 73.376C304.38 73.0347 304.311 72.7733 304.172 72.592C304.044 72.4 303.874 72.2613 303.66 72.176C303.447 72.08 303.212 72.0213 302.956 72C302.711 71.9787 302.466 71.968 302.22 71.968H300.62V74.816ZM314.958 76.096C314.403 76.096 313.87 76.0107 313.358 75.84C312.856 75.6587 312.43 75.3813 312.078 75.008C311.736 74.6347 311.507 74.16 311.39 73.584H312.798C312.883 73.9147 313.043 74.176 313.278 74.368C313.523 74.56 313.8 74.6987 314.11 74.784C314.419 74.8587 314.723 74.896 315.022 74.896C315.555 74.896 315.998 74.784 316.35 74.56C316.702 74.3253 316.968 74.0213 317.15 73.648C317.342 73.2747 317.443 72.864 317.454 72.416H313.758V71.232H317.47C317.438 70.7307 317.326 70.2933 317.134 69.92C316.942 69.536 316.67 69.2373 316.318 69.024C315.976 68.8 315.544 68.688 315.022 68.688C314.712 68.688 314.403 68.7307 314.094 68.816C313.795 68.8907 313.534 69.024 313.31 69.216C313.086 69.3973 312.931 69.6533 312.846 69.984H311.47C311.608 69.408 311.848 68.9387 312.19 68.576C312.531 68.2027 312.947 67.9253 313.438 67.744C313.928 67.5627 314.456 67.472 315.022 67.472C315.928 67.472 316.659 67.6587 317.214 68.032C317.779 68.4053 318.19 68.9173 318.446 69.568C318.712 70.2187 318.846 70.96 318.846 71.792C318.846 72.6453 318.707 73.3973 318.43 74.048C318.152 74.688 317.726 75.1893 317.15 75.552C316.584 75.9147 315.854 76.096 314.958 76.096ZM322.571 76V68.768H319.675V67.568H326.827V68.768H323.931V76H322.571ZM328.625 79.616V78.32C329.148 78.32 329.564 78.2453 329.873 78.096C330.183 77.9573 330.439 77.7333 330.641 77.424C330.855 77.1253 331.057 76.7413 331.249 76.272L327.553 67.568H329.153L332.001 74.672L334.337 67.568H335.873L333.505 74.208C333.388 74.5493 333.255 74.9333 333.105 75.36C332.956 75.7867 332.791 76.2187 332.609 76.656C332.428 77.104 332.225 77.5147 332.001 77.888C331.788 78.272 331.548 78.5813 331.281 78.816C331.057 79.0187 330.839 79.1787 330.625 79.296C330.412 79.4133 330.151 79.4933 329.841 79.536C329.543 79.5893 329.137 79.616 328.625 79.616ZM106.072 96V87.568H107.432V91.2H108.904L111.4 87.568H112.952L110.136 91.584L113.192 96H111.592L109.064 92.384H107.432V96H106.072ZM114.369 96V87.568H115.729V91.264H119.953V87.568H121.313V96H119.953V92.464H115.729V96H114.369ZM127.143 96.096C126.257 96.096 125.516 95.9147 124.919 95.552C124.321 95.1787 123.873 94.6667 123.575 94.016C123.287 93.3653 123.143 92.624 123.143 91.792C123.143 90.9493 123.287 90.208 123.575 89.568C123.873 88.9173 124.321 88.4053 124.919 88.032C125.516 87.6587 126.268 87.472 127.175 87.472C128.06 87.472 128.796 87.6587 129.383 88.032C129.98 88.4053 130.423 88.9173 130.711 89.568C131.009 90.208 131.159 90.9493 131.159 91.792C131.159 92.624 131.009 93.3653 130.711 94.016C130.412 94.6667 129.964 95.1787 129.367 95.552C128.78 95.9147 128.039 96.096 127.143 96.096ZM127.143 94.896C127.761 94.896 128.263 94.7573 128.647 94.48C129.041 94.2027 129.329 93.8293 129.511 93.36C129.703 92.8907 129.799 92.368 129.799 91.792C129.799 91.216 129.703 90.6933 129.511 90.224C129.329 89.7547 129.041 89.3813 128.647 89.104C128.263 88.8267 127.761 88.688 127.143 88.688C126.535 88.688 126.033 88.8267 125.639 89.104C125.255 89.3813 124.967 89.7547 124.775 90.224C124.593 90.6933 124.503 91.216 124.503 91.792C124.503 92.368 124.593 92.8907 124.775 93.36C124.967 93.8293 125.255 94.2027 125.639 94.48C126.033 94.7573 126.535 94.896 127.143 94.896ZM132.978 96V87.568H139.97V96H138.61V88.768H134.338V96H132.978ZM142.119 96V87.568H143.479V91.2H144.951L147.447 87.568H148.999L146.183 91.584L149.239 96H147.639L145.111 92.384H143.479V96H142.119ZM150.688 99.616V98.32C151.21 98.32 151.626 98.2453 151.936 98.096C152.245 97.9573 152.501 97.7333 152.704 97.424C152.917 97.1253 153.12 96.7413 153.312 96.272L149.616 87.568H151.216L154.064 94.672L156.4 87.568H157.936L155.568 94.208C155.45 94.5493 155.317 94.9333 155.168 95.36C155.018 95.7867 154.853 96.2187 154.672 96.656C154.49 97.104 154.288 97.5147 154.064 97.888C153.85 98.272 153.61 98.5813 153.344 98.816C153.12 99.0187 152.901 99.1787 152.688 99.296C152.474 99.4133 152.213 99.4933 151.904 99.536C151.605 99.5893 151.2 99.616 150.688 99.616Z" fill="black"/>
</svg>
