<svg width="408" height="171" viewBox="0 0 408 171" fill="none" xmlns="http://www.w3.org/2000/svg">
<rect width="408" height="171" rx="30" fill="white"/>
<path d="M79.168 41C85.1451 41 89.9902 45.8452 89.9902 51.8223V73.2002C89.9902 79.1773 85.1451 84.0234 79.168 84.0234H40.8232C34.8461 84.0234 30 79.1773 30 73.2002V51.8223C30 45.8452 34.8461 41 40.8232 41H79.168ZM39.626 72.7881H44.0322L45.29 69.332H54.2275L55.4736 72.7881H59.8701L52.0762 52.5615H47.5088L39.626 72.7881ZM62.8994 52.5615V72.7881L66.9824 72.7822V65.6709H70.6055L74.5488 72.7822H79.1445L74.6631 65.0146C75.4904 64.7366 76.2558 64.3003 76.917 63.7305C77.5413 63.1838 78.0303 62.4994 78.3447 61.7314C78.68 60.8929 78.8452 59.9957 78.8311 59.0928C78.8721 57.9769 78.6527 56.8666 78.1895 55.8506C77.7932 55.0425 77.1853 54.3567 76.4307 53.8662C75.6657 53.3818 74.8191 53.0398 73.9326 52.8555C72.9806 52.6551 72.0099 52.556 71.0371 52.5615H62.8994ZM52.9434 65.6475H46.6064L49.8037 56.9121L52.9434 65.6475ZM71.2529 56.3701C71.8381 56.3808 72.4202 56.4625 72.9863 56.6133C73.4998 56.7445 73.9595 57.0332 74.2998 57.4395C74.6382 57.9163 74.795 58.4987 74.7422 59.0811C74.7593 59.5649 74.6588 60.046 74.4492 60.4824C74.2553 60.8523 73.9692 61.1667 73.6191 61.3945C73.2348 61.6361 72.8093 61.8058 72.3643 61.8955C71.8328 62.0029 71.2912 62.0549 70.749 62.0508H66.9824L66.9766 56.3701H71.2529Z" fill="#010101"/>
<path d="M111.096 56.128C109.923 56.128 108.941 55.8773 108.152 55.376C107.363 54.8747 106.765 54.1867 106.36 53.312C105.965 52.4373 105.768 51.4507 105.768 50.352C105.768 49.2427 105.965 48.2507 106.36 47.376C106.765 46.5013 107.363 45.8133 108.152 45.312C108.941 44.8107 109.923 44.56 111.096 44.56C112.269 44.56 113.245 44.8107 114.024 45.312C114.813 45.8133 115.405 46.5013 115.8 47.376C116.205 48.2507 116.408 49.2427 116.408 50.352C116.408 51.4507 116.205 52.4373 115.8 53.312C115.405 54.1867 114.813 54.8747 114.024 55.376C113.245 55.8773 112.269 56.128 111.096 56.128ZM111.096 54.864C111.992 54.864 112.728 54.6613 113.304 54.256C113.88 53.84 114.301 53.2907 114.568 52.608C114.845 51.9253 114.984 51.1733 114.984 50.352C114.984 49.7333 114.904 49.152 114.744 48.608C114.595 48.0533 114.36 47.568 114.04 47.152C113.72 46.736 113.315 46.4107 112.824 46.176C112.333 45.9413 111.757 45.824 111.096 45.824C110.211 45.824 109.475 46.032 108.888 46.448C108.312 46.864 107.88 47.4133 107.592 48.096C107.315 48.7787 107.176 49.5307 107.176 50.352C107.176 51.1627 107.315 51.9093 107.592 52.592C107.869 53.2747 108.296 53.824 108.872 54.24C109.459 54.656 110.2 54.864 111.096 54.864ZM120.368 56V48.768H117.472V47.568H124.624V48.768H121.728V56H120.368ZM125.838 56V47.568H127.198V51.2H128.67L131.166 47.568H132.718L129.902 51.584L132.958 56H131.358L128.83 52.384H127.198V56H125.838ZM134.135 59.04V47.568H135.431L135.495 48.864C135.783 48.4053 136.172 48.0587 136.663 47.824C137.164 47.5893 137.703 47.472 138.279 47.472C139.132 47.472 139.831 47.664 140.375 48.048C140.919 48.4213 141.319 48.9333 141.575 49.584C141.841 50.2347 141.975 50.9707 141.975 51.792C141.975 52.6133 141.841 53.3493 141.575 54C141.308 54.6507 140.897 55.1627 140.343 55.536C139.788 55.9093 139.079 56.096 138.215 56.096C137.788 56.096 137.404 56.0533 137.062 55.968C136.721 55.872 136.423 55.7387 136.167 55.568C135.911 55.3973 135.687 55.2053 135.495 54.992V59.04H134.135ZM138.103 54.896C138.721 54.896 139.212 54.7573 139.575 54.48C139.937 54.192 140.199 53.8133 140.359 53.344C140.529 52.8747 140.615 52.3573 140.615 51.792C140.615 51.216 140.529 50.6933 140.359 50.224C140.199 49.7547 139.932 49.3813 139.559 49.104C139.185 48.8267 138.689 48.688 138.071 48.688C137.516 48.688 137.041 48.832 136.647 49.12C136.263 49.3973 135.969 49.776 135.767 50.256C135.564 50.7253 135.463 51.2427 135.463 51.808C135.463 52.3947 135.559 52.9227 135.751 53.392C135.943 53.8613 136.236 54.2293 136.631 54.496C137.025 54.7627 137.516 54.896 138.103 54.896ZM143.728 56V47.568H145.12V50.784H146.64C147.142 50.784 147.595 50.8267 148 50.912C148.406 50.9973 148.752 51.136 149.04 51.328C149.328 51.52 149.547 51.7813 149.696 52.112C149.846 52.432 149.92 52.8373 149.92 53.328C149.92 53.7973 149.84 54.2027 149.68 54.544C149.52 54.8853 149.291 55.1627 148.992 55.376C148.704 55.5893 148.358 55.7493 147.952 55.856C147.558 55.952 147.126 56 146.656 56H143.728ZM145.12 54.816H145.568C145.942 54.816 146.304 54.8107 146.656 54.8C147.008 54.7787 147.323 54.7253 147.6 54.64C147.888 54.5547 148.118 54.416 148.288 54.224C148.459 54.0213 148.544 53.7387 148.544 53.376C148.544 53.0347 148.475 52.7733 148.336 52.592C148.208 52.4 148.038 52.2613 147.824 52.176C147.611 52.08 147.376 52.0213 147.12 52C146.875 51.9787 146.63 51.968 146.384 51.968H145.12V54.816ZM151.088 56V47.568H152.448V56H151.088ZM154.588 56V47.568H157.852C158.225 47.568 158.593 47.5947 158.956 47.648C159.329 47.6907 159.665 47.7867 159.964 47.936C160.273 48.0747 160.518 48.2827 160.7 48.56C160.892 48.8373 160.988 49.2053 160.988 49.664C160.988 49.9413 160.945 50.1973 160.86 50.432C160.774 50.656 160.646 50.8533 160.476 51.024C160.316 51.1947 160.108 51.344 159.852 51.472C160.428 51.6 160.844 51.8507 161.1 52.224C161.356 52.5973 161.484 53.024 161.484 53.504C161.484 53.9307 161.404 54.304 161.244 54.624C161.094 54.9333 160.881 55.1893 160.604 55.392C160.337 55.5947 160.022 55.7493 159.66 55.856C159.308 55.952 158.929 56 158.524 56H154.588ZM155.98 54.816H158.204C158.534 54.816 158.844 54.784 159.132 54.72C159.42 54.656 159.654 54.5387 159.836 54.368C160.017 54.1867 160.108 53.9307 160.108 53.6C160.108 53.2587 160.028 53.0027 159.868 52.832C159.718 52.6507 159.521 52.528 159.276 52.464C159.041 52.3893 158.785 52.3467 158.508 52.336C158.23 52.3253 157.969 52.32 157.724 52.32H155.98V54.816ZM155.98 51.168H157.148C157.361 51.168 157.606 51.1573 157.884 51.136C158.172 51.1147 158.449 51.0667 158.716 50.992C158.993 50.9067 159.217 50.7787 159.388 50.608C159.569 50.4373 159.66 50.2027 159.66 49.904C159.66 49.5093 159.548 49.2373 159.324 49.088C159.11 48.928 158.854 48.8373 158.556 48.816C158.257 48.784 157.98 48.768 157.724 48.768H155.98V51.168ZM166.042 56.096C165.658 56.096 165.284 56.048 164.922 55.952C164.57 55.8453 164.25 55.6907 163.962 55.488C163.684 55.2747 163.46 55.0133 163.29 54.704C163.13 54.384 163.05 54.016 163.05 53.6C163.05 53.12 163.135 52.7147 163.306 52.384C163.487 52.0533 163.727 51.792 164.026 51.6C164.324 51.408 164.671 51.2693 165.066 51.184C165.46 51.0987 165.871 51.056 166.298 51.056H168.778C168.778 50.576 168.708 50.16 168.57 49.808C168.442 49.456 168.228 49.184 167.93 48.992C167.631 48.7893 167.236 48.688 166.746 48.688C166.447 48.688 166.17 48.72 165.914 48.784C165.658 48.848 165.439 48.9493 165.258 49.088C165.076 49.2267 164.943 49.4133 164.858 49.648H163.402C163.476 49.264 163.62 48.9387 163.834 48.672C164.058 48.3947 164.324 48.1707 164.634 48C164.954 47.8187 165.295 47.6853 165.658 47.6C166.02 47.5147 166.383 47.472 166.746 47.472C167.556 47.472 168.207 47.6373 168.698 47.968C169.188 48.288 169.546 48.7467 169.77 49.344C169.994 49.9307 170.106 50.6293 170.106 51.44V56H168.97L168.89 54.928C168.655 55.248 168.372 55.4933 168.042 55.664C167.711 55.8347 167.37 55.9467 167.018 56C166.676 56.064 166.351 56.096 166.042 56.096ZM166.17 54.896C166.703 54.896 167.162 54.8107 167.546 54.64C167.94 54.4587 168.244 54.1973 168.458 53.856C168.671 53.5147 168.778 53.0987 168.778 52.608V52.192H167.29C166.938 52.192 166.591 52.1973 166.25 52.208C165.908 52.2187 165.599 52.2613 165.322 52.336C165.044 52.4107 164.82 52.5387 164.65 52.72C164.49 52.9013 164.41 53.1627 164.41 53.504C164.41 53.824 164.49 54.0853 164.65 54.288C164.82 54.4907 165.039 54.6453 165.306 54.752C165.583 54.848 165.871 54.896 166.17 54.896ZM175.861 56.096C174.965 56.096 174.223 55.9147 173.637 55.552C173.05 55.1787 172.613 54.6667 172.325 54.016C172.037 53.3653 171.893 52.624 171.893 51.792C171.893 50.9493 172.042 50.208 172.341 49.568C172.65 48.9173 173.098 48.4053 173.685 48.032C174.271 47.6587 174.991 47.472 175.845 47.472C176.474 47.472 177.023 47.5947 177.493 47.84C177.973 48.0747 178.367 48.3947 178.677 48.8C178.997 49.2053 179.226 49.6587 179.365 50.16C179.514 50.6613 179.578 51.1787 179.557 51.712C179.546 51.808 179.541 51.904 179.541 52C179.541 52.096 179.535 52.192 179.525 52.288H173.269C173.311 52.7787 173.434 53.2213 173.637 53.616C173.839 54.0107 174.127 54.3253 174.501 54.56C174.874 54.784 175.338 54.896 175.893 54.896C176.17 54.896 176.447 54.864 176.725 54.8C177.013 54.7253 177.269 54.6027 177.493 54.432C177.727 54.2613 177.893 54.032 177.989 53.744H179.381C179.253 54.288 179.013 54.736 178.661 55.088C178.309 55.4293 177.887 55.6853 177.397 55.856C176.906 56.016 176.394 56.096 175.861 56.096ZM173.301 51.104H178.181C178.17 50.624 178.063 50.2027 177.861 49.84C177.658 49.4773 177.381 49.1947 177.029 48.992C176.687 48.7893 176.277 48.688 175.797 48.688C175.274 48.688 174.831 48.8 174.469 49.024C174.117 49.248 173.845 49.5413 173.653 49.904C173.461 50.2667 173.343 50.6667 173.301 51.104ZM183.353 56V48.768H180.457V47.568H187.609V48.768H184.713V56H183.353ZM193.135 56V47.568H194.959L197.695 51.792L200.383 47.568H202.175V56H200.831V49.072L197.855 53.84H197.471L194.479 49.072V56H193.135ZM208.002 56.096C207.117 56.096 206.375 55.9147 205.778 55.552C205.181 55.1787 204.733 54.6667 204.434 54.016C204.146 53.3653 204.002 52.624 204.002 51.792C204.002 50.9493 204.146 50.208 204.434 49.568C204.733 48.9173 205.181 48.4053 205.778 48.032C206.375 47.6587 207.127 47.472 208.034 47.472C208.919 47.472 209.655 47.6587 210.242 48.032C210.839 48.4053 211.282 48.9173 211.57 49.568C211.869 50.208 212.018 50.9493 212.018 51.792C212.018 52.624 211.869 53.3653 211.57 54.016C211.271 54.6667 210.823 55.1787 210.226 55.552C209.639 55.9147 208.898 56.096 208.002 56.096ZM208.002 54.896C208.621 54.896 209.122 54.7573 209.506 54.48C209.901 54.2027 210.189 53.8293 210.37 53.36C210.562 52.8907 210.658 52.368 210.658 51.792C210.658 51.216 210.562 50.6933 210.37 50.224C210.189 49.7547 209.901 49.3813 209.506 49.104C209.122 48.8267 208.621 48.688 208.002 48.688C207.394 48.688 206.893 48.8267 206.498 49.104C206.114 49.3813 205.826 49.7547 205.634 50.224C205.453 50.6933 205.362 51.216 205.362 51.792C205.362 52.368 205.453 52.8907 205.634 53.36C205.826 53.8293 206.114 54.2027 206.498 54.48C206.893 54.7573 207.394 54.896 208.002 54.896ZM212.93 58.592V54.816C213.239 54.816 213.485 54.7307 213.666 54.56C213.858 54.3893 214.007 54.1653 214.114 53.888C214.221 53.6107 214.301 53.312 214.354 52.992C214.407 52.6613 214.45 52.3467 214.482 52.048C214.535 51.5573 214.567 51.072 214.578 50.592C214.599 50.1013 214.61 49.712 214.61 49.424C214.621 49.1147 214.626 48.8053 214.626 48.496C214.626 48.1867 214.626 47.8773 214.626 47.568H220.61V54.816H221.714V58.592H220.402V56H214.242V58.592H212.93ZM215.09 54.816H219.25V48.768H215.922C215.911 49.216 215.901 49.7173 215.89 50.272C215.879 50.8267 215.858 51.344 215.826 51.824C215.815 52.1013 215.789 52.416 215.746 52.768C215.714 53.12 215.65 53.4773 215.554 53.84C215.458 54.192 215.303 54.5173 215.09 54.816ZM226.783 56.096C225.887 56.096 225.145 55.9147 224.559 55.552C223.972 55.1787 223.535 54.6667 223.247 54.016C222.959 53.3653 222.815 52.624 222.815 51.792C222.815 50.9493 222.964 50.208 223.263 49.568C223.572 48.9173 224.02 48.4053 224.607 48.032C225.193 47.6587 225.913 47.472 226.766 47.472C227.396 47.472 227.945 47.5947 228.415 47.84C228.895 48.0747 229.289 48.3947 229.599 48.8C229.919 49.2053 230.148 49.6587 230.286 50.16C230.436 50.6613 230.5 51.1787 230.479 51.712C230.468 51.808 230.463 51.904 230.463 52C230.463 52.096 230.457 52.192 230.447 52.288H224.191C224.233 52.7787 224.356 53.2213 224.559 53.616C224.761 54.0107 225.049 54.3253 225.423 54.56C225.796 54.784 226.26 54.896 226.815 54.896C227.092 54.896 227.369 54.864 227.647 54.8C227.935 54.7253 228.191 54.6027 228.415 54.432C228.649 54.2613 228.815 54.032 228.911 53.744H230.303C230.175 54.288 229.935 54.736 229.583 55.088C229.231 55.4293 228.809 55.6853 228.319 55.856C227.828 56.016 227.316 56.096 226.783 56.096ZM224.223 51.104H229.103C229.092 50.624 228.985 50.2027 228.783 49.84C228.58 49.4773 228.303 49.1947 227.951 48.992C227.609 48.7893 227.199 48.688 226.719 48.688C226.196 48.688 225.753 48.8 225.391 49.024C225.039 49.248 224.767 49.5413 224.575 49.904C224.383 50.2667 224.265 50.6667 224.223 51.104ZM231.46 56.016V54.832C231.674 54.832 231.866 54.7893 232.036 54.704C232.207 54.608 232.356 54.4693 232.484 54.288C232.634 54.0747 232.751 53.7653 232.836 53.36C232.922 52.9547 232.98 52.5227 233.012 52.064C233.055 51.552 233.087 51.0507 233.108 50.56C233.13 50.0587 233.146 49.5627 233.156 49.072C233.178 48.5813 233.188 48.08 233.188 47.568H239.044V56H237.684V48.768H234.516C234.506 49.1307 234.49 49.4987 234.468 49.872C234.458 50.2347 234.442 50.6027 234.42 50.976C234.41 51.3387 234.394 51.7067 234.372 52.08C234.362 52.5067 234.319 52.9867 234.244 53.52C234.17 54.0533 234.01 54.5387 233.764 54.976C233.53 55.392 233.242 55.6693 232.9 55.808C232.57 55.9467 232.09 56.016 231.46 56.016ZM241.181 56V47.568H242.573V50.784H244.429C244.931 50.784 245.379 50.8267 245.773 50.912C246.179 50.9867 246.525 51.12 246.813 51.312C247.101 51.504 247.32 51.7653 247.469 52.096C247.629 52.416 247.709 52.8267 247.709 53.328C247.709 53.7867 247.629 54.1867 247.469 54.528C247.309 54.8587 247.085 55.136 246.797 55.36C246.509 55.5733 246.163 55.7333 245.757 55.84C245.363 55.9467 244.925 56 244.445 56H241.181ZM242.573 54.816H243.373C243.747 54.816 244.104 54.8053 244.445 54.784C244.797 54.7627 245.117 54.7093 245.405 54.624C245.693 54.5387 245.917 54.4 246.077 54.208C246.248 54.0053 246.333 53.728 246.333 53.376C246.333 53.0347 246.264 52.7733 246.125 52.592C245.997 52.4 245.827 52.2613 245.613 52.176C245.4 52.08 245.165 52.0213 244.909 52C244.664 51.9787 244.419 51.968 244.173 51.968H242.573V54.816ZM253.791 56V47.568H257.055C257.428 47.568 257.796 47.5947 258.159 47.648C258.532 47.6907 258.868 47.7867 259.167 47.936C259.476 48.0747 259.721 48.2827 259.903 48.56C260.095 48.8373 260.191 49.2053 260.191 49.664C260.191 49.9413 260.148 50.1973 260.063 50.432C259.977 50.656 259.849 50.8533 259.679 51.024C259.519 51.1947 259.311 51.344 259.055 51.472C259.631 51.6 260.047 51.8507 260.303 52.224C260.559 52.5973 260.687 53.024 260.687 53.504C260.687 53.9307 260.607 54.304 260.447 54.624C260.297 54.9333 260.084 55.1893 259.807 55.392C259.54 55.5947 259.225 55.7493 258.863 55.856C258.511 55.952 258.132 56 257.727 56H253.791ZM255.183 54.816H257.407C257.737 54.816 258.047 54.784 258.335 54.72C258.623 54.656 258.857 54.5387 259.039 54.368C259.22 54.1867 259.311 53.9307 259.311 53.6C259.311 53.2587 259.231 53.0027 259.071 52.832C258.921 52.6507 258.724 52.528 258.479 52.464C258.244 52.3893 257.988 52.3467 257.711 52.336C257.433 52.3253 257.172 52.32 256.927 52.32H255.183V54.816ZM255.183 51.168H256.351C256.564 51.168 256.809 51.1573 257.087 51.136C257.375 51.1147 257.652 51.0667 257.919 50.992C258.196 50.9067 258.42 50.7787 258.591 50.608C258.772 50.4373 258.863 50.2027 258.863 49.904C258.863 49.5093 258.751 49.2373 258.527 49.088C258.313 48.928 258.057 48.8373 257.759 48.816C257.46 48.784 257.183 48.768 256.927 48.768H255.183V51.168ZM266.853 59.04V47.568H268.149L268.213 48.864C268.501 48.4053 268.891 48.0587 269.381 47.824C269.883 47.5893 270.421 47.472 270.997 47.472C271.851 47.472 272.549 47.664 273.093 48.048C273.637 48.4213 274.037 48.9333 274.293 49.584C274.56 50.2347 274.693 50.9707 274.693 51.792C274.693 52.6133 274.56 53.3493 274.293 54C274.027 54.6507 273.616 55.1627 273.061 55.536C272.507 55.9093 271.797 56.096 270.933 56.096C270.507 56.096 270.123 56.0533 269.781 55.968C269.44 55.872 269.141 55.7387 268.885 55.568C268.629 55.3973 268.405 55.2053 268.213 54.992V59.04H266.853ZM270.821 54.896C271.44 54.896 271.931 54.7573 272.293 54.48C272.656 54.192 272.917 53.8133 273.077 53.344C273.248 52.8747 273.333 52.3573 273.333 51.792C273.333 51.216 273.248 50.6933 273.077 50.224C272.917 49.7547 272.651 49.3813 272.277 49.104C271.904 48.8267 271.408 48.688 270.789 48.688C270.235 48.688 269.76 48.832 269.365 49.12C268.981 49.3973 268.688 49.776 268.485 50.256C268.283 50.7253 268.181 51.2427 268.181 51.808C268.181 52.3947 268.277 52.9227 268.469 53.392C268.661 53.8613 268.955 54.2293 269.349 54.496C269.744 54.7627 270.235 54.896 270.821 54.896ZM280.095 56.096C279.199 56.096 278.458 55.9147 277.871 55.552C277.284 55.1787 276.847 54.6667 276.559 54.016C276.271 53.3653 276.127 52.624 276.127 51.792C276.127 50.9493 276.276 50.208 276.575 49.568C276.884 48.9173 277.332 48.4053 277.919 48.032C278.506 47.6587 279.226 47.472 280.079 47.472C280.708 47.472 281.258 47.5947 281.727 47.84C282.207 48.0747 282.602 48.3947 282.911 48.8C283.231 49.2053 283.46 49.6587 283.599 50.16C283.748 50.6613 283.812 51.1787 283.791 51.712C283.78 51.808 283.775 51.904 283.775 52C283.775 52.096 283.77 52.192 283.759 52.288H277.503C277.546 52.7787 277.668 53.2213 277.871 53.616C278.074 54.0107 278.362 54.3253 278.735 54.56C279.108 54.784 279.572 54.896 280.127 54.896C280.404 54.896 280.682 54.864 280.959 54.8C281.247 54.7253 281.503 54.6027 281.727 54.432C281.962 54.2613 282.127 54.032 282.223 53.744H283.615C283.487 54.288 283.247 54.736 282.895 55.088C282.543 55.4293 282.122 55.6853 281.631 55.856C281.14 56.016 280.628 56.096 280.095 56.096ZM277.535 51.104H282.415C282.404 50.624 282.298 50.2027 282.095 49.84C281.892 49.4773 281.615 49.1947 281.263 48.992C280.922 48.7893 280.511 48.688 280.031 48.688C279.508 48.688 279.066 48.8 278.703 49.024C278.351 49.248 278.079 49.5413 277.887 49.904C277.695 50.2667 277.578 50.6667 277.535 51.104ZM284.615 56L287.351 51.584L284.855 47.568H286.311L288.535 51.216H289.799V47.568H291.159V51.216H292.423L294.647 47.568H296.103L293.607 51.584L296.343 56H294.759L292.567 52.368H291.159V56H289.799V52.368H288.391L286.199 56H284.615ZM297.635 56V47.568H298.995V54.032C299.069 53.8827 299.171 53.7227 299.299 53.552C299.427 53.3707 299.528 53.232 299.603 53.136L303.683 47.568H305.027V56H303.667V49.536C303.581 49.696 303.485 49.8453 303.379 49.984C303.283 50.1227 303.192 50.2507 303.107 50.368L298.963 56H297.635ZM307.166 56V47.568H308.99L311.726 51.792L314.414 47.568H316.206V56H314.862V49.072L311.886 53.84H311.502L308.51 49.072V56H307.166ZM322.001 56.096C321.105 56.096 320.364 55.9147 319.777 55.552C319.191 55.1787 318.753 54.6667 318.465 54.016C318.177 53.3653 318.033 52.624 318.033 51.792C318.033 50.9493 318.183 50.208 318.481 49.568C318.791 48.9173 319.239 48.4053 319.825 48.032C320.412 47.6587 321.132 47.472 321.985 47.472C322.615 47.472 323.164 47.5947 323.633 47.84C324.113 48.0747 324.508 48.3947 324.817 48.8C325.137 49.2053 325.367 49.6587 325.505 50.16C325.655 50.6613 325.719 51.1787 325.697 51.712C325.687 51.808 325.681 51.904 325.681 52C325.681 52.096 325.676 52.192 325.665 52.288H319.409C319.452 52.7787 319.575 53.2213 319.777 53.616C319.98 54.0107 320.268 54.3253 320.641 54.56C321.015 54.784 321.479 54.896 322.033 54.896C322.311 54.896 322.588 54.864 322.865 54.8C323.153 54.7253 323.409 54.6027 323.633 54.432C323.868 54.2613 324.033 54.032 324.129 53.744H325.521C325.393 54.288 325.153 54.736 324.801 55.088C324.449 55.4293 324.028 55.6853 323.537 55.856C323.047 56.016 322.535 56.096 322.001 56.096ZM319.441 51.104H324.321C324.311 50.624 324.204 50.2027 324.001 49.84C323.799 49.4773 323.521 49.1947 323.169 48.992C322.828 48.7893 322.417 48.688 321.937 48.688C321.415 48.688 320.972 48.8 320.609 49.024C320.257 49.248 319.985 49.5413 319.793 49.904C319.601 50.2667 319.484 50.6667 319.441 51.104ZM105.352 78.592V74.816C105.661 74.816 105.907 74.7307 106.088 74.56C106.28 74.3893 106.429 74.1653 106.536 73.888C106.643 73.6107 106.723 73.312 106.776 72.992C106.829 72.6613 106.872 72.3467 106.904 72.048C106.957 71.5573 106.989 71.072 107 70.592C107.021 70.1013 107.032 69.712 107.032 69.424C107.043 69.1147 107.048 68.8053 107.048 68.496C107.048 68.1867 107.048 67.8773 107.048 67.568H113.032V74.816H114.136V78.592H112.824V76H106.664V78.592H105.352ZM107.512 74.816H111.672V68.768H108.344C108.333 69.216 108.323 69.7173 108.312 70.272C108.301 70.8267 108.28 71.344 108.248 71.824C108.237 72.1013 108.211 72.416 108.168 72.768C108.136 73.12 108.072 73.4773 107.976 73.84C107.88 74.192 107.725 74.5173 107.512 74.816ZM119.236 76.096C118.351 76.096 117.61 75.9147 117.012 75.552C116.415 75.1787 115.967 74.6667 115.668 74.016C115.38 73.3653 115.236 72.624 115.236 71.792C115.236 70.9493 115.38 70.208 115.668 69.568C115.967 68.9173 116.415 68.4053 117.012 68.032C117.61 67.6587 118.362 67.472 119.268 67.472C120.154 67.472 120.89 67.6587 121.476 68.032C122.074 68.4053 122.516 68.9173 122.804 69.568C123.103 70.208 123.252 70.9493 123.252 71.792C123.252 72.624 123.103 73.3653 122.804 74.016C122.506 74.6667 122.058 75.1787 121.46 75.552C120.874 75.9147 120.132 76.096 119.236 76.096ZM119.236 74.896C119.855 74.896 120.356 74.7573 120.74 74.48C121.135 74.2027 121.423 73.8293 121.604 73.36C121.796 72.8907 121.892 72.368 121.892 71.792C121.892 71.216 121.796 70.6933 121.604 70.224C121.423 69.7547 121.135 69.3813 120.74 69.104C120.356 68.8267 119.855 68.688 119.236 68.688C118.628 68.688 118.127 68.8267 117.732 69.104C117.348 69.3813 117.06 69.7547 116.868 70.224C116.687 70.6933 116.596 71.216 116.596 71.792C116.596 72.368 116.687 72.8907 116.868 73.36C117.06 73.8293 117.348 74.2027 117.732 74.48C118.127 74.7573 118.628 74.896 119.236 74.896ZM125.072 76V67.568H132.064V76H130.704V68.768H126.432V76H125.072ZM137.893 76.096C137.007 76.096 136.266 75.9147 135.669 75.552C135.071 75.1787 134.623 74.6667 134.325 74.016C134.037 73.3653 133.893 72.624 133.893 71.792C133.893 70.9493 134.037 70.208 134.325 69.568C134.623 68.9173 135.071 68.4053 135.669 68.032C136.266 67.6587 137.018 67.472 137.925 67.472C138.81 67.472 139.546 67.6587 140.133 68.032C140.73 68.4053 141.173 68.9173 141.461 69.568C141.759 70.208 141.909 70.9493 141.909 71.792C141.909 72.624 141.759 73.3653 141.461 74.016C141.162 74.6667 140.714 75.1787 140.117 75.552C139.53 75.9147 138.789 76.096 137.893 76.096ZM137.893 74.896C138.511 74.896 139.013 74.7573 139.397 74.48C139.791 74.2027 140.079 73.8293 140.261 73.36C140.453 72.8907 140.549 72.368 140.549 71.792C140.549 71.216 140.453 70.6933 140.261 70.224C140.079 69.7547 139.791 69.3813 139.397 69.104C139.013 68.8267 138.511 68.688 137.893 68.688C137.285 68.688 136.783 68.8267 136.389 69.104C136.005 69.3813 135.717 69.7547 135.525 70.224C135.343 70.6933 135.253 71.216 135.253 71.792C135.253 72.368 135.343 72.8907 135.525 73.36C135.717 73.8293 136.005 74.2027 136.389 74.48C136.783 74.7573 137.285 74.896 137.893 74.896ZM142.882 76.016V74.832C143.095 74.832 143.287 74.7893 143.458 74.704C143.629 74.608 143.778 74.4693 143.906 74.288C144.055 74.0747 144.173 73.7653 144.258 73.36C144.343 72.9547 144.402 72.5227 144.434 72.064C144.477 71.552 144.509 71.0507 144.53 70.56C144.551 70.0587 144.567 69.5627 144.578 69.072C144.599 68.5813 144.61 68.08 144.61 67.568H150.466V76H149.106V68.768H145.938C145.927 69.1307 145.911 69.4987 145.89 69.872C145.879 70.2347 145.863 70.6027 145.842 70.976C145.831 71.3387 145.815 71.7067 145.794 72.08C145.783 72.5067 145.741 72.9867 145.666 73.52C145.591 74.0533 145.431 74.5387 145.186 74.976C144.951 75.392 144.663 75.6693 144.322 75.808C143.991 75.9467 143.511 76.016 142.882 76.016ZM152.603 76V67.568H153.963V71.264H158.187V67.568H159.547V76H158.187V72.464H153.963V76H152.603ZM165.345 76.096C164.449 76.096 163.708 75.9147 163.121 75.552C162.534 75.1787 162.097 74.6667 161.809 74.016C161.521 73.3653 161.377 72.624 161.377 71.792C161.377 70.9493 161.526 70.208 161.825 69.568C162.134 68.9173 162.582 68.4053 163.169 68.032C163.756 67.6587 164.476 67.472 165.329 67.472C165.958 67.472 166.508 67.5947 166.977 67.84C167.457 68.0747 167.852 68.3947 168.161 68.8C168.481 69.2053 168.71 69.6587 168.849 70.16C168.998 70.6613 169.062 71.1787 169.041 71.712C169.03 71.808 169.025 71.904 169.025 72C169.025 72.096 169.02 72.192 169.009 72.288H162.753C162.796 72.7787 162.918 73.2213 163.121 73.616C163.324 74.0107 163.612 74.3253 163.985 74.56C164.358 74.784 164.822 74.896 165.377 74.896C165.654 74.896 165.932 74.864 166.209 74.8C166.497 74.7253 166.753 74.6027 166.977 74.432C167.212 74.2613 167.377 74.032 167.473 73.744H168.865C168.737 74.288 168.497 74.736 168.145 75.088C167.793 75.4293 167.372 75.6853 166.881 75.856C166.39 76.016 165.878 76.096 165.345 76.096ZM162.785 71.104H167.665C167.654 70.624 167.548 70.2027 167.345 69.84C167.142 69.4773 166.865 69.1947 166.513 68.992C166.172 68.7893 165.761 68.688 165.281 68.688C164.758 68.688 164.316 68.8 163.953 69.024C163.601 69.248 163.329 69.5413 163.137 69.904C162.945 70.2667 162.828 70.6667 162.785 71.104ZM170.869 76V67.568H172.229V71.264H176.453V67.568H177.813V76H176.453V72.464H172.229V76H170.869ZM179.963 76V67.568H181.323V71.264H185.547V67.568H186.907V76H185.547V72.464H181.323V76H179.963ZM192.736 76.096C191.851 76.096 191.11 75.9147 190.512 75.552C189.915 75.1787 189.467 74.6667 189.168 74.016C188.88 73.3653 188.736 72.624 188.736 71.792C188.736 70.9493 188.88 70.208 189.168 69.568C189.467 68.9173 189.915 68.4053 190.512 68.032C191.11 67.6587 191.862 67.472 192.768 67.472C193.654 67.472 194.39 67.6587 194.976 68.032C195.574 68.4053 196.016 68.9173 196.304 69.568C196.603 70.208 196.752 70.9493 196.752 71.792C196.752 72.624 196.603 73.3653 196.304 74.016C196.006 74.6667 195.558 75.1787 194.96 75.552C194.374 75.9147 193.632 76.096 192.736 76.096ZM192.736 74.896C193.355 74.896 193.856 74.7573 194.24 74.48C194.635 74.2027 194.923 73.8293 195.104 73.36C195.296 72.8907 195.392 72.368 195.392 71.792C195.392 71.216 195.296 70.6933 195.104 70.224C194.923 69.7547 194.635 69.3813 194.24 69.104C193.856 68.8267 193.355 68.688 192.736 68.688C192.128 68.688 191.627 68.8267 191.232 69.104C190.848 69.3813 190.56 69.7547 190.368 70.224C190.187 70.6933 190.096 71.216 190.096 71.792C190.096 72.368 190.187 72.8907 190.368 73.36C190.56 73.8293 190.848 74.2027 191.232 74.48C191.627 74.7573 192.128 74.896 192.736 74.896ZM198.572 76V67.568H199.932V74.032C200.007 73.8827 200.108 73.7227 200.236 73.552C200.364 73.3707 200.465 73.232 200.54 73.136L204.62 67.568H205.964V76H204.604V69.536C204.519 69.696 204.423 69.8453 204.316 69.984C204.22 70.1227 204.129 70.2507 204.044 70.368L199.9 76H198.572ZM202.38 66.384C201.537 66.384 200.876 66.2027 200.396 65.84C199.927 65.4773 199.681 64.9493 199.66 64.256H200.908C200.929 64.6293 201.068 64.9013 201.324 65.072C201.591 65.2427 201.948 65.328 202.396 65.328C202.844 65.328 203.196 65.2427 203.452 65.072C203.719 64.9013 203.863 64.6293 203.884 64.256H205.132C205.121 64.7147 205.004 65.104 204.78 65.424C204.556 65.744 204.241 65.984 203.836 66.144C203.431 66.304 202.945 66.384 202.38 66.384ZM216.728 79.04V67.568H218.024L218.088 68.864C218.376 68.4053 218.766 68.0587 219.256 67.824C219.758 67.5893 220.296 67.472 220.872 67.472C221.726 67.472 222.424 67.664 222.968 68.048C223.512 68.4213 223.912 68.9333 224.168 69.584C224.435 70.2347 224.568 70.9707 224.568 71.792C224.568 72.6133 224.435 73.3493 224.168 74C223.902 74.6507 223.491 75.1627 222.936 75.536C222.382 75.9093 221.672 76.096 220.808 76.096C220.382 76.096 219.998 76.0533 219.656 75.968C219.315 75.872 219.016 75.7387 218.76 75.568C218.504 75.3973 218.28 75.2053 218.088 74.992V79.04H216.728ZM220.696 74.896C221.315 74.896 221.806 74.7573 222.168 74.48C222.531 74.192 222.792 73.8133 222.952 73.344C223.123 72.8747 223.208 72.3573 223.208 71.792C223.208 71.216 223.123 70.6933 222.952 70.224C222.792 69.7547 222.526 69.3813 222.152 69.104C221.779 68.8267 221.283 68.688 220.664 68.688C220.11 68.688 219.635 68.832 219.24 69.12C218.856 69.3973 218.563 69.776 218.36 70.256C218.158 70.7253 218.056 71.2427 218.056 71.808C218.056 72.3947 218.152 72.9227 218.344 73.392C218.536 73.8613 218.83 74.2293 219.224 74.496C219.619 74.7627 220.11 74.896 220.696 74.896ZM229.97 76.096C229.074 76.096 228.333 75.9147 227.746 75.552C227.159 75.1787 226.722 74.6667 226.434 74.016C226.146 73.3653 226.002 72.624 226.002 71.792C226.002 70.9493 226.151 70.208 226.45 69.568C226.759 68.9173 227.207 68.4053 227.794 68.032C228.381 67.6587 229.101 67.472 229.954 67.472C230.583 67.472 231.133 67.5947 231.602 67.84C232.082 68.0747 232.477 68.3947 232.786 68.8C233.106 69.2053 233.335 69.6587 233.474 70.16C233.623 70.6613 233.687 71.1787 233.666 71.712C233.655 71.808 233.65 71.904 233.65 72C233.65 72.096 233.645 72.192 233.634 72.288H227.378C227.421 72.7787 227.543 73.2213 227.746 73.616C227.949 74.0107 228.237 74.3253 228.61 74.56C228.983 74.784 229.447 74.896 230.002 74.896C230.279 74.896 230.557 74.864 230.834 74.8C231.122 74.7253 231.378 74.6027 231.602 74.432C231.837 74.2613 232.002 74.032 232.098 73.744H233.49C233.362 74.288 233.122 74.736 232.77 75.088C232.418 75.4293 231.997 75.6853 231.506 75.856C231.015 76.016 230.503 76.096 229.97 76.096ZM227.41 71.104H232.29C232.279 70.624 232.173 70.2027 231.97 69.84C231.767 69.4773 231.49 69.1947 231.138 68.992C230.797 68.7893 230.386 68.688 229.906 68.688C229.383 68.688 228.941 68.8 228.578 69.024C228.226 69.248 227.954 69.5413 227.762 69.904C227.57 70.2667 227.453 70.6667 227.41 71.104ZM238.198 76.096C237.814 76.096 237.441 76.048 237.078 75.952C236.726 75.8453 236.406 75.6907 236.118 75.488C235.841 75.2747 235.617 75.0133 235.446 74.704C235.286 74.384 235.206 74.016 235.206 73.6C235.206 73.12 235.291 72.7147 235.462 72.384C235.643 72.0533 235.883 71.792 236.182 71.6C236.481 71.408 236.827 71.2693 237.222 71.184C237.617 71.0987 238.027 71.056 238.454 71.056H240.934C240.934 70.576 240.865 70.16 240.726 69.808C240.598 69.456 240.385 69.184 240.086 68.992C239.787 68.7893 239.393 68.688 238.902 68.688C238.603 68.688 238.326 68.72 238.07 68.784C237.814 68.848 237.595 68.9493 237.414 69.088C237.233 69.2267 237.099 69.4133 237.014 69.648H235.558C235.633 69.264 235.777 68.9387 235.99 68.672C236.214 68.3947 236.481 68.1707 236.79 68C237.11 67.8187 237.451 67.6853 237.814 67.6C238.177 67.5147 238.539 67.472 238.902 67.472C239.713 67.472 240.363 67.6373 240.854 67.968C241.345 68.288 241.702 68.7467 241.926 69.344C242.15 69.9307 242.262 70.6293 242.262 71.44V76H241.126L241.046 74.928C240.811 75.248 240.529 75.4933 240.198 75.664C239.867 75.8347 239.526 75.9467 239.174 76C238.833 76.064 238.507 76.096 238.198 76.096ZM238.326 74.896C238.859 74.896 239.318 74.8107 239.702 74.64C240.097 74.4587 240.401 74.1973 240.614 73.856C240.827 73.5147 240.934 73.0987 240.934 72.608V72.192H239.446C239.094 72.192 238.747 72.1973 238.406 72.208C238.065 72.2187 237.755 72.2613 237.478 72.336C237.201 72.4107 236.977 72.5387 236.806 72.72C236.646 72.9013 236.566 73.1627 236.566 73.504C236.566 73.824 236.646 74.0853 236.806 74.288C236.977 74.4907 237.195 74.6453 237.462 74.752C237.739 74.848 238.027 74.896 238.326 74.896ZM243.601 76.016V74.832C243.814 74.832 244.006 74.7893 244.177 74.704C244.348 74.608 244.497 74.4693 244.625 74.288C244.774 74.0747 244.892 73.7653 244.977 73.36C245.062 72.9547 245.121 72.5227 245.153 72.064C245.196 71.552 245.228 71.0507 245.249 70.56C245.27 70.0587 245.286 69.5627 245.297 69.072C245.318 68.5813 245.329 68.08 245.329 67.568H251.185V76H249.825V68.768H246.657C246.646 69.1307 246.63 69.4987 246.609 69.872C246.598 70.2347 246.582 70.6027 246.561 70.976C246.55 71.3387 246.534 71.7067 246.513 72.08C246.502 72.5067 246.46 72.9867 246.385 73.52C246.31 74.0533 246.15 74.5387 245.905 74.976C245.67 75.392 245.382 75.6693 245.041 75.808C244.71 75.9467 244.23 76.016 243.601 76.016ZM253.322 76V67.568H254.714V70.784H256.57C257.071 70.784 257.519 70.8267 257.914 70.912C258.319 70.9867 258.666 71.12 258.954 71.312C259.242 71.504 259.461 71.7653 259.61 72.096C259.77 72.416 259.85 72.8267 259.85 73.328C259.85 73.7867 259.77 74.1867 259.61 74.528C259.45 74.8587 259.226 75.136 258.938 75.36C258.65 75.5733 258.303 75.7333 257.898 75.84C257.503 75.9467 257.066 76 256.586 76H253.322ZM254.714 74.816H255.514C255.887 74.816 256.245 74.8053 256.586 74.784C256.938 74.7627 257.258 74.7093 257.546 74.624C257.834 74.5387 258.058 74.4 258.218 74.208C258.389 74.0053 258.474 73.728 258.474 73.376C258.474 73.0347 258.405 72.7733 258.266 72.592C258.138 72.4 257.967 72.2613 257.754 72.176C257.541 72.08 257.306 72.0213 257.05 72C256.805 71.9787 256.559 71.968 256.314 71.968H254.714V74.816ZM261.619 76V67.568H262.979V71.264H267.203V67.568H268.563V76H267.203V72.464H262.979V76H261.619ZM274.393 76.096C273.507 76.096 272.766 75.9147 272.169 75.552C271.571 75.1787 271.123 74.6667 270.825 74.016C270.537 73.3653 270.393 72.624 270.393 71.792C270.393 70.9493 270.537 70.208 270.825 69.568C271.123 68.9173 271.571 68.4053 272.169 68.032C272.766 67.6587 273.518 67.472 274.425 67.472C275.31 67.472 276.046 67.6587 276.633 68.032C277.23 68.4053 277.673 68.9173 277.961 69.568C278.259 70.208 278.409 70.9493 278.409 71.792C278.409 72.624 278.259 73.3653 277.961 74.016C277.662 74.6667 277.214 75.1787 276.617 75.552C276.03 75.9147 275.289 76.096 274.393 76.096ZM274.393 74.896C275.011 74.896 275.513 74.7573 275.897 74.48C276.291 74.2027 276.579 73.8293 276.761 73.36C276.953 72.8907 277.049 72.368 277.049 71.792C277.049 71.216 276.953 70.6933 276.761 70.224C276.579 69.7547 276.291 69.3813 275.897 69.104C275.513 68.8267 275.011 68.688 274.393 68.688C273.785 68.688 273.283 68.8267 272.889 69.104C272.505 69.3813 272.217 69.7547 272.025 70.224C271.843 70.6933 271.753 71.216 271.753 71.792C271.753 72.368 271.843 72.8907 272.025 73.36C272.217 73.8293 272.505 74.2027 272.889 74.48C273.283 74.7573 273.785 74.896 274.393 74.896ZM283.828 76.096C282.943 76.096 282.207 75.9147 281.62 75.552C281.044 75.1787 280.612 74.6667 280.324 74.016C280.047 73.3653 279.908 72.6293 279.908 71.808C279.908 71.008 280.052 70.2827 280.34 69.632C280.639 68.9707 281.087 68.448 281.684 68.064C282.292 67.6693 283.06 67.472 283.988 67.472C284.564 67.472 285.076 67.568 285.524 67.76C285.983 67.952 286.362 68.2347 286.66 68.608C286.959 68.9707 287.167 69.4293 287.284 69.984H285.892C285.732 69.5147 285.476 69.184 285.124 68.992C284.783 68.7893 284.378 68.688 283.908 68.688C283.268 68.688 282.756 68.8373 282.372 69.136C281.988 69.4347 281.706 69.824 281.524 70.304C281.354 70.7733 281.268 71.2747 281.268 71.808C281.268 72.3627 281.359 72.8747 281.54 73.344C281.722 73.8133 282.004 74.192 282.388 74.48C282.772 74.7573 283.268 74.896 283.876 74.896C284.324 74.896 284.746 74.8 285.14 74.608C285.546 74.416 285.812 74.0747 285.94 73.584H287.348C287.242 74.16 287.012 74.6347 286.66 75.008C286.319 75.3813 285.898 75.6587 285.396 75.84C284.906 76.0107 284.383 76.096 283.828 76.096ZM291.04 76V68.768H288.144V67.568H295.296V68.768H292.4V76H291.04ZM296.51 76V67.568H297.87V74.032C297.944 73.8827 298.046 73.7227 298.174 73.552C298.302 73.3707 298.403 73.232 298.478 73.136L302.558 67.568H303.902V76H302.542V69.536C302.456 69.696 302.36 69.8453 302.254 69.984C302.158 70.1227 302.067 70.2507 301.982 70.368L297.838 76H296.51Z" fill="black"/>
</svg>
