<svg width="408" height="203" viewBox="0 0 408 203" fill="none" xmlns="http://www.w3.org/2000/svg">
<rect width="408" height="203" rx="30" fill="white"/>
<path d="M49.6719 41C52.0757 41.0003 54.3811 41.9567 56.0811 43.6562L56.3926 43.9824C57.8983 45.6455 58.7372 47.8143 58.7373 50.0684V56.9287H60.376C65.3301 56.9293 69.3471 60.9463 69.3477 65.9004V78.6191C69.3473 83.5734 65.3302 87.5903 60.376 87.5908H38.9717C34.0171 87.5907 30.0004 83.5737 30 78.6191V65.9004C30.0006 60.946 34.0172 56.9288 38.9717 56.9287H40.6045V50.0684C40.6046 47.664 41.5607 45.3565 43.2607 43.6562L43.5859 43.3477C45.2491 41.8416 47.4176 41.0001 49.6719 41ZM49.6748 66.167C47.6414 66.1671 45.9925 67.8163 45.9922 69.8496C45.9924 71.3059 46.8384 72.5649 48.0654 73.1621V75.5049C48.065 75.9314 48.2343 76.3412 48.5352 76.6436C48.8364 76.946 49.246 77.1168 49.6729 77.1182C50.1 77.118 50.5104 76.9485 50.8125 76.6465C51.1144 76.3444 51.2841 75.9339 51.2842 75.5068V73.1621C52.5108 72.5648 53.3572 71.3057 53.3574 69.8496C53.3571 67.8164 51.708 66.1673 49.6748 66.167ZM49.6719 43.8545C48.2304 43.8546 46.8389 44.3544 45.7334 45.2598L45.2773 45.6738C44.1123 46.8391 43.4581 48.4206 43.458 50.0684V56.9287H55.8867V50.0684C55.8866 48.6264 55.3835 47.2346 54.4775 46.1289L54.0645 45.6738C52.8994 44.509 51.3193 43.8548 49.6719 43.8545Z" fill="#010101"/>
<path d="M111 55.144V53.304H109.72C108.867 53.2827 108.141 53.08 107.544 52.696C106.957 52.312 106.515 51.7893 106.216 51.128C105.917 50.4667 105.768 49.72 105.768 48.888C105.779 48.0133 105.965 47.2613 106.328 46.632C106.691 46.0027 107.187 45.5173 107.816 45.176C108.445 44.8347 109.16 44.664 109.96 44.664H111V43.064H112.392V44.664H113.416C114.227 44.664 114.947 44.8347 115.576 45.176C116.205 45.5173 116.701 46.0027 117.064 46.632C117.427 47.2613 117.613 48.0133 117.624 48.888C117.635 49.72 117.48 50.4667 117.16 51.128C116.84 51.7893 116.376 52.312 115.768 52.696C115.171 53.08 114.445 53.2827 113.592 53.304H112.392V55.144H111ZM110.008 52.104H111V45.864H110.072C109.475 45.864 108.957 45.992 108.52 46.248C108.093 46.504 107.763 46.856 107.528 47.304C107.293 47.752 107.176 48.2693 107.176 48.856C107.176 49.4747 107.272 50.0293 107.464 50.52C107.656 51.0107 107.96 51.4 108.376 51.688C108.792 51.9653 109.336 52.104 110.008 52.104ZM112.392 52.104H113.384C114.056 52.104 114.6 51.9653 115.016 51.688C115.432 51.4 115.736 51.0107 115.928 50.52C116.12 50.0293 116.216 49.4747 116.216 48.856C116.216 48.2693 116.099 47.752 115.864 47.304C115.629 46.856 115.293 46.504 114.856 46.248C114.429 45.992 113.917 45.864 113.32 45.864H112.392V52.104ZM119.463 55V46.568H120.823V53.032C120.897 52.8827 120.999 52.7227 121.127 52.552C121.255 52.3707 121.356 52.232 121.431 52.136L125.511 46.568H126.855V55H125.495V48.536C125.409 48.696 125.313 48.8453 125.207 48.984C125.111 49.1227 125.02 49.2507 124.935 49.368L120.791 55H119.463ZM128.994 55V46.568H130.354V50.2H131.826L134.322 46.568H135.874L133.058 50.584L136.114 55H134.514L131.986 51.384H130.354V55H128.994ZM140.735 55.096C139.849 55.096 139.113 54.9147 138.527 54.552C137.951 54.1787 137.519 53.6667 137.231 53.016C136.953 52.3653 136.815 51.6293 136.815 50.808C136.815 50.008 136.959 49.2827 137.247 48.632C137.545 47.9707 137.993 47.448 138.591 47.064C139.199 46.6693 139.967 46.472 140.895 46.472C141.471 46.472 141.983 46.568 142.431 46.76C142.889 46.952 143.268 47.2347 143.567 47.608C143.865 47.9707 144.073 48.4293 144.191 48.984H142.799C142.639 48.5147 142.383 48.184 142.031 47.992C141.689 47.7893 141.284 47.688 140.815 47.688C140.175 47.688 139.663 47.8373 139.279 48.136C138.895 48.4347 138.612 48.824 138.431 49.304C138.26 49.7733 138.174 50.2747 138.174 50.808C138.174 51.3627 138.265 51.8747 138.447 52.344C138.628 52.8133 138.911 53.192 139.295 53.48C139.679 53.7573 140.175 53.896 140.783 53.896C141.231 53.896 141.652 53.8 142.047 53.608C142.452 53.416 142.719 53.0747 142.847 52.584H144.255C144.148 53.16 143.919 53.6347 143.567 54.008C143.225 54.3813 142.804 54.6587 142.303 54.84C141.812 55.0107 141.289 55.096 140.735 55.096ZM145.978 55V46.568H147.338V53.032C147.413 52.8827 147.514 52.7227 147.642 52.552C147.77 52.3707 147.872 52.232 147.946 52.136L152.026 46.568H153.37V55H152.01V48.536C151.925 48.696 151.829 48.8453 151.722 48.984C151.626 49.1227 151.536 49.2507 151.45 49.368L147.306 55H145.978ZM155.51 58.04V46.568H156.806L156.87 47.864C157.158 47.4053 157.547 47.0587 158.038 46.824C158.539 46.5893 159.078 46.472 159.654 46.472C160.507 46.472 161.206 46.664 161.75 47.048C162.294 47.4213 162.694 47.9333 162.95 48.584C163.216 49.2347 163.35 49.9707 163.35 50.792C163.35 51.6133 163.216 52.3493 162.95 53C162.683 53.6507 162.272 54.1627 161.718 54.536C161.163 54.9093 160.454 55.096 159.59 55.096C159.163 55.096 158.779 55.0533 158.438 54.968C158.096 54.872 157.798 54.7387 157.542 54.568C157.286 54.3973 157.062 54.2053 156.87 53.992V58.04H155.51ZM159.478 53.896C160.096 53.896 160.587 53.7573 160.95 53.48C161.312 53.192 161.574 52.8133 161.734 52.344C161.904 51.8747 161.99 51.3573 161.99 50.792C161.99 50.216 161.904 49.6933 161.734 49.224C161.574 48.7547 161.307 48.3813 160.934 48.104C160.56 47.8267 160.064 47.688 159.446 47.688C158.891 47.688 158.416 47.832 158.022 48.12C157.638 48.3973 157.344 48.776 157.142 49.256C156.939 49.7253 156.838 50.2427 156.838 50.808C156.838 51.3947 156.934 51.9227 157.126 52.392C157.318 52.8613 157.611 53.2293 158.006 53.496C158.4 53.7627 158.891 53.896 159.478 53.896ZM165.375 58.616V57.32C165.898 57.32 166.314 57.2453 166.623 57.096C166.933 56.9573 167.189 56.7333 167.391 56.424C167.605 56.1253 167.807 55.7413 167.999 55.272L164.303 46.568H165.903L168.751 53.672L171.087 46.568H172.623L170.255 53.208C170.138 53.5493 170.005 53.9333 169.855 54.36C169.706 54.7867 169.541 55.2187 169.359 55.656C169.178 56.104 168.975 56.5147 168.751 56.888C168.538 57.272 168.298 57.5813 168.031 57.816C167.807 58.0187 167.589 58.1787 167.375 58.296C167.162 58.4133 166.901 58.4933 166.591 58.536C166.293 58.5893 165.887 58.616 165.375 58.616ZM177.533 55.096C176.637 55.096 175.895 54.9147 175.309 54.552C174.722 54.1787 174.285 53.6667 173.997 53.016C173.709 52.3653 173.565 51.624 173.565 50.792C173.565 49.9493 173.714 49.208 174.013 48.568C174.322 47.9173 174.77 47.4053 175.357 47.032C175.943 46.6587 176.663 46.472 177.516 46.472C178.146 46.472 178.695 46.5947 179.165 46.84C179.645 47.0747 180.039 47.3947 180.349 47.8C180.669 48.2053 180.898 48.6587 181.036 49.16C181.186 49.6613 181.25 50.1787 181.229 50.712C181.218 50.808 181.213 50.904 181.213 51C181.213 51.096 181.207 51.192 181.197 51.288H174.941C174.983 51.7787 175.106 52.2213 175.309 52.616C175.511 53.0107 175.799 53.3253 176.173 53.56C176.546 53.784 177.01 53.896 177.565 53.896C177.842 53.896 178.119 53.864 178.397 53.8C178.685 53.7253 178.941 53.6027 179.165 53.432C179.399 53.2613 179.565 53.032 179.661 52.744H181.053C180.925 53.288 180.685 53.736 180.333 54.088C179.981 54.4293 179.559 54.6853 179.069 54.856C178.578 55.016 178.066 55.096 177.533 55.096ZM174.973 50.104H179.853C179.842 49.624 179.735 49.2027 179.533 48.84C179.33 48.4773 179.053 48.1947 178.701 47.992C178.359 47.7893 177.949 47.688 177.469 47.688C176.946 47.688 176.503 47.8 176.141 48.024C175.789 48.248 175.517 48.5413 175.325 48.904C175.133 49.2667 175.015 49.6667 174.973 50.104ZM185.024 55V47.768H182.128V46.568H189.28V47.768H186.384V55H185.024ZM194.806 55V46.568H196.63L199.366 50.792L202.054 46.568H203.846V55H202.502V48.072L199.526 52.84H199.142L196.15 48.072V55H194.806ZM209.674 55.096C208.789 55.096 208.047 54.9147 207.45 54.552C206.853 54.1787 206.405 53.6667 206.106 53.016C205.818 52.3653 205.674 51.624 205.674 50.792C205.674 49.9493 205.818 49.208 206.106 48.568C206.405 47.9173 206.853 47.4053 207.45 47.032C208.047 46.6587 208.799 46.472 209.706 46.472C210.591 46.472 211.327 46.6587 211.914 47.032C212.511 47.4053 212.954 47.9173 213.242 48.568C213.541 49.208 213.69 49.9493 213.69 50.792C213.69 51.624 213.541 52.3653 213.242 53.016C212.943 53.6667 212.495 54.1787 211.898 54.552C211.311 54.9147 210.57 55.096 209.674 55.096ZM209.674 53.896C210.293 53.896 210.794 53.7573 211.178 53.48C211.573 53.2027 211.861 52.8293 212.042 52.36C212.234 51.8907 212.33 51.368 212.33 50.792C212.33 50.216 212.234 49.6933 212.042 49.224C211.861 48.7547 211.573 48.3813 211.178 48.104C210.794 47.8267 210.293 47.688 209.674 47.688C209.066 47.688 208.565 47.8267 208.17 48.104C207.786 48.3813 207.498 48.7547 207.306 49.224C207.125 49.6933 207.034 50.216 207.034 50.792C207.034 51.368 207.125 51.8907 207.306 52.36C207.498 52.8293 207.786 53.2027 208.17 53.48C208.565 53.7573 209.066 53.896 209.674 53.896ZM214.602 57.592V53.816C214.911 53.816 215.157 53.7307 215.338 53.56C215.53 53.3893 215.679 53.1653 215.786 52.888C215.893 52.6107 215.973 52.312 216.026 51.992C216.079 51.6613 216.122 51.3467 216.154 51.048C216.207 50.5573 216.239 50.072 216.25 49.592C216.271 49.1013 216.282 48.712 216.282 48.424C216.293 48.1147 216.298 47.8053 216.298 47.496C216.298 47.1867 216.298 46.8773 216.298 46.568H222.282V53.816H223.386V57.592H222.074V55H215.914V57.592H214.602ZM216.762 53.816H220.922V47.768H217.594C217.583 48.216 217.573 48.7173 217.562 49.272C217.551 49.8267 217.53 50.344 217.498 50.824C217.487 51.1013 217.461 51.416 217.418 51.768C217.386 52.12 217.322 52.4773 217.226 52.84C217.13 53.192 216.975 53.5173 216.762 53.816ZM228.454 55.096C227.558 55.096 226.817 54.9147 226.23 54.552C225.644 54.1787 225.206 53.6667 224.918 53.016C224.63 52.3653 224.486 51.624 224.486 50.792C224.486 49.9493 224.636 49.208 224.934 48.568C225.244 47.9173 225.692 47.4053 226.278 47.032C226.865 46.6587 227.585 46.472 228.438 46.472C229.068 46.472 229.617 46.5947 230.086 46.84C230.566 47.0747 230.961 47.3947 231.27 47.8C231.59 48.2053 231.82 48.6587 231.958 49.16C232.108 49.6613 232.172 50.1787 232.15 50.712C232.14 50.808 232.134 50.904 232.134 51C232.134 51.096 232.129 51.192 232.118 51.288H225.862C225.905 51.7787 226.028 52.2213 226.23 52.616C226.433 53.0107 226.721 53.3253 227.094 53.56C227.468 53.784 227.932 53.896 228.486 53.896C228.764 53.896 229.041 53.864 229.318 53.8C229.606 53.7253 229.862 53.6027 230.086 53.432C230.321 53.2613 230.486 53.032 230.582 52.744H231.974C231.846 53.288 231.606 53.736 231.254 54.088C230.902 54.4293 230.481 54.6853 229.99 54.856C229.5 55.016 228.988 55.096 228.454 55.096ZM225.894 50.104H230.774C230.764 49.624 230.657 49.2027 230.454 48.84C230.252 48.4773 229.974 48.1947 229.622 47.992C229.281 47.7893 228.87 47.688 228.39 47.688C227.868 47.688 227.425 47.8 227.062 48.024C226.71 48.248 226.438 48.5413 226.246 48.904C226.054 49.2667 225.937 49.6667 225.894 50.104ZM233.132 55.016V53.832C233.345 53.832 233.537 53.7893 233.708 53.704C233.879 53.608 234.028 53.4693 234.156 53.288C234.305 53.0747 234.423 52.7653 234.508 52.36C234.593 51.9547 234.652 51.5227 234.684 51.064C234.727 50.552 234.759 50.0507 234.78 49.56C234.801 49.0587 234.817 48.5627 234.828 48.072C234.849 47.5813 234.86 47.08 234.86 46.568H240.716V55H239.356V47.768H236.188C236.177 48.1307 236.161 48.4987 236.14 48.872C236.129 49.2347 236.113 49.6027 236.092 49.976C236.081 50.3387 236.065 50.7067 236.044 51.08C236.033 51.5067 235.991 51.9867 235.916 52.52C235.841 53.0533 235.681 53.5387 235.436 53.976C235.201 54.392 234.913 54.6693 234.572 54.808C234.241 54.9467 233.761 55.016 233.132 55.016ZM242.853 55V46.568H244.245V49.784H246.101C246.603 49.784 247.051 49.8267 247.445 49.912C247.851 49.9867 248.197 50.12 248.485 50.312C248.773 50.504 248.992 50.7653 249.141 51.096C249.301 51.416 249.381 51.8267 249.381 52.328C249.381 52.7867 249.301 53.1867 249.141 53.528C248.981 53.8587 248.757 54.136 248.469 54.36C248.181 54.5733 247.835 54.7333 247.429 54.84C247.035 54.9467 246.597 55 246.117 55H242.853ZM244.245 53.816H245.045C245.419 53.816 245.776 53.8053 246.117 53.784C246.469 53.7627 246.789 53.7093 247.077 53.624C247.365 53.5387 247.589 53.4 247.749 53.208C247.92 53.0053 248.005 52.728 248.005 52.376C248.005 52.0347 247.936 51.7733 247.797 51.592C247.669 51.4 247.499 51.2613 247.285 51.176C247.072 51.08 246.837 51.0213 246.581 51C246.336 50.9787 246.091 50.968 245.845 50.968H244.245V53.816ZM255.463 55V46.568H258.727C259.1 46.568 259.468 46.5947 259.831 46.648C260.204 46.6907 260.54 46.7867 260.839 46.936C261.148 47.0747 261.393 47.2827 261.575 47.56C261.767 47.8373 261.863 48.2053 261.863 48.664C261.863 48.9413 261.82 49.1973 261.735 49.432C261.649 49.656 261.521 49.8533 261.351 50.024C261.191 50.1947 260.983 50.344 260.727 50.472C261.303 50.6 261.719 50.8507 261.975 51.224C262.231 51.5973 262.359 52.024 262.359 52.504C262.359 52.9307 262.279 53.304 262.119 53.624C261.969 53.9333 261.756 54.1893 261.479 54.392C261.212 54.5947 260.897 54.7493 260.535 54.856C260.183 54.952 259.804 55 259.399 55H255.463ZM256.855 53.816H259.079C259.409 53.816 259.719 53.784 260.007 53.72C260.295 53.656 260.529 53.5387 260.711 53.368C260.892 53.1867 260.983 52.9307 260.983 52.6C260.983 52.2587 260.903 52.0027 260.743 51.832C260.593 51.6507 260.396 51.528 260.151 51.464C259.916 51.3893 259.66 51.3467 259.383 51.336C259.105 51.3253 258.844 51.32 258.599 51.32H256.855V53.816ZM256.855 50.168H258.023C258.236 50.168 258.481 50.1573 258.759 50.136C259.047 50.1147 259.324 50.0667 259.591 49.992C259.868 49.9067 260.092 49.7787 260.263 49.608C260.444 49.4373 260.535 49.2027 260.535 48.904C260.535 48.5093 260.423 48.2373 260.199 48.088C259.985 47.928 259.729 47.8373 259.431 47.816C259.132 47.784 258.855 47.768 258.599 47.768H256.855V50.168ZM268.525 55V46.568H275.517V55H274.157V47.768H269.885V55H268.525ZM277.666 58.04V46.568H278.962L279.026 47.864C279.314 47.4053 279.703 47.0587 280.194 46.824C280.695 46.5893 281.234 46.472 281.81 46.472C282.663 46.472 283.362 46.664 283.906 47.048C284.45 47.4213 284.85 47.9333 285.106 48.584C285.372 49.2347 285.506 49.9707 285.506 50.792C285.506 51.6133 285.372 52.3493 285.106 53C284.839 53.6507 284.428 54.1627 283.874 54.536C283.319 54.9093 282.61 55.096 281.746 55.096C281.319 55.096 280.935 55.0533 280.594 54.968C280.252 54.872 279.954 54.7387 279.698 54.568C279.442 54.3973 279.218 54.2053 279.026 53.992V58.04H277.666ZM281.634 53.896C282.252 53.896 282.743 53.7573 283.106 53.48C283.468 53.192 283.73 52.8133 283.89 52.344C284.06 51.8747 284.146 51.3573 284.146 50.792C284.146 50.216 284.06 49.6933 283.89 49.224C283.73 48.7547 283.463 48.3813 283.09 48.104C282.716 47.8267 282.22 47.688 281.602 47.688C281.047 47.688 280.572 47.832 280.178 48.12C279.794 48.3973 279.5 48.776 279.298 49.256C279.095 49.7253 278.994 50.2427 278.994 50.808C278.994 51.3947 279.09 51.9227 279.282 52.392C279.474 52.8613 279.767 53.2293 280.162 53.496C280.556 53.7627 281.047 53.896 281.634 53.896ZM290.94 55.096C290.054 55.096 289.313 54.9147 288.716 54.552C288.118 54.1787 287.67 53.6667 287.372 53.016C287.084 52.3653 286.94 51.624 286.94 50.792C286.94 49.9493 287.084 49.208 287.372 48.568C287.67 47.9173 288.118 47.4053 288.716 47.032C289.313 46.6587 290.065 46.472 290.972 46.472C291.857 46.472 292.593 46.6587 293.18 47.032C293.777 47.4053 294.22 47.9173 294.508 48.568C294.806 49.208 294.956 49.9493 294.956 50.792C294.956 51.624 294.806 52.3653 294.508 53.016C294.209 53.6667 293.761 54.1787 293.164 54.552C292.577 54.9147 291.836 55.096 290.94 55.096ZM290.94 53.896C291.558 53.896 292.06 53.7573 292.444 53.48C292.838 53.2027 293.126 52.8293 293.308 52.36C293.5 51.8907 293.596 51.368 293.596 50.792C293.596 50.216 293.5 49.6933 293.308 49.224C293.126 48.7547 292.838 48.3813 292.444 48.104C292.06 47.8267 291.558 47.688 290.94 47.688C290.332 47.688 289.83 47.8267 289.436 48.104C289.052 48.3813 288.764 48.7547 288.572 49.224C288.39 49.6933 288.299 50.216 288.299 50.792C288.299 51.368 288.39 51.8907 288.572 52.36C288.764 52.8293 289.052 53.2027 289.436 53.48C289.83 53.7573 290.332 53.896 290.94 53.896ZM300.375 55.096C299.49 55.096 298.754 54.9147 298.167 54.552C297.591 54.1787 297.159 53.6667 296.871 53.016C296.594 52.3653 296.455 51.6293 296.455 50.808C296.455 50.008 296.599 49.2827 296.887 48.632C297.186 47.9707 297.634 47.448 298.231 47.064C298.839 46.6693 299.607 46.472 300.535 46.472C301.111 46.472 301.623 46.568 302.071 46.76C302.53 46.952 302.908 47.2347 303.207 47.608C303.506 47.9707 303.714 48.4293 303.831 48.984H302.439C302.279 48.5147 302.023 48.184 301.671 47.992C301.33 47.7893 300.924 47.688 300.455 47.688C299.815 47.688 299.303 47.8373 298.919 48.136C298.535 48.4347 298.252 48.824 298.071 49.304C297.9 49.7733 297.815 50.2747 297.815 50.808C297.815 51.3627 297.906 51.8747 298.087 52.344C298.268 52.8133 298.551 53.192 298.935 53.48C299.319 53.7573 299.815 53.896 300.423 53.896C300.871 53.896 301.292 53.8 301.687 53.608C302.092 53.416 302.359 53.0747 302.487 52.584H303.895C303.788 53.16 303.559 53.6347 303.207 54.008C302.866 54.3813 302.444 54.6587 301.943 54.84C301.452 55.0107 300.93 55.096 300.375 55.096ZM307.587 55V47.768H304.691V46.568H311.843V47.768H308.947V55H307.587ZM313.056 58.04V46.568H314.352L314.416 47.864C314.704 47.4053 315.094 47.0587 315.584 46.824C316.086 46.5893 316.624 46.472 317.2 46.472C318.054 46.472 318.752 46.664 319.296 47.048C319.84 47.4213 320.24 47.9333 320.496 48.584C320.763 49.2347 320.896 49.9707 320.896 50.792C320.896 51.6133 320.763 52.3493 320.496 53C320.23 53.6507 319.819 54.1627 319.264 54.536C318.71 54.9093 318 55.096 317.136 55.096C316.71 55.096 316.326 55.0533 315.984 54.968C315.643 54.872 315.344 54.7387 315.088 54.568C314.832 54.3973 314.608 54.2053 314.416 53.992V58.04H313.056ZM317.024 53.896C317.643 53.896 318.134 53.7573 318.496 53.48C318.859 53.192 319.12 52.8133 319.28 52.344C319.451 51.8747 319.536 51.3573 319.536 50.792C319.536 50.216 319.451 49.6933 319.28 49.224C319.12 48.7547 318.854 48.3813 318.48 48.104C318.107 47.8267 317.611 47.688 316.992 47.688C316.438 47.688 315.963 47.832 315.568 48.12C315.184 48.3973 314.891 48.776 314.688 49.256C314.486 49.7253 314.384 50.2427 314.384 50.808C314.384 51.3947 314.48 51.9227 314.672 52.392C314.864 52.8613 315.158 53.2293 315.552 53.496C315.947 53.7627 316.438 53.896 317.024 53.896ZM325.354 55.096C324.97 55.096 324.597 55.048 324.234 54.952C323.882 54.8453 323.562 54.6907 323.274 54.488C322.997 54.2747 322.773 54.0133 322.602 53.704C322.442 53.384 322.362 53.016 322.362 52.6C322.362 52.12 322.447 51.7147 322.618 51.384C322.799 51.0533 323.039 50.792 323.338 50.6C323.637 50.408 323.983 50.2693 324.378 50.184C324.773 50.0987 325.183 50.056 325.61 50.056H328.09C328.09 49.576 328.021 49.16 327.882 48.808C327.754 48.456 327.541 48.184 327.242 47.992C326.943 47.7893 326.549 47.688 326.058 47.688C325.759 47.688 325.482 47.72 325.226 47.784C324.97 47.848 324.751 47.9493 324.57 48.088C324.389 48.2267 324.255 48.4133 324.17 48.648H322.714C322.789 48.264 322.933 47.9387 323.146 47.672C323.37 47.3947 323.637 47.1707 323.946 47C324.266 46.8187 324.607 46.6853 324.97 46.6C325.333 46.5147 325.695 46.472 326.058 46.472C326.869 46.472 327.519 46.6373 328.01 46.968C328.501 47.288 328.858 47.7467 329.082 48.344C329.306 48.9307 329.418 49.6293 329.418 50.44V55H328.282L328.202 53.928C327.967 54.248 327.685 54.4933 327.354 54.664C327.023 54.8347 326.682 54.9467 326.33 55C325.989 55.064 325.663 55.096 325.354 55.096ZM325.482 53.896C326.015 53.896 326.474 53.8107 326.858 53.64C327.253 53.4587 327.557 53.1973 327.77 52.856C327.983 52.5147 328.09 52.0987 328.09 51.608V51.192H326.602C326.25 51.192 325.903 51.1973 325.562 51.208C325.221 51.2187 324.911 51.2613 324.634 51.336C324.357 51.4107 324.133 51.5387 323.962 51.72C323.802 51.9013 323.722 52.1627 323.722 52.504C323.722 52.824 323.802 53.0853 323.962 53.288C324.133 53.4907 324.351 53.6453 324.618 53.752C324.895 53.848 325.183 53.896 325.482 53.896ZM331.525 55V46.568H332.885V50.264H337.109V46.568H338.469V55H337.109V51.464H332.885V55H331.525ZM344.219 55.096C343.334 55.096 342.598 54.9147 342.011 54.552C341.435 54.1787 341.003 53.6667 340.715 53.016C340.438 52.3653 340.299 51.6293 340.299 50.808C340.299 50.008 340.443 49.2827 340.731 48.632C341.03 47.9707 341.478 47.448 342.075 47.064C342.683 46.6693 343.451 46.472 344.379 46.472C344.955 46.472 345.467 46.568 345.915 46.76C346.374 46.952 346.752 47.2347 347.051 47.608C347.35 47.9707 347.558 48.4293 347.675 48.984H346.283C346.123 48.5147 345.867 48.184 345.515 47.992C345.174 47.7893 344.768 47.688 344.299 47.688C343.659 47.688 343.147 47.8373 342.763 48.136C342.379 48.4347 342.096 48.824 341.915 49.304C341.744 49.7733 341.659 50.2747 341.659 50.808C341.659 51.3627 341.75 51.8747 341.931 52.344C342.112 52.8133 342.395 53.192 342.779 53.48C343.163 53.7573 343.659 53.896 344.267 53.896C344.715 53.896 345.136 53.8 345.531 53.608C345.936 53.416 346.203 53.0747 346.331 52.584H347.739C347.632 53.16 347.403 53.6347 347.051 54.008C346.71 54.3813 346.288 54.6587 345.787 54.84C345.296 55.0107 344.774 55.096 344.219 55.096ZM351.431 55V47.768H348.535V46.568H355.687V47.768H352.791V55H351.431ZM356.9 55V46.568H360.164C360.537 46.568 360.905 46.5947 361.268 46.648C361.641 46.6907 361.977 46.7867 362.276 46.936C362.585 47.0747 362.831 47.2827 363.012 47.56C363.204 47.8373 363.3 48.2053 363.3 48.664C363.3 48.9413 363.257 49.1973 363.172 49.432C363.087 49.656 362.959 49.8533 362.788 50.024C362.628 50.1947 362.42 50.344 362.164 50.472C362.74 50.6 363.156 50.8507 363.412 51.224C363.668 51.5973 363.796 52.024 363.796 52.504C363.796 52.9307 363.716 53.304 363.556 53.624C363.407 53.9333 363.193 54.1893 362.916 54.392C362.649 54.5947 362.335 54.7493 361.972 54.856C361.62 54.952 361.241 55 360.836 55H356.9ZM358.292 53.816H360.516C360.847 53.816 361.156 53.784 361.444 53.72C361.732 53.656 361.967 53.5387 362.148 53.368C362.329 53.1867 362.42 52.9307 362.42 52.6C362.42 52.2587 362.34 52.0027 362.18 51.832C362.031 51.6507 361.833 51.528 361.588 51.464C361.353 51.3893 361.097 51.3467 360.82 51.336C360.543 51.3253 360.281 51.32 360.036 51.32H358.292V53.816ZM358.292 50.168H359.46C359.673 50.168 359.919 50.1573 360.196 50.136C360.484 50.1147 360.761 50.0667 361.028 49.992C361.305 49.9067 361.529 49.7787 361.7 49.608C361.881 49.4373 361.972 49.2027 361.972 48.904C361.972 48.5093 361.86 48.2373 361.636 48.088C361.423 47.928 361.167 47.8373 360.868 47.816C360.569 47.784 360.292 47.768 360.036 47.768H358.292V50.168ZM369.298 55.096C368.402 55.096 367.661 54.9147 367.074 54.552C366.487 54.1787 366.05 53.6667 365.762 53.016C365.474 52.3653 365.33 51.624 365.33 50.792C365.33 49.9493 365.479 49.208 365.778 48.568C366.087 47.9173 366.535 47.4053 367.122 47.032C367.709 46.6587 368.429 46.472 369.282 46.472C369.911 46.472 370.461 46.5947 370.93 46.84C371.41 47.0747 371.805 47.3947 372.114 47.8C372.434 48.2053 372.663 48.6587 372.802 49.16C372.951 49.6613 373.015 50.1787 372.994 50.712C372.983 50.808 372.978 50.904 372.978 51C372.978 51.096 372.973 51.192 372.962 51.288H366.706C366.749 51.7787 366.871 52.2213 367.074 52.616C367.277 53.0107 367.565 53.3253 367.938 53.56C368.311 53.784 368.775 53.896 369.33 53.896C369.607 53.896 369.885 53.864 370.162 53.8C370.45 53.7253 370.706 53.6027 370.93 53.432C371.165 53.2613 371.33 53.032 371.426 52.744H372.818C372.69 53.288 372.45 53.736 372.098 54.088C371.746 54.4293 371.325 54.6853 370.834 54.856C370.343 55.016 369.831 55.096 369.298 55.096ZM366.738 50.104H371.618C371.607 49.624 371.501 49.2027 371.298 48.84C371.095 48.4773 370.818 48.1947 370.466 47.992C370.125 47.7893 369.714 47.688 369.234 47.688C368.711 47.688 368.269 47.8 367.906 48.024C367.554 48.248 367.282 48.5413 367.09 48.904C366.898 49.2667 366.781 49.6667 366.738 50.104ZM375.782 55.128C375.505 55.128 375.275 55.0373 375.094 54.856C374.913 54.6747 374.822 54.4453 374.822 54.168C374.822 53.8907 374.913 53.6613 375.094 53.48C375.275 53.2987 375.505 53.208 375.782 53.208C376.059 53.208 376.289 53.2987 376.47 53.48C376.651 53.6613 376.742 53.8907 376.742 54.168C376.742 54.4453 376.651 54.6747 376.47 54.856C376.289 55.0373 376.059 55.128 375.782 55.128ZM106.392 73V61.688H115.288V73H113.896V62.952H107.784V73H106.392ZM121.44 73.096C120.554 73.096 119.813 72.9147 119.216 72.552C118.618 72.1787 118.17 71.6667 117.872 71.016C117.584 70.3653 117.44 69.624 117.44 68.792C117.44 67.9493 117.584 67.208 117.872 66.568C118.17 65.9173 118.618 65.4053 119.216 65.032C119.813 64.6587 120.565 64.472 121.472 64.472C122.357 64.472 123.093 64.6587 123.68 65.032C124.277 65.4053 124.72 65.9173 125.008 66.568C125.306 67.208 125.456 67.9493 125.456 68.792C125.456 69.624 125.306 70.3653 125.008 71.016C124.709 71.6667 124.261 72.1787 123.664 72.552C123.077 72.9147 122.336 73.096 121.44 73.096ZM121.44 71.896C122.058 71.896 122.56 71.7573 122.944 71.48C123.338 71.2027 123.626 70.8293 123.808 70.36C124 69.8907 124.096 69.368 124.096 68.792C124.096 68.216 124 67.6933 123.808 67.224C123.626 66.7547 123.338 66.3813 122.944 66.104C122.56 65.8267 122.058 65.688 121.44 65.688C120.832 65.688 120.33 65.8267 119.936 66.104C119.552 66.3813 119.264 66.7547 119.072 67.224C118.89 67.6933 118.799 68.216 118.799 68.792C118.799 69.368 118.89 69.8907 119.072 70.36C119.264 70.8293 119.552 71.2027 119.936 71.48C120.33 71.7573 120.832 71.896 121.44 71.896ZM127.275 73V64.568H128.635V68.2H130.107L132.603 64.568H134.155L131.339 68.584L134.395 73H132.795L130.267 69.384H128.635V73H127.275ZM138.12 73.096C137.736 73.096 137.362 73.048 137 72.952C136.648 72.8453 136.328 72.6907 136.04 72.488C135.762 72.2747 135.538 72.0133 135.368 71.704C135.208 71.384 135.128 71.016 135.128 70.6C135.128 70.12 135.213 69.7147 135.384 69.384C135.565 69.0533 135.805 68.792 136.104 68.6C136.402 68.408 136.749 68.2693 137.144 68.184C137.538 68.0987 137.949 68.056 138.376 68.056H140.856C140.856 67.576 140.786 67.16 140.648 66.808C140.52 66.456 140.306 66.184 140.008 65.992C139.709 65.7893 139.314 65.688 138.824 65.688C138.525 65.688 138.248 65.72 137.992 65.784C137.736 65.848 137.517 65.9493 137.336 66.088C137.154 66.2267 137.021 66.4133 136.936 66.648H135.48C135.554 66.264 135.698 65.9387 135.912 65.672C136.136 65.3947 136.402 65.1707 136.712 65C137.032 64.8187 137.373 64.6853 137.736 64.6C138.098 64.5147 138.461 64.472 138.824 64.472C139.634 64.472 140.285 64.6373 140.776 64.968C141.266 65.288 141.624 65.7467 141.848 66.344C142.072 66.9307 142.184 67.6293 142.184 68.44V73H141.048L140.968 71.928C140.733 72.248 140.45 72.4933 140.12 72.664C139.789 72.8347 139.448 72.9467 139.096 73C138.754 73.064 138.429 73.096 138.12 73.096ZM138.248 71.896C138.781 71.896 139.24 71.8107 139.624 71.64C140.018 71.4587 140.322 71.1973 140.536 70.856C140.749 70.5147 140.856 70.0987 140.856 69.608V69.192H139.368C139.016 69.192 138.669 69.1973 138.328 69.208C137.986 69.2187 137.677 69.2613 137.4 69.336C137.122 69.4107 136.898 69.5387 136.728 69.72C136.568 69.9013 136.488 70.1627 136.488 70.504C136.488 70.824 136.568 71.0853 136.728 71.288C136.898 71.4907 137.117 71.6453 137.384 71.752C137.661 71.848 137.949 71.896 138.248 71.896ZM151.307 73.096C150.923 73.096 150.55 73.048 150.187 72.952C149.835 72.8453 149.515 72.6907 149.227 72.488C148.95 72.2747 148.726 72.0133 148.555 71.704C148.395 71.384 148.315 71.016 148.315 70.6C148.315 70.12 148.401 69.7147 148.571 69.384C148.753 69.0533 148.993 68.792 149.291 68.6C149.59 68.408 149.937 68.2693 150.331 68.184C150.726 68.0987 151.137 68.056 151.563 68.056H154.043C154.043 67.576 153.974 67.16 153.835 66.808C153.707 66.456 153.494 66.184 153.195 65.992C152.897 65.7893 152.502 65.688 152.011 65.688C151.713 65.688 151.435 65.72 151.179 65.784C150.923 65.848 150.705 65.9493 150.523 66.088C150.342 66.2267 150.209 66.4133 150.123 66.648H148.667C148.742 66.264 148.886 65.9387 149.099 65.672C149.323 65.3947 149.59 65.1707 149.899 65C150.219 64.8187 150.561 64.6853 150.923 64.6C151.286 64.5147 151.649 64.472 152.011 64.472C152.822 64.472 153.473 64.6373 153.963 64.968C154.454 65.288 154.811 65.7467 155.035 66.344C155.259 66.9307 155.371 67.6293 155.371 68.44V73H154.235L154.155 71.928C153.921 72.248 153.638 72.4933 153.307 72.664C152.977 72.8347 152.635 72.9467 152.283 73C151.942 73.064 151.617 73.096 151.307 73.096ZM151.435 71.896C151.969 71.896 152.427 71.8107 152.811 71.64C153.206 71.4587 153.51 71.1973 153.723 70.856C153.937 70.5147 154.043 70.0987 154.043 69.608V69.192H152.555C152.203 69.192 151.857 69.1973 151.515 69.208C151.174 69.2187 150.865 69.2613 150.587 69.336C150.31 69.4107 150.086 69.5387 149.915 69.72C149.755 69.9013 149.675 70.1627 149.675 70.504C149.675 70.824 149.755 71.0853 149.915 71.288C150.086 71.4907 150.305 71.6453 150.571 71.752C150.849 71.848 151.137 71.896 151.435 71.896ZM157.478 73V64.568H158.838V68.2H160.31L162.806 64.568H164.358L161.542 68.584L164.598 73H162.998L160.47 69.384H158.838V73H157.478ZM167.743 73V65.768H164.847V64.568H171.999V65.768H169.103V73H167.743ZM173.213 73V64.568H174.573V71.032C174.647 70.8827 174.749 70.7227 174.877 70.552C175.005 70.3707 175.106 70.232 175.181 70.136L179.261 64.568H180.605V73H179.245V66.536C179.159 66.696 179.063 66.8453 178.957 66.984C178.861 67.1227 178.77 67.2507 178.685 67.368L174.541 73H173.213ZM182.744 73V64.568H186.008C186.381 64.568 186.749 64.5947 187.112 64.648C187.485 64.6907 187.821 64.7867 188.12 64.936C188.429 65.0747 188.675 65.2827 188.856 65.56C189.048 65.8373 189.144 66.2053 189.144 66.664C189.144 66.9413 189.101 67.1973 189.016 67.432C188.931 67.656 188.803 67.8533 188.632 68.024C188.472 68.1947 188.264 68.344 188.008 68.472C188.584 68.6 189 68.8507 189.256 69.224C189.512 69.5973 189.64 70.024 189.64 70.504C189.64 70.9307 189.56 71.304 189.4 71.624C189.251 71.9333 189.037 72.1893 188.76 72.392C188.493 72.5947 188.179 72.7493 187.816 72.856C187.464 72.952 187.085 73 186.68 73H182.744ZM184.136 71.816H186.36C186.691 71.816 187 71.784 187.288 71.72C187.576 71.656 187.811 71.5387 187.992 71.368C188.173 71.1867 188.264 70.9307 188.264 70.6C188.264 70.2587 188.184 70.0027 188.024 69.832C187.875 69.6507 187.677 69.528 187.432 69.464C187.197 69.3893 186.941 69.3467 186.664 69.336C186.387 69.3253 186.125 69.32 185.88 69.32H184.136V71.816ZM184.136 68.168H185.304C185.517 68.168 185.763 68.1573 186.04 68.136C186.328 68.1147 186.605 68.0667 186.872 67.992C187.149 67.9067 187.373 67.7787 187.544 67.608C187.725 67.4373 187.816 67.2027 187.816 66.904C187.816 66.5093 187.704 66.2373 187.48 66.088C187.267 65.928 187.011 65.8373 186.712 65.816C186.413 65.784 186.136 65.768 185.88 65.768H184.136V68.168ZM191.494 73V64.568H192.854V68.264H197.078V64.568H198.438V73H197.078V69.464H192.854V73H191.494ZM203.292 73.096C202.908 73.096 202.534 73.048 202.172 72.952C201.82 72.8453 201.5 72.6907 201.212 72.488C200.934 72.2747 200.71 72.0133 200.54 71.704C200.38 71.384 200.3 71.016 200.3 70.6C200.3 70.12 200.385 69.7147 200.556 69.384C200.737 69.0533 200.977 68.792 201.276 68.6C201.574 68.408 201.921 68.2693 202.316 68.184C202.71 68.0987 203.121 68.056 203.548 68.056H206.028C206.028 67.576 205.958 67.16 205.82 66.808C205.692 66.456 205.478 66.184 205.18 65.992C204.881 65.7893 204.486 65.688 203.996 65.688C203.697 65.688 203.42 65.72 203.164 65.784C202.908 65.848 202.689 65.9493 202.508 66.088C202.326 66.2267 202.193 66.4133 202.108 66.648H200.652C200.726 66.264 200.87 65.9387 201.084 65.672C201.308 65.3947 201.574 65.1707 201.884 65C202.204 64.8187 202.545 64.6853 202.908 64.6C203.27 64.5147 203.633 64.472 203.996 64.472C204.806 64.472 205.457 64.6373 205.948 64.968C206.438 65.288 206.796 65.7467 207.02 66.344C207.244 66.9307 207.356 67.6293 207.356 68.44V73H206.22L206.14 71.928C205.905 72.248 205.622 72.4933 205.292 72.664C204.961 72.8347 204.62 72.9467 204.268 73C203.926 73.064 203.601 73.096 203.292 73.096ZM203.42 71.896C203.953 71.896 204.412 71.8107 204.796 71.64C205.19 71.4587 205.494 71.1973 205.708 70.856C205.921 70.5147 206.028 70.0987 206.028 69.608V69.192H204.54C204.188 69.192 203.841 69.1973 203.5 69.208C203.158 69.2187 202.849 69.2613 202.572 69.336C202.294 69.4107 202.07 69.5387 201.9 69.72C201.74 69.9013 201.66 70.1627 201.66 70.504C201.66 70.824 201.74 71.0853 201.9 71.288C202.07 71.4907 202.289 71.6453 202.556 71.752C202.833 71.848 203.121 71.896 203.42 71.896ZM217.455 73.096C216.57 73.096 215.828 72.9147 215.231 72.552C214.634 72.1787 214.186 71.6667 213.887 71.016C213.599 70.3653 213.455 69.624 213.455 68.792C213.455 67.9493 213.599 67.208 213.887 66.568C214.186 65.9173 214.634 65.4053 215.231 65.032C215.828 64.6587 216.58 64.472 217.487 64.472C218.372 64.472 219.108 64.6587 219.695 65.032C220.292 65.4053 220.735 65.9173 221.023 66.568C221.322 67.208 221.471 67.9493 221.471 68.792C221.471 69.624 221.322 70.3653 221.023 71.016C220.724 71.6667 220.276 72.1787 219.679 72.552C219.092 72.9147 218.351 73.096 217.455 73.096ZM217.455 71.896C218.074 71.896 218.575 71.7573 218.959 71.48C219.354 71.2027 219.642 70.8293 219.823 70.36C220.015 69.8907 220.111 69.368 220.111 68.792C220.111 68.216 220.015 67.6933 219.823 67.224C219.642 66.7547 219.354 66.3813 218.959 66.104C218.575 65.8267 218.074 65.688 217.455 65.688C216.847 65.688 216.346 65.8267 215.951 66.104C215.567 66.3813 215.279 66.7547 215.087 67.224C214.906 67.6933 214.815 68.216 214.815 68.792C214.815 69.368 214.906 69.8907 215.087 70.36C215.279 70.8293 215.567 71.2027 215.951 71.48C216.346 71.7573 216.847 71.896 217.455 71.896ZM225.259 73V65.768H222.363V64.568H229.515V65.768H226.619V73H225.259ZM230.728 73V64.568H232.088V68.2H233.56L236.056 64.568H237.608L234.792 68.584L237.848 73H236.248L233.72 69.384H232.088V73H230.728ZM238.257 73.016V71.832C238.47 71.832 238.662 71.7893 238.833 71.704C239.004 71.608 239.153 71.4693 239.281 71.288C239.43 71.0747 239.548 70.7653 239.633 70.36C239.718 69.9547 239.777 69.5227 239.809 69.064C239.852 68.552 239.884 68.0507 239.905 67.56C239.926 67.0587 239.942 66.5627 239.953 66.072C239.974 65.5813 239.985 65.08 239.985 64.568H245.841V73H244.481V65.768H241.313C241.302 66.1307 241.286 66.4987 241.265 66.872C241.254 67.2347 241.238 67.6027 241.217 67.976C241.206 68.3387 241.19 68.7067 241.169 69.08C241.158 69.5067 241.116 69.9867 241.041 70.52C240.966 71.0533 240.806 71.5387 240.561 71.976C240.326 72.392 240.038 72.6693 239.697 72.808C239.366 72.9467 238.886 73.016 238.257 73.016ZM254.81 73.096C253.573 73.096 252.64 72.7547 252.01 72.072C251.381 71.3787 251.024 70.4827 250.938 69.384H249.338V73H247.978V64.568H249.338V68.2H250.938C251.002 67.464 251.178 66.8187 251.466 66.264C251.765 65.6987 252.192 65.2613 252.746 64.952C253.301 64.632 253.989 64.472 254.81 64.472C255.706 64.472 256.448 64.6587 257.034 65.032C257.621 65.4053 258.058 65.9173 258.346 66.568C258.634 67.208 258.778 67.9493 258.778 68.792C258.778 69.624 258.634 70.3653 258.346 71.016C258.058 71.6667 257.621 72.1787 257.034 72.552C256.448 72.9147 255.706 73.096 254.81 73.096ZM254.81 71.896C255.429 71.896 255.925 71.7573 256.298 71.48C256.682 71.2027 256.965 70.8293 257.146 70.36C257.328 69.8907 257.418 69.368 257.418 68.792C257.418 68.216 257.328 67.6933 257.146 67.224C256.965 66.7547 256.682 66.3813 256.298 66.104C255.925 65.8267 255.429 65.688 254.81 65.688C254.202 65.688 253.706 65.8267 253.322 66.104C252.949 66.3813 252.677 66.7547 252.506 67.224C252.336 67.6933 252.25 68.216 252.25 68.792C252.25 69.368 252.336 69.8907 252.506 70.36C252.677 70.8293 252.949 71.2027 253.322 71.48C253.706 71.7573 254.202 71.896 254.81 71.896ZM265.501 73V69.752C265.095 69.8267 264.701 69.88 264.317 69.912C263.943 69.9333 263.607 69.944 263.309 69.944C262.519 69.944 261.895 69.8213 261.437 69.576C260.978 69.3307 260.653 68.9573 260.461 68.456C260.269 67.944 260.173 67.3093 260.173 66.552V64.568H261.533V66.456C261.533 66.9467 261.581 67.3627 261.677 67.704C261.773 68.0453 261.959 68.3067 262.237 68.488C262.514 68.6587 262.93 68.744 263.485 68.744C263.805 68.744 264.141 68.728 264.493 68.696C264.855 68.664 265.191 68.616 265.501 68.552V64.568H266.861V73H265.501ZM271.714 73.096C271.33 73.096 270.956 73.048 270.594 72.952C270.242 72.8453 269.922 72.6907 269.634 72.488C269.356 72.2747 269.132 72.0133 268.962 71.704C268.802 71.384 268.722 71.016 268.722 70.6C268.722 70.12 268.807 69.7147 268.978 69.384C269.159 69.0533 269.399 68.792 269.698 68.6C269.996 68.408 270.343 68.2693 270.738 68.184C271.132 68.0987 271.543 68.056 271.97 68.056H274.45C274.45 67.576 274.38 67.16 274.242 66.808C274.114 66.456 273.9 66.184 273.602 65.992C273.303 65.7893 272.908 65.688 272.418 65.688C272.119 65.688 271.842 65.72 271.586 65.784C271.33 65.848 271.111 65.9493 270.93 66.088C270.748 66.2267 270.615 66.4133 270.53 66.648H269.074C269.148 66.264 269.292 65.9387 269.506 65.672C269.73 65.3947 269.996 65.1707 270.306 65C270.626 64.8187 270.967 64.6853 271.33 64.6C271.692 64.5147 272.055 64.472 272.418 64.472C273.228 64.472 273.879 64.6373 274.37 64.968C274.86 65.288 275.218 65.7467 275.442 66.344C275.666 66.9307 275.778 67.6293 275.778 68.44V73H274.642L274.562 71.928C274.327 72.248 274.044 72.4933 273.714 72.664C273.383 72.8347 273.042 72.9467 272.69 73C272.348 73.064 272.023 73.096 271.714 73.096ZM271.842 71.896C272.375 71.896 272.834 71.8107 273.218 71.64C273.612 71.4587 273.916 71.1973 274.13 70.856C274.343 70.5147 274.45 70.0987 274.45 69.608V69.192H272.962C272.61 69.192 272.263 69.1973 271.922 69.208C271.58 69.2187 271.271 69.2613 270.994 69.336C270.716 69.4107 270.492 69.5387 270.322 69.72C270.162 69.9013 270.082 70.1627 270.082 70.504C270.082 70.824 270.162 71.0853 270.322 71.288C270.492 71.4907 270.711 71.6453 270.978 71.752C271.255 71.848 271.543 71.896 271.842 71.896ZM281.533 73.096C280.637 73.096 279.895 72.9147 279.309 72.552C278.722 72.1787 278.285 71.6667 277.997 71.016C277.709 70.3653 277.565 69.624 277.565 68.792C277.565 67.9493 277.714 67.208 278.013 66.568C278.322 65.9173 278.77 65.4053 279.357 65.032C279.943 64.6587 280.663 64.472 281.516 64.472C282.146 64.472 282.695 64.5947 283.165 64.84C283.645 65.0747 284.039 65.3947 284.349 65.8C284.669 66.2053 284.898 66.6587 285.036 67.16C285.186 67.6613 285.25 68.1787 285.229 68.712C285.218 68.808 285.213 68.904 285.213 69C285.213 69.096 285.207 69.192 285.197 69.288H278.941C278.983 69.7787 279.106 70.2213 279.309 70.616C279.511 71.0107 279.799 71.3253 280.173 71.56C280.546 71.784 281.01 71.896 281.565 71.896C281.842 71.896 282.119 71.864 282.397 71.8C282.685 71.7253 282.941 71.6027 283.165 71.432C283.399 71.2613 283.565 71.032 283.661 70.744H285.053C284.925 71.288 284.685 71.736 284.333 72.088C283.981 72.4293 283.559 72.6853 283.069 72.856C282.578 73.016 282.066 73.096 281.533 73.096ZM278.973 68.104H283.853C283.842 67.624 283.735 67.2027 283.533 66.84C283.33 66.4773 283.053 66.1947 282.701 65.992C282.359 65.7893 281.949 65.688 281.469 65.688C280.946 65.688 280.503 65.8 280.141 66.024C279.789 66.248 279.517 66.5413 279.325 66.904C279.133 67.2667 279.015 67.6667 278.973 68.104ZM289.024 73V65.768H286.128V64.568H293.28V65.768H290.384V73H289.024ZM106.072 91V82.568H109.336C109.709 82.568 110.077 82.5947 110.44 82.648C110.813 82.6907 111.149 82.7867 111.448 82.936C111.757 83.0747 112.003 83.2827 112.184 83.56C112.376 83.8373 112.472 84.2053 112.472 84.664C112.472 84.9413 112.429 85.1973 112.344 85.432C112.259 85.656 112.131 85.8533 111.96 86.024C111.8 86.1947 111.592 86.344 111.336 86.472C111.912 86.6 112.328 86.8507 112.584 87.224C112.84 87.5973 112.968 88.024 112.968 88.504C112.968 88.9307 112.888 89.304 112.728 89.624C112.579 89.9333 112.365 90.1893 112.088 90.392C111.821 90.5947 111.507 90.7493 111.144 90.856C110.792 90.952 110.413 91 110.008 91H106.072ZM107.464 89.816H109.688C110.019 89.816 110.328 89.784 110.616 89.72C110.904 89.656 111.139 89.5387 111.32 89.368C111.501 89.1867 111.592 88.9307 111.592 88.6C111.592 88.2587 111.512 88.0027 111.352 87.832C111.203 87.6507 111.005 87.528 110.76 87.464C110.525 87.3893 110.269 87.3467 109.992 87.336C109.715 87.3253 109.453 87.32 109.208 87.32H107.464V89.816ZM107.464 86.168H108.632C108.845 86.168 109.091 86.1573 109.368 86.136C109.656 86.1147 109.933 86.0667 110.2 85.992C110.477 85.9067 110.701 85.7787 110.872 85.608C111.053 85.4373 111.144 85.2027 111.144 84.904C111.144 84.5093 111.032 84.2373 110.808 84.088C110.595 83.928 110.339 83.8373 110.04 83.816C109.741 83.784 109.464 83.768 109.208 83.768H107.464V86.168ZM118.502 91.096C117.617 91.096 116.875 90.9147 116.278 90.552C115.681 90.1787 115.233 89.6667 114.934 89.016C114.646 88.3653 114.502 87.624 114.502 86.792C114.502 85.9493 114.646 85.208 114.934 84.568C115.233 83.9173 115.681 83.4053 116.278 83.032C116.875 82.6587 117.627 82.472 118.534 82.472C119.419 82.472 120.155 82.6587 120.742 83.032C121.339 83.4053 121.782 83.9173 122.07 84.568C122.369 85.208 122.518 85.9493 122.518 86.792C122.518 87.624 122.369 88.3653 122.07 89.016C121.771 89.6667 121.323 90.1787 120.726 90.552C120.139 90.9147 119.398 91.096 118.502 91.096ZM118.502 89.896C119.121 89.896 119.622 89.7573 120.006 89.48C120.401 89.2027 120.689 88.8293 120.87 88.36C121.062 87.8907 121.158 87.368 121.158 86.792C121.158 86.216 121.062 85.6933 120.87 85.224C120.689 84.7547 120.401 84.3813 120.006 84.104C119.622 83.8267 119.121 83.688 118.502 83.688C117.894 83.688 117.393 83.8267 116.998 84.104C116.614 84.3813 116.326 84.7547 116.134 85.224C115.953 85.6933 115.862 86.216 115.862 86.792C115.862 87.368 115.953 87.8907 116.134 88.36C116.326 88.8293 116.614 89.2027 116.998 89.48C117.393 89.7573 117.894 89.896 118.502 89.896ZM127.394 91.096C126.988 91.096 126.583 91.0587 126.178 90.984C125.772 90.9093 125.394 90.7867 125.042 90.616C124.7 90.4347 124.423 90.1947 124.21 89.896C123.996 89.5867 123.879 89.2027 123.858 88.744H125.186C125.239 89.032 125.394 89.2613 125.65 89.432C125.906 89.6027 126.194 89.7253 126.514 89.8C126.844 89.864 127.138 89.896 127.394 89.896C127.692 89.896 127.996 89.864 128.306 89.8C128.626 89.736 128.892 89.608 129.106 89.416C129.33 89.224 129.442 88.9413 129.442 88.568C129.442 88.2053 129.351 87.9387 129.17 87.768C128.999 87.5973 128.77 87.4853 128.482 87.432C128.204 87.3787 127.9 87.352 127.57 87.352H126.066V86.152H127.298C127.5 86.152 127.708 86.136 127.922 86.104C128.135 86.0613 128.332 85.9973 128.514 85.912C128.695 85.816 128.839 85.6827 128.946 85.512C129.063 85.3413 129.122 85.1227 129.122 84.856C129.122 84.5573 129.036 84.3227 128.866 84.152C128.695 83.9813 128.476 83.864 128.21 83.8C127.943 83.7253 127.671 83.688 127.394 83.688C127.138 83.688 126.866 83.7147 126.578 83.768C126.3 83.8213 126.06 83.928 125.858 84.088C125.655 84.2373 125.532 84.4613 125.49 84.76H124.146C124.167 84.184 124.343 83.7307 124.674 83.4C125.004 83.0693 125.415 82.8347 125.906 82.696C126.396 82.5467 126.887 82.472 127.378 82.472C127.751 82.472 128.119 82.5093 128.482 82.584C128.844 82.6587 129.175 82.7867 129.474 82.968C129.772 83.1387 130.007 83.368 130.178 83.656C130.359 83.944 130.45 84.3013 130.45 84.728C130.45 85.112 130.359 85.4533 130.178 85.752C129.996 86.0507 129.719 86.2907 129.346 86.472C129.89 86.6427 130.268 86.9093 130.482 87.272C130.695 87.6347 130.802 88.0667 130.802 88.568C130.802 89.016 130.706 89.4 130.514 89.72C130.322 90.0293 130.06 90.2907 129.73 90.504C129.41 90.7067 129.047 90.856 128.642 90.952C128.236 91.048 127.82 91.096 127.394 91.096ZM132.556 91V82.568H134.38L137.116 86.792L139.804 82.568H141.596V91H140.252V84.072L137.276 88.84H136.892L133.9 84.072V91H132.556ZM147.424 91.096C146.539 91.096 145.797 90.9147 145.2 90.552C144.603 90.1787 144.155 89.6667 143.856 89.016C143.568 88.3653 143.424 87.624 143.424 86.792C143.424 85.9493 143.568 85.208 143.856 84.568C144.155 83.9173 144.603 83.4053 145.2 83.032C145.797 82.6587 146.549 82.472 147.456 82.472C148.341 82.472 149.077 82.6587 149.664 83.032C150.261 83.4053 150.704 83.9173 150.992 84.568C151.291 85.208 151.44 85.9493 151.44 86.792C151.44 87.624 151.291 88.3653 150.992 89.016C150.693 89.6667 150.245 90.1787 149.648 90.552C149.061 90.9147 148.32 91.096 147.424 91.096ZM147.424 89.896C148.043 89.896 148.544 89.7573 148.928 89.48C149.323 89.2027 149.611 88.8293 149.792 88.36C149.984 87.8907 150.08 87.368 150.08 86.792C150.08 86.216 149.984 85.6933 149.792 85.224C149.611 84.7547 149.323 84.3813 148.928 84.104C148.544 83.8267 148.043 83.688 147.424 83.688C146.816 83.688 146.315 83.8267 145.92 84.104C145.536 84.3813 145.248 84.7547 145.056 85.224C144.875 85.6933 144.784 86.216 144.784 86.792C144.784 87.368 144.875 87.8907 145.056 88.36C145.248 88.8293 145.536 89.2027 145.92 89.48C146.315 89.7573 146.816 89.896 147.424 89.896ZM152.255 91L154.991 86.584L152.495 82.568H153.951L156.175 86.216H157.439V82.568H158.799V86.216H160.063L162.287 82.568H163.743L161.247 86.584L163.983 91H162.399L160.207 87.368H158.799V91H157.439V87.368H156.031L153.839 91H152.255ZM165.275 91V82.568H166.635V86.264H170.859V82.568H172.219V91H170.859V87.464H166.635V91H165.275ZM178.049 91.096C177.164 91.096 176.422 90.9147 175.825 90.552C175.228 90.1787 174.78 89.6667 174.481 89.016C174.193 88.3653 174.049 87.624 174.049 86.792C174.049 85.9493 174.193 85.208 174.481 84.568C174.78 83.9173 175.228 83.4053 175.825 83.032C176.422 82.6587 177.174 82.472 178.081 82.472C178.966 82.472 179.702 82.6587 180.289 83.032C180.886 83.4053 181.329 83.9173 181.617 84.568C181.916 85.208 182.065 85.9493 182.065 86.792C182.065 87.624 181.916 88.3653 181.617 89.016C181.318 89.6667 180.87 90.1787 180.273 90.552C179.686 90.9147 178.945 91.096 178.049 91.096ZM178.049 89.896C178.668 89.896 179.169 89.7573 179.553 89.48C179.948 89.2027 180.236 88.8293 180.417 88.36C180.609 87.8907 180.705 87.368 180.705 86.792C180.705 86.216 180.609 85.6933 180.417 85.224C180.236 84.7547 179.948 84.3813 179.553 84.104C179.169 83.8267 178.668 83.688 178.049 83.688C177.441 83.688 176.94 83.8267 176.545 84.104C176.161 84.3813 175.873 84.7547 175.681 85.224C175.5 85.6933 175.409 86.216 175.409 86.792C175.409 87.368 175.5 87.8907 175.681 88.36C175.873 88.8293 176.161 89.2027 176.545 89.48C176.94 89.7573 177.441 89.896 178.049 89.896ZM187.485 91.096C186.599 91.096 185.863 90.9147 185.277 90.552C184.701 90.1787 184.269 89.6667 183.981 89.016C183.703 88.3653 183.565 87.6293 183.565 86.808C183.565 86.008 183.709 85.2827 183.997 84.632C184.295 83.9707 184.743 83.448 185.341 83.064C185.949 82.6693 186.717 82.472 187.645 82.472C188.221 82.472 188.733 82.568 189.181 82.76C189.639 82.952 190.018 83.2347 190.317 83.608C190.615 83.9707 190.823 84.4293 190.941 84.984H189.549C189.389 84.5147 189.133 84.184 188.781 83.992C188.439 83.7893 188.034 83.688 187.565 83.688C186.925 83.688 186.413 83.8373 186.029 84.136C185.645 84.4347 185.362 84.824 185.181 85.304C185.01 85.7733 184.924 86.2747 184.924 86.808C184.924 87.3627 185.015 87.8747 185.197 88.344C185.378 88.8133 185.661 89.192 186.045 89.48C186.429 89.7573 186.925 89.896 187.533 89.896C187.981 89.896 188.402 89.8 188.797 89.608C189.202 89.416 189.469 89.0747 189.597 88.584H191.005C190.898 89.16 190.669 89.6347 190.317 90.008C189.975 90.3813 189.554 90.6587 189.053 90.84C188.562 91.0107 188.039 91.096 187.485 91.096ZM194.696 91V83.768H191.8V82.568H198.952V83.768H196.056V91H194.696ZM200.166 91V82.568H201.558V85.784H203.414C203.915 85.784 204.363 85.8267 204.758 85.912C205.163 85.9867 205.51 86.12 205.798 86.312C206.086 86.504 206.304 86.7653 206.454 87.096C206.614 87.416 206.694 87.8267 206.694 88.328C206.694 88.7867 206.614 89.1867 206.454 89.528C206.294 89.8587 206.07 90.136 205.782 90.36C205.494 90.5733 205.147 90.7333 204.742 90.84C204.347 90.9467 203.91 91 203.43 91H200.166ZM201.558 89.816H202.358C202.731 89.816 203.088 89.8053 203.43 89.784C203.782 89.7627 204.102 89.7093 204.39 89.624C204.678 89.5387 204.902 89.4 205.062 89.208C205.232 89.0053 205.318 88.728 205.318 88.376C205.318 88.0347 205.248 87.7733 205.11 87.592C204.982 87.4 204.811 87.2613 204.598 87.176C204.384 87.08 204.15 87.0213 203.894 87C203.648 86.9787 203.403 86.968 203.158 86.968H201.558V89.816ZM212.775 91V82.568H219.767V91H218.407V83.768H214.135V91H212.775ZM221.916 94.04V82.568H223.212L223.276 83.864C223.564 83.4053 223.953 83.0587 224.444 82.824C224.945 82.5893 225.484 82.472 226.06 82.472C226.913 82.472 227.612 82.664 228.156 83.048C228.7 83.4213 229.1 83.9333 229.356 84.584C229.622 85.2347 229.756 85.9707 229.756 86.792C229.756 87.6133 229.622 88.3493 229.356 89C229.089 89.6507 228.678 90.1627 228.124 90.536C227.569 90.9093 226.86 91.096 225.996 91.096C225.569 91.096 225.185 91.0533 224.844 90.968C224.502 90.872 224.204 90.7387 223.948 90.568C223.692 90.3973 223.468 90.2053 223.276 89.992V94.04H221.916ZM225.884 89.896C226.502 89.896 226.993 89.7573 227.356 89.48C227.718 89.192 227.98 88.8133 228.14 88.344C228.31 87.8747 228.396 87.3573 228.396 86.792C228.396 86.216 228.31 85.6933 228.14 85.224C227.98 84.7547 227.713 84.3813 227.34 84.104C226.966 83.8267 226.47 83.688 225.852 83.688C225.297 83.688 224.822 83.832 224.428 84.12C224.044 84.3973 223.75 84.776 223.548 85.256C223.345 85.7253 223.244 86.2427 223.244 86.808C223.244 87.3947 223.34 87.9227 223.532 88.392C223.724 88.8613 224.017 89.2293 224.412 89.496C224.806 89.7627 225.297 89.896 225.884 89.896ZM235.19 91.096C234.304 91.096 233.563 90.9147 232.966 90.552C232.368 90.1787 231.92 89.6667 231.622 89.016C231.334 88.3653 231.19 87.624 231.19 86.792C231.19 85.9493 231.334 85.208 231.622 84.568C231.92 83.9173 232.368 83.4053 232.966 83.032C233.563 82.6587 234.315 82.472 235.222 82.472C236.107 82.472 236.843 82.6587 237.43 83.032C238.027 83.4053 238.47 83.9173 238.758 84.568C239.056 85.208 239.206 85.9493 239.206 86.792C239.206 87.624 239.056 88.3653 238.758 89.016C238.459 89.6667 238.011 90.1787 237.414 90.552C236.827 90.9147 236.086 91.096 235.19 91.096ZM235.19 89.896C235.808 89.896 236.31 89.7573 236.694 89.48C237.088 89.2027 237.376 88.8293 237.558 88.36C237.75 87.8907 237.846 87.368 237.846 86.792C237.846 86.216 237.75 85.6933 237.558 85.224C237.376 84.7547 237.088 84.3813 236.694 84.104C236.31 83.8267 235.808 83.688 235.19 83.688C234.582 83.688 234.08 83.8267 233.686 84.104C233.302 84.3813 233.014 84.7547 232.822 85.224C232.64 85.6933 232.549 86.216 232.549 86.792C232.549 87.368 232.64 87.8907 232.822 88.36C233.014 88.8293 233.302 89.2027 233.686 89.48C234.08 89.7573 234.582 89.896 235.19 89.896ZM244.673 91.096C243.777 91.096 243.036 90.9147 242.449 90.552C241.862 90.1787 241.425 89.6667 241.137 89.016C240.849 88.3653 240.705 87.624 240.705 86.792C240.705 85.9493 240.854 85.208 241.153 84.568C241.462 83.9173 241.91 83.4053 242.497 83.032C243.084 82.6587 243.804 82.472 244.657 82.472C245.286 82.472 245.836 82.5947 246.305 82.84C246.785 83.0747 247.18 83.3947 247.489 83.8C247.809 84.2053 248.038 84.6587 248.177 85.16C248.326 85.6613 248.39 86.1787 248.369 86.712C248.358 86.808 248.353 86.904 248.353 87C248.353 87.096 248.348 87.192 248.337 87.288H242.081C242.124 87.7787 242.246 88.2213 242.449 88.616C242.652 89.0107 242.94 89.3253 243.313 89.56C243.686 89.784 244.15 89.896 244.705 89.896C244.982 89.896 245.26 89.864 245.537 89.8C245.825 89.7253 246.081 89.6027 246.305 89.432C246.54 89.2613 246.705 89.032 246.801 88.744H248.193C248.065 89.288 247.825 89.736 247.473 90.088C247.121 90.4293 246.7 90.6853 246.209 90.856C245.718 91.016 245.206 91.096 244.673 91.096ZM242.113 86.104H246.993C246.982 85.624 246.876 85.2027 246.673 84.84C246.47 84.4773 246.193 84.1947 245.841 83.992C245.5 83.7893 245.089 83.688 244.609 83.688C244.086 83.688 243.644 83.8 243.281 84.024C242.929 84.248 242.657 84.5413 242.465 84.904C242.273 85.2667 242.156 85.6667 242.113 86.104ZM256.789 93.592V91H250.197V82.568H251.557V89.816H255.637V82.568H257.013V89.816H258.117V93.592H256.789ZM259.541 91V82.568H260.901V89.032C260.975 88.8827 261.077 88.7227 261.205 88.552C261.333 88.3707 261.434 88.232 261.509 88.136L265.589 82.568H266.933V91H265.573V84.536C265.487 84.696 265.391 84.8453 265.285 84.984C265.189 85.1227 265.098 85.2507 265.013 85.368L260.869 91H259.541ZM269.072 94.04V82.568H270.368L270.432 83.864C270.72 83.4053 271.109 83.0587 271.6 82.824C272.101 82.5893 272.64 82.472 273.216 82.472C274.069 82.472 274.768 82.664 275.312 83.048C275.856 83.4213 276.256 83.9333 276.512 84.584C276.779 85.2347 276.912 85.9707 276.912 86.792C276.912 87.6133 276.779 88.3493 276.512 89C276.245 89.6507 275.835 90.1627 275.28 90.536C274.725 90.9093 274.016 91.096 273.152 91.096C272.725 91.096 272.341 91.0533 272 90.968C271.659 90.872 271.36 90.7387 271.104 90.568C270.848 90.3973 270.624 90.2053 270.432 89.992V94.04H269.072ZM273.04 89.896C273.659 89.896 274.149 89.7573 274.512 89.48C274.875 89.192 275.136 88.8133 275.296 88.344C275.467 87.8747 275.552 87.3573 275.552 86.792C275.552 86.216 275.467 85.6933 275.296 85.224C275.136 84.7547 274.869 84.3813 274.496 84.104C274.123 83.8267 273.627 83.688 273.008 83.688C272.453 83.688 271.979 83.832 271.584 84.12C271.2 84.3973 270.907 84.776 270.704 85.256C270.501 85.7253 270.4 86.2427 270.4 86.808C270.4 87.3947 270.496 87.9227 270.688 88.392C270.88 88.8613 271.173 89.2293 271.568 89.496C271.963 89.7627 272.453 89.896 273.04 89.896ZM282.346 91.096C281.46 91.096 280.719 90.9147 280.122 90.552C279.524 90.1787 279.076 89.6667 278.778 89.016C278.49 88.3653 278.346 87.624 278.346 86.792C278.346 85.9493 278.49 85.208 278.778 84.568C279.076 83.9173 279.524 83.4053 280.122 83.032C280.719 82.6587 281.471 82.472 282.378 82.472C283.263 82.472 283.999 82.6587 284.586 83.032C285.183 83.4053 285.626 83.9173 285.914 84.568C286.212 85.208 286.362 85.9493 286.362 86.792C286.362 87.624 286.212 88.3653 285.914 89.016C285.615 89.6667 285.167 90.1787 284.57 90.552C283.983 90.9147 283.242 91.096 282.346 91.096ZM282.346 89.896C282.964 89.896 283.466 89.7573 283.85 89.48C284.244 89.2027 284.532 88.8293 284.714 88.36C284.906 87.8907 285.002 87.368 285.002 86.792C285.002 86.216 284.906 85.6933 284.714 85.224C284.532 84.7547 284.244 84.3813 283.85 84.104C283.466 83.8267 282.964 83.688 282.346 83.688C281.738 83.688 281.236 83.8267 280.842 84.104C280.458 84.3813 280.17 84.7547 279.978 85.224C279.796 85.6933 279.706 86.216 279.706 86.792C279.706 87.368 279.796 87.8907 279.978 88.36C280.17 88.8293 280.458 89.2027 280.842 89.48C281.236 89.7573 281.738 89.896 282.346 89.896ZM288.181 91V82.568H291.445C291.819 82.568 292.187 82.5947 292.549 82.648C292.923 82.6907 293.259 82.7867 293.557 82.936C293.867 83.0747 294.112 83.2827 294.293 83.56C294.485 83.8373 294.581 84.2053 294.581 84.664C294.581 84.9413 294.539 85.1973 294.453 85.432C294.368 85.656 294.24 85.8533 294.069 86.024C293.909 86.1947 293.701 86.344 293.445 86.472C294.021 86.6 294.437 86.8507 294.693 87.224C294.949 87.5973 295.077 88.024 295.077 88.504C295.077 88.9307 294.997 89.304 294.837 89.624C294.688 89.9333 294.475 90.1893 294.197 90.392C293.931 90.5947 293.616 90.7493 293.253 90.856C292.901 90.952 292.523 91 292.117 91H288.181ZM289.573 89.816H291.797C292.128 89.816 292.437 89.784 292.725 89.72C293.013 89.656 293.248 89.5387 293.429 89.368C293.611 89.1867 293.701 88.9307 293.701 88.6C293.701 88.2587 293.621 88.0027 293.461 87.832C293.312 87.6507 293.115 87.528 292.869 87.464C292.635 87.3893 292.379 87.3467 292.101 87.336C291.824 87.3253 291.563 87.32 291.317 87.32H289.573V89.816ZM289.573 86.168H290.741C290.955 86.168 291.2 86.1573 291.477 86.136C291.765 86.1147 292.043 86.0667 292.309 85.992C292.587 85.9067 292.811 85.7787 292.981 85.608C293.163 85.4373 293.253 85.2027 293.253 84.904C293.253 84.5093 293.141 84.2373 292.917 84.088C292.704 83.928 292.448 83.8373 292.149 83.816C291.851 83.784 291.573 83.768 291.317 83.768H289.573V86.168ZM299.635 91.096C299.251 91.096 298.878 91.048 298.515 90.952C298.163 90.8453 297.843 90.6907 297.555 90.488C297.278 90.2747 297.054 90.0133 296.883 89.704C296.723 89.384 296.643 89.016 296.643 88.6C296.643 88.12 296.729 87.7147 296.899 87.384C297.081 87.0533 297.321 86.792 297.619 86.6C297.918 86.408 298.265 86.2693 298.659 86.184C299.054 86.0987 299.465 86.056 299.891 86.056H302.371C302.371 85.576 302.302 85.16 302.163 84.808C302.035 84.456 301.822 84.184 301.523 83.992C301.225 83.7893 300.83 83.688 300.339 83.688C300.041 83.688 299.763 83.72 299.507 83.784C299.251 83.848 299.033 83.9493 298.851 84.088C298.67 84.2267 298.537 84.4133 298.451 84.648H296.995C297.07 84.264 297.214 83.9387 297.427 83.672C297.651 83.3947 297.918 83.1707 298.227 83C298.547 82.8187 298.889 82.6853 299.251 82.6C299.614 82.5147 299.977 82.472 300.339 82.472C301.15 82.472 301.801 82.6373 302.291 82.968C302.782 83.288 303.139 83.7467 303.363 84.344C303.587 84.9307 303.699 85.6293 303.699 86.44V91H302.563L302.483 89.928C302.249 90.248 301.966 90.4933 301.635 90.664C301.305 90.8347 300.963 90.9467 300.611 91C300.27 91.064 299.945 91.096 299.635 91.096ZM299.763 89.896C300.297 89.896 300.755 89.8107 301.139 89.64C301.534 89.4587 301.838 89.1973 302.051 88.856C302.265 88.5147 302.371 88.0987 302.371 87.608V87.192H300.883C300.531 87.192 300.185 87.1973 299.843 87.208C299.502 87.2187 299.193 87.2613 298.915 87.336C298.638 87.4107 298.414 87.5387 298.243 87.72C298.083 87.9013 298.003 88.1627 298.003 88.504C298.003 88.824 298.083 89.0853 298.243 89.288C298.414 89.4907 298.633 89.6453 298.899 89.752C299.177 89.848 299.465 89.896 299.763 89.896ZM305.806 91V82.568H307.166V86.264H311.39V82.568H312.75V91H311.39V87.464H307.166V91H305.806ZM314.9 91V82.568H316.26V89.032C316.335 88.8827 316.436 88.7227 316.564 88.552C316.692 88.3707 316.793 88.232 316.868 88.136L320.948 82.568H322.292V91H320.932V84.536C320.847 84.696 320.751 84.8453 320.644 84.984C320.548 85.1227 320.457 85.2507 320.372 85.368L316.228 91H314.9ZM328.079 91.096C327.183 91.096 326.442 90.9147 325.855 90.552C325.269 90.1787 324.831 89.6667 324.543 89.016C324.255 88.3653 324.111 87.624 324.111 86.792C324.111 85.9493 324.261 85.208 324.559 84.568C324.869 83.9173 325.317 83.4053 325.903 83.032C326.49 82.6587 327.21 82.472 328.063 82.472C328.693 82.472 329.242 82.5947 329.711 82.84C330.191 83.0747 330.586 83.3947 330.895 83.8C331.215 84.2053 331.445 84.6587 331.583 85.16C331.733 85.6613 331.797 86.1787 331.775 86.712C331.765 86.808 331.759 86.904 331.759 87C331.759 87.096 331.754 87.192 331.743 87.288H325.487C325.53 87.7787 325.653 88.2213 325.855 88.616C326.058 89.0107 326.346 89.3253 326.719 89.56C327.093 89.784 327.557 89.896 328.111 89.896C328.389 89.896 328.666 89.864 328.943 89.8C329.231 89.7253 329.487 89.6027 329.711 89.432C329.946 89.2613 330.111 89.032 330.207 88.744H331.599C331.471 89.288 331.231 89.736 330.879 90.088C330.527 90.4293 330.106 90.6853 329.615 90.856C329.125 91.016 328.613 91.096 328.079 91.096ZM325.519 86.104H330.399C330.389 85.624 330.282 85.2027 330.079 84.84C329.877 84.4773 329.599 84.1947 329.247 83.992C328.906 83.7893 328.495 83.688 328.015 83.688C327.493 83.688 327.05 83.8 326.687 84.024C326.335 84.248 326.063 84.5413 325.871 84.904C325.679 85.2667 325.562 85.6667 325.519 86.104ZM109.752 109.096C108.867 109.096 108.125 108.915 107.528 108.552C106.931 108.179 106.483 107.667 106.184 107.016C105.896 106.365 105.752 105.624 105.752 104.792C105.752 103.949 105.896 103.208 106.184 102.568C106.483 101.917 106.931 101.405 107.528 101.032C108.125 100.659 108.877 100.472 109.784 100.472C110.669 100.472 111.405 100.659 111.992 101.032C112.589 101.405 113.032 101.917 113.32 102.568C113.619 103.208 113.768 103.949 113.768 104.792C113.768 105.624 113.619 106.365 113.32 107.016C113.021 107.667 112.573 108.179 111.976 108.552C111.389 108.915 110.648 109.096 109.752 109.096ZM109.752 107.896C110.371 107.896 110.872 107.757 111.256 107.48C111.651 107.203 111.939 106.829 112.12 106.36C112.312 105.891 112.408 105.368 112.408 104.792C112.408 104.216 112.312 103.693 112.12 103.224C111.939 102.755 111.651 102.381 111.256 102.104C110.872 101.827 110.371 101.688 109.752 101.688C109.144 101.688 108.643 101.827 108.248 102.104C107.864 102.381 107.576 102.755 107.384 103.224C107.203 103.693 107.112 104.216 107.112 104.792C107.112 105.368 107.203 105.891 107.384 106.36C107.576 106.829 107.864 107.203 108.248 107.48C108.643 107.757 109.144 107.896 109.752 107.896ZM119.296 109.096C118.763 109.096 118.288 109.021 117.872 108.872C117.456 108.712 117.099 108.493 116.8 108.216C116.501 107.928 116.256 107.592 116.064 107.208C115.872 106.813 115.728 106.387 115.632 105.928C115.536 105.469 115.488 104.984 115.488 104.472C115.488 103.651 115.504 102.888 115.536 102.184C115.579 101.469 115.696 100.835 115.888 100.28C116.08 99.7147 116.405 99.2453 116.864 98.872C117.323 98.4987 117.968 98.2373 118.8 98.088C119.227 98.0133 119.648 97.9493 120.064 97.896C120.48 97.8427 120.901 97.7893 121.328 97.736C121.467 97.7147 121.611 97.6933 121.76 97.672C121.909 97.6507 122.064 97.624 122.224 97.592C122.395 97.56 122.555 97.5333 122.704 97.512V98.76C122.587 98.8027 122.459 98.84 122.32 98.872C122.192 98.8933 122.053 98.9147 121.904 98.936C121.765 98.9573 121.621 98.9733 121.472 98.984C121.333 98.9947 121.195 99.0107 121.056 99.032C120.917 99.0427 120.784 99.0587 120.656 99.08C120.283 99.1227 119.888 99.1653 119.472 99.208C119.056 99.24 118.661 99.3253 118.288 99.464C117.925 99.592 117.616 99.8427 117.36 100.216C117.232 100.408 117.12 100.637 117.024 100.904C116.939 101.171 116.875 101.443 116.832 101.72C116.8 101.987 116.779 102.243 116.768 102.488C116.981 102.189 117.243 101.949 117.552 101.768C117.861 101.576 118.192 101.437 118.544 101.352C118.896 101.256 119.232 101.208 119.552 101.208C120.32 101.208 120.971 101.368 121.504 101.688C122.037 101.997 122.443 102.44 122.72 103.016C122.997 103.592 123.136 104.264 123.136 105.032C123.136 105.8 122.987 106.493 122.688 107.112C122.389 107.72 121.952 108.205 121.376 108.568C120.811 108.92 120.117 109.096 119.296 109.096ZM119.328 107.896C119.861 107.896 120.309 107.768 120.672 107.512C121.035 107.256 121.307 106.915 121.488 106.488C121.68 106.061 121.776 105.592 121.776 105.08C121.776 104.579 121.68 104.131 121.488 103.736C121.307 103.331 121.035 103.011 120.672 102.776C120.32 102.541 119.883 102.424 119.36 102.424C118.848 102.424 118.405 102.547 118.032 102.792C117.669 103.037 117.387 103.368 117.184 103.784C116.992 104.189 116.896 104.632 116.896 105.112C116.896 105.603 116.987 106.061 117.168 106.488C117.349 106.915 117.616 107.256 117.968 107.512C118.331 107.768 118.784 107.896 119.328 107.896ZM126.163 109V101.768H124.115V100.568H127.555V103.784H129.427C129.928 103.784 130.376 103.827 130.771 103.912C131.176 103.987 131.517 104.115 131.795 104.296C132.083 104.477 132.301 104.728 132.451 105.048C132.611 105.368 132.691 105.768 132.691 106.248C132.691 106.739 132.611 107.16 132.451 107.512C132.291 107.864 132.061 108.152 131.763 108.376C131.475 108.589 131.133 108.749 130.739 108.856C130.344 108.952 129.912 109 129.443 109H126.163ZM127.555 107.816H128.355C128.739 107.816 129.107 107.811 129.459 107.8C129.821 107.779 130.141 107.725 130.419 107.64C130.696 107.555 130.915 107.405 131.075 107.192C131.235 106.979 131.315 106.68 131.315 106.296C131.315 105.987 131.251 105.747 131.123 105.576C130.995 105.395 130.824 105.261 130.611 105.176C130.408 105.091 130.179 105.037 129.923 105.016C129.667 104.984 129.416 104.968 129.171 104.968H127.555V107.816ZM138.048 109.096C137.152 109.096 136.411 108.915 135.824 108.552C135.237 108.179 134.8 107.667 134.512 107.016C134.224 106.365 134.08 105.624 134.08 104.792C134.08 103.949 134.229 103.208 134.528 102.568C134.837 101.917 135.285 101.405 135.872 101.032C136.459 100.659 137.179 100.472 138.032 100.472C138.661 100.472 139.211 100.595 139.68 100.84C140.16 101.075 140.555 101.395 140.864 101.8C141.184 102.205 141.413 102.659 141.552 103.16C141.701 103.661 141.765 104.179 141.744 104.712C141.733 104.808 141.728 104.904 141.728 105C141.728 105.096 141.723 105.192 141.712 105.288H135.456C135.499 105.779 135.621 106.221 135.824 106.616C136.027 107.011 136.315 107.325 136.688 107.56C137.061 107.784 137.525 107.896 138.08 107.896C138.357 107.896 138.635 107.864 138.912 107.8C139.2 107.725 139.456 107.603 139.68 107.432C139.915 107.261 140.08 107.032 140.176 106.744H141.568C141.44 107.288 141.2 107.736 140.848 108.088C140.496 108.429 140.075 108.685 139.584 108.856C139.093 109.016 138.581 109.096 138.048 109.096ZM135.488 104.104H140.368C140.357 103.624 140.251 103.203 140.048 102.84C139.845 102.477 139.568 102.195 139.216 101.992C138.875 101.789 138.464 101.688 137.984 101.688C137.461 101.688 137.019 101.8 136.656 102.024C136.304 102.248 136.032 102.541 135.84 102.904C135.648 103.267 135.531 103.667 135.488 104.104ZM143.572 109V100.568H144.932V104.2H146.404L148.9 100.568H150.452L147.636 104.584L150.692 109H149.092L146.564 105.384H144.932V109H143.572ZM153.837 109V101.768H150.941V100.568H158.093V101.768H155.197V109H153.837ZM162.01 109.096C161.626 109.096 161.253 109.048 160.89 108.952C160.538 108.845 160.218 108.691 159.93 108.488C159.653 108.275 159.429 108.013 159.258 107.704C159.098 107.384 159.018 107.016 159.018 106.6C159.018 106.12 159.104 105.715 159.274 105.384C159.456 105.053 159.696 104.792 159.994 104.6C160.293 104.408 160.64 104.269 161.034 104.184C161.429 104.099 161.84 104.056 162.266 104.056H164.746C164.746 103.576 164.677 103.16 164.538 102.808C164.41 102.456 164.197 102.184 163.898 101.992C163.6 101.789 163.205 101.688 162.714 101.688C162.416 101.688 162.138 101.72 161.882 101.784C161.626 101.848 161.408 101.949 161.226 102.088C161.045 102.227 160.912 102.413 160.826 102.648H159.37C159.445 102.264 159.589 101.939 159.802 101.672C160.026 101.395 160.293 101.171 160.602 101C160.922 100.819 161.264 100.685 161.626 100.6C161.989 100.515 162.352 100.472 162.714 100.472C163.525 100.472 164.176 100.637 164.666 100.968C165.157 101.288 165.514 101.747 165.738 102.344C165.962 102.931 166.074 103.629 166.074 104.44V109H164.938L164.858 107.928C164.624 108.248 164.341 108.493 164.01 108.664C163.68 108.835 163.338 108.947 162.986 109C162.645 109.064 162.32 109.096 162.01 109.096ZM162.138 107.896C162.672 107.896 163.13 107.811 163.514 107.64C163.909 107.459 164.213 107.197 164.426 106.856C164.64 106.515 164.746 106.099 164.746 105.608V105.192H163.258C162.906 105.192 162.56 105.197 162.218 105.208C161.877 105.219 161.568 105.261 161.29 105.336C161.013 105.411 160.789 105.539 160.618 105.72C160.458 105.901 160.378 106.163 160.378 106.504C160.378 106.824 160.458 107.085 160.618 107.288C160.789 107.491 161.008 107.645 161.274 107.752C161.552 107.848 161.84 107.896 162.138 107.896ZM172.494 109V100.568H173.854V104.264H178.078V100.568H179.438V109H178.078V105.464H173.854V109H172.494ZM184.292 109.096C183.908 109.096 183.534 109.048 183.172 108.952C182.82 108.845 182.5 108.691 182.212 108.488C181.934 108.275 181.71 108.013 181.54 107.704C181.38 107.384 181.3 107.016 181.3 106.6C181.3 106.12 181.385 105.715 181.556 105.384C181.737 105.053 181.977 104.792 182.276 104.6C182.574 104.408 182.921 104.269 183.316 104.184C183.71 104.099 184.121 104.056 184.548 104.056H187.028C187.028 103.576 186.958 103.16 186.82 102.808C186.692 102.456 186.478 102.184 186.18 101.992C185.881 101.789 185.486 101.688 184.996 101.688C184.697 101.688 184.42 101.72 184.164 101.784C183.908 101.848 183.689 101.949 183.508 102.088C183.326 102.227 183.193 102.413 183.108 102.648H181.652C181.726 102.264 181.87 101.939 182.084 101.672C182.308 101.395 182.574 101.171 182.884 101C183.204 100.819 183.545 100.685 183.908 100.6C184.27 100.515 184.633 100.472 184.996 100.472C185.806 100.472 186.457 100.637 186.948 100.968C187.438 101.288 187.796 101.747 188.02 102.344C188.244 102.931 188.356 103.629 188.356 104.44V109H187.22L187.14 107.928C186.905 108.248 186.622 108.493 186.292 108.664C185.961 108.835 185.62 108.947 185.268 109C184.926 109.064 184.601 109.096 184.292 109.096ZM184.42 107.896C184.953 107.896 185.412 107.811 185.796 107.64C186.19 107.459 186.494 107.197 186.708 106.856C186.921 106.515 187.028 106.099 187.028 105.608V105.192H185.54C185.188 105.192 184.841 105.197 184.5 105.208C184.158 105.219 183.849 105.261 183.572 105.336C183.294 105.411 183.07 105.539 182.9 105.72C182.74 105.901 182.66 106.163 182.66 106.504C182.66 106.824 182.74 107.085 182.9 107.288C183.07 107.491 183.289 107.645 183.556 107.752C183.833 107.848 184.121 107.896 184.42 107.896ZM194.055 111.592V107.816C194.364 107.816 194.61 107.731 194.791 107.56C194.983 107.389 195.132 107.165 195.239 106.888C195.346 106.611 195.426 106.312 195.479 105.992C195.532 105.661 195.575 105.347 195.607 105.048C195.66 104.557 195.692 104.072 195.703 103.592C195.724 103.101 195.735 102.712 195.735 102.424C195.746 102.115 195.751 101.805 195.751 101.496C195.751 101.187 195.751 100.877 195.751 100.568H201.735V107.816H202.839V111.592H201.527V109H195.367V111.592H194.055ZM196.215 107.816H200.375V101.768H197.047C197.036 102.216 197.026 102.717 197.015 103.272C197.004 103.827 196.983 104.344 196.951 104.824C196.94 105.101 196.914 105.416 196.871 105.768C196.839 106.12 196.775 106.477 196.679 106.84C196.583 107.192 196.428 107.517 196.215 107.816ZM204.26 112.04V100.568H205.556L205.62 101.864C205.908 101.405 206.297 101.059 206.788 100.824C207.289 100.589 207.828 100.472 208.404 100.472C209.257 100.472 209.956 100.664 210.5 101.048C211.044 101.421 211.444 101.933 211.7 102.584C211.966 103.235 212.1 103.971 212.1 104.792C212.1 105.613 211.966 106.349 211.7 107C211.433 107.651 211.022 108.163 210.468 108.536C209.913 108.909 209.204 109.096 208.34 109.096C207.913 109.096 207.529 109.053 207.188 108.968C206.846 108.872 206.548 108.739 206.292 108.568C206.036 108.397 205.812 108.205 205.62 107.992V112.04H204.26ZM208.228 107.896C208.846 107.896 209.337 107.757 209.7 107.48C210.062 107.192 210.324 106.813 210.484 106.344C210.654 105.875 210.74 105.357 210.74 104.792C210.74 104.216 210.654 103.693 210.484 103.224C210.324 102.755 210.057 102.381 209.684 102.104C209.31 101.827 208.814 101.688 208.196 101.688C207.641 101.688 207.166 101.832 206.772 102.12C206.388 102.397 206.094 102.776 205.892 103.256C205.689 103.725 205.588 104.243 205.588 104.808C205.588 105.395 205.684 105.923 205.876 106.392C206.068 106.861 206.361 107.229 206.756 107.496C207.15 107.763 207.641 107.896 208.228 107.896ZM214.125 112.616V111.32C214.648 111.32 215.064 111.245 215.373 111.096C215.683 110.957 215.939 110.733 216.141 110.424C216.355 110.125 216.557 109.741 216.749 109.272L213.053 100.568H214.653L217.501 107.672L219.837 100.568H221.373L219.005 107.208C218.888 107.549 218.755 107.933 218.605 108.36C218.456 108.787 218.291 109.219 218.109 109.656C217.928 110.104 217.725 110.515 217.501 110.888C217.288 111.272 217.048 111.581 216.781 111.816C216.557 112.019 216.339 112.179 216.125 112.296C215.912 112.413 215.651 112.493 215.341 112.536C215.043 112.589 214.637 112.616 214.125 112.616ZM222.635 109V100.568H228.459V101.768H223.995V109H222.635ZM230.172 112.616V111.32C230.695 111.32 231.111 111.245 231.42 111.096C231.729 110.957 231.985 110.733 232.188 110.424C232.401 110.125 232.604 109.741 232.796 109.272L229.1 100.568H230.7L233.548 107.672L235.884 100.568H237.42L235.052 107.208C234.935 107.549 234.801 107.933 234.652 108.36C234.503 108.787 234.337 109.219 234.156 109.656C233.975 110.104 233.772 110.515 233.548 110.888C233.335 111.272 233.095 111.581 232.828 111.816C232.604 112.019 232.385 112.179 232.172 112.296C231.959 112.413 231.697 112.493 231.388 112.536C231.089 112.589 230.684 112.616 230.172 112.616ZM245.513 109.096C244.276 109.096 243.343 108.755 242.713 108.072C242.084 107.379 241.727 106.483 241.641 105.384H240.041V109H238.681V100.568H240.041V104.2H241.641C241.705 103.464 241.881 102.819 242.169 102.264C242.468 101.699 242.895 101.261 243.449 100.952C244.004 100.632 244.692 100.472 245.513 100.472C246.409 100.472 247.151 100.659 247.737 101.032C248.324 101.405 248.761 101.917 249.049 102.568C249.337 103.208 249.481 103.949 249.481 104.792C249.481 105.624 249.337 106.365 249.049 107.016C248.761 107.667 248.324 108.179 247.737 108.552C247.151 108.915 246.409 109.096 245.513 109.096ZM245.513 107.896C246.132 107.896 246.628 107.757 247.001 107.48C247.385 107.203 247.668 106.829 247.849 106.36C248.031 105.891 248.121 105.368 248.121 104.792C248.121 104.216 248.031 103.693 247.849 103.224C247.668 102.755 247.385 102.381 247.001 102.104C246.628 101.827 246.132 101.688 245.513 101.688C244.905 101.688 244.409 101.827 244.025 102.104C243.652 102.381 243.38 102.755 243.209 103.224C243.039 103.693 242.953 104.216 242.953 104.792C242.953 105.368 243.039 105.891 243.209 106.36C243.38 106.829 243.652 107.203 244.025 107.48C244.409 107.757 244.905 107.896 245.513 107.896ZM255.556 109V100.568H262.548V109H261.188V101.768H256.916V109H255.556ZM268.377 109.096C267.492 109.096 266.75 108.915 266.153 108.552C265.556 108.179 265.108 107.667 264.809 107.016C264.521 106.365 264.377 105.624 264.377 104.792C264.377 103.949 264.521 103.208 264.809 102.568C265.108 101.917 265.556 101.405 266.153 101.032C266.75 100.659 267.502 100.472 268.409 100.472C269.294 100.472 270.03 100.659 270.617 101.032C271.214 101.405 271.657 101.917 271.945 102.568C272.244 103.208 272.393 103.949 272.393 104.792C272.393 105.624 272.244 106.365 271.945 107.016C271.646 107.667 271.198 108.179 270.601 108.552C270.014 108.915 269.273 109.096 268.377 109.096ZM268.377 107.896C268.996 107.896 269.497 107.757 269.881 107.48C270.276 107.203 270.564 106.829 270.745 106.36C270.937 105.891 271.033 105.368 271.033 104.792C271.033 104.216 270.937 103.693 270.745 103.224C270.564 102.755 270.276 102.381 269.881 102.104C269.497 101.827 268.996 101.688 268.377 101.688C267.769 101.688 267.268 101.827 266.873 102.104C266.489 102.381 266.201 102.755 266.009 103.224C265.828 103.693 265.737 104.216 265.737 104.792C265.737 105.368 265.828 105.891 266.009 106.36C266.201 106.829 266.489 107.203 266.873 107.48C267.268 107.757 267.769 107.896 268.377 107.896ZM274.213 109V100.568H277.477C277.85 100.568 278.218 100.595 278.581 100.648C278.954 100.691 279.29 100.787 279.589 100.936C279.898 101.075 280.143 101.283 280.325 101.56C280.517 101.837 280.613 102.205 280.613 102.664C280.613 102.941 280.57 103.197 280.485 103.432C280.399 103.656 280.271 103.853 280.101 104.024C279.941 104.195 279.733 104.344 279.477 104.472C280.053 104.6 280.469 104.851 280.725 105.224C280.981 105.597 281.109 106.024 281.109 106.504C281.109 106.931 281.029 107.304 280.869 107.624C280.719 107.933 280.506 108.189 280.229 108.392C279.962 108.595 279.647 108.749 279.285 108.856C278.933 108.952 278.554 109 278.149 109H274.213ZM275.605 107.816H277.829C278.159 107.816 278.469 107.784 278.757 107.72C279.045 107.656 279.279 107.539 279.461 107.368C279.642 107.187 279.733 106.931 279.733 106.6C279.733 106.259 279.653 106.003 279.493 105.832C279.343 105.651 279.146 105.528 278.901 105.464C278.666 105.389 278.41 105.347 278.133 105.336C277.855 105.325 277.594 105.32 277.349 105.32H275.605V107.816ZM275.605 104.168H276.773C276.986 104.168 277.231 104.157 277.509 104.136C277.797 104.115 278.074 104.067 278.341 103.992C278.618 103.907 278.842 103.779 279.013 103.608C279.194 103.437 279.285 103.203 279.285 102.904C279.285 102.509 279.173 102.237 278.949 102.088C278.735 101.928 278.479 101.837 278.181 101.816C277.882 101.784 277.605 101.768 277.349 101.768H275.605V104.168ZM286.611 109.096C285.715 109.096 284.973 108.915 284.387 108.552C283.8 108.179 283.363 107.667 283.075 107.016C282.787 106.365 282.643 105.624 282.643 104.792C282.643 103.949 282.792 103.208 283.091 102.568C283.4 101.917 283.848 101.405 284.435 101.032C285.021 100.659 285.741 100.472 286.595 100.472C287.224 100.472 287.773 100.595 288.243 100.84C288.723 101.075 289.117 101.395 289.427 101.8C289.747 102.205 289.976 102.659 290.115 103.16C290.264 103.661 290.328 104.179 290.307 104.712C290.296 104.808 290.291 104.904 290.291 105C290.291 105.096 290.285 105.192 290.275 105.288H284.019C284.061 105.779 284.184 106.221 284.387 106.616C284.589 107.011 284.877 107.325 285.251 107.56C285.624 107.784 286.088 107.896 286.643 107.896C286.92 107.896 287.197 107.864 287.475 107.8C287.763 107.725 288.019 107.603 288.243 107.432C288.477 107.261 288.643 107.032 288.739 106.744H290.131C290.003 107.288 289.763 107.736 289.411 108.088C289.059 108.429 288.637 108.685 288.147 108.856C287.656 109.016 287.144 109.096 286.611 109.096ZM284.051 104.104H288.931C288.92 103.624 288.813 103.203 288.611 102.84C288.408 102.477 288.131 102.195 287.779 101.992C287.437 101.789 287.027 101.688 286.547 101.688C286.024 101.688 285.581 101.8 285.219 102.024C284.867 102.248 284.595 102.541 284.403 102.904C284.211 103.267 284.093 103.667 284.051 104.104ZM292.135 112.04V100.568H293.431L293.495 101.864C293.783 101.405 294.172 101.059 294.663 100.824C295.164 100.589 295.703 100.472 296.279 100.472C297.132 100.472 297.831 100.664 298.375 101.048C298.919 101.421 299.319 101.933 299.575 102.584C299.841 103.235 299.975 103.971 299.975 104.792C299.975 105.613 299.841 106.349 299.575 107C299.308 107.651 298.897 108.163 298.343 108.536C297.788 108.909 297.079 109.096 296.215 109.096C295.788 109.096 295.404 109.053 295.062 108.968C294.721 108.872 294.423 108.739 294.167 108.568C293.911 108.397 293.687 108.205 293.495 107.992V112.04H292.135ZM296.103 107.896C296.721 107.896 297.212 107.757 297.575 107.48C297.937 107.192 298.199 106.813 298.359 106.344C298.529 105.875 298.615 105.357 298.615 104.792C298.615 104.216 298.529 103.693 298.359 103.224C298.199 102.755 297.932 102.381 297.559 102.104C297.185 101.827 296.689 101.688 296.071 101.688C295.516 101.688 295.041 101.832 294.647 102.12C294.263 102.397 293.969 102.776 293.767 103.256C293.564 103.725 293.463 104.243 293.463 104.808C293.463 105.395 293.559 105.923 293.751 106.392C293.943 106.861 294.236 107.229 294.631 107.496C295.025 107.763 295.516 107.896 296.103 107.896ZM300.724 109L303.732 104.696L300.868 100.568H302.5L304.644 103.768L306.724 100.568H308.308L305.46 104.744L308.516 109H306.9L304.564 105.784L302.26 109H300.724ZM309.806 109V100.568H311.166V104.264H315.39V100.568H316.75V109H315.39V105.464H311.166V109H309.806ZM322.58 109.096C321.695 109.096 320.953 108.915 320.356 108.552C319.759 108.179 319.311 107.667 319.012 107.016C318.724 106.365 318.58 105.624 318.58 104.792C318.58 103.949 318.724 103.208 319.012 102.568C319.311 101.917 319.759 101.405 320.356 101.032C320.953 100.659 321.705 100.472 322.612 100.472C323.497 100.472 324.233 100.659 324.82 101.032C325.417 101.405 325.86 101.917 326.148 102.568C326.447 103.208 326.596 103.949 326.596 104.792C326.596 105.624 326.447 106.365 326.148 107.016C325.849 107.667 325.401 108.179 324.804 108.552C324.217 108.915 323.476 109.096 322.58 109.096ZM322.58 107.896C323.199 107.896 323.7 107.757 324.084 107.48C324.479 107.203 324.767 106.829 324.948 106.36C325.14 105.891 325.236 105.368 325.236 104.792C325.236 104.216 325.14 103.693 324.948 103.224C324.767 102.755 324.479 102.381 324.084 102.104C323.7 101.827 323.199 101.688 322.58 101.688C321.972 101.688 321.471 101.827 321.076 102.104C320.692 102.381 320.404 102.755 320.212 103.224C320.031 103.693 319.94 104.216 319.94 104.792C319.94 105.368 320.031 105.891 320.212 106.36C320.404 106.829 320.692 107.203 321.076 107.48C321.471 107.757 321.972 107.896 322.58 107.896ZM332.016 109.096C331.13 109.096 330.394 108.915 329.808 108.552C329.232 108.179 328.8 107.667 328.512 107.016C328.234 106.365 328.096 105.629 328.096 104.808C328.096 104.008 328.24 103.283 328.528 102.632C328.826 101.971 329.274 101.448 329.872 101.064C330.48 100.669 331.248 100.472 332.176 100.472C332.752 100.472 333.264 100.568 333.712 100.76C334.17 100.952 334.549 101.235 334.848 101.608C335.146 101.971 335.354 102.429 335.472 102.984H334.08C333.92 102.515 333.664 102.184 333.312 101.992C332.97 101.789 332.565 101.688 332.096 101.688C331.456 101.688 330.944 101.837 330.56 102.136C330.176 102.435 329.893 102.824 329.712 103.304C329.541 103.773 329.456 104.275 329.456 104.808C329.456 105.363 329.546 105.875 329.728 106.344C329.909 106.813 330.192 107.192 330.576 107.48C330.96 107.757 331.456 107.896 332.064 107.896C332.512 107.896 332.933 107.8 333.328 107.608C333.733 107.416 334 107.075 334.128 106.584H335.536C335.429 107.16 335.2 107.635 334.848 108.008C334.506 108.381 334.085 108.659 333.584 108.84C333.093 109.011 332.57 109.096 332.016 109.096ZM339.228 109V101.768H336.332V100.568H343.484V101.768H340.588V109H339.228ZM344.697 109V100.568H346.089V103.784H347.945C348.446 103.784 348.894 103.827 349.289 103.912C349.694 103.987 350.041 104.12 350.329 104.312C350.617 104.504 350.836 104.765 350.985 105.096C351.145 105.416 351.225 105.827 351.225 106.328C351.225 106.787 351.145 107.187 350.985 107.528C350.825 107.859 350.601 108.136 350.313 108.36C350.025 108.573 349.678 108.733 349.273 108.84C348.878 108.947 348.441 109 347.961 109H344.697ZM346.089 107.816H346.889C347.262 107.816 347.62 107.805 347.961 107.784C348.313 107.763 348.633 107.709 348.921 107.624C349.209 107.539 349.433 107.4 349.593 107.208C349.764 107.005 349.849 106.728 349.849 106.376C349.849 106.035 349.78 105.773 349.641 105.592C349.513 105.4 349.342 105.261 349.129 105.176C348.916 105.08 348.681 105.021 348.425 105C348.18 104.979 347.934 104.968 347.689 104.968H346.089V107.816Z" fill="black"/>
</svg>
