<svg width="408" height="191" viewBox="0 0 408 191" fill="none" xmlns="http://www.w3.org/2000/svg">
<rect width="408" height="191" rx="30" fill="white"/>
<path d="M52.1816 41C64.4323 41 74.3641 50.931 74.3643 63.1816C74.3643 75.4324 64.4324 85.3643 52.1816 85.3643C39.931 85.3641 30 75.4323 30 63.1816C30.0002 50.9311 39.9311 41.0002 52.1816 41ZM52.1865 62.6406L44.5762 55.0293L43.2314 56.373L50.8428 63.9844L43.2334 71.5947L44.5771 72.9385L52.1865 65.3281L59.8135 72.9551L61.1572 71.6113L53.5303 63.9844L61.1592 56.3564L59.8154 55.0127L52.1865 62.6406Z" fill="black"/>
<path d="M110.04 56.128C109.496 56.128 108.968 56.0693 108.456 55.952C107.944 55.8347 107.48 55.6587 107.064 55.424C106.659 55.1787 106.333 54.864 106.088 54.48C105.843 54.096 105.715 53.632 105.704 53.088H107.096C107.117 53.408 107.213 53.68 107.384 53.904C107.565 54.128 107.795 54.3147 108.072 54.464C108.349 54.6027 108.659 54.704 109 54.768C109.341 54.832 109.677 54.864 110.008 54.864C110.275 54.864 110.568 54.8427 110.888 54.8C111.208 54.7573 111.512 54.6667 111.8 54.528C112.099 54.3893 112.339 54.1867 112.52 53.92C112.712 53.6427 112.808 53.28 112.808 52.832C112.808 52.416 112.739 52.08 112.6 51.824C112.461 51.568 112.264 51.3707 112.008 51.232C111.752 51.0933 111.448 51.0027 111.096 50.96C110.755 50.9067 110.376 50.88 109.96 50.88H108.584V49.632H109.4C109.784 49.632 110.152 49.6 110.504 49.536C110.867 49.4613 111.187 49.3493 111.464 49.2C111.741 49.0507 111.96 48.8533 112.12 48.608C112.291 48.3627 112.376 48.064 112.376 47.712C112.376 47.1893 112.248 46.7947 111.992 46.528C111.747 46.2613 111.437 46.08 111.064 45.984C110.691 45.8773 110.317 45.824 109.944 45.824C109.517 45.824 109.107 45.888 108.712 46.016C108.328 46.1333 108.013 46.32 107.768 46.576C107.523 46.832 107.4 47.152 107.4 47.536H106.008C106.008 47.0347 106.104 46.6133 106.296 46.272C106.499 45.92 106.755 45.6373 107.064 45.424C107.384 45.2 107.725 45.024 108.088 44.896C108.451 44.768 108.803 44.6827 109.144 44.64C109.496 44.5867 109.795 44.56 110.04 44.56C110.52 44.56 110.979 44.6133 111.416 44.72C111.853 44.816 112.248 44.9813 112.6 45.216C112.952 45.44 113.229 45.7387 113.432 46.112C113.635 46.4853 113.736 46.9387 113.736 47.472C113.736 47.7387 113.699 48.0267 113.624 48.336C113.549 48.6347 113.395 48.9333 113.16 49.232C112.925 49.52 112.563 49.7813 112.072 50.016C112.744 50.144 113.272 50.4693 113.656 50.992C114.04 51.5147 114.232 52.1227 114.232 52.816C114.221 53.4133 114.093 53.9253 113.848 54.352C113.613 54.768 113.299 55.1093 112.904 55.376C112.509 55.632 112.067 55.824 111.576 55.952C111.085 56.0693 110.573 56.128 110.04 56.128ZM118.792 56.096C118.408 56.096 118.034 56.048 117.672 55.952C117.32 55.8453 117 55.6907 116.712 55.488C116.434 55.2747 116.21 55.0133 116.04 54.704C115.88 54.384 115.8 54.016 115.8 53.6C115.8 53.12 115.885 52.7147 116.056 52.384C116.237 52.0533 116.477 51.792 116.776 51.6C117.074 51.408 117.421 51.2693 117.816 51.184C118.21 51.0987 118.621 51.056 119.048 51.056H121.528C121.528 50.576 121.458 50.16 121.32 49.808C121.192 49.456 120.978 49.184 120.68 48.992C120.381 48.7893 119.986 48.688 119.496 48.688C119.197 48.688 118.92 48.72 118.664 48.784C118.408 48.848 118.189 48.9493 118.008 49.088C117.826 49.2267 117.693 49.4133 117.608 49.648H116.152C116.226 49.264 116.37 48.9387 116.584 48.672C116.808 48.3947 117.074 48.1707 117.384 48C117.704 47.8187 118.045 47.6853 118.408 47.6C118.77 47.5147 119.133 47.472 119.496 47.472C120.306 47.472 120.957 47.6373 121.448 47.968C121.938 48.288 122.296 48.7467 122.52 49.344C122.744 49.9307 122.856 50.6293 122.856 51.44V56H121.72L121.64 54.928C121.405 55.248 121.122 55.4933 120.792 55.664C120.461 55.8347 120.12 55.9467 119.768 56C119.426 56.064 119.101 56.096 118.792 56.096ZM118.92 54.896C119.453 54.896 119.912 54.8107 120.296 54.64C120.69 54.4587 120.994 54.1973 121.208 53.856C121.421 53.5147 121.528 53.0987 121.528 52.608V52.192H120.04C119.688 52.192 119.341 52.1973 119 52.208C118.658 52.2187 118.349 52.2613 118.072 52.336C117.794 52.4107 117.57 52.5387 117.4 52.72C117.24 52.9013 117.16 53.1627 117.16 53.504C117.16 53.824 117.24 54.0853 117.4 54.288C117.57 54.4907 117.789 54.6453 118.056 54.752C118.333 54.848 118.621 54.896 118.92 54.896ZM124.963 56V47.568H126.323V51.2H127.795L130.291 47.568H131.843L129.027 51.584L132.083 56H130.483L127.955 52.384H126.323V56H124.963ZM133.26 59.04V47.568H134.556L134.62 48.864C134.908 48.4053 135.297 48.0587 135.788 47.824C136.289 47.5893 136.828 47.472 137.404 47.472C138.257 47.472 138.956 47.664 139.5 48.048C140.044 48.4213 140.444 48.9333 140.7 49.584C140.966 50.2347 141.1 50.9707 141.1 51.792C141.1 52.6133 140.966 53.3493 140.7 54C140.433 54.6507 140.022 55.1627 139.468 55.536C138.913 55.9093 138.204 56.096 137.34 56.096C136.913 56.096 136.529 56.0533 136.188 55.968C135.846 55.872 135.548 55.7387 135.292 55.568C135.036 55.3973 134.812 55.2053 134.62 54.992V59.04H133.26ZM137.228 54.896C137.846 54.896 138.337 54.7573 138.7 54.48C139.062 54.192 139.324 53.8133 139.484 53.344C139.654 52.8747 139.74 52.3573 139.74 51.792C139.74 51.216 139.654 50.6933 139.484 50.224C139.324 49.7547 139.057 49.3813 138.684 49.104C138.31 48.8267 137.814 48.688 137.196 48.688C136.641 48.688 136.166 48.832 135.772 49.12C135.388 49.3973 135.094 49.776 134.892 50.256C134.689 50.7253 134.588 51.2427 134.588 51.808C134.588 52.3947 134.684 52.9227 134.876 53.392C135.068 53.8613 135.361 54.2293 135.756 54.496C136.15 54.7627 136.641 54.896 137.228 54.896ZM142.853 56V47.568H144.245V50.784H145.765C146.267 50.784 146.72 50.8267 147.125 50.912C147.531 50.9973 147.877 51.136 148.165 51.328C148.453 51.52 148.672 51.7813 148.821 52.112C148.971 52.432 149.045 52.8373 149.045 53.328C149.045 53.7973 148.965 54.2027 148.805 54.544C148.645 54.8853 148.416 55.1627 148.117 55.376C147.829 55.5893 147.483 55.7493 147.077 55.856C146.683 55.952 146.251 56 145.781 56H142.853ZM144.245 54.816H144.693C145.067 54.816 145.429 54.8107 145.781 54.8C146.133 54.7787 146.448 54.7253 146.725 54.64C147.013 54.5547 147.243 54.416 147.413 54.224C147.584 54.0213 147.669 53.7387 147.669 53.376C147.669 53.0347 147.6 52.7733 147.461 52.592C147.333 52.4 147.163 52.2613 146.949 52.176C146.736 52.08 146.501 52.0213 146.245 52C146 51.9787 145.755 51.968 145.509 51.968H144.245V54.816ZM150.213 56V47.568H151.573V56H150.213ZM153.713 56V47.568H156.977C157.35 47.568 157.718 47.5947 158.081 47.648C158.454 47.6907 158.79 47.7867 159.089 47.936C159.398 48.0747 159.643 48.2827 159.825 48.56C160.017 48.8373 160.113 49.2053 160.113 49.664C160.113 49.9413 160.07 50.1973 159.985 50.432C159.899 50.656 159.771 50.8533 159.601 51.024C159.441 51.1947 159.233 51.344 158.977 51.472C159.553 51.6 159.969 51.8507 160.225 52.224C160.481 52.5973 160.609 53.024 160.609 53.504C160.609 53.9307 160.529 54.304 160.369 54.624C160.219 54.9333 160.006 55.1893 159.729 55.392C159.462 55.5947 159.147 55.7493 158.785 55.856C158.433 55.952 158.054 56 157.649 56H153.713ZM155.105 54.816H157.329C157.659 54.816 157.969 54.784 158.257 54.72C158.545 54.656 158.779 54.5387 158.961 54.368C159.142 54.1867 159.233 53.9307 159.233 53.6C159.233 53.2587 159.153 53.0027 158.993 52.832C158.843 52.6507 158.646 52.528 158.401 52.464C158.166 52.3893 157.91 52.3467 157.633 52.336C157.355 52.3253 157.094 52.32 156.849 52.32H155.105V54.816ZM155.105 51.168H156.273C156.486 51.168 156.731 51.1573 157.009 51.136C157.297 51.1147 157.574 51.0667 157.841 50.992C158.118 50.9067 158.342 50.7787 158.513 50.608C158.694 50.4373 158.785 50.2027 158.785 49.904C158.785 49.5093 158.673 49.2373 158.449 49.088C158.235 48.928 157.979 48.8373 157.681 48.816C157.382 48.784 157.105 48.768 156.849 48.768H155.105V51.168ZM165.167 56.096C164.783 56.096 164.409 56.048 164.047 55.952C163.695 55.8453 163.375 55.6907 163.087 55.488C162.809 55.2747 162.585 55.0133 162.415 54.704C162.255 54.384 162.175 54.016 162.175 53.6C162.175 53.12 162.26 52.7147 162.431 52.384C162.612 52.0533 162.852 51.792 163.151 51.6C163.449 51.408 163.796 51.2693 164.191 51.184C164.585 51.0987 164.996 51.056 165.423 51.056H167.903C167.903 50.576 167.833 50.16 167.695 49.808C167.567 49.456 167.353 49.184 167.055 48.992C166.756 48.7893 166.361 48.688 165.871 48.688C165.572 48.688 165.295 48.72 165.039 48.784C164.783 48.848 164.564 48.9493 164.383 49.088C164.201 49.2267 164.068 49.4133 163.983 49.648H162.527C162.601 49.264 162.745 48.9387 162.959 48.672C163.183 48.3947 163.449 48.1707 163.759 48C164.079 47.8187 164.42 47.6853 164.783 47.6C165.145 47.5147 165.508 47.472 165.871 47.472C166.681 47.472 167.332 47.6373 167.823 47.968C168.313 48.288 168.671 48.7467 168.895 49.344C169.119 49.9307 169.231 50.6293 169.231 51.44V56H168.095L168.015 54.928C167.78 55.248 167.497 55.4933 167.167 55.664C166.836 55.8347 166.495 55.9467 166.143 56C165.801 56.064 165.476 56.096 165.167 56.096ZM165.295 54.896C165.828 54.896 166.287 54.8107 166.671 54.64C167.065 54.4587 167.369 54.1973 167.583 53.856C167.796 53.5147 167.903 53.0987 167.903 52.608V52.192H166.415C166.063 52.192 165.716 52.1973 165.375 52.208C165.033 52.2187 164.724 52.2613 164.447 52.336C164.169 52.4107 163.945 52.5387 163.775 52.72C163.615 52.9013 163.535 53.1627 163.535 53.504C163.535 53.824 163.615 54.0853 163.775 54.288C163.945 54.4907 164.164 54.6453 164.431 54.752C164.708 54.848 164.996 54.896 165.295 54.896ZM174.986 56.096C174.09 56.096 173.348 55.9147 172.762 55.552C172.175 55.1787 171.738 54.6667 171.45 54.016C171.162 53.3653 171.018 52.624 171.018 51.792C171.018 50.9493 171.167 50.208 171.466 49.568C171.775 48.9173 172.223 48.4053 172.81 48.032C173.396 47.6587 174.116 47.472 174.97 47.472C175.599 47.472 176.148 47.5947 176.618 47.84C177.098 48.0747 177.492 48.3947 177.802 48.8C178.122 49.2053 178.351 49.6587 178.49 50.16C178.639 50.6613 178.703 51.1787 178.682 51.712C178.671 51.808 178.666 51.904 178.666 52C178.666 52.096 178.66 52.192 178.65 52.288H172.394C172.436 52.7787 172.559 53.2213 172.762 53.616C172.964 54.0107 173.252 54.3253 173.626 54.56C173.999 54.784 174.463 54.896 175.018 54.896C175.295 54.896 175.572 54.864 175.85 54.8C176.138 54.7253 176.394 54.6027 176.618 54.432C176.852 54.2613 177.018 54.032 177.114 53.744H178.506C178.378 54.288 178.138 54.736 177.786 55.088C177.434 55.4293 177.012 55.6853 176.522 55.856C176.031 56.016 175.519 56.096 174.986 56.096ZM172.426 51.104H177.306C177.295 50.624 177.188 50.2027 176.986 49.84C176.783 49.4773 176.506 49.1947 176.154 48.992C175.812 48.7893 175.402 48.688 174.922 48.688C174.399 48.688 173.956 48.8 173.594 49.024C173.242 49.248 172.97 49.5413 172.778 49.904C172.586 50.2667 172.468 50.6667 172.426 51.104ZM182.478 56V48.768H179.582V47.568H186.734V48.768H183.838V56H182.478ZM192.26 56V47.568H193.62V51.2H195.092L197.588 47.568H199.14L196.324 51.584L199.38 56H197.78L195.252 52.384H193.62V56H192.26ZM200.556 56V47.568H201.916V51.264H206.14V47.568H207.5V56H206.14V52.464H201.916V56H200.556ZM213.33 56.096C212.445 56.096 211.703 55.9147 211.106 55.552C210.509 55.1787 210.061 54.6667 209.762 54.016C209.474 53.3653 209.33 52.624 209.33 51.792C209.33 50.9493 209.474 50.208 209.762 49.568C210.061 48.9173 210.509 48.4053 211.106 48.032C211.703 47.6587 212.455 47.472 213.362 47.472C214.247 47.472 214.983 47.6587 215.57 48.032C216.167 48.4053 216.61 48.9173 216.898 49.568C217.197 50.208 217.346 50.9493 217.346 51.792C217.346 52.624 217.197 53.3653 216.898 54.016C216.599 54.6667 216.151 55.1787 215.554 55.552C214.967 55.9147 214.226 56.096 213.33 56.096ZM213.33 54.896C213.949 54.896 214.45 54.7573 214.834 54.48C215.229 54.2027 215.517 53.8293 215.698 53.36C215.89 52.8907 215.986 52.368 215.986 51.792C215.986 51.216 215.89 50.6933 215.698 50.224C215.517 49.7547 215.229 49.3813 214.834 49.104C214.45 48.8267 213.949 48.688 213.33 48.688C212.722 48.688 212.221 48.8267 211.826 49.104C211.442 49.3813 211.154 49.7547 210.962 50.224C210.781 50.6933 210.69 51.216 210.69 51.792C210.69 52.368 210.781 52.8907 210.962 53.36C211.154 53.8293 211.442 54.2027 211.826 54.48C212.221 54.7573 212.722 54.896 213.33 54.896ZM219.166 56V47.568H226.158V56H224.798V48.768H220.526V56H219.166ZM228.306 56V47.568H229.666V51.2H231.138L233.634 47.568H235.186L232.37 51.584L235.426 56H233.826L231.298 52.384H229.666V56H228.306ZM236.603 56V47.568H237.963V54.032C238.038 53.8827 238.139 53.7227 238.267 53.552C238.395 53.3707 238.497 53.232 238.571 53.136L242.651 47.568H243.995V56H242.635V49.536C242.55 49.696 242.454 49.8453 242.347 49.984C242.251 50.1227 242.161 50.2507 242.075 50.368L237.931 56H236.603ZM250.719 59.616V58.32C251.242 58.32 251.658 58.2453 251.967 58.096C252.276 57.9573 252.532 57.7333 252.735 57.424C252.948 57.1253 253.151 56.7413 253.343 56.272L249.647 47.568H251.247L254.095 54.672L256.431 47.568H257.967L255.599 54.208C255.482 54.5493 255.348 54.9333 255.199 55.36C255.05 55.7867 254.884 56.2187 254.703 56.656C254.522 57.104 254.319 57.5147 254.095 57.888C253.882 58.272 253.642 58.5813 253.375 58.816C253.151 59.0187 252.932 59.1787 252.719 59.296C252.506 59.4133 252.244 59.4933 251.935 59.536C251.636 59.5893 251.231 59.616 250.719 59.616ZM259.228 56V47.568H266.22V56H264.86V48.768H260.588V56H259.228ZM268.369 59.04V47.568H269.665L269.729 48.864C270.017 48.4053 270.406 48.0587 270.897 47.824C271.398 47.5893 271.937 47.472 272.513 47.472C273.366 47.472 274.065 47.664 274.609 48.048C275.153 48.4213 275.553 48.9333 275.809 49.584C276.076 50.2347 276.209 50.9707 276.209 51.792C276.209 52.6133 276.076 53.3493 275.809 54C275.542 54.6507 275.132 55.1627 274.577 55.536C274.022 55.9093 273.313 56.096 272.449 56.096C272.022 56.096 271.638 56.0533 271.297 55.968C270.956 55.872 270.657 55.7387 270.401 55.568C270.145 55.3973 269.921 55.2053 269.729 54.992V59.04H268.369ZM272.337 54.896C272.956 54.896 273.446 54.7573 273.809 54.48C274.172 54.192 274.433 53.8133 274.593 53.344C274.764 52.8747 274.849 52.3573 274.849 51.792C274.849 51.216 274.764 50.6933 274.593 50.224C274.433 49.7547 274.166 49.3813 273.793 49.104C273.42 48.8267 272.924 48.688 272.305 48.688C271.75 48.688 271.276 48.832 270.881 49.12C270.497 49.3973 270.204 49.776 270.001 50.256C269.798 50.7253 269.697 51.2427 269.697 51.808C269.697 52.3947 269.793 52.9227 269.985 53.392C270.177 53.8613 270.47 54.2293 270.865 54.496C271.26 54.7627 271.75 54.896 272.337 54.896ZM280.667 56.096C280.283 56.096 279.909 56.048 279.547 55.952C279.195 55.8453 278.875 55.6907 278.587 55.488C278.309 55.2747 278.085 55.0133 277.915 54.704C277.755 54.384 277.675 54.016 277.675 53.6C277.675 53.12 277.76 52.7147 277.931 52.384C278.112 52.0533 278.352 51.792 278.651 51.6C278.949 51.408 279.296 51.2693 279.691 51.184C280.085 51.0987 280.496 51.056 280.923 51.056H283.403C283.403 50.576 283.333 50.16 283.195 49.808C283.067 49.456 282.853 49.184 282.555 48.992C282.256 48.7893 281.861 48.688 281.371 48.688C281.072 48.688 280.795 48.72 280.539 48.784C280.283 48.848 280.064 48.9493 279.883 49.088C279.701 49.2267 279.568 49.4133 279.483 49.648H278.027C278.101 49.264 278.245 48.9387 278.459 48.672C278.683 48.3947 278.949 48.1707 279.259 48C279.579 47.8187 279.92 47.6853 280.283 47.6C280.645 47.5147 281.008 47.472 281.371 47.472C282.181 47.472 282.832 47.6373 283.323 47.968C283.813 48.288 284.171 48.7467 284.395 49.344C284.619 49.9307 284.731 50.6293 284.731 51.44V56H283.595L283.515 54.928C283.28 55.248 282.997 55.4933 282.667 55.664C282.336 55.8347 281.995 55.9467 281.643 56C281.301 56.064 280.976 56.096 280.667 56.096ZM280.795 54.896C281.328 54.896 281.787 54.8107 282.171 54.64C282.565 54.4587 282.869 54.1973 283.083 53.856C283.296 53.5147 283.403 53.0987 283.403 52.608V52.192H281.915C281.563 52.192 281.216 52.1973 280.875 52.208C280.533 52.2187 280.224 52.2613 279.947 52.336C279.669 52.4107 279.445 52.5387 279.275 52.72C279.115 52.9013 279.035 53.1627 279.035 53.504C279.035 53.824 279.115 54.0853 279.275 54.288C279.445 54.4907 279.664 54.6453 279.931 54.752C280.208 54.848 280.496 54.896 280.795 54.896ZM286.838 56V47.568H290.102C290.475 47.568 290.843 47.5947 291.206 47.648C291.579 47.6907 291.915 47.7867 292.214 47.936C292.523 48.0747 292.768 48.2827 292.95 48.56C293.142 48.8373 293.238 49.2053 293.238 49.664C293.238 49.9413 293.195 50.1973 293.11 50.432C293.024 50.656 292.896 50.8533 292.726 51.024C292.566 51.1947 292.358 51.344 292.102 51.472C292.678 51.6 293.094 51.8507 293.35 52.224C293.606 52.5973 293.734 53.024 293.734 53.504C293.734 53.9307 293.654 54.304 293.494 54.624C293.344 54.9333 293.131 55.1893 292.854 55.392C292.587 55.5947 292.272 55.7493 291.91 55.856C291.558 55.952 291.179 56 290.774 56H286.838ZM288.23 54.816H290.454C290.784 54.816 291.094 54.784 291.382 54.72C291.67 54.656 291.904 54.5387 292.086 54.368C292.267 54.1867 292.358 53.9307 292.358 53.6C292.358 53.2587 292.278 53.0027 292.118 52.832C291.968 52.6507 291.771 52.528 291.526 52.464C291.291 52.3893 291.035 52.3467 290.758 52.336C290.48 52.3253 290.219 52.32 289.974 52.32H288.23V54.816ZM288.23 51.168H289.398C289.611 51.168 289.856 51.1573 290.134 51.136C290.422 51.1147 290.699 51.0667 290.966 50.992C291.243 50.9067 291.467 50.7787 291.638 50.608C291.819 50.4373 291.91 50.2027 291.91 49.904C291.91 49.5093 291.798 49.2373 291.574 49.088C291.36 48.928 291.104 48.8373 290.806 48.816C290.507 48.784 290.23 48.768 289.974 48.768H288.23V51.168ZM294.82 56.016V54.832C295.033 54.832 295.225 54.7893 295.396 54.704C295.566 54.608 295.716 54.4693 295.844 54.288C295.993 54.0747 296.11 53.7653 296.196 53.36C296.281 52.9547 296.34 52.5227 296.372 52.064C296.414 51.552 296.446 51.0507 296.468 50.56C296.489 50.0587 296.505 49.5627 296.516 49.072C296.537 48.5813 296.548 48.08 296.548 47.568H302.404V56H301.044V48.768H297.876C297.865 49.1307 297.849 49.4987 297.828 49.872C297.817 50.2347 297.801 50.6027 297.78 50.976C297.769 51.3387 297.753 51.7067 297.732 52.08C297.721 52.5067 297.678 52.9867 297.604 53.52C297.529 54.0533 297.369 54.5387 297.124 54.976C296.889 55.392 296.601 55.6693 296.26 55.808C295.929 55.9467 295.449 56.016 294.82 56.016ZM308.189 56.096C307.293 56.096 306.551 55.9147 305.965 55.552C305.378 55.1787 304.941 54.6667 304.653 54.016C304.365 53.3653 304.221 52.624 304.221 51.792C304.221 50.9493 304.37 50.208 304.669 49.568C304.978 48.9173 305.426 48.4053 306.013 48.032C306.599 47.6587 307.319 47.472 308.173 47.472C308.802 47.472 309.351 47.5947 309.821 47.84C310.301 48.0747 310.695 48.3947 311.005 48.8C311.325 49.2053 311.554 49.6587 311.693 50.16C311.842 50.6613 311.906 51.1787 311.885 51.712C311.874 51.808 311.869 51.904 311.869 52C311.869 52.096 311.863 52.192 311.853 52.288H305.597C305.639 52.7787 305.762 53.2213 305.965 53.616C306.167 54.0107 306.455 54.3253 306.829 54.56C307.202 54.784 307.666 54.896 308.221 54.896C308.498 54.896 308.775 54.864 309.053 54.8C309.341 54.7253 309.597 54.6027 309.821 54.432C310.055 54.2613 310.221 54.032 310.317 53.744H311.709C311.581 54.288 311.341 54.736 310.989 55.088C310.637 55.4293 310.215 55.6853 309.725 55.856C309.234 56.016 308.722 56.096 308.189 56.096ZM305.629 51.104H310.509C310.498 50.624 310.391 50.2027 310.189 49.84C309.986 49.4773 309.709 49.1947 309.357 48.992C309.015 48.7893 308.605 48.688 308.125 48.688C307.602 48.688 307.159 48.8 306.797 49.024C306.445 49.248 306.173 49.5413 305.981 49.904C305.789 50.2667 305.671 50.6667 305.629 51.104ZM313.713 56V47.568H315.073V51.264H319.297V47.568H320.657V56H319.297V52.464H315.073V56H313.713ZM322.806 56V47.568H324.166V54.032C324.241 53.8827 324.342 53.7227 324.47 53.552C324.598 53.3707 324.7 53.232 324.774 53.136L328.854 47.568H330.198V56H328.838V49.536C328.753 49.696 328.657 49.8453 328.55 49.984C328.454 50.1227 328.364 50.2507 328.278 50.368L324.134 56H322.806ZM331.81 56L334.002 52.672C333.394 52.5013 332.914 52.224 332.562 51.84C332.21 51.4453 332.034 50.9227 332.034 50.272C332.034 49.76 332.108 49.3333 332.258 48.992C332.407 48.64 332.626 48.3627 332.914 48.16C333.202 47.9467 333.548 47.7973 333.954 47.712C334.359 47.616 334.823 47.568 335.346 47.568H338.738V56H337.378V52.88H335.442L333.394 56H331.81ZM336.37 51.696H337.378V48.768H335.57C335.25 48.768 334.956 48.784 334.69 48.816C334.423 48.848 334.194 48.9173 334.002 49.024C333.82 49.12 333.676 49.264 333.57 49.456C333.463 49.6373 333.41 49.888 333.41 50.208C333.41 50.56 333.495 50.8373 333.666 51.04C333.847 51.2427 334.076 51.392 334.354 51.488C334.642 51.5733 334.962 51.632 335.314 51.664C335.666 51.6853 336.018 51.696 336.37 51.696ZM109.752 76.096C108.867 76.096 108.125 75.9147 107.528 75.552C106.931 75.1787 106.483 74.6667 106.184 74.016C105.896 73.3653 105.752 72.624 105.752 71.792C105.752 70.9493 105.896 70.208 106.184 69.568C106.483 68.9173 106.931 68.4053 107.528 68.032C108.125 67.6587 108.877 67.472 109.784 67.472C110.669 67.472 111.405 67.6587 111.992 68.032C112.589 68.4053 113.032 68.9173 113.32 69.568C113.619 70.208 113.768 70.9493 113.768 71.792C113.768 72.624 113.619 73.3653 113.32 74.016C113.021 74.6667 112.573 75.1787 111.976 75.552C111.389 75.9147 110.648 76.096 109.752 76.096ZM109.752 74.896C110.371 74.896 110.872 74.7573 111.256 74.48C111.651 74.2027 111.939 73.8293 112.12 73.36C112.312 72.8907 112.408 72.368 112.408 71.792C112.408 71.216 112.312 70.6933 112.12 70.224C111.939 69.7547 111.651 69.3813 111.256 69.104C110.872 68.8267 110.371 68.688 109.752 68.688C109.144 68.688 108.643 68.8267 108.248 69.104C107.864 69.3813 107.576 69.7547 107.384 70.224C107.203 70.6933 107.112 71.216 107.112 71.792C107.112 72.368 107.203 72.8907 107.384 73.36C107.576 73.8293 107.864 74.2027 108.248 74.48C108.643 74.7573 109.144 74.896 109.752 74.896ZM119.296 76.096C118.763 76.096 118.288 76.0213 117.872 75.872C117.456 75.712 117.099 75.4933 116.8 75.216C116.501 74.928 116.256 74.592 116.064 74.208C115.872 73.8133 115.728 73.3867 115.632 72.928C115.536 72.4693 115.488 71.984 115.488 71.472C115.488 70.6507 115.504 69.888 115.536 69.184C115.579 68.4693 115.696 67.8347 115.888 67.28C116.08 66.7147 116.405 66.2453 116.864 65.872C117.323 65.4987 117.968 65.2373 118.8 65.088C119.227 65.0133 119.648 64.9493 120.064 64.896C120.48 64.8427 120.901 64.7893 121.328 64.736C121.467 64.7147 121.611 64.6933 121.76 64.672C121.909 64.6507 122.064 64.624 122.224 64.592C122.395 64.56 122.555 64.5333 122.704 64.512V65.76C122.587 65.8027 122.459 65.84 122.32 65.872C122.192 65.8933 122.053 65.9147 121.904 65.936C121.765 65.9573 121.621 65.9733 121.472 65.984C121.333 65.9947 121.195 66.0107 121.056 66.032C120.917 66.0427 120.784 66.0587 120.656 66.08C120.283 66.1227 119.888 66.1653 119.472 66.208C119.056 66.24 118.661 66.3253 118.288 66.464C117.925 66.592 117.616 66.8427 117.36 67.216C117.232 67.408 117.12 67.6373 117.024 67.904C116.939 68.1707 116.875 68.4427 116.832 68.72C116.8 68.9867 116.779 69.2427 116.768 69.488C116.981 69.1893 117.243 68.9493 117.552 68.768C117.861 68.576 118.192 68.4373 118.544 68.352C118.896 68.256 119.232 68.208 119.552 68.208C120.32 68.208 120.971 68.368 121.504 68.688C122.037 68.9973 122.443 69.44 122.72 70.016C122.997 70.592 123.136 71.264 123.136 72.032C123.136 72.8 122.987 73.4933 122.688 74.112C122.389 74.72 121.952 75.2053 121.376 75.568C120.811 75.92 120.117 76.096 119.296 76.096ZM119.328 74.896C119.861 74.896 120.309 74.768 120.672 74.512C121.035 74.256 121.307 73.9147 121.488 73.488C121.68 73.0613 121.776 72.592 121.776 72.08C121.776 71.5787 121.68 71.1307 121.488 70.736C121.307 70.3307 121.035 70.0107 120.672 69.776C120.32 69.5413 119.883 69.424 119.36 69.424C118.848 69.424 118.405 69.5467 118.032 69.792C117.669 70.0373 117.387 70.368 117.184 70.784C116.992 71.1893 116.896 71.632 116.896 72.112C116.896 72.6027 116.987 73.0613 117.168 73.488C117.349 73.9147 117.616 74.256 117.968 74.512C118.331 74.768 118.784 74.896 119.328 74.896ZM126.163 76V68.768H124.115V67.568H127.555V70.784H129.427C129.928 70.784 130.376 70.8267 130.771 70.912C131.176 70.9867 131.517 71.1147 131.795 71.296C132.083 71.4773 132.301 71.728 132.451 72.048C132.611 72.368 132.691 72.768 132.691 73.248C132.691 73.7387 132.611 74.16 132.451 74.512C132.291 74.864 132.061 75.152 131.763 75.376C131.475 75.5893 131.133 75.7493 130.739 75.856C130.344 75.952 129.912 76 129.443 76H126.163ZM127.555 74.816H128.355C128.739 74.816 129.107 74.8107 129.459 74.8C129.821 74.7787 130.141 74.7253 130.419 74.64C130.696 74.5547 130.915 74.4053 131.075 74.192C131.235 73.9787 131.315 73.68 131.315 73.296C131.315 72.9867 131.251 72.7467 131.123 72.576C130.995 72.3947 130.824 72.2613 130.611 72.176C130.408 72.0907 130.179 72.0373 129.923 72.016C129.667 71.984 129.416 71.968 129.171 71.968H127.555V74.816ZM138.048 76.096C137.152 76.096 136.411 75.9147 135.824 75.552C135.237 75.1787 134.8 74.6667 134.512 74.016C134.224 73.3653 134.08 72.624 134.08 71.792C134.08 70.9493 134.229 70.208 134.528 69.568C134.837 68.9173 135.285 68.4053 135.872 68.032C136.459 67.6587 137.179 67.472 138.032 67.472C138.661 67.472 139.211 67.5947 139.68 67.84C140.16 68.0747 140.555 68.3947 140.864 68.8C141.184 69.2053 141.413 69.6587 141.552 70.16C141.701 70.6613 141.765 71.1787 141.744 71.712C141.733 71.808 141.728 71.904 141.728 72C141.728 72.096 141.723 72.192 141.712 72.288H135.456C135.499 72.7787 135.621 73.2213 135.824 73.616C136.027 74.0107 136.315 74.3253 136.688 74.56C137.061 74.784 137.525 74.896 138.08 74.896C138.357 74.896 138.635 74.864 138.912 74.8C139.2 74.7253 139.456 74.6027 139.68 74.432C139.915 74.2613 140.08 74.032 140.176 73.744H141.568C141.44 74.288 141.2 74.736 140.848 75.088C140.496 75.4293 140.075 75.6853 139.584 75.856C139.093 76.016 138.581 76.096 138.048 76.096ZM135.488 71.104H140.368C140.357 70.624 140.251 70.2027 140.048 69.84C139.845 69.4773 139.568 69.1947 139.216 68.992C138.875 68.7893 138.464 68.688 137.984 68.688C137.461 68.688 137.019 68.8 136.656 69.024C136.304 69.248 136.032 69.5413 135.84 69.904C135.648 70.2667 135.531 70.6667 135.488 71.104ZM143.572 76V67.568H144.932V71.2H146.404L148.9 67.568H150.452L147.636 71.584L150.692 76H149.092L146.564 72.384H144.932V76H143.572ZM153.837 76V68.768H150.941V67.568H158.093V68.768H155.197V76H153.837ZM162.986 76.096C162.101 76.096 161.36 75.9147 160.762 75.552C160.165 75.1787 159.717 74.6667 159.418 74.016C159.13 73.3653 158.986 72.624 158.986 71.792C158.986 70.9493 159.13 70.208 159.418 69.568C159.717 68.9173 160.165 68.4053 160.762 68.032C161.36 67.6587 162.112 67.472 163.018 67.472C163.904 67.472 164.64 67.6587 165.226 68.032C165.824 68.4053 166.266 68.9173 166.554 69.568C166.853 70.208 167.002 70.9493 167.002 71.792C167.002 72.624 166.853 73.3653 166.554 74.016C166.256 74.6667 165.808 75.1787 165.21 75.552C164.624 75.9147 163.882 76.096 162.986 76.096ZM162.986 74.896C163.605 74.896 164.106 74.7573 164.49 74.48C164.885 74.2027 165.173 73.8293 165.354 73.36C165.546 72.8907 165.642 72.368 165.642 71.792C165.642 71.216 165.546 70.6933 165.354 70.224C165.173 69.7547 164.885 69.3813 164.49 69.104C164.106 68.8267 163.605 68.688 162.986 68.688C162.378 68.688 161.877 68.8267 161.482 69.104C161.098 69.3813 160.81 69.7547 160.618 70.224C160.437 70.6933 160.346 71.216 160.346 71.792C160.346 72.368 160.437 72.8907 160.618 73.36C160.81 73.8293 161.098 74.2027 161.482 74.48C161.877 74.7573 162.378 74.896 162.986 74.896ZM168.822 76V67.568H170.646L173.382 71.792L176.07 67.568H177.862V76H176.518V69.072L173.542 73.84H173.158L170.166 69.072V76H168.822ZM184.322 76V67.568H185.682V74.032C185.757 73.8827 185.858 73.7227 185.986 73.552C186.114 73.3707 186.215 73.232 186.29 73.136L190.37 67.568H191.714V76H190.354V69.536C190.269 69.696 190.173 69.8453 190.066 69.984C189.97 70.1227 189.879 70.2507 189.794 70.368L185.65 76H184.322ZM201.766 76.096C200.88 76.096 200.144 75.9147 199.558 75.552C198.982 75.1787 198.55 74.6667 198.262 74.016C197.984 73.3653 197.846 72.6293 197.846 71.808C197.846 71.008 197.99 70.2827 198.278 69.632C198.576 68.9707 199.024 68.448 199.622 68.064C200.23 67.6693 200.998 67.472 201.926 67.472C202.502 67.472 203.014 67.568 203.462 67.76C203.92 67.952 204.299 68.2347 204.598 68.608C204.896 68.9707 205.104 69.4293 205.222 69.984H203.83C203.67 69.5147 203.414 69.184 203.062 68.992C202.72 68.7893 202.315 68.688 201.846 68.688C201.206 68.688 200.694 68.8373 200.31 69.136C199.926 69.4347 199.643 69.824 199.462 70.304C199.291 70.7733 199.206 71.2747 199.206 71.808C199.206 72.3627 199.296 72.8747 199.478 73.344C199.659 73.8133 199.942 74.192 200.326 74.48C200.71 74.7573 201.206 74.896 201.814 74.896C202.262 74.896 202.683 74.8 203.078 74.608C203.483 74.416 203.75 74.0747 203.878 73.584H205.286C205.179 74.16 204.95 74.6347 204.598 75.008C204.256 75.3813 203.835 75.6587 203.334 75.84C202.843 76.0107 202.32 76.096 201.766 76.096ZM207.01 76V67.568H208.37V71.264H212.594V67.568H213.954V76H212.594V72.464H208.37V76H207.01ZM216.103 76V67.568H217.463V74.032C217.538 73.8827 217.639 73.7227 217.767 73.552C217.895 73.3707 217.997 73.232 218.071 73.136L222.151 67.568H223.495V76H222.135V69.536C222.05 69.696 221.954 69.8453 221.847 69.984C221.751 70.1227 221.661 70.2507 221.575 70.368L217.431 76H216.103ZM225.635 76V67.568H227.459L230.195 71.792L232.883 67.568H234.675V76H233.331V69.072L230.355 73.84H229.971L226.979 69.072V76H225.635ZM239.526 76.096C239.142 76.096 238.769 76.048 238.406 75.952C238.054 75.8453 237.734 75.6907 237.446 75.488C237.169 75.2747 236.945 75.0133 236.774 74.704C236.614 74.384 236.534 74.016 236.534 73.6C236.534 73.12 236.619 72.7147 236.79 72.384C236.971 72.0533 237.211 71.792 237.51 71.6C237.809 71.408 238.155 71.2693 238.55 71.184C238.945 71.0987 239.355 71.056 239.782 71.056H242.262C242.262 70.576 242.193 70.16 242.054 69.808C241.926 69.456 241.713 69.184 241.414 68.992C241.115 68.7893 240.721 68.688 240.23 68.688C239.931 68.688 239.654 68.72 239.398 68.784C239.142 68.848 238.923 68.9493 238.742 69.088C238.561 69.2267 238.427 69.4133 238.342 69.648H236.886C236.961 69.264 237.105 68.9387 237.318 68.672C237.542 68.3947 237.809 68.1707 238.118 68C238.438 67.8187 238.779 67.6853 239.142 67.6C239.505 67.5147 239.867 67.472 240.23 67.472C241.041 67.472 241.691 67.6373 242.182 67.968C242.673 68.288 243.03 68.7467 243.254 69.344C243.478 69.9307 243.59 70.6293 243.59 71.44V76H242.454L242.374 74.928C242.139 75.248 241.857 75.4933 241.526 75.664C241.195 75.8347 240.854 75.9467 240.502 76C240.161 76.064 239.835 76.096 239.526 76.096ZM239.654 74.896C240.187 74.896 240.646 74.8107 241.03 74.64C241.425 74.4587 241.729 74.1973 241.942 73.856C242.155 73.5147 242.262 73.0987 242.262 72.608V72.192H240.774C240.422 72.192 240.075 72.1973 239.734 72.208C239.393 72.2187 239.083 72.2613 238.806 72.336C238.529 72.4107 238.305 72.5387 238.134 72.72C237.974 72.9013 237.894 73.1627 237.894 73.504C237.894 73.824 237.974 74.0853 238.134 74.288C238.305 74.4907 238.523 74.6453 238.79 74.752C239.067 74.848 239.355 74.896 239.654 74.896ZM249.345 76.096C248.449 76.096 247.708 75.9147 247.121 75.552C246.534 75.1787 246.097 74.6667 245.809 74.016C245.521 73.3653 245.377 72.624 245.377 71.792C245.377 70.9493 245.526 70.208 245.825 69.568C246.134 68.9173 246.582 68.4053 247.169 68.032C247.756 67.6587 248.476 67.472 249.329 67.472C249.958 67.472 250.508 67.5947 250.977 67.84C251.457 68.0747 251.852 68.3947 252.161 68.8C252.481 69.2053 252.71 69.6587 252.849 70.16C252.998 70.6613 253.062 71.1787 253.041 71.712C253.03 71.808 253.025 71.904 253.025 72C253.025 72.096 253.02 72.192 253.009 72.288H246.753C246.796 72.7787 246.918 73.2213 247.121 73.616C247.324 74.0107 247.612 74.3253 247.985 74.56C248.358 74.784 248.822 74.896 249.377 74.896C249.654 74.896 249.932 74.864 250.209 74.8C250.497 74.7253 250.753 74.6027 250.977 74.432C251.212 74.2613 251.377 74.032 251.473 73.744H252.865C252.737 74.288 252.497 74.736 252.145 75.088C251.793 75.4293 251.372 75.6853 250.881 75.856C250.39 76.016 249.878 76.096 249.345 76.096ZM246.785 71.104H251.665C251.654 70.624 251.548 70.2027 251.345 69.84C251.142 69.4773 250.865 69.1947 250.513 68.992C250.172 68.7893 249.761 68.688 249.281 68.688C248.758 68.688 248.316 68.8 247.953 69.024C247.601 69.248 247.329 69.5413 247.137 69.904C246.945 70.2667 246.828 70.6667 246.785 71.104ZM256.837 76V68.768H253.941V67.568H261.093V68.768H258.197V76H256.837ZM266.619 76V67.568H269.883C270.256 67.568 270.624 67.5947 270.987 67.648C271.36 67.6907 271.696 67.7867 271.995 67.936C272.304 68.0747 272.55 68.2827 272.731 68.56C272.923 68.8373 273.019 69.2053 273.019 69.664C273.019 69.9413 272.976 70.1973 272.891 70.432C272.806 70.656 272.678 70.8533 272.507 71.024C272.347 71.1947 272.139 71.344 271.883 71.472C272.459 71.6 272.875 71.8507 273.131 72.224C273.387 72.5973 273.515 73.024 273.515 73.504C273.515 73.9307 273.435 74.304 273.275 74.624C273.126 74.9333 272.912 75.1893 272.635 75.392C272.368 75.5947 272.054 75.7493 271.691 75.856C271.339 75.952 270.96 76 270.555 76H266.619ZM268.011 74.816H270.235C270.566 74.816 270.875 74.784 271.163 74.72C271.451 74.656 271.686 74.5387 271.867 74.368C272.048 74.1867 272.139 73.9307 272.139 73.6C272.139 73.2587 272.059 73.0027 271.899 72.832C271.75 72.6507 271.552 72.528 271.307 72.464C271.072 72.3893 270.816 72.3467 270.539 72.336C270.262 72.3253 270 72.32 269.755 72.32H268.011V74.816ZM268.011 71.168H269.179C269.392 71.168 269.638 71.1573 269.915 71.136C270.203 71.1147 270.48 71.0667 270.747 70.992C271.024 70.9067 271.248 70.7787 271.419 70.608C271.6 70.4373 271.691 70.2027 271.691 69.904C271.691 69.5093 271.579 69.2373 271.355 69.088C271.142 68.928 270.886 68.8373 270.587 68.816C270.288 68.784 270.011 68.768 269.755 68.768H268.011V71.168ZM275.369 76V67.568H276.761V70.784H278.281C278.782 70.784 279.236 70.8267 279.641 70.912C280.046 70.9973 280.393 71.136 280.681 71.328C280.969 71.52 281.188 71.7813 281.337 72.112C281.486 72.432 281.561 72.8373 281.561 73.328C281.561 73.7973 281.481 74.2027 281.321 74.544C281.161 74.8853 280.932 75.1627 280.633 75.376C280.345 75.5893 279.998 75.7493 279.593 75.856C279.198 75.952 278.766 76 278.297 76H275.369ZM276.761 74.816H277.209C277.582 74.816 277.945 74.8107 278.297 74.8C278.649 74.7787 278.964 74.7253 279.241 74.64C279.529 74.5547 279.758 74.416 279.929 74.224C280.1 74.0213 280.185 73.7387 280.185 73.376C280.185 73.0347 280.116 72.7733 279.977 72.592C279.849 72.4 279.678 72.2613 279.465 72.176C279.252 72.08 279.017 72.0213 278.761 72C278.516 71.9787 278.27 71.968 278.025 71.968H276.761V74.816ZM282.729 76V67.568H284.089V76H282.729ZM285.508 78.592V74.816C285.818 74.816 286.063 74.7307 286.244 74.56C286.436 74.3893 286.586 74.1653 286.692 73.888C286.799 73.6107 286.879 73.312 286.932 72.992C286.986 72.6613 287.028 72.3467 287.06 72.048C287.114 71.5573 287.146 71.072 287.156 70.592C287.178 70.1013 287.188 69.712 287.188 69.424C287.199 69.1147 287.204 68.8053 287.204 68.496C287.204 68.1867 287.204 67.8773 287.204 67.568H293.188V74.816H294.292V78.592H292.98V76H286.82V78.592H285.508ZM287.668 74.816H291.828V68.768H288.5C288.49 69.216 288.479 69.7173 288.468 70.272C288.458 70.8267 288.436 71.344 288.404 71.824C288.394 72.1013 288.367 72.416 288.324 72.768C288.292 73.12 288.228 73.4773 288.132 73.84C288.036 74.192 287.882 74.5173 287.668 74.816ZM299.361 76.096C298.465 76.096 297.723 75.9147 297.137 75.552C296.55 75.1787 296.113 74.6667 295.825 74.016C295.537 73.3653 295.393 72.624 295.393 71.792C295.393 70.9493 295.542 70.208 295.841 69.568C296.15 68.9173 296.598 68.4053 297.185 68.032C297.771 67.6587 298.491 67.472 299.345 67.472C299.974 67.472 300.523 67.5947 300.993 67.84C301.473 68.0747 301.867 68.3947 302.177 68.8C302.497 69.2053 302.726 69.6587 302.865 70.16C303.014 70.6613 303.078 71.1787 303.057 71.712C303.046 71.808 303.041 71.904 303.041 72C303.041 72.096 303.035 72.192 303.025 72.288H296.769C296.811 72.7787 296.934 73.2213 297.137 73.616C297.339 74.0107 297.627 74.3253 298.001 74.56C298.374 74.784 298.838 74.896 299.393 74.896C299.67 74.896 299.947 74.864 300.225 74.8C300.513 74.7253 300.769 74.6027 300.993 74.432C301.227 74.2613 301.393 74.032 301.489 73.744H302.881C302.753 74.288 302.513 74.736 302.161 75.088C301.809 75.4293 301.387 75.6853 300.897 75.856C300.406 76.016 299.894 76.096 299.361 76.096ZM296.801 71.104H301.681C301.67 70.624 301.563 70.2027 301.361 69.84C301.158 69.4773 300.881 69.1947 300.529 68.992C300.187 68.7893 299.777 68.688 299.297 68.688C298.774 68.688 298.331 68.8 297.969 69.024C297.617 69.248 297.345 69.5413 297.153 69.904C296.961 70.2667 296.843 70.6667 296.801 71.104ZM304.038 76.016V74.832C304.252 74.832 304.444 74.7893 304.614 74.704C304.785 74.608 304.934 74.4693 305.062 74.288C305.212 74.0747 305.329 73.7653 305.414 73.36C305.5 72.9547 305.558 72.5227 305.59 72.064C305.633 71.552 305.665 71.0507 305.686 70.56C305.708 70.0587 305.724 69.5627 305.734 69.072C305.756 68.5813 305.766 68.08 305.766 67.568H311.622V76H310.262V68.768H307.094C307.084 69.1307 307.068 69.4987 307.046 69.872C307.036 70.2347 307.02 70.6027 306.998 70.976C306.988 71.3387 306.972 71.7067 306.95 72.08C306.94 72.5067 306.897 72.9867 306.822 73.52C306.748 74.0533 306.588 74.5387 306.342 74.976C306.108 75.392 305.82 75.6693 305.478 75.808C305.148 75.9467 304.668 76.016 304.038 76.016ZM317.408 76.096C316.512 76.096 315.77 75.9147 315.184 75.552C314.597 75.1787 314.16 74.6667 313.872 74.016C313.584 73.3653 313.44 72.624 313.44 71.792C313.44 70.9493 313.589 70.208 313.888 69.568C314.197 68.9173 314.645 68.4053 315.232 68.032C315.818 67.6587 316.538 67.472 317.391 67.472C318.021 67.472 318.57 67.5947 319.04 67.84C319.52 68.0747 319.914 68.3947 320.224 68.8C320.544 69.2053 320.773 69.6587 320.911 70.16C321.061 70.6613 321.125 71.1787 321.104 71.712C321.093 71.808 321.088 71.904 321.088 72C321.088 72.096 321.082 72.192 321.072 72.288H314.816C314.858 72.7787 314.981 73.2213 315.184 73.616C315.386 74.0107 315.674 74.3253 316.048 74.56C316.421 74.784 316.885 74.896 317.44 74.896C317.717 74.896 317.994 74.864 318.272 74.8C318.56 74.7253 318.816 74.6027 319.04 74.432C319.274 74.2613 319.44 74.032 319.536 73.744H320.928C320.8 74.288 320.56 74.736 320.208 75.088C319.856 75.4293 319.434 75.6853 318.944 75.856C318.453 76.016 317.941 76.096 317.408 76.096ZM314.848 71.104H319.728C319.717 70.624 319.61 70.2027 319.408 69.84C319.205 69.4773 318.928 69.1947 318.576 68.992C318.234 68.7893 317.824 68.688 317.344 68.688C316.821 68.688 316.378 68.8 316.016 69.024C315.664 69.248 315.392 69.5413 315.2 69.904C315.008 70.2667 314.89 70.6667 314.848 71.104ZM322.931 76V67.568H324.291V71.264H328.515V67.568H329.875V76H328.515V72.464H324.291V76H322.931ZM332.025 76V67.568H333.385V74.032C333.46 73.8827 333.561 73.7227 333.689 73.552C333.817 73.3707 333.918 73.232 333.993 73.136L338.073 67.568H339.417V76H338.057V69.536C337.972 69.696 337.876 69.8453 337.769 69.984C337.673 70.1227 337.582 70.2507 337.497 70.368L333.353 76H332.025ZM345.204 76.096C344.308 76.096 343.567 75.9147 342.98 75.552C342.394 75.1787 341.956 74.6667 341.668 74.016C341.38 73.3653 341.236 72.624 341.236 71.792C341.236 70.9493 341.386 70.208 341.684 69.568C341.994 68.9173 342.442 68.4053 343.028 68.032C343.615 67.6587 344.335 67.472 345.188 67.472C345.818 67.472 346.367 67.5947 346.836 67.84C347.316 68.0747 347.711 68.3947 348.02 68.8C348.34 69.2053 348.57 69.6587 348.708 70.16C348.858 70.6613 348.922 71.1787 348.9 71.712C348.89 71.808 348.884 71.904 348.884 72C348.884 72.096 348.879 72.192 348.868 72.288H342.612C342.655 72.7787 342.778 73.2213 342.98 73.616C343.183 74.0107 343.471 74.3253 343.844 74.56C344.218 74.784 344.682 74.896 345.236 74.896C345.514 74.896 345.791 74.864 346.068 74.8C346.356 74.7253 346.612 74.6027 346.836 74.432C347.071 74.2613 347.236 74.032 347.332 73.744H348.724C348.596 74.288 348.356 74.736 348.004 75.088C347.652 75.4293 347.231 75.6853 346.74 75.856C346.25 76.016 345.738 76.096 345.204 76.096ZM342.644 71.104H347.524C347.514 70.624 347.407 70.2027 347.204 69.84C347.002 69.4773 346.724 69.1947 346.372 68.992C346.031 68.7893 345.62 68.688 345.14 68.688C344.618 68.688 344.175 68.8 343.812 69.024C343.46 69.248 343.188 69.5413 342.996 69.904C342.804 70.2667 342.687 70.6667 342.644 71.104ZM109.672 96.096C108.787 96.096 108.051 95.9147 107.464 95.552C106.888 95.1787 106.456 94.6667 106.168 94.016C105.891 93.3653 105.752 92.6293 105.752 91.808C105.752 91.008 105.896 90.2827 106.184 89.632C106.483 88.9707 106.931 88.448 107.528 88.064C108.136 87.6693 108.904 87.472 109.832 87.472C110.408 87.472 110.92 87.568 111.368 87.76C111.827 87.952 112.205 88.2347 112.504 88.608C112.803 88.9707 113.011 89.4293 113.128 89.984H111.736C111.576 89.5147 111.32 89.184 110.968 88.992C110.627 88.7893 110.221 88.688 109.752 88.688C109.112 88.688 108.6 88.8373 108.216 89.136C107.832 89.4347 107.549 89.824 107.368 90.304C107.197 90.7733 107.112 91.2747 107.112 91.808C107.112 92.3627 107.203 92.8747 107.384 93.344C107.565 93.8133 107.848 94.192 108.232 94.48C108.616 94.7573 109.112 94.896 109.72 94.896C110.168 94.896 110.589 94.8 110.984 94.608C111.389 94.416 111.656 94.0747 111.784 93.584H113.192C113.085 94.16 112.856 94.6347 112.504 95.008C112.163 95.3813 111.741 95.6587 111.24 95.84C110.749 96.0107 110.227 96.096 109.672 96.096ZM122.908 96.096C122.023 96.096 121.282 95.9147 120.684 95.552C120.087 95.1787 119.639 94.6667 119.34 94.016C119.052 93.3653 118.908 92.624 118.908 91.792C118.908 90.9493 119.052 90.208 119.34 89.568C119.639 88.9173 120.087 88.4053 120.684 88.032C121.282 87.6587 122.034 87.472 122.94 87.472C123.826 87.472 124.562 87.6587 125.148 88.032C125.746 88.4053 126.188 88.9173 126.476 89.568C126.775 90.208 126.924 90.9493 126.924 91.792C126.924 92.624 126.775 93.3653 126.476 94.016C126.178 94.6667 125.73 95.1787 125.132 95.552C124.546 95.9147 123.804 96.096 122.908 96.096ZM122.908 94.896C123.527 94.896 124.028 94.7573 124.412 94.48C124.807 94.2027 125.095 93.8293 125.276 93.36C125.468 92.8907 125.564 92.368 125.564 91.792C125.564 91.216 125.468 90.6933 125.276 90.224C125.095 89.7547 124.807 89.3813 124.412 89.104C124.028 88.8267 123.527 88.688 122.908 88.688C122.3 88.688 121.799 88.8267 121.404 89.104C121.02 89.3813 120.732 89.7547 120.54 90.224C120.359 90.6933 120.268 91.216 120.268 91.792C120.268 92.368 120.359 92.8907 120.54 93.36C120.732 93.8293 121.02 94.2027 121.404 94.48C121.799 94.7573 122.3 94.896 122.908 94.896ZM132.452 96.096C131.919 96.096 131.444 96.0213 131.028 95.872C130.612 95.712 130.255 95.4933 129.956 95.216C129.657 94.928 129.412 94.592 129.22 94.208C129.028 93.8133 128.884 93.3867 128.788 92.928C128.692 92.4693 128.644 91.984 128.644 91.472C128.644 90.6507 128.66 89.888 128.692 89.184C128.735 88.4693 128.852 87.8347 129.044 87.28C129.236 86.7147 129.561 86.2453 130.02 85.872C130.479 85.4987 131.124 85.2373 131.956 85.088C132.383 85.0133 132.804 84.9493 133.22 84.896C133.636 84.8427 134.057 84.7893 134.484 84.736C134.623 84.7147 134.767 84.6933 134.916 84.672C135.065 84.6507 135.22 84.624 135.38 84.592C135.551 84.56 135.711 84.5333 135.86 84.512V85.76C135.743 85.8027 135.615 85.84 135.476 85.872C135.348 85.8933 135.209 85.9147 135.06 85.936C134.921 85.9573 134.777 85.9733 134.628 85.984C134.489 85.9947 134.351 86.0107 134.212 86.032C134.073 86.0427 133.94 86.0587 133.812 86.08C133.439 86.1227 133.044 86.1653 132.628 86.208C132.212 86.24 131.817 86.3253 131.444 86.464C131.081 86.592 130.772 86.8427 130.516 87.216C130.388 87.408 130.276 87.6373 130.18 87.904C130.095 88.1707 130.031 88.4427 129.988 88.72C129.956 88.9867 129.935 89.2427 129.924 89.488C130.137 89.1893 130.399 88.9493 130.708 88.768C131.017 88.576 131.348 88.4373 131.7 88.352C132.052 88.256 132.388 88.208 132.708 88.208C133.476 88.208 134.127 88.368 134.66 88.688C135.193 88.9973 135.599 89.44 135.876 90.016C136.153 90.592 136.292 91.264 136.292 92.032C136.292 92.8 136.143 93.4933 135.844 94.112C135.545 94.72 135.108 95.2053 134.532 95.568C133.967 95.92 133.273 96.096 132.452 96.096ZM132.484 94.896C133.017 94.896 133.465 94.768 133.828 94.512C134.191 94.256 134.463 93.9147 134.644 93.488C134.836 93.0613 134.932 92.592 134.932 92.08C134.932 91.5787 134.836 91.1307 134.644 90.736C134.463 90.3307 134.191 90.0107 133.828 89.776C133.476 89.5413 133.039 89.424 132.516 89.424C132.004 89.424 131.561 89.5467 131.188 89.792C130.825 90.0373 130.543 90.368 130.34 90.784C130.148 91.1893 130.052 91.632 130.052 92.112C130.052 92.6027 130.143 93.0613 130.324 93.488C130.505 93.9147 130.772 94.256 131.124 94.512C131.487 94.768 131.94 94.896 132.484 94.896ZM139.319 96V88.768H137.271V87.568H140.711V90.784H142.583C143.084 90.784 143.532 90.8267 143.927 90.912C144.332 90.9867 144.674 91.1147 144.951 91.296C145.239 91.4773 145.458 91.728 145.607 92.048C145.767 92.368 145.847 92.768 145.847 93.248C145.847 93.7387 145.767 94.16 145.607 94.512C145.447 94.864 145.218 95.152 144.919 95.376C144.631 95.5893 144.29 95.7493 143.895 95.856C143.5 95.952 143.068 96 142.599 96H139.319ZM140.711 94.816H141.511C141.895 94.816 142.263 94.8107 142.615 94.8C142.978 94.7787 143.298 94.7253 143.575 94.64C143.852 94.5547 144.071 94.4053 144.231 94.192C144.391 93.9787 144.471 93.68 144.471 93.296C144.471 92.9867 144.407 92.7467 144.279 92.576C144.151 92.3947 143.98 92.2613 143.767 92.176C143.564 92.0907 143.335 92.0373 143.079 92.016C142.823 91.984 142.572 91.968 142.327 91.968H140.711V94.816ZM151.204 96.096C150.308 96.096 149.567 95.9147 148.98 95.552C148.394 95.1787 147.956 94.6667 147.668 94.016C147.38 93.3653 147.236 92.624 147.236 91.792C147.236 90.9493 147.386 90.208 147.684 89.568C147.994 88.9173 148.442 88.4053 149.028 88.032C149.615 87.6587 150.335 87.472 151.188 87.472C151.818 87.472 152.367 87.5947 152.836 87.84C153.316 88.0747 153.711 88.3947 154.02 88.8C154.34 89.2053 154.57 89.6587 154.708 90.16C154.858 90.6613 154.922 91.1787 154.9 91.712C154.89 91.808 154.884 91.904 154.884 92C154.884 92.096 154.879 92.192 154.868 92.288H148.612C148.655 92.7787 148.778 93.2213 148.98 93.616C149.183 94.0107 149.471 94.3253 149.844 94.56C150.218 94.784 150.682 94.896 151.236 94.896C151.514 94.896 151.791 94.864 152.068 94.8C152.356 94.7253 152.612 94.6027 152.836 94.432C153.071 94.2613 153.236 94.032 153.332 93.744H154.724C154.596 94.288 154.356 94.736 154.004 95.088C153.652 95.4293 153.231 95.6853 152.74 95.856C152.25 96.016 151.738 96.096 151.204 96.096ZM148.644 91.104H153.524C153.514 90.624 153.407 90.2027 153.204 89.84C153.002 89.4773 152.724 89.1947 152.372 88.992C152.031 88.7893 151.62 88.688 151.14 88.688C150.618 88.688 150.175 88.8 149.812 89.024C149.46 89.248 149.188 89.5413 148.996 89.904C148.804 90.2667 148.687 90.6667 148.644 91.104ZM156.728 96V87.568H158.088V91.2H159.56L162.056 87.568H163.608L160.792 91.584L163.848 96H162.248L159.72 92.384H158.088V96H156.728ZM166.993 96V88.768H164.097V87.568H171.249V88.768H168.353V96H166.993ZM175.167 96.096C174.783 96.096 174.409 96.048 174.047 95.952C173.695 95.8453 173.375 95.6907 173.087 95.488C172.809 95.2747 172.585 95.0133 172.415 94.704C172.255 94.384 172.175 94.016 172.175 93.6C172.175 93.12 172.26 92.7147 172.431 92.384C172.612 92.0533 172.852 91.792 173.151 91.6C173.449 91.408 173.796 91.2693 174.191 91.184C174.585 91.0987 174.996 91.056 175.423 91.056H177.903C177.903 90.576 177.833 90.16 177.695 89.808C177.567 89.456 177.353 89.184 177.055 88.992C176.756 88.7893 176.361 88.688 175.871 88.688C175.572 88.688 175.295 88.72 175.039 88.784C174.783 88.848 174.564 88.9493 174.383 89.088C174.201 89.2267 174.068 89.4133 173.983 89.648H172.527C172.601 89.264 172.745 88.9387 172.959 88.672C173.183 88.3947 173.449 88.1707 173.759 88C174.079 87.8187 174.42 87.6853 174.783 87.6C175.145 87.5147 175.508 87.472 175.871 87.472C176.681 87.472 177.332 87.6373 177.823 87.968C178.313 88.288 178.671 88.7467 178.895 89.344C179.119 89.9307 179.231 90.6293 179.231 91.44V96H178.095L178.015 94.928C177.78 95.248 177.497 95.4933 177.167 95.664C176.836 95.8347 176.495 95.9467 176.143 96C175.801 96.064 175.476 96.096 175.167 96.096ZM175.295 94.896C175.828 94.896 176.287 94.8107 176.671 94.64C177.065 94.4587 177.369 94.1973 177.583 93.856C177.796 93.5147 177.903 93.0987 177.903 92.608V92.192H176.415C176.063 92.192 175.716 92.1973 175.375 92.208C175.033 92.2187 174.724 92.2613 174.447 92.336C174.169 92.4107 173.945 92.5387 173.775 92.72C173.615 92.9013 173.535 93.1627 173.535 93.504C173.535 93.824 173.615 94.0853 173.775 94.288C173.945 94.4907 174.164 94.6453 174.431 94.752C174.708 94.848 174.996 94.896 175.295 94.896Z" fill="black"/>
</svg>
