<svg width="408" height="231" viewBox="0 0 408 231" fill="none" xmlns="http://www.w3.org/2000/svg">
<rect width="408" height="231" rx="30" fill="white"/>
<path d="M79.168 41C85.1451 41 89.9902 45.8452 89.9902 51.8223V73.2002C89.9902 79.1773 85.1451 84.0234 79.168 84.0234H40.8232C34.8461 84.0234 30 79.1773 30 73.2002V51.8223C30 45.8452 34.8461 41 40.8232 41H79.168ZM39.626 72.7881H44.0322L45.29 69.332H54.2275L55.4736 72.7881H59.8701L52.0762 52.5615H47.5088L39.626 72.7881ZM62.8994 52.5615V72.7881L66.9824 72.7822V65.6709H70.6055L74.5488 72.7822H79.1445L74.6631 65.0146C75.4904 64.7366 76.2558 64.3003 76.917 63.7305C77.5413 63.1838 78.0303 62.4994 78.3447 61.7314C78.68 60.8929 78.8452 59.9957 78.8311 59.0928C78.8721 57.9769 78.6527 56.8666 78.1895 55.8506C77.7932 55.0425 77.1853 54.3567 76.4307 53.8662C75.6657 53.3818 74.8191 53.0398 73.9326 52.8555C72.9806 52.6551 72.0099 52.556 71.0371 52.5615H62.8994ZM52.9434 65.6475H46.6064L49.8037 56.9121L52.9434 65.6475ZM71.2529 56.3701C71.8381 56.3808 72.4202 56.4625 72.9863 56.6133C73.4998 56.7445 73.9595 57.0332 74.2998 57.4395C74.6382 57.9163 74.795 58.4987 74.7422 59.0811C74.7593 59.5649 74.6588 60.046 74.4492 60.4824C74.2553 60.8523 73.9692 61.1667 73.6191 61.3945C73.2348 61.6361 72.8093 61.8058 72.3643 61.8955C71.8328 62.0029 71.2912 62.0549 70.749 62.0508H66.9824L66.9766 56.3701H71.2529Z" fill="#010101"/>
<path d="M106.392 56V44.688H107.784V49.904H109.464L113.144 44.688H114.744L110.68 50.304L114.776 56H113.128L109.576 51.168H107.784V56H106.392ZM116.072 56V47.568H117.432V51.264H121.656V47.568H123.016V56H121.656V52.464H117.432V56H116.072ZM128.846 56.096C127.96 56.096 127.219 55.9147 126.622 55.552C126.024 55.1787 125.576 54.6667 125.278 54.016C124.99 53.3653 124.846 52.624 124.846 51.792C124.846 50.9493 124.99 50.208 125.278 49.568C125.576 48.9173 126.024 48.4053 126.622 48.032C127.219 47.6587 127.971 47.472 128.878 47.472C129.763 47.472 130.499 47.6587 131.086 48.032C131.683 48.4053 132.126 48.9173 132.414 49.568C132.712 50.208 132.862 50.9493 132.862 51.792C132.862 52.624 132.712 53.3653 132.414 54.016C132.115 54.6667 131.667 55.1787 131.07 55.552C130.483 55.9147 129.742 56.096 128.846 56.096ZM128.846 54.896C129.464 54.896 129.966 54.7573 130.35 54.48C130.744 54.2027 131.032 53.8293 131.214 53.36C131.406 52.8907 131.502 52.368 131.502 51.792C131.502 51.216 131.406 50.6933 131.214 50.224C131.032 49.7547 130.744 49.3813 130.35 49.104C129.966 48.8267 129.464 48.688 128.846 48.688C128.238 48.688 127.736 48.8267 127.342 49.104C126.958 49.3813 126.67 49.7547 126.478 50.224C126.296 50.6933 126.206 51.216 126.206 51.792C126.206 52.368 126.296 52.8907 126.478 53.36C126.67 53.8293 126.958 54.2027 127.342 54.48C127.736 54.7573 128.238 54.896 128.846 54.896ZM134.681 56V47.568H141.673V56H140.313V48.768H136.041V56H134.681ZM143.822 56V47.568H145.182V51.2H146.654L149.15 47.568H150.702L147.886 51.584L150.942 56H149.342L146.814 52.384H145.182V56H143.822ZM154.667 56.096C154.283 56.096 153.909 56.048 153.547 55.952C153.195 55.8453 152.875 55.6907 152.587 55.488C152.309 55.2747 152.085 55.0133 151.915 54.704C151.755 54.384 151.675 54.016 151.675 53.6C151.675 53.12 151.76 52.7147 151.931 52.384C152.112 52.0533 152.352 51.792 152.651 51.6C152.949 51.408 153.296 51.2693 153.691 51.184C154.085 51.0987 154.496 51.056 154.923 51.056H157.403C157.403 50.576 157.333 50.16 157.195 49.808C157.067 49.456 156.853 49.184 156.555 48.992C156.256 48.7893 155.861 48.688 155.371 48.688C155.072 48.688 154.795 48.72 154.539 48.784C154.283 48.848 154.064 48.9493 153.883 49.088C153.701 49.2267 153.568 49.4133 153.483 49.648H152.027C152.101 49.264 152.245 48.9387 152.459 48.672C152.683 48.3947 152.949 48.1707 153.259 48C153.579 47.8187 153.92 47.6853 154.283 47.6C154.645 47.5147 155.008 47.472 155.371 47.472C156.181 47.472 156.832 47.6373 157.323 47.968C157.813 48.288 158.171 48.7467 158.395 49.344C158.619 49.9307 158.731 50.6293 158.731 51.44V56H157.595L157.515 54.928C157.28 55.248 156.997 55.4933 156.667 55.664C156.336 55.8347 155.995 55.9467 155.643 56C155.301 56.064 154.976 56.096 154.667 56.096ZM154.795 54.896C155.328 54.896 155.787 54.8107 156.171 54.64C156.565 54.4587 156.869 54.1973 157.083 53.856C157.296 53.5147 157.403 53.0987 157.403 52.608V52.192H155.915C155.563 52.192 155.216 52.1973 154.875 52.208C154.533 52.2187 154.224 52.2613 153.947 52.336C153.669 52.4107 153.445 52.5387 153.275 52.72C153.115 52.9013 153.035 53.1627 153.035 53.504C153.035 53.824 153.115 54.0853 153.275 54.288C153.445 54.4907 153.664 54.6453 153.931 54.752C154.208 54.848 154.496 54.896 154.795 54.896ZM167.854 56.096C167.47 56.096 167.097 56.048 166.734 55.952C166.382 55.8453 166.062 55.6907 165.774 55.488C165.497 55.2747 165.273 55.0133 165.102 54.704C164.942 54.384 164.862 54.016 164.862 53.6C164.862 53.12 164.947 52.7147 165.118 52.384C165.299 52.0533 165.539 51.792 165.838 51.6C166.137 51.408 166.483 51.2693 166.878 51.184C167.273 51.0987 167.683 51.056 168.11 51.056H170.59C170.59 50.576 170.521 50.16 170.382 49.808C170.254 49.456 170.041 49.184 169.742 48.992C169.443 48.7893 169.049 48.688 168.558 48.688C168.259 48.688 167.982 48.72 167.726 48.784C167.47 48.848 167.251 48.9493 167.07 49.088C166.889 49.2267 166.755 49.4133 166.67 49.648H165.214C165.289 49.264 165.433 48.9387 165.646 48.672C165.87 48.3947 166.137 48.1707 166.446 48C166.766 47.8187 167.107 47.6853 167.47 47.6C167.833 47.5147 168.195 47.472 168.558 47.472C169.369 47.472 170.019 47.6373 170.51 47.968C171.001 48.288 171.358 48.7467 171.582 49.344C171.806 49.9307 171.918 50.6293 171.918 51.44V56H170.782L170.702 54.928C170.467 55.248 170.185 55.4933 169.854 55.664C169.523 55.8347 169.182 55.9467 168.83 56C168.489 56.064 168.163 56.096 167.854 56.096ZM167.982 54.896C168.515 54.896 168.974 54.8107 169.358 54.64C169.753 54.4587 170.057 54.1973 170.27 53.856C170.483 53.5147 170.59 53.0987 170.59 52.608V52.192H169.102C168.75 52.192 168.403 52.1973 168.062 52.208C167.721 52.2187 167.411 52.2613 167.134 52.336C166.857 52.4107 166.633 52.5387 166.462 52.72C166.302 52.9013 166.222 53.1627 166.222 53.504C166.222 53.824 166.302 54.0853 166.462 54.288C166.633 54.4907 166.851 54.6453 167.118 54.752C167.395 54.848 167.683 54.896 167.982 54.896ZM174.025 56V47.568H175.385V51.2H176.857L179.353 47.568H180.905L178.089 51.584L181.145 56H179.545L177.017 52.384H175.385V56H174.025ZM184.29 56V48.768H181.394V47.568H188.546V48.768H185.65V56H184.29ZM189.76 56V47.568H191.12V54.032C191.194 53.8827 191.296 53.7227 191.424 53.552C191.552 53.3707 191.653 53.232 191.728 53.136L195.808 47.568H197.152V56H195.792V49.536C195.706 49.696 195.61 49.8453 195.504 49.984C195.408 50.1227 195.317 50.2507 195.232 50.368L191.088 56H189.76ZM199.291 56V47.568H202.555C202.928 47.568 203.296 47.5947 203.659 47.648C204.032 47.6907 204.368 47.7867 204.667 47.936C204.976 48.0747 205.221 48.2827 205.403 48.56C205.595 48.8373 205.691 49.2053 205.691 49.664C205.691 49.9413 205.648 50.1973 205.563 50.432C205.477 50.656 205.349 50.8533 205.179 51.024C205.019 51.1947 204.811 51.344 204.555 51.472C205.131 51.6 205.547 51.8507 205.803 52.224C206.059 52.5973 206.187 53.024 206.187 53.504C206.187 53.9307 206.107 54.304 205.947 54.624C205.797 54.9333 205.584 55.1893 205.307 55.392C205.04 55.5947 204.725 55.7493 204.363 55.856C204.011 55.952 203.632 56 203.227 56H199.291ZM200.683 54.816H202.907C203.237 54.816 203.547 54.784 203.835 54.72C204.123 54.656 204.357 54.5387 204.539 54.368C204.72 54.1867 204.811 53.9307 204.811 53.6C204.811 53.2587 204.731 53.0027 204.571 52.832C204.421 52.6507 204.224 52.528 203.979 52.464C203.744 52.3893 203.488 52.3467 203.211 52.336C202.933 52.3253 202.672 52.32 202.427 52.32H200.683V54.816ZM200.683 51.168H201.851C202.064 51.168 202.309 51.1573 202.587 51.136C202.875 51.1147 203.152 51.0667 203.419 50.992C203.696 50.9067 203.92 50.7787 204.091 50.608C204.272 50.4373 204.363 50.2027 204.363 49.904C204.363 49.5093 204.251 49.2373 204.027 49.088C203.813 48.928 203.557 48.8373 203.259 48.816C202.96 48.784 202.683 48.768 202.427 48.768H200.683V51.168ZM208.041 56V47.568H209.401V54.032C209.475 53.8827 209.577 53.7227 209.705 53.552C209.833 53.3707 209.934 53.232 210.009 53.136L214.089 47.568H215.433V56H214.073V49.536C213.987 49.696 213.891 49.8453 213.785 49.984C213.689 50.1227 213.598 50.2507 213.513 50.368L209.369 56H208.041ZM217.572 59.04V47.568H218.868L218.932 48.864C219.22 48.4053 219.609 48.0587 220.1 47.824C220.601 47.5893 221.14 47.472 221.716 47.472C222.569 47.472 223.268 47.664 223.812 48.048C224.356 48.4213 224.756 48.9333 225.012 49.584C225.279 50.2347 225.412 50.9707 225.412 51.792C225.412 52.6133 225.279 53.3493 225.012 54C224.745 54.6507 224.335 55.1627 223.78 55.536C223.225 55.9093 222.516 56.096 221.652 56.096C221.225 56.096 220.841 56.0533 220.5 55.968C220.159 55.872 219.86 55.7387 219.604 55.568C219.348 55.3973 219.124 55.2053 218.932 54.992V59.04H217.572ZM221.54 54.896C222.159 54.896 222.649 54.7573 223.012 54.48C223.375 54.192 223.636 53.8133 223.796 53.344C223.967 52.8747 224.052 52.3573 224.052 51.792C224.052 51.216 223.967 50.6933 223.796 50.224C223.636 49.7547 223.369 49.3813 222.996 49.104C222.623 48.8267 222.127 48.688 221.508 48.688C220.953 48.688 220.479 48.832 220.084 49.12C219.7 49.3973 219.407 49.776 219.204 50.256C219.001 50.7253 218.9 51.2427 218.9 51.808C218.9 52.3947 218.996 52.9227 219.188 53.392C219.38 53.8613 219.673 54.2293 220.068 54.496C220.463 54.7627 220.953 54.896 221.54 54.896ZM230.846 56.096C229.96 56.096 229.219 55.9147 228.622 55.552C228.024 55.1787 227.576 54.6667 227.278 54.016C226.99 53.3653 226.846 52.624 226.846 51.792C226.846 50.9493 226.99 50.208 227.278 49.568C227.576 48.9173 228.024 48.4053 228.622 48.032C229.219 47.6587 229.971 47.472 230.878 47.472C231.763 47.472 232.499 47.6587 233.086 48.032C233.683 48.4053 234.126 48.9173 234.414 49.568C234.712 50.208 234.862 50.9493 234.862 51.792C234.862 52.624 234.712 53.3653 234.414 54.016C234.115 54.6667 233.667 55.1787 233.07 55.552C232.483 55.9147 231.742 56.096 230.846 56.096ZM230.846 54.896C231.464 54.896 231.966 54.7573 232.35 54.48C232.744 54.2027 233.032 53.8293 233.214 53.36C233.406 52.8907 233.502 52.368 233.502 51.792C233.502 51.216 233.406 50.6933 233.214 50.224C233.032 49.7547 232.744 49.3813 232.35 49.104C231.966 48.8267 231.464 48.688 230.846 48.688C230.238 48.688 229.736 48.8267 229.342 49.104C228.958 49.3813 228.67 49.7547 228.478 50.224C228.296 50.6933 228.206 51.216 228.206 51.792C228.206 52.368 228.296 52.8907 228.478 53.36C228.67 53.8293 228.958 54.2027 229.342 54.48C229.736 54.7573 230.238 54.896 230.846 54.896ZM236.681 56V47.568H239.945C240.319 47.568 240.687 47.5947 241.049 47.648C241.423 47.6907 241.759 47.7867 242.057 47.936C242.367 48.0747 242.612 48.2827 242.793 48.56C242.985 48.8373 243.081 49.2053 243.081 49.664C243.081 49.9413 243.039 50.1973 242.953 50.432C242.868 50.656 242.74 50.8533 242.569 51.024C242.409 51.1947 242.201 51.344 241.945 51.472C242.521 51.6 242.937 51.8507 243.193 52.224C243.449 52.5973 243.577 53.024 243.577 53.504C243.577 53.9307 243.497 54.304 243.337 54.624C243.188 54.9333 242.975 55.1893 242.697 55.392C242.431 55.5947 242.116 55.7493 241.753 55.856C241.401 55.952 241.023 56 240.617 56H236.681ZM238.073 54.816H240.297C240.628 54.816 240.937 54.784 241.225 54.72C241.513 54.656 241.748 54.5387 241.929 54.368C242.111 54.1867 242.201 53.9307 242.201 53.6C242.201 53.2587 242.121 53.0027 241.961 52.832C241.812 52.6507 241.615 52.528 241.369 52.464C241.135 52.3893 240.879 52.3467 240.601 52.336C240.324 52.3253 240.063 52.32 239.817 52.32H238.073V54.816ZM238.073 51.168H239.241C239.455 51.168 239.7 51.1573 239.977 51.136C240.265 51.1147 240.543 51.0667 240.809 50.992C241.087 50.9067 241.311 50.7787 241.481 50.608C241.663 50.4373 241.753 50.2027 241.753 49.904C241.753 49.5093 241.641 49.2373 241.417 49.088C241.204 48.928 240.948 48.8373 240.649 48.816C240.351 48.784 240.073 48.768 239.817 48.768H238.073V51.168ZM248.135 56.096C247.751 56.096 247.378 56.048 247.015 55.952C246.663 55.8453 246.343 55.6907 246.055 55.488C245.778 55.2747 245.554 55.0133 245.383 54.704C245.223 54.384 245.143 54.016 245.143 53.6C245.143 53.12 245.229 52.7147 245.399 52.384C245.581 52.0533 245.821 51.792 246.119 51.6C246.418 51.408 246.765 51.2693 247.159 51.184C247.554 51.0987 247.965 51.056 248.391 51.056H250.871C250.871 50.576 250.802 50.16 250.663 49.808C250.535 49.456 250.322 49.184 250.023 48.992C249.725 48.7893 249.33 48.688 248.839 48.688C248.541 48.688 248.263 48.72 248.007 48.784C247.751 48.848 247.533 48.9493 247.351 49.088C247.17 49.2267 247.037 49.4133 246.951 49.648H245.495C245.57 49.264 245.714 48.9387 245.927 48.672C246.151 48.3947 246.418 48.1707 246.727 48C247.047 47.8187 247.389 47.6853 247.751 47.6C248.114 47.5147 248.477 47.472 248.839 47.472C249.65 47.472 250.301 47.6373 250.791 47.968C251.282 48.288 251.639 48.7467 251.863 49.344C252.087 49.9307 252.199 50.6293 252.199 51.44V56H251.063L250.983 54.928C250.749 55.248 250.466 55.4933 250.135 55.664C249.805 55.8347 249.463 55.9467 249.111 56C248.77 56.064 248.445 56.096 248.135 56.096ZM248.263 54.896C248.797 54.896 249.255 54.8107 249.639 54.64C250.034 54.4587 250.338 54.1973 250.551 53.856C250.765 53.5147 250.871 53.0987 250.871 52.608V52.192H249.383C249.031 52.192 248.685 52.1973 248.343 52.208C248.002 52.2187 247.693 52.2613 247.415 52.336C247.138 52.4107 246.914 52.5387 246.743 52.72C246.583 52.9013 246.503 53.1627 246.503 53.504C246.503 53.824 246.583 54.0853 246.743 54.288C246.914 54.4907 247.133 54.6453 247.399 54.752C247.677 54.848 247.965 54.896 248.263 54.896ZM254.306 56V47.568H255.666V51.264H259.89V47.568H261.25V56H259.89V52.464H255.666V56H254.306ZM266.104 56.096C265.72 56.096 265.347 56.048 264.984 55.952C264.632 55.8453 264.312 55.6907 264.024 55.488C263.747 55.2747 263.523 55.0133 263.352 54.704C263.192 54.384 263.112 54.016 263.112 53.6C263.112 53.12 263.197 52.7147 263.368 52.384C263.549 52.0533 263.789 51.792 264.088 51.6C264.387 51.408 264.733 51.2693 265.128 51.184C265.523 51.0987 265.933 51.056 266.36 51.056H268.84C268.84 50.576 268.771 50.16 268.632 49.808C268.504 49.456 268.291 49.184 267.992 48.992C267.693 48.7893 267.299 48.688 266.808 48.688C266.509 48.688 266.232 48.72 265.976 48.784C265.72 48.848 265.501 48.9493 265.32 49.088C265.139 49.2267 265.005 49.4133 264.92 49.648H263.464C263.539 49.264 263.683 48.9387 263.896 48.672C264.12 48.3947 264.387 48.1707 264.696 48C265.016 47.8187 265.357 47.6853 265.72 47.6C266.083 47.5147 266.445 47.472 266.808 47.472C267.619 47.472 268.269 47.6373 268.76 47.968C269.251 48.288 269.608 48.7467 269.832 49.344C270.056 49.9307 270.168 50.6293 270.168 51.44V56H269.032L268.952 54.928C268.717 55.248 268.435 55.4933 268.104 55.664C267.773 55.8347 267.432 55.9467 267.08 56C266.739 56.064 266.413 56.096 266.104 56.096ZM266.232 54.896C266.765 54.896 267.224 54.8107 267.608 54.64C268.003 54.4587 268.307 54.1973 268.52 53.856C268.733 53.5147 268.84 53.0987 268.84 52.608V52.192H267.352C267 52.192 266.653 52.1973 266.312 52.208C265.971 52.2187 265.661 52.2613 265.384 52.336C265.107 52.4107 264.883 52.5387 264.712 52.72C264.552 52.9013 264.472 53.1627 264.472 53.504C264.472 53.824 264.552 54.0853 264.712 54.288C264.883 54.4907 265.101 54.6453 265.368 54.752C265.645 54.848 265.933 54.896 266.232 54.896ZM276.588 56V47.568H283.58V56H282.22V48.768H277.948V56H276.588ZM289.408 56.096C288.523 56.096 287.782 55.9147 287.184 55.552C286.587 55.1787 286.139 54.6667 285.84 54.016C285.552 53.3653 285.408 52.624 285.408 51.792C285.408 50.9493 285.552 50.208 285.84 49.568C286.139 48.9173 286.587 48.4053 287.184 48.032C287.782 47.6587 288.534 47.472 289.44 47.472C290.326 47.472 291.062 47.6587 291.648 48.032C292.246 48.4053 292.688 48.9173 292.976 49.568C293.275 50.208 293.424 50.9493 293.424 51.792C293.424 52.624 293.275 53.3653 292.976 54.016C292.678 54.6667 292.23 55.1787 291.632 55.552C291.046 55.9147 290.304 56.096 289.408 56.096ZM289.408 54.896C290.027 54.896 290.528 54.7573 290.912 54.48C291.307 54.2027 291.595 53.8293 291.776 53.36C291.968 52.8907 292.064 52.368 292.064 51.792C292.064 51.216 291.968 50.6933 291.776 50.224C291.595 49.7547 291.307 49.3813 290.912 49.104C290.528 48.8267 290.027 48.688 289.408 48.688C288.8 48.688 288.299 48.8267 287.904 49.104C287.52 49.3813 287.232 49.7547 287.04 50.224C286.859 50.6933 286.768 51.216 286.768 51.792C286.768 52.368 286.859 52.8907 287.04 53.36C287.232 53.8293 287.52 54.2027 287.904 54.48C288.299 54.7573 288.8 54.896 289.408 54.896ZM297.212 56V48.768H294.316V47.568H301.468V48.768H298.572V56H297.212ZM306.361 56.096C305.476 56.096 304.735 55.9147 304.137 55.552C303.54 55.1787 303.092 54.6667 302.793 54.016C302.505 53.3653 302.361 52.624 302.361 51.792C302.361 50.9493 302.505 50.208 302.793 49.568C303.092 48.9173 303.54 48.4053 304.137 48.032C304.735 47.6587 305.487 47.472 306.393 47.472C307.279 47.472 308.015 47.6587 308.601 48.032C309.199 48.4053 309.641 48.9173 309.929 49.568C310.228 50.208 310.377 50.9493 310.377 51.792C310.377 52.624 310.228 53.3653 309.929 54.016C309.631 54.6667 309.183 55.1787 308.585 55.552C307.999 55.9147 307.257 56.096 306.361 56.096ZM306.361 54.896C306.98 54.896 307.481 54.7573 307.865 54.48C308.26 54.2027 308.548 53.8293 308.729 53.36C308.921 52.8907 309.017 52.368 309.017 51.792C309.017 51.216 308.921 50.6933 308.729 50.224C308.548 49.7547 308.26 49.3813 307.865 49.104C307.481 48.8267 306.98 48.688 306.361 48.688C305.753 48.688 305.252 48.8267 304.857 49.104C304.473 49.3813 304.185 49.7547 303.993 50.224C303.812 50.6933 303.721 51.216 303.721 51.792C303.721 52.368 303.812 52.8907 303.993 53.36C304.185 53.8293 304.473 54.2027 304.857 54.48C305.252 54.7573 305.753 54.896 306.361 54.896ZM312.197 56V47.568H314.021L316.757 51.792L319.445 47.568H321.237V56H319.893V49.072L316.917 53.84H316.533L313.541 49.072V56H312.197ZM323.657 59.616V58.32C324.179 58.32 324.595 58.2453 324.905 58.096C325.214 57.9573 325.47 57.7333 325.673 57.424C325.886 57.1253 326.089 56.7413 326.281 56.272L322.585 47.568H324.185L327.033 54.672L329.369 47.568H330.905L328.537 54.208C328.419 54.5493 328.286 54.9333 328.137 55.36C327.987 55.7867 327.822 56.2187 327.641 56.656C327.459 57.104 327.257 57.5147 327.033 57.888C326.819 58.272 326.579 58.5813 326.312 58.816C326.089 59.0187 325.87 59.1787 325.657 59.296C325.443 59.4133 325.182 59.4933 324.873 59.536C324.574 59.5893 324.169 59.616 323.657 59.616ZM111.032 76V72.752C110.627 72.8267 110.232 72.88 109.848 72.912C109.475 72.9333 109.139 72.944 108.84 72.944C108.051 72.944 107.427 72.8213 106.968 72.576C106.509 72.3307 106.184 71.9573 105.992 71.456C105.8 70.944 105.704 70.3093 105.704 69.552V67.568H107.064V69.456C107.064 69.9467 107.112 70.3627 107.208 70.704C107.304 71.0453 107.491 71.3067 107.768 71.488C108.045 71.6587 108.461 71.744 109.016 71.744C109.336 71.744 109.672 71.728 110.024 71.696C110.387 71.664 110.723 71.616 111.032 71.552V67.568H112.392V76H111.032ZM116.509 76V68.768H113.613V67.568H120.765V68.768H117.869V76H116.509ZM125.658 76.096C124.773 76.096 124.032 75.9147 123.434 75.552C122.837 75.1787 122.389 74.6667 122.09 74.016C121.802 73.3653 121.658 72.624 121.658 71.792C121.658 70.9493 121.802 70.208 122.09 69.568C122.389 68.9173 122.837 68.4053 123.434 68.032C124.032 67.6587 124.784 67.472 125.69 67.472C126.576 67.472 127.312 67.6587 127.898 68.032C128.496 68.4053 128.938 68.9173 129.226 69.568C129.525 70.208 129.674 70.9493 129.674 71.792C129.674 72.624 129.525 73.3653 129.226 74.016C128.928 74.6667 128.48 75.1787 127.882 75.552C127.296 75.9147 126.554 76.096 125.658 76.096ZM125.658 74.896C126.277 74.896 126.778 74.7573 127.162 74.48C127.557 74.2027 127.845 73.8293 128.026 73.36C128.218 72.8907 128.314 72.368 128.314 71.792C128.314 71.216 128.218 70.6933 128.026 70.224C127.845 69.7547 127.557 69.3813 127.162 69.104C126.778 68.8267 126.277 68.688 125.658 68.688C125.05 68.688 124.549 68.8267 124.154 69.104C123.77 69.3813 123.482 69.7547 123.29 70.224C123.109 70.6933 123.018 71.216 123.018 71.792C123.018 72.368 123.109 72.8907 123.29 73.36C123.482 73.8293 123.77 74.2027 124.154 74.48C124.549 74.7573 125.05 74.896 125.658 74.896ZM138.51 76.096C138.126 76.096 137.753 76.048 137.39 75.952C137.038 75.8453 136.718 75.6907 136.43 75.488C136.153 75.2747 135.929 75.0133 135.758 74.704C135.598 74.384 135.518 74.016 135.518 73.6C135.518 73.12 135.604 72.7147 135.774 72.384C135.956 72.0533 136.196 71.792 136.494 71.6C136.793 71.408 137.14 71.2693 137.534 71.184C137.929 71.0987 138.34 71.056 138.766 71.056H141.246C141.246 70.576 141.177 70.16 141.038 69.808C140.91 69.456 140.697 69.184 140.398 68.992C140.1 68.7893 139.705 68.688 139.214 68.688C138.916 68.688 138.638 68.72 138.382 68.784C138.126 68.848 137.908 68.9493 137.726 69.088C137.545 69.2267 137.412 69.4133 137.326 69.648H135.87C135.945 69.264 136.089 68.9387 136.302 68.672C136.526 68.3947 136.793 68.1707 137.102 68C137.422 67.8187 137.764 67.6853 138.126 67.6C138.489 67.5147 138.852 67.472 139.214 67.472C140.025 67.472 140.676 67.6373 141.166 67.968C141.657 68.288 142.014 68.7467 142.238 69.344C142.462 69.9307 142.574 70.6293 142.574 71.44V76H141.438L141.358 74.928C141.124 75.248 140.841 75.4933 140.51 75.664C140.18 75.8347 139.838 75.9467 139.486 76C139.145 76.064 138.82 76.096 138.51 76.096ZM138.638 74.896C139.172 74.896 139.63 74.8107 140.014 74.64C140.409 74.4587 140.713 74.1973 140.926 73.856C141.14 73.5147 141.246 73.0987 141.246 72.608V72.192H139.758C139.406 72.192 139.06 72.1973 138.718 72.208C138.377 72.2187 138.068 72.2613 137.79 72.336C137.513 72.4107 137.289 72.5387 137.118 72.72C136.958 72.9013 136.878 73.1627 136.878 73.504C136.878 73.824 136.958 74.0853 137.118 74.288C137.289 74.4907 137.508 74.6453 137.774 74.752C138.052 74.848 138.34 74.896 138.638 74.896ZM144.681 76V67.568H146.041V71.2H147.513L150.009 67.568H151.561L148.745 71.584L151.801 76H150.201L147.673 72.384H146.041V76H144.681ZM154.946 76V68.768H152.05V67.568H159.202V68.768H156.306V76H154.946ZM160.416 76V67.568H161.776V74.032C161.85 73.8827 161.952 73.7227 162.08 73.552C162.208 73.3707 162.309 73.232 162.384 73.136L166.464 67.568H167.808V76H166.448V69.536C166.362 69.696 166.266 69.8453 166.16 69.984C166.064 70.1227 165.973 70.2507 165.888 70.368L161.744 76H160.416ZM169.947 76V67.568H173.211C173.584 67.568 173.952 67.5947 174.315 67.648C174.688 67.6907 175.024 67.7867 175.323 67.936C175.632 68.0747 175.878 68.2827 176.059 68.56C176.251 68.8373 176.347 69.2053 176.347 69.664C176.347 69.9413 176.304 70.1973 176.219 70.432C176.134 70.656 176.006 70.8533 175.835 71.024C175.675 71.1947 175.467 71.344 175.211 71.472C175.787 71.6 176.203 71.8507 176.459 72.224C176.715 72.5973 176.843 73.024 176.843 73.504C176.843 73.9307 176.763 74.304 176.603 74.624C176.454 74.9333 176.24 75.1893 175.963 75.392C175.696 75.5947 175.382 75.7493 175.019 75.856C174.667 75.952 174.288 76 173.883 76H169.947ZM171.339 74.816H173.563C173.894 74.816 174.203 74.784 174.491 74.72C174.779 74.656 175.014 74.5387 175.195 74.368C175.376 74.1867 175.467 73.9307 175.467 73.6C175.467 73.2587 175.387 73.0027 175.227 72.832C175.078 72.6507 174.88 72.528 174.635 72.464C174.4 72.3893 174.144 72.3467 173.867 72.336C173.59 72.3253 173.328 72.32 173.083 72.32H171.339V74.816ZM171.339 71.168H172.507C172.72 71.168 172.966 71.1573 173.243 71.136C173.531 71.1147 173.808 71.0667 174.075 70.992C174.352 70.9067 174.576 70.7787 174.747 70.608C174.928 70.4373 175.019 70.2027 175.019 69.904C175.019 69.5093 174.907 69.2373 174.683 69.088C174.47 68.928 174.214 68.8373 173.915 68.816C173.616 68.784 173.339 68.768 173.083 68.768H171.339V71.168ZM178.697 76V67.568H180.057V74.032C180.132 73.8827 180.233 73.7227 180.361 73.552C180.489 73.3707 180.59 73.232 180.665 73.136L184.745 67.568H186.089V76H184.729V69.536C184.644 69.696 184.548 69.8453 184.441 69.984C184.345 70.1227 184.254 70.2507 184.169 70.368L180.025 76H178.697ZM188.228 79.04V67.568H189.524L189.588 68.864C189.876 68.4053 190.266 68.0587 190.756 67.824C191.258 67.5893 191.796 67.472 192.372 67.472C193.226 67.472 193.924 67.664 194.468 68.048C195.012 68.4213 195.412 68.9333 195.668 69.584C195.935 70.2347 196.068 70.9707 196.068 71.792C196.068 72.6133 195.935 73.3493 195.668 74C195.402 74.6507 194.991 75.1627 194.436 75.536C193.882 75.9093 193.172 76.096 192.308 76.096C191.882 76.096 191.498 76.0533 191.156 75.968C190.815 75.872 190.516 75.7387 190.26 75.568C190.004 75.3973 189.78 75.2053 189.588 74.992V79.04H188.228ZM192.196 74.896C192.815 74.896 193.306 74.7573 193.668 74.48C194.031 74.192 194.292 73.8133 194.452 73.344C194.623 72.8747 194.708 72.3573 194.708 71.792C194.708 71.216 194.623 70.6933 194.452 70.224C194.292 69.7547 194.026 69.3813 193.652 69.104C193.279 68.8267 192.783 68.688 192.164 68.688C191.61 68.688 191.135 68.832 190.74 69.12C190.356 69.3973 190.063 69.776 189.86 70.256C189.658 70.7253 189.556 71.2427 189.556 71.808C189.556 72.3947 189.652 72.9227 189.844 73.392C190.036 73.8613 190.33 74.2293 190.724 74.496C191.119 74.7627 191.61 74.896 192.196 74.896ZM201.502 76.096C200.617 76.096 199.875 75.9147 199.278 75.552C198.681 75.1787 198.233 74.6667 197.934 74.016C197.646 73.3653 197.502 72.624 197.502 71.792C197.502 70.9493 197.646 70.208 197.934 69.568C198.233 68.9173 198.681 68.4053 199.278 68.032C199.875 67.6587 200.627 67.472 201.534 67.472C202.419 67.472 203.155 67.6587 203.742 68.032C204.339 68.4053 204.782 68.9173 205.07 69.568C205.369 70.208 205.518 70.9493 205.518 71.792C205.518 72.624 205.369 73.3653 205.07 74.016C204.771 74.6667 204.323 75.1787 203.726 75.552C203.139 75.9147 202.398 76.096 201.502 76.096ZM201.502 74.896C202.121 74.896 202.622 74.7573 203.006 74.48C203.401 74.2027 203.689 73.8293 203.87 73.36C204.062 72.8907 204.158 72.368 204.158 71.792C204.158 71.216 204.062 70.6933 203.87 70.224C203.689 69.7547 203.401 69.3813 203.006 69.104C202.622 68.8267 202.121 68.688 201.502 68.688C200.894 68.688 200.393 68.8267 199.998 69.104C199.614 69.3813 199.326 69.7547 199.134 70.224C198.953 70.6933 198.862 71.216 198.862 71.792C198.862 72.368 198.953 72.8907 199.134 73.36C199.326 73.8293 199.614 74.2027 199.998 74.48C200.393 74.7573 200.894 74.896 201.502 74.896ZM207.338 76V67.568H210.602C210.975 67.568 211.343 67.5947 211.706 67.648C212.079 67.6907 212.415 67.7867 212.714 67.936C213.023 68.0747 213.268 68.2827 213.45 68.56C213.642 68.8373 213.738 69.2053 213.738 69.664C213.738 69.9413 213.695 70.1973 213.61 70.432C213.524 70.656 213.396 70.8533 213.226 71.024C213.066 71.1947 212.858 71.344 212.602 71.472C213.178 71.6 213.594 71.8507 213.85 72.224C214.106 72.5973 214.234 73.024 214.234 73.504C214.234 73.9307 214.154 74.304 213.994 74.624C213.844 74.9333 213.631 75.1893 213.354 75.392C213.087 75.5947 212.772 75.7493 212.41 75.856C212.058 75.952 211.679 76 211.274 76H207.338ZM208.73 74.816H210.954C211.284 74.816 211.594 74.784 211.882 74.72C212.17 74.656 212.404 74.5387 212.586 74.368C212.767 74.1867 212.858 73.9307 212.858 73.6C212.858 73.2587 212.778 73.0027 212.618 72.832C212.468 72.6507 212.271 72.528 212.026 72.464C211.791 72.3893 211.535 72.3467 211.258 72.336C210.98 72.3253 210.719 72.32 210.474 72.32H208.73V74.816ZM208.73 71.168H209.898C210.111 71.168 210.356 71.1573 210.634 71.136C210.922 71.1147 211.199 71.0667 211.466 70.992C211.743 70.9067 211.967 70.7787 212.138 70.608C212.319 70.4373 212.41 70.2027 212.41 69.904C212.41 69.5093 212.298 69.2373 212.074 69.088C211.86 68.928 211.604 68.8373 211.306 68.816C211.007 68.784 210.73 68.768 210.474 68.768H208.73V71.168ZM218.792 76.096C218.408 76.096 218.034 76.048 217.672 75.952C217.32 75.8453 217 75.6907 216.712 75.488C216.434 75.2747 216.21 75.0133 216.04 74.704C215.88 74.384 215.8 74.016 215.8 73.6C215.8 73.12 215.885 72.7147 216.056 72.384C216.237 72.0533 216.477 71.792 216.776 71.6C217.074 71.408 217.421 71.2693 217.816 71.184C218.21 71.0987 218.621 71.056 219.048 71.056H221.528C221.528 70.576 221.458 70.16 221.32 69.808C221.192 69.456 220.978 69.184 220.68 68.992C220.381 68.7893 219.986 68.688 219.496 68.688C219.197 68.688 218.92 68.72 218.664 68.784C218.408 68.848 218.189 68.9493 218.008 69.088C217.826 69.2267 217.693 69.4133 217.608 69.648H216.152C216.226 69.264 216.37 68.9387 216.584 68.672C216.808 68.3947 217.074 68.1707 217.384 68C217.704 67.8187 218.045 67.6853 218.408 67.6C218.77 67.5147 219.133 67.472 219.496 67.472C220.306 67.472 220.957 67.6373 221.448 67.968C221.938 68.288 222.296 68.7467 222.52 69.344C222.744 69.9307 222.856 70.6293 222.856 71.44V76H221.72L221.64 74.928C221.405 75.248 221.122 75.4933 220.792 75.664C220.461 75.8347 220.12 75.9467 219.768 76C219.426 76.064 219.101 76.096 218.792 76.096ZM218.92 74.896C219.453 74.896 219.912 74.8107 220.296 74.64C220.69 74.4587 220.994 74.1973 221.208 73.856C221.421 73.5147 221.528 73.0987 221.528 72.608V72.192H220.04C219.688 72.192 219.341 72.1973 219 72.208C218.658 72.2187 218.349 72.2613 218.072 72.336C217.794 72.4107 217.57 72.5387 217.4 72.72C217.24 72.9013 217.16 73.1627 217.16 73.504C217.16 73.824 217.24 74.0853 217.4 74.288C217.57 74.4907 217.789 74.6453 218.056 74.752C218.333 74.848 218.621 74.896 218.92 74.896ZM224.963 76V67.568H226.323V71.264H230.547V67.568H231.907V76H230.547V72.464H226.323V76H224.963ZM238.369 79.04V67.568H239.665L239.729 68.864C240.017 68.4053 240.406 68.0587 240.897 67.824C241.398 67.5893 241.937 67.472 242.513 67.472C243.366 67.472 244.065 67.664 244.609 68.048C245.153 68.4213 245.553 68.9333 245.809 69.584C246.076 70.2347 246.209 70.9707 246.209 71.792C246.209 72.6133 246.076 73.3493 245.809 74C245.542 74.6507 245.132 75.1627 244.577 75.536C244.022 75.9093 243.313 76.096 242.449 76.096C242.022 76.096 241.638 76.0533 241.297 75.968C240.956 75.872 240.657 75.7387 240.401 75.568C240.145 75.3973 239.921 75.2053 239.729 74.992V79.04H238.369ZM242.337 74.896C242.956 74.896 243.446 74.7573 243.809 74.48C244.172 74.192 244.433 73.8133 244.593 73.344C244.764 72.8747 244.849 72.3573 244.849 71.792C244.849 71.216 244.764 70.6933 244.593 70.224C244.433 69.7547 244.166 69.3813 243.793 69.104C243.42 68.8267 242.924 68.688 242.305 68.688C241.75 68.688 241.276 68.832 240.881 69.12C240.497 69.3973 240.204 69.776 240.001 70.256C239.798 70.7253 239.697 71.2427 239.697 71.808C239.697 72.3947 239.793 72.9227 239.985 73.392C240.177 73.8613 240.47 74.2293 240.865 74.496C241.26 74.7627 241.75 74.896 242.337 74.896ZM251.611 76.096C250.715 76.096 249.973 75.9147 249.387 75.552C248.8 75.1787 248.363 74.6667 248.075 74.016C247.787 73.3653 247.643 72.624 247.643 71.792C247.643 70.9493 247.792 70.208 248.091 69.568C248.4 68.9173 248.848 68.4053 249.435 68.032C250.021 67.6587 250.741 67.472 251.595 67.472C252.224 67.472 252.773 67.5947 253.243 67.84C253.723 68.0747 254.117 68.3947 254.427 68.8C254.747 69.2053 254.976 69.6587 255.115 70.16C255.264 70.6613 255.328 71.1787 255.307 71.712C255.296 71.808 255.291 71.904 255.291 72C255.291 72.096 255.285 72.192 255.275 72.288H249.019C249.061 72.7787 249.184 73.2213 249.387 73.616C249.589 74.0107 249.877 74.3253 250.251 74.56C250.624 74.784 251.088 74.896 251.643 74.896C251.92 74.896 252.197 74.864 252.475 74.8C252.763 74.7253 253.019 74.6027 253.243 74.432C253.477 74.2613 253.643 74.032 253.739 73.744H255.131C255.003 74.288 254.763 74.736 254.411 75.088C254.059 75.4293 253.637 75.6853 253.147 75.856C252.656 76.016 252.144 76.096 251.611 76.096ZM249.051 71.104H253.931C253.92 70.624 253.813 70.2027 253.611 69.84C253.408 69.4773 253.131 69.1947 252.779 68.992C252.437 68.7893 252.027 68.688 251.547 68.688C251.024 68.688 250.581 68.8 250.219 69.024C249.867 69.248 249.595 69.5413 249.403 69.904C249.211 70.2667 249.093 70.6667 249.051 71.104ZM256.13 76L258.866 71.584L256.37 67.568H257.826L260.05 71.216H261.314V67.568H262.674V71.216H263.938L266.162 67.568H267.618L265.122 71.584L267.858 76H266.274L264.082 72.368H262.674V76H261.314V72.368H259.906L257.714 76H256.13ZM269.15 76V67.568H270.51V74.032C270.585 73.8827 270.686 73.7227 270.814 73.552C270.942 73.3707 271.043 73.232 271.118 73.136L275.198 67.568H276.542V76H275.182V69.536C275.097 69.696 275.001 69.8453 274.894 69.984C274.798 70.1227 274.707 70.2507 274.622 70.368L270.478 76H269.15ZM278.681 76V67.568H280.505L283.241 71.792L285.929 67.568H287.721V76H286.377V69.072L283.401 73.84H283.017L280.025 69.072V76H278.681ZM293.269 76L297.477 64.688H299.477L303.669 76H302.165L301.269 73.568H295.669L294.773 76H293.269ZM296.133 72.304H300.805L298.469 65.904L296.133 72.304ZM305.22 76V64.688H309.46C310.089 64.688 310.649 64.752 311.14 64.88C311.641 65.008 312.068 65.2107 312.42 65.488C312.772 65.7653 313.039 66.1333 313.22 66.592C313.412 67.04 313.508 67.584 313.508 68.224C313.508 68.8533 313.391 69.392 313.156 69.84C312.921 70.2773 312.612 70.6347 312.228 70.912C311.844 71.1893 311.428 71.392 310.98 71.52L313.348 76H311.828L309.572 71.76H306.612V76H305.22ZM306.612 70.496H309.012C309.428 70.496 309.817 70.464 310.18 70.4C310.553 70.336 310.879 70.224 311.156 70.064C311.444 69.8933 311.668 69.6587 311.828 69.36C311.988 69.0507 312.073 68.656 312.084 68.176C312.095 67.632 311.993 67.2 311.78 66.88C311.567 66.5493 311.252 66.3147 310.836 66.176C310.42 66.0267 309.913 65.952 309.316 65.952H306.612V70.496ZM316.391 76.128C316.114 76.128 315.885 76.0373 315.703 75.856C315.522 75.6747 315.431 75.4453 315.431 75.168C315.431 74.8907 315.522 74.6613 315.703 74.48C315.885 74.2987 316.114 74.208 316.391 74.208C316.669 74.208 316.898 74.2987 317.079 74.48C317.261 74.6613 317.351 74.8907 317.351 75.168C317.351 75.4453 317.261 75.6747 317.079 75.856C316.898 76.0373 316.669 76.128 316.391 76.128ZM106.392 96V84.688H115.288V96H113.896V85.952H107.784V96H106.392ZM117.76 99.04V87.568H119.056L119.12 88.864C119.408 88.4053 119.797 88.0587 120.288 87.824C120.789 87.5893 121.328 87.472 121.904 87.472C122.757 87.472 123.456 87.664 124 88.048C124.544 88.4213 124.944 88.9333 125.2 89.584C125.466 90.2347 125.6 90.9707 125.6 91.792C125.6 92.6133 125.466 93.3493 125.2 94C124.933 94.6507 124.522 95.1627 123.968 95.536C123.413 95.9093 122.704 96.096 121.84 96.096C121.413 96.096 121.029 96.0533 120.688 95.968C120.346 95.872 120.048 95.7387 119.792 95.568C119.536 95.3973 119.312 95.2053 119.12 94.992V99.04H117.76ZM121.728 94.896C122.346 94.896 122.837 94.7573 123.2 94.48C123.562 94.192 123.824 93.8133 123.984 93.344C124.154 92.8747 124.24 92.3573 124.24 91.792C124.24 91.216 124.154 90.6933 123.984 90.224C123.824 89.7547 123.557 89.3813 123.184 89.104C122.81 88.8267 122.314 88.688 121.696 88.688C121.141 88.688 120.666 88.832 120.272 89.12C119.888 89.3973 119.594 89.776 119.392 90.256C119.189 90.7253 119.088 91.2427 119.088 91.808C119.088 92.3947 119.184 92.9227 119.376 93.392C119.568 93.8613 119.861 94.2293 120.256 94.496C120.65 94.7627 121.141 94.896 121.728 94.896ZM127.353 96V87.568H128.713V94.032C128.788 93.8827 128.889 93.7227 129.017 93.552C129.145 93.3707 129.247 93.232 129.321 93.136L133.401 87.568H134.745V96H133.385V89.536C133.3 89.696 133.204 89.8453 133.097 89.984C133.001 90.1227 132.911 90.2507 132.825 90.368L128.681 96H127.353ZM141.197 96V87.568H142.557V91.264H146.781V87.568H148.141V96H146.781V92.464H142.557V96H141.197ZM152.995 96.096C152.611 96.096 152.237 96.048 151.875 95.952C151.523 95.8453 151.203 95.6907 150.915 95.488C150.637 95.2747 150.413 95.0133 150.243 94.704C150.083 94.384 150.003 94.016 150.003 93.6C150.003 93.12 150.088 92.7147 150.259 92.384C150.44 92.0533 150.68 91.792 150.979 91.6C151.277 91.408 151.624 91.2693 152.019 91.184C152.413 91.0987 152.824 91.056 153.251 91.056H155.731C155.731 90.576 155.661 90.16 155.523 89.808C155.395 89.456 155.181 89.184 154.883 88.992C154.584 88.7893 154.189 88.688 153.699 88.688C153.4 88.688 153.123 88.72 152.867 88.784C152.611 88.848 152.392 88.9493 152.211 89.088C152.029 89.2267 151.896 89.4133 151.811 89.648H150.355C150.429 89.264 150.573 88.9387 150.787 88.672C151.011 88.3947 151.277 88.1707 151.587 88C151.907 87.8187 152.248 87.6853 152.611 87.6C152.973 87.5147 153.336 87.472 153.699 87.472C154.509 87.472 155.16 87.6373 155.651 87.968C156.141 88.288 156.499 88.7467 156.723 89.344C156.947 89.9307 157.059 90.6293 157.059 91.44V96H155.923L155.843 94.928C155.608 95.248 155.325 95.4933 154.995 95.664C154.664 95.8347 154.323 95.9467 153.971 96C153.629 96.064 153.304 96.096 152.995 96.096ZM153.123 94.896C153.656 94.896 154.115 94.8107 154.499 94.64C154.893 94.4587 155.197 94.1973 155.411 93.856C155.624 93.5147 155.731 93.0987 155.731 92.608V92.192H154.243C153.891 92.192 153.544 92.1973 153.203 92.208C152.861 92.2187 152.552 92.2613 152.275 92.336C151.997 92.4107 151.773 92.5387 151.603 92.72C151.443 92.9013 151.363 93.1627 151.363 93.504C151.363 93.824 151.443 94.0853 151.603 94.288C151.773 94.4907 151.992 94.6453 152.259 94.752C152.536 94.848 152.824 94.896 153.123 94.896ZM158.318 96L161.054 91.584L158.558 87.568H160.014L162.238 91.216H163.502V87.568H164.862V91.216H166.126L168.35 87.568H169.806L167.31 91.584L170.046 96H168.462L166.27 92.368H164.862V96H163.502V92.368H162.094L159.902 96H158.318ZM173.885 96.096C173.501 96.096 173.128 96.048 172.765 95.952C172.413 95.8453 172.093 95.6907 171.805 95.488C171.528 95.2747 171.304 95.0133 171.133 94.704C170.973 94.384 170.893 94.016 170.893 93.6C170.893 93.12 170.979 92.7147 171.149 92.384C171.331 92.0533 171.571 91.792 171.869 91.6C172.168 91.408 172.515 91.2693 172.909 91.184C173.304 91.0987 173.715 91.056 174.141 91.056H176.621C176.621 90.576 176.552 90.16 176.413 89.808C176.285 89.456 176.072 89.184 175.773 88.992C175.475 88.7893 175.08 88.688 174.589 88.688C174.291 88.688 174.013 88.72 173.757 88.784C173.501 88.848 173.283 88.9493 173.101 89.088C172.92 89.2267 172.787 89.4133 172.701 89.648H171.245C171.32 89.264 171.464 88.9387 171.677 88.672C171.901 88.3947 172.168 88.1707 172.477 88C172.797 87.8187 173.139 87.6853 173.501 87.6C173.864 87.5147 174.227 87.472 174.589 87.472C175.4 87.472 176.051 87.6373 176.541 87.968C177.032 88.288 177.389 88.7467 177.613 89.344C177.837 89.9307 177.949 90.6293 177.949 91.44V96H176.813L176.733 94.928C176.499 95.248 176.216 95.4933 175.885 95.664C175.555 95.8347 175.213 95.9467 174.861 96C174.52 96.064 174.195 96.096 173.885 96.096ZM174.013 94.896C174.547 94.896 175.005 94.8107 175.389 94.64C175.784 94.4587 176.088 94.1973 176.301 93.856C176.515 93.5147 176.621 93.0987 176.621 92.608V92.192H175.133C174.781 92.192 174.435 92.1973 174.093 92.208C173.752 92.2187 173.443 92.2613 173.165 92.336C172.888 92.4107 172.664 92.5387 172.493 92.72C172.333 92.9013 172.253 93.1627 172.253 93.504C172.253 93.824 172.333 94.0853 172.493 94.288C172.664 94.4907 172.883 94.6453 173.149 94.752C173.427 94.848 173.715 94.896 174.013 94.896ZM182.024 96V88.768H179.128V87.568H186.28V88.768H183.384V96H182.024ZM187.494 96V87.568H188.854V94.032C188.929 93.8827 189.03 93.7227 189.158 93.552C189.286 93.3707 189.387 93.232 189.462 93.136L193.542 87.568H194.886V96H193.526V89.536C193.441 89.696 193.345 89.8453 193.238 89.984C193.142 90.1227 193.051 90.2507 192.966 90.368L188.822 96H187.494ZM197.025 96V87.568H198.385V94.032C198.46 93.8827 198.561 93.7227 198.689 93.552C198.817 93.3707 198.918 93.232 198.993 93.136L203.073 87.568H204.417V96H203.057V89.536C202.972 89.696 202.876 89.8453 202.769 89.984C202.673 90.1227 202.582 90.2507 202.497 90.368L198.353 96H197.025ZM210.869 96V87.568H212.229V91.264H216.453V87.568H217.813V96H216.453V92.464H212.229V96H210.869ZM222.667 96.096C222.283 96.096 221.909 96.048 221.547 95.952C221.195 95.8453 220.875 95.6907 220.587 95.488C220.309 95.2747 220.085 95.0133 219.915 94.704C219.755 94.384 219.675 94.016 219.675 93.6C219.675 93.12 219.76 92.7147 219.931 92.384C220.112 92.0533 220.352 91.792 220.651 91.6C220.949 91.408 221.296 91.2693 221.691 91.184C222.085 91.0987 222.496 91.056 222.923 91.056H225.403C225.403 90.576 225.333 90.16 225.195 89.808C225.067 89.456 224.853 89.184 224.555 88.992C224.256 88.7893 223.861 88.688 223.371 88.688C223.072 88.688 222.795 88.72 222.539 88.784C222.283 88.848 222.064 88.9493 221.883 89.088C221.701 89.2267 221.568 89.4133 221.483 89.648H220.027C220.101 89.264 220.245 88.9387 220.459 88.672C220.683 88.3947 220.949 88.1707 221.259 88C221.579 87.8187 221.92 87.6853 222.283 87.6C222.645 87.5147 223.008 87.472 223.371 87.472C224.181 87.472 224.832 87.6373 225.323 87.968C225.813 88.288 226.171 88.7467 226.395 89.344C226.619 89.9307 226.731 90.6293 226.731 91.44V96H225.595L225.515 94.928C225.28 95.248 224.997 95.4933 224.667 95.664C224.336 95.8347 223.995 95.9467 223.643 96C223.301 96.064 222.976 96.096 222.667 96.096ZM222.795 94.896C223.328 94.896 223.787 94.8107 224.171 94.64C224.565 94.4587 224.869 94.1973 225.083 93.856C225.296 93.5147 225.403 93.0987 225.403 92.608V92.192H223.915C223.563 92.192 223.216 92.1973 222.875 92.208C222.533 92.2187 222.224 92.2613 221.947 92.336C221.669 92.4107 221.445 92.5387 221.275 92.72C221.115 92.9013 221.035 93.1627 221.035 93.504C221.035 93.824 221.115 94.0853 221.275 94.288C221.445 94.4907 221.664 94.6453 221.931 94.752C222.208 94.848 222.496 94.896 222.795 94.896ZM233.15 96V87.568H234.51V91.264H238.734V87.568H240.094V96H238.734V92.464H234.51V96H233.15ZM245.892 96.096C244.996 96.096 244.255 95.9147 243.668 95.552C243.081 95.1787 242.644 94.6667 242.356 94.016C242.068 93.3653 241.924 92.624 241.924 91.792C241.924 90.9493 242.073 90.208 242.372 89.568C242.681 88.9173 243.129 88.4053 243.716 88.032C244.303 87.6587 245.023 87.472 245.876 87.472C246.505 87.472 247.055 87.5947 247.524 87.84C248.004 88.0747 248.399 88.3947 248.708 88.8C249.028 89.2053 249.257 89.6587 249.396 90.16C249.545 90.6613 249.609 91.1787 249.588 91.712C249.577 91.808 249.572 91.904 249.572 92C249.572 92.096 249.567 92.192 249.556 92.288H243.3C243.343 92.7787 243.465 93.2213 243.668 93.616C243.871 94.0107 244.159 94.3253 244.532 94.56C244.905 94.784 245.369 94.896 245.924 94.896C246.201 94.896 246.479 94.864 246.756 94.8C247.044 94.7253 247.3 94.6027 247.524 94.432C247.759 94.2613 247.924 94.032 248.02 93.744H249.412C249.284 94.288 249.044 94.736 248.692 95.088C248.34 95.4293 247.919 95.6853 247.428 95.856C246.937 96.016 246.425 96.096 245.892 96.096ZM243.332 91.104H248.212C248.201 90.624 248.095 90.2027 247.892 89.84C247.689 89.4773 247.412 89.1947 247.06 88.992C246.719 88.7893 246.308 88.688 245.828 88.688C245.305 88.688 244.863 88.8 244.5 89.024C244.148 89.248 243.876 89.5413 243.684 89.904C243.492 90.2667 243.375 90.6667 243.332 91.104ZM255.064 96.096C254.168 96.096 253.426 95.9147 252.84 95.552C252.253 95.1787 251.816 94.6667 251.528 94.016C251.24 93.3653 251.096 92.624 251.096 91.792C251.096 90.9493 251.245 90.208 251.544 89.568C251.853 88.9173 252.301 88.4053 252.888 88.032C253.474 87.6587 254.194 87.472 255.048 87.472C255.677 87.472 256.226 87.5947 256.696 87.84C257.176 88.0747 257.57 88.3947 257.88 88.8C258.2 89.2053 258.429 89.6587 258.568 90.16C258.717 90.6613 258.781 91.1787 258.76 91.712C258.749 91.808 258.744 91.904 258.744 92C258.744 92.096 258.738 92.192 258.728 92.288H252.472C252.514 92.7787 252.637 93.2213 252.84 93.616C253.042 94.0107 253.33 94.3253 253.704 94.56C254.077 94.784 254.541 94.896 255.096 94.896C255.373 94.896 255.65 94.864 255.928 94.8C256.216 94.7253 256.472 94.6027 256.696 94.432C256.93 94.2613 257.096 94.032 257.192 93.744H258.584C258.456 94.288 258.216 94.736 257.864 95.088C257.512 95.4293 257.09 95.6853 256.6 95.856C256.109 96.016 255.597 96.096 255.064 96.096ZM252.504 91.104H257.384C257.373 90.624 257.266 90.2027 257.064 89.84C256.861 89.4773 256.584 89.1947 256.232 88.992C255.89 88.7893 255.48 88.688 255 88.688C254.477 88.688 254.034 88.8 253.672 89.024C253.32 89.248 253.048 89.5413 252.856 89.904C252.664 90.2667 252.546 90.6667 252.504 91.104ZM256.728 86.272C256.472 86.272 256.258 86.192 256.088 86.032C255.917 85.8613 255.832 85.6427 255.832 85.376C255.832 85.1093 255.917 84.896 256.088 84.736C256.258 84.5653 256.472 84.48 256.728 84.48C256.994 84.48 257.213 84.5653 257.384 84.736C257.565 84.896 257.656 85.1093 257.656 85.376C257.656 85.6427 257.565 85.8613 257.384 86.032C257.213 86.192 256.994 86.272 256.728 86.272ZM253.128 86.272C252.872 86.272 252.653 86.192 252.472 86.032C252.301 85.8613 252.216 85.6427 252.216 85.376C252.216 85.1093 252.301 84.896 252.472 84.736C252.653 84.5653 252.872 84.48 253.128 84.48C253.394 84.48 253.613 84.5653 253.784 84.736C253.965 84.896 254.056 85.1093 254.056 85.376C254.056 85.6427 253.965 85.8613 253.784 86.032C253.613 86.192 253.394 86.272 253.128 86.272ZM264.9 96V87.568H268.164C268.537 87.568 268.905 87.5947 269.268 87.648C269.641 87.6907 269.977 87.7867 270.276 87.936C270.585 88.0747 270.831 88.2827 271.012 88.56C271.204 88.8373 271.3 89.2053 271.3 89.664C271.3 89.9413 271.257 90.1973 271.172 90.432C271.087 90.656 270.959 90.8533 270.788 91.024C270.628 91.1947 270.42 91.344 270.164 91.472C270.74 91.6 271.156 91.8507 271.412 92.224C271.668 92.5973 271.796 93.024 271.796 93.504C271.796 93.9307 271.716 94.304 271.556 94.624C271.407 94.9333 271.193 95.1893 270.916 95.392C270.649 95.5947 270.335 95.7493 269.972 95.856C269.62 95.952 269.241 96 268.836 96H264.9ZM266.292 94.816H268.516C268.847 94.816 269.156 94.784 269.444 94.72C269.732 94.656 269.967 94.5387 270.148 94.368C270.329 94.1867 270.42 93.9307 270.42 93.6C270.42 93.2587 270.34 93.0027 270.18 92.832C270.031 92.6507 269.833 92.528 269.588 92.464C269.353 92.3893 269.097 92.3467 268.82 92.336C268.543 92.3253 268.281 92.32 268.036 92.32H266.292V94.816ZM266.292 91.168H267.46C267.673 91.168 267.919 91.1573 268.196 91.136C268.484 91.1147 268.761 91.0667 269.028 90.992C269.305 90.9067 269.529 90.7787 269.7 90.608C269.881 90.4373 269.972 90.2027 269.972 89.904C269.972 89.5093 269.86 89.2373 269.636 89.088C269.423 88.928 269.167 88.8373 268.868 88.816C268.569 88.784 268.292 88.768 268.036 88.768H266.292V91.168ZM273.65 96V87.568H275.01V91.2H276.482L278.978 87.568H280.53L277.714 91.584L280.77 96H279.17L276.642 92.384H275.01V96H273.65ZM281.179 96.016V94.832C281.392 94.832 281.584 94.7893 281.755 94.704C281.926 94.608 282.075 94.4693 282.203 94.288C282.352 94.0747 282.47 93.7653 282.555 93.36C282.64 92.9547 282.699 92.5227 282.731 92.064C282.774 91.552 282.806 91.0507 282.827 90.56C282.848 90.0587 282.864 89.5627 282.875 89.072C282.896 88.5813 282.907 88.08 282.907 87.568H288.763V96H287.403V88.768H284.235C284.224 89.1307 284.208 89.4987 284.187 89.872C284.176 90.2347 284.16 90.6027 284.139 90.976C284.128 91.3387 284.112 91.7067 284.091 92.08C284.08 92.5067 284.038 92.9867 283.963 93.52C283.888 94.0533 283.728 94.5387 283.483 94.976C283.248 95.392 282.96 95.6693 282.619 95.808C282.288 95.9467 281.808 96.016 281.179 96.016ZM297.732 96.096C296.495 96.096 295.561 95.7547 294.932 95.072C294.303 94.3787 293.945 93.4827 293.86 92.384H292.26V96H290.9V87.568H292.26V91.2H293.86C293.924 90.464 294.1 89.8187 294.388 89.264C294.687 88.6987 295.113 88.2613 295.668 87.952C296.223 87.632 296.911 87.472 297.732 87.472C298.628 87.472 299.369 87.6587 299.956 88.032C300.543 88.4053 300.98 88.9173 301.268 89.568C301.556 90.208 301.7 90.9493 301.7 91.792C301.7 92.624 301.556 93.3653 301.268 94.016C300.98 94.6667 300.543 95.1787 299.956 95.552C299.369 95.9147 298.628 96.096 297.732 96.096ZM297.732 94.896C298.351 94.896 298.847 94.7573 299.22 94.48C299.604 94.2027 299.887 93.8293 300.068 93.36C300.249 92.8907 300.34 92.368 300.34 91.792C300.34 91.216 300.249 90.6933 300.068 90.224C299.887 89.7547 299.604 89.3813 299.22 89.104C298.847 88.8267 298.351 88.688 297.732 88.688C297.124 88.688 296.628 88.8267 296.244 89.104C295.871 89.3813 295.599 89.7547 295.428 90.224C295.257 90.6933 295.172 91.216 295.172 91.792C295.172 92.368 295.257 92.8907 295.428 93.36C295.599 93.8293 295.871 94.2027 296.244 94.48C296.628 94.7573 297.124 94.896 297.732 94.896ZM308.423 96V92.752C308.017 92.8267 307.623 92.88 307.239 92.912C306.865 92.9333 306.529 92.944 306.231 92.944C305.441 92.944 304.817 92.8213 304.359 92.576C303.9 92.3307 303.575 91.9573 303.383 91.456C303.191 90.944 303.095 90.3093 303.095 89.552V87.568H304.455V89.456C304.455 89.9467 304.503 90.3627 304.599 90.704C304.695 91.0453 304.881 91.3067 305.159 91.488C305.436 91.6587 305.852 91.744 306.407 91.744C306.727 91.744 307.063 91.728 307.415 91.696C307.777 91.664 308.113 91.616 308.423 91.552V87.568H309.783V96H308.423ZM314.635 96.096C314.251 96.096 313.878 96.048 313.515 95.952C313.163 95.8453 312.843 95.6907 312.555 95.488C312.278 95.2747 312.054 95.0133 311.883 94.704C311.723 94.384 311.643 94.016 311.643 93.6C311.643 93.12 311.729 92.7147 311.899 92.384C312.081 92.0533 312.321 91.792 312.619 91.6C312.918 91.408 313.265 91.2693 313.659 91.184C314.054 91.0987 314.465 91.056 314.891 91.056H317.371C317.371 90.576 317.302 90.16 317.163 89.808C317.035 89.456 316.822 89.184 316.523 88.992C316.225 88.7893 315.83 88.688 315.339 88.688C315.041 88.688 314.763 88.72 314.507 88.784C314.251 88.848 314.033 88.9493 313.851 89.088C313.67 89.2267 313.537 89.4133 313.451 89.648H311.995C312.07 89.264 312.214 88.9387 312.427 88.672C312.651 88.3947 312.918 88.1707 313.227 88C313.547 87.8187 313.889 87.6853 314.251 87.6C314.614 87.5147 314.977 87.472 315.339 87.472C316.15 87.472 316.801 87.6373 317.291 87.968C317.782 88.288 318.139 88.7467 318.363 89.344C318.587 89.9307 318.699 90.6293 318.699 91.44V96H317.563L317.483 94.928C317.249 95.248 316.966 95.4933 316.635 95.664C316.305 95.8347 315.963 95.9467 315.611 96C315.27 96.064 314.945 96.096 314.635 96.096ZM314.763 94.896C315.297 94.896 315.755 94.8107 316.139 94.64C316.534 94.4587 316.838 94.1973 317.051 93.856C317.265 93.5147 317.371 93.0987 317.371 92.608V92.192H315.883C315.531 92.192 315.185 92.1973 314.843 92.208C314.502 92.2187 314.193 92.2613 313.915 92.336C313.638 92.4107 313.414 92.5387 313.243 92.72C313.083 92.9013 313.003 93.1627 313.003 93.504C313.003 93.824 313.083 94.0853 313.243 94.288C313.414 94.4907 313.633 94.6453 313.899 94.752C314.177 94.848 314.465 94.896 314.763 94.896ZM324.454 96.096C323.558 96.096 322.817 95.9147 322.23 95.552C321.644 95.1787 321.206 94.6667 320.918 94.016C320.63 93.3653 320.486 92.624 320.486 91.792C320.486 90.9493 320.636 90.208 320.934 89.568C321.244 88.9173 321.692 88.4053 322.278 88.032C322.865 87.6587 323.585 87.472 324.438 87.472C325.068 87.472 325.617 87.5947 326.086 87.84C326.566 88.0747 326.961 88.3947 327.27 88.8C327.59 89.2053 327.82 89.6587 327.958 90.16C328.108 90.6613 328.172 91.1787 328.15 91.712C328.14 91.808 328.134 91.904 328.134 92C328.134 92.096 328.129 92.192 328.118 92.288H321.862C321.905 92.7787 322.028 93.2213 322.23 93.616C322.433 94.0107 322.721 94.3253 323.094 94.56C323.468 94.784 323.932 94.896 324.486 94.896C324.764 94.896 325.041 94.864 325.318 94.8C325.606 94.7253 325.862 94.6027 326.086 94.432C326.321 94.2613 326.486 94.032 326.582 93.744H327.974C327.846 94.288 327.606 94.736 327.254 95.088C326.902 95.4293 326.481 95.6853 325.99 95.856C325.5 96.016 324.988 96.096 324.454 96.096ZM321.894 91.104H326.774C326.764 90.624 326.657 90.2027 326.454 89.84C326.252 89.4773 325.974 89.1947 325.622 88.992C325.281 88.7893 324.87 88.688 324.39 88.688C323.868 88.688 323.425 88.8 323.062 89.024C322.71 89.248 322.438 89.5413 322.246 89.904C322.054 90.2667 321.937 90.6667 321.894 91.104ZM331.946 96V88.768H329.05V87.568H336.202V88.768H333.306V96H331.946ZM341.016 96.096C340.13 96.096 339.394 95.9147 338.808 95.552C338.232 95.1787 337.8 94.6667 337.512 94.016C337.234 93.3653 337.096 92.6293 337.096 91.808C337.096 91.008 337.24 90.2827 337.528 89.632C337.826 88.9707 338.274 88.448 338.872 88.064C339.48 87.6693 340.248 87.472 341.176 87.472C341.752 87.472 342.264 87.568 342.712 87.76C343.17 87.952 343.549 88.2347 343.848 88.608C344.146 88.9707 344.354 89.4293 344.472 89.984H343.08C342.92 89.5147 342.664 89.184 342.312 88.992C341.97 88.7893 341.565 88.688 341.096 88.688C340.456 88.688 339.944 88.8373 339.56 89.136C339.176 89.4347 338.893 89.824 338.712 90.304C338.541 90.7733 338.456 91.2747 338.456 91.808C338.456 92.3627 338.546 92.8747 338.728 93.344C338.909 93.8133 339.192 94.192 339.576 94.48C339.96 94.7573 340.456 94.896 341.064 94.896C341.512 94.896 341.933 94.8 342.328 94.608C342.733 94.416 343 94.0747 343.128 93.584H344.536C344.429 94.16 344.2 94.6347 343.848 95.008C343.506 95.3813 343.085 95.6587 342.584 95.84C342.093 96.0107 341.57 96.096 341.016 96.096ZM345.732 96L347.924 92.672C347.316 92.5013 346.836 92.224 346.484 91.84C346.132 91.4453 345.956 90.9227 345.956 90.272C345.956 89.76 346.03 89.3333 346.18 88.992C346.329 88.64 346.548 88.3627 346.836 88.16C347.124 87.9467 347.47 87.7973 347.876 87.712C348.281 87.616 348.745 87.568 349.268 87.568H352.66V96H351.3V92.88H349.364L347.316 96H345.732ZM350.292 91.696H351.3V88.768H349.492C349.172 88.768 348.878 88.784 348.612 88.816C348.345 88.848 348.116 88.9173 347.924 89.024C347.742 89.12 347.598 89.264 347.492 89.456C347.385 89.6373 347.332 89.888 347.332 90.208C347.332 90.56 347.417 90.8373 347.588 91.04C347.769 91.2427 347.998 91.392 348.276 91.488C348.564 91.5733 348.884 91.632 349.236 91.664C349.588 91.6853 349.94 91.696 350.292 91.696ZM109.752 116.096C108.867 116.096 108.125 115.915 107.528 115.552C106.931 115.179 106.483 114.667 106.184 114.016C105.896 113.365 105.752 112.624 105.752 111.792C105.752 110.949 105.896 110.208 106.184 109.568C106.483 108.917 106.931 108.405 107.528 108.032C108.125 107.659 108.877 107.472 109.784 107.472C110.669 107.472 111.405 107.659 111.992 108.032C112.589 108.405 113.032 108.917 113.32 109.568C113.619 110.208 113.768 110.949 113.768 111.792C113.768 112.624 113.619 113.365 113.32 114.016C113.021 114.667 112.573 115.179 111.976 115.552C111.389 115.915 110.648 116.096 109.752 116.096ZM109.752 114.896C110.371 114.896 110.872 114.757 111.256 114.48C111.651 114.203 111.939 113.829 112.12 113.36C112.312 112.891 112.408 112.368 112.408 111.792C112.408 111.216 112.312 110.693 112.12 110.224C111.939 109.755 111.651 109.381 111.256 109.104C110.872 108.827 110.371 108.688 109.752 108.688C109.144 108.688 108.643 108.827 108.248 109.104C107.864 109.381 107.576 109.755 107.384 110.224C107.203 110.693 107.112 111.216 107.112 111.792C107.112 112.368 107.203 112.891 107.384 113.36C107.576 113.829 107.864 114.203 108.248 114.48C108.643 114.757 109.144 114.896 109.752 114.896ZM119.296 116.096C118.763 116.096 118.288 116.021 117.872 115.872C117.456 115.712 117.099 115.493 116.8 115.216C116.501 114.928 116.256 114.592 116.064 114.208C115.872 113.813 115.728 113.387 115.632 112.928C115.536 112.469 115.488 111.984 115.488 111.472C115.488 110.651 115.504 109.888 115.536 109.184C115.579 108.469 115.696 107.835 115.888 107.28C116.08 106.715 116.405 106.245 116.864 105.872C117.323 105.499 117.968 105.237 118.8 105.088C119.227 105.013 119.648 104.949 120.064 104.896C120.48 104.843 120.901 104.789 121.328 104.736C121.467 104.715 121.611 104.693 121.76 104.672C121.909 104.651 122.064 104.624 122.224 104.592C122.395 104.56 122.555 104.533 122.704 104.512V105.76C122.587 105.803 122.459 105.84 122.32 105.872C122.192 105.893 122.053 105.915 121.904 105.936C121.765 105.957 121.621 105.973 121.472 105.984C121.333 105.995 121.195 106.011 121.056 106.032C120.917 106.043 120.784 106.059 120.656 106.08C120.283 106.123 119.888 106.165 119.472 106.208C119.056 106.24 118.661 106.325 118.288 106.464C117.925 106.592 117.616 106.843 117.36 107.216C117.232 107.408 117.12 107.637 117.024 107.904C116.939 108.171 116.875 108.443 116.832 108.72C116.8 108.987 116.779 109.243 116.768 109.488C116.981 109.189 117.243 108.949 117.552 108.768C117.861 108.576 118.192 108.437 118.544 108.352C118.896 108.256 119.232 108.208 119.552 108.208C120.32 108.208 120.971 108.368 121.504 108.688C122.037 108.997 122.443 109.44 122.72 110.016C122.997 110.592 123.136 111.264 123.136 112.032C123.136 112.8 122.987 113.493 122.688 114.112C122.389 114.72 121.952 115.205 121.376 115.568C120.811 115.92 120.117 116.096 119.296 116.096ZM119.328 114.896C119.861 114.896 120.309 114.768 120.672 114.512C121.035 114.256 121.307 113.915 121.488 113.488C121.68 113.061 121.776 112.592 121.776 112.08C121.776 111.579 121.68 111.131 121.488 110.736C121.307 110.331 121.035 110.011 120.672 109.776C120.32 109.541 119.883 109.424 119.36 109.424C118.848 109.424 118.405 109.547 118.032 109.792C117.669 110.037 117.387 110.368 117.184 110.784C116.992 111.189 116.896 111.632 116.896 112.112C116.896 112.603 116.987 113.061 117.168 113.488C117.349 113.915 117.616 114.256 117.968 114.512C118.331 114.768 118.784 114.896 119.328 114.896ZM124.963 116V107.568H126.355V110.784H127.875C128.376 110.784 128.829 110.827 129.235 110.912C129.64 110.997 129.987 111.136 130.275 111.328C130.563 111.52 130.781 111.781 130.931 112.112C131.08 112.432 131.155 112.837 131.155 113.328C131.155 113.797 131.075 114.203 130.915 114.544C130.755 114.885 130.525 115.163 130.227 115.376C129.939 115.589 129.592 115.749 129.187 115.856C128.792 115.952 128.36 116 127.891 116H124.963ZM126.355 114.816H126.803C127.176 114.816 127.539 114.811 127.891 114.8C128.243 114.779 128.557 114.725 128.835 114.64C129.123 114.555 129.352 114.416 129.523 114.224C129.693 114.021 129.779 113.739 129.779 113.376C129.779 113.035 129.709 112.773 129.571 112.592C129.443 112.4 129.272 112.261 129.059 112.176C128.845 112.08 128.611 112.021 128.355 112C128.109 111.979 127.864 111.968 127.619 111.968H126.355V114.816ZM132.323 116V107.568H133.683V116H132.323ZM140.782 116V112.752C140.377 112.827 139.982 112.88 139.598 112.912C139.225 112.933 138.889 112.944 138.59 112.944C137.801 112.944 137.177 112.821 136.718 112.576C136.259 112.331 135.934 111.957 135.742 111.456C135.55 110.944 135.454 110.309 135.454 109.552V107.568H136.814V109.456C136.814 109.947 136.862 110.363 136.958 110.704C137.054 111.045 137.241 111.307 137.518 111.488C137.795 111.659 138.211 111.744 138.766 111.744C139.086 111.744 139.422 111.728 139.774 111.696C140.137 111.664 140.473 111.616 140.782 111.552V107.568H142.142V116H140.782ZM144.291 116V107.568H145.651V111.264H149.875V107.568H151.235V116H149.875V112.464H145.651V116H144.291ZM153.385 116V107.568H154.777V110.784H156.297C156.798 110.784 157.251 110.827 157.657 110.912C158.062 110.997 158.409 111.136 158.697 111.328C158.985 111.52 159.203 111.781 159.353 112.112C159.502 112.432 159.577 112.837 159.577 113.328C159.577 113.797 159.497 114.203 159.337 114.544C159.177 114.885 158.947 115.163 158.649 115.376C158.361 115.589 158.014 115.749 157.609 115.856C157.214 115.952 156.782 116 156.312 116H153.385ZM154.777 114.816H155.225C155.598 114.816 155.961 114.811 156.312 114.8C156.665 114.779 156.979 114.725 157.257 114.64C157.545 114.555 157.774 114.416 157.945 114.224C158.115 114.021 158.201 113.739 158.201 113.376C158.201 113.035 158.131 112.773 157.993 112.592C157.865 112.4 157.694 112.261 157.481 112.176C157.267 112.08 157.033 112.021 156.777 112C156.531 111.979 156.286 111.968 156.041 111.968H154.777V114.816ZM160.745 116V107.568H162.105V116H160.745ZM164.244 116V107.568H165.604V114.032C165.679 113.883 165.78 113.723 165.908 113.552C166.036 113.371 166.137 113.232 166.212 113.136L170.292 107.568H171.636V116H170.276V109.536C170.191 109.696 170.095 109.845 169.988 109.984C169.892 110.123 169.801 110.251 169.716 110.368L165.572 116H164.244ZM168.052 106.384C167.209 106.384 166.548 106.203 166.068 105.84C165.599 105.477 165.353 104.949 165.332 104.256H166.58C166.601 104.629 166.74 104.901 166.996 105.072C167.263 105.243 167.62 105.328 168.068 105.328C168.516 105.328 168.868 105.243 169.124 105.072C169.391 104.901 169.535 104.629 169.556 104.256H170.804C170.793 104.715 170.676 105.104 170.452 105.424C170.228 105.744 169.913 105.984 169.508 106.144C169.103 106.304 168.617 106.384 168.052 106.384ZM178.088 119.04V107.568H179.384L179.448 108.864C179.736 108.405 180.125 108.059 180.616 107.824C181.117 107.589 181.656 107.472 182.232 107.472C183.085 107.472 183.784 107.664 184.328 108.048C184.872 108.421 185.272 108.933 185.528 109.584C185.794 110.235 185.928 110.971 185.928 111.792C185.928 112.613 185.794 113.349 185.528 114C185.261 114.651 184.85 115.163 184.296 115.536C183.741 115.909 183.032 116.096 182.168 116.096C181.741 116.096 181.357 116.053 181.016 115.968C180.674 115.872 180.376 115.739 180.12 115.568C179.864 115.397 179.64 115.205 179.448 114.992V119.04H178.088ZM182.056 114.896C182.674 114.896 183.165 114.757 183.528 114.48C183.89 114.192 184.152 113.813 184.312 113.344C184.482 112.875 184.568 112.357 184.568 111.792C184.568 111.216 184.482 110.693 184.312 110.224C184.152 109.755 183.885 109.381 183.512 109.104C183.138 108.827 182.642 108.688 182.024 108.688C181.469 108.688 180.994 108.832 180.6 109.12C180.216 109.397 179.922 109.776 179.72 110.256C179.517 110.725 179.416 111.243 179.416 111.808C179.416 112.395 179.512 112.923 179.704 113.392C179.896 113.861 180.189 114.229 180.584 114.496C180.978 114.763 181.469 114.896 182.056 114.896ZM191.329 116.096C190.433 116.096 189.692 115.915 189.105 115.552C188.519 115.179 188.081 114.667 187.793 114.016C187.505 113.365 187.361 112.624 187.361 111.792C187.361 110.949 187.511 110.208 187.809 109.568C188.119 108.917 188.567 108.405 189.153 108.032C189.74 107.659 190.46 107.472 191.313 107.472C191.943 107.472 192.492 107.595 192.961 107.84C193.441 108.075 193.836 108.395 194.145 108.8C194.465 109.205 194.695 109.659 194.833 110.16C194.983 110.661 195.047 111.179 195.025 111.712C195.015 111.808 195.009 111.904 195.009 112C195.009 112.096 195.004 112.192 194.993 112.288H188.737C188.78 112.779 188.903 113.221 189.105 113.616C189.308 114.011 189.596 114.325 189.969 114.56C190.343 114.784 190.807 114.896 191.361 114.896C191.639 114.896 191.916 114.864 192.193 114.8C192.481 114.725 192.737 114.603 192.961 114.432C193.196 114.261 193.361 114.032 193.457 113.744H194.849C194.721 114.288 194.481 114.736 194.129 115.088C193.777 115.429 193.356 115.685 192.865 115.856C192.375 116.016 191.863 116.096 191.329 116.096ZM188.769 111.104H193.649C193.639 110.624 193.532 110.203 193.329 109.84C193.127 109.477 192.849 109.195 192.497 108.992C192.156 108.789 191.745 108.688 191.265 108.688C190.743 108.688 190.3 108.8 189.937 109.024C189.585 109.248 189.313 109.541 189.121 109.904C188.929 110.267 188.812 110.667 188.769 111.104ZM195.849 116L198.585 111.584L196.089 107.568H197.545L199.769 111.216H201.033V107.568H202.393V111.216H203.657L205.881 107.568H207.337L204.841 111.584L207.577 116H205.993L203.801 112.368H202.393V116H201.033V112.368H199.625L197.433 116H195.849ZM208.869 116V107.568H210.229V114.032C210.304 113.883 210.405 113.723 210.533 113.552C210.661 113.371 210.762 113.232 210.837 113.136L214.917 107.568H216.261V116H214.901V109.536C214.816 109.696 214.72 109.845 214.613 109.984C214.517 110.123 214.426 110.251 214.341 110.368L210.197 116H208.869ZM218.4 116V107.568H220.224L222.96 111.792L225.648 107.568H227.44V116H226.096V109.072L223.12 113.84H222.736L219.744 109.072V116H218.4ZM233.9 116V107.568H240.892V116H239.532V108.768H235.26V116H233.9ZM243.041 119.04V107.568H244.337L244.401 108.864C244.689 108.405 245.078 108.059 245.569 107.824C246.07 107.589 246.609 107.472 247.185 107.472C248.038 107.472 248.737 107.664 249.281 108.048C249.825 108.421 250.225 108.933 250.481 109.584C250.747 110.235 250.881 110.971 250.881 111.792C250.881 112.613 250.747 113.349 250.481 114C250.214 114.651 249.803 115.163 249.249 115.536C248.694 115.909 247.985 116.096 247.121 116.096C246.694 116.096 246.31 116.053 245.969 115.968C245.627 115.872 245.329 115.739 245.073 115.568C244.817 115.397 244.593 115.205 244.401 114.992V119.04H243.041ZM247.009 114.896C247.627 114.896 248.118 114.757 248.481 114.48C248.843 114.192 249.105 113.813 249.265 113.344C249.435 112.875 249.521 112.357 249.521 111.792C249.521 111.216 249.435 110.693 249.265 110.224C249.105 109.755 248.838 109.381 248.465 109.104C248.091 108.827 247.595 108.688 246.977 108.688C246.422 108.688 245.947 108.832 245.553 109.12C245.169 109.397 244.875 109.776 244.673 110.256C244.47 110.725 244.369 111.243 244.369 111.808C244.369 112.395 244.465 112.923 244.657 113.392C244.849 113.861 245.142 114.229 245.537 114.496C245.931 114.763 246.422 114.896 247.009 114.896ZM256.315 116.096C255.429 116.096 254.688 115.915 254.091 115.552C253.493 115.179 253.045 114.667 252.747 114.016C252.459 113.365 252.315 112.624 252.315 111.792C252.315 110.949 252.459 110.208 252.747 109.568C253.045 108.917 253.493 108.405 254.091 108.032C254.688 107.659 255.44 107.472 256.347 107.472C257.232 107.472 257.968 107.659 258.555 108.032C259.152 108.405 259.595 108.917 259.883 109.568C260.181 110.208 260.331 110.949 260.331 111.792C260.331 112.624 260.181 113.365 259.883 114.016C259.584 114.667 259.136 115.179 258.539 115.552C257.952 115.915 257.211 116.096 256.315 116.096ZM256.315 114.896C256.933 114.896 257.435 114.757 257.819 114.48C258.213 114.203 258.501 113.829 258.683 113.36C258.875 112.891 258.971 112.368 258.971 111.792C258.971 111.216 258.875 110.693 258.683 110.224C258.501 109.755 258.213 109.381 257.819 109.104C257.435 108.827 256.933 108.688 256.315 108.688C255.707 108.688 255.205 108.827 254.811 109.104C254.427 109.381 254.139 109.755 253.947 110.224C253.765 110.693 253.674 111.216 253.674 111.792C253.674 112.368 253.765 112.891 253.947 113.36C254.139 113.829 254.427 114.203 254.811 114.48C255.205 114.757 255.707 114.896 256.315 114.896ZM265.75 116.096C264.865 116.096 264.129 115.915 263.542 115.552C262.966 115.179 262.534 114.667 262.246 114.016C261.969 113.365 261.83 112.629 261.83 111.808C261.83 111.008 261.974 110.283 262.262 109.632C262.561 108.971 263.009 108.448 263.606 108.064C264.214 107.669 264.982 107.472 265.91 107.472C266.486 107.472 266.998 107.568 267.446 107.76C267.905 107.952 268.283 108.235 268.582 108.608C268.881 108.971 269.089 109.429 269.206 109.984H267.814C267.654 109.515 267.398 109.184 267.046 108.992C266.705 108.789 266.299 108.688 265.83 108.688C265.19 108.688 264.678 108.837 264.294 109.136C263.91 109.435 263.627 109.824 263.446 110.304C263.275 110.773 263.19 111.275 263.19 111.808C263.19 112.363 263.281 112.875 263.462 113.344C263.643 113.813 263.926 114.192 264.31 114.48C264.694 114.757 265.19 114.896 265.798 114.896C266.246 114.896 266.667 114.8 267.062 114.608C267.467 114.416 267.734 114.075 267.862 113.584H269.27C269.163 114.16 268.934 114.635 268.582 115.008C268.241 115.381 267.819 115.659 267.318 115.84C266.827 116.011 266.305 116.096 265.75 116.096ZM270.994 116V107.568H272.818L275.554 111.792L278.242 107.568H280.034V116H278.69V109.072L275.714 113.84H275.33L272.338 109.072V116H270.994ZM285.861 116.096C284.976 116.096 284.235 115.915 283.637 115.552C283.04 115.179 282.592 114.667 282.293 114.016C282.005 113.365 281.861 112.624 281.861 111.792C281.861 110.949 282.005 110.208 282.293 109.568C282.592 108.917 283.04 108.405 283.637 108.032C284.235 107.659 284.987 107.472 285.893 107.472C286.779 107.472 287.515 107.659 288.101 108.032C288.699 108.405 289.141 108.917 289.429 109.568C289.728 110.208 289.877 110.949 289.877 111.792C289.877 112.624 289.728 113.365 289.429 114.016C289.131 114.667 288.683 115.179 288.085 115.552C287.499 115.915 286.757 116.096 285.861 116.096ZM285.861 114.896C286.48 114.896 286.981 114.757 287.365 114.48C287.76 114.203 288.048 113.829 288.229 113.36C288.421 112.891 288.517 112.368 288.517 111.792C288.517 111.216 288.421 110.693 288.229 110.224C288.048 109.755 287.76 109.381 287.365 109.104C286.981 108.827 286.48 108.688 285.861 108.688C285.253 108.688 284.752 108.827 284.357 109.104C283.973 109.381 283.685 109.755 283.493 110.224C283.312 110.693 283.221 111.216 283.221 111.792C283.221 112.368 283.312 112.891 283.493 113.36C283.685 113.829 283.973 114.203 284.357 114.48C284.752 114.757 285.253 114.896 285.861 114.896ZM293.665 116V108.768H290.769V107.568H297.921V108.768H295.025V116H293.665ZM299.135 119.04V107.568H300.431L300.495 108.864C300.783 108.405 301.172 108.059 301.663 107.824C302.164 107.589 302.703 107.472 303.279 107.472C304.132 107.472 304.831 107.664 305.375 108.048C305.919 108.421 306.319 108.933 306.575 109.584C306.841 110.235 306.975 110.971 306.975 111.792C306.975 112.613 306.841 113.349 306.575 114C306.308 114.651 305.897 115.163 305.343 115.536C304.788 115.909 304.079 116.096 303.215 116.096C302.788 116.096 302.404 116.053 302.062 115.968C301.721 115.872 301.423 115.739 301.167 115.568C300.911 115.397 300.687 115.205 300.495 114.992V119.04H299.135ZM303.103 114.896C303.721 114.896 304.212 114.757 304.575 114.48C304.937 114.192 305.199 113.813 305.359 113.344C305.529 112.875 305.615 112.357 305.615 111.792C305.615 111.216 305.529 110.693 305.359 110.224C305.199 109.755 304.932 109.381 304.559 109.104C304.185 108.827 303.689 108.688 303.071 108.688C302.516 108.688 302.041 108.832 301.647 109.12C301.263 109.397 300.969 109.776 300.767 110.256C300.564 110.725 300.463 111.243 300.463 111.808C300.463 112.395 300.559 112.923 300.751 113.392C300.943 113.861 301.236 114.229 301.631 114.496C302.025 114.763 302.516 114.896 303.103 114.896ZM311.432 116.096C311.048 116.096 310.675 116.048 310.312 115.952C309.96 115.845 309.64 115.691 309.352 115.488C309.075 115.275 308.851 115.013 308.68 114.704C308.52 114.384 308.44 114.016 308.44 113.6C308.44 113.12 308.526 112.715 308.696 112.384C308.878 112.053 309.118 111.792 309.416 111.6C309.715 111.408 310.062 111.269 310.456 111.184C310.851 111.099 311.262 111.056 311.688 111.056H314.168C314.168 110.576 314.099 110.16 313.96 109.808C313.832 109.456 313.619 109.184 313.32 108.992C313.022 108.789 312.627 108.688 312.136 108.688C311.838 108.688 311.56 108.72 311.304 108.784C311.048 108.848 310.83 108.949 310.648 109.088C310.467 109.227 310.334 109.413 310.248 109.648H308.792C308.867 109.264 309.011 108.939 309.224 108.672C309.448 108.395 309.715 108.171 310.024 108C310.344 107.819 310.686 107.685 311.048 107.6C311.411 107.515 311.774 107.472 312.136 107.472C312.947 107.472 313.598 107.637 314.088 107.968C314.579 108.288 314.936 108.747 315.16 109.344C315.384 109.931 315.496 110.629 315.496 111.44V116H314.36L314.28 114.928C314.046 115.248 313.763 115.493 313.432 115.664C313.102 115.835 312.76 115.947 312.408 116C312.067 116.064 311.742 116.096 311.432 116.096ZM311.56 114.896C312.094 114.896 312.552 114.811 312.936 114.64C313.331 114.459 313.635 114.197 313.848 113.856C314.062 113.515 314.168 113.099 314.168 112.608V112.192H312.68C312.328 112.192 311.982 112.197 311.64 112.208C311.299 112.219 310.99 112.261 310.712 112.336C310.435 112.411 310.211 112.539 310.04 112.72C309.88 112.901 309.8 113.163 309.8 113.504C309.8 113.824 309.88 114.085 310.04 114.288C310.211 114.491 310.43 114.645 310.696 114.752C310.974 114.848 311.262 114.896 311.56 114.896ZM106.072 136V127.568H113.064V136H111.704V128.768H107.432V136H106.072ZM118.893 136.096C118.007 136.096 117.266 135.915 116.669 135.552C116.071 135.179 115.623 134.667 115.325 134.016C115.037 133.365 114.893 132.624 114.893 131.792C114.893 130.949 115.037 130.208 115.325 129.568C115.623 128.917 116.071 128.405 116.669 128.032C117.266 127.659 118.018 127.472 118.925 127.472C119.81 127.472 120.546 127.659 121.133 128.032C121.73 128.405 122.173 128.917 122.461 129.568C122.759 130.208 122.909 130.949 122.909 131.792C122.909 132.624 122.759 133.365 122.461 134.016C122.162 134.667 121.714 135.179 121.117 135.552C120.53 135.915 119.789 136.096 118.893 136.096ZM118.893 134.896C119.511 134.896 120.013 134.757 120.397 134.48C120.791 134.203 121.079 133.829 121.261 133.36C121.453 132.891 121.549 132.368 121.549 131.792C121.549 131.216 121.453 130.693 121.261 130.224C121.079 129.755 120.791 129.381 120.397 129.104C120.013 128.827 119.511 128.688 118.893 128.688C118.285 128.688 117.783 128.827 117.389 129.104C117.005 129.381 116.717 129.755 116.525 130.224C116.343 130.693 116.253 131.216 116.253 131.792C116.253 132.368 116.343 132.891 116.525 133.36C116.717 133.829 117.005 134.203 117.389 134.48C117.783 134.757 118.285 134.896 118.893 134.896ZM124.728 136V127.568H126.552L129.288 131.792L131.976 127.568H133.768V136H132.424V129.072L129.448 133.84H129.064L126.072 129.072V136H124.728ZM139.564 136.096C138.668 136.096 137.926 135.915 137.34 135.552C136.753 135.179 136.316 134.667 136.028 134.016C135.74 133.365 135.596 132.624 135.596 131.792C135.596 130.949 135.745 130.208 136.044 129.568C136.353 128.917 136.801 128.405 137.388 128.032C137.974 127.659 138.694 127.472 139.548 127.472C140.177 127.472 140.726 127.595 141.196 127.84C141.676 128.075 142.07 128.395 142.38 128.8C142.7 129.205 142.929 129.659 143.068 130.16C143.217 130.661 143.281 131.179 143.26 131.712C143.249 131.808 143.244 131.904 143.244 132C143.244 132.096 143.238 132.192 143.228 132.288H136.972C137.014 132.779 137.137 133.221 137.34 133.616C137.542 134.011 137.83 134.325 138.204 134.56C138.577 134.784 139.041 134.896 139.596 134.896C139.873 134.896 140.15 134.864 140.428 134.8C140.716 134.725 140.972 134.603 141.196 134.432C141.43 134.261 141.596 134.032 141.692 133.744H143.084C142.956 134.288 142.716 134.736 142.364 135.088C142.012 135.429 141.59 135.685 141.1 135.856C140.609 136.016 140.097 136.096 139.564 136.096ZM137.004 131.104H141.884C141.873 130.624 141.766 130.203 141.564 129.84C141.361 129.477 141.084 129.195 140.732 128.992C140.39 128.789 139.98 128.688 139.5 128.688C138.977 128.688 138.534 128.8 138.172 129.024C137.82 129.248 137.548 129.541 137.356 129.904C137.164 130.267 137.046 130.667 137.004 131.104ZM155.328 138.592V136H145.088V127.568H146.448V134.816H149.616V127.568H150.976V134.816H154.176V127.568H155.536V134.816H156.64V138.592H155.328ZM161.704 136.096C160.808 136.096 160.067 135.915 159.48 135.552C158.894 135.179 158.456 134.667 158.168 134.016C157.88 133.365 157.736 132.624 157.736 131.792C157.736 130.949 157.886 130.208 158.184 129.568C158.494 128.917 158.942 128.405 159.528 128.032C160.115 127.659 160.835 127.472 161.688 127.472C162.318 127.472 162.867 127.595 163.336 127.84C163.816 128.075 164.211 128.395 164.52 128.8C164.84 129.205 165.07 129.659 165.208 130.16C165.358 130.661 165.422 131.179 165.4 131.712C165.39 131.808 165.384 131.904 165.384 132C165.384 132.096 165.379 132.192 165.368 132.288H159.112C159.155 132.779 159.278 133.221 159.48 133.616C159.683 134.011 159.971 134.325 160.344 134.56C160.718 134.784 161.182 134.896 161.736 134.896C162.014 134.896 162.291 134.864 162.568 134.8C162.856 134.725 163.112 134.603 163.336 134.432C163.571 134.261 163.736 134.032 163.832 133.744H165.224C165.096 134.288 164.856 134.736 164.504 135.088C164.152 135.429 163.731 135.685 163.24 135.856C162.75 136.016 162.238 136.096 161.704 136.096ZM159.144 131.104H164.024C164.014 130.624 163.907 130.203 163.704 129.84C163.502 129.477 163.224 129.195 162.872 128.992C162.531 128.789 162.12 128.688 161.64 128.688C161.118 128.688 160.675 128.8 160.312 129.024C159.96 129.248 159.688 129.541 159.496 129.904C159.304 130.267 159.187 130.667 159.144 131.104ZM167.228 136V127.568H168.588V131.264H172.812V127.568H174.172V136H172.812V132.464H168.588V136H167.228ZM176.322 136V127.568H177.682V134.032C177.757 133.883 177.858 133.723 177.986 133.552C178.114 133.371 178.215 133.232 178.29 133.136L182.37 127.568H183.714V136H182.354V129.536C182.269 129.696 182.173 129.845 182.066 129.984C181.97 130.123 181.879 130.251 181.794 130.368L177.65 136H176.322ZM185.853 136V127.568H187.213V134.032C187.288 133.883 187.389 133.723 187.517 133.552C187.645 133.371 187.747 133.232 187.821 133.136L191.901 127.568H193.245V136H191.885V129.536C191.8 129.696 191.704 129.845 191.597 129.984C191.501 130.123 191.411 130.251 191.325 130.368L187.181 136H185.853ZM189.661 126.384C188.819 126.384 188.157 126.203 187.677 125.84C187.208 125.477 186.963 124.949 186.941 124.256H188.189C188.211 124.629 188.349 124.901 188.605 125.072C188.872 125.243 189.229 125.328 189.677 125.328C190.125 125.328 190.477 125.243 190.733 125.072C191 124.901 191.144 124.629 191.165 124.256H192.413C192.403 124.715 192.285 125.104 192.061 125.424C191.837 125.744 191.523 125.984 191.117 126.144C190.712 126.304 190.227 126.384 189.661 126.384Z" fill="black"/>
</svg>
