<svg width="408" height="231" viewBox="0 0 408 231" fill="none" xmlns="http://www.w3.org/2000/svg">
<rect width="408" height="231" rx="30" fill="white"/>
<path d="M52.1816 41C64.4323 41 74.3641 50.931 74.3643 63.1816C74.3643 75.4324 64.4324 85.3643 52.1816 85.3643C39.931 85.3641 30 75.4323 30 63.1816C30.0002 50.9311 39.9311 41.0002 52.1816 41ZM51.4824 51.9756L48.1143 55.3994L48.792 56.0654L49.4697 56.7324L51.1963 54.9766V62.4238H43.7324L45.4912 60.6367L45.5557 60.5635C45.8568 60.1877 45.8311 59.6371 45.4805 59.292C45.1296 58.9469 44.5779 58.9297 44.207 59.2373L44.1357 59.3027L40.7676 62.7266L40.1016 63.4033L40.7773 64.0693L44.1963 67.4424C44.57 67.811 45.1713 67.8072 45.54 67.4336C45.9086 67.0599 45.9049 66.4576 45.5312 66.0889L43.7441 64.3242H51.1963V71.7744L49.46 70.0625L49.3867 69.9971C49.0114 69.6954 48.4609 69.7212 48.1152 70.0713C47.7696 70.4217 47.7515 70.9725 48.0586 71.3438L48.124 71.415L51.543 74.7881L52.2207 75.457L52.8877 74.7783L56.2559 71.3555C56.6238 70.9812 56.6192 70.3789 56.2451 70.0107C55.8709 69.6427 55.2686 69.6475 54.9004 70.0215L53.0967 71.8545V64.3242H60.624L58.8779 66.0996L59.5557 66.7656L60.2334 67.4326L63.6016 64.0098L64.2676 63.333L63.5918 62.666L60.1738 59.293L60.1006 59.2285C59.7253 58.9268 59.1747 58.9517 58.8291 59.3018C58.4835 59.652 58.4658 60.2029 58.7725 60.5742L58.8379 60.6465L60.6396 62.4238H53.0967V54.9014L54.9111 56.6924C55.2848 57.0608 55.8862 57.0569 56.2549 56.6836C56.6233 56.3098 56.6197 55.7075 56.2461 55.3389L52.8281 51.9658L52.1504 51.2969L51.4824 51.9756ZM58.8779 66.0996C58.5102 66.4738 58.5157 67.0753 58.8896 67.4434C59.2639 67.8115 59.8652 67.8067 60.2334 67.4326L58.8779 66.0996ZM48.1143 55.3994C47.7463 55.7736 47.7511 56.375 48.125 56.7432C48.4993 57.1114 49.1015 57.1067 49.4697 56.7324L48.1143 55.3994Z" fill="black"/>
<path d="M106.392 56V44.688H107.784V49.904H109.464L113.144 44.688H114.744L110.68 50.304L114.776 56H113.128L109.576 51.168H107.784V56H106.392ZM119.44 56.096C118.554 56.096 117.813 55.9147 117.216 55.552C116.618 55.1787 116.17 54.6667 115.872 54.016C115.584 53.3653 115.44 52.624 115.44 51.792C115.44 50.9493 115.584 50.208 115.872 49.568C116.17 48.9173 116.618 48.4053 117.216 48.032C117.813 47.6587 118.565 47.472 119.472 47.472C120.357 47.472 121.093 47.6587 121.68 48.032C122.277 48.4053 122.72 48.9173 123.008 49.568C123.306 50.208 123.456 50.9493 123.456 51.792C123.456 52.624 123.306 53.3653 123.008 54.016C122.709 54.6667 122.261 55.1787 121.664 55.552C121.077 55.9147 120.336 56.096 119.44 56.096ZM119.44 54.896C120.058 54.896 120.56 54.7573 120.944 54.48C121.338 54.2027 121.626 53.8293 121.808 53.36C122 52.8907 122.096 52.368 122.096 51.792C122.096 51.216 122 50.6933 121.808 50.224C121.626 49.7547 121.338 49.3813 120.944 49.104C120.56 48.8267 120.058 48.688 119.44 48.688C118.832 48.688 118.33 48.8267 117.936 49.104C117.552 49.3813 117.264 49.7547 117.072 50.224C116.89 50.6933 116.799 51.216 116.799 51.792C116.799 52.368 116.89 52.8907 117.072 53.36C117.264 53.8293 117.552 54.2027 117.936 54.48C118.33 54.7573 118.832 54.896 119.44 54.896ZM125.275 56V47.568H131.099V48.768H126.635V56H125.275ZM131.18 58.592V54.816C131.489 54.816 131.735 54.7307 131.916 54.56C132.108 54.3893 132.257 54.1653 132.364 53.888C132.471 53.6107 132.551 53.312 132.604 52.992C132.657 52.6613 132.7 52.3467 132.732 52.048C132.785 51.5573 132.817 51.072 132.828 50.592C132.849 50.1013 132.86 49.712 132.86 49.424C132.871 49.1147 132.876 48.8053 132.876 48.496C132.876 48.1867 132.876 47.8773 132.876 47.568H138.86V54.816H139.964V58.592H138.652V56H132.492V58.592H131.18ZM133.34 54.816H137.5V48.768H134.172C134.161 49.216 134.151 49.7173 134.14 50.272C134.129 50.8267 134.108 51.344 134.076 51.824C134.065 52.1013 134.039 52.416 133.996 52.768C133.964 53.12 133.9 53.4773 133.804 53.84C133.708 54.192 133.553 54.5173 133.34 54.816ZM144.089 56.096C143.705 56.096 143.331 56.048 142.969 55.952C142.617 55.8453 142.297 55.6907 142.009 55.488C141.731 55.2747 141.507 55.0133 141.337 54.704C141.177 54.384 141.097 54.016 141.097 53.6C141.097 53.12 141.182 52.7147 141.353 52.384C141.534 52.0533 141.774 51.792 142.073 51.6C142.371 51.408 142.718 51.2693 143.113 51.184C143.507 51.0987 143.918 51.056 144.345 51.056H146.825C146.825 50.576 146.755 50.16 146.617 49.808C146.489 49.456 146.275 49.184 145.977 48.992C145.678 48.7893 145.283 48.688 144.793 48.688C144.494 48.688 144.217 48.72 143.961 48.784C143.705 48.848 143.486 48.9493 143.305 49.088C143.123 49.2267 142.99 49.4133 142.905 49.648H141.449C141.523 49.264 141.667 48.9387 141.881 48.672C142.105 48.3947 142.371 48.1707 142.681 48C143.001 47.8187 143.342 47.6853 143.705 47.6C144.067 47.5147 144.43 47.472 144.793 47.472C145.603 47.472 146.254 47.6373 146.745 47.968C147.235 48.288 147.593 48.7467 147.817 49.344C148.041 49.9307 148.153 50.6293 148.153 51.44V56H147.017L146.937 54.928C146.702 55.248 146.419 55.4933 146.089 55.664C145.758 55.8347 145.417 55.9467 145.065 56C144.723 56.064 144.398 56.096 144.089 56.096ZM144.217 54.896C144.75 54.896 145.209 54.8107 145.593 54.64C145.987 54.4587 146.291 54.1973 146.505 53.856C146.718 53.5147 146.825 53.0987 146.825 52.608V52.192H145.337C144.985 52.192 144.638 52.1973 144.297 52.208C143.955 52.2187 143.646 52.2613 143.369 52.336C143.091 52.4107 142.867 52.5387 142.697 52.72C142.537 52.9013 142.457 53.1627 142.457 53.504C142.457 53.824 142.537 54.0853 142.697 54.288C142.867 54.4907 143.086 54.6453 143.353 54.752C143.63 54.848 143.918 54.896 144.217 54.896ZM154.572 56V47.568H157.836C158.209 47.568 158.577 47.5947 158.94 47.648C159.313 47.6907 159.649 47.7867 159.948 47.936C160.257 48.0747 160.503 48.2827 160.684 48.56C160.876 48.8373 160.972 49.2053 160.972 49.664C160.972 49.9413 160.929 50.1973 160.844 50.432C160.759 50.656 160.631 50.8533 160.46 51.024C160.3 51.1947 160.092 51.344 159.836 51.472C160.412 51.6 160.828 51.8507 161.084 52.224C161.34 52.5973 161.468 53.024 161.468 53.504C161.468 53.9307 161.388 54.304 161.228 54.624C161.079 54.9333 160.865 55.1893 160.588 55.392C160.321 55.5947 160.007 55.7493 159.644 55.856C159.292 55.952 158.913 56 158.508 56H154.572ZM155.964 54.816H158.188C158.519 54.816 158.828 54.784 159.116 54.72C159.404 54.656 159.639 54.5387 159.82 54.368C160.001 54.1867 160.092 53.9307 160.092 53.6C160.092 53.2587 160.012 53.0027 159.852 52.832C159.703 52.6507 159.505 52.528 159.26 52.464C159.025 52.3893 158.769 52.3467 158.492 52.336C158.215 52.3253 157.953 52.32 157.708 52.32H155.964V54.816ZM155.964 51.168H157.132C157.345 51.168 157.591 51.1573 157.868 51.136C158.156 51.1147 158.433 51.0667 158.7 50.992C158.977 50.9067 159.201 50.7787 159.372 50.608C159.553 50.4373 159.644 50.2027 159.644 49.904C159.644 49.5093 159.532 49.2373 159.308 49.088C159.095 48.928 158.839 48.8373 158.54 48.816C158.241 48.784 157.964 48.768 157.708 48.768H155.964V51.168ZM163.322 56V47.568H164.714V50.784H166.234C166.735 50.784 167.189 50.8267 167.594 50.912C167.999 50.9973 168.346 51.136 168.634 51.328C168.922 51.52 169.141 51.7813 169.29 52.112C169.439 52.432 169.514 52.8373 169.514 53.328C169.514 53.7973 169.434 54.2027 169.274 54.544C169.114 54.8853 168.885 55.1627 168.586 55.376C168.298 55.5893 167.951 55.7493 167.546 55.856C167.151 55.952 166.719 56 166.25 56H163.322ZM164.714 54.816H165.162C165.535 54.816 165.898 54.8107 166.25 54.8C166.602 54.7787 166.917 54.7253 167.194 54.64C167.482 54.5547 167.711 54.416 167.882 54.224C168.053 54.0213 168.138 53.7387 168.138 53.376C168.138 53.0347 168.069 52.7733 167.93 52.592C167.802 52.4 167.631 52.2613 167.418 52.176C167.205 52.08 166.97 52.0213 166.714 52C166.469 51.9787 166.223 51.968 165.978 51.968H164.714V54.816ZM170.682 56V47.568H172.042V56H170.682ZM177.733 56.096C177.2 56.096 176.725 56.0213 176.309 55.872C175.893 55.712 175.536 55.4933 175.237 55.216C174.939 54.928 174.693 54.592 174.501 54.208C174.309 53.8133 174.165 53.3867 174.069 52.928C173.973 52.4693 173.925 51.984 173.925 51.472C173.925 50.6507 173.941 49.888 173.973 49.184C174.016 48.4693 174.133 47.8347 174.325 47.28C174.517 46.7147 174.843 46.2453 175.301 45.872C175.76 45.4987 176.405 45.2373 177.237 45.088C177.664 45.0133 178.085 44.9493 178.501 44.896C178.917 44.8427 179.339 44.7893 179.765 44.736C179.904 44.7147 180.048 44.6933 180.197 44.672C180.347 44.6507 180.501 44.624 180.661 44.592C180.832 44.56 180.992 44.5333 181.141 44.512V45.76C181.024 45.8027 180.896 45.84 180.757 45.872C180.629 45.8933 180.491 45.9147 180.341 45.936C180.203 45.9573 180.059 45.9733 179.909 45.984C179.771 45.9947 179.632 46.0107 179.493 46.032C179.355 46.0427 179.221 46.0587 179.093 46.08C178.72 46.1227 178.325 46.1653 177.909 46.208C177.493 46.24 177.099 46.3253 176.725 46.464C176.363 46.592 176.053 46.8427 175.797 47.216C175.669 47.408 175.557 47.6373 175.461 47.904C175.376 48.1707 175.312 48.4427 175.269 48.72C175.237 48.9867 175.216 49.2427 175.205 49.488C175.419 49.1893 175.68 48.9493 175.989 48.768C176.299 48.576 176.629 48.4373 176.981 48.352C177.333 48.256 177.669 48.208 177.989 48.208C178.757 48.208 179.408 48.368 179.941 48.688C180.475 48.9973 180.88 49.44 181.157 50.016C181.435 50.592 181.573 51.264 181.573 52.032C181.573 52.8 181.424 53.4933 181.125 54.112C180.827 54.72 180.389 55.2053 179.813 55.568C179.248 55.92 178.555 56.096 177.733 56.096ZM177.765 54.896C178.299 54.896 178.747 54.768 179.109 54.512C179.472 54.256 179.744 53.9147 179.925 53.488C180.117 53.0613 180.213 52.592 180.213 52.08C180.213 51.5787 180.117 51.1307 179.925 50.736C179.744 50.3307 179.472 50.0107 179.109 49.776C178.757 49.5413 178.32 49.424 177.797 49.424C177.285 49.424 176.843 49.5467 176.469 49.792C176.107 50.0373 175.824 50.368 175.621 50.784C175.429 51.1893 175.333 51.632 175.333 52.112C175.333 52.6027 175.424 53.0613 175.605 53.488C175.787 53.9147 176.053 54.256 176.405 54.512C176.768 54.768 177.221 54.896 177.765 54.896ZM183.4 59.04V47.568H184.696L184.76 48.864C185.048 48.4053 185.437 48.0587 185.928 47.824C186.429 47.5893 186.968 47.472 187.544 47.472C188.397 47.472 189.096 47.664 189.64 48.048C190.184 48.4213 190.584 48.9333 190.84 49.584C191.107 50.2347 191.24 50.9707 191.24 51.792C191.24 52.6133 191.107 53.3493 190.84 54C190.573 54.6507 190.163 55.1627 189.608 55.536C189.053 55.9093 188.344 56.096 187.48 56.096C187.053 56.096 186.669 56.0533 186.328 55.968C185.987 55.872 185.688 55.7387 185.432 55.568C185.176 55.3973 184.952 55.2053 184.76 54.992V59.04H183.4ZM187.368 54.896C187.987 54.896 188.477 54.7573 188.84 54.48C189.203 54.192 189.464 53.8133 189.624 53.344C189.795 52.8747 189.88 52.3573 189.88 51.792C189.88 51.216 189.795 50.6933 189.624 50.224C189.464 49.7547 189.197 49.3813 188.824 49.104C188.451 48.8267 187.955 48.688 187.336 48.688C186.781 48.688 186.307 48.832 185.912 49.12C185.528 49.3973 185.235 49.776 185.032 50.256C184.829 50.7253 184.728 51.2427 184.728 51.808C184.728 52.3947 184.824 52.9227 185.016 53.392C185.208 53.8613 185.501 54.2293 185.896 54.496C186.291 54.7627 186.781 54.896 187.368 54.896ZM195.698 56.096C195.314 56.096 194.941 56.048 194.578 55.952C194.226 55.8453 193.906 55.6907 193.618 55.488C193.341 55.2747 193.117 55.0133 192.946 54.704C192.786 54.384 192.706 54.016 192.706 53.6C192.706 53.12 192.791 52.7147 192.962 52.384C193.143 52.0533 193.383 51.792 193.682 51.6C193.981 51.408 194.327 51.2693 194.722 51.184C195.117 51.0987 195.527 51.056 195.954 51.056H198.434C198.434 50.576 198.365 50.16 198.226 49.808C198.098 49.456 197.885 49.184 197.586 48.992C197.287 48.7893 196.893 48.688 196.402 48.688C196.103 48.688 195.826 48.72 195.57 48.784C195.314 48.848 195.095 48.9493 194.914 49.088C194.733 49.2267 194.599 49.4133 194.514 49.648H193.058C193.133 49.264 193.277 48.9387 193.49 48.672C193.714 48.3947 193.981 48.1707 194.29 48C194.61 47.8187 194.951 47.6853 195.314 47.6C195.677 47.5147 196.039 47.472 196.402 47.472C197.213 47.472 197.863 47.6373 198.354 47.968C198.845 48.288 199.202 48.7467 199.426 49.344C199.65 49.9307 199.762 50.6293 199.762 51.44V56H198.626L198.546 54.928C198.311 55.248 198.029 55.4933 197.698 55.664C197.367 55.8347 197.026 55.9467 196.674 56C196.333 56.064 196.007 56.096 195.698 56.096ZM195.826 54.896C196.359 54.896 196.818 54.8107 197.202 54.64C197.597 54.4587 197.901 54.1973 198.114 53.856C198.327 53.5147 198.434 53.0987 198.434 52.608V52.192H196.946C196.594 52.192 196.247 52.1973 195.906 52.208C195.565 52.2187 195.255 52.2613 194.978 52.336C194.701 52.4107 194.477 52.5387 194.306 52.72C194.146 52.9013 194.066 53.1627 194.066 53.504C194.066 53.824 194.146 54.0853 194.306 54.288C194.477 54.4907 194.695 54.6453 194.962 54.752C195.239 54.848 195.527 54.896 195.826 54.896ZM201.869 56V47.568H203.229V51.264H207.453V47.568H208.813V56H207.453V52.464H203.229V56H201.869ZM213.667 56.096C213.283 56.096 212.909 56.048 212.547 55.952C212.195 55.8453 211.875 55.6907 211.587 55.488C211.309 55.2747 211.085 55.0133 210.915 54.704C210.755 54.384 210.675 54.016 210.675 53.6C210.675 53.12 210.76 52.7147 210.931 52.384C211.112 52.0533 211.352 51.792 211.651 51.6C211.949 51.408 212.296 51.2693 212.691 51.184C213.085 51.0987 213.496 51.056 213.923 51.056H216.403C216.403 50.576 216.333 50.16 216.195 49.808C216.067 49.456 215.853 49.184 215.555 48.992C215.256 48.7893 214.861 48.688 214.371 48.688C214.072 48.688 213.795 48.72 213.539 48.784C213.283 48.848 213.064 48.9493 212.883 49.088C212.701 49.2267 212.568 49.4133 212.483 49.648H211.027C211.101 49.264 211.245 48.9387 211.459 48.672C211.683 48.3947 211.949 48.1707 212.259 48C212.579 47.8187 212.92 47.6853 213.283 47.6C213.645 47.5147 214.008 47.472 214.371 47.472C215.181 47.472 215.832 47.6373 216.323 47.968C216.813 48.288 217.171 48.7467 217.395 49.344C217.619 49.9307 217.731 50.6293 217.731 51.44V56H216.595L216.515 54.928C216.28 55.248 215.997 55.4933 215.667 55.664C215.336 55.8347 214.995 55.9467 214.643 56C214.301 56.064 213.976 56.096 213.667 56.096ZM213.795 54.896C214.328 54.896 214.787 54.8107 215.171 54.64C215.565 54.4587 215.869 54.1973 216.083 53.856C216.296 53.5147 216.403 53.0987 216.403 52.608V52.192H214.915C214.563 52.192 214.216 52.1973 213.875 52.208C213.533 52.2187 213.224 52.2613 212.947 52.336C212.669 52.4107 212.445 52.5387 212.275 52.72C212.115 52.9013 212.035 53.1627 212.035 53.504C212.035 53.824 212.115 54.0853 212.275 54.288C212.445 54.4907 212.664 54.6453 212.931 54.752C213.208 54.848 213.496 54.896 213.795 54.896ZM227.27 56.096C226.715 56.096 226.182 56.0107 225.67 55.84C225.169 55.6587 224.742 55.3813 224.39 55.008C224.049 54.6347 223.819 54.16 223.702 53.584H225.11C225.195 53.9147 225.355 54.176 225.59 54.368C225.835 54.56 226.113 54.6987 226.422 54.784C226.731 54.8587 227.035 54.896 227.334 54.896C227.867 54.896 228.31 54.784 228.662 54.56C229.014 54.3253 229.281 54.0213 229.462 53.648C229.654 53.2747 229.755 52.864 229.766 52.416H226.07V51.232H229.782C229.75 50.7307 229.638 50.2933 229.446 49.92C229.254 49.536 228.982 49.2373 228.63 49.024C228.289 48.8 227.857 48.688 227.334 48.688C227.025 48.688 226.715 48.7307 226.406 48.816C226.107 48.8907 225.846 49.024 225.622 49.216C225.398 49.3973 225.243 49.6533 225.158 49.984H223.782C223.921 49.408 224.161 48.9387 224.502 48.576C224.843 48.2027 225.259 47.9253 225.75 47.744C226.241 47.5627 226.769 47.472 227.334 47.472C228.241 47.472 228.971 47.6587 229.526 48.032C230.091 48.4053 230.502 48.9173 230.758 49.568C231.025 50.2187 231.158 50.96 231.158 51.792C231.158 52.6453 231.019 53.3973 230.742 54.048C230.465 54.688 230.038 55.1893 229.462 55.552C228.897 55.9147 228.166 56.096 227.27 56.096ZM234.884 56V48.768H231.988V47.568H239.14V48.768H236.244V56H234.884ZM243.057 56.096C242.673 56.096 242.3 56.048 241.937 55.952C241.585 55.8453 241.265 55.6907 240.977 55.488C240.7 55.2747 240.476 55.0133 240.305 54.704C240.145 54.384 240.065 54.016 240.065 53.6C240.065 53.12 240.151 52.7147 240.321 52.384C240.503 52.0533 240.743 51.792 241.041 51.6C241.34 51.408 241.687 51.2693 242.081 51.184C242.476 51.0987 242.887 51.056 243.313 51.056H245.793C245.793 50.576 245.724 50.16 245.585 49.808C245.457 49.456 245.244 49.184 244.945 48.992C244.647 48.7893 244.252 48.688 243.761 48.688C243.463 48.688 243.185 48.72 242.929 48.784C242.673 48.848 242.455 48.9493 242.273 49.088C242.092 49.2267 241.959 49.4133 241.873 49.648H240.417C240.492 49.264 240.636 48.9387 240.849 48.672C241.073 48.3947 241.34 48.1707 241.649 48C241.969 47.8187 242.311 47.6853 242.673 47.6C243.036 47.5147 243.399 47.472 243.761 47.472C244.572 47.472 245.223 47.6373 245.713 47.968C246.204 48.288 246.561 48.7467 246.785 49.344C247.009 49.9307 247.121 50.6293 247.121 51.44V56H245.985L245.905 54.928C245.671 55.248 245.388 55.4933 245.057 55.664C244.727 55.8347 244.385 55.9467 244.033 56C243.692 56.064 243.367 56.096 243.057 56.096ZM243.185 54.896C243.719 54.896 244.177 54.8107 244.561 54.64C244.956 54.4587 245.26 54.1973 245.473 53.856C245.687 53.5147 245.793 53.0987 245.793 52.608V52.192H244.305C243.953 52.192 243.607 52.1973 243.265 52.208C242.924 52.2187 242.615 52.2613 242.337 52.336C242.06 52.4107 241.836 52.5387 241.665 52.72C241.505 52.9013 241.425 53.1627 241.425 53.504C241.425 53.824 241.505 54.0853 241.665 54.288C241.836 54.4907 242.055 54.6453 242.321 54.752C242.599 54.848 242.887 54.896 243.185 54.896ZM253.541 56V47.568H254.901V51.2H256.373L258.869 47.568H260.421L257.605 51.584L260.661 56H259.061L256.533 52.384H254.901V56H253.541ZM261.838 56V47.568H263.198V51.264H267.422V47.568H268.782V56H267.422V52.464H263.198V56H261.838ZM274.611 56.096C273.726 56.096 272.985 55.9147 272.387 55.552C271.79 55.1787 271.342 54.6667 271.043 54.016C270.755 53.3653 270.611 52.624 270.611 51.792C270.611 50.9493 270.755 50.208 271.043 49.568C271.342 48.9173 271.79 48.4053 272.387 48.032C272.985 47.6587 273.737 47.472 274.643 47.472C275.529 47.472 276.265 47.6587 276.851 48.032C277.449 48.4053 277.891 48.9173 278.179 49.568C278.478 50.208 278.627 50.9493 278.627 51.792C278.627 52.624 278.478 53.3653 278.179 54.016C277.881 54.6667 277.433 55.1787 276.835 55.552C276.249 55.9147 275.507 56.096 274.611 56.096ZM274.611 54.896C275.23 54.896 275.731 54.7573 276.115 54.48C276.51 54.2027 276.798 53.8293 276.979 53.36C277.171 52.8907 277.267 52.368 277.267 51.792C277.267 51.216 277.171 50.6933 276.979 50.224C276.798 49.7547 276.51 49.3813 276.115 49.104C275.731 48.8267 275.23 48.688 274.611 48.688C274.003 48.688 273.502 48.8267 273.107 49.104C272.723 49.3813 272.435 49.7547 272.243 50.224C272.062 50.6933 271.971 51.216 271.971 51.792C271.971 52.368 272.062 52.8907 272.243 53.36C272.435 53.8293 272.723 54.2027 273.107 54.48C273.502 54.7573 274.003 54.896 274.611 54.896ZM280.447 56V47.568H287.439V56H286.079V48.768H281.807V56H280.447ZM289.588 56V47.568H290.948V51.2H292.42L294.916 47.568H296.468L293.652 51.584L296.708 56H295.108L292.58 52.384H290.948V56H289.588ZM300.432 56.096C300.048 56.096 299.675 56.048 299.312 55.952C298.96 55.8453 298.64 55.6907 298.352 55.488C298.075 55.2747 297.851 55.0133 297.68 54.704C297.52 54.384 297.44 54.016 297.44 53.6C297.44 53.12 297.526 52.7147 297.696 52.384C297.878 52.0533 298.118 51.792 298.416 51.6C298.715 51.408 299.062 51.2693 299.456 51.184C299.851 51.0987 300.262 51.056 300.688 51.056H303.168C303.168 50.576 303.099 50.16 302.96 49.808C302.832 49.456 302.619 49.184 302.32 48.992C302.022 48.7893 301.627 48.688 301.136 48.688C300.838 48.688 300.56 48.72 300.304 48.784C300.048 48.848 299.83 48.9493 299.648 49.088C299.467 49.2267 299.334 49.4133 299.248 49.648H297.792C297.867 49.264 298.011 48.9387 298.224 48.672C298.448 48.3947 298.715 48.1707 299.024 48C299.344 47.8187 299.686 47.6853 300.048 47.6C300.411 47.5147 300.774 47.472 301.136 47.472C301.947 47.472 302.598 47.6373 303.088 47.968C303.579 48.288 303.936 48.7467 304.16 49.344C304.384 49.9307 304.496 50.6293 304.496 51.44V56H303.36L303.28 54.928C303.046 55.248 302.763 55.4933 302.432 55.664C302.102 55.8347 301.76 55.9467 301.408 56C301.067 56.064 300.742 56.096 300.432 56.096ZM300.56 54.896C301.094 54.896 301.552 54.8107 301.936 54.64C302.331 54.4587 302.635 54.1973 302.848 53.856C303.062 53.5147 303.168 53.0987 303.168 52.608V52.192H301.68C301.328 52.192 300.982 52.1973 300.64 52.208C300.299 52.2187 299.99 52.2613 299.712 52.336C299.435 52.4107 299.211 52.5387 299.04 52.72C298.88 52.9013 298.8 53.1627 298.8 53.504C298.8 53.824 298.88 54.0853 299.04 54.288C299.211 54.4907 299.43 54.6453 299.696 54.752C299.974 54.848 300.262 54.896 300.56 54.896ZM306.987 57.936L306.603 57.408C306.753 57.3013 306.891 57.1733 307.019 57.024C307.147 56.8747 307.259 56.7147 307.355 56.544C307.462 56.3733 307.537 56.2027 307.579 56.032C307.302 56.0107 307.078 55.92 306.907 55.76C306.737 55.6 306.651 55.3867 306.651 55.12C306.662 54.8427 306.758 54.624 306.939 54.464C307.131 54.2933 307.35 54.208 307.595 54.208C307.905 54.208 308.15 54.32 308.331 54.544C308.523 54.768 308.619 55.0827 308.619 55.488C308.619 55.808 308.539 56.1387 308.379 56.48C308.23 56.8213 308.033 57.12 307.787 57.376C307.542 57.6427 307.275 57.8293 306.987 57.936ZM314.603 56V47.568H316.427L319.163 51.792L321.851 47.568H323.643V56H322.299V49.072L319.323 53.84H318.939L315.947 49.072V56H314.603ZM329.471 56.096C328.585 56.096 327.844 55.9147 327.247 55.552C326.649 55.1787 326.201 54.6667 325.903 54.016C325.615 53.3653 325.471 52.624 325.471 51.792C325.471 50.9493 325.615 50.208 325.903 49.568C326.201 48.9173 326.649 48.4053 327.247 48.032C327.844 47.6587 328.596 47.472 329.503 47.472C330.388 47.472 331.124 47.6587 331.711 48.032C332.308 48.4053 332.751 48.9173 333.039 49.568C333.337 50.208 333.487 50.9493 333.487 51.792C333.487 52.624 333.337 53.3653 333.039 54.016C332.74 54.6667 332.292 55.1787 331.695 55.552C331.108 55.9147 330.367 56.096 329.471 56.096ZM329.471 54.896C330.089 54.896 330.591 54.7573 330.975 54.48C331.369 54.2027 331.657 53.8293 331.839 53.36C332.031 52.8907 332.127 52.368 332.127 51.792C332.127 51.216 332.031 50.6933 331.839 50.224C331.657 49.7547 331.369 49.3813 330.975 49.104C330.591 48.8267 330.089 48.688 329.471 48.688C328.863 48.688 328.361 48.8267 327.967 49.104C327.583 49.3813 327.295 49.7547 327.103 50.224C326.921 50.6933 326.831 51.216 326.831 51.792C326.831 52.368 326.921 52.8907 327.103 53.36C327.295 53.8293 327.583 54.2027 327.967 54.48C328.361 54.7573 328.863 54.896 329.471 54.896ZM334.302 56L337.038 51.584L334.542 47.568H335.998L338.222 51.216H339.486V47.568H340.846V51.216H342.11L344.334 47.568H345.79L343.294 51.584L346.03 56H344.446L342.254 52.368H340.846V56H339.486V52.368H338.078L335.886 56H334.302ZM347.322 56V47.568H348.682V51.264H352.906V47.568H354.266V56H352.906V52.464H348.682V56H347.322ZM360.096 56.096C359.21 56.096 358.469 55.9147 357.872 55.552C357.274 55.1787 356.826 54.6667 356.528 54.016C356.24 53.3653 356.096 52.624 356.096 51.792C356.096 50.9493 356.24 50.208 356.528 49.568C356.826 48.9173 357.274 48.4053 357.872 48.032C358.469 47.6587 359.221 47.472 360.128 47.472C361.013 47.472 361.749 47.6587 362.336 48.032C362.933 48.4053 363.376 48.9173 363.664 49.568C363.962 50.208 364.112 50.9493 364.112 51.792C364.112 52.624 363.962 53.3653 363.664 54.016C363.365 54.6667 362.917 55.1787 362.32 55.552C361.733 55.9147 360.992 56.096 360.096 56.096ZM360.096 54.896C360.714 54.896 361.216 54.7573 361.6 54.48C361.994 54.2027 362.282 53.8293 362.464 53.36C362.656 52.8907 362.752 52.368 362.752 51.792C362.752 51.216 362.656 50.6933 362.464 50.224C362.282 49.7547 361.994 49.3813 361.6 49.104C361.216 48.8267 360.714 48.688 360.096 48.688C359.488 48.688 358.986 48.8267 358.592 49.104C358.208 49.3813 357.92 49.7547 357.728 50.224C357.546 50.6933 357.456 51.216 357.456 51.792C357.456 52.368 357.546 52.8907 357.728 53.36C357.92 53.8293 358.208 54.2027 358.592 54.48C358.986 54.7573 359.488 54.896 360.096 54.896ZM106.072 76V67.568H113.064V76H111.704V68.768H107.432V76H106.072ZM118.861 76.096C117.965 76.096 117.223 75.9147 116.637 75.552C116.05 75.1787 115.613 74.6667 115.325 74.016C115.037 73.3653 114.893 72.624 114.893 71.792C114.893 70.9493 115.042 70.208 115.341 69.568C115.65 68.9173 116.098 68.4053 116.685 68.032C117.271 67.6587 117.991 67.472 118.845 67.472C119.474 67.472 120.023 67.5947 120.493 67.84C120.973 68.0747 121.367 68.3947 121.677 68.8C121.997 69.2053 122.226 69.6587 122.365 70.16C122.514 70.6613 122.578 71.1787 122.557 71.712C122.546 71.808 122.541 71.904 122.541 72C122.541 72.096 122.535 72.192 122.525 72.288H116.269C116.311 72.7787 116.434 73.2213 116.637 73.616C116.839 74.0107 117.127 74.3253 117.501 74.56C117.874 74.784 118.338 74.896 118.893 74.896C119.17 74.896 119.447 74.864 119.725 74.8C120.013 74.7253 120.269 74.6027 120.493 74.432C120.727 74.2613 120.893 74.032 120.989 73.744H122.381C122.253 74.288 122.013 74.736 121.661 75.088C121.309 75.4293 120.887 75.6853 120.397 75.856C119.906 76.016 119.394 76.096 118.861 76.096ZM116.301 71.104H121.181C121.17 70.624 121.063 70.2027 120.861 69.84C120.658 69.4773 120.381 69.1947 120.029 68.992C119.687 68.7893 119.277 68.688 118.797 68.688C118.274 68.688 117.831 68.8 117.469 69.024C117.117 69.248 116.845 69.5413 116.653 69.904C116.461 70.2667 116.343 70.6667 116.301 71.104ZM124.385 79.04V67.568H125.681L125.745 68.864C126.033 68.4053 126.422 68.0587 126.913 67.824C127.414 67.5893 127.953 67.472 128.529 67.472C129.382 67.472 130.081 67.664 130.625 68.048C131.169 68.4213 131.569 68.9333 131.825 69.584C132.091 70.2347 132.225 70.9707 132.225 71.792C132.225 72.6133 132.091 73.3493 131.825 74C131.558 74.6507 131.147 75.1627 130.593 75.536C130.038 75.9093 129.329 76.096 128.465 76.096C128.038 76.096 127.654 76.0533 127.312 75.968C126.971 75.872 126.673 75.7387 126.417 75.568C126.161 75.3973 125.937 75.2053 125.745 74.992V79.04H124.385ZM128.353 74.896C128.971 74.896 129.462 74.7573 129.825 74.48C130.187 74.192 130.449 73.8133 130.609 73.344C130.779 72.8747 130.865 72.3573 130.865 71.792C130.865 71.216 130.779 70.6933 130.609 70.224C130.449 69.7547 130.182 69.3813 129.809 69.104C129.435 68.8267 128.939 68.688 128.321 68.688C127.766 68.688 127.291 68.832 126.897 69.12C126.513 69.3973 126.219 69.776 126.017 70.256C125.814 70.7253 125.713 71.2427 125.713 71.808C125.713 72.3947 125.809 72.9227 126.001 73.392C126.193 73.8613 126.486 74.2293 126.881 74.496C127.275 74.7627 127.766 74.896 128.353 74.896ZM137.626 76.096C136.73 76.096 135.989 75.9147 135.402 75.552C134.816 75.1787 134.378 74.6667 134.09 74.016C133.802 73.3653 133.658 72.624 133.658 71.792C133.658 70.9493 133.808 70.208 134.106 69.568C134.416 68.9173 134.864 68.4053 135.45 68.032C136.037 67.6587 136.757 67.472 137.61 67.472C138.24 67.472 138.789 67.5947 139.258 67.84C139.738 68.0747 140.133 68.3947 140.442 68.8C140.762 69.2053 140.992 69.6587 141.13 70.16C141.28 70.6613 141.344 71.1787 141.322 71.712C141.312 71.808 141.306 71.904 141.306 72C141.306 72.096 141.301 72.192 141.29 72.288H135.034C135.077 72.7787 135.2 73.2213 135.402 73.616C135.605 74.0107 135.893 74.3253 136.266 74.56C136.64 74.784 137.104 74.896 137.658 74.896C137.936 74.896 138.213 74.864 138.49 74.8C138.778 74.7253 139.034 74.6027 139.258 74.432C139.493 74.2613 139.658 74.032 139.754 73.744H141.146C141.018 74.288 140.778 74.736 140.426 75.088C140.074 75.4293 139.653 75.6853 139.162 75.856C138.672 76.016 138.16 76.096 137.626 76.096ZM135.066 71.104H139.946C139.936 70.624 139.829 70.2027 139.626 69.84C139.424 69.4773 139.146 69.1947 138.794 68.992C138.453 68.7893 138.042 68.688 137.562 68.688C137.04 68.688 136.597 68.8 136.234 69.024C135.882 69.248 135.61 69.5413 135.418 69.904C135.226 70.2667 135.109 70.6667 135.066 71.104ZM143.15 76V67.568H144.974L147.71 71.792L150.398 67.568H152.19V76H150.846V69.072L147.87 73.84H147.486L144.494 69.072V76H143.15ZM157.986 76.096C157.09 76.096 156.348 75.9147 155.762 75.552C155.175 75.1787 154.738 74.6667 154.45 74.016C154.162 73.3653 154.018 72.624 154.018 71.792C154.018 70.9493 154.167 70.208 154.466 69.568C154.775 68.9173 155.223 68.4053 155.81 68.032C156.396 67.6587 157.116 67.472 157.97 67.472C158.599 67.472 159.148 67.5947 159.618 67.84C160.098 68.0747 160.492 68.3947 160.802 68.8C161.122 69.2053 161.351 69.6587 161.49 70.16C161.639 70.6613 161.703 71.1787 161.682 71.712C161.671 71.808 161.666 71.904 161.666 72C161.666 72.096 161.66 72.192 161.65 72.288H155.394C155.436 72.7787 155.559 73.2213 155.762 73.616C155.964 74.0107 156.252 74.3253 156.626 74.56C156.999 74.784 157.463 74.896 158.018 74.896C158.295 74.896 158.572 74.864 158.85 74.8C159.138 74.7253 159.394 74.6027 159.618 74.432C159.852 74.2613 160.018 74.032 160.114 73.744H161.506C161.378 74.288 161.138 74.736 160.786 75.088C160.434 75.4293 160.012 75.6853 159.522 75.856C159.031 76.016 158.519 76.096 157.986 76.096ZM155.426 71.104H160.306C160.295 70.624 160.188 70.2027 159.986 69.84C159.783 69.4773 159.506 69.1947 159.154 68.992C158.812 68.7893 158.402 68.688 157.922 68.688C157.399 68.688 156.956 68.8 156.594 69.024C156.242 69.248 155.97 69.5413 155.778 69.904C155.586 70.2667 155.468 70.6667 155.426 71.104ZM173.75 78.592V76H163.51V67.568H164.87V74.816H168.038V67.568H169.398V74.816H172.598V67.568H173.958V74.816H175.062V78.592H173.75ZM179.182 76.096C178.798 76.096 178.425 76.048 178.062 75.952C177.71 75.8453 177.39 75.6907 177.102 75.488C176.825 75.2747 176.601 75.0133 176.43 74.704C176.27 74.384 176.19 74.016 176.19 73.6C176.19 73.12 176.276 72.7147 176.446 72.384C176.628 72.0533 176.868 71.792 177.166 71.6C177.465 71.408 177.812 71.2693 178.206 71.184C178.601 71.0987 179.012 71.056 179.438 71.056H181.918C181.918 70.576 181.849 70.16 181.71 69.808C181.582 69.456 181.369 69.184 181.07 68.992C180.772 68.7893 180.377 68.688 179.886 68.688C179.588 68.688 179.31 68.72 179.054 68.784C178.798 68.848 178.58 68.9493 178.398 69.088C178.217 69.2267 178.084 69.4133 177.998 69.648H176.542C176.617 69.264 176.761 68.9387 176.974 68.672C177.198 68.3947 177.465 68.1707 177.774 68C178.094 67.8187 178.436 67.6853 178.798 67.6C179.161 67.5147 179.524 67.472 179.886 67.472C180.697 67.472 181.348 67.6373 181.838 67.968C182.329 68.288 182.686 68.7467 182.91 69.344C183.134 69.9307 183.246 70.6293 183.246 71.44V76H182.11L182.03 74.928C181.796 75.248 181.513 75.4933 181.182 75.664C180.852 75.8347 180.51 75.9467 180.158 76C179.817 76.064 179.492 76.096 179.182 76.096ZM179.31 74.896C179.844 74.896 180.302 74.8107 180.686 74.64C181.081 74.4587 181.385 74.1973 181.598 73.856C181.812 73.5147 181.918 73.0987 181.918 72.608V72.192H180.43C180.078 72.192 179.732 72.1973 179.39 72.208C179.049 72.2187 178.74 72.2613 178.462 72.336C178.185 72.4107 177.961 72.5387 177.79 72.72C177.63 72.9013 177.55 73.1627 177.55 73.504C177.55 73.824 177.63 74.0853 177.79 74.288C177.961 74.4907 178.18 74.6453 178.446 74.752C178.724 74.848 179.012 74.896 179.31 74.896ZM187.321 76V68.768H184.425V67.568H191.577V68.768H188.681V76H187.321ZM192.791 76V67.568H194.183V70.784H196.039C196.54 70.784 196.988 70.8267 197.383 70.912C197.788 70.9867 198.135 71.12 198.423 71.312C198.711 71.504 198.929 71.7653 199.079 72.096C199.239 72.416 199.319 72.8267 199.319 73.328C199.319 73.7867 199.239 74.1867 199.079 74.528C198.919 74.8587 198.695 75.136 198.407 75.36C198.119 75.5733 197.772 75.7333 197.367 75.84C196.972 75.9467 196.535 76 196.055 76H192.791ZM194.183 74.816H194.983C195.356 74.816 195.713 74.8053 196.055 74.784C196.407 74.7627 196.727 74.7093 197.015 74.624C197.303 74.5387 197.527 74.4 197.687 74.208C197.857 74.0053 197.943 73.728 197.943 73.376C197.943 73.0347 197.873 72.7733 197.735 72.592C197.607 72.4 197.436 72.2613 197.223 72.176C197.009 72.08 196.775 72.0213 196.519 72C196.273 71.9787 196.028 71.968 195.783 71.968H194.183V74.816ZM209.08 76.096C208.195 76.096 207.453 75.9147 206.856 75.552C206.259 75.1787 205.811 74.6667 205.512 74.016C205.224 73.3653 205.08 72.624 205.08 71.792C205.08 70.9493 205.224 70.208 205.512 69.568C205.811 68.9173 206.259 68.4053 206.856 68.032C207.453 67.6587 208.205 67.472 209.112 67.472C209.997 67.472 210.733 67.6587 211.32 68.032C211.917 68.4053 212.36 68.9173 212.648 69.568C212.947 70.208 213.096 70.9493 213.096 71.792C213.096 72.624 212.947 73.3653 212.648 74.016C212.349 74.6667 211.901 75.1787 211.304 75.552C210.717 75.9147 209.976 76.096 209.08 76.096ZM209.08 74.896C209.699 74.896 210.2 74.7573 210.584 74.48C210.979 74.2027 211.267 73.8293 211.448 73.36C211.64 72.8907 211.736 72.368 211.736 71.792C211.736 71.216 211.64 70.6933 211.448 70.224C211.267 69.7547 210.979 69.3813 210.584 69.104C210.2 68.8267 209.699 68.688 209.08 68.688C208.472 68.688 207.971 68.8267 207.576 69.104C207.192 69.3813 206.904 69.7547 206.712 70.224C206.531 70.6933 206.44 71.216 206.44 71.792C206.44 72.368 206.531 72.8907 206.712 73.36C206.904 73.8293 207.192 74.2027 207.576 74.48C207.971 74.7573 208.472 74.896 209.08 74.896ZM218.624 76.096C218.091 76.096 217.616 76.0213 217.2 75.872C216.784 75.712 216.427 75.4933 216.128 75.216C215.829 74.928 215.584 74.592 215.392 74.208C215.2 73.8133 215.056 73.3867 214.96 72.928C214.864 72.4693 214.816 71.984 214.816 71.472C214.816 70.6507 214.832 69.888 214.864 69.184C214.907 68.4693 215.024 67.8347 215.216 67.28C215.408 66.7147 215.733 66.2453 216.192 65.872C216.651 65.4987 217.296 65.2373 218.128 65.088C218.555 65.0133 218.976 64.9493 219.392 64.896C219.808 64.8427 220.229 64.7893 220.656 64.736C220.795 64.7147 220.939 64.6933 221.088 64.672C221.237 64.6507 221.392 64.624 221.552 64.592C221.723 64.56 221.883 64.5333 222.032 64.512V65.76C221.915 65.8027 221.787 65.84 221.648 65.872C221.52 65.8933 221.381 65.9147 221.232 65.936C221.093 65.9573 220.949 65.9733 220.8 65.984C220.661 65.9947 220.523 66.0107 220.384 66.032C220.245 66.0427 220.112 66.0587 219.984 66.08C219.611 66.1227 219.216 66.1653 218.8 66.208C218.384 66.24 217.989 66.3253 217.616 66.464C217.253 66.592 216.944 66.8427 216.688 67.216C216.56 67.408 216.448 67.6373 216.352 67.904C216.267 68.1707 216.203 68.4427 216.16 68.72C216.128 68.9867 216.107 69.2427 216.096 69.488C216.309 69.1893 216.571 68.9493 216.88 68.768C217.189 68.576 217.52 68.4373 217.872 68.352C218.224 68.256 218.56 68.208 218.88 68.208C219.648 68.208 220.299 68.368 220.832 68.688C221.365 68.9973 221.771 69.44 222.048 70.016C222.325 70.592 222.464 71.264 222.464 72.032C222.464 72.8 222.315 73.4933 222.016 74.112C221.717 74.72 221.28 75.2053 220.704 75.568C220.139 75.92 219.445 76.096 218.624 76.096ZM218.656 74.896C219.189 74.896 219.637 74.768 220 74.512C220.363 74.256 220.635 73.9147 220.816 73.488C221.008 73.0613 221.104 72.592 221.104 72.08C221.104 71.5787 221.008 71.1307 220.816 70.736C220.635 70.3307 220.363 70.0107 220 69.776C219.648 69.5413 219.211 69.424 218.688 69.424C218.176 69.424 217.733 69.5467 217.36 69.792C216.997 70.0373 216.715 70.368 216.512 70.784C216.32 71.1893 216.224 71.632 216.224 72.112C216.224 72.6027 216.315 73.0613 216.496 73.488C216.677 73.9147 216.944 74.256 217.296 74.512C217.659 74.768 218.112 74.896 218.656 74.896ZM225.491 76V68.768H223.443V67.568H226.883V70.784H228.755C229.256 70.784 229.704 70.8267 230.099 70.912C230.504 70.9867 230.845 71.1147 231.123 71.296C231.411 71.4773 231.629 71.728 231.779 72.048C231.939 72.368 232.019 72.768 232.019 73.248C232.019 73.7387 231.939 74.16 231.779 74.512C231.619 74.864 231.389 75.152 231.091 75.376C230.803 75.5893 230.461 75.7493 230.067 75.856C229.672 75.952 229.24 76 228.771 76H225.491ZM226.883 74.816H227.683C228.067 74.816 228.435 74.8107 228.787 74.8C229.149 74.7787 229.469 74.7253 229.747 74.64C230.024 74.5547 230.243 74.4053 230.403 74.192C230.563 73.9787 230.643 73.68 230.643 73.296C230.643 72.9867 230.579 72.7467 230.451 72.576C230.323 72.3947 230.152 72.2613 229.939 72.176C229.736 72.0907 229.507 72.0373 229.251 72.016C228.995 71.984 228.744 71.968 228.499 71.968H226.883V74.816ZM237.376 76.096C236.48 76.096 235.739 75.9147 235.152 75.552C234.566 75.1787 234.128 74.6667 233.84 74.016C233.552 73.3653 233.408 72.624 233.408 71.792C233.408 70.9493 233.558 70.208 233.856 69.568C234.166 68.9173 234.614 68.4053 235.2 68.032C235.787 67.6587 236.507 67.472 237.36 67.472C237.99 67.472 238.539 67.5947 239.008 67.84C239.488 68.0747 239.883 68.3947 240.192 68.8C240.512 69.2053 240.742 69.6587 240.88 70.16C241.03 70.6613 241.094 71.1787 241.072 71.712C241.062 71.808 241.056 71.904 241.056 72C241.056 72.096 241.051 72.192 241.04 72.288H234.784C234.827 72.7787 234.95 73.2213 235.152 73.616C235.355 74.0107 235.643 74.3253 236.016 74.56C236.39 74.784 236.854 74.896 237.408 74.896C237.686 74.896 237.963 74.864 238.24 74.8C238.528 74.7253 238.784 74.6027 239.008 74.432C239.243 74.2613 239.408 74.032 239.504 73.744H240.896C240.768 74.288 240.528 74.736 240.176 75.088C239.824 75.4293 239.403 75.6853 238.912 75.856C238.422 76.016 237.91 76.096 237.376 76.096ZM234.816 71.104H239.696C239.686 70.624 239.579 70.2027 239.376 69.84C239.174 69.4773 238.896 69.1947 238.544 68.992C238.203 68.7893 237.792 68.688 237.312 68.688C236.79 68.688 236.347 68.8 235.984 69.024C235.632 69.248 235.36 69.5413 235.168 69.904C234.976 70.2667 234.859 70.6667 234.816 71.104ZM242.9 76V67.568H244.26V71.2H245.732L248.228 67.568H249.78L246.964 71.584L250.02 76H248.42L245.892 72.384H244.26V76H242.9ZM253.165 76V68.768H250.269V67.568H257.421V68.768H254.525V76H253.165ZM262.947 76V67.568H266.211C266.584 67.568 266.952 67.5947 267.315 67.648C267.688 67.6907 268.024 67.7867 268.323 67.936C268.632 68.0747 268.878 68.2827 269.059 68.56C269.251 68.8373 269.347 69.2053 269.347 69.664C269.347 69.9413 269.304 70.1973 269.219 70.432C269.134 70.656 269.006 70.8533 268.835 71.024C268.675 71.1947 268.467 71.344 268.211 71.472C268.787 71.6 269.203 71.8507 269.459 72.224C269.715 72.5973 269.843 73.024 269.843 73.504C269.843 73.9307 269.763 74.304 269.603 74.624C269.454 74.9333 269.24 75.1893 268.963 75.392C268.696 75.5947 268.382 75.7493 268.019 75.856C267.667 75.952 267.288 76 266.883 76H262.947ZM264.339 74.816H266.563C266.894 74.816 267.203 74.784 267.491 74.72C267.779 74.656 268.014 74.5387 268.195 74.368C268.376 74.1867 268.467 73.9307 268.467 73.6C268.467 73.2587 268.387 73.0027 268.227 72.832C268.078 72.6507 267.88 72.528 267.635 72.464C267.4 72.3893 267.144 72.3467 266.867 72.336C266.59 72.3253 266.328 72.32 266.083 72.32H264.339V74.816ZM264.339 71.168H265.507C265.72 71.168 265.966 71.1573 266.243 71.136C266.531 71.1147 266.808 71.0667 267.075 70.992C267.352 70.9067 267.576 70.7787 267.747 70.608C267.928 70.4373 268.019 70.2027 268.019 69.904C268.019 69.5093 267.907 69.2373 267.683 69.088C267.47 68.928 267.214 68.8373 266.915 68.816C266.616 68.784 266.339 68.768 266.083 68.768H264.339V71.168ZM276.01 76V67.568H283.002V76H281.642V68.768H277.37V76H276.01ZM285.15 79.04V67.568H286.446L286.51 68.864C286.798 68.4053 287.187 68.0587 287.678 67.824C288.179 67.5893 288.718 67.472 289.294 67.472C290.147 67.472 290.846 67.664 291.39 68.048C291.934 68.4213 292.334 68.9333 292.59 69.584C292.857 70.2347 292.99 70.9707 292.99 71.792C292.99 72.6133 292.857 73.3493 292.59 74C292.323 74.6507 291.913 75.1627 291.358 75.536C290.803 75.9093 290.094 76.096 289.23 76.096C288.803 76.096 288.419 76.0533 288.078 75.968C287.737 75.872 287.438 75.7387 287.182 75.568C286.926 75.3973 286.702 75.2053 286.51 74.992V79.04H285.15ZM289.118 74.896C289.737 74.896 290.227 74.7573 290.59 74.48C290.953 74.192 291.214 73.8133 291.374 73.344C291.545 72.8747 291.63 72.3573 291.63 71.792C291.63 71.216 291.545 70.6933 291.374 70.224C291.214 69.7547 290.947 69.3813 290.574 69.104C290.201 68.8267 289.705 68.688 289.086 68.688C288.531 68.688 288.057 68.832 287.662 69.12C287.278 69.3973 286.985 69.776 286.782 70.256C286.579 70.7253 286.478 71.2427 286.478 71.808C286.478 72.3947 286.574 72.9227 286.766 73.392C286.958 73.8613 287.251 74.2293 287.646 74.496C288.041 74.7627 288.531 74.896 289.118 74.896ZM298.392 76.096C297.496 76.096 296.755 75.9147 296.168 75.552C295.581 75.1787 295.144 74.6667 294.856 74.016C294.568 73.3653 294.424 72.624 294.424 71.792C294.424 70.9493 294.573 70.208 294.872 69.568C295.181 68.9173 295.629 68.4053 296.216 68.032C296.803 67.6587 297.523 67.472 298.376 67.472C299.005 67.472 299.555 67.5947 300.024 67.84C300.504 68.0747 300.899 68.3947 301.208 68.8C301.528 69.2053 301.757 69.6587 301.896 70.16C302.045 70.6613 302.109 71.1787 302.088 71.712C302.077 71.808 302.072 71.904 302.072 72C302.072 72.096 302.067 72.192 302.056 72.288H295.8C295.843 72.7787 295.965 73.2213 296.168 73.616C296.371 74.0107 296.659 74.3253 297.032 74.56C297.405 74.784 297.869 74.896 298.424 74.896C298.701 74.896 298.979 74.864 299.256 74.8C299.544 74.7253 299.8 74.6027 300.024 74.432C300.259 74.2613 300.424 74.032 300.52 73.744H301.912C301.784 74.288 301.544 74.736 301.192 75.088C300.84 75.4293 300.419 75.6853 299.928 75.856C299.437 76.016 298.925 76.096 298.392 76.096ZM295.832 71.104H300.712C300.701 70.624 300.595 70.2027 300.392 69.84C300.189 69.4773 299.912 69.1947 299.56 68.992C299.219 68.7893 298.808 68.688 298.328 68.688C297.805 68.688 297.363 68.8 297 69.024C296.648 69.248 296.376 69.5413 296.184 69.904C295.992 70.2667 295.875 70.6667 295.832 71.104ZM303.008 78.592V74.816C303.318 74.816 303.563 74.7307 303.744 74.56C303.936 74.3893 304.086 74.1653 304.192 73.888C304.299 73.6107 304.379 73.312 304.432 72.992C304.486 72.6613 304.528 72.3467 304.56 72.048C304.614 71.5573 304.646 71.072 304.656 70.592C304.678 70.1013 304.688 69.712 304.688 69.424C304.699 69.1147 304.704 68.8053 304.704 68.496C304.704 68.1867 304.704 67.8773 304.704 67.568H310.688V74.816H311.792V78.592H310.48V76H304.32V78.592H303.008ZM305.168 74.816H309.328V68.768H306C305.99 69.216 305.979 69.7173 305.968 70.272C305.958 70.8267 305.936 71.344 305.904 71.824C305.894 72.1013 305.867 72.416 305.824 72.768C305.792 73.12 305.728 73.4773 305.632 73.84C305.536 74.192 305.382 74.5173 305.168 74.816ZM316.861 76.096C315.965 76.096 315.223 75.9147 314.637 75.552C314.05 75.1787 313.613 74.6667 313.325 74.016C313.037 73.3653 312.893 72.624 312.893 71.792C312.893 70.9493 313.042 70.208 313.341 69.568C313.65 68.9173 314.098 68.4053 314.685 68.032C315.271 67.6587 315.991 67.472 316.845 67.472C317.474 67.472 318.023 67.5947 318.493 67.84C318.973 68.0747 319.367 68.3947 319.677 68.8C319.997 69.2053 320.226 69.6587 320.365 70.16C320.514 70.6613 320.578 71.1787 320.557 71.712C320.546 71.808 320.541 71.904 320.541 72C320.541 72.096 320.535 72.192 320.525 72.288H314.269C314.311 72.7787 314.434 73.2213 314.637 73.616C314.839 74.0107 315.127 74.3253 315.501 74.56C315.874 74.784 316.338 74.896 316.893 74.896C317.17 74.896 317.447 74.864 317.725 74.8C318.013 74.7253 318.269 74.6027 318.493 74.432C318.727 74.2613 318.893 74.032 318.989 73.744H320.381C320.253 74.288 320.013 74.736 319.661 75.088C319.309 75.4293 318.887 75.6853 318.397 75.856C317.906 76.016 317.394 76.096 316.861 76.096ZM314.301 71.104H319.181C319.17 70.624 319.063 70.2027 318.861 69.84C318.658 69.4773 318.381 69.1947 318.029 68.992C317.687 68.7893 317.277 68.688 316.797 68.688C316.274 68.688 315.831 68.8 315.469 69.024C315.117 69.248 314.845 69.5413 314.653 69.904C314.461 70.2667 314.343 70.6667 314.301 71.104ZM321.538 76.016V74.832C321.752 74.832 321.944 74.7893 322.114 74.704C322.285 74.608 322.434 74.4693 322.562 74.288C322.712 74.0747 322.829 73.7653 322.914 73.36C323 72.9547 323.058 72.5227 323.09 72.064C323.133 71.552 323.165 71.0507 323.186 70.56C323.208 70.0587 323.224 69.5627 323.234 69.072C323.256 68.5813 323.266 68.08 323.266 67.568H329.122V76H327.762V68.768H324.594C324.584 69.1307 324.568 69.4987 324.546 69.872C324.536 70.2347 324.52 70.6027 324.498 70.976C324.488 71.3387 324.472 71.7067 324.45 72.08C324.44 72.5067 324.397 72.9867 324.322 73.52C324.248 74.0533 324.088 74.5387 323.842 74.976C323.608 75.392 323.32 75.6693 322.978 75.808C322.648 75.9467 322.168 76.016 321.538 76.016ZM333.964 76.096C333.58 76.096 333.206 76.048 332.844 75.952C332.492 75.8453 332.172 75.6907 331.884 75.488C331.606 75.2747 331.382 75.0133 331.212 74.704C331.052 74.384 330.972 74.016 330.972 73.6C330.972 73.12 331.057 72.7147 331.228 72.384C331.409 72.0533 331.649 71.792 331.948 71.6C332.246 71.408 332.593 71.2693 332.988 71.184C333.382 71.0987 333.793 71.056 334.22 71.056H336.7C336.7 70.576 336.63 70.16 336.492 69.808C336.364 69.456 336.15 69.184 335.852 68.992C335.553 68.7893 335.158 68.688 334.668 68.688C334.369 68.688 334.092 68.72 333.836 68.784C333.58 68.848 333.361 68.9493 333.18 69.088C332.998 69.2267 332.865 69.4133 332.78 69.648H331.324C331.398 69.264 331.542 68.9387 331.756 68.672C331.98 68.3947 332.246 68.1707 332.556 68C332.876 67.8187 333.217 67.6853 333.58 67.6C333.942 67.5147 334.305 67.472 334.668 67.472C335.478 67.472 336.129 67.6373 336.62 67.968C337.11 68.288 337.468 68.7467 337.692 69.344C337.916 69.9307 338.028 70.6293 338.028 71.44V76H336.892L336.812 74.928C336.577 75.248 336.294 75.4933 335.964 75.664C335.633 75.8347 335.292 75.9467 334.94 76C334.598 76.064 334.273 76.096 333.964 76.096ZM334.092 74.896C334.625 74.896 335.084 74.8107 335.468 74.64C335.862 74.4587 336.166 74.1973 336.38 73.856C336.593 73.5147 336.7 73.0987 336.7 72.608V72.192H335.212C334.86 72.192 334.513 72.1973 334.172 72.208C333.83 72.2187 333.521 72.2613 333.244 72.336C332.966 72.4107 332.742 72.5387 332.572 72.72C332.412 72.9013 332.332 73.1627 332.332 73.504C332.332 73.824 332.412 74.0853 332.572 74.288C332.742 74.4907 332.961 74.6453 333.228 74.752C333.505 74.848 333.793 74.896 334.092 74.896ZM339.287 76L342.295 71.696L339.431 67.568H341.062L343.207 70.768L345.287 67.568H346.871L344.023 71.744L347.079 76H345.463L343.127 72.784L340.823 76H339.287ZM106.072 96V87.568H113.064V96H111.704V88.768H107.432V96H106.072ZM114.445 96.016V94.832C114.658 94.832 114.85 94.7893 115.021 94.704C115.191 94.608 115.341 94.4693 115.469 94.288C115.618 94.0747 115.735 93.7653 115.821 93.36C115.906 92.9547 115.965 92.5227 115.997 92.064C116.039 91.552 116.071 91.0507 116.093 90.56C116.114 90.0587 116.13 89.5627 116.141 89.072C116.162 88.5813 116.173 88.08 116.173 87.568H122.029V96H120.669V88.768H117.501C117.49 89.1307 117.474 89.4987 117.453 89.872C117.442 90.2347 117.426 90.6027 117.405 90.976C117.394 91.3387 117.378 91.7067 117.357 92.08C117.346 92.5067 117.303 92.9867 117.229 93.52C117.154 94.0533 116.994 94.5387 116.749 94.976C116.514 95.392 116.226 95.6693 115.885 95.808C115.554 95.9467 115.074 96.016 114.445 96.016ZM127.846 96.096C126.96 96.096 126.219 95.9147 125.622 95.552C125.024 95.1787 124.576 94.6667 124.278 94.016C123.99 93.3653 123.846 92.624 123.846 91.792C123.846 90.9493 123.99 90.208 124.278 89.568C124.576 88.9173 125.024 88.4053 125.622 88.032C126.219 87.6587 126.971 87.472 127.878 87.472C128.763 87.472 129.499 87.6587 130.086 88.032C130.683 88.4053 131.126 88.9173 131.414 89.568C131.712 90.208 131.862 90.9493 131.862 91.792C131.862 92.624 131.712 93.3653 131.414 94.016C131.115 94.6667 130.667 95.1787 130.07 95.552C129.483 95.9147 128.742 96.096 127.846 96.096ZM127.846 94.896C128.464 94.896 128.966 94.7573 129.35 94.48C129.744 94.2027 130.032 93.8293 130.214 93.36C130.406 92.8907 130.502 92.368 130.502 91.792C130.502 91.216 130.406 90.6933 130.214 90.224C130.032 89.7547 129.744 89.3813 129.35 89.104C128.966 88.8267 128.464 88.688 127.846 88.688C127.238 88.688 126.736 88.8267 126.342 89.104C125.958 89.3813 125.67 89.7547 125.478 90.224C125.296 90.6933 125.206 91.216 125.206 91.792C125.206 92.368 125.296 92.8907 125.478 93.36C125.67 93.8293 125.958 94.2027 126.342 94.48C126.736 94.7573 127.238 94.896 127.846 94.896ZM137.281 96.096C136.396 96.096 135.66 95.9147 135.073 95.552C134.497 95.1787 134.065 94.6667 133.777 94.016C133.5 93.3653 133.361 92.6293 133.361 91.808C133.361 91.008 133.505 90.2827 133.793 89.632C134.092 88.9707 134.54 88.448 135.137 88.064C135.745 87.6693 136.513 87.472 137.441 87.472C138.017 87.472 138.529 87.568 138.977 87.76C139.436 87.952 139.815 88.2347 140.113 88.608C140.412 88.9707 140.62 89.4293 140.737 89.984H139.345C139.185 89.5147 138.929 89.184 138.577 88.992C138.236 88.7893 137.831 88.688 137.361 88.688C136.721 88.688 136.209 88.8373 135.825 89.136C135.441 89.4347 135.159 89.824 134.977 90.304C134.807 90.7733 134.721 91.2747 134.721 91.808C134.721 92.3627 134.812 92.8747 134.993 93.344C135.175 93.8133 135.457 94.192 135.841 94.48C136.225 94.7573 136.721 94.896 137.329 94.896C137.777 94.896 138.199 94.8 138.593 94.608C138.999 94.416 139.265 94.0747 139.393 93.584H140.801C140.695 94.16 140.465 94.6347 140.113 95.008C139.772 95.3813 139.351 95.6587 138.849 95.84C138.359 96.0107 137.836 96.096 137.281 96.096ZM142.525 96V87.568H143.885V91.2H145.357L147.853 87.568H149.405L146.589 91.584L149.645 96H148.045L145.517 92.384H143.885V96H142.525ZM154.346 96.096C153.46 96.096 152.719 95.9147 152.122 95.552C151.524 95.1787 151.076 94.6667 150.778 94.016C150.49 93.3653 150.346 92.624 150.346 91.792C150.346 90.9493 150.49 90.208 150.778 89.568C151.076 88.9173 151.524 88.4053 152.122 88.032C152.719 87.6587 153.471 87.472 154.378 87.472C155.263 87.472 155.999 87.6587 156.586 88.032C157.183 88.4053 157.626 88.9173 157.914 89.568C158.212 90.208 158.362 90.9493 158.362 91.792C158.362 92.624 158.212 93.3653 157.914 94.016C157.615 94.6667 157.167 95.1787 156.57 95.552C155.983 95.9147 155.242 96.096 154.346 96.096ZM154.346 94.896C154.964 94.896 155.466 94.7573 155.85 94.48C156.244 94.2027 156.532 93.8293 156.714 93.36C156.906 92.8907 157.002 92.368 157.002 91.792C157.002 91.216 156.906 90.6933 156.714 90.224C156.532 89.7547 156.244 89.3813 155.85 89.104C155.466 88.8267 154.964 88.688 154.346 88.688C153.738 88.688 153.236 88.8267 152.842 89.104C152.458 89.3813 152.17 89.7547 151.978 90.224C151.796 90.6933 151.706 91.216 151.706 91.792C151.706 92.368 151.796 92.8907 151.978 93.36C152.17 93.8293 152.458 94.2027 152.842 94.48C153.236 94.7573 153.738 94.896 154.346 94.896ZM163.781 96.096C162.896 96.096 162.16 95.9147 161.573 95.552C160.997 95.1787 160.565 94.6667 160.277 94.016C160 93.3653 159.861 92.6293 159.861 91.808C159.861 91.008 160.005 90.2827 160.293 89.632C160.592 88.9707 161.04 88.448 161.637 88.064C162.245 87.6693 163.013 87.472 163.941 87.472C164.517 87.472 165.029 87.568 165.477 87.76C165.936 87.952 166.315 88.2347 166.613 88.608C166.912 88.9707 167.12 89.4293 167.237 89.984H165.845C165.685 89.5147 165.429 89.184 165.077 88.992C164.736 88.7893 164.331 88.688 163.861 88.688C163.221 88.688 162.709 88.8373 162.325 89.136C161.941 89.4347 161.659 89.824 161.477 90.304C161.307 90.7733 161.221 91.2747 161.221 91.808C161.221 92.3627 161.312 92.8747 161.493 93.344C161.675 93.8133 161.957 94.192 162.341 94.48C162.725 94.7573 163.221 94.896 163.829 94.896C164.277 94.896 164.699 94.8 165.093 94.608C165.499 94.416 165.765 94.0747 165.893 93.584H167.301C167.195 94.16 166.965 94.6347 166.613 95.008C166.272 95.3813 165.851 95.6587 165.349 95.84C164.859 96.0107 164.336 96.096 163.781 96.096ZM170.993 96V88.768H168.097V87.568H175.249V88.768H172.353V96H170.993ZM176.463 96V87.568H177.823V94.032C177.897 93.8827 177.999 93.7227 178.127 93.552C178.255 93.3707 178.356 93.232 178.431 93.136L182.511 87.568H183.855V96H182.495V89.536C182.409 89.696 182.313 89.8453 182.207 89.984C182.111 90.1227 182.02 90.2507 181.935 90.368L177.791 96H176.463ZM190.306 96V87.568H197.298V96H195.938V88.768H191.666V96H190.306ZM203.127 96.096C202.242 96.096 201.5 95.9147 200.903 95.552C200.306 95.1787 199.858 94.6667 199.559 94.016C199.271 93.3653 199.127 92.624 199.127 91.792C199.127 90.9493 199.271 90.208 199.559 89.568C199.858 88.9173 200.306 88.4053 200.903 88.032C201.5 87.6587 202.252 87.472 203.159 87.472C204.044 87.472 204.78 87.6587 205.367 88.032C205.964 88.4053 206.407 88.9173 206.695 89.568C206.994 90.208 207.143 90.9493 207.143 91.792C207.143 92.624 206.994 93.3653 206.695 94.016C206.396 94.6667 205.948 95.1787 205.351 95.552C204.764 95.9147 204.023 96.096 203.127 96.096ZM203.127 94.896C203.746 94.896 204.247 94.7573 204.631 94.48C205.026 94.2027 205.314 93.8293 205.495 93.36C205.687 92.8907 205.783 92.368 205.783 91.792C205.783 91.216 205.687 90.6933 205.495 90.224C205.314 89.7547 205.026 89.3813 204.631 89.104C204.247 88.8267 203.746 88.688 203.127 88.688C202.519 88.688 202.018 88.8267 201.623 89.104C201.239 89.3813 200.951 89.7547 200.759 90.224C200.578 90.6933 200.487 91.216 200.487 91.792C200.487 92.368 200.578 92.8907 200.759 93.36C200.951 93.8293 201.239 94.2027 201.623 94.48C202.018 94.7573 202.519 94.896 203.127 94.896ZM208.117 96.016V94.832C208.33 94.832 208.522 94.7893 208.693 94.704C208.863 94.608 209.013 94.4693 209.141 94.288C209.29 94.0747 209.407 93.7653 209.493 93.36C209.578 92.9547 209.637 92.5227 209.669 92.064C209.711 91.552 209.743 91.0507 209.765 90.56C209.786 90.0587 209.802 89.5627 209.812 89.072C209.834 88.5813 209.845 88.08 209.845 87.568H215.701V96H214.341V88.768H211.173C211.162 89.1307 211.146 89.4987 211.125 89.872C211.114 90.2347 211.098 90.6027 211.077 90.976C211.066 91.3387 211.05 91.7067 211.029 92.08C211.018 92.5067 210.975 92.9867 210.901 93.52C210.826 94.0533 210.666 94.5387 210.421 94.976C210.186 95.392 209.898 95.6693 209.557 95.808C209.226 95.9467 208.746 96.016 208.117 96.016ZM220.542 96.096C220.158 96.096 219.784 96.048 219.422 95.952C219.07 95.8453 218.75 95.6907 218.462 95.488C218.184 95.2747 217.96 95.0133 217.79 94.704C217.63 94.384 217.55 94.016 217.55 93.6C217.55 93.12 217.635 92.7147 217.806 92.384C217.987 92.0533 218.227 91.792 218.526 91.6C218.824 91.408 219.171 91.2693 219.566 91.184C219.96 91.0987 220.371 91.056 220.798 91.056H223.278C223.278 90.576 223.208 90.16 223.07 89.808C222.942 89.456 222.728 89.184 222.43 88.992C222.131 88.7893 221.736 88.688 221.246 88.688C220.947 88.688 220.67 88.72 220.414 88.784C220.158 88.848 219.939 88.9493 219.758 89.088C219.576 89.2267 219.443 89.4133 219.358 89.648H217.902C217.976 89.264 218.12 88.9387 218.334 88.672C218.558 88.3947 218.824 88.1707 219.134 88C219.454 87.8187 219.795 87.6853 220.158 87.6C220.52 87.5147 220.883 87.472 221.246 87.472C222.056 87.472 222.707 87.6373 223.198 87.968C223.688 88.288 224.046 88.7467 224.27 89.344C224.494 89.9307 224.606 90.6293 224.606 91.44V96H223.47L223.39 94.928C223.155 95.248 222.872 95.4933 222.542 95.664C222.211 95.8347 221.87 95.9467 221.518 96C221.176 96.064 220.851 96.096 220.542 96.096ZM220.67 94.896C221.203 94.896 221.662 94.8107 222.046 94.64C222.44 94.4587 222.744 94.1973 222.958 93.856C223.171 93.5147 223.278 93.0987 223.278 92.608V92.192H221.79C221.438 92.192 221.091 92.1973 220.75 92.208C220.408 92.2187 220.099 92.2613 219.822 92.336C219.544 92.4107 219.32 92.5387 219.15 92.72C218.99 92.9013 218.91 93.1627 218.91 93.504C218.91 93.824 218.99 94.0853 219.15 94.288C219.32 94.4907 219.539 94.6453 219.806 94.752C220.083 94.848 220.371 94.896 220.67 94.896ZM227.673 96.128C227.395 96.128 227.166 96.0373 226.985 95.856C226.803 95.6747 226.713 95.4453 226.713 95.168C226.713 94.8907 226.803 94.6613 226.985 94.48C227.166 94.2987 227.395 94.208 227.673 94.208C227.95 94.208 228.179 94.2987 228.361 94.48C228.542 94.6613 228.633 94.8907 228.633 95.168C228.633 95.4453 228.542 95.6747 228.361 95.856C228.179 96.0373 227.95 96.128 227.673 96.128ZM234.923 96V84.688H243.819V96H242.427V85.952H236.315V96H234.923ZM249.971 96.096C249.085 96.096 248.344 95.9147 247.747 95.552C247.149 95.1787 246.701 94.6667 246.403 94.016C246.115 93.3653 245.971 92.624 245.971 91.792C245.971 90.9493 246.115 90.208 246.403 89.568C246.701 88.9173 247.149 88.4053 247.747 88.032C248.344 87.6587 249.096 87.472 250.003 87.472C250.888 87.472 251.624 87.6587 252.211 88.032C252.808 88.4053 253.251 88.9173 253.539 89.568C253.837 90.208 253.987 90.9493 253.987 91.792C253.987 92.624 253.837 93.3653 253.539 94.016C253.24 94.6667 252.792 95.1787 252.195 95.552C251.608 95.9147 250.867 96.096 249.971 96.096ZM249.971 94.896C250.589 94.896 251.091 94.7573 251.475 94.48C251.869 94.2027 252.157 93.8293 252.339 93.36C252.531 92.8907 252.627 92.368 252.627 91.792C252.627 91.216 252.531 90.6933 252.339 90.224C252.157 89.7547 251.869 89.3813 251.475 89.104C251.091 88.8267 250.589 88.688 249.971 88.688C249.363 88.688 248.861 88.8267 248.467 89.104C248.083 89.3813 247.795 89.7547 247.603 90.224C247.421 90.6933 247.331 91.216 247.331 91.792C247.331 92.368 247.421 92.8907 247.603 93.36C247.795 93.8293 248.083 94.2027 248.467 94.48C248.861 94.7573 249.363 94.896 249.971 94.896ZM259.406 96.096C258.521 96.096 257.785 95.9147 257.198 95.552C256.622 95.1787 256.19 94.6667 255.902 94.016C255.625 93.3653 255.486 92.6293 255.486 91.808C255.486 91.008 255.63 90.2827 255.918 89.632C256.217 88.9707 256.665 88.448 257.262 88.064C257.87 87.6693 258.638 87.472 259.566 87.472C260.142 87.472 260.654 87.568 261.102 87.76C261.561 87.952 261.94 88.2347 262.238 88.608C262.537 88.9707 262.745 89.4293 262.862 89.984H261.47C261.31 89.5147 261.054 89.184 260.702 88.992C260.361 88.7893 259.956 88.688 259.486 88.688C258.846 88.688 258.334 88.8373 257.95 89.136C257.566 89.4347 257.284 89.824 257.102 90.304C256.932 90.7733 256.846 91.2747 256.846 91.808C256.846 92.3627 256.937 92.8747 257.118 93.344C257.3 93.8133 257.582 94.192 257.966 94.48C258.35 94.7573 258.846 94.896 259.454 94.896C259.902 94.896 260.324 94.8 260.718 94.608C261.124 94.416 261.39 94.0747 261.518 93.584H262.926C262.82 94.16 262.59 94.6347 262.238 95.008C261.897 95.3813 261.476 95.6587 260.974 95.84C260.484 96.0107 259.961 96.096 259.406 96.096ZM263.804 96.016V94.832C264.017 94.832 264.209 94.7893 264.38 94.704C264.551 94.608 264.7 94.4693 264.828 94.288C264.977 94.0747 265.095 93.7653 265.18 93.36C265.265 92.9547 265.324 92.5227 265.356 92.064C265.399 91.552 265.431 91.0507 265.452 90.56C265.473 90.0587 265.489 89.5627 265.5 89.072C265.521 88.5813 265.532 88.08 265.532 87.568H271.388V96H270.028V88.768H266.86C266.849 89.1307 266.833 89.4987 266.812 89.872C266.801 90.2347 266.785 90.6027 266.764 90.976C266.753 91.3387 266.737 91.7067 266.716 92.08C266.705 92.5067 266.663 92.9867 266.588 93.52C266.513 94.0533 266.353 94.5387 266.108 94.976C265.873 95.392 265.585 95.6693 265.244 95.808C264.913 95.9467 264.433 96.016 263.804 96.016ZM277.173 96.096C276.277 96.096 275.536 95.9147 274.949 95.552C274.362 95.1787 273.925 94.6667 273.637 94.016C273.349 93.3653 273.205 92.624 273.205 91.792C273.205 90.9493 273.354 90.208 273.653 89.568C273.962 88.9173 274.41 88.4053 274.997 88.032C275.584 87.6587 276.304 87.472 277.157 87.472C277.786 87.472 278.336 87.5947 278.805 87.84C279.285 88.0747 279.68 88.3947 279.989 88.8C280.309 89.2053 280.538 89.6587 280.677 90.16C280.826 90.6613 280.89 91.1787 280.869 91.712C280.858 91.808 280.853 91.904 280.853 92C280.853 92.096 280.848 92.192 280.837 92.288H274.581C274.624 92.7787 274.746 93.2213 274.949 93.616C275.152 94.0107 275.44 94.3253 275.813 94.56C276.186 94.784 276.65 94.896 277.205 94.896C277.482 94.896 277.76 94.864 278.037 94.8C278.325 94.7253 278.581 94.6027 278.805 94.432C279.04 94.2613 279.205 94.032 279.301 93.744H280.693C280.565 94.288 280.325 94.736 279.973 95.088C279.621 95.4293 279.2 95.6853 278.709 95.856C278.218 96.016 277.706 96.096 277.173 96.096ZM274.613 91.104H279.493C279.482 90.624 279.376 90.2027 279.173 89.84C278.97 89.4773 278.693 89.1947 278.341 88.992C278 88.7893 277.589 88.688 277.109 88.688C276.586 88.688 276.144 88.8 275.781 89.024C275.429 89.248 275.157 89.5413 274.965 89.904C274.773 90.2667 274.656 90.6667 274.613 91.104ZM287.01 96V87.568H290.274C290.647 87.568 291.015 87.5947 291.378 87.648C291.751 87.6907 292.087 87.7867 292.386 87.936C292.695 88.0747 292.94 88.2827 293.122 88.56C293.314 88.8373 293.41 89.2053 293.41 89.664C293.41 89.9413 293.367 90.1973 293.282 90.432C293.196 90.656 293.068 90.8533 292.898 91.024C292.738 91.1947 292.53 91.344 292.274 91.472C292.85 91.6 293.266 91.8507 293.522 92.224C293.778 92.5973 293.906 93.024 293.906 93.504C293.906 93.9307 293.826 94.304 293.666 94.624C293.516 94.9333 293.303 95.1893 293.026 95.392C292.759 95.5947 292.444 95.7493 292.082 95.856C291.73 95.952 291.351 96 290.946 96H287.01ZM288.402 94.816H290.626C290.956 94.816 291.266 94.784 291.554 94.72C291.842 94.656 292.076 94.5387 292.258 94.368C292.439 94.1867 292.53 93.9307 292.53 93.6C292.53 93.2587 292.45 93.0027 292.29 92.832C292.14 92.6507 291.943 92.528 291.698 92.464C291.463 92.3893 291.207 92.3467 290.93 92.336C290.652 92.3253 290.391 92.32 290.146 92.32H288.402V94.816ZM288.402 91.168H289.57C289.783 91.168 290.028 91.1573 290.306 91.136C290.594 91.1147 290.871 91.0667 291.138 90.992C291.415 90.9067 291.639 90.7787 291.81 90.608C291.991 90.4373 292.082 90.2027 292.082 89.904C292.082 89.5093 291.97 89.2373 291.746 89.088C291.532 88.928 291.276 88.8373 290.978 88.816C290.679 88.784 290.402 88.768 290.146 88.768H288.402V91.168ZM295.76 96V87.568H297.152V90.784H298.672C299.173 90.784 299.626 90.8267 300.032 90.912C300.437 90.9973 300.784 91.136 301.072 91.328C301.36 91.52 301.578 91.7813 301.728 92.112C301.877 92.432 301.952 92.8373 301.952 93.328C301.952 93.7973 301.872 94.2027 301.712 94.544C301.552 94.8853 301.322 95.1627 301.024 95.376C300.736 95.5893 300.389 95.7493 299.984 95.856C299.589 95.952 299.157 96 298.688 96H295.76ZM297.152 94.816H297.6C297.973 94.816 298.336 94.8107 298.688 94.8C299.04 94.7787 299.354 94.7253 299.632 94.64C299.92 94.5547 300.149 94.416 300.32 94.224C300.49 94.0213 300.576 93.7387 300.576 93.376C300.576 93.0347 300.506 92.7733 300.368 92.592C300.24 92.4 300.069 92.2613 299.856 92.176C299.642 92.08 299.408 92.0213 299.152 92C298.906 91.9787 298.661 91.968 298.416 91.968H297.152V94.816ZM303.12 96V87.568H304.48V96H303.12ZM310.171 96.096C309.638 96.096 309.163 96.0213 308.747 95.872C308.331 95.712 307.974 95.4933 307.675 95.216C307.376 94.928 307.131 94.592 306.939 94.208C306.747 93.8133 306.603 93.3867 306.507 92.928C306.411 92.4693 306.363 91.984 306.363 91.472C306.363 90.6507 306.379 89.888 306.411 89.184C306.454 88.4693 306.571 87.8347 306.763 87.28C306.955 86.7147 307.28 86.2453 307.739 85.872C308.198 85.4987 308.843 85.2373 309.675 85.088C310.102 85.0133 310.523 84.9493 310.939 84.896C311.355 84.8427 311.776 84.7893 312.203 84.736C312.342 84.7147 312.486 84.6933 312.635 84.672C312.784 84.6507 312.939 84.624 313.099 84.592C313.27 84.56 313.43 84.5333 313.579 84.512V85.76C313.462 85.8027 313.334 85.84 313.195 85.872C313.067 85.8933 312.928 85.9147 312.779 85.936C312.64 85.9573 312.496 85.9733 312.347 85.984C312.208 85.9947 312.07 86.0107 311.931 86.032C311.792 86.0427 311.659 86.0587 311.531 86.08C311.158 86.1227 310.763 86.1653 310.347 86.208C309.931 86.24 309.536 86.3253 309.163 86.464C308.8 86.592 308.491 86.8427 308.235 87.216C308.107 87.408 307.995 87.6373 307.899 87.904C307.814 88.1707 307.75 88.4427 307.707 88.72C307.675 88.9867 307.654 89.2427 307.643 89.488C307.856 89.1893 308.118 88.9493 308.427 88.768C308.736 88.576 309.067 88.4373 309.419 88.352C309.771 88.256 310.107 88.208 310.427 88.208C311.195 88.208 311.846 88.368 312.379 88.688C312.912 88.9973 313.318 89.44 313.595 90.016C313.872 90.592 314.011 91.264 314.011 92.032C314.011 92.8 313.862 93.4933 313.563 94.112C313.264 94.72 312.827 95.2053 312.251 95.568C311.686 95.92 310.992 96.096 310.171 96.096ZM310.203 94.896C310.736 94.896 311.184 94.768 311.547 94.512C311.91 94.256 312.182 93.9147 312.363 93.488C312.555 93.0613 312.651 92.592 312.651 92.08C312.651 91.5787 312.555 91.1307 312.363 90.736C312.182 90.3307 311.91 90.0107 311.547 89.776C311.195 89.5413 310.758 89.424 310.235 89.424C309.723 89.424 309.28 89.5467 308.907 89.792C308.544 90.0373 308.262 90.368 308.059 90.784C307.867 91.1893 307.771 91.632 307.771 92.112C307.771 92.6027 307.862 93.0613 308.043 93.488C308.224 93.9147 308.491 94.256 308.843 94.512C309.206 94.768 309.659 94.896 310.203 94.896ZM319.518 96.096C318.632 96.096 317.891 95.9147 317.294 95.552C316.696 95.1787 316.248 94.6667 315.95 94.016C315.662 93.3653 315.518 92.624 315.518 91.792C315.518 90.9493 315.662 90.208 315.95 89.568C316.248 88.9173 316.696 88.4053 317.294 88.032C317.891 87.6587 318.643 87.472 319.55 87.472C320.435 87.472 321.171 87.6587 321.758 88.032C322.355 88.4053 322.798 88.9173 323.086 89.568C323.384 90.208 323.534 90.9493 323.534 91.792C323.534 92.624 323.384 93.3653 323.086 94.016C322.787 94.6667 322.339 95.1787 321.742 95.552C321.155 95.9147 320.414 96.096 319.518 96.096ZM319.518 94.896C320.136 94.896 320.638 94.7573 321.022 94.48C321.416 94.2027 321.704 93.8293 321.886 93.36C322.078 92.8907 322.174 92.368 322.174 91.792C322.174 91.216 322.078 90.6933 321.886 90.224C321.704 89.7547 321.416 89.3813 321.022 89.104C320.638 88.8267 320.136 88.688 319.518 88.688C318.91 88.688 318.408 88.8267 318.014 89.104C317.63 89.3813 317.342 89.7547 317.15 90.224C316.968 90.6933 316.878 91.216 316.878 91.792C316.878 92.368 316.968 92.8907 317.15 93.36C317.342 93.8293 317.63 94.2027 318.014 94.48C318.408 94.7573 318.91 94.896 319.518 94.896ZM325.353 99.04V87.568H326.649L326.713 88.864C327.001 88.4053 327.391 88.0587 327.881 87.824C328.383 87.5893 328.921 87.472 329.497 87.472C330.351 87.472 331.049 87.664 331.593 88.048C332.137 88.4213 332.537 88.9333 332.793 89.584C333.06 90.2347 333.193 90.9707 333.193 91.792C333.193 92.6133 333.06 93.3493 332.793 94C332.527 94.6507 332.116 95.1627 331.561 95.536C331.007 95.9093 330.297 96.096 329.433 96.096C329.007 96.096 328.623 96.0533 328.281 95.968C327.94 95.872 327.641 95.7387 327.385 95.568C327.129 95.3973 326.905 95.2053 326.713 94.992V99.04H325.353ZM329.321 94.896C329.94 94.896 330.431 94.7573 330.793 94.48C331.156 94.192 331.417 93.8133 331.577 93.344C331.748 92.8747 331.833 92.3573 331.833 91.792C331.833 91.216 331.748 90.6933 331.577 90.224C331.417 89.7547 331.151 89.3813 330.777 89.104C330.404 88.8267 329.908 88.688 329.289 88.688C328.735 88.688 328.26 88.832 327.865 89.12C327.481 89.3973 327.188 89.776 326.985 90.256C326.783 90.7253 326.681 91.2427 326.681 91.808C326.681 92.3947 326.777 92.9227 326.969 93.392C327.161 93.8613 327.455 94.2293 327.849 94.496C328.244 94.7627 328.735 94.896 329.321 94.896ZM337.651 96.096C337.267 96.096 336.894 96.048 336.531 95.952C336.179 95.8453 335.859 95.6907 335.571 95.488C335.294 95.2747 335.07 95.0133 334.899 94.704C334.739 94.384 334.659 94.016 334.659 93.6C334.659 93.12 334.744 92.7147 334.915 92.384C335.096 92.0533 335.336 91.792 335.635 91.6C335.934 91.408 336.28 91.2693 336.675 91.184C337.07 91.0987 337.48 91.056 337.907 91.056H340.387C340.387 90.576 340.318 90.16 340.179 89.808C340.051 89.456 339.838 89.184 339.539 88.992C339.24 88.7893 338.846 88.688 338.355 88.688C338.056 88.688 337.779 88.72 337.523 88.784C337.267 88.848 337.048 88.9493 336.867 89.088C336.686 89.2267 336.552 89.4133 336.467 89.648H335.011C335.086 89.264 335.23 88.9387 335.443 88.672C335.667 88.3947 335.934 88.1707 336.243 88C336.563 87.8187 336.904 87.6853 337.267 87.6C337.63 87.5147 337.992 87.472 338.355 87.472C339.166 87.472 339.816 87.6373 340.307 87.968C340.798 88.288 341.155 88.7467 341.379 89.344C341.603 89.9307 341.715 90.6293 341.715 91.44V96H340.579L340.499 94.928C340.264 95.248 339.982 95.4933 339.651 95.664C339.32 95.8347 338.979 95.9467 338.627 96C338.286 96.064 337.96 96.096 337.651 96.096ZM337.779 94.896C338.312 94.896 338.771 94.8107 339.155 94.64C339.55 94.4587 339.854 94.1973 340.067 93.856C340.28 93.5147 340.387 93.0987 340.387 92.608V92.192H338.899C338.547 92.192 338.2 92.1973 337.859 92.208C337.518 92.2187 337.208 92.2613 336.931 92.336C336.654 92.4107 336.43 92.5387 336.259 92.72C336.099 92.9013 336.019 93.1627 336.019 93.504C336.019 93.824 336.099 94.0853 336.259 94.288C336.43 94.4907 336.648 94.6453 336.915 94.752C337.192 94.848 337.48 94.896 337.779 94.896ZM109.752 116.096C108.867 116.096 108.125 115.915 107.528 115.552C106.931 115.179 106.483 114.667 106.184 114.016C105.896 113.365 105.752 112.624 105.752 111.792C105.752 110.949 105.896 110.208 106.184 109.568C106.483 108.917 106.931 108.405 107.528 108.032C108.125 107.659 108.877 107.472 109.784 107.472C110.669 107.472 111.405 107.659 111.992 108.032C112.589 108.405 113.032 108.917 113.32 109.568C113.619 110.208 113.768 110.949 113.768 111.792C113.768 112.624 113.619 113.365 113.32 114.016C113.021 114.667 112.573 115.179 111.976 115.552C111.389 115.915 110.648 116.096 109.752 116.096ZM109.752 114.896C110.371 114.896 110.872 114.757 111.256 114.48C111.651 114.203 111.939 113.829 112.12 113.36C112.312 112.891 112.408 112.368 112.408 111.792C112.408 111.216 112.312 110.693 112.12 110.224C111.939 109.755 111.651 109.381 111.256 109.104C110.872 108.827 110.371 108.688 109.752 108.688C109.144 108.688 108.643 108.827 108.248 109.104C107.864 109.381 107.576 109.755 107.384 110.224C107.203 110.693 107.112 111.216 107.112 111.792C107.112 112.368 107.203 112.891 107.384 113.36C107.576 113.829 107.864 114.203 108.248 114.48C108.643 114.757 109.144 114.896 109.752 114.896ZM119.296 116.096C118.763 116.096 118.288 116.021 117.872 115.872C117.456 115.712 117.099 115.493 116.8 115.216C116.501 114.928 116.256 114.592 116.064 114.208C115.872 113.813 115.728 113.387 115.632 112.928C115.536 112.469 115.488 111.984 115.488 111.472C115.488 110.651 115.504 109.888 115.536 109.184C115.579 108.469 115.696 107.835 115.888 107.28C116.08 106.715 116.405 106.245 116.864 105.872C117.323 105.499 117.968 105.237 118.8 105.088C119.227 105.013 119.648 104.949 120.064 104.896C120.48 104.843 120.901 104.789 121.328 104.736C121.467 104.715 121.611 104.693 121.76 104.672C121.909 104.651 122.064 104.624 122.224 104.592C122.395 104.56 122.555 104.533 122.704 104.512V105.76C122.587 105.803 122.459 105.84 122.32 105.872C122.192 105.893 122.053 105.915 121.904 105.936C121.765 105.957 121.621 105.973 121.472 105.984C121.333 105.995 121.195 106.011 121.056 106.032C120.917 106.043 120.784 106.059 120.656 106.08C120.283 106.123 119.888 106.165 119.472 106.208C119.056 106.24 118.661 106.325 118.288 106.464C117.925 106.592 117.616 106.843 117.36 107.216C117.232 107.408 117.12 107.637 117.024 107.904C116.939 108.171 116.875 108.443 116.832 108.72C116.8 108.987 116.779 109.243 116.768 109.488C116.981 109.189 117.243 108.949 117.552 108.768C117.861 108.576 118.192 108.437 118.544 108.352C118.896 108.256 119.232 108.208 119.552 108.208C120.32 108.208 120.971 108.368 121.504 108.688C122.037 108.997 122.443 109.44 122.72 110.016C122.997 110.592 123.136 111.264 123.136 112.032C123.136 112.8 122.987 113.493 122.688 114.112C122.389 114.72 121.952 115.205 121.376 115.568C120.811 115.92 120.117 116.096 119.296 116.096ZM119.328 114.896C119.861 114.896 120.309 114.768 120.672 114.512C121.035 114.256 121.307 113.915 121.488 113.488C121.68 113.061 121.776 112.592 121.776 112.08C121.776 111.579 121.68 111.131 121.488 110.736C121.307 110.331 121.035 110.011 120.672 109.776C120.32 109.541 119.883 109.424 119.36 109.424C118.848 109.424 118.405 109.547 118.032 109.792C117.669 110.037 117.387 110.368 117.184 110.784C116.992 111.189 116.896 111.632 116.896 112.112C116.896 112.603 116.987 113.061 117.168 113.488C117.349 113.915 117.616 114.256 117.968 114.512C118.331 114.768 118.784 114.896 119.328 114.896ZM126.163 116V108.768H124.115V107.568H127.555V110.784H129.427C129.928 110.784 130.376 110.827 130.771 110.912C131.176 110.987 131.517 111.115 131.795 111.296C132.083 111.477 132.301 111.728 132.451 112.048C132.611 112.368 132.691 112.768 132.691 113.248C132.691 113.739 132.611 114.16 132.451 114.512C132.291 114.864 132.061 115.152 131.763 115.376C131.475 115.589 131.133 115.749 130.739 115.856C130.344 115.952 129.912 116 129.443 116H126.163ZM127.555 114.816H128.355C128.739 114.816 129.107 114.811 129.459 114.8C129.821 114.779 130.141 114.725 130.419 114.64C130.696 114.555 130.915 114.405 131.075 114.192C131.235 113.979 131.315 113.68 131.315 113.296C131.315 112.987 131.251 112.747 131.123 112.576C130.995 112.395 130.824 112.261 130.611 112.176C130.408 112.091 130.179 112.037 129.923 112.016C129.667 111.984 129.416 111.968 129.171 111.968H127.555V114.816ZM138.048 116.096C137.152 116.096 136.411 115.915 135.824 115.552C135.237 115.179 134.8 114.667 134.512 114.016C134.224 113.365 134.08 112.624 134.08 111.792C134.08 110.949 134.229 110.208 134.528 109.568C134.837 108.917 135.285 108.405 135.872 108.032C136.459 107.659 137.179 107.472 138.032 107.472C138.661 107.472 139.211 107.595 139.68 107.84C140.16 108.075 140.555 108.395 140.864 108.8C141.184 109.205 141.413 109.659 141.552 110.16C141.701 110.661 141.765 111.179 141.744 111.712C141.733 111.808 141.728 111.904 141.728 112C141.728 112.096 141.723 112.192 141.712 112.288H135.456C135.499 112.779 135.621 113.221 135.824 113.616C136.027 114.011 136.315 114.325 136.688 114.56C137.061 114.784 137.525 114.896 138.08 114.896C138.357 114.896 138.635 114.864 138.912 114.8C139.2 114.725 139.456 114.603 139.68 114.432C139.915 114.261 140.08 114.032 140.176 113.744H141.568C141.44 114.288 141.2 114.736 140.848 115.088C140.496 115.429 140.075 115.685 139.584 115.856C139.093 116.016 138.581 116.096 138.048 116.096ZM135.488 111.104H140.368C140.357 110.624 140.251 110.203 140.048 109.84C139.845 109.477 139.568 109.195 139.216 108.992C138.875 108.789 138.464 108.688 137.984 108.688C137.461 108.688 137.019 108.8 136.656 109.024C136.304 109.248 136.032 109.541 135.84 109.904C135.648 110.267 135.531 110.667 135.488 111.104ZM143.572 116V107.568H144.932V111.2H146.404L148.9 107.568H150.452L147.636 111.584L150.692 116H149.092L146.564 112.384H144.932V116H143.572ZM153.837 116V108.768H150.941V107.568H158.093V108.768H155.197V116H153.837ZM162.01 116.096C161.626 116.096 161.253 116.048 160.89 115.952C160.538 115.845 160.218 115.691 159.93 115.488C159.653 115.275 159.429 115.013 159.258 114.704C159.098 114.384 159.018 114.016 159.018 113.6C159.018 113.12 159.104 112.715 159.274 112.384C159.456 112.053 159.696 111.792 159.994 111.6C160.293 111.408 160.64 111.269 161.034 111.184C161.429 111.099 161.84 111.056 162.266 111.056H164.746C164.746 110.576 164.677 110.16 164.538 109.808C164.41 109.456 164.197 109.184 163.898 108.992C163.6 108.789 163.205 108.688 162.714 108.688C162.416 108.688 162.138 108.72 161.882 108.784C161.626 108.848 161.408 108.949 161.226 109.088C161.045 109.227 160.912 109.413 160.826 109.648H159.37C159.445 109.264 159.589 108.939 159.802 108.672C160.026 108.395 160.293 108.171 160.602 108C160.922 107.819 161.264 107.685 161.626 107.6C161.989 107.515 162.352 107.472 162.714 107.472C163.525 107.472 164.176 107.637 164.666 107.968C165.157 108.288 165.514 108.747 165.738 109.344C165.962 109.931 166.074 110.629 166.074 111.44V116H164.938L164.858 114.928C164.624 115.248 164.341 115.493 164.01 115.664C163.68 115.835 163.338 115.947 162.986 116C162.645 116.064 162.32 116.096 162.01 116.096ZM162.138 114.896C162.672 114.896 163.13 114.811 163.514 114.64C163.909 114.459 164.213 114.197 164.426 113.856C164.64 113.515 164.746 113.099 164.746 112.608V112.192H163.258C162.906 112.192 162.56 112.197 162.218 112.208C161.877 112.219 161.568 112.261 161.29 112.336C161.013 112.411 160.789 112.539 160.618 112.72C160.458 112.901 160.378 113.163 160.378 113.504C160.378 113.824 160.458 114.085 160.618 114.288C160.789 114.491 161.008 114.645 161.274 114.752C161.552 114.848 161.84 114.896 162.138 114.896ZM176.174 116.096C175.289 116.096 174.547 115.915 173.95 115.552C173.353 115.179 172.905 114.667 172.606 114.016C172.318 113.365 172.174 112.624 172.174 111.792C172.174 110.949 172.318 110.208 172.606 109.568C172.905 108.917 173.353 108.405 173.95 108.032C174.547 107.659 175.299 107.472 176.206 107.472C177.091 107.472 177.827 107.659 178.414 108.032C179.011 108.405 179.454 108.917 179.742 109.568C180.041 110.208 180.19 110.949 180.19 111.792C180.19 112.624 180.041 113.365 179.742 114.016C179.443 114.667 178.995 115.179 178.398 115.552C177.811 115.915 177.07 116.096 176.174 116.096ZM176.174 114.896C176.793 114.896 177.294 114.757 177.678 114.48C178.073 114.203 178.361 113.829 178.542 113.36C178.734 112.891 178.83 112.368 178.83 111.792C178.83 111.216 178.734 110.693 178.542 110.224C178.361 109.755 178.073 109.381 177.678 109.104C177.294 108.827 176.793 108.688 176.174 108.688C175.566 108.688 175.065 108.827 174.67 109.104C174.286 109.381 173.998 109.755 173.806 110.224C173.625 110.693 173.534 111.216 173.534 111.792C173.534 112.368 173.625 112.891 173.806 113.36C173.998 113.829 174.286 114.203 174.67 114.48C175.065 114.757 175.566 114.896 176.174 114.896ZM182.01 116V107.568H183.37V111.264H187.594V107.568H188.954V116H187.594V112.464H183.37V116H182.01ZM193.807 116.096C193.423 116.096 193.05 116.048 192.687 115.952C192.335 115.845 192.015 115.691 191.727 115.488C191.45 115.275 191.226 115.013 191.055 114.704C190.895 114.384 190.815 114.016 190.815 113.6C190.815 113.12 190.901 112.715 191.071 112.384C191.253 112.053 191.493 111.792 191.791 111.6C192.09 111.408 192.437 111.269 192.831 111.184C193.226 111.099 193.637 111.056 194.063 111.056H196.543C196.543 110.576 196.474 110.16 196.335 109.808C196.207 109.456 195.994 109.184 195.695 108.992C195.397 108.789 195.002 108.688 194.511 108.688C194.213 108.688 193.935 108.72 193.679 108.784C193.423 108.848 193.205 108.949 193.023 109.088C192.842 109.227 192.709 109.413 192.623 109.648H191.167C191.242 109.264 191.386 108.939 191.599 108.672C191.823 108.395 192.09 108.171 192.399 108C192.719 107.819 193.061 107.685 193.423 107.6C193.786 107.515 194.149 107.472 194.511 107.472C195.322 107.472 195.973 107.637 196.463 107.968C196.954 108.288 197.311 108.747 197.535 109.344C197.759 109.931 197.871 110.629 197.871 111.44V116H196.735L196.655 114.928C196.421 115.248 196.138 115.493 195.807 115.664C195.477 115.835 195.135 115.947 194.783 116C194.442 116.064 194.117 116.096 193.807 116.096ZM193.935 114.896C194.469 114.896 194.927 114.811 195.311 114.64C195.706 114.459 196.01 114.197 196.223 113.856C196.437 113.515 196.543 113.099 196.543 112.608V112.192H195.055C194.703 112.192 194.357 112.197 194.015 112.208C193.674 112.219 193.365 112.261 193.087 112.336C192.81 112.411 192.586 112.539 192.415 112.72C192.255 112.901 192.175 113.163 192.175 113.504C192.175 113.824 192.255 114.085 192.415 114.288C192.586 114.491 192.805 114.645 193.071 114.752C193.349 114.848 193.637 114.896 193.935 114.896ZM204.291 116V107.568H211.283V116H209.923V108.768H205.651V116H204.291ZM217.111 116.096C216.226 116.096 215.485 115.915 214.887 115.552C214.29 115.179 213.842 114.667 213.543 114.016C213.255 113.365 213.111 112.624 213.111 111.792C213.111 110.949 213.255 110.208 213.543 109.568C213.842 108.917 214.29 108.405 214.887 108.032C215.485 107.659 216.237 107.472 217.143 107.472C218.029 107.472 218.765 107.659 219.351 108.032C219.949 108.405 220.391 108.917 220.679 109.568C220.978 110.208 221.127 110.949 221.127 111.792C221.127 112.624 220.978 113.365 220.679 114.016C220.381 114.667 219.933 115.179 219.335 115.552C218.749 115.915 218.007 116.096 217.111 116.096ZM217.111 114.896C217.73 114.896 218.231 114.757 218.615 114.48C219.01 114.203 219.298 113.829 219.479 113.36C219.671 112.891 219.767 112.368 219.767 111.792C219.767 111.216 219.671 110.693 219.479 110.224C219.298 109.755 219.01 109.381 218.615 109.104C218.231 108.827 217.73 108.688 217.111 108.688C216.503 108.688 216.002 108.827 215.607 109.104C215.223 109.381 214.935 109.755 214.743 110.224C214.562 110.693 214.471 111.216 214.471 111.792C214.471 112.368 214.562 112.891 214.743 113.36C214.935 113.829 215.223 114.203 215.607 114.48C216.002 114.757 216.503 114.896 217.111 114.896ZM227.532 119.616V118.32C228.054 118.32 228.47 118.245 228.78 118.096C229.089 117.957 229.345 117.733 229.548 117.424C229.761 117.125 229.964 116.741 230.156 116.272L226.46 107.568H228.06L230.908 114.672L233.244 107.568H234.78L232.412 114.208C232.294 114.549 232.161 114.933 232.012 115.36C231.862 115.787 231.697 116.219 231.516 116.656C231.334 117.104 231.132 117.515 230.908 117.888C230.694 118.272 230.454 118.581 230.188 118.816C229.964 119.019 229.745 119.179 229.532 119.296C229.318 119.413 229.057 119.493 228.748 119.536C228.449 119.589 228.044 119.616 227.532 119.616ZM236.041 116V107.568H237.865L240.601 111.792L243.289 107.568H245.081V116H243.737V109.072L240.761 113.84H240.377L237.385 109.072V116H236.041ZM250.908 116.096C250.023 116.096 249.282 115.915 248.684 115.552C248.087 115.179 247.639 114.667 247.34 114.016C247.052 113.365 246.908 112.624 246.908 111.792C246.908 110.949 247.052 110.208 247.34 109.568C247.639 108.917 248.087 108.405 248.684 108.032C249.282 107.659 250.034 107.472 250.94 107.472C251.826 107.472 252.562 107.659 253.148 108.032C253.746 108.405 254.188 108.917 254.476 109.568C254.775 110.208 254.924 110.949 254.924 111.792C254.924 112.624 254.775 113.365 254.476 114.016C254.178 114.667 253.73 115.179 253.132 115.552C252.546 115.915 251.804 116.096 250.908 116.096ZM250.908 114.896C251.527 114.896 252.028 114.757 252.412 114.48C252.807 114.203 253.095 113.829 253.276 113.36C253.468 112.891 253.564 112.368 253.564 111.792C253.564 111.216 253.468 110.693 253.276 110.224C253.095 109.755 252.807 109.381 252.412 109.104C252.028 108.827 251.527 108.688 250.908 108.688C250.3 108.688 249.799 108.827 249.404 109.104C249.02 109.381 248.732 109.755 248.54 110.224C248.359 110.693 248.268 111.216 248.268 111.792C248.268 112.368 248.359 112.891 248.54 113.36C248.732 113.829 249.02 114.203 249.404 114.48C249.799 114.757 250.3 114.896 250.908 114.896ZM255.898 116.016V114.832C256.111 114.832 256.303 114.789 256.474 114.704C256.644 114.608 256.794 114.469 256.922 114.288C257.071 114.075 257.188 113.765 257.274 113.36C257.359 112.955 257.418 112.523 257.45 112.064C257.492 111.552 257.524 111.051 257.546 110.56C257.567 110.059 257.583 109.563 257.594 109.072C257.615 108.581 257.626 108.08 257.626 107.568H263.482V116H262.122V108.768H258.954C258.943 109.131 258.927 109.499 258.906 109.872C258.895 110.235 258.879 110.603 258.858 110.976C258.847 111.339 258.831 111.707 258.81 112.08C258.799 112.507 258.756 112.987 258.682 113.52C258.607 114.053 258.447 114.539 258.202 114.976C257.967 115.392 257.679 115.669 257.338 115.808C257.007 115.947 256.527 116.016 255.898 116.016ZM270.579 116V112.752C270.174 112.827 269.779 112.88 269.395 112.912C269.022 112.933 268.686 112.944 268.387 112.944C267.598 112.944 266.974 112.821 266.515 112.576C266.056 112.331 265.731 111.957 265.539 111.456C265.347 110.944 265.251 110.309 265.251 109.552V107.568H266.611V109.456C266.611 109.947 266.659 110.363 266.755 110.704C266.851 111.045 267.038 111.307 267.315 111.488C267.592 111.659 268.008 111.744 268.563 111.744C268.883 111.744 269.219 111.728 269.571 111.696C269.934 111.664 270.27 111.616 270.579 111.552V107.568H271.939V116H270.579ZM276.792 116.096C276.408 116.096 276.034 116.048 275.672 115.952C275.32 115.845 275 115.691 274.712 115.488C274.434 115.275 274.21 115.013 274.04 114.704C273.88 114.384 273.8 114.016 273.8 113.6C273.8 113.12 273.885 112.715 274.056 112.384C274.237 112.053 274.477 111.792 274.776 111.6C275.074 111.408 275.421 111.269 275.816 111.184C276.21 111.099 276.621 111.056 277.048 111.056H279.528C279.528 110.576 279.458 110.16 279.32 109.808C279.192 109.456 278.978 109.184 278.68 108.992C278.381 108.789 277.986 108.688 277.496 108.688C277.197 108.688 276.92 108.72 276.664 108.784C276.408 108.848 276.189 108.949 276.008 109.088C275.826 109.227 275.693 109.413 275.608 109.648H274.152C274.226 109.264 274.37 108.939 274.584 108.672C274.808 108.395 275.074 108.171 275.384 108C275.704 107.819 276.045 107.685 276.408 107.6C276.77 107.515 277.133 107.472 277.496 107.472C278.306 107.472 278.957 107.637 279.448 107.968C279.938 108.288 280.296 108.747 280.52 109.344C280.744 109.931 280.856 110.629 280.856 111.44V116H279.72L279.64 114.928C279.405 115.248 279.122 115.493 278.792 115.664C278.461 115.835 278.12 115.947 277.768 116C277.426 116.064 277.101 116.096 276.792 116.096ZM276.92 114.896C277.453 114.896 277.912 114.811 278.296 114.64C278.69 114.459 278.994 114.197 279.208 113.856C279.421 113.515 279.528 113.099 279.528 112.608V112.192H278.04C277.688 112.192 277.341 112.197 277 112.208C276.658 112.219 276.349 112.261 276.072 112.336C275.794 112.411 275.57 112.539 275.4 112.72C275.24 112.901 275.16 113.163 275.16 113.504C275.16 113.824 275.24 114.085 275.4 114.288C275.57 114.491 275.789 114.645 276.056 114.752C276.333 114.848 276.621 114.896 276.92 114.896ZM282.963 116V107.568H284.323V111.264H288.547V107.568H289.907V116H288.547V112.464H284.323V116H282.963ZM292.056 116V107.568H293.416V114.032C293.491 113.883 293.592 113.723 293.72 113.552C293.848 113.371 293.95 113.232 294.024 113.136L298.104 107.568H299.448V116H298.088V109.536C298.003 109.696 297.907 109.845 297.8 109.984C297.704 110.123 297.614 110.251 297.528 110.368L293.384 116H292.056ZM308.42 116.096C307.182 116.096 306.249 115.755 305.62 115.072C304.99 114.379 304.633 113.483 304.548 112.384H302.948V116H301.588V107.568H302.948V111.2H304.548C304.612 110.464 304.788 109.819 305.076 109.264C305.374 108.699 305.801 108.261 306.356 107.952C306.91 107.632 307.598 107.472 308.42 107.472C309.316 107.472 310.057 107.659 310.644 108.032C311.23 108.405 311.668 108.917 311.956 109.568C312.244 110.208 312.388 110.949 312.388 111.792C312.388 112.624 312.244 113.365 311.956 114.016C311.668 114.667 311.23 115.179 310.644 115.552C310.057 115.915 309.316 116.096 308.42 116.096ZM308.42 114.896C309.038 114.896 309.534 114.757 309.908 114.48C310.292 114.203 310.574 113.829 310.756 113.36C310.937 112.891 311.028 112.368 311.028 111.792C311.028 111.216 310.937 110.693 310.756 110.224C310.574 109.755 310.292 109.381 309.908 109.104C309.534 108.827 309.038 108.688 308.42 108.688C307.812 108.688 307.316 108.827 306.932 109.104C306.558 109.381 306.286 109.755 306.116 110.224C305.945 110.693 305.86 111.216 305.86 111.792C305.86 112.368 305.945 112.891 306.116 113.36C306.286 113.829 306.558 114.203 306.932 114.48C307.316 114.757 307.812 114.896 308.42 114.896ZM108.776 136.096C108.392 136.096 108.019 136.048 107.656 135.952C107.304 135.845 106.984 135.691 106.696 135.488C106.419 135.275 106.195 135.013 106.024 134.704C105.864 134.384 105.784 134.016 105.784 133.6C105.784 133.12 105.869 132.715 106.04 132.384C106.221 132.053 106.461 131.792 106.76 131.6C107.059 131.408 107.405 131.269 107.8 131.184C108.195 131.099 108.605 131.056 109.032 131.056H111.512C111.512 130.576 111.443 130.16 111.304 129.808C111.176 129.456 110.963 129.184 110.664 128.992C110.365 128.789 109.971 128.688 109.48 128.688C109.181 128.688 108.904 128.72 108.648 128.784C108.392 128.848 108.173 128.949 107.992 129.088C107.811 129.227 107.677 129.413 107.592 129.648H106.136C106.211 129.264 106.355 128.939 106.568 128.672C106.792 128.395 107.059 128.171 107.368 128C107.688 127.819 108.029 127.685 108.392 127.6C108.755 127.515 109.117 127.472 109.48 127.472C110.291 127.472 110.941 127.637 111.432 127.968C111.923 128.288 112.28 128.747 112.504 129.344C112.728 129.931 112.84 130.629 112.84 131.44V136H111.704L111.624 134.928C111.389 135.248 111.107 135.493 110.776 135.664C110.445 135.835 110.104 135.947 109.752 136C109.411 136.064 109.085 136.096 108.776 136.096ZM108.904 134.896C109.437 134.896 109.896 134.811 110.28 134.64C110.675 134.459 110.979 134.197 111.192 133.856C111.405 133.515 111.512 133.099 111.512 132.608V132.192H110.024C109.672 132.192 109.325 132.197 108.984 132.208C108.643 132.219 108.333 132.261 108.056 132.336C107.779 132.411 107.555 132.539 107.384 132.72C107.224 132.901 107.144 133.163 107.144 133.504C107.144 133.824 107.224 134.085 107.384 134.288C107.555 134.491 107.773 134.645 108.04 134.752C108.317 134.848 108.605 134.896 108.904 134.896ZM114.947 136V127.568H116.307V131.2H117.779L120.275 127.568H121.827L119.011 131.584L122.067 136H120.467L117.939 132.384H116.307V136H114.947ZM125.212 136V128.768H122.316V127.568H129.468V128.768H126.572V136H125.212ZM130.681 136V127.568H132.041V134.032C132.116 133.883 132.217 133.723 132.345 133.552C132.473 133.371 132.575 133.232 132.649 133.136L136.729 127.568H138.073V136H136.713V129.536C136.628 129.696 136.532 129.845 136.425 129.984C136.329 130.123 136.239 130.251 136.153 130.368L132.009 136H130.681ZM140.213 136V127.568H143.477C143.85 127.568 144.218 127.595 144.581 127.648C144.954 127.691 145.29 127.787 145.589 127.936C145.898 128.075 146.143 128.283 146.325 128.56C146.517 128.837 146.613 129.205 146.613 129.664C146.613 129.941 146.57 130.197 146.485 130.432C146.399 130.656 146.271 130.853 146.101 131.024C145.941 131.195 145.733 131.344 145.477 131.472C146.053 131.6 146.469 131.851 146.725 132.224C146.981 132.597 147.109 133.024 147.109 133.504C147.109 133.931 147.029 134.304 146.869 134.624C146.719 134.933 146.506 135.189 146.229 135.392C145.962 135.595 145.647 135.749 145.285 135.856C144.933 135.952 144.554 136 144.149 136H140.213ZM141.605 134.816H143.829C144.159 134.816 144.469 134.784 144.757 134.72C145.045 134.656 145.279 134.539 145.461 134.368C145.642 134.187 145.733 133.931 145.733 133.6C145.733 133.259 145.653 133.003 145.493 132.832C145.343 132.651 145.146 132.528 144.901 132.464C144.666 132.389 144.41 132.347 144.133 132.336C143.855 132.325 143.594 132.32 143.349 132.32H141.605V134.816ZM141.605 131.168H142.773C142.986 131.168 143.231 131.157 143.509 131.136C143.797 131.115 144.074 131.067 144.341 130.992C144.618 130.907 144.842 130.779 145.013 130.608C145.194 130.437 145.285 130.203 145.285 129.904C145.285 129.509 145.173 129.237 144.949 129.088C144.735 128.928 144.479 128.837 144.181 128.816C143.882 128.784 143.605 128.768 143.349 128.768H141.605V131.168ZM148.963 136V127.568H150.323V134.032C150.397 133.883 150.499 133.723 150.627 133.552C150.755 133.371 150.856 133.232 150.931 133.136L155.011 127.568H156.355V136H154.995V129.536C154.909 129.696 154.813 129.845 154.707 129.984C154.611 130.123 154.52 130.251 154.435 130.368L150.291 136H148.963ZM158.494 139.04V127.568H159.79L159.854 128.864C160.142 128.405 160.531 128.059 161.022 127.824C161.523 127.589 162.062 127.472 162.638 127.472C163.491 127.472 164.19 127.664 164.734 128.048C165.278 128.421 165.678 128.933 165.934 129.584C166.201 130.235 166.334 130.971 166.334 131.792C166.334 132.613 166.201 133.349 165.934 134C165.667 134.651 165.257 135.163 164.702 135.536C164.147 135.909 163.438 136.096 162.574 136.096C162.147 136.096 161.763 136.053 161.422 135.968C161.081 135.872 160.782 135.739 160.526 135.568C160.27 135.397 160.046 135.205 159.854 134.992V139.04H158.494ZM162.462 134.896C163.081 134.896 163.571 134.757 163.934 134.48C164.297 134.192 164.558 133.813 164.718 133.344C164.889 132.875 164.974 132.357 164.974 131.792C164.974 131.216 164.889 130.693 164.718 130.224C164.558 129.755 164.291 129.381 163.918 129.104C163.545 128.827 163.049 128.688 162.43 128.688C161.875 128.688 161.401 128.832 161.006 129.12C160.622 129.397 160.329 129.776 160.126 130.256C159.923 130.725 159.822 131.243 159.822 131.808C159.822 132.395 159.918 132.923 160.11 133.392C160.302 133.861 160.595 134.229 160.99 134.496C161.385 134.763 161.875 134.896 162.462 134.896ZM171.768 136.096C170.882 136.096 170.141 135.915 169.544 135.552C168.946 135.179 168.498 134.667 168.2 134.016C167.912 133.365 167.768 132.624 167.768 131.792C167.768 130.949 167.912 130.208 168.2 129.568C168.498 128.917 168.946 128.405 169.544 128.032C170.141 127.659 170.893 127.472 171.8 127.472C172.685 127.472 173.421 127.659 174.008 128.032C174.605 128.405 175.048 128.917 175.336 129.568C175.634 130.208 175.784 130.949 175.784 131.792C175.784 132.624 175.634 133.365 175.336 134.016C175.037 134.667 174.589 135.179 173.992 135.552C173.405 135.915 172.664 136.096 171.768 136.096ZM171.768 134.896C172.386 134.896 172.888 134.757 173.272 134.48C173.666 134.203 173.954 133.829 174.136 133.36C174.328 132.891 174.424 132.368 174.424 131.792C174.424 131.216 174.328 130.693 174.136 130.224C173.954 129.755 173.666 129.381 173.272 129.104C172.888 128.827 172.386 128.688 171.768 128.688C171.16 128.688 170.658 128.827 170.264 129.104C169.88 129.381 169.592 129.755 169.4 130.224C169.218 130.693 169.128 131.216 169.128 131.792C169.128 132.368 169.218 132.891 169.4 133.36C169.592 133.829 169.88 134.203 170.264 134.48C170.658 134.757 171.16 134.896 171.768 134.896ZM177.603 136V127.568H180.867C181.241 127.568 181.609 127.595 181.971 127.648C182.345 127.691 182.681 127.787 182.979 127.936C183.289 128.075 183.534 128.283 183.715 128.56C183.907 128.837 184.003 129.205 184.003 129.664C184.003 129.941 183.961 130.197 183.875 130.432C183.79 130.656 183.662 130.853 183.491 131.024C183.331 131.195 183.123 131.344 182.867 131.472C183.443 131.6 183.859 131.851 184.115 132.224C184.371 132.597 184.499 133.024 184.499 133.504C184.499 133.931 184.419 134.304 184.259 134.624C184.11 134.933 183.897 135.189 183.619 135.392C183.353 135.595 183.038 135.749 182.675 135.856C182.323 135.952 181.945 136 181.539 136H177.603ZM178.995 134.816H181.219C181.55 134.816 181.859 134.784 182.147 134.72C182.435 134.656 182.67 134.539 182.851 134.368C183.033 134.187 183.123 133.931 183.123 133.6C183.123 133.259 183.043 133.003 182.883 132.832C182.734 132.651 182.537 132.528 182.291 132.464C182.057 132.389 181.801 132.347 181.523 132.336C181.246 132.325 180.985 132.32 180.739 132.32H178.995V134.816ZM178.995 131.168H180.163C180.377 131.168 180.622 131.157 180.899 131.136C181.187 131.115 181.465 131.067 181.731 130.992C182.009 130.907 182.233 130.779 182.403 130.608C182.585 130.437 182.675 130.203 182.675 129.904C182.675 129.509 182.563 129.237 182.339 129.088C182.126 128.928 181.87 128.837 181.571 128.816C181.273 128.784 180.995 128.768 180.739 128.768H178.995V131.168ZM189.057 136.096C188.673 136.096 188.3 136.048 187.937 135.952C187.585 135.845 187.265 135.691 186.977 135.488C186.7 135.275 186.476 135.013 186.305 134.704C186.145 134.384 186.065 134.016 186.065 133.6C186.065 133.12 186.151 132.715 186.321 132.384C186.503 132.053 186.743 131.792 187.041 131.6C187.34 131.408 187.687 131.269 188.081 131.184C188.476 131.099 188.887 131.056 189.313 131.056H191.793C191.793 130.576 191.724 130.16 191.585 129.808C191.457 129.456 191.244 129.184 190.945 128.992C190.647 128.789 190.252 128.688 189.761 128.688C189.463 128.688 189.185 128.72 188.929 128.784C188.673 128.848 188.455 128.949 188.273 129.088C188.092 129.227 187.959 129.413 187.873 129.648H186.417C186.492 129.264 186.636 128.939 186.849 128.672C187.073 128.395 187.34 128.171 187.649 128C187.969 127.819 188.311 127.685 188.673 127.6C189.036 127.515 189.399 127.472 189.761 127.472C190.572 127.472 191.223 127.637 191.713 127.968C192.204 128.288 192.561 128.747 192.785 129.344C193.009 129.931 193.121 130.629 193.121 131.44V136H191.985L191.905 134.928C191.671 135.248 191.388 135.493 191.057 135.664C190.727 135.835 190.385 135.947 190.033 136C189.692 136.064 189.367 136.096 189.057 136.096ZM189.185 134.896C189.719 134.896 190.177 134.811 190.561 134.64C190.956 134.459 191.26 134.197 191.473 133.856C191.687 133.515 191.793 133.099 191.793 132.608V132.192H190.305C189.953 132.192 189.607 132.197 189.265 132.208C188.924 132.219 188.615 132.261 188.337 132.336C188.06 132.411 187.836 132.539 187.665 132.72C187.505 132.901 187.425 133.163 187.425 133.504C187.425 133.824 187.505 134.085 187.665 134.288C187.836 134.491 188.055 134.645 188.321 134.752C188.599 134.848 188.887 134.896 189.185 134.896ZM195.228 136V127.568H196.588V131.264H200.812V127.568H202.172V136H200.812V132.464H196.588V136H195.228ZM207.026 136.096C206.642 136.096 206.269 136.048 205.906 135.952C205.554 135.845 205.234 135.691 204.946 135.488C204.669 135.275 204.445 135.013 204.274 134.704C204.114 134.384 204.034 134.016 204.034 133.6C204.034 133.12 204.119 132.715 204.29 132.384C204.471 132.053 204.711 131.792 205.01 131.6C205.309 131.408 205.655 131.269 206.05 131.184C206.445 131.099 206.855 131.056 207.282 131.056H209.762C209.762 130.576 209.693 130.16 209.554 129.808C209.426 129.456 209.213 129.184 208.914 128.992C208.615 128.789 208.221 128.688 207.73 128.688C207.431 128.688 207.154 128.72 206.898 128.784C206.642 128.848 206.423 128.949 206.242 129.088C206.061 129.227 205.927 129.413 205.842 129.648H204.386C204.461 129.264 204.605 128.939 204.818 128.672C205.042 128.395 205.309 128.171 205.618 128C205.938 127.819 206.279 127.685 206.642 127.6C207.005 127.515 207.367 127.472 207.73 127.472C208.541 127.472 209.191 127.637 209.682 127.968C210.173 128.288 210.53 128.747 210.754 129.344C210.978 129.931 211.09 130.629 211.09 131.44V136H209.954L209.874 134.928C209.639 135.248 209.357 135.493 209.026 135.664C208.695 135.835 208.354 135.947 208.002 136C207.661 136.064 207.335 136.096 207.026 136.096ZM207.154 134.896C207.687 134.896 208.146 134.811 208.53 134.64C208.925 134.459 209.229 134.197 209.442 133.856C209.655 133.515 209.762 133.099 209.762 132.608V132.192H208.274C207.922 132.192 207.575 132.197 207.234 132.208C206.893 132.219 206.583 132.261 206.306 132.336C206.029 132.411 205.805 132.539 205.634 132.72C205.474 132.901 205.394 133.163 205.394 133.504C205.394 133.824 205.474 134.085 205.634 134.288C205.805 134.491 206.023 134.645 206.29 134.752C206.567 134.848 206.855 134.896 207.154 134.896Z" fill="black"/>
</svg>
