<svg width="408" height="211" viewBox="0 0 408 211" fill="none" xmlns="http://www.w3.org/2000/svg">
<rect width="408" height="211" rx="30" fill="white"/>
<path d="M58.0186 41C58.9365 41.0012 59.8384 41.2418 60.6348 41.6982C61.4312 42.1548 62.0955 42.811 62.5605 43.6025L64.4707 46.8574H69.3311C70.3324 46.8572 71.3239 47.0543 72.249 47.4375C73.1742 47.8208 74.0148 48.3834 74.7227 49.0918C75.4319 49.8004 75.9946 50.6419 76.3779 51.5684C76.7613 52.4949 76.9582 53.4885 76.957 54.4912V76.7842C76.9573 77.7859 76.7601 78.7786 76.377 79.7041C75.9939 80.6294 75.4326 81.4704 74.7246 82.1787C74.0165 82.887 73.1753 83.4486 72.25 83.832C71.3247 84.2154 70.3327 84.4131 69.3311 84.4131H37.6465C36.6434 84.4157 35.6492 84.2209 34.7217 83.8389C33.7942 83.4568 32.9515 82.8949 32.2412 82.1865C31.5309 81.4781 30.9666 80.6366 30.582 79.71C30.1976 78.7835 30 77.7902 30 76.7871V54.4932C29.9997 53.4916 30.197 52.4997 30.5801 51.5742C30.9632 50.6487 31.5243 49.807 32.2324 49.0986C32.9405 48.3903 33.7817 47.8287 34.707 47.4453C35.6323 47.062 36.6244 46.8643 37.626 46.8643H42.5098L44.5732 43.5225C45.0445 42.7519 45.7063 42.1156 46.4941 41.6738C47.282 41.2321 48.17 41.0001 49.0732 41H58.0186ZM52.6484 51.002L48.6367 55.0693C48.1924 55.5205 48.2003 56.2469 48.6514 56.6914C49.0463 57.0803 49.6508 57.1257 50.0938 56.8281L50.2734 56.6797L52.3057 54.6143V63.4131H43.4805L45.54 61.3262C45.9831 60.8754 45.9779 60.1513 45.5283 59.707C45.1338 59.318 44.528 59.2725 44.085 59.5693L43.9063 59.7188L39.0908 64.6016L39.9092 65.4053L43.9756 69.416L44.1572 69.5605C44.6045 69.8516 45.2085 69.7971 45.5977 69.4023C45.9868 69.0074 46.0331 68.402 45.7354 67.959L45.5859 67.7822L43.4785 65.7041H52.3057V74.5088L50.2588 72.4932C49.8076 72.0493 49.081 72.054 48.6367 72.5049C48.2481 72.8996 48.205 73.5054 48.502 73.9482L48.6504 74.127L53.5361 78.9424L54.3398 78.124L58.3486 74.0547C58.7922 73.6034 58.7859 72.8768 58.335 72.4326C57.8837 71.9891 57.1571 71.9956 56.7129 72.4463L54.5977 74.5918V65.7041H63.501L61.4424 67.7939L62.2607 68.5986L63.0762 69.4023L67.8916 64.5195L67.0732 63.7158L63.0039 59.7041L62.8223 59.5605C62.3751 59.2706 61.7706 59.3243 61.3818 59.7188C60.9937 60.1138 60.9495 60.7195 61.2471 61.1621L61.3955 61.3408L63.498 63.4131H54.5977V54.5322L56.7266 56.6328C57.1773 57.0762 57.9022 57.0717 58.3467 56.6221C58.7912 56.1712 58.7857 55.4447 58.335 55L53.4521 50.1846L52.6484 51.002ZM61.4424 67.7939C60.9988 68.2448 61.0041 68.9696 61.4541 69.4141C61.9051 69.8586 62.6316 69.8533 63.0762 69.4023L61.4424 67.7939Z" fill="#010101"/>
<path d="M105.352 59.12V54.736C105.736 54.736 106.024 54.6667 106.216 54.528C106.419 54.3787 106.573 54.1813 106.68 53.936C106.765 53.7227 106.84 53.4667 106.904 53.168C106.968 52.8587 107.021 52.528 107.064 52.176C107.117 51.8133 107.155 51.4507 107.176 51.088C107.251 50.0213 107.304 48.9547 107.336 47.888C107.368 46.8213 107.389 45.7547 107.4 44.688H114.632V54.736H115.992V59.12H114.6V56H106.744V59.12H105.352ZM107.928 54.736H113.24V45.952H108.76L108.616 50.352C108.605 50.608 108.589 50.912 108.568 51.264C108.557 51.616 108.525 51.9893 108.472 52.384C108.429 52.768 108.365 53.1627 108.28 53.568C108.195 53.9733 108.077 54.3627 107.928 54.736ZM116.96 56.016V54.832C117.174 54.832 117.366 54.7893 117.536 54.704C117.707 54.608 117.856 54.4693 117.984 54.288C118.134 54.0747 118.251 53.7653 118.336 53.36C118.422 52.9547 118.48 52.5227 118.512 52.064C118.555 51.552 118.587 51.0507 118.608 50.56C118.63 50.0587 118.646 49.5627 118.656 49.072C118.678 48.5813 118.688 48.08 118.688 47.568H124.544V56H123.184V48.768H120.016C120.006 49.1307 119.99 49.4987 119.968 49.872C119.958 50.2347 119.942 50.6027 119.92 50.976C119.91 51.3387 119.894 51.7067 119.872 52.08C119.862 52.5067 119.819 52.9867 119.744 53.52C119.67 54.0533 119.51 54.5387 119.264 54.976C119.03 55.392 118.742 55.6693 118.4 55.808C118.07 55.9467 117.59 56.016 116.96 56.016ZM126.153 56L128.345 52.672C127.737 52.5013 127.257 52.224 126.905 51.84C126.553 51.4453 126.377 50.9227 126.377 50.272C126.377 49.76 126.452 49.3333 126.601 48.992C126.751 48.64 126.969 48.3627 127.257 48.16C127.545 47.9467 127.892 47.7973 128.297 47.712C128.703 47.616 129.167 47.568 129.689 47.568H133.081V56H131.721V52.88H129.785L127.737 56H126.153ZM130.713 51.696H131.721V48.768H129.913C129.593 48.768 129.3 48.784 129.033 48.816C128.767 48.848 128.537 48.9173 128.345 49.024C128.164 49.12 128.02 49.264 127.913 49.456C127.807 49.6373 127.753 49.888 127.753 50.208C127.753 50.56 127.839 50.8373 128.009 51.04C128.191 51.2427 128.42 51.392 128.697 51.488C128.985 51.5733 129.305 51.632 129.657 51.664C130.009 51.6853 130.361 51.696 130.713 51.696ZM139.541 56V47.568H146.533V56H145.173V48.768H140.901V56H139.541ZM152.329 56.096C151.433 56.096 150.692 55.9147 150.105 55.552C149.519 55.1787 149.081 54.6667 148.793 54.016C148.505 53.3653 148.361 52.624 148.361 51.792C148.361 50.9493 148.511 50.208 148.809 49.568C149.119 48.9173 149.567 48.4053 150.153 48.032C150.74 47.6587 151.46 47.472 152.313 47.472C152.943 47.472 153.492 47.5947 153.961 47.84C154.441 48.0747 154.836 48.3947 155.145 48.8C155.465 49.2053 155.695 49.6587 155.833 50.16C155.983 50.6613 156.047 51.1787 156.025 51.712C156.015 51.808 156.009 51.904 156.009 52C156.009 52.096 156.004 52.192 155.993 52.288H149.737C149.78 52.7787 149.903 53.2213 150.105 53.616C150.308 54.0107 150.596 54.3253 150.969 54.56C151.343 54.784 151.807 54.896 152.361 54.896C152.639 54.896 152.916 54.864 153.193 54.8C153.481 54.7253 153.737 54.6027 153.961 54.432C154.196 54.2613 154.361 54.032 154.457 53.744H155.849C155.721 54.288 155.481 54.736 155.129 55.088C154.777 55.4293 154.356 55.6853 153.865 55.856C153.375 56.016 152.863 56.096 152.329 56.096ZM149.769 51.104H154.649C154.639 50.624 154.532 50.2027 154.329 49.84C154.127 49.4773 153.849 49.1947 153.497 48.992C153.156 48.7893 152.745 48.688 152.265 48.688C151.743 48.688 151.3 48.8 150.937 49.024C150.585 49.248 150.313 49.5413 150.121 49.904C149.929 50.2667 149.812 50.6667 149.769 51.104ZM157.853 59.04V47.568H159.149L159.213 48.864C159.501 48.4053 159.891 48.0587 160.381 47.824C160.883 47.5893 161.421 47.472 161.997 47.472C162.851 47.472 163.549 47.664 164.093 48.048C164.637 48.4213 165.037 48.9333 165.293 49.584C165.56 50.2347 165.693 50.9707 165.693 51.792C165.693 52.6133 165.56 53.3493 165.293 54C165.027 54.6507 164.616 55.1627 164.061 55.536C163.507 55.9093 162.797 56.096 161.933 56.096C161.507 56.096 161.123 56.0533 160.781 55.968C160.44 55.872 160.141 55.7387 159.885 55.568C159.629 55.3973 159.405 55.2053 159.213 54.992V59.04H157.853ZM161.821 54.896C162.44 54.896 162.931 54.7573 163.293 54.48C163.656 54.192 163.917 53.8133 164.077 53.344C164.248 52.8747 164.333 52.3573 164.333 51.792C164.333 51.216 164.248 50.6933 164.077 50.224C163.917 49.7547 163.651 49.3813 163.277 49.104C162.904 48.8267 162.408 48.688 161.789 48.688C161.235 48.688 160.76 48.832 160.365 49.12C159.981 49.3973 159.688 49.776 159.485 50.256C159.283 50.7253 159.181 51.2427 159.181 51.808C159.181 52.3947 159.277 52.9227 159.469 53.392C159.661 53.8613 159.955 54.2293 160.349 54.496C160.744 54.7627 161.235 54.896 161.821 54.896ZM171.095 56.096C170.199 56.096 169.458 55.9147 168.871 55.552C168.284 55.1787 167.847 54.6667 167.559 54.016C167.271 53.3653 167.127 52.624 167.127 51.792C167.127 50.9493 167.276 50.208 167.575 49.568C167.884 48.9173 168.332 48.4053 168.919 48.032C169.506 47.6587 170.226 47.472 171.079 47.472C171.708 47.472 172.258 47.5947 172.727 47.84C173.207 48.0747 173.602 48.3947 173.911 48.8C174.231 49.2053 174.46 49.6587 174.599 50.16C174.748 50.6613 174.812 51.1787 174.791 51.712C174.78 51.808 174.775 51.904 174.775 52C174.775 52.096 174.77 52.192 174.759 52.288H168.503C168.546 52.7787 168.668 53.2213 168.871 53.616C169.074 54.0107 169.362 54.3253 169.735 54.56C170.108 54.784 170.572 54.896 171.127 54.896C171.404 54.896 171.682 54.864 171.959 54.8C172.247 54.7253 172.503 54.6027 172.727 54.432C172.962 54.2613 173.127 54.032 173.223 53.744H174.615C174.487 54.288 174.247 54.736 173.895 55.088C173.543 55.4293 173.122 55.6853 172.631 55.856C172.14 56.016 171.628 56.096 171.095 56.096ZM168.535 51.104H173.415C173.404 50.624 173.298 50.2027 173.095 49.84C172.892 49.4773 172.615 49.1947 172.263 48.992C171.922 48.7893 171.511 48.688 171.031 48.688C170.508 48.688 170.066 48.8 169.703 49.024C169.351 49.248 169.079 49.5413 168.887 49.904C168.695 50.2667 168.578 50.6667 168.535 51.104ZM176.619 56V47.568H178.443L181.179 51.792L183.867 47.568H185.659V56H184.315V49.072L181.339 53.84H180.955L177.963 49.072V56H176.619ZM191.454 56.096C190.558 56.096 189.817 55.9147 189.23 55.552C188.644 55.1787 188.206 54.6667 187.918 54.016C187.63 53.3653 187.486 52.624 187.486 51.792C187.486 50.9493 187.636 50.208 187.934 49.568C188.244 48.9173 188.692 48.4053 189.278 48.032C189.865 47.6587 190.585 47.472 191.438 47.472C192.068 47.472 192.617 47.5947 193.086 47.84C193.566 48.0747 193.961 48.3947 194.27 48.8C194.59 49.2053 194.82 49.6587 194.958 50.16C195.108 50.6613 195.172 51.1787 195.15 51.712C195.14 51.808 195.134 51.904 195.134 52C195.134 52.096 195.129 52.192 195.118 52.288H188.862C188.905 52.7787 189.028 53.2213 189.23 53.616C189.433 54.0107 189.721 54.3253 190.094 54.56C190.468 54.784 190.932 54.896 191.486 54.896C191.764 54.896 192.041 54.864 192.318 54.8C192.606 54.7253 192.862 54.6027 193.086 54.432C193.321 54.2613 193.486 54.032 193.582 53.744H194.974C194.846 54.288 194.606 54.736 194.254 55.088C193.902 55.4293 193.481 55.6853 192.99 55.856C192.5 56.016 191.988 56.096 191.454 56.096ZM188.894 51.104H193.774C193.764 50.624 193.657 50.2027 193.454 49.84C193.252 49.4773 192.974 49.1947 192.622 48.992C192.281 48.7893 191.87 48.688 191.39 48.688C190.868 48.688 190.425 48.8 190.062 49.024C189.71 49.248 189.438 49.5413 189.246 49.904C189.054 50.2667 188.937 50.6667 188.894 51.104ZM207.218 58.592V56H196.978V47.568H198.338V54.816H201.506V47.568H202.866V54.816H206.066V47.568H207.426V54.816H208.53V58.592H207.218ZM213.595 56.096C212.699 56.096 211.958 55.9147 211.371 55.552C210.784 55.1787 210.347 54.6667 210.059 54.016C209.771 53.3653 209.627 52.624 209.627 51.792C209.627 50.9493 209.776 50.208 210.075 49.568C210.384 48.9173 210.832 48.4053 211.419 48.032C212.006 47.6587 212.726 47.472 213.579 47.472C214.208 47.472 214.758 47.5947 215.227 47.84C215.707 48.0747 216.102 48.3947 216.411 48.8C216.731 49.2053 216.96 49.6587 217.099 50.16C217.248 50.6613 217.312 51.1787 217.291 51.712C217.28 51.808 217.275 51.904 217.275 52C217.275 52.096 217.27 52.192 217.259 52.288H211.003C211.046 52.7787 211.168 53.2213 211.371 53.616C211.574 54.0107 211.862 54.3253 212.235 54.56C212.608 54.784 213.072 54.896 213.627 54.896C213.904 54.896 214.182 54.864 214.459 54.8C214.747 54.7253 215.003 54.6027 215.227 54.432C215.462 54.2613 215.627 54.032 215.723 53.744H217.115C216.987 54.288 216.747 54.736 216.395 55.088C216.043 55.4293 215.622 55.6853 215.131 55.856C214.64 56.016 214.128 56.096 213.595 56.096ZM211.035 51.104H215.915C215.904 50.624 215.798 50.2027 215.595 49.84C215.392 49.4773 215.115 49.1947 214.763 48.992C214.422 48.7893 214.011 48.688 213.531 48.688C213.008 48.688 212.566 48.8 212.203 49.024C211.851 49.248 211.579 49.5413 211.387 49.904C211.195 50.2667 211.078 50.6667 211.035 51.104ZM219.119 56V47.568H220.479V51.264H224.703V47.568H226.063V56H224.703V52.464H220.479V56H219.119ZM228.213 56V47.568H229.573V54.032C229.647 53.8827 229.749 53.7227 229.877 53.552C230.005 53.3707 230.106 53.232 230.181 53.136L234.261 47.568H235.605V56H234.245V49.536C234.159 49.696 234.063 49.8453 233.957 49.984C233.861 50.1227 233.77 50.2507 233.685 50.368L229.541 56H228.213ZM237.216 56L239.408 52.672C238.8 52.5013 238.32 52.224 237.968 51.84C237.616 51.4453 237.44 50.9227 237.44 50.272C237.44 49.76 237.515 49.3333 237.664 48.992C237.813 48.64 238.032 48.3627 238.32 48.16C238.608 47.9467 238.955 47.7973 239.36 47.712C239.765 47.616 240.229 47.568 240.752 47.568H244.144V56H242.784V52.88H240.848L238.8 56H237.216ZM241.776 51.696H242.784V48.768H240.976C240.656 48.768 240.363 48.784 240.096 48.816C239.829 48.848 239.6 48.9173 239.408 49.024C239.227 49.12 239.083 49.264 238.976 49.456C238.869 49.6373 238.816 49.888 238.816 50.208C238.816 50.56 238.901 50.8373 239.072 51.04C239.253 51.2427 239.483 51.392 239.76 51.488C240.048 51.5733 240.368 51.632 240.72 51.664C241.072 51.6853 241.424 51.696 241.776 51.696ZM250.603 56V47.568H251.963V51.2H253.435L255.931 47.568H257.483L254.667 51.584L257.723 56H256.123L253.595 52.384H251.963V56H250.603ZM261.448 56.096C261.064 56.096 260.691 56.048 260.328 55.952C259.976 55.8453 259.656 55.6907 259.368 55.488C259.091 55.2747 258.867 55.0133 258.696 54.704C258.536 54.384 258.456 54.016 258.456 53.6C258.456 53.12 258.541 52.7147 258.712 52.384C258.893 52.0533 259.133 51.792 259.432 51.6C259.731 51.408 260.077 51.2693 260.472 51.184C260.867 51.0987 261.277 51.056 261.704 51.056H264.184C264.184 50.576 264.115 50.16 263.976 49.808C263.848 49.456 263.635 49.184 263.336 48.992C263.037 48.7893 262.643 48.688 262.152 48.688C261.853 48.688 261.576 48.72 261.32 48.784C261.064 48.848 260.845 48.9493 260.664 49.088C260.483 49.2267 260.349 49.4133 260.264 49.648H258.808C258.883 49.264 259.027 48.9387 259.24 48.672C259.464 48.3947 259.731 48.1707 260.04 48C260.36 47.8187 260.701 47.6853 261.064 47.6C261.427 47.5147 261.789 47.472 262.152 47.472C262.963 47.472 263.613 47.6373 264.104 47.968C264.595 48.288 264.952 48.7467 265.176 49.344C265.4 49.9307 265.512 50.6293 265.512 51.44V56H264.376L264.296 54.928C264.061 55.248 263.779 55.4933 263.448 55.664C263.117 55.8347 262.776 55.9467 262.424 56C262.083 56.064 261.757 56.096 261.448 56.096ZM261.576 54.896C262.109 54.896 262.568 54.8107 262.952 54.64C263.347 54.4587 263.651 54.1973 263.864 53.856C264.077 53.5147 264.184 53.0987 264.184 52.608V52.192H262.696C262.344 52.192 261.997 52.1973 261.656 52.208C261.315 52.2187 261.005 52.2613 260.728 52.336C260.451 52.4107 260.227 52.5387 260.056 52.72C259.896 52.9013 259.816 53.1627 259.816 53.504C259.816 53.824 259.896 54.0853 260.056 54.288C260.227 54.4907 260.445 54.6453 260.712 54.752C260.989 54.848 261.277 54.896 261.576 54.896ZM267.619 56V47.568H269.443L272.179 51.792L274.867 47.568H276.659V56H275.315V49.072L272.339 53.84H271.955L268.963 49.072V56H267.619ZM282.454 56.096C281.558 56.096 280.817 55.9147 280.23 55.552C279.644 55.1787 279.206 54.6667 278.918 54.016C278.63 53.3653 278.486 52.624 278.486 51.792C278.486 50.9493 278.636 50.208 278.934 49.568C279.244 48.9173 279.692 48.4053 280.278 48.032C280.865 47.6587 281.585 47.472 282.438 47.472C283.068 47.472 283.617 47.5947 284.086 47.84C284.566 48.0747 284.961 48.3947 285.27 48.8C285.59 49.2053 285.82 49.6587 285.958 50.16C286.108 50.6613 286.172 51.1787 286.15 51.712C286.14 51.808 286.134 51.904 286.134 52C286.134 52.096 286.129 52.192 286.118 52.288H279.862C279.905 52.7787 280.028 53.2213 280.23 53.616C280.433 54.0107 280.721 54.3253 281.094 54.56C281.468 54.784 281.932 54.896 282.486 54.896C282.764 54.896 283.041 54.864 283.318 54.8C283.606 54.7253 283.862 54.6027 284.086 54.432C284.321 54.2613 284.486 54.032 284.582 53.744H285.974C285.846 54.288 285.606 54.736 285.254 55.088C284.902 55.4293 284.481 55.6853 283.99 55.856C283.5 56.016 282.988 56.096 282.454 56.096ZM279.894 51.104H284.774C284.764 50.624 284.657 50.2027 284.454 49.84C284.252 49.4773 283.974 49.1947 283.622 48.992C283.281 48.7893 282.87 48.688 282.39 48.688C281.868 48.688 281.425 48.8 281.062 49.024C280.71 49.248 280.438 49.5413 280.246 49.904C280.054 50.2667 279.937 50.6667 279.894 51.104ZM287.978 59.04V47.568H289.274L289.338 48.864C289.626 48.4053 290.016 48.0587 290.506 47.824C291.008 47.5893 291.546 47.472 292.122 47.472C292.976 47.472 293.674 47.664 294.218 48.048C294.762 48.4213 295.162 48.9333 295.418 49.584C295.685 50.2347 295.818 50.9707 295.818 51.792C295.818 52.6133 295.685 53.3493 295.418 54C295.152 54.6507 294.741 55.1627 294.186 55.536C293.632 55.9093 292.922 56.096 292.058 56.096C291.632 56.096 291.248 56.0533 290.906 55.968C290.565 55.872 290.266 55.7387 290.01 55.568C289.754 55.3973 289.53 55.2053 289.338 54.992V59.04H287.978ZM291.946 54.896C292.565 54.896 293.056 54.7573 293.418 54.48C293.781 54.192 294.042 53.8133 294.202 53.344C294.373 52.8747 294.458 52.3573 294.458 51.792C294.458 51.216 294.373 50.6933 294.202 50.224C294.042 49.7547 293.776 49.3813 293.402 49.104C293.029 48.8267 292.533 48.688 291.914 48.688C291.36 48.688 290.885 48.832 290.49 49.12C290.106 49.3973 289.813 49.776 289.61 50.256C289.408 50.7253 289.306 51.2427 289.306 51.808C289.306 52.3947 289.402 52.9227 289.594 53.392C289.786 53.8613 290.08 54.2293 290.474 54.496C290.869 54.7627 291.36 54.896 291.946 54.896ZM297.572 56V47.568H298.964V50.784H300.484C300.985 50.784 301.439 50.8267 301.844 50.912C302.249 50.9973 302.596 51.136 302.884 51.328C303.172 51.52 303.391 51.7813 303.54 52.112C303.689 52.432 303.764 52.8373 303.764 53.328C303.764 53.7973 303.684 54.2027 303.524 54.544C303.364 54.8853 303.135 55.1627 302.836 55.376C302.548 55.5893 302.201 55.7493 301.796 55.856C301.401 55.952 300.969 56 300.5 56H297.572ZM298.964 54.816H299.412C299.785 54.816 300.148 54.8107 300.5 54.8C300.852 54.7787 301.167 54.7253 301.444 54.64C301.732 54.5547 301.961 54.416 302.132 54.224C302.303 54.0213 302.388 53.7387 302.388 53.376C302.388 53.0347 302.319 52.7733 302.18 52.592C302.052 52.4 301.881 52.2613 301.668 52.176C301.455 52.08 301.22 52.0213 300.964 52C300.719 51.9787 300.473 51.968 300.228 51.968H298.964V54.816ZM304.932 56V47.568H306.292V56H304.932ZM312.744 56V47.568H319.736V56H318.376V48.768H314.104V56H312.744ZM325.565 56.096C324.679 56.096 323.938 55.9147 323.341 55.552C322.743 55.1787 322.295 54.6667 321.997 54.016C321.709 53.3653 321.565 52.624 321.565 51.792C321.565 50.9493 321.709 50.208 321.997 49.568C322.295 48.9173 322.743 48.4053 323.341 48.032C323.938 47.6587 324.69 47.472 325.597 47.472C326.482 47.472 327.218 47.6587 327.805 48.032C328.402 48.4053 328.845 48.9173 329.133 49.568C329.431 50.208 329.581 50.9493 329.581 51.792C329.581 52.624 329.431 53.3653 329.133 54.016C328.834 54.6667 328.386 55.1787 327.789 55.552C327.202 55.9147 326.461 56.096 325.565 56.096ZM325.565 54.896C326.183 54.896 326.685 54.7573 327.069 54.48C327.463 54.2027 327.751 53.8293 327.933 53.36C328.125 52.8907 328.221 52.368 328.221 51.792C328.221 51.216 328.125 50.6933 327.933 50.224C327.751 49.7547 327.463 49.3813 327.069 49.104C326.685 48.8267 326.183 48.688 325.565 48.688C324.957 48.688 324.455 48.8267 324.061 49.104C323.677 49.3813 323.389 49.7547 323.197 50.224C323.015 50.6933 322.924 51.216 322.924 51.792C322.924 52.368 323.015 52.8907 323.197 53.36C323.389 53.8293 323.677 54.2027 324.061 54.48C324.455 54.7573 324.957 54.896 325.565 54.896ZM109.672 76.096C108.787 76.096 108.051 75.9147 107.464 75.552C106.888 75.1787 106.456 74.6667 106.168 74.016C105.891 73.3653 105.752 72.6293 105.752 71.808C105.752 71.008 105.896 70.2827 106.184 69.632C106.483 68.9707 106.931 68.448 107.528 68.064C108.136 67.6693 108.904 67.472 109.832 67.472C110.408 67.472 110.92 67.568 111.368 67.76C111.827 67.952 112.205 68.2347 112.504 68.608C112.803 68.9707 113.011 69.4293 113.128 69.984H111.736C111.576 69.5147 111.32 69.184 110.968 68.992C110.627 68.7893 110.221 68.688 109.752 68.688C109.112 68.688 108.6 68.8373 108.216 69.136C107.832 69.4347 107.549 69.824 107.368 70.304C107.197 70.7733 107.112 71.2747 107.112 71.808C107.112 72.3627 107.203 72.8747 107.384 73.344C107.565 73.8133 107.848 74.192 108.232 74.48C108.616 74.7573 109.112 74.896 109.72 74.896C110.168 74.896 110.589 74.8 110.984 74.608C111.389 74.416 111.656 74.0747 111.784 73.584H113.192C113.085 74.16 112.856 74.6347 112.504 75.008C112.163 75.3813 111.741 75.6587 111.24 75.84C110.749 76.0107 110.227 76.096 109.672 76.096ZM121.508 78.592V76H114.916V67.568H116.276V74.816H120.356V67.568H121.732V74.816H122.836V78.592H121.508ZM127.908 76.096C127.012 76.096 126.27 75.9147 125.684 75.552C125.097 75.1787 124.66 74.6667 124.372 74.016C124.084 73.3653 123.94 72.624 123.94 71.792C123.94 70.9493 124.089 70.208 124.388 69.568C124.697 68.9173 125.145 68.4053 125.732 68.032C126.318 67.6587 127.038 67.472 127.891 67.472C128.521 67.472 129.07 67.5947 129.54 67.84C130.02 68.0747 130.414 68.3947 130.724 68.8C131.044 69.2053 131.273 69.6587 131.411 70.16C131.561 70.6613 131.625 71.1787 131.604 71.712C131.593 71.808 131.588 71.904 131.588 72C131.588 72.096 131.582 72.192 131.572 72.288H125.316C125.358 72.7787 125.481 73.2213 125.684 73.616C125.886 74.0107 126.174 74.3253 126.548 74.56C126.921 74.784 127.385 74.896 127.94 74.896C128.217 74.896 128.494 74.864 128.772 74.8C129.06 74.7253 129.316 74.6027 129.54 74.432C129.774 74.2613 129.94 74.032 130.036 73.744H131.428C131.3 74.288 131.06 74.736 130.708 75.088C130.356 75.4293 129.934 75.6853 129.444 75.856C128.953 76.016 128.441 76.096 127.908 76.096ZM125.348 71.104H130.228C130.217 70.624 130.11 70.2027 129.908 69.84C129.705 69.4773 129.428 69.1947 129.076 68.992C128.734 68.7893 128.324 68.688 127.844 68.688C127.321 68.688 126.878 68.8 126.516 69.024C126.164 69.248 125.892 69.5413 125.7 69.904C125.508 70.2667 125.39 70.6667 125.348 71.104ZM133.431 76V67.568H134.791V71.264H139.015V67.568H140.375V76H139.015V72.464H134.791V76H133.431ZM146.173 76.096C145.277 76.096 144.536 75.9147 143.949 75.552C143.362 75.1787 142.925 74.6667 142.637 74.016C142.349 73.3653 142.205 72.624 142.205 71.792C142.205 70.9493 142.354 70.208 142.653 69.568C142.962 68.9173 143.41 68.4053 143.997 68.032C144.584 67.6587 145.304 67.472 146.157 67.472C146.786 67.472 147.336 67.5947 147.805 67.84C148.285 68.0747 148.68 68.3947 148.989 68.8C149.309 69.2053 149.538 69.6587 149.677 70.16C149.826 70.6613 149.89 71.1787 149.869 71.712C149.858 71.808 149.853 71.904 149.853 72C149.853 72.096 149.848 72.192 149.837 72.288H143.581C143.624 72.7787 143.746 73.2213 143.949 73.616C144.152 74.0107 144.44 74.3253 144.813 74.56C145.186 74.784 145.65 74.896 146.205 74.896C146.482 74.896 146.76 74.864 147.037 74.8C147.325 74.7253 147.581 74.6027 147.805 74.432C148.04 74.2613 148.205 74.032 148.301 73.744H149.693C149.565 74.288 149.325 74.736 148.973 75.088C148.621 75.4293 148.2 75.6853 147.709 75.856C147.218 76.016 146.706 76.096 146.173 76.096ZM143.613 71.104H148.493C148.482 70.624 148.376 70.2027 148.173 69.84C147.97 69.4773 147.693 69.1947 147.341 68.992C147 68.7893 146.589 68.688 146.109 68.688C145.586 68.688 145.144 68.8 144.781 69.024C144.429 69.248 144.157 69.5413 143.965 69.904C143.773 70.2667 143.656 70.6667 143.613 71.104ZM156.01 76V67.568H157.37V71.264H161.594V67.568H162.954V76H161.594V72.464H157.37V76H156.01ZM165.375 79.616V78.32C165.898 78.32 166.314 78.2453 166.623 78.096C166.933 77.9573 167.189 77.7333 167.391 77.424C167.605 77.1253 167.807 76.7413 167.999 76.272L164.303 67.568H165.903L168.751 74.672L171.087 67.568H172.623L170.255 74.208C170.138 74.5493 170.005 74.9333 169.855 75.36C169.706 75.7867 169.541 76.2187 169.359 76.656C169.178 77.104 168.975 77.5147 168.751 77.888C168.538 78.272 168.298 78.5813 168.031 78.816C167.807 79.0187 167.589 79.1787 167.375 79.296C167.162 79.4133 166.901 79.4933 166.591 79.536C166.293 79.5893 165.887 79.616 165.375 79.616ZM173.037 76L175.773 71.584L173.277 67.568H174.733L176.957 71.216H178.221V67.568H179.581V71.216H180.845L183.069 67.568H184.525L182.029 71.584L184.765 76H183.181L180.989 72.368H179.581V76H178.221V72.368H176.812L174.621 76H173.037ZM186.056 76V67.568H187.416V71.264H191.64V67.568H193V76H191.64V72.464H187.416V76H186.056ZM198.83 76.096C197.945 76.096 197.203 75.9147 196.606 75.552C196.009 75.1787 195.561 74.6667 195.262 74.016C194.974 73.3653 194.83 72.624 194.83 71.792C194.83 70.9493 194.974 70.208 195.262 69.568C195.561 68.9173 196.009 68.4053 196.606 68.032C197.203 67.6587 197.955 67.472 198.862 67.472C199.747 67.472 200.483 67.6587 201.07 68.032C201.667 68.4053 202.11 68.9173 202.398 69.568C202.697 70.208 202.846 70.9493 202.846 71.792C202.846 72.624 202.697 73.3653 202.398 74.016C202.099 74.6667 201.651 75.1787 201.054 75.552C200.467 75.9147 199.726 76.096 198.83 76.096ZM198.83 74.896C199.449 74.896 199.95 74.7573 200.334 74.48C200.729 74.2027 201.017 73.8293 201.198 73.36C201.39 72.8907 201.486 72.368 201.486 71.792C201.486 71.216 201.39 70.6933 201.198 70.224C201.017 69.7547 200.729 69.3813 200.334 69.104C199.95 68.8267 199.449 68.688 198.83 68.688C198.222 68.688 197.721 68.8267 197.326 69.104C196.942 69.3813 196.654 69.7547 196.462 70.224C196.281 70.6933 196.19 71.216 196.19 71.792C196.19 72.368 196.281 72.8907 196.462 73.36C196.654 73.8293 196.942 74.2027 197.326 74.48C197.721 74.7573 198.222 74.896 198.83 74.896ZM211.682 76.096C211.298 76.096 210.925 76.048 210.562 75.952C210.21 75.8453 209.89 75.6907 209.602 75.488C209.325 75.2747 209.101 75.0133 208.93 74.704C208.77 74.384 208.69 74.016 208.69 73.6C208.69 73.12 208.776 72.7147 208.946 72.384C209.128 72.0533 209.368 71.792 209.666 71.6C209.965 71.408 210.312 71.2693 210.706 71.184C211.101 71.0987 211.512 71.056 211.938 71.056H214.418C214.418 70.576 214.349 70.16 214.21 69.808C214.082 69.456 213.869 69.184 213.57 68.992C213.272 68.7893 212.877 68.688 212.386 68.688C212.088 68.688 211.81 68.72 211.554 68.784C211.298 68.848 211.08 68.9493 210.898 69.088C210.717 69.2267 210.584 69.4133 210.498 69.648H209.042C209.117 69.264 209.261 68.9387 209.474 68.672C209.698 68.3947 209.965 68.1707 210.274 68C210.594 67.8187 210.936 67.6853 211.298 67.6C211.661 67.5147 212.024 67.472 212.386 67.472C213.197 67.472 213.848 67.6373 214.338 67.968C214.829 68.288 215.186 68.7467 215.41 69.344C215.634 69.9307 215.746 70.6293 215.746 71.44V76H214.61L214.53 74.928C214.296 75.248 214.013 75.4933 213.682 75.664C213.352 75.8347 213.01 75.9467 212.658 76C212.317 76.064 211.992 76.096 211.682 76.096ZM211.81 74.896C212.344 74.896 212.802 74.8107 213.186 74.64C213.581 74.4587 213.885 74.1973 214.098 73.856C214.312 73.5147 214.418 73.0987 214.418 72.608V72.192H212.93C212.578 72.192 212.232 72.1973 211.89 72.208C211.549 72.2187 211.24 72.2613 210.962 72.336C210.685 72.4107 210.461 72.5387 210.29 72.72C210.13 72.9013 210.05 73.1627 210.05 73.504C210.05 73.824 210.13 74.0853 210.29 74.288C210.461 74.4907 210.68 74.6453 210.946 74.752C211.224 74.848 211.512 74.896 211.81 74.896ZM217.853 76V67.568H219.213V71.2H220.685L223.181 67.568H224.733L221.917 71.584L224.973 76H223.373L220.845 72.384H219.213V76H217.853ZM228.118 76V68.768H225.222V67.568H232.374V68.768H229.478V76H228.118ZM233.588 76V67.568H234.948V74.032C235.022 73.8827 235.124 73.7227 235.252 73.552C235.38 73.3707 235.481 73.232 235.556 73.136L239.636 67.568H240.98V76H239.62V69.536C239.534 69.696 239.438 69.8453 239.332 69.984C239.236 70.1227 239.145 70.2507 239.06 70.368L234.916 76H233.588ZM243.119 76V67.568H246.383C246.756 67.568 247.124 67.5947 247.487 67.648C247.86 67.6907 248.196 67.7867 248.495 67.936C248.804 68.0747 249.05 68.2827 249.231 68.56C249.423 68.8373 249.519 69.2053 249.519 69.664C249.519 69.9413 249.476 70.1973 249.391 70.432C249.306 70.656 249.178 70.8533 249.007 71.024C248.847 71.1947 248.639 71.344 248.383 71.472C248.959 71.6 249.375 71.8507 249.631 72.224C249.887 72.5973 250.015 73.024 250.015 73.504C250.015 73.9307 249.935 74.304 249.775 74.624C249.626 74.9333 249.412 75.1893 249.135 75.392C248.868 75.5947 248.554 75.7493 248.191 75.856C247.839 75.952 247.46 76 247.055 76H243.119ZM244.511 74.816H246.735C247.066 74.816 247.375 74.784 247.663 74.72C247.951 74.656 248.186 74.5387 248.367 74.368C248.548 74.1867 248.639 73.9307 248.639 73.6C248.639 73.2587 248.559 73.0027 248.399 72.832C248.25 72.6507 248.052 72.528 247.807 72.464C247.572 72.3893 247.316 72.3467 247.039 72.336C246.762 72.3253 246.5 72.32 246.255 72.32H244.511V74.816ZM244.511 71.168H245.679C245.892 71.168 246.138 71.1573 246.415 71.136C246.703 71.1147 246.98 71.0667 247.247 70.992C247.524 70.9067 247.748 70.7787 247.919 70.608C248.1 70.4373 248.191 70.2027 248.191 69.904C248.191 69.5093 248.079 69.2373 247.855 69.088C247.642 68.928 247.386 68.8373 247.087 68.816C246.788 68.784 246.511 68.768 246.255 68.768H244.511V71.168ZM251.869 76V67.568H253.229V74.032C253.304 73.8827 253.405 73.7227 253.533 73.552C253.661 73.3707 253.762 73.232 253.837 73.136L257.917 67.568H259.261V76H257.901V69.536C257.816 69.696 257.72 69.8453 257.613 69.984C257.517 70.1227 257.426 70.2507 257.341 70.368L253.197 76H251.869ZM261.4 79.04V67.568H262.696L262.76 68.864C263.048 68.4053 263.437 68.0587 263.928 67.824C264.429 67.5893 264.968 67.472 265.544 67.472C266.397 67.472 267.096 67.664 267.64 68.048C268.184 68.4213 268.584 68.9333 268.84 69.584C269.107 70.2347 269.24 70.9707 269.24 71.792C269.24 72.6133 269.107 73.3493 268.84 74C268.573 74.6507 268.163 75.1627 267.608 75.536C267.053 75.9093 266.344 76.096 265.48 76.096C265.053 76.096 264.669 76.0533 264.328 75.968C263.987 75.872 263.688 75.7387 263.432 75.568C263.176 75.3973 262.952 75.2053 262.76 74.992V79.04H261.4ZM265.368 74.896C265.987 74.896 266.477 74.7573 266.84 74.48C267.203 74.192 267.464 73.8133 267.624 73.344C267.795 72.8747 267.88 72.3573 267.88 71.792C267.88 71.216 267.795 70.6933 267.624 70.224C267.464 69.7547 267.197 69.3813 266.824 69.104C266.451 68.8267 265.955 68.688 265.336 68.688C264.781 68.688 264.307 68.832 263.912 69.12C263.528 69.3973 263.235 69.776 263.032 70.256C262.829 70.7253 262.728 71.2427 262.728 71.808C262.728 72.3947 262.824 72.9227 263.016 73.392C263.208 73.8613 263.501 74.2293 263.896 74.496C264.291 74.7627 264.781 74.896 265.368 74.896ZM274.674 76.096C273.789 76.096 273.047 75.9147 272.45 75.552C271.853 75.1787 271.405 74.6667 271.106 74.016C270.818 73.3653 270.674 72.624 270.674 71.792C270.674 70.9493 270.818 70.208 271.106 69.568C271.405 68.9173 271.853 68.4053 272.45 68.032C273.047 67.6587 273.799 67.472 274.706 67.472C275.591 67.472 276.327 67.6587 276.914 68.032C277.511 68.4053 277.954 68.9173 278.242 69.568C278.541 70.208 278.69 70.9493 278.69 71.792C278.69 72.624 278.541 73.3653 278.242 74.016C277.943 74.6667 277.495 75.1787 276.898 75.552C276.311 75.9147 275.57 76.096 274.674 76.096ZM274.674 74.896C275.293 74.896 275.794 74.7573 276.178 74.48C276.573 74.2027 276.861 73.8293 277.042 73.36C277.234 72.8907 277.33 72.368 277.33 71.792C277.33 71.216 277.234 70.6933 277.042 70.224C276.861 69.7547 276.573 69.3813 276.178 69.104C275.794 68.8267 275.293 68.688 274.674 68.688C274.066 68.688 273.565 68.8267 273.17 69.104C272.786 69.3813 272.498 69.7547 272.306 70.224C272.125 70.6933 272.034 71.216 272.034 71.792C272.034 72.368 272.125 72.8907 272.306 73.36C272.498 73.8293 272.786 74.2027 273.17 74.48C273.565 74.7573 274.066 74.896 274.674 74.896ZM280.51 76V67.568H283.774C284.147 67.568 284.515 67.5947 284.878 67.648C285.251 67.6907 285.587 67.7867 285.886 67.936C286.195 68.0747 286.44 68.2827 286.622 68.56C286.814 68.8373 286.91 69.2053 286.91 69.664C286.91 69.9413 286.867 70.1973 286.782 70.432C286.696 70.656 286.568 70.8533 286.398 71.024C286.238 71.1947 286.03 71.344 285.774 71.472C286.35 71.6 286.766 71.8507 287.022 72.224C287.278 72.5973 287.406 73.024 287.406 73.504C287.406 73.9307 287.326 74.304 287.166 74.624C287.016 74.9333 286.803 75.1893 286.526 75.392C286.259 75.5947 285.944 75.7493 285.582 75.856C285.23 75.952 284.851 76 284.446 76H280.51ZM281.902 74.816H284.126C284.456 74.816 284.766 74.784 285.054 74.72C285.342 74.656 285.576 74.5387 285.758 74.368C285.939 74.1867 286.03 73.9307 286.03 73.6C286.03 73.2587 285.95 73.0027 285.79 72.832C285.64 72.6507 285.443 72.528 285.198 72.464C284.963 72.3893 284.707 72.3467 284.43 72.336C284.152 72.3253 283.891 72.32 283.646 72.32H281.902V74.816ZM281.902 71.168H283.07C283.283 71.168 283.528 71.1573 283.806 71.136C284.094 71.1147 284.371 71.0667 284.638 70.992C284.915 70.9067 285.139 70.7787 285.31 70.608C285.491 70.4373 285.582 70.2027 285.582 69.904C285.582 69.5093 285.47 69.2373 285.246 69.088C285.032 68.928 284.776 68.8373 284.478 68.816C284.179 68.784 283.902 68.768 283.646 68.768H281.902V71.168ZM291.964 76.096C291.58 76.096 291.206 76.048 290.844 75.952C290.492 75.8453 290.172 75.6907 289.884 75.488C289.606 75.2747 289.382 75.0133 289.212 74.704C289.052 74.384 288.972 74.016 288.972 73.6C288.972 73.12 289.057 72.7147 289.228 72.384C289.409 72.0533 289.649 71.792 289.948 71.6C290.246 71.408 290.593 71.2693 290.988 71.184C291.382 71.0987 291.793 71.056 292.22 71.056H294.7C294.7 70.576 294.63 70.16 294.492 69.808C294.364 69.456 294.15 69.184 293.852 68.992C293.553 68.7893 293.158 68.688 292.668 68.688C292.369 68.688 292.092 68.72 291.836 68.784C291.58 68.848 291.361 68.9493 291.18 69.088C290.998 69.2267 290.865 69.4133 290.78 69.648H289.324C289.398 69.264 289.542 68.9387 289.756 68.672C289.98 68.3947 290.246 68.1707 290.556 68C290.876 67.8187 291.217 67.6853 291.58 67.6C291.942 67.5147 292.305 67.472 292.668 67.472C293.478 67.472 294.129 67.6373 294.62 67.968C295.11 68.288 295.468 68.7467 295.692 69.344C295.916 69.9307 296.028 70.6293 296.028 71.44V76H294.892L294.812 74.928C294.577 75.248 294.294 75.4933 293.964 75.664C293.633 75.8347 293.292 75.9467 292.94 76C292.598 76.064 292.273 76.096 291.964 76.096ZM292.092 74.896C292.625 74.896 293.084 74.8107 293.468 74.64C293.862 74.4587 294.166 74.1973 294.38 73.856C294.593 73.5147 294.7 73.0987 294.7 72.608V72.192H293.212C292.86 72.192 292.513 72.1973 292.172 72.208C291.83 72.2187 291.521 72.2613 291.244 72.336C290.966 72.4107 290.742 72.5387 290.572 72.72C290.412 72.9013 290.332 73.1627 290.332 73.504C290.332 73.824 290.412 74.0853 290.572 74.288C290.742 74.4907 290.961 74.6453 291.228 74.752C291.505 74.848 291.793 74.896 292.092 74.896ZM300.103 76V68.768H297.207V67.568H304.359V68.768H301.463V76H300.103ZM305.572 76V67.568H306.964V70.784H308.82C309.321 70.784 309.769 70.8267 310.164 70.912C310.569 70.9867 310.916 71.12 311.204 71.312C311.492 71.504 311.711 71.7653 311.86 72.096C312.02 72.416 312.1 72.8267 312.1 73.328C312.1 73.7867 312.02 74.1867 311.86 74.528C311.7 74.8587 311.476 75.136 311.188 75.36C310.9 75.5733 310.553 75.7333 310.148 75.84C309.753 75.9467 309.316 76 308.836 76H305.572ZM306.964 74.816H307.764C308.137 74.816 308.495 74.8053 308.836 74.784C309.188 74.7627 309.508 74.7093 309.796 74.624C310.084 74.5387 310.308 74.4 310.468 74.208C310.639 74.0053 310.724 73.728 310.724 73.376C310.724 73.0347 310.655 72.7733 310.516 72.592C310.388 72.4 310.217 72.2613 310.004 72.176C309.791 72.08 309.556 72.0213 309.3 72C309.055 71.9787 308.809 71.968 308.564 71.968H306.964V74.816ZM321.301 76.096C320.747 76.096 320.213 76.0107 319.701 75.84C319.2 75.6587 318.773 75.3813 318.421 75.008C318.08 74.6347 317.851 74.16 317.733 73.584H319.141C319.227 73.9147 319.387 74.176 319.621 74.368C319.867 74.56 320.144 74.6987 320.453 74.784C320.763 74.8587 321.067 74.896 321.365 74.896C321.899 74.896 322.341 74.784 322.693 74.56C323.045 74.3253 323.312 74.0213 323.493 73.648C323.685 73.2747 323.787 72.864 323.797 72.416H320.101V71.232H323.813C323.781 70.7307 323.669 70.2933 323.477 69.92C323.285 69.536 323.013 69.2373 322.661 69.024C322.32 68.8 321.888 68.688 321.365 68.688C321.056 68.688 320.747 68.7307 320.437 68.816C320.139 68.8907 319.877 69.024 319.653 69.216C319.429 69.3973 319.275 69.6533 319.189 69.984H317.813C317.952 69.408 318.192 68.9387 318.533 68.576C318.875 68.2027 319.291 67.9253 319.781 67.744C320.272 67.5627 320.8 67.472 321.365 67.472C322.272 67.472 323.003 67.6587 323.557 68.032C324.123 68.4053 324.533 68.9173 324.789 69.568C325.056 70.2187 325.189 70.96 325.189 71.792C325.189 72.6453 325.051 73.3973 324.773 74.048C324.496 74.688 324.069 75.1893 323.493 75.552C322.928 75.9147 322.197 76.096 321.301 76.096ZM328.915 76V68.768H326.019V67.568H333.171V68.768H330.275V76H328.915ZM334.969 79.616V78.32C335.492 78.32 335.908 78.2453 336.217 78.096C336.526 77.9573 336.782 77.7333 336.985 77.424C337.198 77.1253 337.401 76.7413 337.593 76.272L333.897 67.568H335.497L338.345 74.672L340.681 67.568H342.217L339.849 74.208C339.732 74.5493 339.598 74.9333 339.449 75.36C339.3 75.7867 339.134 76.2187 338.953 76.656C338.772 77.104 338.569 77.5147 338.345 77.888C338.132 78.272 337.892 78.5813 337.625 78.816C337.401 79.0187 337.182 79.1787 336.969 79.296C336.756 79.4133 336.494 79.4933 336.185 79.536C335.886 79.5893 335.481 79.616 334.969 79.616ZM106.072 96V87.568H107.432V91.2H108.904L111.4 87.568H112.952L110.136 91.584L113.192 96H111.592L109.064 92.384H107.432V96H106.072ZM114.369 96V87.568H115.729V91.264H119.953V87.568H121.313V96H119.953V92.464H115.729V96H114.369ZM127.143 96.096C126.257 96.096 125.516 95.9147 124.919 95.552C124.321 95.1787 123.873 94.6667 123.575 94.016C123.287 93.3653 123.143 92.624 123.143 91.792C123.143 90.9493 123.287 90.208 123.575 89.568C123.873 88.9173 124.321 88.4053 124.919 88.032C125.516 87.6587 126.268 87.472 127.175 87.472C128.06 87.472 128.796 87.6587 129.383 88.032C129.98 88.4053 130.423 88.9173 130.711 89.568C131.009 90.208 131.159 90.9493 131.159 91.792C131.159 92.624 131.009 93.3653 130.711 94.016C130.412 94.6667 129.964 95.1787 129.367 95.552C128.78 95.9147 128.039 96.096 127.143 96.096ZM127.143 94.896C127.761 94.896 128.263 94.7573 128.647 94.48C129.041 94.2027 129.329 93.8293 129.511 93.36C129.703 92.8907 129.799 92.368 129.799 91.792C129.799 91.216 129.703 90.6933 129.511 90.224C129.329 89.7547 129.041 89.3813 128.647 89.104C128.263 88.8267 127.761 88.688 127.143 88.688C126.535 88.688 126.033 88.8267 125.639 89.104C125.255 89.3813 124.967 89.7547 124.775 90.224C124.593 90.6933 124.503 91.216 124.503 91.792C124.503 92.368 124.593 92.8907 124.775 93.36C124.967 93.8293 125.255 94.2027 125.639 94.48C126.033 94.7573 126.535 94.896 127.143 94.896ZM132.978 96V87.568H139.97V96H138.61V88.768H134.338V96H132.978ZM142.119 96V87.568H143.479V91.2H144.951L147.447 87.568H148.999L146.183 91.584L149.239 96H147.639L145.111 92.384H143.479V96H142.119ZM150.688 99.616V98.32C151.21 98.32 151.626 98.2453 151.936 98.096C152.245 97.9573 152.501 97.7333 152.704 97.424C152.917 97.1253 153.12 96.7413 153.312 96.272L149.616 87.568H151.216L154.064 94.672L156.4 87.568H157.936L155.568 94.208C155.45 94.5493 155.317 94.9333 155.168 95.36C155.018 95.7867 154.853 96.2187 154.672 96.656C154.49 97.104 154.288 97.5147 154.064 97.888C153.85 98.272 153.61 98.5813 153.344 98.816C153.12 99.0187 152.901 99.1787 152.688 99.296C152.474 99.4133 152.213 99.4933 151.904 99.536C151.605 99.5893 151.2 99.616 150.688 99.616ZM159.516 96.128C159.239 96.128 159.01 96.0373 158.828 95.856C158.647 95.6747 158.556 95.4453 158.556 95.168C158.556 94.8907 158.647 94.6613 158.828 94.48C159.01 94.2987 159.239 94.208 159.516 94.208C159.794 94.208 160.023 94.2987 160.204 94.48C160.386 94.6613 160.476 94.8907 160.476 95.168C160.476 95.4453 160.386 95.6747 160.204 95.856C160.023 96.0373 159.794 96.128 159.516 96.128ZM166.767 96V84.688H175.663V96H174.271V85.952H168.159V96H166.767ZM181.815 96.096C180.929 96.096 180.188 95.9147 179.591 95.552C178.993 95.1787 178.545 94.6667 178.247 94.016C177.959 93.3653 177.815 92.624 177.815 91.792C177.815 90.9493 177.959 90.208 178.247 89.568C178.545 88.9173 178.993 88.4053 179.591 88.032C180.188 87.6587 180.94 87.472 181.847 87.472C182.732 87.472 183.468 87.6587 184.055 88.032C184.652 88.4053 185.095 88.9173 185.383 89.568C185.681 90.208 185.831 90.9493 185.831 91.792C185.831 92.624 185.681 93.3653 185.383 94.016C185.084 94.6667 184.636 95.1787 184.039 95.552C183.452 95.9147 182.711 96.096 181.815 96.096ZM181.815 94.896C182.433 94.896 182.935 94.7573 183.319 94.48C183.713 94.2027 184.001 93.8293 184.183 93.36C184.375 92.8907 184.471 92.368 184.471 91.792C184.471 91.216 184.375 90.6933 184.183 90.224C184.001 89.7547 183.713 89.3813 183.319 89.104C182.935 88.8267 182.433 88.688 181.815 88.688C181.207 88.688 180.705 88.8267 180.311 89.104C179.927 89.3813 179.639 89.7547 179.447 90.224C179.265 90.6933 179.174 91.216 179.174 91.792C179.174 92.368 179.265 92.8907 179.447 93.36C179.639 93.8293 179.927 94.2027 180.311 94.48C180.705 94.7573 181.207 94.896 181.815 94.896ZM192.235 99.616V98.32C192.757 98.32 193.173 98.2453 193.483 98.096C193.792 97.9573 194.048 97.7333 194.251 97.424C194.464 97.1253 194.667 96.7413 194.859 96.272L191.163 87.568H192.763L195.611 94.672L197.947 87.568H199.483L197.115 94.208C196.997 94.5493 196.864 94.9333 196.715 95.36C196.565 95.7867 196.4 96.2187 196.219 96.656C196.037 97.104 195.835 97.5147 195.611 97.888C195.397 98.272 195.157 98.5813 194.891 98.816C194.667 99.0187 194.448 99.1787 194.235 99.296C194.021 99.4133 193.76 99.4933 193.451 99.536C193.152 99.5893 192.747 99.616 192.235 99.616ZM200.744 96V87.568H202.568L205.304 91.792L207.992 87.568H209.784V96H208.44V89.072L205.464 93.84H205.08L202.088 89.072V96H200.744ZM215.611 96.096C214.726 96.096 213.985 95.9147 213.387 95.552C212.79 95.1787 212.342 94.6667 212.043 94.016C211.755 93.3653 211.611 92.624 211.611 91.792C211.611 90.9493 211.755 90.208 212.043 89.568C212.342 88.9173 212.79 88.4053 213.387 88.032C213.985 87.6587 214.737 87.472 215.643 87.472C216.529 87.472 217.265 87.6587 217.851 88.032C218.449 88.4053 218.891 88.9173 219.179 89.568C219.478 90.208 219.627 90.9493 219.627 91.792C219.627 92.624 219.478 93.3653 219.179 94.016C218.881 94.6667 218.433 95.1787 217.835 95.552C217.249 95.9147 216.507 96.096 215.611 96.096ZM215.611 94.896C216.23 94.896 216.731 94.7573 217.115 94.48C217.51 94.2027 217.798 93.8293 217.979 93.36C218.171 92.8907 218.267 92.368 218.267 91.792C218.267 91.216 218.171 90.6933 217.979 90.224C217.798 89.7547 217.51 89.3813 217.115 89.104C216.731 88.8267 216.23 88.688 215.611 88.688C215.003 88.688 214.502 88.8267 214.107 89.104C213.723 89.3813 213.435 89.7547 213.243 90.224C213.062 90.6933 212.971 91.216 212.971 91.792C212.971 92.368 213.062 92.8907 213.243 93.36C213.435 93.8293 213.723 94.2027 214.107 94.48C214.502 94.7573 215.003 94.896 215.611 94.896ZM220.601 96.016V94.832C220.814 94.832 221.006 94.7893 221.177 94.704C221.348 94.608 221.497 94.4693 221.625 94.288C221.774 94.0747 221.892 93.7653 221.977 93.36C222.062 92.9547 222.121 92.5227 222.153 92.064C222.196 91.552 222.228 91.0507 222.249 90.56C222.27 90.0587 222.286 89.5627 222.297 89.072C222.318 88.5813 222.329 88.08 222.329 87.568H228.185V96H226.825V88.768H223.657C223.646 89.1307 223.63 89.4987 223.609 89.872C223.598 90.2347 223.582 90.6027 223.561 90.976C223.55 91.3387 223.534 91.7067 223.513 92.08C223.502 92.5067 223.46 92.9867 223.385 93.52C223.31 94.0533 223.15 94.5387 222.905 94.976C222.67 95.392 222.382 95.6693 222.041 95.808C221.71 95.9467 221.23 96.016 220.601 96.016ZM235.282 96V92.752C234.877 92.8267 234.482 92.88 234.098 92.912C233.725 92.9333 233.389 92.944 233.09 92.944C232.301 92.944 231.677 92.8213 231.218 92.576C230.759 92.3307 230.434 91.9573 230.242 91.456C230.05 90.944 229.954 90.3093 229.954 89.552V87.568H231.314V89.456C231.314 89.9467 231.362 90.3627 231.458 90.704C231.554 91.0453 231.741 91.3067 232.018 91.488C232.295 91.6587 232.711 91.744 233.266 91.744C233.586 91.744 233.922 91.728 234.274 91.696C234.637 91.664 234.973 91.616 235.282 91.552V87.568H236.642V96H235.282ZM241.495 96.096C241.111 96.096 240.737 96.048 240.375 95.952C240.023 95.8453 239.703 95.6907 239.415 95.488C239.137 95.2747 238.913 95.0133 238.743 94.704C238.583 94.384 238.503 94.016 238.503 93.6C238.503 93.12 238.588 92.7147 238.759 92.384C238.94 92.0533 239.18 91.792 239.479 91.6C239.777 91.408 240.124 91.2693 240.519 91.184C240.913 91.0987 241.324 91.056 241.751 91.056H244.231C244.231 90.576 244.161 90.16 244.023 89.808C243.895 89.456 243.681 89.184 243.383 88.992C243.084 88.7893 242.689 88.688 242.199 88.688C241.9 88.688 241.623 88.72 241.367 88.784C241.111 88.848 240.892 88.9493 240.711 89.088C240.529 89.2267 240.396 89.4133 240.311 89.648H238.855C238.929 89.264 239.073 88.9387 239.287 88.672C239.511 88.3947 239.777 88.1707 240.087 88C240.407 87.8187 240.748 87.6853 241.111 87.6C241.473 87.5147 241.836 87.472 242.199 87.472C243.009 87.472 243.66 87.6373 244.151 87.968C244.641 88.288 244.999 88.7467 245.223 89.344C245.447 89.9307 245.559 90.6293 245.559 91.44V96H244.423L244.343 94.928C244.108 95.248 243.825 95.4933 243.495 95.664C243.164 95.8347 242.823 95.9467 242.471 96C242.129 96.064 241.804 96.096 241.495 96.096ZM241.623 94.896C242.156 94.896 242.615 94.8107 242.999 94.64C243.393 94.4587 243.697 94.1973 243.911 93.856C244.124 93.5147 244.231 93.0987 244.231 92.608V92.192H242.743C242.391 92.192 242.044 92.1973 241.703 92.208C241.361 92.2187 241.052 92.2613 240.775 92.336C240.497 92.4107 240.273 92.5387 240.103 92.72C239.943 92.9013 239.863 93.1627 239.863 93.504C239.863 93.824 239.943 94.0853 240.103 94.288C240.273 94.4907 240.492 94.6453 240.759 94.752C241.036 94.848 241.324 94.896 241.623 94.896ZM247.666 96V87.568H249.026V91.264H253.25V87.568H254.61V96H253.25V92.464H249.026V96H247.666ZM256.76 96V87.568H258.12V94.032C258.194 93.8827 258.296 93.7227 258.424 93.552C258.552 93.3707 258.653 93.232 258.728 93.136L262.808 87.568H264.152V96H262.792V89.536C262.706 89.696 262.61 89.8453 262.504 89.984C262.408 90.1227 262.317 90.2507 262.232 90.368L258.088 96H256.76ZM273.123 96.096C271.885 96.096 270.952 95.7547 270.323 95.072C269.693 94.3787 269.336 93.4827 269.251 92.384H267.651V96H266.291V87.568H267.651V91.2H269.251C269.315 90.464 269.491 89.8187 269.779 89.264C270.077 88.6987 270.504 88.2613 271.059 87.952C271.613 87.632 272.301 87.472 273.123 87.472C274.019 87.472 274.76 87.6587 275.347 88.032C275.933 88.4053 276.371 88.9173 276.659 89.568C276.947 90.208 277.091 90.9493 277.091 91.792C277.091 92.624 276.947 93.3653 276.659 94.016C276.371 94.6667 275.933 95.1787 275.347 95.552C274.76 95.9147 274.019 96.096 273.123 96.096ZM273.123 94.896C273.741 94.896 274.237 94.7573 274.611 94.48C274.995 94.2027 275.277 93.8293 275.459 93.36C275.64 92.8907 275.731 92.368 275.731 91.792C275.731 91.216 275.64 90.6933 275.459 90.224C275.277 89.7547 274.995 89.3813 274.611 89.104C274.237 88.8267 273.741 88.688 273.123 88.688C272.515 88.688 272.019 88.8267 271.635 89.104C271.261 89.3813 270.989 89.7547 270.819 90.224C270.648 90.6933 270.563 91.216 270.563 91.792C270.563 92.368 270.648 92.8907 270.819 93.36C270.989 93.8293 271.261 94.2027 271.635 94.48C272.019 94.7573 272.515 94.896 273.123 94.896ZM283.166 96V87.568H286.43C286.803 87.568 287.171 87.5947 287.534 87.648C287.907 87.6907 288.243 87.7867 288.542 87.936C288.851 88.0747 289.096 88.2827 289.278 88.56C289.47 88.8373 289.566 89.2053 289.566 89.664C289.566 89.9413 289.523 90.1973 289.438 90.432C289.352 90.656 289.224 90.8533 289.054 91.024C288.894 91.1947 288.686 91.344 288.43 91.472C289.006 91.6 289.422 91.8507 289.678 92.224C289.934 92.5973 290.062 93.024 290.062 93.504C290.062 93.9307 289.982 94.304 289.822 94.624C289.672 94.9333 289.459 95.1893 289.182 95.392C288.915 95.5947 288.6 95.7493 288.238 95.856C287.886 95.952 287.507 96 287.102 96H283.166ZM284.558 94.816H286.782C287.112 94.816 287.422 94.784 287.71 94.72C287.998 94.656 288.232 94.5387 288.414 94.368C288.595 94.1867 288.686 93.9307 288.686 93.6C288.686 93.2587 288.606 93.0027 288.446 92.832C288.296 92.6507 288.099 92.528 287.854 92.464C287.619 92.3893 287.363 92.3467 287.086 92.336C286.808 92.3253 286.547 92.32 286.302 92.32H284.558V94.816ZM284.558 91.168H285.726C285.939 91.168 286.184 91.1573 286.462 91.136C286.75 91.1147 287.027 91.0667 287.294 90.992C287.571 90.9067 287.795 90.7787 287.966 90.608C288.147 90.4373 288.238 90.2027 288.238 89.904C288.238 89.5093 288.126 89.2373 287.902 89.088C287.688 88.928 287.432 88.8373 287.134 88.816C286.835 88.784 286.558 88.768 286.302 88.768H284.558V91.168ZM296.228 96V87.568H297.588V91.264H301.812V87.568H303.172V96H301.812V92.464H297.588V96H296.228ZM308.026 96.096C307.642 96.096 307.269 96.048 306.906 95.952C306.554 95.8453 306.234 95.6907 305.946 95.488C305.669 95.2747 305.445 95.0133 305.274 94.704C305.114 94.384 305.034 94.016 305.034 93.6C305.034 93.12 305.119 92.7147 305.29 92.384C305.471 92.0533 305.711 91.792 306.01 91.6C306.309 91.408 306.655 91.2693 307.05 91.184C307.445 91.0987 307.855 91.056 308.282 91.056H310.762C310.762 90.576 310.693 90.16 310.554 89.808C310.426 89.456 310.213 89.184 309.914 88.992C309.615 88.7893 309.221 88.688 308.73 88.688C308.431 88.688 308.154 88.72 307.898 88.784C307.642 88.848 307.423 88.9493 307.242 89.088C307.061 89.2267 306.927 89.4133 306.842 89.648H305.386C305.461 89.264 305.605 88.9387 305.818 88.672C306.042 88.3947 306.309 88.1707 306.618 88C306.938 87.8187 307.279 87.6853 307.642 87.6C308.005 87.5147 308.367 87.472 308.73 87.472C309.541 87.472 310.191 87.6373 310.682 87.968C311.173 88.288 311.53 88.7467 311.754 89.344C311.978 89.9307 312.09 90.6293 312.09 91.44V96H310.954L310.874 94.928C310.639 95.248 310.357 95.4933 310.026 95.664C309.695 95.8347 309.354 95.9467 309.002 96C308.661 96.064 308.335 96.096 308.026 96.096ZM308.154 94.896C308.687 94.896 309.146 94.8107 309.53 94.64C309.925 94.4587 310.229 94.1973 310.442 93.856C310.655 93.5147 310.762 93.0987 310.762 92.608V92.192H309.274C308.922 92.192 308.575 92.1973 308.234 92.208C307.893 92.2187 307.583 92.2613 307.306 92.336C307.029 92.4107 306.805 92.5387 306.634 92.72C306.474 92.9013 306.394 93.1627 306.394 93.504C306.394 93.824 306.474 94.0853 306.634 94.288C306.805 94.4907 307.023 94.6453 307.29 94.752C307.567 94.848 307.855 94.896 308.154 94.896ZM319.157 96V92.752C318.752 92.8267 318.357 92.88 317.973 92.912C317.6 92.9333 317.264 92.944 316.965 92.944C316.176 92.944 315.552 92.8213 315.093 92.576C314.634 92.3307 314.309 91.9573 314.117 91.456C313.925 90.944 313.829 90.3093 313.829 89.552V87.568H315.189V89.456C315.189 89.9467 315.237 90.3627 315.333 90.704C315.429 91.0453 315.616 91.3067 315.893 91.488C316.17 91.6587 316.586 91.744 317.141 91.744C317.461 91.744 317.797 91.728 318.149 91.696C318.512 91.664 318.848 91.616 319.157 91.552V87.568H320.517V96H319.157ZM325.37 96.096C324.986 96.096 324.612 96.048 324.25 95.952C323.898 95.8453 323.578 95.6907 323.29 95.488C323.012 95.2747 322.788 95.0133 322.618 94.704C322.458 94.384 322.378 94.016 322.378 93.6C322.378 93.12 322.463 92.7147 322.634 92.384C322.815 92.0533 323.055 91.792 323.354 91.6C323.652 91.408 323.999 91.2693 324.394 91.184C324.788 91.0987 325.199 91.056 325.626 91.056H328.106C328.106 90.576 328.036 90.16 327.898 89.808C327.77 89.456 327.556 89.184 327.258 88.992C326.959 88.7893 326.564 88.688 326.074 88.688C325.775 88.688 325.498 88.72 325.242 88.784C324.986 88.848 324.767 88.9493 324.586 89.088C324.404 89.2267 324.271 89.4133 324.186 89.648H322.73C322.804 89.264 322.948 88.9387 323.162 88.672C323.386 88.3947 323.652 88.1707 323.962 88C324.282 87.8187 324.623 87.6853 324.986 87.6C325.348 87.5147 325.711 87.472 326.074 87.472C326.884 87.472 327.535 87.6373 328.026 87.968C328.516 88.288 328.874 88.7467 329.098 89.344C329.322 89.9307 329.434 90.6293 329.434 91.44V96H328.298L328.218 94.928C327.983 95.248 327.7 95.4933 327.37 95.664C327.039 95.8347 326.698 95.9467 326.346 96C326.004 96.064 325.679 96.096 325.37 96.096ZM325.498 94.896C326.031 94.896 326.49 94.8107 326.874 94.64C327.268 94.4587 327.572 94.1973 327.786 93.856C327.999 93.5147 328.106 93.0987 328.106 92.608V92.192H326.618C326.266 92.192 325.919 92.1973 325.578 92.208C325.236 92.2187 324.927 92.2613 324.65 92.336C324.372 92.4107 324.148 92.5387 323.978 92.72C323.818 92.9013 323.738 93.1627 323.738 93.504C323.738 93.824 323.818 94.0853 323.978 94.288C324.148 94.4907 324.367 94.6453 324.634 94.752C324.911 94.848 325.199 94.896 325.498 94.896ZM330.773 96.016V94.832C330.986 94.832 331.178 94.7893 331.349 94.704C331.519 94.608 331.669 94.4693 331.797 94.288C331.946 94.0747 332.063 93.7653 332.149 93.36C332.234 92.9547 332.293 92.5227 332.325 92.064C332.367 91.552 332.399 91.0507 332.421 90.56C332.442 90.0587 332.458 89.5627 332.469 89.072C332.49 88.5813 332.501 88.08 332.501 87.568H338.357V96H336.997V88.768H333.829C333.818 89.1307 333.802 89.4987 333.781 89.872C333.77 90.2347 333.754 90.6027 333.733 90.976C333.722 91.3387 333.706 91.7067 333.685 92.08C333.674 92.5067 333.631 92.9867 333.557 93.52C333.482 94.0533 333.322 94.5387 333.077 94.976C332.842 95.392 332.554 95.6693 332.213 95.808C331.882 95.9467 331.402 96.016 330.773 96.016ZM344.142 96.096C343.246 96.096 342.505 95.9147 341.918 95.552C341.331 95.1787 340.894 94.6667 340.606 94.016C340.318 93.3653 340.174 92.624 340.174 91.792C340.174 90.9493 340.323 90.208 340.622 89.568C340.931 88.9173 341.379 88.4053 341.966 88.032C342.553 87.6587 343.273 87.472 344.126 87.472C344.755 87.472 345.305 87.5947 345.774 87.84C346.254 88.0747 346.649 88.3947 346.958 88.8C347.278 89.2053 347.507 89.6587 347.646 90.16C347.795 90.6613 347.859 91.1787 347.838 91.712C347.827 91.808 347.822 91.904 347.822 92C347.822 92.096 347.817 92.192 347.806 92.288H341.55C341.593 92.7787 341.715 93.2213 341.918 93.616C342.121 94.0107 342.409 94.3253 342.782 94.56C343.155 94.784 343.619 94.896 344.174 94.896C344.451 94.896 344.729 94.864 345.006 94.8C345.294 94.7253 345.55 94.6027 345.774 94.432C346.009 94.2613 346.174 94.032 346.27 93.744H347.662C347.534 94.288 347.294 94.736 346.942 95.088C346.59 95.4293 346.169 95.6853 345.678 95.856C345.187 96.016 344.675 96.096 344.142 96.096ZM341.582 91.104H346.462C346.451 90.624 346.345 90.2027 346.142 89.84C345.939 89.4773 345.662 89.1947 345.31 88.992C344.969 88.7893 344.558 88.688 344.078 88.688C343.555 88.688 343.113 88.8 342.75 89.024C342.398 89.248 342.126 89.5413 341.934 89.904C341.742 90.2667 341.625 90.6667 341.582 91.104ZM108.776 116.096C108.392 116.096 108.019 116.048 107.656 115.952C107.304 115.845 106.984 115.691 106.696 115.488C106.419 115.275 106.195 115.013 106.024 114.704C105.864 114.384 105.784 114.016 105.784 113.6C105.784 113.12 105.869 112.715 106.04 112.384C106.221 112.053 106.461 111.792 106.76 111.6C107.059 111.408 107.405 111.269 107.8 111.184C108.195 111.099 108.605 111.056 109.032 111.056H111.512C111.512 110.576 111.443 110.16 111.304 109.808C111.176 109.456 110.963 109.184 110.664 108.992C110.365 108.789 109.971 108.688 109.48 108.688C109.181 108.688 108.904 108.72 108.648 108.784C108.392 108.848 108.173 108.949 107.992 109.088C107.811 109.227 107.677 109.413 107.592 109.648H106.136C106.211 109.264 106.355 108.939 106.568 108.672C106.792 108.395 107.059 108.171 107.368 108C107.688 107.819 108.029 107.685 108.392 107.6C108.755 107.515 109.117 107.472 109.48 107.472C110.291 107.472 110.941 107.637 111.432 107.968C111.923 108.288 112.28 108.747 112.504 109.344C112.728 109.931 112.84 110.629 112.84 111.44V116H111.704L111.624 114.928C111.389 115.248 111.107 115.493 110.776 115.664C110.445 115.835 110.104 115.947 109.752 116C109.411 116.064 109.085 116.096 108.776 116.096ZM108.904 114.896C109.437 114.896 109.896 114.811 110.28 114.64C110.675 114.459 110.979 114.197 111.192 113.856C111.405 113.515 111.512 113.099 111.512 112.608V112.192H110.024C109.672 112.192 109.325 112.197 108.984 112.208C108.643 112.219 108.333 112.261 108.056 112.336C107.779 112.411 107.555 112.539 107.384 112.72C107.224 112.901 107.144 113.163 107.144 113.504C107.144 113.824 107.224 114.085 107.384 114.288C107.555 114.491 107.773 114.645 108.04 114.752C108.317 114.848 108.605 114.896 108.904 114.896ZM114.947 116V107.568H116.307V111.2H117.779L120.275 107.568H121.827L119.011 111.584L122.067 116H120.467L117.939 112.384H116.307V116H114.947ZM125.212 116V108.768H122.316V107.568H129.468V108.768H126.572V116H125.212ZM130.681 116V107.568H132.041V114.032C132.116 113.883 132.217 113.723 132.345 113.552C132.473 113.371 132.575 113.232 132.649 113.136L136.729 107.568H138.073V116H136.713V109.536C136.628 109.696 136.532 109.845 136.425 109.984C136.329 110.123 136.239 110.251 136.153 110.368L132.009 116H130.681ZM140.213 116V107.568H143.477C143.85 107.568 144.218 107.595 144.581 107.648C144.954 107.691 145.29 107.787 145.589 107.936C145.898 108.075 146.143 108.283 146.325 108.56C146.517 108.837 146.613 109.205 146.613 109.664C146.613 109.941 146.57 110.197 146.485 110.432C146.399 110.656 146.271 110.853 146.101 111.024C145.941 111.195 145.733 111.344 145.477 111.472C146.053 111.6 146.469 111.851 146.725 112.224C146.981 112.597 147.109 113.024 147.109 113.504C147.109 113.931 147.029 114.304 146.869 114.624C146.719 114.933 146.506 115.189 146.229 115.392C145.962 115.595 145.647 115.749 145.285 115.856C144.933 115.952 144.554 116 144.149 116H140.213ZM141.605 114.816H143.829C144.159 114.816 144.469 114.784 144.757 114.72C145.045 114.656 145.279 114.539 145.461 114.368C145.642 114.187 145.733 113.931 145.733 113.6C145.733 113.259 145.653 113.003 145.493 112.832C145.343 112.651 145.146 112.528 144.901 112.464C144.666 112.389 144.41 112.347 144.133 112.336C143.855 112.325 143.594 112.32 143.349 112.32H141.605V114.816ZM141.605 111.168H142.773C142.986 111.168 143.231 111.157 143.509 111.136C143.797 111.115 144.074 111.067 144.341 110.992C144.618 110.907 144.842 110.779 145.013 110.608C145.194 110.437 145.285 110.203 145.285 109.904C145.285 109.509 145.173 109.237 144.949 109.088C144.735 108.928 144.479 108.837 144.181 108.816C143.882 108.784 143.605 108.768 143.349 108.768H141.605V111.168ZM148.963 116V107.568H150.323V114.032C150.397 113.883 150.499 113.723 150.627 113.552C150.755 113.371 150.856 113.232 150.931 113.136L155.011 107.568H156.355V116H154.995V109.536C154.909 109.696 154.813 109.845 154.707 109.984C154.611 110.123 154.52 110.251 154.435 110.368L150.291 116H148.963ZM158.494 119.04V107.568H159.79L159.854 108.864C160.142 108.405 160.531 108.059 161.022 107.824C161.523 107.589 162.062 107.472 162.638 107.472C163.491 107.472 164.19 107.664 164.734 108.048C165.278 108.421 165.678 108.933 165.934 109.584C166.201 110.235 166.334 110.971 166.334 111.792C166.334 112.613 166.201 113.349 165.934 114C165.667 114.651 165.257 115.163 164.702 115.536C164.147 115.909 163.438 116.096 162.574 116.096C162.147 116.096 161.763 116.053 161.422 115.968C161.081 115.872 160.782 115.739 160.526 115.568C160.27 115.397 160.046 115.205 159.854 114.992V119.04H158.494ZM162.462 114.896C163.081 114.896 163.571 114.757 163.934 114.48C164.297 114.192 164.558 113.813 164.718 113.344C164.889 112.875 164.974 112.357 164.974 111.792C164.974 111.216 164.889 110.693 164.718 110.224C164.558 109.755 164.291 109.381 163.918 109.104C163.545 108.827 163.049 108.688 162.43 108.688C161.875 108.688 161.401 108.832 161.006 109.12C160.622 109.397 160.329 109.776 160.126 110.256C159.923 110.725 159.822 111.243 159.822 111.808C159.822 112.395 159.918 112.923 160.11 113.392C160.302 113.861 160.595 114.229 160.99 114.496C161.385 114.763 161.875 114.896 162.462 114.896ZM171.768 116.096C170.882 116.096 170.141 115.915 169.544 115.552C168.946 115.179 168.498 114.667 168.2 114.016C167.912 113.365 167.768 112.624 167.768 111.792C167.768 110.949 167.912 110.208 168.2 109.568C168.498 108.917 168.946 108.405 169.544 108.032C170.141 107.659 170.893 107.472 171.8 107.472C172.685 107.472 173.421 107.659 174.008 108.032C174.605 108.405 175.048 108.917 175.336 109.568C175.634 110.208 175.784 110.949 175.784 111.792C175.784 112.624 175.634 113.365 175.336 114.016C175.037 114.667 174.589 115.179 173.992 115.552C173.405 115.915 172.664 116.096 171.768 116.096ZM171.768 114.896C172.386 114.896 172.888 114.757 173.272 114.48C173.666 114.203 173.954 113.829 174.136 113.36C174.328 112.891 174.424 112.368 174.424 111.792C174.424 111.216 174.328 110.693 174.136 110.224C173.954 109.755 173.666 109.381 173.272 109.104C172.888 108.827 172.386 108.688 171.768 108.688C171.16 108.688 170.658 108.827 170.264 109.104C169.88 109.381 169.592 109.755 169.4 110.224C169.218 110.693 169.128 111.216 169.128 111.792C169.128 112.368 169.218 112.891 169.4 113.36C169.592 113.829 169.88 114.203 170.264 114.48C170.658 114.757 171.16 114.896 171.768 114.896ZM177.603 116V107.568H180.867C181.241 107.568 181.609 107.595 181.971 107.648C182.345 107.691 182.681 107.787 182.979 107.936C183.289 108.075 183.534 108.283 183.715 108.56C183.907 108.837 184.003 109.205 184.003 109.664C184.003 109.941 183.961 110.197 183.875 110.432C183.79 110.656 183.662 110.853 183.491 111.024C183.331 111.195 183.123 111.344 182.867 111.472C183.443 111.6 183.859 111.851 184.115 112.224C184.371 112.597 184.499 113.024 184.499 113.504C184.499 113.931 184.419 114.304 184.259 114.624C184.11 114.933 183.897 115.189 183.619 115.392C183.353 115.595 183.038 115.749 182.675 115.856C182.323 115.952 181.945 116 181.539 116H177.603ZM178.995 114.816H181.219C181.55 114.816 181.859 114.784 182.147 114.72C182.435 114.656 182.67 114.539 182.851 114.368C183.033 114.187 183.123 113.931 183.123 113.6C183.123 113.259 183.043 113.003 182.883 112.832C182.734 112.651 182.537 112.528 182.291 112.464C182.057 112.389 181.801 112.347 181.523 112.336C181.246 112.325 180.985 112.32 180.739 112.32H178.995V114.816ZM178.995 111.168H180.163C180.377 111.168 180.622 111.157 180.899 111.136C181.187 111.115 181.465 111.067 181.731 110.992C182.009 110.907 182.233 110.779 182.403 110.608C182.585 110.437 182.675 110.203 182.675 109.904C182.675 109.509 182.563 109.237 182.339 109.088C182.126 108.928 181.87 108.837 181.571 108.816C181.273 108.784 180.995 108.768 180.739 108.768H178.995V111.168ZM189.057 116.096C188.673 116.096 188.3 116.048 187.937 115.952C187.585 115.845 187.265 115.691 186.977 115.488C186.7 115.275 186.476 115.013 186.305 114.704C186.145 114.384 186.065 114.016 186.065 113.6C186.065 113.12 186.151 112.715 186.321 112.384C186.503 112.053 186.743 111.792 187.041 111.6C187.34 111.408 187.687 111.269 188.081 111.184C188.476 111.099 188.887 111.056 189.313 111.056H191.793C191.793 110.576 191.724 110.16 191.585 109.808C191.457 109.456 191.244 109.184 190.945 108.992C190.647 108.789 190.252 108.688 189.761 108.688C189.463 108.688 189.185 108.72 188.929 108.784C188.673 108.848 188.455 108.949 188.273 109.088C188.092 109.227 187.959 109.413 187.873 109.648H186.417C186.492 109.264 186.636 108.939 186.849 108.672C187.073 108.395 187.34 108.171 187.649 108C187.969 107.819 188.311 107.685 188.673 107.6C189.036 107.515 189.399 107.472 189.761 107.472C190.572 107.472 191.223 107.637 191.713 107.968C192.204 108.288 192.561 108.747 192.785 109.344C193.009 109.931 193.121 110.629 193.121 111.44V116H191.985L191.905 114.928C191.671 115.248 191.388 115.493 191.057 115.664C190.727 115.835 190.385 115.947 190.033 116C189.692 116.064 189.367 116.096 189.057 116.096ZM189.185 114.896C189.719 114.896 190.177 114.811 190.561 114.64C190.956 114.459 191.26 114.197 191.473 113.856C191.687 113.515 191.793 113.099 191.793 112.608V112.192H190.305C189.953 112.192 189.607 112.197 189.265 112.208C188.924 112.219 188.615 112.261 188.337 112.336C188.06 112.411 187.836 112.539 187.665 112.72C187.505 112.901 187.425 113.163 187.425 113.504C187.425 113.824 187.505 114.085 187.665 114.288C187.836 114.491 188.055 114.645 188.321 114.752C188.599 114.848 188.887 114.896 189.185 114.896ZM195.228 116V107.568H196.588V111.264H200.812V107.568H202.172V116H200.812V112.464H196.588V116H195.228ZM207.026 116.096C206.642 116.096 206.269 116.048 205.906 115.952C205.554 115.845 205.234 115.691 204.946 115.488C204.669 115.275 204.445 115.013 204.274 114.704C204.114 114.384 204.034 114.016 204.034 113.6C204.034 113.12 204.119 112.715 204.29 112.384C204.471 112.053 204.711 111.792 205.01 111.6C205.309 111.408 205.655 111.269 206.05 111.184C206.445 111.099 206.855 111.056 207.282 111.056H209.762C209.762 110.576 209.693 110.16 209.554 109.808C209.426 109.456 209.213 109.184 208.914 108.992C208.615 108.789 208.221 108.688 207.73 108.688C207.431 108.688 207.154 108.72 206.898 108.784C206.642 108.848 206.423 108.949 206.242 109.088C206.061 109.227 205.927 109.413 205.842 109.648H204.386C204.461 109.264 204.605 108.939 204.818 108.672C205.042 108.395 205.309 108.171 205.618 108C205.938 107.819 206.279 107.685 206.642 107.6C207.005 107.515 207.367 107.472 207.73 107.472C208.541 107.472 209.191 107.637 209.682 107.968C210.173 108.288 210.53 108.747 210.754 109.344C210.978 109.931 211.09 110.629 211.09 111.44V116H209.954L209.874 114.928C209.639 115.248 209.357 115.493 209.026 115.664C208.695 115.835 208.354 115.947 208.002 116C207.661 116.064 207.335 116.096 207.026 116.096ZM207.154 114.896C207.687 114.896 208.146 114.811 208.53 114.64C208.925 114.459 209.229 114.197 209.442 113.856C209.655 113.515 209.762 113.099 209.762 112.608V112.192H208.274C207.922 112.192 207.575 112.197 207.234 112.208C206.893 112.219 206.583 112.261 206.306 112.336C206.029 112.411 205.805 112.539 205.634 112.72C205.474 112.901 205.394 113.163 205.394 113.504C205.394 113.824 205.474 114.085 205.634 114.288C205.805 114.491 206.023 114.645 206.29 114.752C206.567 114.848 206.855 114.896 207.154 114.896ZM214.157 116.128C213.88 116.128 213.65 116.037 213.469 115.856C213.288 115.675 213.197 115.445 213.197 115.168C213.197 114.891 213.288 114.661 213.469 114.48C213.65 114.299 213.88 114.208 214.157 114.208C214.434 114.208 214.664 114.299 214.845 114.48C215.026 114.661 215.117 114.891 215.117 115.168C215.117 115.445 215.026 115.675 214.845 115.856C214.664 116.037 214.434 116.128 214.157 116.128Z" fill="black"/>
</svg>
