<svg width="408" height="171" viewBox="0 0 408 171" fill="none" xmlns="http://www.w3.org/2000/svg">
<rect width="408" height="171" rx="30" fill="white"/>
<path d="M51.417 41C52.6797 41 53.9016 41.4461 54.8672 42.2598L70.9307 55.8125C72.1395 56.8286 72.8349 58.3252 72.835 59.9053V83.2314C72.835 84.3359 72.3962 85.3958 71.6152 86.1768C70.8342 86.9578 69.7744 87.3965 68.6699 87.3965H61.5312C60.4268 87.3965 59.3669 86.9577 58.5859 86.1768C57.8049 85.3958 57.3662 84.3359 57.3662 83.2314V71.333C57.3662 70.8598 57.1783 70.406 56.8438 70.0713C56.5091 69.7367 56.0552 69.548 55.582 69.5479H47.2529C46.7796 69.5479 46.3249 69.7366 45.9902 70.0713C45.6557 70.406 45.4678 70.8598 45.4678 71.333V83.2314C45.4678 84.3359 45.029 85.3958 44.248 86.1768C43.4672 86.9575 42.4079 87.3964 41.3037 87.3965H34.1641C33.6172 87.3965 33.0756 87.2884 32.5703 87.0791C32.0653 86.8699 31.6063 86.5633 31.2197 86.1768C30.833 85.79 30.5257 85.3305 30.3164 84.8252C30.1071 84.32 30 83.7783 30 83.2314V59.9033C30 58.3256 30.6944 56.8281 31.9033 55.8096L47.9668 42.2598C48.9324 41.4461 50.1543 41 51.417 41Z" fill="black"/>
<path d="M105.352 59.12V54.736C105.736 54.736 106.024 54.6667 106.216 54.528C106.419 54.3787 106.573 54.1813 106.68 53.936C106.765 53.7227 106.84 53.4667 106.904 53.168C106.968 52.8587 107.021 52.528 107.064 52.176C107.117 51.8133 107.155 51.4507 107.176 51.088C107.251 50.0213 107.304 48.9547 107.336 47.888C107.368 46.8213 107.389 45.7547 107.4 44.688H114.632V54.736H115.992V59.12H114.6V56H106.744V59.12H105.352ZM107.928 54.736H113.24V45.952H108.76L108.616 50.352C108.605 50.608 108.589 50.912 108.568 51.264C108.557 51.616 108.525 51.9893 108.472 52.384C108.429 52.768 108.365 53.1627 108.28 53.568C108.195 53.9733 108.077 54.3627 107.928 54.736ZM120.12 56.096C119.736 56.096 119.362 56.048 119 55.952C118.648 55.8453 118.328 55.6907 118.04 55.488C117.762 55.2747 117.538 55.0133 117.368 54.704C117.208 54.384 117.128 54.016 117.128 53.6C117.128 53.12 117.213 52.7147 117.384 52.384C117.565 52.0533 117.805 51.792 118.104 51.6C118.402 51.408 118.749 51.2693 119.144 51.184C119.538 51.0987 119.949 51.056 120.376 51.056H122.856C122.856 50.576 122.786 50.16 122.648 49.808C122.52 49.456 122.306 49.184 122.008 48.992C121.709 48.7893 121.314 48.688 120.824 48.688C120.525 48.688 120.248 48.72 119.992 48.784C119.736 48.848 119.517 48.9493 119.336 49.088C119.154 49.2267 119.021 49.4133 118.936 49.648H117.48C117.554 49.264 117.698 48.9387 117.912 48.672C118.136 48.3947 118.402 48.1707 118.712 48C119.032 47.8187 119.373 47.6853 119.736 47.6C120.098 47.5147 120.461 47.472 120.824 47.472C121.634 47.472 122.285 47.6373 122.776 47.968C123.266 48.288 123.624 48.7467 123.848 49.344C124.072 49.9307 124.184 50.6293 124.184 51.44V56H123.048L122.968 54.928C122.733 55.248 122.45 55.4933 122.12 55.664C121.789 55.8347 121.448 55.9467 121.096 56C120.754 56.064 120.429 56.096 120.12 56.096ZM120.248 54.896C120.781 54.896 121.24 54.8107 121.624 54.64C122.018 54.4587 122.322 54.1973 122.536 53.856C122.749 53.5147 122.856 53.0987 122.856 52.608V52.192H121.368C121.016 52.192 120.669 52.1973 120.328 52.208C119.986 52.2187 119.677 52.2613 119.4 52.336C119.122 52.4107 118.898 52.5387 118.728 52.72C118.568 52.9013 118.488 53.1627 118.488 53.504C118.488 53.824 118.568 54.0853 118.728 54.288C118.898 54.4907 119.117 54.6453 119.384 54.752C119.661 54.848 119.949 54.896 120.248 54.896ZM126.291 56V47.568H127.651V51.264H131.875V47.568H133.235V56H131.875V52.464H127.651V56H126.291ZM135.385 56V47.568H136.745V51.264H140.969V47.568H142.329V56H140.969V52.464H136.745V56H135.385ZM147.182 56.096C146.798 56.096 146.425 56.048 146.062 55.952C145.71 55.8453 145.39 55.6907 145.102 55.488C144.825 55.2747 144.601 55.0133 144.43 54.704C144.27 54.384 144.19 54.016 144.19 53.6C144.19 53.12 144.276 52.7147 144.446 52.384C144.628 52.0533 144.868 51.792 145.166 51.6C145.465 51.408 145.812 51.2693 146.206 51.184C146.601 51.0987 147.012 51.056 147.438 51.056H149.918C149.918 50.576 149.849 50.16 149.71 49.808C149.582 49.456 149.369 49.184 149.07 48.992C148.772 48.7893 148.377 48.688 147.886 48.688C147.588 48.688 147.31 48.72 147.054 48.784C146.798 48.848 146.58 48.9493 146.398 49.088C146.217 49.2267 146.084 49.4133 145.998 49.648H144.542C144.617 49.264 144.761 48.9387 144.974 48.672C145.198 48.3947 145.465 48.1707 145.774 48C146.094 47.8187 146.436 47.6853 146.798 47.6C147.161 47.5147 147.524 47.472 147.886 47.472C148.697 47.472 149.348 47.6373 149.838 47.968C150.329 48.288 150.686 48.7467 150.91 49.344C151.134 49.9307 151.246 50.6293 151.246 51.44V56H150.11L150.03 54.928C149.796 55.248 149.513 55.4933 149.182 55.664C148.852 55.8347 148.51 55.9467 148.158 56C147.817 56.064 147.492 56.096 147.182 56.096ZM147.31 54.896C147.844 54.896 148.302 54.8107 148.686 54.64C149.081 54.4587 149.385 54.1973 149.598 53.856C149.812 53.5147 149.918 53.0987 149.918 52.608V52.192H148.43C148.078 52.192 147.732 52.1973 147.39 52.208C147.049 52.2187 146.74 52.2613 146.462 52.336C146.185 52.4107 145.961 52.5387 145.79 52.72C145.63 52.9013 145.55 53.1627 145.55 53.504C145.55 53.824 145.63 54.0853 145.79 54.288C145.961 54.4907 146.18 54.6453 146.446 54.752C146.724 54.848 147.012 54.896 147.31 54.896ZM152.825 56L155.017 52.672C154.409 52.5013 153.929 52.224 153.577 51.84C153.225 51.4453 153.049 50.9227 153.049 50.272C153.049 49.76 153.124 49.3333 153.273 48.992C153.423 48.64 153.641 48.3627 153.929 48.16C154.217 47.9467 154.564 47.7973 154.969 47.712C155.375 47.616 155.839 47.568 156.361 47.568H159.753V56H158.393V52.88H156.457L154.409 56H152.825ZM157.385 51.696H158.393V48.768H156.585C156.265 48.768 155.972 48.784 155.705 48.816C155.439 48.848 155.209 48.9173 155.017 49.024C154.836 49.12 154.692 49.264 154.585 49.456C154.479 49.6373 154.425 49.888 154.425 50.208C154.425 50.56 154.511 50.8373 154.681 51.04C154.863 51.2427 155.092 51.392 155.369 51.488C155.657 51.5733 155.977 51.632 156.329 51.664C156.681 51.6853 157.033 51.696 157.385 51.696ZM166.213 56V47.568H167.573V51.2H169.045L171.541 47.568H173.093L170.277 51.584L173.333 56H171.733L169.205 52.384H167.573V56H166.213ZM174.51 56V47.568H175.87V51.264H180.094V47.568H181.454V56H180.094V52.464H175.87V56H174.51ZM187.283 56.096C186.398 56.096 185.657 55.9147 185.059 55.552C184.462 55.1787 184.014 54.6667 183.715 54.016C183.427 53.3653 183.283 52.624 183.283 51.792C183.283 50.9493 183.427 50.208 183.715 49.568C184.014 48.9173 184.462 48.4053 185.059 48.032C185.657 47.6587 186.409 47.472 187.315 47.472C188.201 47.472 188.937 47.6587 189.523 48.032C190.121 48.4053 190.563 48.9173 190.851 49.568C191.15 50.208 191.299 50.9493 191.299 51.792C191.299 52.624 191.15 53.3653 190.851 54.016C190.553 54.6667 190.105 55.1787 189.507 55.552C188.921 55.9147 188.179 56.096 187.283 56.096ZM187.283 54.896C187.902 54.896 188.403 54.7573 188.787 54.48C189.182 54.2027 189.47 53.8293 189.651 53.36C189.843 52.8907 189.939 52.368 189.939 51.792C189.939 51.216 189.843 50.6933 189.651 50.224C189.47 49.7547 189.182 49.3813 188.787 49.104C188.403 48.8267 187.902 48.688 187.283 48.688C186.675 48.688 186.174 48.8267 185.779 49.104C185.395 49.3813 185.107 49.7547 184.915 50.224C184.734 50.6933 184.643 51.216 184.643 51.792C184.643 52.368 184.734 52.8907 184.915 53.36C185.107 53.8293 185.395 54.2027 185.779 54.48C186.174 54.7573 186.675 54.896 187.283 54.896ZM193.119 56V47.568H200.111V56H198.751V48.768H194.479V56H193.119ZM202.26 56V47.568H203.62V51.2H205.092L207.588 47.568H209.14L206.324 51.584L209.38 56H207.78L205.252 52.384H203.62V56H202.26ZM213.104 56.096C212.72 56.096 212.347 56.048 211.984 55.952C211.632 55.8453 211.312 55.6907 211.024 55.488C210.747 55.2747 210.523 55.0133 210.352 54.704C210.192 54.384 210.112 54.016 210.112 53.6C210.112 53.12 210.197 52.7147 210.368 52.384C210.549 52.0533 210.789 51.792 211.088 51.6C211.387 51.408 211.733 51.2693 212.128 51.184C212.523 51.0987 212.933 51.056 213.36 51.056H215.84C215.84 50.576 215.771 50.16 215.632 49.808C215.504 49.456 215.291 49.184 214.992 48.992C214.693 48.7893 214.299 48.688 213.808 48.688C213.509 48.688 213.232 48.72 212.976 48.784C212.72 48.848 212.501 48.9493 212.32 49.088C212.139 49.2267 212.005 49.4133 211.92 49.648H210.464C210.539 49.264 210.683 48.9387 210.896 48.672C211.12 48.3947 211.387 48.1707 211.696 48C212.016 47.8187 212.357 47.6853 212.72 47.6C213.083 47.5147 213.445 47.472 213.808 47.472C214.619 47.472 215.269 47.6373 215.76 47.968C216.251 48.288 216.608 48.7467 216.832 49.344C217.056 49.9307 217.168 50.6293 217.168 51.44V56H216.032L215.952 54.928C215.717 55.248 215.435 55.4933 215.104 55.664C214.773 55.8347 214.432 55.9467 214.08 56C213.739 56.064 213.413 56.096 213.104 56.096ZM213.232 54.896C213.765 54.896 214.224 54.8107 214.608 54.64C215.003 54.4587 215.307 54.1973 215.52 53.856C215.733 53.5147 215.84 53.0987 215.84 52.608V52.192H214.352C214 52.192 213.653 52.1973 213.312 52.208C212.971 52.2187 212.661 52.2613 212.384 52.336C212.107 52.4107 211.883 52.5387 211.712 52.72C211.552 52.9013 211.472 53.1627 211.472 53.504C211.472 53.824 211.552 54.0853 211.712 54.288C211.883 54.4907 212.101 54.6453 212.368 54.752C212.645 54.848 212.933 54.896 213.232 54.896ZM223.588 56V47.568H226.852C227.225 47.568 227.593 47.5947 227.956 47.648C228.329 47.6907 228.665 47.7867 228.964 47.936C229.273 48.0747 229.518 48.2827 229.7 48.56C229.892 48.8373 229.988 49.2053 229.988 49.664C229.988 49.9413 229.945 50.1973 229.86 50.432C229.774 50.656 229.646 50.8533 229.476 51.024C229.316 51.1947 229.108 51.344 228.852 51.472C229.428 51.6 229.844 51.8507 230.1 52.224C230.356 52.5973 230.484 53.024 230.484 53.504C230.484 53.9307 230.404 54.304 230.244 54.624C230.094 54.9333 229.881 55.1893 229.604 55.392C229.337 55.5947 229.022 55.7493 228.66 55.856C228.308 55.952 227.929 56 227.524 56H223.588ZM224.98 54.816H227.204C227.534 54.816 227.844 54.784 228.132 54.72C228.42 54.656 228.654 54.5387 228.836 54.368C229.017 54.1867 229.108 53.9307 229.108 53.6C229.108 53.2587 229.028 53.0027 228.868 52.832C228.718 52.6507 228.521 52.528 228.276 52.464C228.041 52.3893 227.785 52.3467 227.508 52.336C227.23 52.3253 226.969 52.32 226.724 52.32H224.98V54.816ZM224.98 51.168H226.148C226.361 51.168 226.606 51.1573 226.884 51.136C227.172 51.1147 227.449 51.0667 227.716 50.992C227.993 50.9067 228.217 50.7787 228.388 50.608C228.569 50.4373 228.66 50.2027 228.66 49.904C228.66 49.5093 228.548 49.2373 228.324 49.088C228.11 48.928 227.854 48.8373 227.556 48.816C227.257 48.784 226.98 48.768 226.724 48.768H224.98V51.168ZM236.018 56.096C235.132 56.096 234.391 55.9147 233.794 55.552C233.196 55.1787 232.748 54.6667 232.45 54.016C232.162 53.3653 232.018 52.624 232.018 51.792C232.018 50.9493 232.162 50.208 232.45 49.568C232.748 48.9173 233.196 48.4053 233.794 48.032C234.391 47.6587 235.143 47.472 236.05 47.472C236.935 47.472 237.671 47.6587 238.258 48.032C238.855 48.4053 239.298 48.9173 239.586 49.568C239.884 50.208 240.034 50.9493 240.034 51.792C240.034 52.624 239.884 53.3653 239.586 54.016C239.287 54.6667 238.839 55.1787 238.242 55.552C237.655 55.9147 236.914 56.096 236.018 56.096ZM236.018 54.896C236.636 54.896 237.138 54.7573 237.522 54.48C237.916 54.2027 238.204 53.8293 238.386 53.36C238.578 52.8907 238.674 52.368 238.674 51.792C238.674 51.216 238.578 50.6933 238.386 50.224C238.204 49.7547 237.916 49.3813 237.522 49.104C237.138 48.8267 236.636 48.688 236.018 48.688C235.41 48.688 234.908 48.8267 234.514 49.104C234.13 49.3813 233.842 49.7547 233.65 50.224C233.468 50.6933 233.378 51.216 233.378 51.792C233.378 52.368 233.468 52.8907 233.65 53.36C233.842 53.8293 234.13 54.2027 234.514 54.48C234.908 54.7573 235.41 54.896 236.018 54.896ZM244.909 56.096C244.504 56.096 244.099 56.0587 243.693 55.984C243.288 55.9093 242.909 55.7867 242.557 55.616C242.216 55.4347 241.939 55.1947 241.725 54.896C241.512 54.5867 241.395 54.2027 241.373 53.744H242.701C242.755 54.032 242.909 54.2613 243.165 54.432C243.421 54.6027 243.709 54.7253 244.029 54.8C244.36 54.864 244.653 54.896 244.909 54.896C245.208 54.896 245.512 54.864 245.821 54.8C246.141 54.736 246.408 54.608 246.621 54.416C246.845 54.224 246.957 53.9413 246.957 53.568C246.957 53.2053 246.867 52.9387 246.685 52.768C246.515 52.5973 246.285 52.4853 245.997 52.432C245.72 52.3787 245.416 52.352 245.085 52.352H243.581V51.152H244.813C245.016 51.152 245.224 51.136 245.437 51.104C245.651 51.0613 245.848 50.9973 246.029 50.912C246.211 50.816 246.355 50.6827 246.461 50.512C246.579 50.3413 246.637 50.1227 246.637 49.856C246.637 49.5573 246.552 49.3227 246.381 49.152C246.211 48.9813 245.992 48.864 245.725 48.8C245.459 48.7253 245.187 48.688 244.909 48.688C244.653 48.688 244.381 48.7147 244.093 48.768C243.816 48.8213 243.576 48.928 243.373 49.088C243.171 49.2373 243.048 49.4613 243.005 49.76H241.661C241.683 49.184 241.859 48.7307 242.189 48.4C242.52 48.0693 242.931 47.8347 243.421 47.696C243.912 47.5467 244.403 47.472 244.893 47.472C245.267 47.472 245.635 47.5093 245.997 47.584C246.36 47.6587 246.691 47.7867 246.989 47.968C247.288 48.1387 247.523 48.368 247.693 48.656C247.875 48.944 247.965 49.3013 247.965 49.728C247.965 50.112 247.875 50.4533 247.693 50.752C247.512 51.0507 247.235 51.2907 246.861 51.472C247.405 51.6427 247.784 51.9093 247.997 52.272C248.211 52.6347 248.317 53.0667 248.317 53.568C248.317 54.016 248.221 54.4 248.029 54.72C247.837 55.0293 247.576 55.2907 247.245 55.504C246.925 55.7067 246.563 55.856 246.157 55.952C245.752 56.048 245.336 56.096 244.909 56.096ZM250.072 56V47.568H253.336C253.709 47.568 254.077 47.5947 254.44 47.648C254.813 47.6907 255.149 47.7867 255.448 47.936C255.757 48.0747 256.003 48.2827 256.184 48.56C256.376 48.8373 256.472 49.2053 256.472 49.664C256.472 49.9413 256.429 50.1973 256.344 50.432C256.259 50.656 256.131 50.8533 255.96 51.024C255.8 51.1947 255.592 51.344 255.336 51.472C255.912 51.6 256.328 51.8507 256.584 52.224C256.84 52.5973 256.968 53.024 256.968 53.504C256.968 53.9307 256.888 54.304 256.728 54.624C256.579 54.9333 256.365 55.1893 256.088 55.392C255.821 55.5947 255.507 55.7493 255.144 55.856C254.792 55.952 254.413 56 254.008 56H250.072ZM251.464 54.816H253.688C254.019 54.816 254.328 54.784 254.616 54.72C254.904 54.656 255.139 54.5387 255.32 54.368C255.501 54.1867 255.592 53.9307 255.592 53.6C255.592 53.2587 255.512 53.0027 255.352 52.832C255.203 52.6507 255.005 52.528 254.76 52.464C254.525 52.3893 254.269 52.3467 253.992 52.336C253.715 52.3253 253.453 52.32 253.208 52.32H251.464V54.816ZM251.464 51.168H252.632C252.845 51.168 253.091 51.1573 253.368 51.136C253.656 51.1147 253.933 51.0667 254.2 50.992C254.477 50.9067 254.701 50.7787 254.872 50.608C255.053 50.4373 255.144 50.2027 255.144 49.904C255.144 49.5093 255.032 49.2373 254.808 49.088C254.595 48.928 254.339 48.8373 254.04 48.816C253.741 48.784 253.464 48.768 253.208 48.768H251.464V51.168ZM258.822 59.04V47.568H260.118L260.182 48.864C260.47 48.4053 260.859 48.0587 261.35 47.824C261.851 47.5893 262.39 47.472 262.966 47.472C263.819 47.472 264.518 47.664 265.062 48.048C265.606 48.4213 266.006 48.9333 266.262 49.584C266.529 50.2347 266.662 50.9707 266.662 51.792C266.662 52.6133 266.529 53.3493 266.262 54C265.995 54.6507 265.585 55.1627 265.03 55.536C264.475 55.9093 263.766 56.096 262.902 56.096C262.475 56.096 262.091 56.0533 261.75 55.968C261.409 55.872 261.11 55.7387 260.854 55.568C260.598 55.3973 260.374 55.2053 260.182 54.992V59.04H258.822ZM262.79 54.896C263.409 54.896 263.899 54.7573 264.262 54.48C264.625 54.192 264.886 53.8133 265.046 53.344C265.217 52.8747 265.302 52.3573 265.302 51.792C265.302 51.216 265.217 50.6933 265.046 50.224C264.886 49.7547 264.619 49.3813 264.246 49.104C263.873 48.8267 263.377 48.688 262.758 48.688C262.203 48.688 261.729 48.832 261.334 49.12C260.95 49.3973 260.657 49.776 260.454 50.256C260.251 50.7253 260.15 51.2427 260.15 51.808C260.15 52.3947 260.246 52.9227 260.438 53.392C260.63 53.8613 260.923 54.2293 261.318 54.496C261.713 54.7627 262.203 54.896 262.79 54.896ZM271.12 56.096C270.736 56.096 270.362 56.048 270 55.952C269.648 55.8453 269.328 55.6907 269.04 55.488C268.762 55.2747 268.538 55.0133 268.368 54.704C268.208 54.384 268.128 54.016 268.128 53.6C268.128 53.12 268.213 52.7147 268.384 52.384C268.565 52.0533 268.805 51.792 269.104 51.6C269.402 51.408 269.749 51.2693 270.144 51.184C270.538 51.0987 270.949 51.056 271.376 51.056H273.856C273.856 50.576 273.786 50.16 273.648 49.808C273.52 49.456 273.306 49.184 273.008 48.992C272.709 48.7893 272.314 48.688 271.824 48.688C271.525 48.688 271.248 48.72 270.992 48.784C270.736 48.848 270.517 48.9493 270.336 49.088C270.154 49.2267 270.021 49.4133 269.936 49.648H268.48C268.554 49.264 268.698 48.9387 268.912 48.672C269.136 48.3947 269.402 48.1707 269.712 48C270.032 47.8187 270.373 47.6853 270.736 47.6C271.098 47.5147 271.461 47.472 271.824 47.472C272.634 47.472 273.285 47.6373 273.776 47.968C274.266 48.288 274.624 48.7467 274.848 49.344C275.072 49.9307 275.184 50.6293 275.184 51.44V56H274.048L273.968 54.928C273.733 55.248 273.45 55.4933 273.12 55.664C272.789 55.8347 272.448 55.9467 272.096 56C271.754 56.064 271.429 56.096 271.12 56.096ZM271.248 54.896C271.781 54.896 272.24 54.8107 272.624 54.64C273.018 54.4587 273.322 54.1973 273.536 53.856C273.749 53.5147 273.856 53.0987 273.856 52.608V52.192H272.368C272.016 52.192 271.669 52.1973 271.328 52.208C270.986 52.2187 270.677 52.2613 270.4 52.336C270.122 52.4107 269.898 52.5387 269.728 52.72C269.568 52.9013 269.488 53.1627 269.488 53.504C269.488 53.824 269.568 54.0853 269.728 54.288C269.898 54.4907 270.117 54.6453 270.384 54.752C270.661 54.848 270.949 54.896 271.248 54.896ZM287.531 58.592V56H277.291V47.568H278.651V54.816H281.819V47.568H283.179V54.816H286.379V47.568H287.739V54.816H288.843V58.592H287.531ZM292.964 56.096C292.58 56.096 292.206 56.048 291.844 55.952C291.492 55.8453 291.172 55.6907 290.884 55.488C290.606 55.2747 290.382 55.0133 290.212 54.704C290.052 54.384 289.972 54.016 289.972 53.6C289.972 53.12 290.057 52.7147 290.228 52.384C290.409 52.0533 290.649 51.792 290.948 51.6C291.246 51.408 291.593 51.2693 291.988 51.184C292.382 51.0987 292.793 51.056 293.22 51.056H295.7C295.7 50.576 295.63 50.16 295.492 49.808C295.364 49.456 295.15 49.184 294.852 48.992C294.553 48.7893 294.158 48.688 293.668 48.688C293.369 48.688 293.092 48.72 292.836 48.784C292.58 48.848 292.361 48.9493 292.18 49.088C291.998 49.2267 291.865 49.4133 291.78 49.648H290.324C290.398 49.264 290.542 48.9387 290.756 48.672C290.98 48.3947 291.246 48.1707 291.556 48C291.876 47.8187 292.217 47.6853 292.58 47.6C292.942 47.5147 293.305 47.472 293.668 47.472C294.478 47.472 295.129 47.6373 295.62 47.968C296.11 48.288 296.468 48.7467 296.692 49.344C296.916 49.9307 297.028 50.6293 297.028 51.44V56H295.892L295.812 54.928C295.577 55.248 295.294 55.4933 294.964 55.664C294.633 55.8347 294.292 55.9467 293.94 56C293.598 56.064 293.273 56.096 292.964 56.096ZM293.092 54.896C293.625 54.896 294.084 54.8107 294.468 54.64C294.862 54.4587 295.166 54.1973 295.38 53.856C295.593 53.5147 295.7 53.0987 295.7 52.608V52.192H294.212C293.86 52.192 293.513 52.1973 293.172 52.208C292.83 52.2187 292.521 52.2613 292.244 52.336C291.966 52.4107 291.742 52.5387 291.572 52.72C291.412 52.9013 291.332 53.1627 291.332 53.504C291.332 53.824 291.412 54.0853 291.572 54.288C291.742 54.4907 291.961 54.6453 292.228 54.752C292.505 54.848 292.793 54.896 293.092 54.896ZM302.783 56.096C301.887 56.096 301.145 55.9147 300.559 55.552C299.972 55.1787 299.535 54.6667 299.247 54.016C298.959 53.3653 298.815 52.624 298.815 51.792C298.815 50.9493 298.964 50.208 299.263 49.568C299.572 48.9173 300.02 48.4053 300.607 48.032C301.193 47.6587 301.913 47.472 302.766 47.472C303.396 47.472 303.945 47.5947 304.415 47.84C304.895 48.0747 305.289 48.3947 305.599 48.8C305.919 49.2053 306.148 49.6587 306.286 50.16C306.436 50.6613 306.5 51.1787 306.479 51.712C306.468 51.808 306.463 51.904 306.463 52C306.463 52.096 306.457 52.192 306.447 52.288H300.191C300.233 52.7787 300.356 53.2213 300.559 53.616C300.761 54.0107 301.049 54.3253 301.423 54.56C301.796 54.784 302.26 54.896 302.815 54.896C303.092 54.896 303.369 54.864 303.647 54.8C303.935 54.7253 304.191 54.6027 304.415 54.432C304.649 54.2613 304.815 54.032 304.911 53.744H306.303C306.175 54.288 305.935 54.736 305.583 55.088C305.231 55.4293 304.809 55.6853 304.319 55.856C303.828 56.016 303.316 56.096 302.783 56.096ZM300.223 51.104H305.103C305.092 50.624 304.985 50.2027 304.783 49.84C304.58 49.4773 304.303 49.1947 303.951 48.992C303.609 48.7893 303.199 48.688 302.719 48.688C302.196 48.688 301.753 48.8 301.391 49.024C301.039 49.248 300.767 49.5413 300.575 49.904C300.383 50.2667 300.265 50.6667 300.223 51.104ZM310.274 56V48.768H307.378V47.568H314.53V48.768H311.634V56H310.274ZM106.072 76V67.568H109.336C109.709 67.568 110.077 67.5947 110.44 67.648C110.813 67.6907 111.149 67.7867 111.448 67.936C111.757 68.0747 112.003 68.2827 112.184 68.56C112.376 68.8373 112.472 69.2053 112.472 69.664C112.472 69.9413 112.429 70.1973 112.344 70.432C112.259 70.656 112.131 70.8533 111.96 71.024C111.8 71.1947 111.592 71.344 111.336 71.472C111.912 71.6 112.328 71.8507 112.584 72.224C112.84 72.5973 112.968 73.024 112.968 73.504C112.968 73.9307 112.888 74.304 112.728 74.624C112.579 74.9333 112.365 75.1893 112.088 75.392C111.821 75.5947 111.507 75.7493 111.144 75.856C110.792 75.952 110.413 76 110.008 76H106.072ZM107.464 74.816H109.688C110.019 74.816 110.328 74.784 110.616 74.72C110.904 74.656 111.139 74.5387 111.32 74.368C111.501 74.1867 111.592 73.9307 111.592 73.6C111.592 73.2587 111.512 73.0027 111.352 72.832C111.203 72.6507 111.005 72.528 110.76 72.464C110.525 72.3893 110.269 72.3467 109.992 72.336C109.715 72.3253 109.453 72.32 109.208 72.32H107.464V74.816ZM107.464 71.168H108.632C108.845 71.168 109.091 71.1573 109.368 71.136C109.656 71.1147 109.933 71.0667 110.2 70.992C110.477 70.9067 110.701 70.7787 110.872 70.608C111.053 70.4373 111.144 70.2027 111.144 69.904C111.144 69.5093 111.032 69.2373 110.808 69.088C110.595 68.928 110.339 68.8373 110.04 68.816C109.741 68.784 109.464 68.768 109.208 68.768H107.464V71.168ZM119.135 76V67.568H124.959V68.768H120.495V76H119.135ZM125.632 76.016V74.832C125.845 74.832 126.037 74.7893 126.208 74.704C126.379 74.608 126.528 74.4693 126.656 74.288C126.805 74.0747 126.923 73.7653 127.008 73.36C127.093 72.9547 127.152 72.5227 127.184 72.064C127.227 71.552 127.259 71.0507 127.28 70.56C127.301 70.0587 127.317 69.5627 127.328 69.072C127.349 68.5813 127.36 68.08 127.36 67.568H133.216V76H131.856V68.768H128.688C128.677 69.1307 128.661 69.4987 128.64 69.872C128.629 70.2347 128.613 70.6027 128.592 70.976C128.581 71.3387 128.565 71.7067 128.544 72.08C128.533 72.5067 128.491 72.9867 128.416 73.52C128.341 74.0533 128.181 74.5387 127.936 74.976C127.701 75.392 127.413 75.6693 127.072 75.808C126.741 75.9467 126.261 76.016 125.632 76.016ZM138.057 76.096C137.673 76.096 137.3 76.048 136.937 75.952C136.585 75.8453 136.265 75.6907 135.977 75.488C135.7 75.2747 135.476 75.0133 135.305 74.704C135.145 74.384 135.065 74.016 135.065 73.6C135.065 73.12 135.151 72.7147 135.321 72.384C135.503 72.0533 135.743 71.792 136.041 71.6C136.34 71.408 136.687 71.2693 137.081 71.184C137.476 71.0987 137.887 71.056 138.313 71.056H140.793C140.793 70.576 140.724 70.16 140.585 69.808C140.457 69.456 140.244 69.184 139.945 68.992C139.647 68.7893 139.252 68.688 138.761 68.688C138.463 68.688 138.185 68.72 137.929 68.784C137.673 68.848 137.455 68.9493 137.273 69.088C137.092 69.2267 136.959 69.4133 136.873 69.648H135.417C135.492 69.264 135.636 68.9387 135.849 68.672C136.073 68.3947 136.34 68.1707 136.649 68C136.969 67.8187 137.311 67.6853 137.673 67.6C138.036 67.5147 138.399 67.472 138.761 67.472C139.572 67.472 140.223 67.6373 140.713 67.968C141.204 68.288 141.561 68.7467 141.785 69.344C142.009 69.9307 142.121 70.6293 142.121 71.44V76H140.985L140.905 74.928C140.671 75.248 140.388 75.4933 140.057 75.664C139.727 75.8347 139.385 75.9467 139.033 76C138.692 76.064 138.367 76.096 138.057 76.096ZM138.185 74.896C138.719 74.896 139.177 74.8107 139.561 74.64C139.956 74.4587 140.26 74.1973 140.473 73.856C140.687 73.5147 140.793 73.0987 140.793 72.608V72.192H139.305C138.953 72.192 138.607 72.1973 138.265 72.208C137.924 72.2187 137.615 72.2613 137.337 72.336C137.06 72.4107 136.836 72.5387 136.665 72.72C136.505 72.9013 136.425 73.1627 136.425 73.504C136.425 73.824 136.505 74.0853 136.665 74.288C136.836 74.4907 137.055 74.6453 137.321 74.752C137.599 74.848 137.887 74.896 138.185 74.896ZM144.228 76V67.568H147.492C147.866 67.568 148.234 67.5947 148.596 67.648C148.97 67.6907 149.306 67.7867 149.604 67.936C149.914 68.0747 150.159 68.2827 150.34 68.56C150.532 68.8373 150.628 69.2053 150.628 69.664C150.628 69.9413 150.586 70.1973 150.5 70.432C150.415 70.656 150.287 70.8533 150.116 71.024C149.956 71.1947 149.748 71.344 149.492 71.472C150.068 71.6 150.484 71.8507 150.74 72.224C150.996 72.5973 151.124 73.024 151.124 73.504C151.124 73.9307 151.044 74.304 150.884 74.624C150.735 74.9333 150.522 75.1893 150.244 75.392C149.978 75.5947 149.663 75.7493 149.3 75.856C148.948 75.952 148.57 76 148.164 76H144.228ZM145.62 74.816H147.844C148.175 74.816 148.484 74.784 148.772 74.72C149.06 74.656 149.295 74.5387 149.476 74.368C149.658 74.1867 149.748 73.9307 149.748 73.6C149.748 73.2587 149.668 73.0027 149.508 72.832C149.359 72.6507 149.162 72.528 148.916 72.464C148.682 72.3893 148.426 72.3467 148.148 72.336C147.871 72.3253 147.61 72.32 147.364 72.32H145.62V74.816ZM145.62 71.168H146.788C147.002 71.168 147.247 71.1573 147.524 71.136C147.812 71.1147 148.09 71.0667 148.356 70.992C148.634 70.9067 148.858 70.7787 149.028 70.608C149.21 70.4373 149.3 70.2027 149.3 69.904C149.3 69.5093 149.188 69.2373 148.964 69.088C148.751 68.928 148.495 68.8373 148.196 68.816C147.898 68.784 147.62 68.768 147.364 68.768H145.62V71.168ZM152.978 76V67.568H154.338V71.264H158.562V67.568H159.922V76H158.562V72.464H154.338V76H152.978ZM165.752 76.096C164.867 76.096 164.125 75.9147 163.528 75.552C162.931 75.1787 162.483 74.6667 162.184 74.016C161.896 73.3653 161.752 72.624 161.752 71.792C161.752 70.9493 161.896 70.208 162.184 69.568C162.483 68.9173 162.931 68.4053 163.528 68.032C164.125 67.6587 164.877 67.472 165.784 67.472C166.669 67.472 167.405 67.6587 167.992 68.032C168.589 68.4053 169.032 68.9173 169.32 69.568C169.619 70.208 169.768 70.9493 169.768 71.792C169.768 72.624 169.619 73.3653 169.32 74.016C169.021 74.6667 168.573 75.1787 167.976 75.552C167.389 75.9147 166.648 76.096 165.752 76.096ZM165.752 74.896C166.371 74.896 166.872 74.7573 167.256 74.48C167.651 74.2027 167.939 73.8293 168.12 73.36C168.312 72.8907 168.408 72.368 168.408 71.792C168.408 71.216 168.312 70.6933 168.12 70.224C167.939 69.7547 167.651 69.3813 167.256 69.104C166.872 68.8267 166.371 68.688 165.752 68.688C165.144 68.688 164.643 68.8267 164.248 69.104C163.864 69.3813 163.576 69.7547 163.384 70.224C163.203 70.6933 163.112 71.216 163.112 71.792C163.112 72.368 163.203 72.8907 163.384 73.36C163.576 73.8293 163.864 74.2027 164.248 74.48C164.643 74.7573 165.144 74.896 165.752 74.896ZM175.236 76.096C174.34 76.096 173.598 75.9147 173.012 75.552C172.425 75.1787 171.988 74.6667 171.7 74.016C171.412 73.3653 171.268 72.624 171.268 71.792C171.268 70.9493 171.417 70.208 171.716 69.568C172.025 68.9173 172.473 68.4053 173.06 68.032C173.646 67.6587 174.366 67.472 175.22 67.472C175.849 67.472 176.398 67.5947 176.868 67.84C177.348 68.0747 177.742 68.3947 178.052 68.8C178.372 69.2053 178.601 69.6587 178.74 70.16C178.889 70.6613 178.953 71.1787 178.932 71.712C178.921 71.808 178.916 71.904 178.916 72C178.916 72.096 178.91 72.192 178.9 72.288H172.644C172.686 72.7787 172.809 73.2213 173.012 73.616C173.214 74.0107 173.502 74.3253 173.876 74.56C174.249 74.784 174.713 74.896 175.268 74.896C175.545 74.896 175.822 74.864 176.1 74.8C176.388 74.7253 176.644 74.6027 176.868 74.432C177.102 74.2613 177.268 74.032 177.364 73.744H178.756C178.628 74.288 178.388 74.736 178.036 75.088C177.684 75.4293 177.262 75.6853 176.772 75.856C176.281 76.016 175.769 76.096 175.236 76.096ZM172.676 71.104H177.556C177.545 70.624 177.438 70.2027 177.236 69.84C177.033 69.4773 176.756 69.1947 176.404 68.992C176.062 68.7893 175.652 68.688 175.172 68.688C174.649 68.688 174.206 68.8 173.844 69.024C173.492 69.248 173.22 69.5413 173.028 69.904C172.836 70.2667 172.718 70.6667 172.676 71.104ZM185.072 76V67.568H186.896L189.632 71.792L192.32 67.568H194.112V76H192.768V69.072L189.792 73.84H189.408L186.416 69.072V76H185.072ZM199.908 76.096C199.012 76.096 198.27 75.9147 197.684 75.552C197.097 75.1787 196.66 74.6667 196.372 74.016C196.084 73.3653 195.94 72.624 195.94 71.792C195.94 70.9493 196.089 70.208 196.388 69.568C196.697 68.9173 197.145 68.4053 197.732 68.032C198.318 67.6587 199.038 67.472 199.891 67.472C200.521 67.472 201.07 67.5947 201.54 67.84C202.02 68.0747 202.414 68.3947 202.724 68.8C203.044 69.2053 203.273 69.6587 203.411 70.16C203.561 70.6613 203.625 71.1787 203.604 71.712C203.593 71.808 203.588 71.904 203.588 72C203.588 72.096 203.582 72.192 203.572 72.288H197.316C197.358 72.7787 197.481 73.2213 197.684 73.616C197.886 74.0107 198.174 74.3253 198.548 74.56C198.921 74.784 199.385 74.896 199.94 74.896C200.217 74.896 200.494 74.864 200.772 74.8C201.06 74.7253 201.316 74.6027 201.54 74.432C201.774 74.2613 201.94 74.032 202.036 73.744H203.428C203.3 74.288 203.06 74.736 202.708 75.088C202.356 75.4293 201.934 75.6853 201.444 75.856C200.953 76.016 200.441 76.096 199.908 76.096ZM197.348 71.104H202.228C202.217 70.624 202.11 70.2027 201.908 69.84C201.705 69.4773 201.428 69.1947 201.076 68.992C200.734 68.7893 200.324 68.688 199.844 68.688C199.321 68.688 198.878 68.8 198.516 69.024C198.164 69.248 197.892 69.5413 197.7 69.904C197.508 70.2667 197.39 70.6667 197.348 71.104ZM205.431 76V67.568H206.791V71.264H211.015V67.568H212.375V76H211.015V72.464H206.791V76H205.431ZM221.357 76.096C220.12 76.096 219.186 75.7547 218.557 75.072C217.928 74.3787 217.57 73.4827 217.485 72.384H215.885V76H214.525V67.568H215.885V71.2H217.485C217.549 70.464 217.725 69.8187 218.013 69.264C218.312 68.6987 218.738 68.2613 219.293 67.952C219.848 67.632 220.536 67.472 221.357 67.472C222.253 67.472 222.994 67.6587 223.581 68.032C224.168 68.4053 224.605 68.9173 224.893 69.568C225.181 70.208 225.325 70.9493 225.325 71.792C225.325 72.624 225.181 73.3653 224.893 74.016C224.605 74.6667 224.168 75.1787 223.581 75.552C222.994 75.9147 222.253 76.096 221.357 76.096ZM221.357 74.896C221.976 74.896 222.472 74.7573 222.845 74.48C223.229 74.2027 223.512 73.8293 223.693 73.36C223.874 72.8907 223.965 72.368 223.965 71.792C223.965 71.216 223.874 70.6933 223.693 70.224C223.512 69.7547 223.229 69.3813 222.845 69.104C222.472 68.8267 221.976 68.688 221.357 68.688C220.749 68.688 220.253 68.8267 219.869 69.104C219.496 69.3813 219.224 69.7547 219.053 70.224C218.882 70.6933 218.797 71.216 218.797 71.792C218.797 72.368 218.882 72.8907 219.053 73.36C219.224 73.8293 219.496 74.2027 219.869 74.48C220.253 74.7573 220.749 74.896 221.357 74.896Z" fill="black"/>
</svg>
