<svg width="408" height="171" viewBox="0 0 408 171" fill="none" xmlns="http://www.w3.org/2000/svg">
<rect width="408" height="171" rx="30" fill="white"/>
<path d="M79.1416 41C85.1152 41.0002 89.9578 45.8428 89.958 51.8164V73.1836C89.958 79.1574 85.1153 83.9998 79.1416 84H40.8164C34.8426 83.9998 30 79.1574 30 73.1836V51.8164C30.0002 45.8428 34.8428 41.0002 40.8164 41H79.1416ZM46.7793 72.7734H52.1523L59.4766 52.5576H55.0557L49.5186 69.3105L43.8662 52.5576H39.416L46.7793 72.7734ZM62.6338 52.5576V72.7734L66.7354 72.7676V65.6602H70.3418L74.2803 72.7676H78.877L74.3945 65.0039C75.2225 64.7264 75.9887 64.2905 76.6504 63.7207C77.2735 63.1735 77.7619 62.4896 78.0771 61.7227C78.4112 60.8845 78.5755 59.9881 78.5605 59.0859C78.6016 57.9708 78.3818 56.8611 77.9189 55.8457C77.523 55.0381 76.9153 54.3525 76.1611 53.8623C75.3966 53.3782 74.5509 53.0348 73.665 52.8506C72.7123 52.6503 71.7401 52.5521 70.7666 52.5576H62.6338ZM71.0029 56.3643C71.588 56.3749 72.1703 56.4566 72.7363 56.6074C73.2491 56.7393 73.7083 57.0282 74.0488 57.4336C74.3869 57.9102 74.544 58.4923 74.4912 59.0742C74.5082 59.5577 74.4077 60.0385 74.1982 60.4746C74.0065 60.8447 73.7217 61.1588 73.3721 61.3857C72.987 61.6277 72.5602 61.7975 72.1143 61.8867C71.5841 61.9942 71.0438 62.0463 70.5029 62.042H66.7354V56.3643H71.0029Z" fill="#010101"/>
<path d="M111.096 56.128C109.923 56.128 108.941 55.8773 108.152 55.376C107.363 54.8747 106.765 54.1867 106.36 53.312C105.965 52.4373 105.768 51.4507 105.768 50.352C105.768 49.2427 105.965 48.2507 106.36 47.376C106.765 46.5013 107.363 45.8133 108.152 45.312C108.941 44.8107 109.923 44.56 111.096 44.56C112.269 44.56 113.245 44.8107 114.024 45.312C114.813 45.8133 115.405 46.5013 115.8 47.376C116.205 48.2507 116.408 49.2427 116.408 50.352C116.408 51.4507 116.205 52.4373 115.8 53.312C115.405 54.1867 114.813 54.8747 114.024 55.376C113.245 55.8773 112.269 56.128 111.096 56.128ZM111.096 54.864C111.992 54.864 112.728 54.6613 113.304 54.256C113.88 53.84 114.301 53.2907 114.568 52.608C114.845 51.9253 114.984 51.1733 114.984 50.352C114.984 49.7333 114.904 49.152 114.744 48.608C114.595 48.0533 114.36 47.568 114.04 47.152C113.72 46.736 113.315 46.4107 112.824 46.176C112.333 45.9413 111.757 45.824 111.096 45.824C110.211 45.824 109.475 46.032 108.888 46.448C108.312 46.864 107.88 47.4133 107.592 48.096C107.315 48.7787 107.176 49.5307 107.176 50.352C107.176 51.1627 107.315 51.9093 107.592 52.592C107.869 53.2747 108.296 53.824 108.872 54.24C109.459 54.656 110.2 54.864 111.096 54.864ZM120.368 56V48.768H117.472V47.568H124.624V48.768H121.728V56H120.368ZM125.838 56V47.568H127.198V51.2H128.67L131.166 47.568H132.718L129.902 51.584L132.958 56H131.358L128.83 52.384H127.198V56H125.838ZM134.135 59.04V47.568H135.431L135.495 48.864C135.783 48.4053 136.172 48.0587 136.663 47.824C137.164 47.5893 137.703 47.472 138.279 47.472C139.132 47.472 139.831 47.664 140.375 48.048C140.919 48.4213 141.319 48.9333 141.575 49.584C141.841 50.2347 141.975 50.9707 141.975 51.792C141.975 52.6133 141.841 53.3493 141.575 54C141.308 54.6507 140.897 55.1627 140.343 55.536C139.788 55.9093 139.079 56.096 138.215 56.096C137.788 56.096 137.404 56.0533 137.062 55.968C136.721 55.872 136.423 55.7387 136.167 55.568C135.911 55.3973 135.687 55.2053 135.495 54.992V59.04H134.135ZM138.103 54.896C138.721 54.896 139.212 54.7573 139.575 54.48C139.937 54.192 140.199 53.8133 140.359 53.344C140.529 52.8747 140.615 52.3573 140.615 51.792C140.615 51.216 140.529 50.6933 140.359 50.224C140.199 49.7547 139.932 49.3813 139.559 49.104C139.185 48.8267 138.689 48.688 138.071 48.688C137.516 48.688 137.041 48.832 136.647 49.12C136.263 49.3973 135.969 49.776 135.767 50.256C135.564 50.7253 135.463 51.2427 135.463 51.808C135.463 52.3947 135.559 52.9227 135.751 53.392C135.943 53.8613 136.236 54.2293 136.631 54.496C137.025 54.7627 137.516 54.896 138.103 54.896ZM143.728 56V47.568H145.12V50.784H146.64C147.142 50.784 147.595 50.8267 148 50.912C148.406 50.9973 148.752 51.136 149.04 51.328C149.328 51.52 149.547 51.7813 149.696 52.112C149.846 52.432 149.92 52.8373 149.92 53.328C149.92 53.7973 149.84 54.2027 149.68 54.544C149.52 54.8853 149.291 55.1627 148.992 55.376C148.704 55.5893 148.358 55.7493 147.952 55.856C147.558 55.952 147.126 56 146.656 56H143.728ZM145.12 54.816H145.568C145.942 54.816 146.304 54.8107 146.656 54.8C147.008 54.7787 147.323 54.7253 147.6 54.64C147.888 54.5547 148.118 54.416 148.288 54.224C148.459 54.0213 148.544 53.7387 148.544 53.376C148.544 53.0347 148.475 52.7733 148.336 52.592C148.208 52.4 148.038 52.2613 147.824 52.176C147.611 52.08 147.376 52.0213 147.12 52C146.875 51.9787 146.63 51.968 146.384 51.968H145.12V54.816ZM151.088 56V47.568H152.448V56H151.088ZM154.588 56V47.568H157.852C158.225 47.568 158.593 47.5947 158.956 47.648C159.329 47.6907 159.665 47.7867 159.964 47.936C160.273 48.0747 160.518 48.2827 160.7 48.56C160.892 48.8373 160.988 49.2053 160.988 49.664C160.988 49.9413 160.945 50.1973 160.86 50.432C160.774 50.656 160.646 50.8533 160.476 51.024C160.316 51.1947 160.108 51.344 159.852 51.472C160.428 51.6 160.844 51.8507 161.1 52.224C161.356 52.5973 161.484 53.024 161.484 53.504C161.484 53.9307 161.404 54.304 161.244 54.624C161.094 54.9333 160.881 55.1893 160.604 55.392C160.337 55.5947 160.022 55.7493 159.66 55.856C159.308 55.952 158.929 56 158.524 56H154.588ZM155.98 54.816H158.204C158.534 54.816 158.844 54.784 159.132 54.72C159.42 54.656 159.654 54.5387 159.836 54.368C160.017 54.1867 160.108 53.9307 160.108 53.6C160.108 53.2587 160.028 53.0027 159.868 52.832C159.718 52.6507 159.521 52.528 159.276 52.464C159.041 52.3893 158.785 52.3467 158.508 52.336C158.23 52.3253 157.969 52.32 157.724 52.32H155.98V54.816ZM155.98 51.168H157.148C157.361 51.168 157.606 51.1573 157.884 51.136C158.172 51.1147 158.449 51.0667 158.716 50.992C158.993 50.9067 159.217 50.7787 159.388 50.608C159.569 50.4373 159.66 50.2027 159.66 49.904C159.66 49.5093 159.548 49.2373 159.324 49.088C159.11 48.928 158.854 48.8373 158.556 48.816C158.257 48.784 157.98 48.768 157.724 48.768H155.98V51.168ZM166.042 56.096C165.658 56.096 165.284 56.048 164.922 55.952C164.57 55.8453 164.25 55.6907 163.962 55.488C163.684 55.2747 163.46 55.0133 163.29 54.704C163.13 54.384 163.05 54.016 163.05 53.6C163.05 53.12 163.135 52.7147 163.306 52.384C163.487 52.0533 163.727 51.792 164.026 51.6C164.324 51.408 164.671 51.2693 165.066 51.184C165.46 51.0987 165.871 51.056 166.298 51.056H168.778C168.778 50.576 168.708 50.16 168.57 49.808C168.442 49.456 168.228 49.184 167.93 48.992C167.631 48.7893 167.236 48.688 166.746 48.688C166.447 48.688 166.17 48.72 165.914 48.784C165.658 48.848 165.439 48.9493 165.258 49.088C165.076 49.2267 164.943 49.4133 164.858 49.648H163.402C163.476 49.264 163.62 48.9387 163.834 48.672C164.058 48.3947 164.324 48.1707 164.634 48C164.954 47.8187 165.295 47.6853 165.658 47.6C166.02 47.5147 166.383 47.472 166.746 47.472C167.556 47.472 168.207 47.6373 168.698 47.968C169.188 48.288 169.546 48.7467 169.77 49.344C169.994 49.9307 170.106 50.6293 170.106 51.44V56H168.97L168.89 54.928C168.655 55.248 168.372 55.4933 168.042 55.664C167.711 55.8347 167.37 55.9467 167.018 56C166.676 56.064 166.351 56.096 166.042 56.096ZM166.17 54.896C166.703 54.896 167.162 54.8107 167.546 54.64C167.94 54.4587 168.244 54.1973 168.458 53.856C168.671 53.5147 168.778 53.0987 168.778 52.608V52.192H167.29C166.938 52.192 166.591 52.1973 166.25 52.208C165.908 52.2187 165.599 52.2613 165.322 52.336C165.044 52.4107 164.82 52.5387 164.65 52.72C164.49 52.9013 164.41 53.1627 164.41 53.504C164.41 53.824 164.49 54.0853 164.65 54.288C164.82 54.4907 165.039 54.6453 165.306 54.752C165.583 54.848 165.871 54.896 166.17 54.896ZM175.861 56.096C174.965 56.096 174.223 55.9147 173.637 55.552C173.05 55.1787 172.613 54.6667 172.325 54.016C172.037 53.3653 171.893 52.624 171.893 51.792C171.893 50.9493 172.042 50.208 172.341 49.568C172.65 48.9173 173.098 48.4053 173.685 48.032C174.271 47.6587 174.991 47.472 175.845 47.472C176.474 47.472 177.023 47.5947 177.493 47.84C177.973 48.0747 178.367 48.3947 178.677 48.8C178.997 49.2053 179.226 49.6587 179.365 50.16C179.514 50.6613 179.578 51.1787 179.557 51.712C179.546 51.808 179.541 51.904 179.541 52C179.541 52.096 179.535 52.192 179.525 52.288H173.269C173.311 52.7787 173.434 53.2213 173.637 53.616C173.839 54.0107 174.127 54.3253 174.501 54.56C174.874 54.784 175.338 54.896 175.893 54.896C176.17 54.896 176.447 54.864 176.725 54.8C177.013 54.7253 177.269 54.6027 177.493 54.432C177.727 54.2613 177.893 54.032 177.989 53.744H179.381C179.253 54.288 179.013 54.736 178.661 55.088C178.309 55.4293 177.887 55.6853 177.397 55.856C176.906 56.016 176.394 56.096 175.861 56.096ZM173.301 51.104H178.181C178.17 50.624 178.063 50.2027 177.861 49.84C177.658 49.4773 177.381 49.1947 177.029 48.992C176.687 48.7893 176.277 48.688 175.797 48.688C175.274 48.688 174.831 48.8 174.469 49.024C174.117 49.248 173.845 49.5413 173.653 49.904C173.461 50.2667 173.343 50.6667 173.301 51.104ZM183.353 56V48.768H180.457V47.568H187.609V48.768H184.713V56H183.353ZM193.135 56V47.568H194.959L197.695 51.792L200.383 47.568H202.175V56H200.831V49.072L197.855 53.84H197.471L194.479 49.072V56H193.135ZM208.002 56.096C207.117 56.096 206.375 55.9147 205.778 55.552C205.181 55.1787 204.733 54.6667 204.434 54.016C204.146 53.3653 204.002 52.624 204.002 51.792C204.002 50.9493 204.146 50.208 204.434 49.568C204.733 48.9173 205.181 48.4053 205.778 48.032C206.375 47.6587 207.127 47.472 208.034 47.472C208.919 47.472 209.655 47.6587 210.242 48.032C210.839 48.4053 211.282 48.9173 211.57 49.568C211.869 50.208 212.018 50.9493 212.018 51.792C212.018 52.624 211.869 53.3653 211.57 54.016C211.271 54.6667 210.823 55.1787 210.226 55.552C209.639 55.9147 208.898 56.096 208.002 56.096ZM208.002 54.896C208.621 54.896 209.122 54.7573 209.506 54.48C209.901 54.2027 210.189 53.8293 210.37 53.36C210.562 52.8907 210.658 52.368 210.658 51.792C210.658 51.216 210.562 50.6933 210.37 50.224C210.189 49.7547 209.901 49.3813 209.506 49.104C209.122 48.8267 208.621 48.688 208.002 48.688C207.394 48.688 206.893 48.8267 206.498 49.104C206.114 49.3813 205.826 49.7547 205.634 50.224C205.453 50.6933 205.362 51.216 205.362 51.792C205.362 52.368 205.453 52.8907 205.634 53.36C205.826 53.8293 206.114 54.2027 206.498 54.48C206.893 54.7573 207.394 54.896 208.002 54.896ZM212.93 58.592V54.816C213.239 54.816 213.485 54.7307 213.666 54.56C213.858 54.3893 214.007 54.1653 214.114 53.888C214.221 53.6107 214.301 53.312 214.354 52.992C214.407 52.6613 214.45 52.3467 214.482 52.048C214.535 51.5573 214.567 51.072 214.578 50.592C214.599 50.1013 214.61 49.712 214.61 49.424C214.621 49.1147 214.626 48.8053 214.626 48.496C214.626 48.1867 214.626 47.8773 214.626 47.568H220.61V54.816H221.714V58.592H220.402V56H214.242V58.592H212.93ZM215.09 54.816H219.25V48.768H215.922C215.911 49.216 215.901 49.7173 215.89 50.272C215.879 50.8267 215.858 51.344 215.826 51.824C215.815 52.1013 215.789 52.416 215.746 52.768C215.714 53.12 215.65 53.4773 215.554 53.84C215.458 54.192 215.303 54.5173 215.09 54.816ZM226.783 56.096C225.887 56.096 225.145 55.9147 224.559 55.552C223.972 55.1787 223.535 54.6667 223.247 54.016C222.959 53.3653 222.815 52.624 222.815 51.792C222.815 50.9493 222.964 50.208 223.263 49.568C223.572 48.9173 224.02 48.4053 224.607 48.032C225.193 47.6587 225.913 47.472 226.766 47.472C227.396 47.472 227.945 47.5947 228.415 47.84C228.895 48.0747 229.289 48.3947 229.599 48.8C229.919 49.2053 230.148 49.6587 230.286 50.16C230.436 50.6613 230.5 51.1787 230.479 51.712C230.468 51.808 230.463 51.904 230.463 52C230.463 52.096 230.457 52.192 230.447 52.288H224.191C224.233 52.7787 224.356 53.2213 224.559 53.616C224.761 54.0107 225.049 54.3253 225.423 54.56C225.796 54.784 226.26 54.896 226.815 54.896C227.092 54.896 227.369 54.864 227.647 54.8C227.935 54.7253 228.191 54.6027 228.415 54.432C228.649 54.2613 228.815 54.032 228.911 53.744H230.303C230.175 54.288 229.935 54.736 229.583 55.088C229.231 55.4293 228.809 55.6853 228.319 55.856C227.828 56.016 227.316 56.096 226.783 56.096ZM224.223 51.104H229.103C229.092 50.624 228.985 50.2027 228.783 49.84C228.58 49.4773 228.303 49.1947 227.951 48.992C227.609 48.7893 227.199 48.688 226.719 48.688C226.196 48.688 225.753 48.8 225.391 49.024C225.039 49.248 224.767 49.5413 224.575 49.904C224.383 50.2667 224.265 50.6667 224.223 51.104ZM231.46 56.016V54.832C231.674 54.832 231.866 54.7893 232.036 54.704C232.207 54.608 232.356 54.4693 232.484 54.288C232.634 54.0747 232.751 53.7653 232.836 53.36C232.922 52.9547 232.98 52.5227 233.012 52.064C233.055 51.552 233.087 51.0507 233.108 50.56C233.13 50.0587 233.146 49.5627 233.156 49.072C233.178 48.5813 233.188 48.08 233.188 47.568H239.044V56H237.684V48.768H234.516C234.506 49.1307 234.49 49.4987 234.468 49.872C234.458 50.2347 234.442 50.6027 234.42 50.976C234.41 51.3387 234.394 51.7067 234.372 52.08C234.362 52.5067 234.319 52.9867 234.244 53.52C234.17 54.0533 234.01 54.5387 233.764 54.976C233.53 55.392 233.242 55.6693 232.9 55.808C232.57 55.9467 232.09 56.016 231.46 56.016ZM241.181 56V47.568H242.573V50.784H244.429C244.931 50.784 245.379 50.8267 245.773 50.912C246.179 50.9867 246.525 51.12 246.813 51.312C247.101 51.504 247.32 51.7653 247.469 52.096C247.629 52.416 247.709 52.8267 247.709 53.328C247.709 53.7867 247.629 54.1867 247.469 54.528C247.309 54.8587 247.085 55.136 246.797 55.36C246.509 55.5733 246.163 55.7333 245.757 55.84C245.363 55.9467 244.925 56 244.445 56H241.181ZM242.573 54.816H243.373C243.747 54.816 244.104 54.8053 244.445 54.784C244.797 54.7627 245.117 54.7093 245.405 54.624C245.693 54.5387 245.917 54.4 246.077 54.208C246.248 54.0053 246.333 53.728 246.333 53.376C246.333 53.0347 246.264 52.7733 246.125 52.592C245.997 52.4 245.827 52.2613 245.613 52.176C245.4 52.08 245.165 52.0213 244.909 52C244.664 51.9787 244.419 51.968 244.173 51.968H242.573V54.816ZM253.791 56V47.568H257.055C257.428 47.568 257.796 47.5947 258.159 47.648C258.532 47.6907 258.868 47.7867 259.167 47.936C259.476 48.0747 259.721 48.2827 259.903 48.56C260.095 48.8373 260.191 49.2053 260.191 49.664C260.191 49.9413 260.148 50.1973 260.063 50.432C259.977 50.656 259.849 50.8533 259.679 51.024C259.519 51.1947 259.311 51.344 259.055 51.472C259.631 51.6 260.047 51.8507 260.303 52.224C260.559 52.5973 260.687 53.024 260.687 53.504C260.687 53.9307 260.607 54.304 260.447 54.624C260.297 54.9333 260.084 55.1893 259.807 55.392C259.54 55.5947 259.225 55.7493 258.863 55.856C258.511 55.952 258.132 56 257.727 56H253.791ZM255.183 54.816H257.407C257.737 54.816 258.047 54.784 258.335 54.72C258.623 54.656 258.857 54.5387 259.039 54.368C259.22 54.1867 259.311 53.9307 259.311 53.6C259.311 53.2587 259.231 53.0027 259.071 52.832C258.921 52.6507 258.724 52.528 258.479 52.464C258.244 52.3893 257.988 52.3467 257.711 52.336C257.433 52.3253 257.172 52.32 256.927 52.32H255.183V54.816ZM255.183 51.168H256.351C256.564 51.168 256.809 51.1573 257.087 51.136C257.375 51.1147 257.652 51.0667 257.919 50.992C258.196 50.9067 258.42 50.7787 258.591 50.608C258.772 50.4373 258.863 50.2027 258.863 49.904C258.863 49.5093 258.751 49.2373 258.527 49.088C258.313 48.928 258.057 48.8373 257.759 48.816C257.46 48.784 257.183 48.768 256.927 48.768H255.183V51.168ZM266.853 59.04V47.568H268.149L268.213 48.864C268.501 48.4053 268.891 48.0587 269.381 47.824C269.883 47.5893 270.421 47.472 270.997 47.472C271.851 47.472 272.549 47.664 273.093 48.048C273.637 48.4213 274.037 48.9333 274.293 49.584C274.56 50.2347 274.693 50.9707 274.693 51.792C274.693 52.6133 274.56 53.3493 274.293 54C274.027 54.6507 273.616 55.1627 273.061 55.536C272.507 55.9093 271.797 56.096 270.933 56.096C270.507 56.096 270.123 56.0533 269.781 55.968C269.44 55.872 269.141 55.7387 268.885 55.568C268.629 55.3973 268.405 55.2053 268.213 54.992V59.04H266.853ZM270.821 54.896C271.44 54.896 271.931 54.7573 272.293 54.48C272.656 54.192 272.917 53.8133 273.077 53.344C273.248 52.8747 273.333 52.3573 273.333 51.792C273.333 51.216 273.248 50.6933 273.077 50.224C272.917 49.7547 272.651 49.3813 272.277 49.104C271.904 48.8267 271.408 48.688 270.789 48.688C270.235 48.688 269.76 48.832 269.365 49.12C268.981 49.3973 268.688 49.776 268.485 50.256C268.283 50.7253 268.181 51.2427 268.181 51.808C268.181 52.3947 268.277 52.9227 268.469 53.392C268.661 53.8613 268.955 54.2293 269.349 54.496C269.744 54.7627 270.235 54.896 270.821 54.896ZM280.095 56.096C279.199 56.096 278.458 55.9147 277.871 55.552C277.284 55.1787 276.847 54.6667 276.559 54.016C276.271 53.3653 276.127 52.624 276.127 51.792C276.127 50.9493 276.276 50.208 276.575 49.568C276.884 48.9173 277.332 48.4053 277.919 48.032C278.506 47.6587 279.226 47.472 280.079 47.472C280.708 47.472 281.258 47.5947 281.727 47.84C282.207 48.0747 282.602 48.3947 282.911 48.8C283.231 49.2053 283.46 49.6587 283.599 50.16C283.748 50.6613 283.812 51.1787 283.791 51.712C283.78 51.808 283.775 51.904 283.775 52C283.775 52.096 283.77 52.192 283.759 52.288H277.503C277.546 52.7787 277.668 53.2213 277.871 53.616C278.074 54.0107 278.362 54.3253 278.735 54.56C279.108 54.784 279.572 54.896 280.127 54.896C280.404 54.896 280.682 54.864 280.959 54.8C281.247 54.7253 281.503 54.6027 281.727 54.432C281.962 54.2613 282.127 54.032 282.223 53.744H283.615C283.487 54.288 283.247 54.736 282.895 55.088C282.543 55.4293 282.122 55.6853 281.631 55.856C281.14 56.016 280.628 56.096 280.095 56.096ZM277.535 51.104H282.415C282.404 50.624 282.298 50.2027 282.095 49.84C281.892 49.4773 281.615 49.1947 281.263 48.992C280.922 48.7893 280.511 48.688 280.031 48.688C279.508 48.688 279.066 48.8 278.703 49.024C278.351 49.248 278.079 49.5413 277.887 49.904C277.695 50.2667 277.578 50.6667 277.535 51.104ZM284.615 56L287.351 51.584L284.855 47.568H286.311L288.535 51.216H289.799V47.568H291.159V51.216H292.423L294.647 47.568H296.103L293.607 51.584L296.343 56H294.759L292.567 52.368H291.159V56H289.799V52.368H288.391L286.199 56H284.615ZM297.635 56V47.568H298.995V54.032C299.069 53.8827 299.171 53.7227 299.299 53.552C299.427 53.3707 299.528 53.232 299.603 53.136L303.683 47.568H305.027V56H303.667V49.536C303.581 49.696 303.485 49.8453 303.379 49.984C303.283 50.1227 303.192 50.2507 303.107 50.368L298.963 56H297.635ZM307.166 56V47.568H308.99L311.726 51.792L314.414 47.568H316.206V56H314.862V49.072L311.886 53.84H311.502L308.51 49.072V56H307.166ZM322.001 56.096C321.105 56.096 320.364 55.9147 319.777 55.552C319.191 55.1787 318.753 54.6667 318.465 54.016C318.177 53.3653 318.033 52.624 318.033 51.792C318.033 50.9493 318.183 50.208 318.481 49.568C318.791 48.9173 319.239 48.4053 319.825 48.032C320.412 47.6587 321.132 47.472 321.985 47.472C322.615 47.472 323.164 47.5947 323.633 47.84C324.113 48.0747 324.508 48.3947 324.817 48.8C325.137 49.2053 325.367 49.6587 325.505 50.16C325.655 50.6613 325.719 51.1787 325.697 51.712C325.687 51.808 325.681 51.904 325.681 52C325.681 52.096 325.676 52.192 325.665 52.288H319.409C319.452 52.7787 319.575 53.2213 319.777 53.616C319.98 54.0107 320.268 54.3253 320.641 54.56C321.015 54.784 321.479 54.896 322.033 54.896C322.311 54.896 322.588 54.864 322.865 54.8C323.153 54.7253 323.409 54.6027 323.633 54.432C323.868 54.2613 324.033 54.032 324.129 53.744H325.521C325.393 54.288 325.153 54.736 324.801 55.088C324.449 55.4293 324.028 55.6853 323.537 55.856C323.047 56.016 322.535 56.096 322.001 56.096ZM319.441 51.104H324.321C324.311 50.624 324.204 50.2027 324.001 49.84C323.799 49.4773 323.521 49.1947 323.169 48.992C322.828 48.7893 322.417 48.688 321.937 48.688C321.415 48.688 320.972 48.8 320.609 49.024C320.257 49.248 319.985 49.5413 319.793 49.904C319.601 50.2667 319.484 50.6667 319.441 51.104ZM106.072 76V67.568H109.336C109.709 67.568 110.077 67.5947 110.44 67.648C110.813 67.6907 111.149 67.7867 111.448 67.936C111.757 68.0747 112.003 68.2827 112.184 68.56C112.376 68.8373 112.472 69.2053 112.472 69.664C112.472 69.9413 112.429 70.1973 112.344 70.432C112.259 70.656 112.131 70.8533 111.96 71.024C111.8 71.1947 111.592 71.344 111.336 71.472C111.912 71.6 112.328 71.8507 112.584 72.224C112.84 72.5973 112.968 73.024 112.968 73.504C112.968 73.9307 112.888 74.304 112.728 74.624C112.579 74.9333 112.365 75.1893 112.088 75.392C111.821 75.5947 111.507 75.7493 111.144 75.856C110.792 75.952 110.413 76 110.008 76H106.072ZM107.464 74.816H109.688C110.019 74.816 110.328 74.784 110.616 74.72C110.904 74.656 111.139 74.5387 111.32 74.368C111.501 74.1867 111.592 73.9307 111.592 73.6C111.592 73.2587 111.512 73.0027 111.352 72.832C111.203 72.6507 111.005 72.528 110.76 72.464C110.525 72.3893 110.269 72.3467 109.992 72.336C109.715 72.3253 109.453 72.32 109.208 72.32H107.464V74.816ZM107.464 71.168H108.632C108.845 71.168 109.091 71.1573 109.368 71.136C109.656 71.1147 109.933 71.0667 110.2 70.992C110.477 70.9067 110.701 70.7787 110.872 70.608C111.053 70.4373 111.144 70.2027 111.144 69.904C111.144 69.5093 111.032 69.2373 110.808 69.088C110.595 68.928 110.339 68.8373 110.04 68.816C109.741 68.784 109.464 68.768 109.208 68.768H107.464V71.168ZM114.822 76V67.568H116.182V74.032C116.257 73.8827 116.358 73.7227 116.486 73.552C116.614 73.3707 116.715 73.232 116.79 73.136L120.87 67.568H122.214V76H120.854V69.536C120.769 69.696 120.673 69.8453 120.566 69.984C120.47 70.1227 120.379 70.2507 120.294 70.368L116.15 76H114.822ZM124.353 79.04V67.568H125.649L125.713 68.864C126.001 68.4053 126.391 68.0587 126.881 67.824C127.383 67.5893 127.921 67.472 128.497 67.472C129.351 67.472 130.049 67.664 130.593 68.048C131.137 68.4213 131.537 68.9333 131.793 69.584C132.06 70.2347 132.193 70.9707 132.193 71.792C132.193 72.6133 132.06 73.3493 131.793 74C131.527 74.6507 131.116 75.1627 130.561 75.536C130.007 75.9093 129.297 76.096 128.433 76.096C128.007 76.096 127.623 76.0533 127.281 75.968C126.94 75.872 126.641 75.7387 126.385 75.568C126.129 75.3973 125.905 75.2053 125.713 74.992V79.04H124.353ZM128.321 74.896C128.94 74.896 129.431 74.7573 129.793 74.48C130.156 74.192 130.417 73.8133 130.577 73.344C130.748 72.8747 130.833 72.3573 130.833 71.792C130.833 71.216 130.748 70.6933 130.577 70.224C130.417 69.7547 130.151 69.3813 129.777 69.104C129.404 68.8267 128.908 68.688 128.289 68.688C127.735 68.688 127.26 68.832 126.865 69.12C126.481 69.3973 126.188 69.776 125.985 70.256C125.783 70.7253 125.681 71.2427 125.681 71.808C125.681 72.3947 125.777 72.9227 125.969 73.392C126.161 73.8613 126.455 74.2293 126.849 74.496C127.244 74.7627 127.735 74.896 128.321 74.896ZM135.915 76V68.768H133.019V67.568H140.171V68.768H137.275V76H135.915ZM141.969 79.616V78.32C142.492 78.32 142.908 78.2453 143.217 78.096C143.526 77.9573 143.782 77.7333 143.985 77.424C144.198 77.1253 144.401 76.7413 144.593 76.272L140.897 67.568H142.497L145.345 74.672L147.681 67.568H149.217L146.849 74.208C146.732 74.5493 146.598 74.9333 146.449 75.36C146.3 75.7867 146.134 76.2187 145.953 76.656C145.772 77.104 145.569 77.5147 145.345 77.888C145.132 78.272 144.892 78.5813 144.625 78.816C144.401 79.0187 144.182 79.1787 143.969 79.296C143.756 79.4133 143.494 79.4933 143.185 79.536C142.886 79.5893 142.481 79.616 141.969 79.616ZM153.182 76.096C152.798 76.096 152.425 76.048 152.062 75.952C151.71 75.8453 151.39 75.6907 151.102 75.488C150.825 75.2747 150.601 75.0133 150.43 74.704C150.27 74.384 150.19 74.016 150.19 73.6C150.19 73.12 150.276 72.7147 150.446 72.384C150.628 72.0533 150.868 71.792 151.166 71.6C151.465 71.408 151.812 71.2693 152.206 71.184C152.601 71.0987 153.012 71.056 153.438 71.056H155.918C155.918 70.576 155.849 70.16 155.71 69.808C155.582 69.456 155.369 69.184 155.07 68.992C154.772 68.7893 154.377 68.688 153.886 68.688C153.588 68.688 153.31 68.72 153.054 68.784C152.798 68.848 152.58 68.9493 152.398 69.088C152.217 69.2267 152.084 69.4133 151.998 69.648H150.542C150.617 69.264 150.761 68.9387 150.974 68.672C151.198 68.3947 151.465 68.1707 151.774 68C152.094 67.8187 152.436 67.6853 152.798 67.6C153.161 67.5147 153.524 67.472 153.886 67.472C154.697 67.472 155.348 67.6373 155.838 67.968C156.329 68.288 156.686 68.7467 156.91 69.344C157.134 69.9307 157.246 70.6293 157.246 71.44V76H156.11L156.03 74.928C155.796 75.248 155.513 75.4933 155.182 75.664C154.852 75.8347 154.51 75.9467 154.158 76C153.817 76.064 153.492 76.096 153.182 76.096ZM153.31 74.896C153.844 74.896 154.302 74.8107 154.686 74.64C155.081 74.4587 155.385 74.1973 155.598 73.856C155.812 73.5147 155.918 73.0987 155.918 72.608V72.192H154.43C154.078 72.192 153.732 72.1973 153.39 72.208C153.049 72.2187 152.74 72.2613 152.462 72.336C152.185 72.4107 151.961 72.5387 151.79 72.72C151.63 72.9013 151.55 73.1627 151.55 73.504C151.55 73.824 151.63 74.0853 151.79 74.288C151.961 74.4907 152.18 74.6453 152.446 74.752C152.724 74.848 153.012 74.896 153.31 74.896ZM158.585 76.016V74.832C158.799 74.832 158.991 74.7893 159.161 74.704C159.332 74.608 159.481 74.4693 159.609 74.288C159.759 74.0747 159.876 73.7653 159.961 73.36C160.047 72.9547 160.105 72.5227 160.137 72.064C160.18 71.552 160.212 71.0507 160.233 70.56C160.255 70.0587 160.271 69.5627 160.281 69.072C160.303 68.5813 160.313 68.08 160.313 67.568H166.169V76H164.809V68.768H161.641C161.631 69.1307 161.615 69.4987 161.593 69.872C161.583 70.2347 161.567 70.6027 161.545 70.976C161.535 71.3387 161.519 71.7067 161.497 72.08C161.487 72.5067 161.444 72.9867 161.369 73.52C161.295 74.0533 161.135 74.5387 160.889 74.976C160.655 75.392 160.367 75.6693 160.025 75.808C159.695 75.9467 159.215 76.016 158.585 76.016ZM168.306 76V67.568H169.698V70.784H171.554C172.056 70.784 172.504 70.8267 172.898 70.912C173.304 70.9867 173.65 71.12 173.938 71.312C174.226 71.504 174.445 71.7653 174.594 72.096C174.754 72.416 174.834 72.8267 174.834 73.328C174.834 73.7867 174.754 74.1867 174.594 74.528C174.434 74.8587 174.21 75.136 173.922 75.36C173.634 75.5733 173.288 75.7333 172.882 75.84C172.488 75.9467 172.05 76 171.57 76H168.306ZM169.698 74.816H170.498C170.872 74.816 171.229 74.8053 171.57 74.784C171.922 74.7627 172.242 74.7093 172.53 74.624C172.818 74.5387 173.042 74.4 173.202 74.208C173.373 74.0053 173.458 73.728 173.458 73.376C173.458 73.0347 173.389 72.7733 173.25 72.592C173.122 72.4 172.952 72.2613 172.738 72.176C172.525 72.08 172.29 72.0213 172.034 72C171.789 71.9787 171.544 71.968 171.298 71.968H169.698V74.816ZM176.603 76V67.568H177.963V71.264H182.187V67.568H183.547V76H182.187V72.464H177.963V76H176.603ZM189.377 76.096C188.492 76.096 187.75 75.9147 187.153 75.552C186.556 75.1787 186.108 74.6667 185.809 74.016C185.521 73.3653 185.377 72.624 185.377 71.792C185.377 70.9493 185.521 70.208 185.809 69.568C186.108 68.9173 186.556 68.4053 187.153 68.032C187.75 67.6587 188.502 67.472 189.409 67.472C190.294 67.472 191.03 67.6587 191.617 68.032C192.214 68.4053 192.657 68.9173 192.945 69.568C193.244 70.208 193.393 70.9493 193.393 71.792C193.393 72.624 193.244 73.3653 192.945 74.016C192.646 74.6667 192.198 75.1787 191.601 75.552C191.014 75.9147 190.273 76.096 189.377 76.096ZM189.377 74.896C189.996 74.896 190.497 74.7573 190.881 74.48C191.276 74.2027 191.564 73.8293 191.745 73.36C191.937 72.8907 192.033 72.368 192.033 71.792C192.033 71.216 191.937 70.6933 191.745 70.224C191.564 69.7547 191.276 69.3813 190.881 69.104C190.497 68.8267 189.996 68.688 189.377 68.688C188.769 68.688 188.268 68.8267 187.873 69.104C187.489 69.3813 187.201 69.7547 187.009 70.224C186.828 70.6933 186.737 71.216 186.737 71.792C186.737 72.368 186.828 72.8907 187.009 73.36C187.201 73.8293 187.489 74.2027 187.873 74.48C188.268 74.7573 188.769 74.896 189.377 74.896ZM195.213 76V67.568H196.573V74.032C196.647 73.8827 196.749 73.7227 196.877 73.552C197.005 73.3707 197.106 73.232 197.181 73.136L201.261 67.568H202.605V76H201.245V69.536C201.159 69.696 201.063 69.8453 200.957 69.984C200.861 70.1227 200.77 70.2507 200.685 70.368L196.541 76H195.213ZM199.021 66.384C198.178 66.384 197.517 66.2027 197.037 65.84C196.567 65.4773 196.322 64.9493 196.301 64.256H197.549C197.57 64.6293 197.709 64.9013 197.965 65.072C198.231 65.2427 198.589 65.328 199.037 65.328C199.485 65.328 199.837 65.2427 200.093 65.072C200.359 64.9013 200.503 64.6293 200.525 64.256H201.773C201.762 64.7147 201.645 65.104 201.421 65.424C201.197 65.744 200.882 65.984 200.477 66.144C200.071 66.304 199.586 66.384 199.021 66.384ZM209.056 79.04V67.568H210.352L210.416 68.864C210.704 68.4053 211.094 68.0587 211.584 67.824C212.086 67.5893 212.624 67.472 213.2 67.472C214.054 67.472 214.752 67.664 215.296 68.048C215.84 68.4213 216.24 68.9333 216.496 69.584C216.763 70.2347 216.896 70.9707 216.896 71.792C216.896 72.6133 216.763 73.3493 216.496 74C216.23 74.6507 215.819 75.1627 215.264 75.536C214.71 75.9093 214 76.096 213.136 76.096C212.71 76.096 212.326 76.0533 211.984 75.968C211.643 75.872 211.344 75.7387 211.088 75.568C210.832 75.3973 210.608 75.2053 210.416 74.992V79.04H209.056ZM213.024 74.896C213.643 74.896 214.134 74.7573 214.496 74.48C214.859 74.192 215.12 73.8133 215.28 73.344C215.451 72.8747 215.536 72.3573 215.536 71.792C215.536 71.216 215.451 70.6933 215.28 70.224C215.12 69.7547 214.854 69.3813 214.48 69.104C214.107 68.8267 213.611 68.688 212.992 68.688C212.438 68.688 211.963 68.832 211.568 69.12C211.184 69.3973 210.891 69.776 210.688 70.256C210.486 70.7253 210.384 71.2427 210.384 71.808C210.384 72.3947 210.48 72.9227 210.672 73.392C210.864 73.8613 211.158 74.2293 211.552 74.496C211.947 74.7627 212.438 74.896 213.024 74.896ZM222.298 76.096C221.402 76.096 220.661 75.9147 220.074 75.552C219.487 75.1787 219.05 74.6667 218.762 74.016C218.474 73.3653 218.33 72.624 218.33 71.792C218.33 70.9493 218.479 70.208 218.778 69.568C219.087 68.9173 219.535 68.4053 220.122 68.032C220.709 67.6587 221.429 67.472 222.282 67.472C222.911 67.472 223.461 67.5947 223.93 67.84C224.41 68.0747 224.805 68.3947 225.114 68.8C225.434 69.2053 225.663 69.6587 225.802 70.16C225.951 70.6613 226.015 71.1787 225.994 71.712C225.983 71.808 225.978 71.904 225.978 72C225.978 72.096 225.973 72.192 225.962 72.288H219.706C219.749 72.7787 219.871 73.2213 220.074 73.616C220.277 74.0107 220.565 74.3253 220.938 74.56C221.311 74.784 221.775 74.896 222.33 74.896C222.607 74.896 222.885 74.864 223.162 74.8C223.45 74.7253 223.706 74.6027 223.93 74.432C224.165 74.2613 224.33 74.032 224.426 73.744H225.818C225.69 74.288 225.45 74.736 225.098 75.088C224.746 75.4293 224.325 75.6853 223.834 75.856C223.343 76.016 222.831 76.096 222.298 76.096ZM219.738 71.104H224.618C224.607 70.624 224.501 70.2027 224.298 69.84C224.095 69.4773 223.818 69.1947 223.466 68.992C223.125 68.7893 222.714 68.688 222.234 68.688C221.711 68.688 221.269 68.8 220.906 69.024C220.554 69.248 220.282 69.5413 220.09 69.904C219.898 70.2667 219.781 70.6667 219.738 71.104ZM230.526 76.096C230.142 76.096 229.769 76.048 229.406 75.952C229.054 75.8453 228.734 75.6907 228.446 75.488C228.169 75.2747 227.945 75.0133 227.774 74.704C227.614 74.384 227.534 74.016 227.534 73.6C227.534 73.12 227.619 72.7147 227.79 72.384C227.971 72.0533 228.211 71.792 228.51 71.6C228.809 71.408 229.155 71.2693 229.55 71.184C229.945 71.0987 230.355 71.056 230.782 71.056H233.262C233.262 70.576 233.193 70.16 233.054 69.808C232.926 69.456 232.713 69.184 232.414 68.992C232.115 68.7893 231.721 68.688 231.23 68.688C230.931 68.688 230.654 68.72 230.398 68.784C230.142 68.848 229.923 68.9493 229.742 69.088C229.561 69.2267 229.427 69.4133 229.342 69.648H227.886C227.961 69.264 228.105 68.9387 228.318 68.672C228.542 68.3947 228.809 68.1707 229.118 68C229.438 67.8187 229.779 67.6853 230.142 67.6C230.505 67.5147 230.867 67.472 231.23 67.472C232.041 67.472 232.691 67.6373 233.182 67.968C233.673 68.288 234.03 68.7467 234.254 69.344C234.478 69.9307 234.59 70.6293 234.59 71.44V76H233.454L233.374 74.928C233.139 75.248 232.857 75.4933 232.526 75.664C232.195 75.8347 231.854 75.9467 231.502 76C231.161 76.064 230.835 76.096 230.526 76.096ZM230.654 74.896C231.187 74.896 231.646 74.8107 232.03 74.64C232.425 74.4587 232.729 74.1973 232.942 73.856C233.155 73.5147 233.262 73.0987 233.262 72.608V72.192H231.774C231.422 72.192 231.075 72.1973 230.734 72.208C230.393 72.2187 230.083 72.2613 229.806 72.336C229.529 72.4107 229.305 72.5387 229.134 72.72C228.974 72.9013 228.894 73.1627 228.894 73.504C228.894 73.824 228.974 74.0853 229.134 74.288C229.305 74.4907 229.523 74.6453 229.79 74.752C230.067 74.848 230.355 74.896 230.654 74.896ZM235.929 76.016V74.832C236.142 74.832 236.334 74.7893 236.505 74.704C236.676 74.608 236.825 74.4693 236.953 74.288C237.102 74.0747 237.22 73.7653 237.305 73.36C237.39 72.9547 237.449 72.5227 237.481 72.064C237.524 71.552 237.556 71.0507 237.577 70.56C237.598 70.0587 237.614 69.5627 237.625 69.072C237.646 68.5813 237.657 68.08 237.657 67.568H243.513V76H242.153V68.768H238.985C238.974 69.1307 238.958 69.4987 238.937 69.872C238.926 70.2347 238.91 70.6027 238.889 70.976C238.878 71.3387 238.862 71.7067 238.841 72.08C238.83 72.5067 238.788 72.9867 238.713 73.52C238.638 74.0533 238.478 74.5387 238.233 74.976C237.998 75.392 237.71 75.6693 237.369 75.808C237.038 75.9467 236.558 76.016 235.929 76.016ZM245.65 76V67.568H247.042V70.784H248.898C249.399 70.784 249.847 70.8267 250.242 70.912C250.647 70.9867 250.994 71.12 251.282 71.312C251.57 71.504 251.789 71.7653 251.938 72.096C252.098 72.416 252.178 72.8267 252.178 73.328C252.178 73.7867 252.098 74.1867 251.938 74.528C251.778 74.8587 251.554 75.136 251.266 75.36C250.978 75.5733 250.631 75.7333 250.226 75.84C249.831 75.9467 249.394 76 248.914 76H245.65ZM247.042 74.816H247.842C248.215 74.816 248.573 74.8053 248.914 74.784C249.266 74.7627 249.586 74.7093 249.874 74.624C250.162 74.5387 250.386 74.4 250.546 74.208C250.717 74.0053 250.802 73.728 250.802 73.376C250.802 73.0347 250.733 72.7733 250.594 72.592C250.466 72.4 250.295 72.2613 250.082 72.176C249.869 72.08 249.634 72.0213 249.378 72C249.133 71.9787 248.887 71.968 248.642 71.968H247.042V74.816ZM253.947 76V67.568H255.307V71.264H259.531V67.568H260.891V76H259.531V72.464H255.307V76H253.947ZM266.721 76.096C265.835 76.096 265.094 75.9147 264.497 75.552C263.899 75.1787 263.451 74.6667 263.153 74.016C262.865 73.3653 262.721 72.624 262.721 71.792C262.721 70.9493 262.865 70.208 263.153 69.568C263.451 68.9173 263.899 68.4053 264.497 68.032C265.094 67.6587 265.846 67.472 266.753 67.472C267.638 67.472 268.374 67.6587 268.961 68.032C269.558 68.4053 270.001 68.9173 270.289 69.568C270.587 70.208 270.737 70.9493 270.737 71.792C270.737 72.624 270.587 73.3653 270.289 74.016C269.99 74.6667 269.542 75.1787 268.945 75.552C268.358 75.9147 267.617 76.096 266.721 76.096ZM266.721 74.896C267.339 74.896 267.841 74.7573 268.225 74.48C268.619 74.2027 268.907 73.8293 269.089 73.36C269.281 72.8907 269.377 72.368 269.377 71.792C269.377 71.216 269.281 70.6933 269.089 70.224C268.907 69.7547 268.619 69.3813 268.225 69.104C267.841 68.8267 267.339 68.688 266.721 68.688C266.113 68.688 265.611 68.8267 265.217 69.104C264.833 69.3813 264.545 69.7547 264.353 70.224C264.171 70.6933 264.081 71.216 264.081 71.792C264.081 72.368 264.171 72.8907 264.353 73.36C264.545 73.8293 264.833 74.2027 265.217 74.48C265.611 74.7573 266.113 74.896 266.721 74.896ZM276.156 76.096C275.271 76.096 274.535 75.9147 273.948 75.552C273.372 75.1787 272.94 74.6667 272.652 74.016C272.375 73.3653 272.236 72.6293 272.236 71.808C272.236 71.008 272.38 70.2827 272.668 69.632C272.967 68.9707 273.415 68.448 274.012 68.064C274.62 67.6693 275.388 67.472 276.316 67.472C276.892 67.472 277.404 67.568 277.852 67.76C278.311 67.952 278.69 68.2347 278.988 68.608C279.287 68.9707 279.495 69.4293 279.612 69.984H278.22C278.06 69.5147 277.804 69.184 277.452 68.992C277.111 68.7893 276.706 68.688 276.236 68.688C275.596 68.688 275.084 68.8373 274.7 69.136C274.316 69.4347 274.034 69.824 273.852 70.304C273.682 70.7733 273.596 71.2747 273.596 71.808C273.596 72.3627 273.687 72.8747 273.868 73.344C274.05 73.8133 274.332 74.192 274.716 74.48C275.1 74.7573 275.596 74.896 276.204 74.896C276.652 74.896 277.074 74.8 277.468 74.608C277.874 74.416 278.14 74.0747 278.268 73.584H279.676C279.57 74.16 279.34 74.6347 278.988 75.008C278.647 75.3813 278.226 75.6587 277.724 75.84C277.234 76.0107 276.711 76.096 276.156 76.096ZM283.368 76V68.768H280.472V67.568H287.624V68.768H284.728V76H283.368ZM288.838 76V67.568H290.198V74.032C290.272 73.8827 290.374 73.7227 290.502 73.552C290.63 73.3707 290.731 73.232 290.806 73.136L294.886 67.568H296.23V76H294.87V69.536C294.784 69.696 294.688 69.8453 294.582 69.984C294.486 70.1227 294.395 70.2507 294.31 70.368L290.166 76H288.838Z" fill="black"/>
</svg>
