<svg width="408" height="211" viewBox="0 0 408 211" fill="none" xmlns="http://www.w3.org/2000/svg">
<rect width="408" height="211" rx="30" fill="white"/>
<path d="M52.6074 41C65.0931 41 75.2148 51.1218 75.2148 63.6074C75.2146 76.0929 65.0929 86.2138 52.6074 86.2139C40.1219 86.2139 30.0002 76.0929 30 63.6074C30 51.1217 40.1217 41 52.6074 41ZM52.6094 74.3135C51.6894 74.3135 50.9434 75.0595 50.9434 75.9795C50.9436 76.8993 51.6895 77.6445 52.6094 77.6445C53.5291 77.6444 54.2752 76.8992 54.2754 75.9795C54.2754 75.0596 53.5293 74.3136 52.6094 74.3135ZM52.915 51.6904C51.8566 51.6494 50.8004 51.8226 49.8105 52.1992C48.8206 52.5759 47.9158 53.1485 47.1523 53.8828C46.389 54.6171 45.7811 55.4991 45.3662 56.4736C44.9516 57.448 44.7375 58.4967 44.7373 59.5557H45.9512L47.165 59.5566C47.1651 58.8241 47.3127 58.0979 47.5996 57.4238C47.8865 56.75 48.3072 56.1406 48.835 55.6328C49.3629 55.125 49.9892 54.7284 50.6738 54.4678C51.3568 54.208 52.0854 54.0877 52.8154 54.1152V54.1162C54.1841 54.1751 55.4815 54.7452 56.4502 55.7139C57.3581 56.6219 57.9155 57.8182 58.0303 59.0918L58.0479 59.3477C58.0845 60.3109 57.8649 61.2676 57.4111 62.1182C56.9573 62.9686 56.2852 63.6835 55.4648 64.1895L55.2344 64.3359C54.0948 65.0828 53.1488 66.0933 52.4795 67.2832C51.7657 68.5525 51.3897 69.9843 51.3867 71.4404L52.5996 71.4434L53.8135 71.4453C53.8156 70.4042 54.0854 69.3801 54.5957 68.4727C55.1061 67.5655 55.8411 66.8042 56.7295 66.2617L56.7334 66.2588C57.9223 65.527 58.8956 64.4914 59.5527 63.2598C60.1686 62.105 60.486 60.8158 60.4785 59.5098L60.4727 59.248V59.2432L60.4482 58.874C60.2826 57.0354 59.4769 55.308 58.166 53.9971C56.855 52.6862 55.1278 51.8813 53.2891 51.7158L52.9199 51.6904H52.915Z" fill="#010101"/>
<path d="M106.392 56V44.688H115.288V56H113.896V45.952H107.784V56H106.392ZM117.76 59.04V47.568H119.056L119.12 48.864C119.408 48.4053 119.797 48.0587 120.288 47.824C120.789 47.5893 121.328 47.472 121.904 47.472C122.757 47.472 123.456 47.664 124 48.048C124.544 48.4213 124.944 48.9333 125.2 49.584C125.466 50.2347 125.6 50.9707 125.6 51.792C125.6 52.6133 125.466 53.3493 125.2 54C124.933 54.6507 124.522 55.1627 123.968 55.536C123.413 55.9093 122.704 56.096 121.84 56.096C121.413 56.096 121.029 56.0533 120.688 55.968C120.346 55.872 120.048 55.7387 119.792 55.568C119.536 55.3973 119.312 55.2053 119.12 54.992V59.04H117.76ZM121.728 54.896C122.346 54.896 122.837 54.7573 123.2 54.48C123.562 54.192 123.824 53.8133 123.984 53.344C124.154 52.8747 124.24 52.3573 124.24 51.792C124.24 51.216 124.154 50.6933 123.984 50.224C123.824 49.7547 123.557 49.3813 123.184 49.104C122.81 48.8267 122.314 48.688 121.696 48.688C121.141 48.688 120.666 48.832 120.272 49.12C119.888 49.3973 119.594 49.776 119.392 50.256C119.189 50.7253 119.088 51.2427 119.088 51.808C119.088 52.3947 119.184 52.9227 119.376 53.392C119.568 53.8613 119.861 54.2293 120.256 54.496C120.65 54.7627 121.141 54.896 121.728 54.896ZM127.353 56V47.568H128.713V54.032C128.788 53.8827 128.889 53.7227 129.017 53.552C129.145 53.3707 129.247 53.232 129.321 53.136L133.401 47.568H134.745V56H133.385V49.536C133.3 49.696 133.204 49.8453 133.097 49.984C133.001 50.1227 132.911 50.2507 132.825 50.368L128.681 56H127.353ZM141.197 56V47.568H142.557V51.264H146.781V47.568H148.141V56H146.781V52.464H142.557V56H141.197ZM152.995 56.096C152.611 56.096 152.237 56.048 151.875 55.952C151.523 55.8453 151.203 55.6907 150.915 55.488C150.637 55.2747 150.413 55.0133 150.243 54.704C150.083 54.384 150.003 54.016 150.003 53.6C150.003 53.12 150.088 52.7147 150.259 52.384C150.44 52.0533 150.68 51.792 150.979 51.6C151.277 51.408 151.624 51.2693 152.019 51.184C152.413 51.0987 152.824 51.056 153.251 51.056H155.731C155.731 50.576 155.661 50.16 155.523 49.808C155.395 49.456 155.181 49.184 154.883 48.992C154.584 48.7893 154.189 48.688 153.699 48.688C153.4 48.688 153.123 48.72 152.867 48.784C152.611 48.848 152.392 48.9493 152.211 49.088C152.029 49.2267 151.896 49.4133 151.811 49.648H150.355C150.429 49.264 150.573 48.9387 150.787 48.672C151.011 48.3947 151.277 48.1707 151.587 48C151.907 47.8187 152.248 47.6853 152.611 47.6C152.973 47.5147 153.336 47.472 153.699 47.472C154.509 47.472 155.16 47.6373 155.651 47.968C156.141 48.288 156.499 48.7467 156.723 49.344C156.947 49.9307 157.059 50.6293 157.059 51.44V56H155.923L155.843 54.928C155.608 55.248 155.325 55.4933 154.995 55.664C154.664 55.8347 154.323 55.9467 153.971 56C153.629 56.064 153.304 56.096 152.995 56.096ZM153.123 54.896C153.656 54.896 154.115 54.8107 154.499 54.64C154.893 54.4587 155.197 54.1973 155.411 53.856C155.624 53.5147 155.731 53.0987 155.731 52.608V52.192H154.243C153.891 52.192 153.544 52.1973 153.203 52.208C152.861 52.2187 152.552 52.2613 152.275 52.336C151.997 52.4107 151.773 52.5387 151.603 52.72C151.443 52.9013 151.363 53.1627 151.363 53.504C151.363 53.824 151.443 54.0853 151.603 54.288C151.773 54.4907 151.992 54.6453 152.259 54.752C152.536 54.848 152.824 54.896 153.123 54.896ZM158.318 56L161.054 51.584L158.558 47.568H160.014L162.238 51.216H163.502V47.568H164.862V51.216H166.126L168.35 47.568H169.806L167.31 51.584L170.046 56H168.462L166.27 52.368H164.862V56H163.502V52.368H162.094L159.902 56H158.318ZM173.885 56.096C173.501 56.096 173.128 56.048 172.765 55.952C172.413 55.8453 172.093 55.6907 171.805 55.488C171.528 55.2747 171.304 55.0133 171.133 54.704C170.973 54.384 170.893 54.016 170.893 53.6C170.893 53.12 170.979 52.7147 171.149 52.384C171.331 52.0533 171.571 51.792 171.869 51.6C172.168 51.408 172.515 51.2693 172.909 51.184C173.304 51.0987 173.715 51.056 174.141 51.056H176.621C176.621 50.576 176.552 50.16 176.413 49.808C176.285 49.456 176.072 49.184 175.773 48.992C175.475 48.7893 175.08 48.688 174.589 48.688C174.291 48.688 174.013 48.72 173.757 48.784C173.501 48.848 173.283 48.9493 173.101 49.088C172.92 49.2267 172.787 49.4133 172.701 49.648H171.245C171.32 49.264 171.464 48.9387 171.677 48.672C171.901 48.3947 172.168 48.1707 172.477 48C172.797 47.8187 173.139 47.6853 173.501 47.6C173.864 47.5147 174.227 47.472 174.589 47.472C175.4 47.472 176.051 47.6373 176.541 47.968C177.032 48.288 177.389 48.7467 177.613 49.344C177.837 49.9307 177.949 50.6293 177.949 51.44V56H176.813L176.733 54.928C176.499 55.248 176.216 55.4933 175.885 55.664C175.555 55.8347 175.213 55.9467 174.861 56C174.52 56.064 174.195 56.096 173.885 56.096ZM174.013 54.896C174.547 54.896 175.005 54.8107 175.389 54.64C175.784 54.4587 176.088 54.1973 176.301 53.856C176.515 53.5147 176.621 53.0987 176.621 52.608V52.192H175.133C174.781 52.192 174.435 52.1973 174.093 52.208C173.752 52.2187 173.443 52.2613 173.165 52.336C172.888 52.4107 172.664 52.5387 172.493 52.72C172.333 52.9013 172.253 53.1627 172.253 53.504C172.253 53.824 172.333 54.0853 172.493 54.288C172.664 54.4907 172.883 54.6453 173.149 54.752C173.427 54.848 173.715 54.896 174.013 54.896ZM182.024 56V48.768H179.128V47.568H186.28V48.768H183.384V56H182.024ZM187.494 56V47.568H188.854V54.032C188.929 53.8827 189.03 53.7227 189.158 53.552C189.286 53.3707 189.387 53.232 189.462 53.136L193.542 47.568H194.886V56H193.526V49.536C193.441 49.696 193.345 49.8453 193.238 49.984C193.142 50.1227 193.051 50.2507 192.966 50.368L188.822 56H187.494ZM197.025 56V47.568H198.385V54.032C198.46 53.8827 198.561 53.7227 198.689 53.552C198.817 53.3707 198.918 53.232 198.993 53.136L203.073 47.568H204.417V56H203.057V49.536C202.972 49.696 202.876 49.8453 202.769 49.984C202.673 50.1227 202.582 50.2507 202.497 50.368L198.353 56H197.025ZM210.869 56V47.568H212.229V51.264H216.453V47.568H217.813V56H216.453V52.464H212.229V56H210.869ZM222.667 56.096C222.283 56.096 221.909 56.048 221.547 55.952C221.195 55.8453 220.875 55.6907 220.587 55.488C220.309 55.2747 220.085 55.0133 219.915 54.704C219.755 54.384 219.675 54.016 219.675 53.6C219.675 53.12 219.76 52.7147 219.931 52.384C220.112 52.0533 220.352 51.792 220.651 51.6C220.949 51.408 221.296 51.2693 221.691 51.184C222.085 51.0987 222.496 51.056 222.923 51.056H225.403C225.403 50.576 225.333 50.16 225.195 49.808C225.067 49.456 224.853 49.184 224.555 48.992C224.256 48.7893 223.861 48.688 223.371 48.688C223.072 48.688 222.795 48.72 222.539 48.784C222.283 48.848 222.064 48.9493 221.883 49.088C221.701 49.2267 221.568 49.4133 221.483 49.648H220.027C220.101 49.264 220.245 48.9387 220.459 48.672C220.683 48.3947 220.949 48.1707 221.259 48C221.579 47.8187 221.92 47.6853 222.283 47.6C222.645 47.5147 223.008 47.472 223.371 47.472C224.181 47.472 224.832 47.6373 225.323 47.968C225.813 48.288 226.171 48.7467 226.395 49.344C226.619 49.9307 226.731 50.6293 226.731 51.44V56H225.595L225.515 54.928C225.28 55.248 224.997 55.4933 224.667 55.664C224.336 55.8347 223.995 55.9467 223.643 56C223.301 56.064 222.976 56.096 222.667 56.096ZM222.795 54.896C223.328 54.896 223.787 54.8107 224.171 54.64C224.565 54.4587 224.869 54.1973 225.083 53.856C225.296 53.5147 225.403 53.0987 225.403 52.608V52.192H223.915C223.563 52.192 223.216 52.1973 222.875 52.208C222.533 52.2187 222.224 52.2613 221.947 52.336C221.669 52.4107 221.445 52.5387 221.275 52.72C221.115 52.9013 221.035 53.1627 221.035 53.504C221.035 53.824 221.115 54.0853 221.275 54.288C221.445 54.4907 221.664 54.6453 221.931 54.752C222.208 54.848 222.496 54.896 222.795 54.896ZM233.15 56V47.568H234.51V51.2H235.982L238.478 47.568H240.03L237.214 51.584L240.27 56H238.67L236.142 52.384H234.51V56H233.15ZM241.447 56V47.568H242.807V51.264H247.031V47.568H248.391V56H247.031V52.464H242.807V56H241.447ZM254.221 56.096C253.335 56.096 252.594 55.9147 251.997 55.552C251.399 55.1787 250.951 54.6667 250.653 54.016C250.365 53.3653 250.221 52.624 250.221 51.792C250.221 50.9493 250.365 50.208 250.653 49.568C250.951 48.9173 251.399 48.4053 251.997 48.032C252.594 47.6587 253.346 47.472 254.253 47.472C255.138 47.472 255.874 47.6587 256.461 48.032C257.058 48.4053 257.501 48.9173 257.789 49.568C258.087 50.208 258.237 50.9493 258.237 51.792C258.237 52.624 258.087 53.3653 257.789 54.016C257.49 54.6667 257.042 55.1787 256.445 55.552C255.858 55.9147 255.117 56.096 254.221 56.096ZM254.221 54.896C254.839 54.896 255.341 54.7573 255.725 54.48C256.119 54.2027 256.407 53.8293 256.589 53.36C256.781 52.8907 256.877 52.368 256.877 51.792C256.877 51.216 256.781 50.6933 256.589 50.224C256.407 49.7547 256.119 49.3813 255.725 49.104C255.341 48.8267 254.839 48.688 254.221 48.688C253.613 48.688 253.111 48.8267 252.717 49.104C252.333 49.3813 252.045 49.7547 251.853 50.224C251.671 50.6933 251.581 51.216 251.581 51.792C251.581 52.368 251.671 52.8907 251.853 53.36C252.045 53.8293 252.333 54.2027 252.717 54.48C253.111 54.7573 253.613 54.896 254.221 54.896ZM260.056 56V47.568H267.048V56H265.688V48.768H261.416V56H260.056ZM269.197 56V47.568H270.557V51.2H272.029L274.525 47.568H276.077L273.261 51.584L276.317 56H274.717L272.189 52.384H270.557V56H269.197ZM277.766 59.616V58.32C278.289 58.32 278.705 58.2453 279.014 58.096C279.323 57.9573 279.579 57.7333 279.782 57.424C279.995 57.1253 280.198 56.7413 280.39 56.272L276.694 47.568H278.294L281.142 54.672L283.478 47.568H285.014L282.646 54.208C282.529 54.5493 282.395 54.9333 282.246 55.36C282.097 55.7867 281.931 56.2187 281.75 56.656C281.569 57.104 281.366 57.5147 281.142 57.888C280.929 58.272 280.689 58.5813 280.422 58.816C280.198 59.0187 279.979 59.1787 279.766 59.296C279.553 59.4133 279.291 59.4933 278.982 59.536C278.683 59.5893 278.278 59.616 277.766 59.616ZM294.268 56.096C293.382 56.096 292.641 55.9147 292.044 55.552C291.446 55.1787 290.998 54.6667 290.7 54.016C290.412 53.3653 290.268 52.624 290.268 51.792C290.268 50.9493 290.412 50.208 290.7 49.568C290.998 48.9173 291.446 48.4053 292.044 48.032C292.641 47.6587 293.393 47.472 294.3 47.472C295.185 47.472 295.921 47.6587 296.508 48.032C297.105 48.4053 297.548 48.9173 297.836 49.568C298.134 50.208 298.284 50.9493 298.284 51.792C298.284 52.624 298.134 53.3653 297.836 54.016C297.537 54.6667 297.089 55.1787 296.492 55.552C295.905 55.9147 295.164 56.096 294.268 56.096ZM294.268 54.896C294.886 54.896 295.388 54.7573 295.772 54.48C296.166 54.2027 296.454 53.8293 296.636 53.36C296.828 52.8907 296.924 52.368 296.924 51.792C296.924 51.216 296.828 50.6933 296.636 50.224C296.454 49.7547 296.166 49.3813 295.772 49.104C295.388 48.8267 294.886 48.688 294.268 48.688C293.66 48.688 293.158 48.8267 292.764 49.104C292.38 49.3813 292.092 49.7547 291.9 50.224C291.718 50.6933 291.628 51.216 291.628 51.792C291.628 52.368 291.718 52.8907 291.9 53.36C292.092 53.8293 292.38 54.2027 292.764 54.48C293.158 54.7573 293.66 54.896 294.268 54.896ZM302.071 56V48.768H299.175V47.568H306.327V48.768H303.431V56H302.071ZM307.541 56V47.568H308.901V51.2H310.373L312.869 47.568H314.421L311.605 51.584L314.661 56H313.061L310.533 52.384H308.901V56H307.541ZM315.838 59.04V47.568H317.134L317.198 48.864C317.486 48.4053 317.875 48.0587 318.366 47.824C318.867 47.5893 319.406 47.472 319.982 47.472C320.835 47.472 321.534 47.664 322.078 48.048C322.622 48.4213 323.022 48.9333 323.278 49.584C323.544 50.2347 323.678 50.9707 323.678 51.792C323.678 52.6133 323.544 53.3493 323.278 54C323.011 54.6507 322.6 55.1627 322.046 55.536C321.491 55.9093 320.782 56.096 319.918 56.096C319.491 56.096 319.107 56.0533 318.766 55.968C318.424 55.872 318.126 55.7387 317.87 55.568C317.614 55.3973 317.39 55.2053 317.198 54.992V59.04H315.838ZM319.806 54.896C320.424 54.896 320.915 54.7573 321.278 54.48C321.64 54.192 321.902 53.8133 322.062 53.344C322.232 52.8747 322.318 52.3573 322.318 51.792C322.318 51.216 322.232 50.6933 322.062 50.224C321.902 49.7547 321.635 49.3813 321.262 49.104C320.888 48.8267 320.392 48.688 319.774 48.688C319.219 48.688 318.744 48.832 318.35 49.12C317.966 49.3973 317.672 49.776 317.47 50.256C317.267 50.7253 317.166 51.2427 317.166 51.808C317.166 52.3947 317.262 52.9227 317.454 53.392C317.646 53.8613 317.939 54.2293 318.334 54.496C318.728 54.7627 319.219 54.896 319.806 54.896ZM325.431 56V47.568H326.823V50.784H328.343C328.845 50.784 329.298 50.8267 329.703 50.912C330.109 50.9973 330.455 51.136 330.743 51.328C331.031 51.52 331.25 51.7813 331.399 52.112C331.549 52.432 331.623 52.8373 331.623 53.328C331.623 53.7973 331.543 54.2027 331.383 54.544C331.223 54.8853 330.994 55.1627 330.695 55.376C330.407 55.5893 330.061 55.7493 329.655 55.856C329.261 55.952 328.829 56 328.359 56H325.431ZM326.823 54.816H327.271C327.645 54.816 328.007 54.8107 328.359 54.8C328.711 54.7787 329.026 54.7253 329.303 54.64C329.591 54.5547 329.821 54.416 329.991 54.224C330.162 54.0213 330.247 53.7387 330.247 53.376C330.247 53.0347 330.178 52.7733 330.039 52.592C329.911 52.4 329.741 52.2613 329.527 52.176C329.314 52.08 329.079 52.0213 328.823 52C328.578 51.9787 328.333 51.968 328.087 51.968H326.823V54.816ZM332.791 56V47.568H334.151V56H332.791ZM336.291 56V47.568H339.555C339.928 47.568 340.296 47.5947 340.659 47.648C341.032 47.6907 341.368 47.7867 341.667 47.936C341.976 48.0747 342.221 48.2827 342.403 48.56C342.595 48.8373 342.691 49.2053 342.691 49.664C342.691 49.9413 342.648 50.1973 342.563 50.432C342.477 50.656 342.349 50.8533 342.179 51.024C342.019 51.1947 341.811 51.344 341.555 51.472C342.131 51.6 342.547 51.8507 342.803 52.224C343.059 52.5973 343.187 53.024 343.187 53.504C343.187 53.9307 343.107 54.304 342.947 54.624C342.797 54.9333 342.584 55.1893 342.307 55.392C342.04 55.5947 341.725 55.7493 341.363 55.856C341.011 55.952 340.632 56 340.227 56H336.291ZM337.683 54.816H339.907C340.237 54.816 340.547 54.784 340.835 54.72C341.123 54.656 341.357 54.5387 341.539 54.368C341.72 54.1867 341.811 53.9307 341.811 53.6C341.811 53.2587 341.731 53.0027 341.571 52.832C341.421 52.6507 341.224 52.528 340.979 52.464C340.744 52.3893 340.488 52.3467 340.211 52.336C339.933 52.3253 339.672 52.32 339.427 52.32H337.683V54.816ZM337.683 51.168H338.851C339.064 51.168 339.309 51.1573 339.587 51.136C339.875 51.1147 340.152 51.0667 340.419 50.992C340.696 50.9067 340.92 50.7787 341.091 50.608C341.272 50.4373 341.363 50.2027 341.363 49.904C341.363 49.5093 341.251 49.2373 341.027 49.088C340.813 48.928 340.557 48.8373 340.259 48.816C339.96 48.784 339.683 48.768 339.427 48.768H337.683V51.168ZM347.745 56.096C347.361 56.096 346.987 56.048 346.625 55.952C346.273 55.8453 345.953 55.6907 345.665 55.488C345.387 55.2747 345.163 55.0133 344.993 54.704C344.833 54.384 344.753 54.016 344.753 53.6C344.753 53.12 344.838 52.7147 345.009 52.384C345.19 52.0533 345.43 51.792 345.729 51.6C346.027 51.408 346.374 51.2693 346.769 51.184C347.163 51.0987 347.574 51.056 348.001 51.056H350.481C350.481 50.576 350.411 50.16 350.273 49.808C350.145 49.456 349.931 49.184 349.633 48.992C349.334 48.7893 348.939 48.688 348.449 48.688C348.15 48.688 347.873 48.72 347.617 48.784C347.361 48.848 347.142 48.9493 346.961 49.088C346.779 49.2267 346.646 49.4133 346.561 49.648H345.105C345.179 49.264 345.323 48.9387 345.537 48.672C345.761 48.3947 346.027 48.1707 346.337 48C346.657 47.8187 346.998 47.6853 347.361 47.6C347.723 47.5147 348.086 47.472 348.449 47.472C349.259 47.472 349.91 47.6373 350.401 47.968C350.891 48.288 351.249 48.7467 351.473 49.344C351.697 49.9307 351.809 50.6293 351.809 51.44V56H350.673L350.593 54.928C350.358 55.248 350.075 55.4933 349.745 55.664C349.414 55.8347 349.073 55.9467 348.721 56C348.379 56.064 348.054 56.096 347.745 56.096ZM347.873 54.896C348.406 54.896 348.865 54.8107 349.249 54.64C349.643 54.4587 349.947 54.1973 350.161 53.856C350.374 53.5147 350.481 53.0987 350.481 52.608V52.192H348.993C348.641 52.192 348.294 52.1973 347.953 52.208C347.611 52.2187 347.302 52.2613 347.025 52.336C346.747 52.4107 346.523 52.5387 346.353 52.72C346.193 52.9013 346.113 53.1627 346.113 53.504C346.113 53.824 346.193 54.0853 346.353 54.288C346.523 54.4907 346.742 54.6453 347.009 54.752C347.286 54.848 347.574 54.896 347.873 54.896ZM357.564 56.096C356.668 56.096 355.926 55.9147 355.34 55.552C354.753 55.1787 354.316 54.6667 354.028 54.016C353.74 53.3653 353.596 52.624 353.596 51.792C353.596 50.9493 353.745 50.208 354.044 49.568C354.353 48.9173 354.801 48.4053 355.388 48.032C355.974 47.6587 356.694 47.472 357.548 47.472C358.177 47.472 358.726 47.5947 359.196 47.84C359.676 48.0747 360.07 48.3947 360.38 48.8C360.7 49.2053 360.929 49.6587 361.068 50.16C361.217 50.6613 361.281 51.1787 361.26 51.712C361.249 51.808 361.244 51.904 361.244 52C361.244 52.096 361.238 52.192 361.228 52.288H354.972C355.014 52.7787 355.137 53.2213 355.34 53.616C355.542 54.0107 355.83 54.3253 356.204 54.56C356.577 54.784 357.041 54.896 357.596 54.896C357.873 54.896 358.15 54.864 358.428 54.8C358.716 54.7253 358.972 54.6027 359.196 54.432C359.43 54.2613 359.596 54.032 359.692 53.744H361.084C360.956 54.288 360.716 54.736 360.364 55.088C360.012 55.4293 359.59 55.6853 359.1 55.856C358.609 56.016 358.097 56.096 357.564 56.096ZM355.004 51.104H359.884C359.873 50.624 359.766 50.2027 359.564 49.84C359.361 49.4773 359.084 49.1947 358.732 48.992C358.39 48.7893 357.98 48.688 357.5 48.688C356.977 48.688 356.534 48.8 356.172 49.024C355.82 49.248 355.548 49.5413 355.356 49.904C355.164 50.2667 355.046 50.6667 355.004 51.104ZM365.056 56V48.768H362.16V47.568H369.312V48.768H366.416V56H365.056ZM109.752 76.096C108.867 76.096 108.125 75.9147 107.528 75.552C106.931 75.1787 106.483 74.6667 106.184 74.016C105.896 73.3653 105.752 72.624 105.752 71.792C105.752 70.9493 105.896 70.208 106.184 69.568C106.483 68.9173 106.931 68.4053 107.528 68.032C108.125 67.6587 108.877 67.472 109.784 67.472C110.669 67.472 111.405 67.6587 111.992 68.032C112.589 68.4053 113.032 68.9173 113.32 69.568C113.619 70.208 113.768 70.9493 113.768 71.792C113.768 72.624 113.619 73.3653 113.32 74.016C113.021 74.6667 112.573 75.1787 111.976 75.552C111.389 75.9147 110.648 76.096 109.752 76.096ZM109.752 74.896C110.371 74.896 110.872 74.7573 111.256 74.48C111.651 74.2027 111.939 73.8293 112.12 73.36C112.312 72.8907 112.408 72.368 112.408 71.792C112.408 71.216 112.312 70.6933 112.12 70.224C111.939 69.7547 111.651 69.3813 111.256 69.104C110.872 68.8267 110.371 68.688 109.752 68.688C109.144 68.688 108.643 68.8267 108.248 69.104C107.864 69.3813 107.576 69.7547 107.384 70.224C107.203 70.6933 107.112 71.216 107.112 71.792C107.112 72.368 107.203 72.8907 107.384 73.36C107.576 73.8293 107.864 74.2027 108.248 74.48C108.643 74.7573 109.144 74.896 109.752 74.896ZM115.588 76V67.568H116.948V71.2H118.42L120.916 67.568H122.468L119.652 71.584L122.708 76H121.108L118.58 72.384H116.948V76H115.588ZM123.885 76V67.568H125.245V71.264H129.469V67.568H130.829V76H129.469V72.464H125.245V76H123.885ZM136.658 76.096C135.773 76.096 135.032 75.9147 134.434 75.552C133.837 75.1787 133.389 74.6667 133.09 74.016C132.802 73.3653 132.658 72.624 132.658 71.792C132.658 70.9493 132.802 70.208 133.09 69.568C133.389 68.9173 133.837 68.4053 134.434 68.032C135.032 67.6587 135.784 67.472 136.69 67.472C137.576 67.472 138.312 67.6587 138.898 68.032C139.496 68.4053 139.938 68.9173 140.226 69.568C140.525 70.208 140.674 70.9493 140.674 71.792C140.674 72.624 140.525 73.3653 140.226 74.016C139.928 74.6667 139.48 75.1787 138.882 75.552C138.296 75.9147 137.554 76.096 136.658 76.096ZM136.658 74.896C137.277 74.896 137.778 74.7573 138.162 74.48C138.557 74.2027 138.845 73.8293 139.026 73.36C139.218 72.8907 139.314 72.368 139.314 71.792C139.314 71.216 139.218 70.6933 139.026 70.224C138.845 69.7547 138.557 69.3813 138.162 69.104C137.778 68.8267 137.277 68.688 136.658 68.688C136.05 68.688 135.549 68.8267 135.154 69.104C134.77 69.3813 134.482 69.7547 134.29 70.224C134.109 70.6933 134.018 71.216 134.018 71.792C134.018 72.368 134.109 72.8907 134.29 73.36C134.482 73.8293 134.77 74.2027 135.154 74.48C135.549 74.7573 136.05 74.896 136.658 74.896ZM150.406 76.096C149.521 76.096 148.785 75.9147 148.198 75.552C147.622 75.1787 147.19 74.6667 146.902 74.016C146.625 73.3653 146.486 72.6293 146.486 71.808C146.486 71.008 146.63 70.2827 146.918 69.632C147.217 68.9707 147.665 68.448 148.262 68.064C148.87 67.6693 149.638 67.472 150.566 67.472C151.142 67.472 151.654 67.568 152.102 67.76C152.561 67.952 152.94 68.2347 153.238 68.608C153.537 68.9707 153.745 69.4293 153.862 69.984H152.47C152.31 69.5147 152.054 69.184 151.702 68.992C151.361 68.7893 150.956 68.688 150.486 68.688C149.846 68.688 149.334 68.8373 148.95 69.136C148.566 69.4347 148.284 69.824 148.102 70.304C147.932 70.7733 147.846 71.2747 147.846 71.808C147.846 72.3627 147.937 72.8747 148.118 73.344C148.3 73.8133 148.582 74.192 148.966 74.48C149.35 74.7573 149.846 74.896 150.454 74.896C150.902 74.896 151.324 74.8 151.718 74.608C152.124 74.416 152.39 74.0747 152.518 73.584H153.926C153.82 74.16 153.59 74.6347 153.238 75.008C152.897 75.3813 152.476 75.6587 151.974 75.84C151.484 76.0107 150.961 76.096 150.406 76.096ZM163.643 76.096C162.757 76.096 162.016 75.9147 161.419 75.552C160.821 75.1787 160.373 74.6667 160.075 74.016C159.787 73.3653 159.643 72.624 159.643 71.792C159.643 70.9493 159.787 70.208 160.075 69.568C160.373 68.9173 160.821 68.4053 161.419 68.032C162.016 67.6587 162.768 67.472 163.675 67.472C164.56 67.472 165.296 67.6587 165.883 68.032C166.48 68.4053 166.923 68.9173 167.211 69.568C167.509 70.208 167.659 70.9493 167.659 71.792C167.659 72.624 167.509 73.3653 167.211 74.016C166.912 74.6667 166.464 75.1787 165.867 75.552C165.28 75.9147 164.539 76.096 163.643 76.096ZM163.643 74.896C164.261 74.896 164.763 74.7573 165.147 74.48C165.541 74.2027 165.829 73.8293 166.011 73.36C166.203 72.8907 166.299 72.368 166.299 71.792C166.299 71.216 166.203 70.6933 166.011 70.224C165.829 69.7547 165.541 69.3813 165.147 69.104C164.763 68.8267 164.261 68.688 163.643 68.688C163.035 68.688 162.533 68.8267 162.139 69.104C161.755 69.3813 161.467 69.7547 161.275 70.224C161.093 70.6933 161.003 71.216 161.003 71.792C161.003 72.368 161.093 72.8907 161.275 73.36C161.467 73.8293 161.755 74.2027 162.139 74.48C162.533 74.7573 163.035 74.896 163.643 74.896ZM169.478 76V67.568H176.47V76H175.11V68.768H170.838V76H169.478ZM178.619 76V67.568H179.979V74.032C180.054 73.8827 180.155 73.7227 180.283 73.552C180.411 73.3707 180.512 73.232 180.587 73.136L184.667 67.568H186.011V76H184.651V69.536C184.566 69.696 184.47 69.8453 184.363 69.984C184.267 70.1227 184.176 70.2507 184.091 70.368L179.947 76H178.619ZM191.75 76.096C190.865 76.096 190.129 75.9147 189.542 75.552C188.966 75.1787 188.534 74.6667 188.246 74.016C187.969 73.3653 187.83 72.6293 187.83 71.808C187.83 71.008 187.974 70.2827 188.262 69.632C188.561 68.9707 189.009 68.448 189.606 68.064C190.214 67.6693 190.982 67.472 191.91 67.472C192.486 67.472 192.998 67.568 193.446 67.76C193.905 67.952 194.283 68.2347 194.582 68.608C194.881 68.9707 195.089 69.4293 195.206 69.984H193.814C193.654 69.5147 193.398 69.184 193.046 68.992C192.705 68.7893 192.299 68.688 191.83 68.688C191.19 68.688 190.678 68.8373 190.294 69.136C189.91 69.4347 189.627 69.824 189.446 70.304C189.275 70.7733 189.19 71.2747 189.19 71.808C189.19 72.3627 189.281 72.8747 189.462 73.344C189.643 73.8133 189.926 74.192 190.31 74.48C190.694 74.7573 191.19 74.896 191.798 74.896C192.246 74.896 192.667 74.8 193.062 74.608C193.467 74.416 193.734 74.0747 193.862 73.584H195.27C195.163 74.16 194.934 74.6347 194.582 75.008C194.241 75.3813 193.819 75.6587 193.318 75.84C192.827 76.0107 192.305 76.096 191.75 76.096ZM199.698 76.096C199.314 76.096 198.941 76.048 198.578 75.952C198.226 75.8453 197.906 75.6907 197.618 75.488C197.341 75.2747 197.117 75.0133 196.946 74.704C196.786 74.384 196.706 74.016 196.706 73.6C196.706 73.12 196.791 72.7147 196.962 72.384C197.143 72.0533 197.383 71.792 197.682 71.6C197.981 71.408 198.327 71.2693 198.722 71.184C199.117 71.0987 199.527 71.056 199.954 71.056H202.434C202.434 70.576 202.365 70.16 202.226 69.808C202.098 69.456 201.885 69.184 201.586 68.992C201.287 68.7893 200.893 68.688 200.402 68.688C200.103 68.688 199.826 68.72 199.57 68.784C199.314 68.848 199.095 68.9493 198.914 69.088C198.733 69.2267 198.599 69.4133 198.514 69.648H197.058C197.133 69.264 197.277 68.9387 197.49 68.672C197.714 68.3947 197.981 68.1707 198.29 68C198.61 67.8187 198.951 67.6853 199.314 67.6C199.677 67.5147 200.039 67.472 200.402 67.472C201.213 67.472 201.863 67.6373 202.354 67.968C202.845 68.288 203.202 68.7467 203.426 69.344C203.65 69.9307 203.762 70.6293 203.762 71.44V76H202.626L202.546 74.928C202.311 75.248 202.029 75.4933 201.698 75.664C201.367 75.8347 201.026 75.9467 200.674 76C200.333 76.064 200.007 76.096 199.698 76.096ZM199.826 74.896C200.359 74.896 200.818 74.8107 201.202 74.64C201.597 74.4587 201.901 74.1973 202.114 73.856C202.327 73.5147 202.434 73.0987 202.434 72.608V72.192H200.946C200.594 72.192 200.247 72.1973 199.906 72.208C199.565 72.2187 199.255 72.2613 198.978 72.336C198.701 72.4107 198.477 72.5387 198.306 72.72C198.146 72.9013 198.066 73.1627 198.066 73.504C198.066 73.824 198.146 74.0853 198.306 74.288C198.477 74.4907 198.695 74.6453 198.962 74.752C199.239 74.848 199.527 74.896 199.826 74.896ZM205.869 76V67.568H207.229V71.264H211.453V67.568H212.813V76H211.453V72.464H207.229V76H205.869ZM214.963 76V67.568H216.323V74.032C216.397 73.8827 216.499 73.7227 216.627 73.552C216.755 73.3707 216.856 73.232 216.931 73.136L221.011 67.568H222.355V76H220.995V69.536C220.909 69.696 220.813 69.8453 220.707 69.984C220.611 70.1227 220.52 70.2507 220.435 70.368L216.291 76H214.963ZM223.966 76L226.158 72.672C225.55 72.5013 225.07 72.224 224.718 71.84C224.366 71.4453 224.19 70.9227 224.19 70.272C224.19 69.76 224.265 69.3333 224.414 68.992C224.563 68.64 224.782 68.3627 225.07 68.16C225.358 67.9467 225.705 67.7973 226.11 67.712C226.515 67.616 226.979 67.568 227.502 67.568H230.894V76H229.534V72.88H227.598L225.55 76H223.966ZM228.526 71.696H229.534V68.768H227.726C227.406 68.768 227.113 68.784 226.846 68.816C226.579 68.848 226.35 68.9173 226.158 69.024C225.977 69.12 225.833 69.264 225.726 69.456C225.619 69.6373 225.566 69.888 225.566 70.208C225.566 70.56 225.651 70.8373 225.822 71.04C226.003 71.2427 226.233 71.392 226.51 71.488C226.798 71.5733 227.118 71.632 227.47 71.664C227.822 71.6853 228.174 71.696 228.526 71.696ZM233.041 76V67.568H234.865L237.601 71.792L240.289 67.568H242.081V76H240.737V69.072L237.761 73.84H237.377L234.385 69.072V76H233.041ZM244.228 76V67.568H245.588V74.032C245.663 73.8827 245.764 73.7227 245.892 73.552C246.02 73.3707 246.122 73.232 246.196 73.136L250.276 67.568H251.62V76H250.26V69.536C250.175 69.696 250.079 69.8453 249.972 69.984C249.876 70.1227 249.786 70.2507 249.7 70.368L245.556 76H244.228ZM262.088 78.88V76.096C261.437 76.0747 260.84 75.9787 260.296 75.808C259.763 75.6267 259.299 75.3653 258.904 75.024C258.52 74.672 258.221 74.2347 258.008 73.712C257.795 73.1893 257.688 72.5707 257.688 71.856C257.688 70.896 257.864 70.096 258.216 69.456C258.568 68.816 259.069 68.3307 259.72 68C260.381 67.6693 261.171 67.4987 262.088 67.488V64.896H263.448V67.488C264.365 67.4987 265.155 67.6747 265.816 68.016C266.477 68.3467 266.984 68.832 267.336 69.472C267.688 70.112 267.864 70.9067 267.864 71.856C267.864 72.8053 267.677 73.5893 267.304 74.208C266.931 74.8267 266.413 75.2907 265.752 75.6C265.091 75.8987 264.323 76.064 263.448 76.096V78.88H262.088ZM262.088 74.96V68.656C261.085 68.656 260.328 68.9227 259.816 69.456C259.304 69.9893 259.048 70.7733 259.048 71.808C259.048 72.4907 259.16 73.0667 259.384 73.536C259.608 74.0053 259.944 74.3573 260.392 74.592C260.84 74.8267 261.405 74.9493 262.088 74.96ZM263.448 74.96C264.141 74.9493 264.712 74.8267 265.16 74.592C265.608 74.3573 265.944 74.0053 266.168 73.536C266.392 73.0667 266.504 72.4907 266.504 71.808C266.504 70.7733 266.243 69.9893 265.72 69.456C265.208 68.9227 264.451 68.656 263.448 68.656V74.96ZM269.891 79.616V78.32C270.414 78.32 270.83 78.2453 271.139 78.096C271.448 77.9573 271.704 77.7333 271.907 77.424C272.12 77.1253 272.323 76.7413 272.515 76.272L268.819 67.568H270.419L273.267 74.672L275.603 67.568H277.139L274.771 74.208C274.654 74.5493 274.52 74.9333 274.371 75.36C274.222 75.7867 274.056 76.2187 273.875 76.656C273.694 77.104 273.491 77.5147 273.267 77.888C273.054 78.272 272.814 78.5813 272.547 78.816C272.323 79.0187 272.104 79.1787 271.891 79.296C271.678 79.4133 271.416 79.4933 271.107 79.536C270.808 79.5893 270.403 79.616 269.891 79.616ZM278.4 76V67.568H279.76V71.264H283.984V67.568H285.344V76H283.984V72.464H279.76V76H278.4ZM287.494 76V67.568H288.854V71.2H290.326L292.822 67.568H294.374L291.558 71.584L294.614 76H293.014L290.486 72.384H288.854V76H287.494ZM302.383 78.592V76H295.791V67.568H297.151V74.816H301.231V67.568H302.607V74.816H303.711V78.592H302.383ZM305.135 76V67.568H306.495V74.032C306.569 73.8827 306.671 73.7227 306.799 73.552C306.927 73.3707 307.028 73.232 307.103 73.136L311.183 67.568H312.527V76H311.167V69.536C311.081 69.696 310.985 69.8453 310.879 69.984C310.783 70.1227 310.692 70.2507 310.607 70.368L306.463 76H305.135ZM314.666 76V67.568H316.026V74.032C316.1 73.8827 316.202 73.7227 316.33 73.552C316.458 73.3707 316.559 73.232 316.634 73.136L320.714 67.568H322.058V76H320.698V69.536C320.612 69.696 320.516 69.8453 320.41 69.984C320.314 70.1227 320.223 70.2507 320.138 70.368L315.994 76H314.666ZM318.474 66.384C317.631 66.384 316.97 66.2027 316.49 65.84C316.02 65.4773 315.775 64.9493 315.754 64.256H317.002C317.023 64.6293 317.162 64.9013 317.418 65.072C317.684 65.2427 318.042 65.328 318.49 65.328C318.938 65.328 319.29 65.2427 319.546 65.072C319.812 64.9013 319.956 64.6293 319.978 64.256H321.226C321.215 64.7147 321.098 65.104 320.874 65.424C320.65 65.744 320.335 65.984 319.93 66.144C319.524 66.304 319.039 66.384 318.474 66.384ZM106.072 96V87.568H107.432V91.2H108.904L111.4 87.568H112.952L110.136 91.584L113.192 96H111.592L109.064 92.384H107.432V96H106.072ZM114.369 96V87.568H115.729V91.264H119.953V87.568H121.313V96H119.953V92.464H115.729V96H114.369ZM127.143 96.096C126.257 96.096 125.516 95.9147 124.919 95.552C124.321 95.1787 123.873 94.6667 123.575 94.016C123.287 93.3653 123.143 92.624 123.143 91.792C123.143 90.9493 123.287 90.208 123.575 89.568C123.873 88.9173 124.321 88.4053 124.919 88.032C125.516 87.6587 126.268 87.472 127.175 87.472C128.06 87.472 128.796 87.6587 129.383 88.032C129.98 88.4053 130.423 88.9173 130.711 89.568C131.009 90.208 131.159 90.9493 131.159 91.792C131.159 92.624 131.009 93.3653 130.711 94.016C130.412 94.6667 129.964 95.1787 129.367 95.552C128.78 95.9147 128.039 96.096 127.143 96.096ZM127.143 94.896C127.761 94.896 128.263 94.7573 128.647 94.48C129.041 94.2027 129.329 93.8293 129.511 93.36C129.703 92.8907 129.799 92.368 129.799 91.792C129.799 91.216 129.703 90.6933 129.511 90.224C129.329 89.7547 129.041 89.3813 128.647 89.104C128.263 88.8267 127.761 88.688 127.143 88.688C126.535 88.688 126.033 88.8267 125.639 89.104C125.255 89.3813 124.967 89.7547 124.775 90.224C124.593 90.6933 124.503 91.216 124.503 91.792C124.503 92.368 124.593 92.8907 124.775 93.36C124.967 93.8293 125.255 94.2027 125.639 94.48C126.033 94.7573 126.535 94.896 127.143 94.896ZM132.978 96V87.568H139.97V96H138.61V88.768H134.338V96H132.978ZM145.799 96.096C144.914 96.096 144.172 95.9147 143.575 95.552C142.978 95.1787 142.53 94.6667 142.231 94.016C141.943 93.3653 141.799 92.624 141.799 91.792C141.799 90.9493 141.943 90.208 142.231 89.568C142.53 88.9173 142.978 88.4053 143.575 88.032C144.172 87.6587 144.924 87.472 145.831 87.472C146.716 87.472 147.452 87.6587 148.039 88.032C148.636 88.4053 149.079 88.9173 149.367 89.568C149.666 90.208 149.815 90.9493 149.815 91.792C149.815 92.624 149.666 93.3653 149.367 94.016C149.068 94.6667 148.62 95.1787 148.023 95.552C147.436 95.9147 146.695 96.096 145.799 96.096ZM145.799 94.896C146.418 94.896 146.919 94.7573 147.303 94.48C147.698 94.2027 147.986 93.8293 148.167 93.36C148.359 92.8907 148.455 92.368 148.455 91.792C148.455 91.216 148.359 90.6933 148.167 90.224C147.986 89.7547 147.698 89.3813 147.303 89.104C146.919 88.8267 146.418 88.688 145.799 88.688C145.191 88.688 144.69 88.8267 144.295 89.104C143.911 89.3813 143.623 89.7547 143.431 90.224C143.25 90.6933 143.159 91.216 143.159 91.792C143.159 92.368 143.25 92.8907 143.431 93.36C143.623 93.8293 143.911 94.2027 144.295 94.48C144.69 94.7573 145.191 94.896 145.799 94.896ZM151.635 96V87.568H152.995V91.2H154.467L156.963 87.568H158.515L155.699 91.584L158.755 96H157.155L154.627 92.384H152.995V96H151.635ZM164.244 96V87.568H165.604V94.032C165.679 93.8827 165.78 93.7227 165.908 93.552C166.036 93.3707 166.137 93.232 166.212 93.136L170.292 87.568H171.636V96H170.276V89.536C170.191 89.696 170.095 89.8453 169.988 89.984C169.892 90.1227 169.801 90.2507 169.716 90.368L165.572 96H164.244ZM178.088 96V87.568H181.352C181.725 87.568 182.093 87.5947 182.456 87.648C182.829 87.6907 183.165 87.7867 183.464 87.936C183.773 88.0747 184.018 88.2827 184.2 88.56C184.392 88.8373 184.488 89.2053 184.488 89.664C184.488 89.9413 184.445 90.1973 184.36 90.432C184.274 90.656 184.146 90.8533 183.976 91.024C183.816 91.1947 183.608 91.344 183.352 91.472C183.928 91.6 184.344 91.8507 184.6 92.224C184.856 92.5973 184.984 93.024 184.984 93.504C184.984 93.9307 184.904 94.304 184.744 94.624C184.594 94.9333 184.381 95.1893 184.104 95.392C183.837 95.5947 183.522 95.7493 183.16 95.856C182.808 95.952 182.429 96 182.024 96H178.088ZM179.48 94.816H181.704C182.034 94.816 182.344 94.784 182.632 94.72C182.92 94.656 183.154 94.5387 183.336 94.368C183.517 94.1867 183.608 93.9307 183.608 93.6C183.608 93.2587 183.528 93.0027 183.368 92.832C183.218 92.6507 183.021 92.528 182.776 92.464C182.541 92.3893 182.285 92.3467 182.008 92.336C181.73 92.3253 181.469 92.32 181.224 92.32H179.48V94.816ZM179.48 91.168H180.648C180.861 91.168 181.106 91.1573 181.384 91.136C181.672 91.1147 181.949 91.0667 182.216 90.992C182.493 90.9067 182.717 90.7787 182.888 90.608C183.069 90.4373 183.16 90.2027 183.16 89.904C183.16 89.5093 183.048 89.2373 182.824 89.088C182.61 88.928 182.354 88.8373 182.056 88.816C181.757 88.784 181.48 88.768 181.224 88.768H179.48V91.168ZM189.894 96.096C189.488 96.096 189.083 96.0587 188.678 95.984C188.272 95.9093 187.894 95.7867 187.542 95.616C187.2 95.4347 186.923 95.1947 186.71 94.896C186.496 94.5867 186.379 94.2027 186.358 93.744H187.686C187.739 94.032 187.894 94.2613 188.15 94.432C188.406 94.6027 188.694 94.7253 189.014 94.8C189.344 94.864 189.638 94.896 189.894 94.896C190.192 94.896 190.496 94.864 190.806 94.8C191.126 94.736 191.392 94.608 191.606 94.416C191.83 94.224 191.942 93.9413 191.942 93.568C191.942 93.2053 191.851 92.9387 191.67 92.768C191.499 92.5973 191.27 92.4853 190.982 92.432C190.704 92.3787 190.4 92.352 190.07 92.352H188.566V91.152H189.798C190 91.152 190.208 91.136 190.422 91.104C190.635 91.0613 190.832 90.9973 191.014 90.912C191.195 90.816 191.339 90.6827 191.446 90.512C191.563 90.3413 191.622 90.1227 191.622 89.856C191.622 89.5573 191.536 89.3227 191.366 89.152C191.195 88.9813 190.976 88.864 190.71 88.8C190.443 88.7253 190.171 88.688 189.894 88.688C189.638 88.688 189.366 88.7147 189.078 88.768C188.8 88.8213 188.56 88.928 188.358 89.088C188.155 89.2373 188.032 89.4613 187.99 89.76H186.646C186.667 89.184 186.843 88.7307 187.174 88.4C187.504 88.0693 187.915 87.8347 188.406 87.696C188.896 87.5467 189.387 87.472 189.878 87.472C190.251 87.472 190.619 87.5093 190.982 87.584C191.344 87.6587 191.675 87.7867 191.974 87.968C192.272 88.1387 192.507 88.368 192.678 88.656C192.859 88.944 192.95 89.3013 192.95 89.728C192.95 90.112 192.859 90.4533 192.678 90.752C192.496 91.0507 192.219 91.2907 191.846 91.472C192.39 91.6427 192.768 91.9093 192.982 92.272C193.195 92.6347 193.302 93.0667 193.302 93.568C193.302 94.016 193.206 94.4 193.014 94.72C192.822 95.0293 192.56 95.2907 192.23 95.504C191.91 95.7067 191.547 95.856 191.142 95.952C190.736 96.048 190.32 96.096 189.894 96.096ZM197.76 96.096C197.376 96.096 197.003 96.048 196.64 95.952C196.288 95.8453 195.968 95.6907 195.68 95.488C195.403 95.2747 195.179 95.0133 195.008 94.704C194.848 94.384 194.768 94.016 194.768 93.6C194.768 93.12 194.854 92.7147 195.024 92.384C195.206 92.0533 195.446 91.792 195.744 91.6C196.043 91.408 196.39 91.2693 196.784 91.184C197.179 91.0987 197.59 91.056 198.016 91.056H200.496C200.496 90.576 200.427 90.16 200.288 89.808C200.16 89.456 199.947 89.184 199.648 88.992C199.35 88.7893 198.955 88.688 198.464 88.688C198.166 88.688 197.888 88.72 197.632 88.784C197.376 88.848 197.158 88.9493 196.976 89.088C196.795 89.2267 196.662 89.4133 196.576 89.648H195.12C195.195 89.264 195.339 88.9387 195.552 88.672C195.776 88.3947 196.043 88.1707 196.352 88C196.672 87.8187 197.014 87.6853 197.376 87.6C197.739 87.5147 198.102 87.472 198.464 87.472C199.275 87.472 199.926 87.6373 200.416 87.968C200.907 88.288 201.264 88.7467 201.488 89.344C201.712 89.9307 201.824 90.6293 201.824 91.44V96H200.688L200.608 94.928C200.374 95.248 200.091 95.4933 199.76 95.664C199.43 95.8347 199.088 95.9467 198.736 96C198.395 96.064 198.07 96.096 197.76 96.096ZM197.888 94.896C198.422 94.896 198.88 94.8107 199.264 94.64C199.659 94.4587 199.963 94.1973 200.176 93.856C200.39 93.5147 200.496 93.0987 200.496 92.608V92.192H199.008C198.656 92.192 198.31 92.1973 197.968 92.208C197.627 92.2187 197.318 92.2613 197.04 92.336C196.763 92.4107 196.539 92.5387 196.368 92.72C196.208 92.9013 196.128 93.1627 196.128 93.504C196.128 93.824 196.208 94.0853 196.368 94.288C196.539 94.4907 196.758 94.6453 197.024 94.752C197.302 94.848 197.59 94.896 197.888 94.896ZM203.931 96V87.568H205.291V94.032C205.366 93.8827 205.467 93.7227 205.595 93.552C205.723 93.3707 205.825 93.232 205.899 93.136L209.979 87.568H211.323V96H209.963V89.536C209.878 89.696 209.782 89.8453 209.675 89.984C209.579 90.1227 209.489 90.2507 209.403 90.368L205.259 96H203.931ZM213.463 96V87.568H215.287L218.023 91.792L220.711 87.568H222.503V96H221.159V89.072L218.183 93.84H217.799L214.807 89.072V96H213.463ZM228.33 96.096C227.445 96.096 226.703 95.9147 226.106 95.552C225.509 95.1787 225.061 94.6667 224.762 94.016C224.474 93.3653 224.33 92.624 224.33 91.792C224.33 90.9493 224.474 90.208 224.762 89.568C225.061 88.9173 225.509 88.4053 226.106 88.032C226.703 87.6587 227.455 87.472 228.362 87.472C229.247 87.472 229.983 87.6587 230.57 88.032C231.167 88.4053 231.61 88.9173 231.898 89.568C232.197 90.208 232.346 90.9493 232.346 91.792C232.346 92.624 232.197 93.3653 231.898 94.016C231.599 94.6667 231.151 95.1787 230.554 95.552C229.967 95.9147 229.226 96.096 228.33 96.096ZM228.33 94.896C228.949 94.896 229.45 94.7573 229.834 94.48C230.229 94.2027 230.517 93.8293 230.698 93.36C230.89 92.8907 230.986 92.368 230.986 91.792C230.986 91.216 230.89 90.6933 230.698 90.224C230.517 89.7547 230.229 89.3813 229.834 89.104C229.45 88.8267 228.949 88.688 228.33 88.688C227.722 88.688 227.221 88.8267 226.826 89.104C226.442 89.3813 226.154 89.7547 225.962 90.224C225.781 90.6933 225.69 91.216 225.69 91.792C225.69 92.368 225.781 92.8907 225.962 93.36C226.154 93.8293 226.442 94.2027 226.826 94.48C227.221 94.7573 227.722 94.896 228.33 94.896ZM233.258 98.592V94.816C233.568 94.816 233.813 94.7307 233.994 94.56C234.186 94.3893 234.336 94.1653 234.442 93.888C234.549 93.6107 234.629 93.312 234.682 92.992C234.736 92.6613 234.778 92.3467 234.81 92.048C234.864 91.5573 234.896 91.072 234.906 90.592C234.928 90.1013 234.938 89.712 234.938 89.424C234.949 89.1147 234.954 88.8053 234.954 88.496C234.954 88.1867 234.954 87.8773 234.954 87.568H240.938V94.816H242.042V98.592H240.73V96H234.57V98.592H233.258ZM235.418 94.816H239.578V88.768H236.25C236.24 89.216 236.229 89.7173 236.218 90.272C236.208 90.8267 236.186 91.344 236.154 91.824C236.144 92.1013 236.117 92.416 236.074 92.768C236.042 93.12 235.978 93.4773 235.882 93.84C235.786 94.192 235.632 94.5173 235.418 94.816ZM247.111 96.096C246.215 96.096 245.473 95.9147 244.887 95.552C244.3 95.1787 243.863 94.6667 243.575 94.016C243.287 93.3653 243.143 92.624 243.143 91.792C243.143 90.9493 243.292 90.208 243.591 89.568C243.9 88.9173 244.348 88.4053 244.935 88.032C245.521 87.6587 246.241 87.472 247.095 87.472C247.724 87.472 248.273 87.5947 248.743 87.84C249.223 88.0747 249.617 88.3947 249.927 88.8C250.247 89.2053 250.476 89.6587 250.615 90.16C250.764 90.6613 250.828 91.1787 250.807 91.712C250.796 91.808 250.791 91.904 250.791 92C250.791 92.096 250.785 92.192 250.775 92.288H244.519C244.561 92.7787 244.684 93.2213 244.887 93.616C245.089 94.0107 245.377 94.3253 245.751 94.56C246.124 94.784 246.588 94.896 247.143 94.896C247.42 94.896 247.697 94.864 247.975 94.8C248.263 94.7253 248.519 94.6027 248.743 94.432C248.977 94.2613 249.143 94.032 249.239 93.744H250.631C250.503 94.288 250.263 94.736 249.911 95.088C249.559 95.4293 249.137 95.6853 248.647 95.856C248.156 96.016 247.644 96.096 247.111 96.096ZM244.551 91.104H249.431C249.42 90.624 249.313 90.2027 249.111 89.84C248.908 89.4773 248.631 89.1947 248.279 88.992C247.937 88.7893 247.527 88.688 247.047 88.688C246.524 88.688 246.081 88.8 245.719 89.024C245.367 89.248 245.095 89.5413 244.903 89.904C244.711 90.2667 244.593 90.6667 244.551 91.104ZM252.635 96V87.568H253.995V94.032C254.069 93.8827 254.171 93.7227 254.299 93.552C254.427 93.3707 254.528 93.232 254.603 93.136L258.683 87.568H260.027V96H258.667V89.536C258.581 89.696 258.485 89.8453 258.379 89.984C258.283 90.1227 258.192 90.2507 258.107 90.368L253.963 96H252.635ZM256.443 86.384C255.6 86.384 254.939 86.2027 254.459 85.84C253.989 85.4773 253.744 84.9493 253.723 84.256H254.971C254.992 84.6293 255.131 84.9013 255.387 85.072C255.653 85.2427 256.011 85.328 256.459 85.328C256.907 85.328 257.259 85.2427 257.515 85.072C257.781 84.9013 257.925 84.6293 257.947 84.256H259.195C259.184 84.7147 259.067 85.104 258.843 85.424C258.619 85.744 258.304 85.984 257.899 86.144C257.493 86.304 257.008 86.384 256.443 86.384ZM265.766 96.096C264.88 96.096 264.144 95.9147 263.558 95.552C262.982 95.1787 262.55 94.6667 262.262 94.016C261.984 93.3653 261.846 92.6293 261.846 91.808C261.846 91.008 261.99 90.2827 262.278 89.632C262.576 88.9707 263.024 88.448 263.622 88.064C264.23 87.6693 264.998 87.472 265.926 87.472C266.502 87.472 267.014 87.568 267.462 87.76C267.92 87.952 268.299 88.2347 268.598 88.608C268.896 88.9707 269.104 89.4293 269.222 89.984H267.83C267.67 89.5147 267.414 89.184 267.062 88.992C266.72 88.7893 266.315 88.688 265.846 88.688C265.206 88.688 264.694 88.8373 264.31 89.136C263.926 89.4347 263.643 89.824 263.462 90.304C263.291 90.7733 263.206 91.2747 263.206 91.808C263.206 92.3627 263.296 92.8747 263.478 93.344C263.659 93.8133 263.942 94.192 264.326 94.48C264.71 94.7573 265.206 94.896 265.814 94.896C266.262 94.896 266.683 94.8 267.078 94.608C267.483 94.416 267.75 94.0747 267.878 93.584H269.286C269.179 94.16 268.95 94.6347 268.598 95.008C268.256 95.3813 267.835 95.6587 267.334 95.84C266.843 96.0107 266.32 96.096 265.766 96.096ZM272.978 96V88.768H270.082V87.568H277.234V88.768H274.338V96H272.978ZM278.447 96V87.568H281.711C282.084 87.568 282.452 87.5947 282.815 87.648C283.188 87.6907 283.524 87.7867 283.823 87.936C284.132 88.0747 284.378 88.2827 284.559 88.56C284.751 88.8373 284.847 89.2053 284.847 89.664C284.847 89.9413 284.804 90.1973 284.719 90.432C284.634 90.656 284.506 90.8533 284.335 91.024C284.175 91.1947 283.967 91.344 283.711 91.472C284.287 91.6 284.703 91.8507 284.959 92.224C285.215 92.5973 285.343 93.024 285.343 93.504C285.343 93.9307 285.263 94.304 285.103 94.624C284.954 94.9333 284.74 95.1893 284.463 95.392C284.196 95.5947 283.882 95.7493 283.519 95.856C283.167 95.952 282.788 96 282.383 96H278.447ZM279.839 94.816H282.063C282.394 94.816 282.703 94.784 282.991 94.72C283.279 94.656 283.514 94.5387 283.695 94.368C283.876 94.1867 283.967 93.9307 283.967 93.6C283.967 93.2587 283.887 93.0027 283.727 92.832C283.578 92.6507 283.38 92.528 283.135 92.464C282.9 92.3893 282.644 92.3467 282.367 92.336C282.09 92.3253 281.828 92.32 281.583 92.32H279.839V94.816ZM279.839 91.168H281.007C281.22 91.168 281.466 91.1573 281.743 91.136C282.031 91.1147 282.308 91.0667 282.575 90.992C282.852 90.9067 283.076 90.7787 283.247 90.608C283.428 90.4373 283.519 90.2027 283.519 89.904C283.519 89.5093 283.407 89.2373 283.183 89.088C282.97 88.928 282.714 88.8373 282.415 88.816C282.116 88.784 281.839 88.768 281.583 88.768H279.839V91.168ZM287.197 96V87.568H288.557V94.032C288.632 93.8827 288.733 93.7227 288.861 93.552C288.989 93.3707 289.09 93.232 289.165 93.136L293.245 87.568H294.589V96H293.229V89.536C293.144 89.696 293.048 89.8453 292.941 89.984C292.845 90.1227 292.754 90.2507 292.669 90.368L288.525 96H287.197ZM296.2 96L298.392 92.672C297.784 92.5013 297.304 92.224 296.952 91.84C296.6 91.4453 296.424 90.9227 296.424 90.272C296.424 89.76 296.499 89.3333 296.648 88.992C296.798 88.64 297.016 88.3627 297.304 88.16C297.592 87.9467 297.939 87.7973 298.344 87.712C298.75 87.616 299.214 87.568 299.736 87.568H303.128V96H301.768V92.88H299.832L297.784 96H296.2ZM300.76 91.696H301.768V88.768H299.96C299.64 88.768 299.347 88.784 299.08 88.816C298.814 88.848 298.584 88.9173 298.392 89.024C298.211 89.12 298.067 89.264 297.96 89.456C297.854 89.6373 297.8 89.888 297.8 90.208C297.8 90.56 297.886 90.8373 298.056 91.04C298.238 91.2427 298.467 91.392 298.744 91.488C299.032 91.5733 299.352 91.632 299.704 91.664C300.056 91.6853 300.408 91.696 300.76 91.696ZM109.672 116.096C108.787 116.096 108.051 115.915 107.464 115.552C106.888 115.179 106.456 114.667 106.168 114.016C105.891 113.365 105.752 112.629 105.752 111.808C105.752 111.008 105.896 110.283 106.184 109.632C106.483 108.971 106.931 108.448 107.528 108.064C108.136 107.669 108.904 107.472 109.832 107.472C110.408 107.472 110.92 107.568 111.368 107.76C111.827 107.952 112.205 108.235 112.504 108.608C112.803 108.971 113.011 109.429 113.128 109.984H111.736C111.576 109.515 111.32 109.184 110.968 108.992C110.627 108.789 110.221 108.688 109.752 108.688C109.112 108.688 108.6 108.837 108.216 109.136C107.832 109.435 107.549 109.824 107.368 110.304C107.197 110.773 107.112 111.275 107.112 111.808C107.112 112.363 107.203 112.875 107.384 113.344C107.565 113.813 107.848 114.192 108.232 114.48C108.616 114.757 109.112 114.896 109.72 114.896C110.168 114.896 110.589 114.8 110.984 114.608C111.389 114.416 111.656 114.075 111.784 113.584H113.192C113.085 114.16 112.856 114.635 112.504 115.008C112.163 115.381 111.741 115.659 111.24 115.84C110.749 116.011 110.227 116.096 109.672 116.096ZM119.228 116V107.568H126.22V116H124.86V108.768H120.588V116H119.228ZM132.049 116.096C131.164 116.096 130.422 115.915 129.825 115.552C129.228 115.179 128.78 114.667 128.481 114.016C128.193 113.365 128.049 112.624 128.049 111.792C128.049 110.949 128.193 110.208 128.481 109.568C128.78 108.917 129.228 108.405 129.825 108.032C130.422 107.659 131.174 107.472 132.081 107.472C132.966 107.472 133.702 107.659 134.289 108.032C134.886 108.405 135.329 108.917 135.617 109.568C135.916 110.208 136.065 110.949 136.065 111.792C136.065 112.624 135.916 113.365 135.617 114.016C135.318 114.667 134.87 115.179 134.273 115.552C133.686 115.915 132.945 116.096 132.049 116.096ZM132.049 114.896C132.668 114.896 133.169 114.757 133.553 114.48C133.948 114.203 134.236 113.829 134.417 113.36C134.609 112.891 134.705 112.368 134.705 111.792C134.705 111.216 134.609 110.693 134.417 110.224C134.236 109.755 133.948 109.381 133.553 109.104C133.169 108.827 132.668 108.688 132.049 108.688C131.441 108.688 130.94 108.827 130.545 109.104C130.161 109.381 129.873 109.755 129.681 110.224C129.5 110.693 129.409 111.216 129.409 111.792C129.409 112.368 129.5 112.891 129.681 113.36C129.873 113.829 130.161 114.203 130.545 114.48C130.94 114.757 131.441 114.896 132.049 114.896ZM137.885 116V107.568H139.709L142.445 111.792L145.133 107.568H146.925V116H145.581V109.072L142.605 113.84H142.221L139.229 109.072V116H137.885ZM152.72 116.096C151.824 116.096 151.083 115.915 150.496 115.552C149.909 115.179 149.472 114.667 149.184 114.016C148.896 113.365 148.752 112.624 148.752 111.792C148.752 110.949 148.901 110.208 149.2 109.568C149.509 108.917 149.957 108.405 150.544 108.032C151.131 107.659 151.851 107.472 152.704 107.472C153.333 107.472 153.883 107.595 154.352 107.84C154.832 108.075 155.227 108.395 155.536 108.8C155.856 109.205 156.085 109.659 156.224 110.16C156.373 110.661 156.437 111.179 156.416 111.712C156.405 111.808 156.4 111.904 156.4 112C156.4 112.096 156.395 112.192 156.384 112.288H150.128C150.171 112.779 150.293 113.221 150.496 113.616C150.699 114.011 150.987 114.325 151.36 114.56C151.733 114.784 152.197 114.896 152.752 114.896C153.029 114.896 153.307 114.864 153.584 114.8C153.872 114.725 154.128 114.603 154.352 114.432C154.587 114.261 154.752 114.032 154.848 113.744H156.24C156.112 114.288 155.872 114.736 155.52 115.088C155.168 115.429 154.747 115.685 154.256 115.856C153.765 116.016 153.253 116.096 152.72 116.096ZM150.16 111.104H155.04C155.029 110.624 154.923 110.203 154.72 109.84C154.517 109.477 154.24 109.195 153.888 108.992C153.547 108.789 153.136 108.688 152.656 108.688C152.133 108.688 151.691 108.8 151.328 109.024C150.976 109.248 150.704 109.541 150.512 109.904C150.32 110.267 150.203 110.667 150.16 111.104ZM168.484 118.592V116H158.244V107.568H159.604V114.816H162.772V107.568H164.132V114.816H167.332V107.568H168.692V114.816H169.796V118.592H168.484ZM174.861 116.096C173.965 116.096 173.223 115.915 172.637 115.552C172.05 115.179 171.613 114.667 171.325 114.016C171.037 113.365 170.893 112.624 170.893 111.792C170.893 110.949 171.042 110.208 171.341 109.568C171.65 108.917 172.098 108.405 172.685 108.032C173.271 107.659 173.991 107.472 174.845 107.472C175.474 107.472 176.023 107.595 176.493 107.84C176.973 108.075 177.367 108.395 177.677 108.8C177.997 109.205 178.226 109.659 178.365 110.16C178.514 110.661 178.578 111.179 178.557 111.712C178.546 111.808 178.541 111.904 178.541 112C178.541 112.096 178.535 112.192 178.525 112.288H172.269C172.311 112.779 172.434 113.221 172.637 113.616C172.839 114.011 173.127 114.325 173.501 114.56C173.874 114.784 174.338 114.896 174.893 114.896C175.17 114.896 175.447 114.864 175.725 114.8C176.013 114.725 176.269 114.603 176.493 114.432C176.727 114.261 176.893 114.032 176.989 113.744H178.381C178.253 114.288 178.013 114.736 177.661 115.088C177.309 115.429 176.887 115.685 176.397 115.856C175.906 116.016 175.394 116.096 174.861 116.096ZM172.301 111.104H177.181C177.17 110.624 177.063 110.203 176.861 109.84C176.658 109.477 176.381 109.195 176.029 108.992C175.687 108.789 175.277 108.688 174.797 108.688C174.274 108.688 173.831 108.8 173.469 109.024C173.117 109.248 172.845 109.541 172.653 109.904C172.461 110.267 172.343 110.667 172.301 111.104ZM180.385 116V107.568H181.745V111.264H185.969V107.568H187.329V116H185.969V112.464H181.745V116H180.385ZM189.478 116V107.568H190.838V114.032C190.913 113.883 191.014 113.723 191.142 113.552C191.27 113.371 191.372 113.232 191.446 113.136L195.526 107.568H196.87V116H195.51V109.536C195.425 109.696 195.329 109.845 195.222 109.984C195.126 110.123 195.036 110.251 194.95 110.368L190.806 116H189.478ZM202.658 116.096C201.762 116.096 201.02 115.915 200.434 115.552C199.847 115.179 199.41 114.667 199.122 114.016C198.834 113.365 198.69 112.624 198.69 111.792C198.69 110.949 198.839 110.208 199.138 109.568C199.447 108.917 199.895 108.405 200.482 108.032C201.068 107.659 201.788 107.472 202.641 107.472C203.271 107.472 203.82 107.595 204.29 107.84C204.77 108.075 205.164 108.395 205.474 108.8C205.794 109.205 206.023 109.659 206.161 110.16C206.311 110.661 206.375 111.179 206.354 111.712C206.343 111.808 206.338 111.904 206.338 112C206.338 112.096 206.332 112.192 206.322 112.288H200.066C200.108 112.779 200.231 113.221 200.434 113.616C200.636 114.011 200.924 114.325 201.298 114.56C201.671 114.784 202.135 114.896 202.69 114.896C202.967 114.896 203.244 114.864 203.522 114.8C203.81 114.725 204.066 114.603 204.29 114.432C204.524 114.261 204.69 114.032 204.786 113.744H206.178C206.05 114.288 205.81 114.736 205.458 115.088C205.106 115.429 204.684 115.685 204.194 115.856C203.703 116.016 203.191 116.096 202.658 116.096ZM200.098 111.104H204.978C204.967 110.624 204.86 110.203 204.658 109.84C204.455 109.477 204.178 109.195 203.826 108.992C203.484 108.789 203.074 108.688 202.594 108.688C202.071 108.688 201.628 108.8 201.266 109.024C200.914 109.248 200.642 109.541 200.45 109.904C200.258 110.267 200.14 110.667 200.098 111.104ZM208.181 116V107.568H210.005L212.741 111.792L215.429 107.568H217.221V116H215.877V109.072L212.901 113.84H212.517L209.525 109.072V116H208.181Z" fill="black"/>
</svg>
