<svg width="408" height="171" viewBox="0 0 408 171" fill="none" xmlns="http://www.w3.org/2000/svg">
<rect width="408" height="171" rx="30" fill="white"/>
<path d="M64.4453 70.1055C67.3061 70.1056 69.6914 72.1393 70.2354 74.8398H75.2803V77.1973H70.2334C69.6849 79.8919 67.3019 81.9198 64.4453 81.9199C61.5886 81.9199 59.2058 79.8919 58.6572 77.1973H30V74.8398H58.6553C59.1993 72.1393 61.5845 70.1055 64.4453 70.1055ZM40.834 55.5508C43.6948 55.5509 46.08 57.5846 46.624 60.2852H75.2803V62.6426H46.6221C46.0735 65.3373 43.6906 67.3652 40.834 67.3652C37.9773 67.3652 35.5945 65.3373 35.0459 62.6426H30V60.2852H35.0439C35.588 57.5846 37.9731 55.5508 40.834 55.5508ZM64.4453 41C67.2992 41.0002 69.681 43.024 70.2324 45.7148H75.2803V48.0723H70.2373C69.6963 50.7766 67.3088 52.8143 64.4453 52.8145C61.5817 52.8145 59.1944 50.7767 58.6533 48.0723H30V45.7148H58.6582C59.2097 43.0239 61.5913 41 64.4453 41Z" fill="#010101"/>
<path d="M111.096 56.128C109.923 56.128 108.941 55.8773 108.152 55.376C107.363 54.8747 106.765 54.1867 106.36 53.312C105.965 52.4373 105.768 51.4507 105.768 50.352C105.768 49.2427 105.965 48.2507 106.36 47.376C106.765 46.5013 107.363 45.8133 108.152 45.312C108.941 44.8107 109.923 44.56 111.096 44.56C112.269 44.56 113.245 44.8107 114.024 45.312C114.813 45.8133 115.405 46.5013 115.8 47.376C116.205 48.2507 116.408 49.2427 116.408 50.352C116.408 51.4507 116.205 52.4373 115.8 53.312C115.405 54.1867 114.813 54.8747 114.024 55.376C113.245 55.8773 112.269 56.128 111.096 56.128ZM111.096 54.864C111.992 54.864 112.728 54.6613 113.304 54.256C113.88 53.84 114.301 53.2907 114.568 52.608C114.845 51.9253 114.984 51.1733 114.984 50.352C114.984 49.7333 114.904 49.152 114.744 48.608C114.595 48.0533 114.36 47.568 114.04 47.152C113.72 46.736 113.315 46.4107 112.824 46.176C112.333 45.9413 111.757 45.824 111.096 45.824C110.211 45.824 109.475 46.032 108.888 46.448C108.312 46.864 107.88 47.4133 107.592 48.096C107.315 48.7787 107.176 49.5307 107.176 50.352C107.176 51.1627 107.315 51.9093 107.592 52.592C107.869 53.2747 108.296 53.824 108.872 54.24C109.459 54.656 110.2 54.864 111.096 54.864ZM120.368 56V48.768H117.472V47.568H124.624V48.768H121.728V56H120.368ZM125.838 56V47.568H127.198V51.2H128.67L131.166 47.568H132.718L129.902 51.584L132.958 56H131.358L128.83 52.384H127.198V56H125.838ZM134.135 59.04V47.568H135.431L135.495 48.864C135.783 48.4053 136.172 48.0587 136.663 47.824C137.164 47.5893 137.703 47.472 138.279 47.472C139.132 47.472 139.831 47.664 140.375 48.048C140.919 48.4213 141.319 48.9333 141.575 49.584C141.841 50.2347 141.975 50.9707 141.975 51.792C141.975 52.6133 141.841 53.3493 141.575 54C141.308 54.6507 140.897 55.1627 140.343 55.536C139.788 55.9093 139.079 56.096 138.215 56.096C137.788 56.096 137.404 56.0533 137.062 55.968C136.721 55.872 136.423 55.7387 136.167 55.568C135.911 55.3973 135.687 55.2053 135.495 54.992V59.04H134.135ZM138.103 54.896C138.721 54.896 139.212 54.7573 139.575 54.48C139.937 54.192 140.199 53.8133 140.359 53.344C140.529 52.8747 140.615 52.3573 140.615 51.792C140.615 51.216 140.529 50.6933 140.359 50.224C140.199 49.7547 139.932 49.3813 139.559 49.104C139.185 48.8267 138.689 48.688 138.071 48.688C137.516 48.688 137.041 48.832 136.647 49.12C136.263 49.3973 135.969 49.776 135.767 50.256C135.564 50.7253 135.463 51.2427 135.463 51.808C135.463 52.3947 135.559 52.9227 135.751 53.392C135.943 53.8613 136.236 54.2293 136.631 54.496C137.025 54.7627 137.516 54.896 138.103 54.896ZM143.728 56V47.568H145.12V50.784H146.64C147.142 50.784 147.595 50.8267 148 50.912C148.406 50.9973 148.752 51.136 149.04 51.328C149.328 51.52 149.547 51.7813 149.696 52.112C149.846 52.432 149.92 52.8373 149.92 53.328C149.92 53.7973 149.84 54.2027 149.68 54.544C149.52 54.8853 149.291 55.1627 148.992 55.376C148.704 55.5893 148.358 55.7493 147.952 55.856C147.558 55.952 147.126 56 146.656 56H143.728ZM145.12 54.816H145.568C145.942 54.816 146.304 54.8107 146.656 54.8C147.008 54.7787 147.323 54.7253 147.6 54.64C147.888 54.5547 148.118 54.416 148.288 54.224C148.459 54.0213 148.544 53.7387 148.544 53.376C148.544 53.0347 148.475 52.7733 148.336 52.592C148.208 52.4 148.038 52.2613 147.824 52.176C147.611 52.08 147.376 52.0213 147.12 52C146.875 51.9787 146.63 51.968 146.384 51.968H145.12V54.816ZM151.088 56V47.568H152.448V56H151.088ZM154.588 56V47.568H157.852C158.225 47.568 158.593 47.5947 158.956 47.648C159.329 47.6907 159.665 47.7867 159.964 47.936C160.273 48.0747 160.518 48.2827 160.7 48.56C160.892 48.8373 160.988 49.2053 160.988 49.664C160.988 49.9413 160.945 50.1973 160.86 50.432C160.774 50.656 160.646 50.8533 160.476 51.024C160.316 51.1947 160.108 51.344 159.852 51.472C160.428 51.6 160.844 51.8507 161.1 52.224C161.356 52.5973 161.484 53.024 161.484 53.504C161.484 53.9307 161.404 54.304 161.244 54.624C161.094 54.9333 160.881 55.1893 160.604 55.392C160.337 55.5947 160.022 55.7493 159.66 55.856C159.308 55.952 158.929 56 158.524 56H154.588ZM155.98 54.816H158.204C158.534 54.816 158.844 54.784 159.132 54.72C159.42 54.656 159.654 54.5387 159.836 54.368C160.017 54.1867 160.108 53.9307 160.108 53.6C160.108 53.2587 160.028 53.0027 159.868 52.832C159.718 52.6507 159.521 52.528 159.276 52.464C159.041 52.3893 158.785 52.3467 158.508 52.336C158.23 52.3253 157.969 52.32 157.724 52.32H155.98V54.816ZM155.98 51.168H157.148C157.361 51.168 157.606 51.1573 157.884 51.136C158.172 51.1147 158.449 51.0667 158.716 50.992C158.993 50.9067 159.217 50.7787 159.388 50.608C159.569 50.4373 159.66 50.2027 159.66 49.904C159.66 49.5093 159.548 49.2373 159.324 49.088C159.11 48.928 158.854 48.8373 158.556 48.816C158.257 48.784 157.98 48.768 157.724 48.768H155.98V51.168ZM166.042 56.096C165.658 56.096 165.284 56.048 164.922 55.952C164.57 55.8453 164.25 55.6907 163.962 55.488C163.684 55.2747 163.46 55.0133 163.29 54.704C163.13 54.384 163.05 54.016 163.05 53.6C163.05 53.12 163.135 52.7147 163.306 52.384C163.487 52.0533 163.727 51.792 164.026 51.6C164.324 51.408 164.671 51.2693 165.066 51.184C165.46 51.0987 165.871 51.056 166.298 51.056H168.778C168.778 50.576 168.708 50.16 168.57 49.808C168.442 49.456 168.228 49.184 167.93 48.992C167.631 48.7893 167.236 48.688 166.746 48.688C166.447 48.688 166.17 48.72 165.914 48.784C165.658 48.848 165.439 48.9493 165.258 49.088C165.076 49.2267 164.943 49.4133 164.858 49.648H163.402C163.476 49.264 163.62 48.9387 163.834 48.672C164.058 48.3947 164.324 48.1707 164.634 48C164.954 47.8187 165.295 47.6853 165.658 47.6C166.02 47.5147 166.383 47.472 166.746 47.472C167.556 47.472 168.207 47.6373 168.698 47.968C169.188 48.288 169.546 48.7467 169.77 49.344C169.994 49.9307 170.106 50.6293 170.106 51.44V56H168.97L168.89 54.928C168.655 55.248 168.372 55.4933 168.042 55.664C167.711 55.8347 167.37 55.9467 167.018 56C166.676 56.064 166.351 56.096 166.042 56.096ZM166.17 54.896C166.703 54.896 167.162 54.8107 167.546 54.64C167.94 54.4587 168.244 54.1973 168.458 53.856C168.671 53.5147 168.778 53.0987 168.778 52.608V52.192H167.29C166.938 52.192 166.591 52.1973 166.25 52.208C165.908 52.2187 165.599 52.2613 165.322 52.336C165.044 52.4107 164.82 52.5387 164.65 52.72C164.49 52.9013 164.41 53.1627 164.41 53.504C164.41 53.824 164.49 54.0853 164.65 54.288C164.82 54.4907 165.039 54.6453 165.306 54.752C165.583 54.848 165.871 54.896 166.17 54.896ZM175.861 56.096C174.965 56.096 174.223 55.9147 173.637 55.552C173.05 55.1787 172.613 54.6667 172.325 54.016C172.037 53.3653 171.893 52.624 171.893 51.792C171.893 50.9493 172.042 50.208 172.341 49.568C172.65 48.9173 173.098 48.4053 173.685 48.032C174.271 47.6587 174.991 47.472 175.845 47.472C176.474 47.472 177.023 47.5947 177.493 47.84C177.973 48.0747 178.367 48.3947 178.677 48.8C178.997 49.2053 179.226 49.6587 179.365 50.16C179.514 50.6613 179.578 51.1787 179.557 51.712C179.546 51.808 179.541 51.904 179.541 52C179.541 52.096 179.535 52.192 179.525 52.288H173.269C173.311 52.7787 173.434 53.2213 173.637 53.616C173.839 54.0107 174.127 54.3253 174.501 54.56C174.874 54.784 175.338 54.896 175.893 54.896C176.17 54.896 176.447 54.864 176.725 54.8C177.013 54.7253 177.269 54.6027 177.493 54.432C177.727 54.2613 177.893 54.032 177.989 53.744H179.381C179.253 54.288 179.013 54.736 178.661 55.088C178.309 55.4293 177.887 55.6853 177.397 55.856C176.906 56.016 176.394 56.096 175.861 56.096ZM173.301 51.104H178.181C178.17 50.624 178.063 50.2027 177.861 49.84C177.658 49.4773 177.381 49.1947 177.029 48.992C176.687 48.7893 176.277 48.688 175.797 48.688C175.274 48.688 174.831 48.8 174.469 49.024C174.117 49.248 173.845 49.5413 173.653 49.904C173.461 50.2667 173.343 50.6667 173.301 51.104ZM183.353 56V48.768H180.457V47.568H187.609V48.768H184.713V56H183.353ZM196.815 56.096C195.929 56.096 195.188 55.9147 194.591 55.552C193.993 55.1787 193.545 54.6667 193.247 54.016C192.959 53.3653 192.815 52.624 192.815 51.792C192.815 50.9493 192.959 50.208 193.247 49.568C193.545 48.9173 193.993 48.4053 194.591 48.032C195.188 47.6587 195.94 47.472 196.847 47.472C197.732 47.472 198.468 47.6587 199.055 48.032C199.652 48.4053 200.095 48.9173 200.383 49.568C200.681 50.208 200.831 50.9493 200.831 51.792C200.831 52.624 200.681 53.3653 200.383 54.016C200.084 54.6667 199.636 55.1787 199.039 55.552C198.452 55.9147 197.711 56.096 196.815 56.096ZM196.815 54.896C197.433 54.896 197.935 54.7573 198.319 54.48C198.713 54.2027 199.001 53.8293 199.183 53.36C199.375 52.8907 199.471 52.368 199.471 51.792C199.471 51.216 199.375 50.6933 199.183 50.224C199.001 49.7547 198.713 49.3813 198.319 49.104C197.935 48.8267 197.433 48.688 196.815 48.688C196.207 48.688 195.705 48.8267 195.311 49.104C194.927 49.3813 194.639 49.7547 194.447 50.224C194.265 50.6933 194.174 51.216 194.174 51.792C194.174 52.368 194.265 52.8907 194.447 53.36C194.639 53.8293 194.927 54.2027 195.311 54.48C195.705 54.7573 196.207 54.896 196.815 54.896ZM202.65 56V47.568H204.01V51.2H205.482L207.978 47.568H209.53L206.714 51.584L209.77 56H208.17L205.642 52.384H204.01V56H202.65ZM210.947 56V47.568H212.307V51.264H216.531V47.568H217.891V56H216.531V52.464H212.307V56H210.947ZM223.721 56.096C222.835 56.096 222.094 55.9147 221.497 55.552C220.899 55.1787 220.451 54.6667 220.153 54.016C219.865 53.3653 219.721 52.624 219.721 51.792C219.721 50.9493 219.865 50.208 220.153 49.568C220.451 48.9173 220.899 48.4053 221.497 48.032C222.094 47.6587 222.846 47.472 223.753 47.472C224.638 47.472 225.374 47.6587 225.961 48.032C226.558 48.4053 227.001 48.9173 227.289 49.568C227.587 50.208 227.737 50.9493 227.737 51.792C227.737 52.624 227.587 53.3653 227.289 54.016C226.99 54.6667 226.542 55.1787 225.945 55.552C225.358 55.9147 224.617 56.096 223.721 56.096ZM223.721 54.896C224.339 54.896 224.841 54.7573 225.225 54.48C225.619 54.2027 225.907 53.8293 226.089 53.36C226.281 52.8907 226.377 52.368 226.377 51.792C226.377 51.216 226.281 50.6933 226.089 50.224C225.907 49.7547 225.619 49.3813 225.225 49.104C224.841 48.8267 224.339 48.688 223.721 48.688C223.113 48.688 222.611 48.8267 222.217 49.104C221.833 49.3813 221.545 49.7547 221.353 50.224C221.171 50.6933 221.081 51.216 221.081 51.792C221.081 52.368 221.171 52.8907 221.353 53.36C221.545 53.8293 221.833 54.2027 222.217 54.48C222.611 54.7573 223.113 54.896 223.721 54.896ZM237.469 56.096C236.584 56.096 235.848 55.9147 235.261 55.552C234.685 55.1787 234.253 54.6667 233.965 54.016C233.688 53.3653 233.549 52.6293 233.549 51.808C233.549 51.008 233.693 50.2827 233.981 49.632C234.28 48.9707 234.728 48.448 235.325 48.064C235.933 47.6693 236.701 47.472 237.629 47.472C238.205 47.472 238.717 47.568 239.165 47.76C239.624 47.952 240.002 48.2347 240.301 48.608C240.6 48.9707 240.808 49.4293 240.925 49.984H239.533C239.373 49.5147 239.117 49.184 238.765 48.992C238.424 48.7893 238.018 48.688 237.549 48.688C236.909 48.688 236.397 48.8373 236.013 49.136C235.629 49.4347 235.346 49.824 235.165 50.304C234.994 50.7733 234.909 51.2747 234.909 51.808C234.909 52.3627 235 52.8747 235.181 53.344C235.362 53.8133 235.645 54.192 236.029 54.48C236.413 54.7573 236.909 54.896 237.517 54.896C237.965 54.896 238.386 54.8 238.781 54.608C239.186 54.416 239.453 54.0747 239.581 53.584H240.989C240.882 54.16 240.653 54.6347 240.301 55.008C239.96 55.3813 239.538 55.6587 239.037 55.84C238.546 56.0107 238.024 56.096 237.469 56.096ZM247.025 56V47.568H248.385V51.264H252.609V47.568H253.969V56H252.609V52.464H248.385V56H247.025ZM258.823 56.096C258.439 56.096 258.066 56.048 257.703 55.952C257.351 55.8453 257.031 55.6907 256.743 55.488C256.466 55.2747 256.242 55.0133 256.071 54.704C255.911 54.384 255.831 54.016 255.831 53.6C255.831 53.12 255.916 52.7147 256.087 52.384C256.268 52.0533 256.508 51.792 256.807 51.6C257.106 51.408 257.452 51.2693 257.847 51.184C258.242 51.0987 258.652 51.056 259.079 51.056H261.559C261.559 50.576 261.49 50.16 261.351 49.808C261.223 49.456 261.01 49.184 260.711 48.992C260.412 48.7893 260.018 48.688 259.527 48.688C259.228 48.688 258.951 48.72 258.695 48.784C258.439 48.848 258.22 48.9493 258.039 49.088C257.858 49.2267 257.724 49.4133 257.639 49.648H256.183C256.258 49.264 256.402 48.9387 256.615 48.672C256.839 48.3947 257.106 48.1707 257.415 48C257.735 47.8187 258.076 47.6853 258.439 47.6C258.802 47.5147 259.164 47.472 259.527 47.472C260.338 47.472 260.988 47.6373 261.479 47.968C261.97 48.288 262.327 48.7467 262.551 49.344C262.775 49.9307 262.887 50.6293 262.887 51.44V56H261.751L261.671 54.928C261.436 55.248 261.154 55.4933 260.823 55.664C260.492 55.8347 260.151 55.9467 259.799 56C259.458 56.064 259.132 56.096 258.823 56.096ZM258.951 54.896C259.484 54.896 259.943 54.8107 260.327 54.64C260.722 54.4587 261.026 54.1973 261.239 53.856C261.452 53.5147 261.559 53.0987 261.559 52.608V52.192H260.071C259.719 52.192 259.372 52.1973 259.031 52.208C258.69 52.2187 258.38 52.2613 258.103 52.336C257.826 52.4107 257.602 52.5387 257.431 52.72C257.271 52.9013 257.191 53.1627 257.191 53.504C257.191 53.824 257.271 54.0853 257.431 54.288C257.602 54.4907 257.82 54.6453 258.087 54.752C258.364 54.848 258.652 54.896 258.951 54.896ZM268.594 56.096C267.709 56.096 266.973 55.9147 266.386 55.552C265.81 55.1787 265.378 54.6667 265.09 54.016C264.813 53.3653 264.674 52.6293 264.674 51.808C264.674 51.008 264.818 50.2827 265.106 49.632C265.405 48.9707 265.853 48.448 266.45 48.064C267.058 47.6693 267.826 47.472 268.754 47.472C269.33 47.472 269.842 47.568 270.29 47.76C270.749 47.952 271.127 48.2347 271.426 48.608C271.725 48.9707 271.933 49.4293 272.05 49.984H270.658C270.498 49.5147 270.242 49.184 269.89 48.992C269.549 48.7893 269.143 48.688 268.674 48.688C268.034 48.688 267.522 48.8373 267.138 49.136C266.754 49.4347 266.471 49.824 266.29 50.304C266.119 50.7733 266.034 51.2747 266.034 51.808C266.034 52.3627 266.125 52.8747 266.306 53.344C266.487 53.8133 266.77 54.192 267.154 54.48C267.538 54.7573 268.034 54.896 268.642 54.896C269.09 54.896 269.511 54.8 269.906 54.608C270.311 54.416 270.578 54.0747 270.706 53.584H272.114C272.007 54.16 271.778 54.6347 271.426 55.008C271.085 55.3813 270.663 55.6587 270.162 55.84C269.671 56.0107 269.149 56.096 268.594 56.096ZM275.806 56V48.768H272.91V47.568H280.062V48.768H277.166V56H275.806ZM281.275 59.04V47.568H282.571L282.635 48.864C282.923 48.4053 283.312 48.0587 283.803 47.824C284.304 47.5893 284.843 47.472 285.419 47.472C286.272 47.472 286.971 47.664 287.515 48.048C288.059 48.4213 288.459 48.9333 288.715 49.584C288.982 50.2347 289.115 50.9707 289.115 51.792C289.115 52.6133 288.982 53.3493 288.715 54C288.448 54.6507 288.038 55.1627 287.483 55.536C286.928 55.9093 286.219 56.096 285.355 56.096C284.928 56.096 284.544 56.0533 284.203 55.968C283.862 55.872 283.563 55.7387 283.307 55.568C283.051 55.3973 282.827 55.2053 282.635 54.992V59.04H281.275ZM285.243 54.896C285.862 54.896 286.352 54.7573 286.715 54.48C287.078 54.192 287.339 53.8133 287.499 53.344C287.67 52.8747 287.755 52.3573 287.755 51.792C287.755 51.216 287.67 50.6933 287.499 50.224C287.339 49.7547 287.072 49.3813 286.699 49.104C286.326 48.8267 285.83 48.688 285.211 48.688C284.656 48.688 284.182 48.832 283.787 49.12C283.403 49.3973 283.11 49.776 282.907 50.256C282.704 50.7253 282.603 51.2427 282.603 51.808C282.603 52.3947 282.699 52.9227 282.891 53.392C283.083 53.8613 283.376 54.2293 283.771 54.496C284.166 54.7627 284.656 54.896 285.243 54.896ZM294.549 56.096C293.664 56.096 292.922 55.9147 292.325 55.552C291.728 55.1787 291.28 54.6667 290.981 54.016C290.693 53.3653 290.549 52.624 290.549 51.792C290.549 50.9493 290.693 50.208 290.981 49.568C291.28 48.9173 291.728 48.4053 292.325 48.032C292.922 47.6587 293.674 47.472 294.581 47.472C295.466 47.472 296.202 47.6587 296.789 48.032C297.386 48.4053 297.829 48.9173 298.117 49.568C298.416 50.208 298.565 50.9493 298.565 51.792C298.565 52.624 298.416 53.3653 298.117 54.016C297.818 54.6667 297.37 55.1787 296.773 55.552C296.186 55.9147 295.445 56.096 294.549 56.096ZM294.549 54.896C295.168 54.896 295.669 54.7573 296.053 54.48C296.448 54.2027 296.736 53.8293 296.917 53.36C297.109 52.8907 297.205 52.368 297.205 51.792C297.205 51.216 297.109 50.6933 296.917 50.224C296.736 49.7547 296.448 49.3813 296.053 49.104C295.669 48.8267 295.168 48.688 294.549 48.688C293.941 48.688 293.44 48.8267 293.045 49.104C292.661 49.3813 292.373 49.7547 292.181 50.224C292 50.6933 291.909 51.216 291.909 51.792C291.909 52.368 292 52.8907 292.181 53.36C292.373 53.8293 292.661 54.2027 293.045 54.48C293.44 54.7573 293.941 54.896 294.549 54.896ZM300.385 56V47.568H301.745V54.032C301.819 53.8827 301.921 53.7227 302.049 53.552C302.177 53.3707 302.278 53.232 302.353 53.136L306.433 47.568H307.777V56H306.417V49.536C306.331 49.696 306.235 49.8453 306.129 49.984C306.033 50.1227 305.942 50.2507 305.857 50.368L301.713 56H300.385ZM304.193 46.384C303.35 46.384 302.689 46.2027 302.209 45.84C301.739 45.4773 301.494 44.9493 301.473 44.256H302.721C302.742 44.6293 302.881 44.9013 303.137 45.072C303.403 45.2427 303.761 45.328 304.209 45.328C304.657 45.328 305.009 45.2427 305.265 45.072C305.531 44.9013 305.675 44.6293 305.697 44.256H306.945C306.934 44.7147 306.817 45.104 306.593 45.424C306.369 45.744 306.054 45.984 305.649 46.144C305.243 46.304 304.758 46.384 304.193 46.384ZM309.916 56V47.568H311.276V51.2H312.748L315.244 47.568H316.796L313.98 51.584L317.036 56H315.436L312.908 52.384H311.276V56H309.916ZM320.76 56.096C320.376 56.096 320.003 56.048 319.64 55.952C319.288 55.8453 318.968 55.6907 318.68 55.488C318.403 55.2747 318.179 55.0133 318.008 54.704C317.848 54.384 317.768 54.016 317.768 53.6C317.768 53.12 317.854 52.7147 318.024 52.384C318.206 52.0533 318.446 51.792 318.744 51.6C319.043 51.408 319.39 51.2693 319.784 51.184C320.179 51.0987 320.59 51.056 321.016 51.056H323.496C323.496 50.576 323.427 50.16 323.288 49.808C323.16 49.456 322.947 49.184 322.648 48.992C322.35 48.7893 321.955 48.688 321.464 48.688C321.166 48.688 320.888 48.72 320.632 48.784C320.376 48.848 320.158 48.9493 319.976 49.088C319.795 49.2267 319.662 49.4133 319.576 49.648H318.12C318.195 49.264 318.339 48.9387 318.552 48.672C318.776 48.3947 319.043 48.1707 319.352 48C319.672 47.8187 320.014 47.6853 320.376 47.6C320.739 47.5147 321.102 47.472 321.464 47.472C322.275 47.472 322.926 47.6373 323.416 47.968C323.907 48.288 324.264 48.7467 324.488 49.344C324.712 49.9307 324.824 50.6293 324.824 51.44V56H323.688L323.608 54.928C323.374 55.248 323.091 55.4933 322.76 55.664C322.43 55.8347 322.088 55.9467 321.736 56C321.395 56.064 321.07 56.096 320.76 56.096ZM320.888 54.896C321.422 54.896 321.88 54.8107 322.264 54.64C322.659 54.4587 322.963 54.1973 323.176 53.856C323.39 53.5147 323.496 53.0987 323.496 52.608V52.192H322.008C321.656 52.192 321.31 52.1973 320.968 52.208C320.627 52.2187 320.318 52.2613 320.04 52.336C319.763 52.4107 319.539 52.5387 319.368 52.72C319.208 52.9013 319.128 53.1627 319.128 53.504C319.128 53.824 319.208 54.0853 319.368 54.288C319.539 54.4907 319.758 54.6453 320.024 54.752C320.302 54.848 320.59 54.896 320.888 54.896ZM326.931 56V47.568H328.755L331.491 51.792L334.179 47.568H335.971V56H334.627V49.072L331.651 53.84H331.267L328.275 49.072V56H326.931ZM338.119 56V47.568H339.479V54.032C339.554 53.8827 339.655 53.7227 339.783 53.552C339.911 53.3707 340.012 53.232 340.087 53.136L344.167 47.568H345.511V56H344.151V49.536C344.066 49.696 343.97 49.8453 343.863 49.984C343.767 50.1227 343.676 50.2507 343.591 50.368L339.447 56H338.119ZM106.072 76V67.568H113.064V76H111.704V68.768H107.432V76H106.072ZM118.893 76.096C118.007 76.096 117.266 75.9147 116.669 75.552C116.071 75.1787 115.623 74.6667 115.325 74.016C115.037 73.3653 114.893 72.624 114.893 71.792C114.893 70.9493 115.037 70.208 115.325 69.568C115.623 68.9173 116.071 68.4053 116.669 68.032C117.266 67.6587 118.018 67.472 118.925 67.472C119.81 67.472 120.546 67.6587 121.133 68.032C121.73 68.4053 122.173 68.9173 122.461 69.568C122.759 70.208 122.909 70.9493 122.909 71.792C122.909 72.624 122.759 73.3653 122.461 74.016C122.162 74.6667 121.714 75.1787 121.117 75.552C120.53 75.9147 119.789 76.096 118.893 76.096ZM118.893 74.896C119.511 74.896 120.013 74.7573 120.397 74.48C120.791 74.2027 121.079 73.8293 121.261 73.36C121.453 72.8907 121.549 72.368 121.549 71.792C121.549 71.216 121.453 70.6933 121.261 70.224C121.079 69.7547 120.791 69.3813 120.397 69.104C120.013 68.8267 119.511 68.688 118.893 68.688C118.285 68.688 117.783 68.8267 117.389 69.104C117.005 69.3813 116.717 69.7547 116.525 70.224C116.343 70.6933 116.253 71.216 116.253 71.792C116.253 72.368 116.343 72.8907 116.525 73.36C116.717 73.8293 117.005 74.2027 117.389 74.48C117.783 74.7573 118.285 74.896 118.893 74.896ZM124.728 76V67.568H126.552L129.288 71.792L131.976 67.568H133.768V76H132.424V69.072L129.448 73.84H129.064L126.072 69.072V76H124.728ZM139.564 76.096C138.668 76.096 137.926 75.9147 137.34 75.552C136.753 75.1787 136.316 74.6667 136.028 74.016C135.74 73.3653 135.596 72.624 135.596 71.792C135.596 70.9493 135.745 70.208 136.044 69.568C136.353 68.9173 136.801 68.4053 137.388 68.032C137.974 67.6587 138.694 67.472 139.548 67.472C140.177 67.472 140.726 67.5947 141.196 67.84C141.676 68.0747 142.07 68.3947 142.38 68.8C142.7 69.2053 142.929 69.6587 143.068 70.16C143.217 70.6613 143.281 71.1787 143.26 71.712C143.249 71.808 143.244 71.904 143.244 72C143.244 72.096 143.238 72.192 143.228 72.288H136.972C137.014 72.7787 137.137 73.2213 137.34 73.616C137.542 74.0107 137.83 74.3253 138.204 74.56C138.577 74.784 139.041 74.896 139.596 74.896C139.873 74.896 140.15 74.864 140.428 74.8C140.716 74.7253 140.972 74.6027 141.196 74.432C141.43 74.2613 141.596 74.032 141.692 73.744H143.084C142.956 74.288 142.716 74.736 142.364 75.088C142.012 75.4293 141.59 75.6853 141.1 75.856C140.609 76.016 140.097 76.096 139.564 76.096ZM137.004 71.104H141.884C141.873 70.624 141.766 70.2027 141.564 69.84C141.361 69.4773 141.084 69.1947 140.732 68.992C140.39 68.7893 139.98 68.688 139.5 68.688C138.977 68.688 138.534 68.8 138.172 69.024C137.82 69.248 137.548 69.5413 137.356 69.904C137.164 70.2667 137.046 70.6667 137.004 71.104ZM155.328 78.592V76H145.088V67.568H146.448V74.816H149.616V67.568H150.976V74.816H154.176V67.568H155.536V74.816H156.64V78.592H155.328ZM161.704 76.096C160.808 76.096 160.067 75.9147 159.48 75.552C158.894 75.1787 158.456 74.6667 158.168 74.016C157.88 73.3653 157.736 72.624 157.736 71.792C157.736 70.9493 157.886 70.208 158.184 69.568C158.494 68.9173 158.942 68.4053 159.528 68.032C160.115 67.6587 160.835 67.472 161.688 67.472C162.318 67.472 162.867 67.5947 163.336 67.84C163.816 68.0747 164.211 68.3947 164.52 68.8C164.84 69.2053 165.07 69.6587 165.208 70.16C165.358 70.6613 165.422 71.1787 165.4 71.712C165.39 71.808 165.384 71.904 165.384 72C165.384 72.096 165.379 72.192 165.368 72.288H159.112C159.155 72.7787 159.278 73.2213 159.48 73.616C159.683 74.0107 159.971 74.3253 160.344 74.56C160.718 74.784 161.182 74.896 161.736 74.896C162.014 74.896 162.291 74.864 162.568 74.8C162.856 74.7253 163.112 74.6027 163.336 74.432C163.571 74.2613 163.736 74.032 163.832 73.744H165.224C165.096 74.288 164.856 74.736 164.504 75.088C164.152 75.4293 163.731 75.6853 163.24 75.856C162.75 76.016 162.238 76.096 161.704 76.096ZM159.144 71.104H164.024C164.014 70.624 163.907 70.2027 163.704 69.84C163.502 69.4773 163.224 69.1947 162.872 68.992C162.531 68.7893 162.12 68.688 161.64 68.688C161.118 68.688 160.675 68.8 160.312 69.024C159.96 69.248 159.688 69.5413 159.496 69.904C159.304 70.2667 159.187 70.6667 159.144 71.104ZM167.228 76V67.568H168.588V71.264H172.812V67.568H174.172V76H172.812V72.464H168.588V76H167.228ZM176.322 76V67.568H177.682V74.032C177.757 73.8827 177.858 73.7227 177.986 73.552C178.114 73.3707 178.215 73.232 178.29 73.136L182.37 67.568H183.714V76H182.354V69.536C182.269 69.696 182.173 69.8453 182.066 69.984C181.97 70.1227 181.879 70.2507 181.794 70.368L177.65 76H176.322ZM185.325 76L187.517 72.672C186.909 72.5013 186.429 72.224 186.077 71.84C185.725 71.4453 185.549 70.9227 185.549 70.272C185.549 69.76 185.624 69.3333 185.773 68.992C185.923 68.64 186.141 68.3627 186.429 68.16C186.717 67.9467 187.064 67.7973 187.469 67.712C187.875 67.616 188.339 67.568 188.861 67.568H192.253V76H190.893V72.88H188.957L186.909 76H185.325ZM189.885 71.696H190.893V68.768H189.085C188.765 68.768 188.472 68.784 188.205 68.816C187.939 68.848 187.709 68.9173 187.517 69.024C187.336 69.12 187.192 69.264 187.085 69.456C186.979 69.6373 186.925 69.888 186.925 70.208C186.925 70.56 187.011 70.8373 187.181 71.04C187.363 71.2427 187.592 71.392 187.869 71.488C188.157 71.5733 188.477 71.632 188.829 71.664C189.181 71.6853 189.533 71.696 189.885 71.696Z" fill="black"/>
</svg>
