<svg width="408" height="171" viewBox="0 0 408 171" fill="none" xmlns="http://www.w3.org/2000/svg">
<rect width="408" height="171" rx="30" fill="white"/>
<path d="M48.2416 41.0143C48.8401 40.9563 49.4425 41.0751 49.9741 41.3561C51.1293 41.9079 51.5806 42.9106 51.5883 44.1384C51.6065 46.5834 51.5883 49.0289 51.5883 51.4714C51.5884 52.8231 52.0312 53.284 53.3598 53.1882C54.9295 53.0794 56.2299 53.5353 57.1909 54.8278C57.5768 55.3458 58.1206 55.4129 58.7241 55.3249C59.207 55.2367 59.697 55.1914 60.1879 55.1882C60.7973 55.1995 61.3947 55.3593 61.9282 55.654C62.4618 55.9488 62.9155 56.3696 63.2495 56.8796C63.3745 57.0918 63.5472 57.2722 63.7534 57.4069C63.9594 57.5415 64.1936 57.6276 64.4379 57.6569C67.6939 57.9393 67.9322 59.9877 67.8881 62.8991C67.8441 65.8494 65.9016 78.6348 64.35 81.238C63.9202 81.933 63.3235 82.5098 62.6137 82.9147C61.9039 83.3196 61.1036 83.54 60.2866 83.5563C55.6838 83.5563 55.2222 83.5563 50.6196 83.5563C46.9623 83.5563 45.4885 78.8371 44.5327 77.0807C43.0252 74.3015 41.2404 72.5864 38.5932 71.3405C36.8318 70.5142 35.1221 69.5688 33.4125 68.6208C32.2806 67.9888 31.493 67.0664 31.5034 65.6755C31.5074 65.2038 31.6245 64.7398 31.8452 64.3229C32.0659 63.9059 32.384 63.5476 32.7719 63.279C33.1598 63.0105 33.6067 62.8398 34.0747 62.78C34.5427 62.7201 35.0183 62.773 35.4614 62.9352C37.391 63.6475 39.2455 64.5645 41.1596 65.3571C41.7489 65.6428 42.3822 65.8279 43.0327 65.904C44.2913 65.9687 45.3398 64.9455 45.4721 63.6843C45.5015 63.4012 45.5159 63.1163 45.5141 62.8317C45.5193 59.727 45.5205 56.6206 45.517 53.5124V44.361C45.517 43.325 45.7211 42.3454 46.6069 41.6823C47.0746 41.3043 47.6431 41.0724 48.2416 41.0143ZM40.4448 45.6345L42.3774 51.7897C42.5697 52.4036 42.2285 53.0578 41.6147 53.2507C41.0008 53.4433 40.3458 53.1018 40.1528 52.488L39.1176 49.1901L35.3442 56.2907L38.8999 55.1755L39.0161 55.1452C39.5945 55.0263 40.181 55.3626 40.3618 55.9382C40.5541 56.552 40.2127 57.2061 39.5991 57.3991L33.4467 59.3317L32.3354 59.6813L31.9858 58.569L30.0532 52.4147L30.0239 52.2985C29.9049 51.72 30.2403 51.1337 30.8159 50.9528C31.3916 50.7722 32.0028 51.0614 32.2358 51.6042L32.2778 51.7155L33.3383 55.0973L37.1723 47.8835L33.5307 49.028L33.4145 49.0583C32.8362 49.1771 32.2497 48.8407 32.0688 48.2653C31.8762 47.6515 32.2178 46.9975 32.8315 46.8044L38.9838 44.8718L40.0961 44.5231L40.4448 45.6345Z" fill="black"/>
<path d="M106.392 56V44.688H108.472L111.928 50.912L115.336 44.688H117.368V56H115.976V46.096L112.216 53.056H111.576L107.784 46.096V56H106.392ZM123.518 56.096C122.632 56.096 121.891 55.9147 121.294 55.552C120.696 55.1787 120.248 54.6667 119.95 54.016C119.662 53.3653 119.518 52.624 119.518 51.792C119.518 50.9493 119.662 50.208 119.95 49.568C120.248 48.9173 120.696 48.4053 121.294 48.032C121.891 47.6587 122.643 47.472 123.55 47.472C124.435 47.472 125.171 47.6587 125.758 48.032C126.355 48.4053 126.798 48.9173 127.086 49.568C127.384 50.208 127.534 50.9493 127.534 51.792C127.534 52.624 127.384 53.3653 127.086 54.016C126.787 54.6667 126.339 55.1787 125.742 55.552C125.155 55.9147 124.414 56.096 123.518 56.096ZM123.518 54.896C124.136 54.896 124.638 54.7573 125.022 54.48C125.416 54.2027 125.704 53.8293 125.886 53.36C126.078 52.8907 126.174 52.368 126.174 51.792C126.174 51.216 126.078 50.6933 125.886 50.224C125.704 49.7547 125.416 49.3813 125.022 49.104C124.638 48.8267 124.136 48.688 123.518 48.688C122.91 48.688 122.408 48.8267 122.014 49.104C121.63 49.3813 121.342 49.7547 121.15 50.224C120.968 50.6933 120.878 51.216 120.878 51.792C120.878 52.368 120.968 52.8907 121.15 53.36C121.342 53.8293 121.63 54.2027 122.014 54.48C122.408 54.7573 122.91 54.896 123.518 54.896ZM128.349 56L131.085 51.584L128.589 47.568H130.045L132.269 51.216H133.533V47.568H134.893V51.216H136.157L138.381 47.568H139.837L137.341 51.584L140.077 56H138.493L136.301 52.368H134.893V56H133.533V52.368H132.125L129.933 56H128.349ZM141.369 56V47.568H142.729V51.264H146.953V47.568H148.313V56H146.953V52.464H142.729V56H141.369ZM154.143 56.096C153.257 56.096 152.516 55.9147 151.919 55.552C151.321 55.1787 150.873 54.6667 150.575 54.016C150.287 53.3653 150.143 52.624 150.143 51.792C150.143 50.9493 150.287 50.208 150.575 49.568C150.873 48.9173 151.321 48.4053 151.919 48.032C152.516 47.6587 153.268 47.472 154.175 47.472C155.06 47.472 155.796 47.6587 156.383 48.032C156.98 48.4053 157.423 48.9173 157.711 49.568C158.009 50.208 158.159 50.9493 158.159 51.792C158.159 52.624 158.009 53.3653 157.711 54.016C157.412 54.6667 156.964 55.1787 156.367 55.552C155.78 55.9147 155.039 56.096 154.143 56.096ZM154.143 54.896C154.761 54.896 155.263 54.7573 155.647 54.48C156.041 54.2027 156.329 53.8293 156.511 53.36C156.703 52.8907 156.799 52.368 156.799 51.792C156.799 51.216 156.703 50.6933 156.511 50.224C156.329 49.7547 156.041 49.3813 155.647 49.104C155.263 48.8267 154.761 48.688 154.143 48.688C153.535 48.688 153.033 48.8267 152.639 49.104C152.255 49.3813 151.967 49.7547 151.775 50.224C151.593 50.6933 151.503 51.216 151.503 51.792C151.503 52.368 151.593 52.8907 151.775 53.36C151.967 53.8293 152.255 54.2027 152.639 54.48C153.033 54.7573 153.535 54.896 154.143 54.896ZM164.291 56V47.568H171.283V56H169.923V48.768H165.651V56H164.291ZM173.431 59.04V47.568H174.727L174.791 48.864C175.079 48.4053 175.469 48.0587 175.959 47.824C176.461 47.5893 176.999 47.472 177.575 47.472C178.429 47.472 179.127 47.664 179.671 48.048C180.215 48.4213 180.615 48.9333 180.871 49.584C181.138 50.2347 181.271 50.9707 181.271 51.792C181.271 52.6133 181.138 53.3493 180.871 54C180.605 54.6507 180.194 55.1627 179.639 55.536C179.085 55.9093 178.375 56.096 177.511 56.096C177.085 56.096 176.701 56.0533 176.359 55.968C176.018 55.872 175.719 55.7387 175.463 55.568C175.207 55.3973 174.983 55.2053 174.791 54.992V59.04H173.431ZM177.399 54.896C178.018 54.896 178.509 54.7573 178.871 54.48C179.234 54.192 179.495 53.8133 179.655 53.344C179.826 52.8747 179.911 52.3573 179.911 51.792C179.911 51.216 179.826 50.6933 179.655 50.224C179.495 49.7547 179.229 49.3813 178.855 49.104C178.482 48.8267 177.986 48.688 177.367 48.688C176.813 48.688 176.338 48.832 175.943 49.12C175.559 49.3973 175.266 49.776 175.063 50.256C174.861 50.7253 174.759 51.2427 174.759 51.808C174.759 52.3947 174.855 52.9227 175.047 53.392C175.239 53.8613 175.533 54.2293 175.927 54.496C176.322 54.7627 176.813 54.896 177.399 54.896ZM183.025 56V47.568H184.385V54.032C184.46 53.8827 184.561 53.7227 184.689 53.552C184.817 53.3707 184.918 53.232 184.993 53.136L189.073 47.568H190.417V56H189.057V49.536C188.972 49.696 188.876 49.8453 188.769 49.984C188.673 50.1227 188.582 50.2507 188.497 50.368L184.353 56H183.025ZM196.108 56.096C195.575 56.096 195.1 56.0213 194.684 55.872C194.268 55.712 193.911 55.4933 193.612 55.216C193.314 54.928 193.068 54.592 192.876 54.208C192.684 53.8133 192.54 53.3867 192.444 52.928C192.348 52.4693 192.3 51.984 192.3 51.472C192.3 50.6507 192.316 49.888 192.348 49.184C192.391 48.4693 192.508 47.8347 192.7 47.28C192.892 46.7147 193.218 46.2453 193.676 45.872C194.135 45.4987 194.78 45.2373 195.612 45.088C196.039 45.0133 196.46 44.9493 196.876 44.896C197.292 44.8427 197.714 44.7893 198.14 44.736C198.279 44.7147 198.423 44.6933 198.572 44.672C198.722 44.6507 198.876 44.624 199.036 44.592C199.207 44.56 199.367 44.5333 199.516 44.512V45.76C199.399 45.8027 199.271 45.84 199.132 45.872C199.004 45.8933 198.866 45.9147 198.716 45.936C198.578 45.9573 198.434 45.9733 198.284 45.984C198.146 45.9947 198.007 46.0107 197.868 46.032C197.73 46.0427 197.596 46.0587 197.468 46.08C197.095 46.1227 196.7 46.1653 196.284 46.208C195.868 46.24 195.474 46.3253 195.1 46.464C194.738 46.592 194.428 46.8427 194.172 47.216C194.044 47.408 193.932 47.6373 193.836 47.904C193.751 48.1707 193.687 48.4427 193.644 48.72C193.612 48.9867 193.591 49.2427 193.58 49.488C193.794 49.1893 194.055 48.9493 194.364 48.768C194.674 48.576 195.004 48.4373 195.356 48.352C195.708 48.256 196.044 48.208 196.364 48.208C197.132 48.208 197.783 48.368 198.316 48.688C198.85 48.9973 199.255 49.44 199.532 50.016C199.81 50.592 199.948 51.264 199.948 52.032C199.948 52.8 199.799 53.4933 199.5 54.112C199.202 54.72 198.764 55.2053 198.188 55.568C197.623 55.92 196.93 56.096 196.108 56.096ZM196.14 54.896C196.674 54.896 197.122 54.768 197.484 54.512C197.847 54.256 198.119 53.9147 198.3 53.488C198.492 53.0613 198.588 52.592 198.588 52.08C198.588 51.5787 198.492 51.1307 198.3 50.736C198.119 50.3307 197.847 50.0107 197.484 49.776C197.132 49.5413 196.695 49.424 196.172 49.424C195.66 49.424 195.218 49.5467 194.844 49.792C194.482 50.0373 194.199 50.368 193.996 50.784C193.804 51.1893 193.708 51.632 193.708 52.112C193.708 52.6027 193.799 53.0613 193.98 53.488C194.162 53.9147 194.428 54.256 194.78 54.512C195.143 54.768 195.596 54.896 196.14 54.896ZM200.929 56.016V54.832C201.142 54.832 201.334 54.7893 201.505 54.704C201.676 54.608 201.825 54.4693 201.953 54.288C202.102 54.0747 202.22 53.7653 202.305 53.36C202.39 52.9547 202.449 52.5227 202.481 52.064C202.524 51.552 202.556 51.0507 202.577 50.56C202.598 50.0587 202.614 49.5627 202.625 49.072C202.646 48.5813 202.657 48.08 202.657 47.568H208.513V56H207.153V48.768H203.985C203.974 49.1307 203.958 49.4987 203.937 49.872C203.926 50.2347 203.91 50.6027 203.889 50.976C203.878 51.3387 203.862 51.7067 203.841 52.08C203.83 52.5067 203.788 52.9867 203.713 53.52C203.638 54.0533 203.478 54.5387 203.233 54.976C202.998 55.392 202.71 55.6693 202.369 55.808C202.038 55.9467 201.558 56.016 200.929 56.016ZM210.65 56V47.568H212.01V54.032C212.085 53.8827 212.186 53.7227 212.314 53.552C212.442 53.3707 212.543 53.232 212.618 53.136L216.698 47.568H218.042V56H216.682V49.536C216.597 49.696 216.501 49.8453 216.394 49.984C216.298 50.1227 216.207 50.2507 216.122 50.368L211.978 56H210.65ZM219.333 56L222.069 51.584L219.573 47.568H221.029L223.253 51.216H224.517V47.568H225.877V51.216H227.141L229.365 47.568H230.821L228.325 51.584L231.061 56H229.477L227.285 52.368H225.877V56H224.517V52.368H223.109L220.917 56H219.333ZM234.901 56.096C234.517 56.096 234.144 56.048 233.781 55.952C233.429 55.8453 233.109 55.6907 232.821 55.488C232.544 55.2747 232.32 55.0133 232.149 54.704C231.989 54.384 231.909 54.016 231.909 53.6C231.909 53.12 231.994 52.7147 232.165 52.384C232.346 52.0533 232.586 51.792 232.885 51.6C233.184 51.408 233.53 51.2693 233.925 51.184C234.32 51.0987 234.73 51.056 235.157 51.056H237.637C237.637 50.576 237.568 50.16 237.429 49.808C237.301 49.456 237.088 49.184 236.789 48.992C236.49 48.7893 236.096 48.688 235.605 48.688C235.306 48.688 235.029 48.72 234.773 48.784C234.517 48.848 234.298 48.9493 234.117 49.088C233.936 49.2267 233.802 49.4133 233.717 49.648H232.261C232.336 49.264 232.48 48.9387 232.693 48.672C232.917 48.3947 233.184 48.1707 233.493 48C233.813 47.8187 234.154 47.6853 234.517 47.6C234.88 47.5147 235.242 47.472 235.605 47.472C236.416 47.472 237.066 47.6373 237.557 47.968C238.048 48.288 238.405 48.7467 238.629 49.344C238.853 49.9307 238.965 50.6293 238.965 51.44V56H237.829L237.749 54.928C237.514 55.248 237.232 55.4933 236.901 55.664C236.57 55.8347 236.229 55.9467 235.877 56C235.536 56.064 235.21 56.096 234.901 56.096ZM235.029 54.896C235.562 54.896 236.021 54.8107 236.405 54.64C236.8 54.4587 237.104 54.1973 237.317 53.856C237.53 53.5147 237.637 53.0987 237.637 52.608V52.192H236.149C235.797 52.192 235.45 52.1973 235.109 52.208C234.768 52.2187 234.458 52.2613 234.181 52.336C233.904 52.4107 233.68 52.5387 233.509 52.72C233.349 52.9013 233.269 53.1627 233.269 53.504C233.269 53.824 233.349 54.0853 233.509 54.288C233.68 54.4907 233.898 54.6453 234.165 54.752C234.442 54.848 234.73 54.896 235.029 54.896ZM243.04 56V48.768H240.144V47.568H247.296V48.768H244.4V56H243.04ZM248.51 56V47.568H249.902V50.784H251.758C252.259 50.784 252.707 50.8267 253.102 50.912C253.507 50.9867 253.854 51.12 254.142 51.312C254.43 51.504 254.648 51.7653 254.798 52.096C254.958 52.416 255.038 52.8267 255.038 53.328C255.038 53.7867 254.958 54.1867 254.798 54.528C254.638 54.8587 254.414 55.136 254.126 55.36C253.838 55.5733 253.491 55.7333 253.086 55.84C252.691 55.9467 252.254 56 251.774 56H248.51ZM249.902 54.816H250.702C251.075 54.816 251.432 54.8053 251.774 54.784C252.126 54.7627 252.446 54.7093 252.734 54.624C253.022 54.5387 253.246 54.4 253.406 54.208C253.576 54.0053 253.662 53.728 253.662 53.376C253.662 53.0347 253.592 52.7733 253.454 52.592C253.326 52.4 253.155 52.2613 252.942 52.176C252.728 52.08 252.494 52.0213 252.238 52C251.992 51.9787 251.747 51.968 251.502 51.968H249.902V54.816ZM261.119 56V47.568H262.479V54.032C262.554 53.8827 262.655 53.7227 262.783 53.552C262.911 53.3707 263.012 53.232 263.087 53.136L267.167 47.568H268.511V56H267.151V49.536C267.066 49.696 266.97 49.8453 266.863 49.984C266.767 50.1227 266.676 50.2507 266.591 50.368L262.447 56H261.119ZM278.643 56.096C277.757 56.096 277.016 55.9147 276.419 55.552C275.821 55.1787 275.373 54.6667 275.075 54.016C274.787 53.3653 274.643 52.624 274.643 51.792C274.643 50.9493 274.787 50.208 275.075 49.568C275.373 48.9173 275.821 48.4053 276.419 48.032C277.016 47.6587 277.768 47.472 278.675 47.472C279.56 47.472 280.296 47.6587 280.883 48.032C281.48 48.4053 281.923 48.9173 282.211 49.568C282.509 50.208 282.659 50.9493 282.659 51.792C282.659 52.624 282.509 53.3653 282.211 54.016C281.912 54.6667 281.464 55.1787 280.867 55.552C280.28 55.9147 279.539 56.096 278.643 56.096ZM278.643 54.896C279.261 54.896 279.763 54.7573 280.147 54.48C280.541 54.2027 280.829 53.8293 281.011 53.36C281.203 52.8907 281.299 52.368 281.299 51.792C281.299 51.216 281.203 50.6933 281.011 50.224C280.829 49.7547 280.541 49.3813 280.147 49.104C279.763 48.8267 279.261 48.688 278.643 48.688C278.035 48.688 277.533 48.8267 277.139 49.104C276.755 49.3813 276.467 49.7547 276.275 50.224C276.093 50.6933 276.003 51.216 276.003 51.792C276.003 52.368 276.093 52.8907 276.275 53.36C276.467 53.8293 276.755 54.2027 277.139 54.48C277.533 54.7573 278.035 54.896 278.643 54.896ZM286.446 56V48.768H283.55V47.568H290.702V48.768H287.806V56H286.446ZM290.883 58.592V54.816C291.193 54.816 291.438 54.7307 291.619 54.56C291.811 54.3893 291.961 54.1653 292.067 53.888C292.174 53.6107 292.254 53.312 292.307 52.992C292.361 52.6613 292.403 52.3467 292.435 52.048C292.489 51.5573 292.521 51.072 292.531 50.592C292.553 50.1013 292.563 49.712 292.563 49.424C292.574 49.1147 292.579 48.8053 292.579 48.496C292.579 48.1867 292.579 47.8773 292.579 47.568H298.563V54.816H299.667V58.592H298.355V56H292.195V58.592H290.883ZM293.043 54.816H297.203V48.768H293.875C293.865 49.216 293.854 49.7173 293.843 50.272C293.833 50.8267 293.811 51.344 293.779 51.824C293.769 52.1013 293.742 52.416 293.699 52.768C293.667 53.12 293.603 53.4773 293.507 53.84C293.411 54.192 293.257 54.5173 293.043 54.816ZM303.792 56.096C303.408 56.096 303.034 56.048 302.672 55.952C302.32 55.8453 302 55.6907 301.712 55.488C301.434 55.2747 301.21 55.0133 301.04 54.704C300.88 54.384 300.8 54.016 300.8 53.6C300.8 53.12 300.885 52.7147 301.056 52.384C301.237 52.0533 301.477 51.792 301.776 51.6C302.074 51.408 302.421 51.2693 302.816 51.184C303.21 51.0987 303.621 51.056 304.048 51.056H306.528C306.528 50.576 306.458 50.16 306.32 49.808C306.192 49.456 305.978 49.184 305.68 48.992C305.381 48.7893 304.986 48.688 304.496 48.688C304.197 48.688 303.92 48.72 303.664 48.784C303.408 48.848 303.189 48.9493 303.008 49.088C302.826 49.2267 302.693 49.4133 302.608 49.648H301.152C301.226 49.264 301.37 48.9387 301.584 48.672C301.808 48.3947 302.074 48.1707 302.384 48C302.704 47.8187 303.045 47.6853 303.408 47.6C303.77 47.5147 304.133 47.472 304.496 47.472C305.306 47.472 305.957 47.6373 306.448 47.968C306.938 48.288 307.296 48.7467 307.52 49.344C307.744 49.9307 307.856 50.6293 307.856 51.44V56H306.72L306.64 54.928C306.405 55.248 306.122 55.4933 305.792 55.664C305.461 55.8347 305.12 55.9467 304.768 56C304.426 56.064 304.101 56.096 303.792 56.096ZM303.92 54.896C304.453 54.896 304.912 54.8107 305.296 54.64C305.69 54.4587 305.994 54.1973 306.208 53.856C306.421 53.5147 306.528 53.0987 306.528 52.608V52.192H305.04C304.688 52.192 304.341 52.1973 304 52.208C303.658 52.2187 303.349 52.2613 303.072 52.336C302.794 52.4107 302.57 52.5387 302.4 52.72C302.24 52.9013 302.16 53.1627 302.16 53.504C302.16 53.824 302.24 54.0853 302.4 54.288C302.57 54.4907 302.789 54.6453 303.056 54.752C303.333 54.848 303.621 54.896 303.92 54.896ZM309.195 56.016V54.832C309.408 54.832 309.6 54.7893 309.771 54.704C309.941 54.608 310.091 54.4693 310.219 54.288C310.368 54.0747 310.485 53.7653 310.571 53.36C310.656 52.9547 310.715 52.5227 310.747 52.064C310.789 51.552 310.821 51.0507 310.843 50.56C310.864 50.0587 310.88 49.5627 310.891 49.072C310.912 48.5813 310.923 48.08 310.923 47.568H316.779V56H315.419V48.768H312.251C312.24 49.1307 312.224 49.4987 312.203 49.872C312.192 50.2347 312.176 50.6027 312.155 50.976C312.144 51.3387 312.128 51.7067 312.107 52.08C312.096 52.5067 312.053 52.9867 311.979 53.52C311.904 54.0533 311.744 54.5387 311.499 54.976C311.264 55.392 310.976 55.6693 310.635 55.808C310.304 55.9467 309.824 56.016 309.195 56.016ZM318.388 56L320.58 52.672C319.972 52.5013 319.492 52.224 319.14 51.84C318.788 51.4453 318.612 50.9227 318.612 50.272C318.612 49.76 318.686 49.3333 318.836 48.992C318.985 48.64 319.204 48.3627 319.492 48.16C319.78 47.9467 320.126 47.7973 320.532 47.712C320.937 47.616 321.401 47.568 321.924 47.568H325.316V56H323.956V52.88H322.02L319.972 56H318.388ZM322.948 51.696H323.956V48.768H322.148C321.828 48.768 321.534 48.784 321.268 48.816C321.001 48.848 320.772 48.9173 320.58 49.024C320.398 49.12 320.254 49.264 320.148 49.456C320.041 49.6373 319.988 49.888 319.988 50.208C319.988 50.56 320.073 50.8373 320.244 51.04C320.425 51.2427 320.654 51.392 320.932 51.488C321.22 51.5733 321.54 51.632 321.892 51.664C322.244 51.6853 322.596 51.696 322.948 51.696ZM329.431 56V48.768H326.535V47.568H333.687V48.768H330.791V56H329.431ZM334.9 56V47.568H336.292V50.784H338.148C338.649 50.784 339.097 50.8267 339.492 50.912C339.897 50.9867 340.244 51.12 340.532 51.312C340.82 51.504 341.039 51.7653 341.188 52.096C341.348 52.416 341.428 52.8267 341.428 53.328C341.428 53.7867 341.348 54.1867 341.188 54.528C341.028 54.8587 340.804 55.136 340.516 55.36C340.228 55.5733 339.881 55.7333 339.476 55.84C339.081 55.9467 338.644 56 338.164 56H334.9ZM336.292 54.816H337.092C337.465 54.816 337.823 54.8053 338.164 54.784C338.516 54.7627 338.836 54.7093 339.124 54.624C339.412 54.5387 339.636 54.4 339.796 54.208C339.967 54.0053 340.052 53.728 340.052 53.376C340.052 53.0347 339.983 52.7733 339.844 52.592C339.716 52.4 339.545 52.2613 339.332 52.176C339.119 52.08 338.884 52.0213 338.628 52C338.383 51.9787 338.137 51.968 337.892 51.968H336.292V54.816ZM106.072 76V67.568H107.432V71.2H108.904L111.4 67.568H112.952L110.136 71.584L113.192 76H111.592L109.064 72.384H107.432V76H106.072ZM116.917 76.096C116.533 76.096 116.159 76.048 115.797 75.952C115.445 75.8453 115.125 75.6907 114.837 75.488C114.559 75.2747 114.335 75.0133 114.165 74.704C114.005 74.384 113.925 74.016 113.925 73.6C113.925 73.12 114.01 72.7147 114.181 72.384C114.362 72.0533 114.602 71.792 114.901 71.6C115.199 71.408 115.546 71.2693 115.941 71.184C116.335 71.0987 116.746 71.056 117.173 71.056H119.653C119.653 70.576 119.583 70.16 119.445 69.808C119.317 69.456 119.103 69.184 118.805 68.992C118.506 68.7893 118.111 68.688 117.621 68.688C117.322 68.688 117.045 68.72 116.789 68.784C116.533 68.848 116.314 68.9493 116.133 69.088C115.951 69.2267 115.818 69.4133 115.733 69.648H114.277C114.351 69.264 114.495 68.9387 114.709 68.672C114.933 68.3947 115.199 68.1707 115.509 68C115.829 67.8187 116.17 67.6853 116.533 67.6C116.895 67.5147 117.258 67.472 117.621 67.472C118.431 67.472 119.082 67.6373 119.573 67.968C120.063 68.288 120.421 68.7467 120.645 69.344C120.869 69.9307 120.981 70.6293 120.981 71.44V76H119.845L119.765 74.928C119.53 75.248 119.247 75.4933 118.917 75.664C118.586 75.8347 118.245 75.9467 117.893 76C117.551 76.064 117.226 76.096 116.917 76.096ZM117.045 74.896C117.578 74.896 118.037 74.8107 118.421 74.64C118.815 74.4587 119.119 74.1973 119.333 73.856C119.546 73.5147 119.653 73.0987 119.653 72.608V72.192H118.165C117.813 72.192 117.466 72.1973 117.125 72.208C116.783 72.2187 116.474 72.2613 116.197 72.336C115.919 72.4107 115.695 72.5387 115.525 72.72C115.365 72.9013 115.285 73.1627 115.285 73.504C115.285 73.824 115.365 74.0853 115.525 74.288C115.695 74.4907 115.914 74.6453 116.181 74.752C116.458 74.848 116.746 74.896 117.045 74.896ZM123.088 76V67.568H124.912L127.648 71.792L130.336 67.568H132.128V76H130.784V69.072L127.808 73.84H127.424L124.432 69.072V76H123.088ZM137.923 76.096C137.027 76.096 136.286 75.9147 135.699 75.552C135.112 75.1787 134.675 74.6667 134.387 74.016C134.099 73.3653 133.955 72.624 133.955 71.792C133.955 70.9493 134.104 70.208 134.403 69.568C134.712 68.9173 135.16 68.4053 135.747 68.032C136.334 67.6587 137.054 67.472 137.907 67.472C138.536 67.472 139.086 67.5947 139.555 67.84C140.035 68.0747 140.43 68.3947 140.739 68.8C141.059 69.2053 141.288 69.6587 141.427 70.16C141.576 70.6613 141.64 71.1787 141.619 71.712C141.608 71.808 141.603 71.904 141.603 72C141.603 72.096 141.598 72.192 141.587 72.288H135.331C135.374 72.7787 135.496 73.2213 135.699 73.616C135.902 74.0107 136.19 74.3253 136.563 74.56C136.936 74.784 137.4 74.896 137.955 74.896C138.232 74.896 138.51 74.864 138.787 74.8C139.075 74.7253 139.331 74.6027 139.555 74.432C139.79 74.2613 139.955 74.032 140.051 73.744H141.443C141.315 74.288 141.075 74.736 140.723 75.088C140.371 75.4293 139.95 75.6853 139.459 75.856C138.968 76.016 138.456 76.096 137.923 76.096ZM135.363 71.104H140.243C140.232 70.624 140.126 70.2027 139.923 69.84C139.72 69.4773 139.443 69.1947 139.091 68.992C138.75 68.7893 138.339 68.688 137.859 68.688C137.336 68.688 136.894 68.8 136.531 69.024C136.179 69.248 135.907 69.5413 135.715 69.904C135.523 70.2667 135.406 70.6667 135.363 71.104ZM143.447 79.04V67.568H144.743L144.807 68.864C145.095 68.4053 145.484 68.0587 145.975 67.824C146.476 67.5893 147.015 67.472 147.591 67.472C148.444 67.472 149.143 67.664 149.687 68.048C150.231 68.4213 150.631 68.9333 150.887 69.584C151.154 70.2347 151.287 70.9707 151.287 71.792C151.287 72.6133 151.154 73.3493 150.887 74C150.62 74.6507 150.21 75.1627 149.655 75.536C149.1 75.9093 148.391 76.096 147.527 76.096C147.1 76.096 146.716 76.0533 146.375 75.968C146.034 75.872 145.735 75.7387 145.479 75.568C145.223 75.3973 144.999 75.2053 144.807 74.992V79.04H143.447ZM147.415 74.896C148.034 74.896 148.524 74.7573 148.887 74.48C149.25 74.192 149.511 73.8133 149.671 73.344C149.842 72.8747 149.927 72.3573 149.927 71.792C149.927 71.216 149.842 70.6933 149.671 70.224C149.511 69.7547 149.244 69.3813 148.871 69.104C148.498 68.8267 148.002 68.688 147.383 68.688C146.828 68.688 146.354 68.832 145.959 69.12C145.575 69.3973 145.282 69.776 145.079 70.256C144.876 70.7253 144.775 71.2427 144.775 71.808C144.775 72.3947 144.871 72.9227 145.063 73.392C145.255 73.8613 145.548 74.2293 145.943 74.496C146.338 74.7627 146.828 74.896 147.415 74.896ZM153.313 79.616V78.32C153.835 78.32 154.251 78.2453 154.561 78.096C154.87 77.9573 155.126 77.7333 155.329 77.424C155.542 77.1253 155.745 76.7413 155.937 76.272L152.241 67.568H153.841L156.689 74.672L159.025 67.568H160.561L158.193 74.208C158.075 74.5493 157.942 74.9333 157.793 75.36C157.643 75.7867 157.478 76.2187 157.297 76.656C157.115 77.104 156.913 77.5147 156.689 77.888C156.475 78.272 156.235 78.5813 155.969 78.816C155.745 79.0187 155.526 79.1787 155.313 79.296C155.099 79.4133 154.838 79.4933 154.529 79.536C154.23 79.5893 153.825 79.616 153.313 79.616ZM169.735 76.096C168.849 76.096 168.113 75.9147 167.527 75.552C166.951 75.1787 166.519 74.6667 166.231 74.016C165.953 73.3653 165.815 72.6293 165.815 71.808C165.815 71.008 165.959 70.2827 166.247 69.632C166.545 68.9707 166.993 68.448 167.591 68.064C168.199 67.6693 168.967 67.472 169.895 67.472C170.471 67.472 170.983 67.568 171.431 67.76C171.889 67.952 172.268 68.2347 172.567 68.608C172.865 68.9707 173.073 69.4293 173.191 69.984H171.799C171.639 69.5147 171.383 69.184 171.031 68.992C170.689 68.7893 170.284 68.688 169.815 68.688C169.175 68.688 168.663 68.8373 168.279 69.136C167.895 69.4347 167.612 69.824 167.431 70.304C167.26 70.7733 167.174 71.2747 167.174 71.808C167.174 72.3627 167.265 72.8747 167.447 73.344C167.628 73.8133 167.911 74.192 168.295 74.48C168.679 74.7573 169.175 74.896 169.783 74.896C170.231 74.896 170.652 74.8 171.047 74.608C171.452 74.416 171.719 74.0747 171.847 73.584H173.255C173.148 74.16 172.919 74.6347 172.567 75.008C172.225 75.3813 171.804 75.6587 171.303 75.84C170.812 76.0107 170.289 76.096 169.735 76.096ZM179.291 76V67.568H186.283V76H184.923V68.768H180.651V76H179.291ZM192.111 76.096C191.226 76.096 190.485 75.9147 189.887 75.552C189.29 75.1787 188.842 74.6667 188.543 74.016C188.255 73.3653 188.111 72.624 188.111 71.792C188.111 70.9493 188.255 70.208 188.543 69.568C188.842 68.9173 189.29 68.4053 189.887 68.032C190.485 67.6587 191.237 67.472 192.143 67.472C193.029 67.472 193.765 67.6587 194.351 68.032C194.949 68.4053 195.391 68.9173 195.679 69.568C195.978 70.208 196.127 70.9493 196.127 71.792C196.127 72.624 195.978 73.3653 195.679 74.016C195.381 74.6667 194.933 75.1787 194.335 75.552C193.749 75.9147 193.007 76.096 192.111 76.096ZM192.111 74.896C192.73 74.896 193.231 74.7573 193.615 74.48C194.01 74.2027 194.298 73.8293 194.479 73.36C194.671 72.8907 194.767 72.368 194.767 71.792C194.767 71.216 194.671 70.6933 194.479 70.224C194.298 69.7547 194.01 69.3813 193.615 69.104C193.231 68.8267 192.73 68.688 192.111 68.688C191.503 68.688 191.002 68.8267 190.607 69.104C190.223 69.3813 189.935 69.7547 189.743 70.224C189.562 70.6933 189.471 71.216 189.471 71.792C189.471 72.368 189.562 72.8907 189.743 73.36C189.935 73.8293 190.223 74.2027 190.607 74.48C191.002 74.7573 191.503 74.896 192.111 74.896ZM197.947 76V67.568H199.771L202.507 71.792L205.195 67.568H206.987V76H205.643V69.072L202.667 73.84H202.283L199.291 69.072V76H197.947ZM212.815 76.096C211.929 76.096 211.188 75.9147 210.591 75.552C209.993 75.1787 209.545 74.6667 209.247 74.016C208.959 73.3653 208.815 72.624 208.815 71.792C208.815 70.9493 208.959 70.208 209.247 69.568C209.545 68.9173 209.993 68.4053 210.591 68.032C211.188 67.6587 211.94 67.472 212.847 67.472C213.732 67.472 214.468 67.6587 215.055 68.032C215.652 68.4053 216.095 68.9173 216.383 69.568C216.681 70.208 216.831 70.9493 216.831 71.792C216.831 72.624 216.681 73.3653 216.383 74.016C216.084 74.6667 215.636 75.1787 215.039 75.552C214.452 75.9147 213.711 76.096 212.815 76.096ZM212.815 74.896C213.433 74.896 213.935 74.7573 214.319 74.48C214.713 74.2027 215.001 73.8293 215.183 73.36C215.375 72.8907 215.471 72.368 215.471 71.792C215.471 71.216 215.375 70.6933 215.183 70.224C215.001 69.7547 214.713 69.3813 214.319 69.104C213.935 68.8267 213.433 68.688 212.815 68.688C212.207 68.688 211.705 68.8267 211.311 69.104C210.927 69.3813 210.639 69.7547 210.447 70.224C210.265 70.6933 210.174 71.216 210.174 71.792C210.174 72.368 210.265 72.8907 210.447 73.36C210.639 73.8293 210.927 74.2027 211.311 74.48C211.705 74.7573 212.207 74.896 212.815 74.896ZM228.89 78.592V76H218.65V67.568H220.01V74.816H223.178V67.568H224.538V74.816H227.738V67.568H229.098V74.816H230.202V78.592H228.89ZM231.619 76V67.568H233.011V70.784H234.867C235.368 70.784 235.816 70.8267 236.211 70.912C236.616 70.9867 236.963 71.12 237.251 71.312C237.539 71.504 237.758 71.7653 237.907 72.096C238.067 72.416 238.147 72.8267 238.147 73.328C238.147 73.7867 238.067 74.1867 237.907 74.528C237.747 74.8587 237.523 75.136 237.235 75.36C236.947 75.5733 236.6 75.7333 236.195 75.84C235.8 75.9467 235.363 76 234.883 76H231.619ZM233.011 74.816H233.811C234.184 74.816 234.542 74.8053 234.883 74.784C235.235 74.7627 235.555 74.7093 235.843 74.624C236.131 74.5387 236.355 74.4 236.515 74.208C236.686 74.0053 236.771 73.728 236.771 73.376C236.771 73.0347 236.702 72.7733 236.563 72.592C236.435 72.4 236.264 72.2613 236.051 72.176C235.838 72.08 235.603 72.0213 235.347 72C235.102 71.9787 234.856 71.968 234.611 71.968H233.011V74.816ZM246.748 76.096C245.51 76.096 244.577 75.7547 243.948 75.072C243.318 74.3787 242.961 73.4827 242.876 72.384H241.276V76H239.916V67.568H241.276V71.2H242.876C242.94 70.464 243.116 69.8187 243.404 69.264C243.702 68.6987 244.129 68.2613 244.684 67.952C245.238 67.632 245.926 67.472 246.748 67.472C247.644 67.472 248.385 67.6587 248.972 68.032C249.558 68.4053 249.996 68.9173 250.284 69.568C250.572 70.208 250.716 70.9493 250.716 71.792C250.716 72.624 250.572 73.3653 250.284 74.016C249.996 74.6667 249.558 75.1787 248.972 75.552C248.385 75.9147 247.644 76.096 246.748 76.096ZM246.748 74.896C247.366 74.896 247.862 74.7573 248.236 74.48C248.62 74.2027 248.902 73.8293 249.084 73.36C249.265 72.8907 249.356 72.368 249.356 71.792C249.356 71.216 249.265 70.6933 249.084 70.224C248.902 69.7547 248.62 69.3813 248.236 69.104C247.862 68.8267 247.366 68.688 246.748 68.688C246.14 68.688 245.644 68.8267 245.26 69.104C244.886 69.3813 244.614 69.7547 244.444 70.224C244.273 70.6933 244.188 71.216 244.188 71.792C244.188 72.368 244.273 72.8907 244.444 73.36C244.614 73.8293 244.886 74.2027 245.26 74.48C245.644 74.7573 246.14 74.896 246.748 74.896ZM256.071 78.592V74.816C256.38 74.816 256.625 74.7307 256.807 74.56C256.999 74.3893 257.148 74.1653 257.255 73.888C257.361 73.6107 257.441 73.312 257.495 72.992C257.548 72.6613 257.591 72.3467 257.623 72.048C257.676 71.5573 257.708 71.072 257.719 70.592C257.74 70.1013 257.751 69.712 257.751 69.424C257.761 69.1147 257.767 68.8053 257.767 68.496C257.767 68.1867 257.767 67.8773 257.767 67.568H263.751V74.816H264.855V78.592H263.543V76H257.383V78.592H256.071ZM258.231 74.816H262.391V68.768H259.063C259.052 69.216 259.041 69.7173 259.031 70.272C259.02 70.8267 258.999 71.344 258.967 71.824C258.956 72.1013 258.929 72.416 258.887 72.768C258.855 73.12 258.791 73.4773 258.695 73.84C258.599 74.192 258.444 74.5173 258.231 74.816ZM266.275 76V67.568H269.539C269.912 67.568 270.28 67.5947 270.643 67.648C271.016 67.6907 271.352 67.7867 271.651 67.936C271.96 68.0747 272.206 68.2827 272.387 68.56C272.579 68.8373 272.675 69.2053 272.675 69.664C272.675 69.9413 272.632 70.1973 272.547 70.432C272.462 70.656 272.334 70.8533 272.163 71.024C272.003 71.1947 271.795 71.344 271.539 71.472C272.115 71.6 272.531 71.8507 272.787 72.224C273.043 72.5973 273.171 73.024 273.171 73.504C273.171 73.9307 273.091 74.304 272.931 74.624C272.782 74.9333 272.568 75.1893 272.291 75.392C272.024 75.5947 271.71 75.7493 271.347 75.856C270.995 75.952 270.616 76 270.211 76H266.275ZM267.667 74.816H269.891C270.222 74.816 270.531 74.784 270.819 74.72C271.107 74.656 271.342 74.5387 271.523 74.368C271.704 74.1867 271.795 73.9307 271.795 73.6C271.795 73.2587 271.715 73.0027 271.555 72.832C271.406 72.6507 271.208 72.528 270.963 72.464C270.728 72.3893 270.472 72.3467 270.195 72.336C269.918 72.3253 269.656 72.32 269.411 72.32H267.667V74.816ZM267.667 71.168H268.835C269.048 71.168 269.294 71.1573 269.571 71.136C269.859 71.1147 270.136 71.0667 270.403 70.992C270.68 70.9067 270.904 70.7787 271.075 70.608C271.256 70.4373 271.347 70.2027 271.347 69.904C271.347 69.5093 271.235 69.2373 271.011 69.088C270.798 68.928 270.542 68.8373 270.243 68.816C269.944 68.784 269.667 68.768 269.411 68.768H267.667V71.168ZM275.297 79.616V78.32C275.82 78.32 276.236 78.2453 276.545 78.096C276.854 77.9573 277.11 77.7333 277.313 77.424C277.526 77.1253 277.729 76.7413 277.921 76.272L274.225 67.568H275.825L278.673 74.672L281.009 67.568H282.545L280.177 74.208C280.06 74.5493 279.926 74.9333 279.777 75.36C279.628 75.7867 279.462 76.2187 279.281 76.656C279.1 77.104 278.897 77.5147 278.673 77.888C278.46 78.272 278.22 78.5813 277.953 78.816C277.729 79.0187 277.51 79.1787 277.297 79.296C277.084 79.4133 276.822 79.4933 276.513 79.536C276.214 79.5893 275.809 79.616 275.297 79.616ZM282.958 76L285.966 71.696L283.102 67.568H284.734L286.878 70.768L288.958 67.568H290.542L287.694 71.744L290.75 76H289.134L286.798 72.784L284.494 76H282.958ZM296.353 76V67.568H303.345V76H301.985V68.768H297.713V76H296.353ZM308.198 76.096C307.814 76.096 307.441 76.048 307.078 75.952C306.726 75.8453 306.406 75.6907 306.118 75.488C305.841 75.2747 305.617 75.0133 305.446 74.704C305.286 74.384 305.206 74.016 305.206 73.6C305.206 73.12 305.291 72.7147 305.462 72.384C305.643 72.0533 305.883 71.792 306.182 71.6C306.481 71.408 306.827 71.2693 307.222 71.184C307.617 71.0987 308.027 71.056 308.454 71.056H310.934C310.934 70.576 310.865 70.16 310.726 69.808C310.598 69.456 310.385 69.184 310.086 68.992C309.787 68.7893 309.393 68.688 308.902 68.688C308.603 68.688 308.326 68.72 308.07 68.784C307.814 68.848 307.595 68.9493 307.414 69.088C307.233 69.2267 307.099 69.4133 307.014 69.648H305.558C305.633 69.264 305.777 68.9387 305.99 68.672C306.214 68.3947 306.481 68.1707 306.79 68C307.11 67.8187 307.451 67.6853 307.814 67.6C308.177 67.5147 308.539 67.472 308.902 67.472C309.713 67.472 310.363 67.6373 310.854 67.968C311.345 68.288 311.702 68.7467 311.926 69.344C312.15 69.9307 312.262 70.6293 312.262 71.44V76H311.126L311.046 74.928C310.811 75.248 310.529 75.4933 310.198 75.664C309.867 75.8347 309.526 75.9467 309.174 76C308.833 76.064 308.507 76.096 308.198 76.096ZM308.326 74.896C308.859 74.896 309.318 74.8107 309.702 74.64C310.097 74.4587 310.401 74.1973 310.614 73.856C310.827 73.5147 310.934 73.0987 310.934 72.608V72.192H309.446C309.094 72.192 308.747 72.1973 308.406 72.208C308.065 72.2187 307.755 72.2613 307.478 72.336C307.201 72.4107 306.977 72.5387 306.806 72.72C306.646 72.9013 306.566 73.1627 306.566 73.504C306.566 73.824 306.646 74.0853 306.806 74.288C306.977 74.4907 307.195 74.6453 307.462 74.752C307.739 74.848 308.027 74.896 308.326 74.896ZM313.601 76.016V74.832C313.814 74.832 314.006 74.7893 314.177 74.704C314.348 74.608 314.497 74.4693 314.625 74.288C314.774 74.0747 314.892 73.7653 314.977 73.36C315.062 72.9547 315.121 72.5227 315.153 72.064C315.196 71.552 315.228 71.0507 315.249 70.56C315.27 70.0587 315.286 69.5627 315.297 69.072C315.318 68.5813 315.329 68.08 315.329 67.568H321.185V76H319.825V68.768H316.657C316.646 69.1307 316.63 69.4987 316.609 69.872C316.598 70.2347 316.582 70.6027 316.561 70.976C316.55 71.3387 316.534 71.7067 316.513 72.08C316.502 72.5067 316.46 72.9867 316.385 73.52C316.31 74.0533 316.15 74.5387 315.905 74.976C315.67 75.392 315.382 75.6693 315.041 75.808C314.71 75.9467 314.23 76.016 313.601 76.016ZM323.322 76V67.568H324.714V70.784H326.57C327.071 70.784 327.519 70.8267 327.914 70.912C328.319 70.9867 328.666 71.12 328.954 71.312C329.242 71.504 329.461 71.7653 329.61 72.096C329.77 72.416 329.85 72.8267 329.85 73.328C329.85 73.7867 329.77 74.1867 329.61 74.528C329.45 74.8587 329.226 75.136 328.938 75.36C328.65 75.5733 328.303 75.7333 327.898 75.84C327.503 75.9467 327.066 76 326.586 76H323.322ZM324.714 74.816H325.514C325.887 74.816 326.245 74.8053 326.586 74.784C326.938 74.7627 327.258 74.7093 327.546 74.624C327.834 74.5387 328.058 74.4 328.218 74.208C328.389 74.0053 328.474 73.728 328.474 73.376C328.474 73.0347 328.405 72.7733 328.266 72.592C328.138 72.4 327.967 72.2613 327.754 72.176C327.541 72.08 327.306 72.0213 327.05 72C326.805 71.9787 326.559 71.968 326.314 71.968H324.714V74.816ZM338.211 78.592V76H331.619V67.568H332.979V74.816H337.059V67.568H338.435V74.816H339.539V78.592H338.211ZM344.611 76.096C343.715 76.096 342.973 75.9147 342.387 75.552C341.8 75.1787 341.363 74.6667 341.075 74.016C340.787 73.3653 340.643 72.624 340.643 71.792C340.643 70.9493 340.792 70.208 341.091 69.568C341.4 68.9173 341.848 68.4053 342.435 68.032C343.021 67.6587 343.741 67.472 344.595 67.472C345.224 67.472 345.773 67.5947 346.243 67.84C346.723 68.0747 347.117 68.3947 347.427 68.8C347.747 69.2053 347.976 69.6587 348.115 70.16C348.264 70.6613 348.328 71.1787 348.307 71.712C348.296 71.808 348.291 71.904 348.291 72C348.291 72.096 348.285 72.192 348.275 72.288H342.019C342.061 72.7787 342.184 73.2213 342.387 73.616C342.589 74.0107 342.877 74.3253 343.251 74.56C343.624 74.784 344.088 74.896 344.643 74.896C344.92 74.896 345.197 74.864 345.475 74.8C345.763 74.7253 346.019 74.6027 346.243 74.432C346.477 74.2613 346.643 74.032 346.739 73.744H348.131C348.003 74.288 347.763 74.736 347.411 75.088C347.059 75.4293 346.637 75.6853 346.147 75.856C345.656 76.016 345.144 76.096 344.611 76.096ZM342.051 71.104H346.931C346.92 70.624 346.813 70.2027 346.611 69.84C346.408 69.4773 346.131 69.1947 345.779 68.992C345.437 68.7893 345.027 68.688 344.547 68.688C344.024 68.688 343.581 68.8 343.219 69.024C342.867 69.248 342.595 69.5413 342.403 69.904C342.211 70.2667 342.093 70.6667 342.051 71.104ZM350.135 76V67.568H353.399C353.772 67.568 354.14 67.5947 354.503 67.648C354.876 67.6907 355.212 67.7867 355.511 67.936C355.82 68.0747 356.065 68.2827 356.247 68.56C356.439 68.8373 356.535 69.2053 356.535 69.664C356.535 69.9413 356.492 70.1973 356.407 70.432C356.321 70.656 356.193 70.8533 356.023 71.024C355.863 71.1947 355.655 71.344 355.399 71.472C355.975 71.6 356.391 71.8507 356.647 72.224C356.903 72.5973 357.031 73.024 357.031 73.504C357.031 73.9307 356.951 74.304 356.791 74.624C356.641 74.9333 356.428 75.1893 356.151 75.392C355.884 75.5947 355.569 75.7493 355.207 75.856C354.855 75.952 354.476 76 354.071 76H350.135ZM351.527 74.816H353.751C354.081 74.816 354.391 74.784 354.679 74.72C354.967 74.656 355.201 74.5387 355.383 74.368C355.564 74.1867 355.655 73.9307 355.655 73.6C355.655 73.2587 355.575 73.0027 355.415 72.832C355.265 72.6507 355.068 72.528 354.823 72.464C354.588 72.3893 354.332 72.3467 354.055 72.336C353.777 72.3253 353.516 72.32 353.271 72.32H351.527V74.816ZM351.527 71.168H352.695C352.908 71.168 353.153 71.1573 353.431 71.136C353.719 71.1147 353.996 71.0667 354.263 70.992C354.54 70.9067 354.764 70.7787 354.935 70.608C355.116 70.4373 355.207 70.2027 355.207 69.904C355.207 69.5093 355.095 69.2373 354.871 69.088C354.657 68.928 354.401 68.8373 354.103 68.816C353.804 68.784 353.527 68.768 353.271 68.768H351.527V71.168Z" fill="black"/>
</svg>
