<svg width="408" height="231" viewBox="0 0 408 231" fill="none" xmlns="http://www.w3.org/2000/svg">
<rect width="408" height="231" rx="30" fill="white"/>
<path d="M37.9559 49.3224C37.9559 48.3356 38.1995 47.1026 39.1352 46.6616C39.5578 46.4554 40.0214 46.3468 40.4917 46.3438C40.9619 46.3409 41.4269 46.4436 41.8521 46.6445C42.9608 47.1318 43.0899 47.9749 43.0972 49.1225C43.1142 51.4203 43.0972 53.7205 43.0972 56.0207C43.0972 57.2927 43.5114 57.7264 44.7614 57.6338C46.2405 57.5315 47.4613 57.9604 48.3653 59.1763C48.7283 59.6636 49.2424 59.7269 49.8078 59.6441C50.263 59.5623 50.7244 59.5192 51.1869 59.515C51.76 59.5267 52.3218 59.6775 52.8235 59.9547C53.3253 60.2319 53.7521 60.6271 54.067 61.1061C54.1834 61.3063 54.3449 61.4767 54.5386 61.6036C54.7323 61.7305 54.953 61.8104 55.183 61.8371C58.2484 62.1027 58.4701 64.0301 58.4311 66.7689C58.3897 69.5467 56.5597 81.574 55.1002 84.0228C54.6962 84.6765 54.1348 85.2187 53.4674 85.5996C52.8 85.9806 52.0478 86.1882 51.2795 86.2037C46.9471 86.2037 46.5158 86.2037 42.1834 86.2037C38.7429 86.2037 37.6172 81.8177 35.9505 79.4078C34.1425 76.803 32.6171 75.77 31.8325 72.5511C30.9918 69.0911 30.6727 67.0808 30.0294 62.1782C29.5713 58.6645 34.6103 57.8385 35.2609 61.3254C35.7482 63.9691 35.5045 67.456 36.9349 67.456C38.8793 67.4609 37.9632 52.1904 37.9559 49.3224Z" fill="black"/>
<path d="M40.5857 41C42.8546 41 45.0306 41.9009 46.6349 43.5052C48.2387 45.109 49.1395 47.284 49.1401 49.5521L49.1332 49.9542C49.0426 51.9656 48.2422 53.886 46.8673 55.369L45.0802 53.712C46.1275 52.5824 46.7079 51.0972 46.7047 49.5568L46.6744 48.9502C46.5355 47.5494 45.917 46.2314 44.9129 45.2273C43.7654 44.0799 42.2083 43.4355 40.5857 43.4355C38.9631 43.4355 37.406 44.0798 36.2585 45.2273C35.1111 46.3747 34.4668 47.9318 34.4668 49.5544C34.4648 51.0997 35.0503 52.5899 36.1028 53.7213L35.2104 54.5533L34.318 55.3829C32.8449 53.7996 32.0283 51.7148 32.0313 49.5521C32.0319 47.284 32.9327 45.109 34.5365 43.5052C36.1408 41.9009 38.3167 41 40.5857 41Z" fill="black"/>
<path d="M106.392 56V44.688H108.472L111.928 50.912L115.336 44.688H117.368V56H115.976V46.096L112.216 53.056H111.576L107.784 46.096V56H106.392ZM123.518 56.096C122.632 56.096 121.891 55.9147 121.294 55.552C120.696 55.1787 120.248 54.6667 119.95 54.016C119.662 53.3653 119.518 52.624 119.518 51.792C119.518 50.9493 119.662 50.208 119.95 49.568C120.248 48.9173 120.696 48.4053 121.294 48.032C121.891 47.6587 122.643 47.472 123.55 47.472C124.435 47.472 125.171 47.6587 125.758 48.032C126.355 48.4053 126.798 48.9173 127.086 49.568C127.384 50.208 127.534 50.9493 127.534 51.792C127.534 52.624 127.384 53.3653 127.086 54.016C126.787 54.6667 126.339 55.1787 125.742 55.552C125.155 55.9147 124.414 56.096 123.518 56.096ZM123.518 54.896C124.136 54.896 124.638 54.7573 125.022 54.48C125.416 54.2027 125.704 53.8293 125.886 53.36C126.078 52.8907 126.174 52.368 126.174 51.792C126.174 51.216 126.078 50.6933 125.886 50.224C125.704 49.7547 125.416 49.3813 125.022 49.104C124.638 48.8267 124.136 48.688 123.518 48.688C122.91 48.688 122.408 48.8267 122.014 49.104C121.63 49.3813 121.342 49.7547 121.15 50.224C120.968 50.6933 120.878 51.216 120.878 51.792C120.878 52.368 120.968 52.8907 121.15 53.36C121.342 53.8293 121.63 54.2027 122.014 54.48C122.408 54.7573 122.91 54.896 123.518 54.896ZM128.349 56L131.085 51.584L128.589 47.568H130.045L132.269 51.216H133.533V47.568H134.893V51.216H136.157L138.381 47.568H139.837L137.341 51.584L140.077 56H138.493L136.301 52.368H134.893V56H133.533V52.368H132.125L129.933 56H128.349ZM141.369 56V47.568H142.729V51.264H146.953V47.568H148.313V56H146.953V52.464H142.729V56H141.369ZM154.143 56.096C153.257 56.096 152.516 55.9147 151.919 55.552C151.321 55.1787 150.873 54.6667 150.575 54.016C150.287 53.3653 150.143 52.624 150.143 51.792C150.143 50.9493 150.287 50.208 150.575 49.568C150.873 48.9173 151.321 48.4053 151.919 48.032C152.516 47.6587 153.268 47.472 154.175 47.472C155.06 47.472 155.796 47.6587 156.383 48.032C156.98 48.4053 157.423 48.9173 157.711 49.568C158.009 50.208 158.159 50.9493 158.159 51.792C158.159 52.624 158.009 53.3653 157.711 54.016C157.412 54.6667 156.964 55.1787 156.367 55.552C155.78 55.9147 155.039 56.096 154.143 56.096ZM154.143 54.896C154.761 54.896 155.263 54.7573 155.647 54.48C156.041 54.2027 156.329 53.8293 156.511 53.36C156.703 52.8907 156.799 52.368 156.799 51.792C156.799 51.216 156.703 50.6933 156.511 50.224C156.329 49.7547 156.041 49.3813 155.647 49.104C155.263 48.8267 154.761 48.688 154.143 48.688C153.535 48.688 153.033 48.8267 152.639 49.104C152.255 49.3813 151.967 49.7547 151.775 50.224C151.593 50.6933 151.503 51.216 151.503 51.792C151.503 52.368 151.593 52.8907 151.775 53.36C151.967 53.8293 152.255 54.2027 152.639 54.48C153.033 54.7573 153.535 54.896 154.143 54.896ZM164.291 59.04V47.568H165.587L165.651 48.864C165.939 48.4053 166.328 48.0587 166.819 47.824C167.32 47.5893 167.859 47.472 168.435 47.472C169.288 47.472 169.987 47.664 170.531 48.048C171.075 48.4213 171.475 48.9333 171.731 49.584C171.997 50.2347 172.131 50.9707 172.131 51.792C172.131 52.6133 171.997 53.3493 171.731 54C171.464 54.6507 171.053 55.1627 170.499 55.536C169.944 55.9093 169.235 56.096 168.371 56.096C167.944 56.096 167.56 56.0533 167.219 55.968C166.877 55.872 166.579 55.7387 166.323 55.568C166.067 55.3973 165.843 55.2053 165.651 54.992V59.04H164.291ZM168.259 54.896C168.877 54.896 169.368 54.7573 169.731 54.48C170.093 54.192 170.355 53.8133 170.515 53.344C170.685 52.8747 170.771 52.3573 170.771 51.792C170.771 51.216 170.685 50.6933 170.515 50.224C170.355 49.7547 170.088 49.3813 169.715 49.104C169.341 48.8267 168.845 48.688 168.227 48.688C167.672 48.688 167.197 48.832 166.803 49.12C166.419 49.3973 166.125 49.776 165.923 50.256C165.72 50.7253 165.619 51.2427 165.619 51.808C165.619 52.3947 165.715 52.9227 165.907 53.392C166.099 53.8613 166.392 54.2293 166.787 54.496C167.181 54.7627 167.672 54.896 168.259 54.896ZM177.533 56.096C176.637 56.096 175.895 55.9147 175.309 55.552C174.722 55.1787 174.285 54.6667 173.997 54.016C173.709 53.3653 173.565 52.624 173.565 51.792C173.565 50.9493 173.714 50.208 174.013 49.568C174.322 48.9173 174.77 48.4053 175.357 48.032C175.943 47.6587 176.663 47.472 177.516 47.472C178.146 47.472 178.695 47.5947 179.165 47.84C179.645 48.0747 180.039 48.3947 180.349 48.8C180.669 49.2053 180.898 49.6587 181.036 50.16C181.186 50.6613 181.25 51.1787 181.229 51.712C181.218 51.808 181.213 51.904 181.213 52C181.213 52.096 181.207 52.192 181.197 52.288H174.941C174.983 52.7787 175.106 53.2213 175.309 53.616C175.511 54.0107 175.799 54.3253 176.173 54.56C176.546 54.784 177.01 54.896 177.565 54.896C177.842 54.896 178.119 54.864 178.397 54.8C178.685 54.7253 178.941 54.6027 179.165 54.432C179.399 54.2613 179.565 54.032 179.661 53.744H181.053C180.925 54.288 180.685 54.736 180.333 55.088C179.981 55.4293 179.559 55.6853 179.069 55.856C178.578 56.016 178.066 56.096 177.533 56.096ZM174.973 51.104H179.853C179.842 50.624 179.735 50.2027 179.533 49.84C179.33 49.4773 179.053 49.1947 178.701 48.992C178.359 48.7893 177.949 48.688 177.469 48.688C176.946 48.688 176.503 48.8 176.141 49.024C175.789 49.248 175.517 49.5413 175.325 49.904C175.133 50.2667 175.015 50.6667 174.973 51.104ZM182.149 58.592V54.816C182.458 54.816 182.704 54.7307 182.885 54.56C183.077 54.3893 183.226 54.1653 183.333 53.888C183.44 53.6107 183.52 53.312 183.573 52.992C183.626 52.6613 183.669 52.3467 183.701 52.048C183.754 51.5573 183.786 51.072 183.797 50.592C183.818 50.1013 183.829 49.712 183.829 49.424C183.84 49.1147 183.845 48.8053 183.845 48.496C183.845 48.1867 183.845 47.8773 183.845 47.568H189.829V54.816H190.933V58.592H189.621V56H183.461V58.592H182.149ZM184.309 54.816H188.469V48.768H185.141C185.13 49.216 185.12 49.7173 185.109 50.272C185.098 50.8267 185.077 51.344 185.045 51.824C185.034 52.1013 185.008 52.416 184.965 52.768C184.933 53.12 184.869 53.4773 184.773 53.84C184.677 54.192 184.522 54.5173 184.309 54.816ZM195.057 56.096C194.673 56.096 194.3 56.048 193.937 55.952C193.585 55.8453 193.265 55.6907 192.977 55.488C192.7 55.2747 192.476 55.0133 192.305 54.704C192.145 54.384 192.065 54.016 192.065 53.6C192.065 53.12 192.151 52.7147 192.321 52.384C192.503 52.0533 192.743 51.792 193.041 51.6C193.34 51.408 193.687 51.2693 194.081 51.184C194.476 51.0987 194.887 51.056 195.313 51.056H197.793C197.793 50.576 197.724 50.16 197.585 49.808C197.457 49.456 197.244 49.184 196.945 48.992C196.647 48.7893 196.252 48.688 195.761 48.688C195.463 48.688 195.185 48.72 194.929 48.784C194.673 48.848 194.455 48.9493 194.273 49.088C194.092 49.2267 193.959 49.4133 193.873 49.648H192.417C192.492 49.264 192.636 48.9387 192.849 48.672C193.073 48.3947 193.34 48.1707 193.649 48C193.969 47.8187 194.311 47.6853 194.673 47.6C195.036 47.5147 195.399 47.472 195.761 47.472C196.572 47.472 197.223 47.6373 197.713 47.968C198.204 48.288 198.561 48.7467 198.785 49.344C199.009 49.9307 199.121 50.6293 199.121 51.44V56H197.985L197.905 54.928C197.671 55.248 197.388 55.4933 197.057 55.664C196.727 55.8347 196.385 55.9467 196.033 56C195.692 56.064 195.367 56.096 195.057 56.096ZM195.185 54.896C195.719 54.896 196.177 54.8107 196.561 54.64C196.956 54.4587 197.26 54.1973 197.473 53.856C197.687 53.5147 197.793 53.0987 197.793 52.608V52.192H196.305C195.953 52.192 195.607 52.1973 195.265 52.208C194.924 52.2187 194.615 52.2613 194.337 52.336C194.06 52.4107 193.836 52.5387 193.665 52.72C193.505 52.9013 193.425 53.1627 193.425 53.504C193.425 53.824 193.505 54.0853 193.665 54.288C193.836 54.4907 194.055 54.6453 194.321 54.752C194.599 54.848 194.887 54.896 195.185 54.896ZM201.228 56V47.568H202.588V51.2H204.06L206.556 47.568H208.108L205.292 51.584L208.348 56H206.748L204.22 52.384H202.588V56H201.228ZM211.493 56V48.768H208.597V47.568H215.749V48.768H212.853V56H211.493ZM216.963 56V47.568H218.323V54.032C218.397 53.8827 218.499 53.7227 218.627 53.552C218.755 53.3707 218.856 53.232 218.931 53.136L223.011 47.568H224.355V56H222.995V49.536C222.909 49.696 222.813 49.8453 222.707 49.984C222.611 50.1227 222.52 50.2507 222.435 50.368L218.291 56H216.963ZM226.494 59.04V47.568H227.79L227.854 48.864C228.142 48.4053 228.531 48.0587 229.022 47.824C229.523 47.5893 230.062 47.472 230.638 47.472C231.491 47.472 232.19 47.664 232.734 48.048C233.278 48.4213 233.678 48.9333 233.934 49.584C234.201 50.2347 234.334 50.9707 234.334 51.792C234.334 52.6133 234.201 53.3493 233.934 54C233.667 54.6507 233.257 55.1627 232.702 55.536C232.147 55.9093 231.438 56.096 230.574 56.096C230.147 56.096 229.763 56.0533 229.422 55.968C229.081 55.872 228.782 55.7387 228.526 55.568C228.27 55.3973 228.046 55.2053 227.854 54.992V59.04H226.494ZM230.462 54.896C231.081 54.896 231.571 54.7573 231.934 54.48C232.297 54.192 232.558 53.8133 232.718 53.344C232.889 52.8747 232.974 52.3573 232.974 51.792C232.974 51.216 232.889 50.6933 232.718 50.224C232.558 49.7547 232.291 49.3813 231.918 49.104C231.545 48.8267 231.049 48.688 230.43 48.688C229.875 48.688 229.401 48.832 229.006 49.12C228.622 49.3973 228.329 49.776 228.126 50.256C227.923 50.7253 227.822 51.2427 227.822 51.808C227.822 52.3947 227.918 52.9227 228.11 53.392C228.302 53.8613 228.595 54.2293 228.99 54.496C229.385 54.7627 229.875 54.896 230.462 54.896ZM239.768 56.096C238.882 56.096 238.141 55.9147 237.544 55.552C236.946 55.1787 236.498 54.6667 236.2 54.016C235.912 53.3653 235.768 52.624 235.768 51.792C235.768 50.9493 235.912 50.208 236.2 49.568C236.498 48.9173 236.946 48.4053 237.544 48.032C238.141 47.6587 238.893 47.472 239.8 47.472C240.685 47.472 241.421 47.6587 242.008 48.032C242.605 48.4053 243.048 48.9173 243.336 49.568C243.634 50.208 243.784 50.9493 243.784 51.792C243.784 52.624 243.634 53.3653 243.336 54.016C243.037 54.6667 242.589 55.1787 241.992 55.552C241.405 55.9147 240.664 56.096 239.768 56.096ZM239.768 54.896C240.386 54.896 240.888 54.7573 241.272 54.48C241.666 54.2027 241.954 53.8293 242.136 53.36C242.328 52.8907 242.424 52.368 242.424 51.792C242.424 51.216 242.328 50.6933 242.136 50.224C241.954 49.7547 241.666 49.3813 241.272 49.104C240.888 48.8267 240.386 48.688 239.768 48.688C239.16 48.688 238.658 48.8267 238.264 49.104C237.88 49.3813 237.592 49.7547 237.4 50.224C237.218 50.6933 237.128 51.216 237.128 51.792C237.128 52.368 237.218 52.8907 237.4 53.36C237.592 53.8293 237.88 54.2027 238.264 54.48C238.658 54.7573 239.16 54.896 239.768 54.896ZM245.603 56V47.568H248.867C249.241 47.568 249.609 47.5947 249.971 47.648C250.345 47.6907 250.681 47.7867 250.979 47.936C251.289 48.0747 251.534 48.2827 251.715 48.56C251.907 48.8373 252.003 49.2053 252.003 49.664C252.003 49.9413 251.961 50.1973 251.875 50.432C251.79 50.656 251.662 50.8533 251.491 51.024C251.331 51.1947 251.123 51.344 250.867 51.472C251.443 51.6 251.859 51.8507 252.115 52.224C252.371 52.5973 252.499 53.024 252.499 53.504C252.499 53.9307 252.419 54.304 252.259 54.624C252.11 54.9333 251.897 55.1893 251.619 55.392C251.353 55.5947 251.038 55.7493 250.675 55.856C250.323 55.952 249.945 56 249.539 56H245.603ZM246.995 54.816H249.219C249.55 54.816 249.859 54.784 250.147 54.72C250.435 54.656 250.67 54.5387 250.851 54.368C251.033 54.1867 251.123 53.9307 251.123 53.6C251.123 53.2587 251.043 53.0027 250.883 52.832C250.734 52.6507 250.537 52.528 250.291 52.464C250.057 52.3893 249.801 52.3467 249.523 52.336C249.246 52.3253 248.985 52.32 248.739 52.32H246.995V54.816ZM246.995 51.168H248.163C248.377 51.168 248.622 51.1573 248.899 51.136C249.187 51.1147 249.465 51.0667 249.731 50.992C250.009 50.9067 250.233 50.7787 250.403 50.608C250.585 50.4373 250.675 50.2027 250.675 49.904C250.675 49.5093 250.563 49.2373 250.339 49.088C250.126 48.928 249.87 48.8373 249.571 48.816C249.273 48.784 248.995 48.768 248.739 48.768H246.995V51.168ZM257.057 56.096C256.673 56.096 256.3 56.048 255.937 55.952C255.585 55.8453 255.265 55.6907 254.977 55.488C254.7 55.2747 254.476 55.0133 254.305 54.704C254.145 54.384 254.065 54.016 254.065 53.6C254.065 53.12 254.151 52.7147 254.321 52.384C254.503 52.0533 254.743 51.792 255.041 51.6C255.34 51.408 255.687 51.2693 256.081 51.184C256.476 51.0987 256.887 51.056 257.313 51.056H259.793C259.793 50.576 259.724 50.16 259.585 49.808C259.457 49.456 259.244 49.184 258.945 48.992C258.647 48.7893 258.252 48.688 257.761 48.688C257.463 48.688 257.185 48.72 256.929 48.784C256.673 48.848 256.455 48.9493 256.273 49.088C256.092 49.2267 255.959 49.4133 255.873 49.648H254.417C254.492 49.264 254.636 48.9387 254.849 48.672C255.073 48.3947 255.34 48.1707 255.649 48C255.969 47.8187 256.311 47.6853 256.673 47.6C257.036 47.5147 257.399 47.472 257.761 47.472C258.572 47.472 259.223 47.6373 259.713 47.968C260.204 48.288 260.561 48.7467 260.785 49.344C261.009 49.9307 261.121 50.6293 261.121 51.44V56H259.985L259.905 54.928C259.671 55.248 259.388 55.4933 259.057 55.664C258.727 55.8347 258.385 55.9467 258.033 56C257.692 56.064 257.367 56.096 257.057 56.096ZM257.185 54.896C257.719 54.896 258.177 54.8107 258.561 54.64C258.956 54.4587 259.26 54.1973 259.473 53.856C259.687 53.5147 259.793 53.0987 259.793 52.608V52.192H258.305C257.953 52.192 257.607 52.1973 257.265 52.208C256.924 52.2187 256.615 52.2613 256.337 52.336C256.06 52.4107 255.836 52.5387 255.665 52.72C255.505 52.9013 255.425 53.1627 255.425 53.504C255.425 53.824 255.505 54.0853 255.665 54.288C255.836 54.4907 256.055 54.6453 256.321 54.752C256.599 54.848 256.887 54.896 257.185 54.896ZM265.196 56V48.768H262.3V47.568H269.452V48.768H266.556V56H265.196ZM270.666 56V47.568H272.058V50.784H273.914C274.415 50.784 274.863 50.8267 275.258 50.912C275.663 50.9867 276.01 51.12 276.298 51.312C276.586 51.504 276.804 51.7653 276.954 52.096C277.114 52.416 277.194 52.8267 277.194 53.328C277.194 53.7867 277.114 54.1867 276.954 54.528C276.794 54.8587 276.57 55.136 276.282 55.36C275.994 55.5733 275.647 55.7333 275.242 55.84C274.847 55.9467 274.41 56 273.93 56H270.666ZM272.058 54.816H272.858C273.231 54.816 273.588 54.8053 273.93 54.784C274.282 54.7627 274.602 54.7093 274.89 54.624C275.178 54.5387 275.402 54.4 275.562 54.208C275.732 54.0053 275.818 53.728 275.818 53.376C275.818 53.0347 275.748 52.7733 275.61 52.592C275.482 52.4 275.311 52.2613 275.098 52.176C274.884 52.08 274.65 52.0213 274.394 52C274.148 51.9787 273.903 51.968 273.658 51.968H272.058V54.816ZM283.275 56V47.568H290.267V56H288.907V48.768H284.635V56H283.275ZM296.096 56.096C295.21 56.096 294.469 55.9147 293.872 55.552C293.274 55.1787 292.826 54.6667 292.528 54.016C292.24 53.3653 292.096 52.624 292.096 51.792C292.096 50.9493 292.24 50.208 292.528 49.568C292.826 48.9173 293.274 48.4053 293.872 48.032C294.469 47.6587 295.221 47.472 296.128 47.472C297.013 47.472 297.749 47.6587 298.336 48.032C298.933 48.4053 299.376 48.9173 299.664 49.568C299.962 50.208 300.112 50.9493 300.112 51.792C300.112 52.624 299.962 53.3653 299.664 54.016C299.365 54.6667 298.917 55.1787 298.32 55.552C297.733 55.9147 296.992 56.096 296.096 56.096ZM296.096 54.896C296.714 54.896 297.216 54.7573 297.6 54.48C297.994 54.2027 298.282 53.8293 298.464 53.36C298.656 52.8907 298.752 52.368 298.752 51.792C298.752 51.216 298.656 50.6933 298.464 50.224C298.282 49.7547 297.994 49.3813 297.6 49.104C297.216 48.8267 296.714 48.688 296.096 48.688C295.488 48.688 294.986 48.8267 294.592 49.104C294.208 49.3813 293.92 49.7547 293.728 50.224C293.546 50.6933 293.456 51.216 293.456 51.792C293.456 52.368 293.546 52.8907 293.728 53.36C293.92 53.8293 294.208 54.2027 294.592 54.48C294.986 54.7573 295.488 54.896 296.096 54.896ZM301.085 56.016V54.832C301.299 54.832 301.491 54.7893 301.661 54.704C301.832 54.608 301.981 54.4693 302.109 54.288C302.259 54.0747 302.376 53.7653 302.461 53.36C302.547 52.9547 302.605 52.5227 302.637 52.064C302.68 51.552 302.712 51.0507 302.733 50.56C302.755 50.0587 302.771 49.5627 302.781 49.072C302.803 48.5813 302.813 48.08 302.813 47.568H308.669V56H307.309V48.768H304.141C304.131 49.1307 304.115 49.4987 304.093 49.872C304.083 50.2347 304.067 50.6027 304.045 50.976C304.035 51.3387 304.019 51.7067 303.997 52.08C303.987 52.5067 303.944 52.9867 303.869 53.52C303.795 54.0533 303.635 54.5387 303.389 54.976C303.155 55.392 302.867 55.6693 302.525 55.808C302.195 55.9467 301.715 56.016 301.085 56.016ZM314.486 56.096C313.601 56.096 312.86 55.9147 312.262 55.552C311.665 55.1787 311.217 54.6667 310.918 54.016C310.63 53.3653 310.486 52.624 310.486 51.792C310.486 50.9493 310.63 50.208 310.918 49.568C311.217 48.9173 311.665 48.4053 312.262 48.032C312.86 47.6587 313.612 47.472 314.518 47.472C315.404 47.472 316.14 47.6587 316.726 48.032C317.324 48.4053 317.766 48.9173 318.054 49.568C318.353 50.208 318.502 50.9493 318.502 51.792C318.502 52.624 318.353 53.3653 318.054 54.016C317.756 54.6667 317.308 55.1787 316.71 55.552C316.124 55.9147 315.382 56.096 314.486 56.096ZM314.486 54.896C315.105 54.896 315.606 54.7573 315.99 54.48C316.385 54.2027 316.673 53.8293 316.854 53.36C317.046 52.8907 317.142 52.368 317.142 51.792C317.142 51.216 317.046 50.6933 316.854 50.224C316.673 49.7547 316.385 49.3813 315.99 49.104C315.606 48.8267 315.105 48.688 314.486 48.688C313.878 48.688 313.377 48.8267 312.982 49.104C312.598 49.3813 312.31 49.7547 312.118 50.224C311.937 50.6933 311.846 51.216 311.846 51.792C311.846 52.368 311.937 52.8907 312.118 53.36C312.31 53.8293 312.598 54.2027 312.982 54.48C313.377 54.7573 313.878 54.896 314.486 54.896ZM319.318 56L322.054 51.584L319.558 47.568H321.014L323.238 51.216H324.502V47.568H325.862V51.216H327.126L329.35 47.568H330.806L328.31 51.584L331.046 56H329.462L327.27 52.368H325.862V56H324.502V52.368H323.094L320.902 56H319.318ZM335.829 56.096C334.933 56.096 334.192 55.9147 333.605 55.552C333.019 55.1787 332.581 54.6667 332.293 54.016C332.005 53.3653 331.861 52.624 331.861 51.792C331.861 50.9493 332.011 50.208 332.309 49.568C332.619 48.9173 333.067 48.4053 333.653 48.032C334.24 47.6587 334.96 47.472 335.813 47.472C336.443 47.472 336.992 47.5947 337.461 47.84C337.941 48.0747 338.336 48.3947 338.645 48.8C338.965 49.2053 339.195 49.6587 339.333 50.16C339.483 50.6613 339.547 51.1787 339.525 51.712C339.515 51.808 339.509 51.904 339.509 52C339.509 52.096 339.504 52.192 339.493 52.288H333.237C333.28 52.7787 333.403 53.2213 333.605 53.616C333.808 54.0107 334.096 54.3253 334.469 54.56C334.843 54.784 335.307 54.896 335.861 54.896C336.139 54.896 336.416 54.864 336.693 54.8C336.981 54.7253 337.237 54.6027 337.461 54.432C337.696 54.2613 337.861 54.032 337.957 53.744H339.349C339.221 54.288 338.981 54.736 338.629 55.088C338.277 55.4293 337.856 55.6853 337.365 55.856C336.875 56.016 336.363 56.096 335.829 56.096ZM333.269 51.104H338.149C338.139 50.624 338.032 50.2027 337.829 49.84C337.627 49.4773 337.349 49.1947 336.997 48.992C336.656 48.7893 336.245 48.688 335.765 48.688C335.243 48.688 334.8 48.8 334.437 49.024C334.085 49.248 333.813 49.5413 333.621 49.904C333.429 50.2667 333.312 50.6667 333.269 51.104ZM341.353 56V47.568H342.713V51.264H346.937V47.568H348.297V56H346.937V52.464H342.713V56H341.353ZM350.447 56V47.568H351.807V54.032C351.882 53.8827 351.983 53.7227 352.111 53.552C352.239 53.3707 352.34 53.232 352.415 53.136L356.495 47.568H357.839V56H356.479V49.536C356.394 49.696 356.298 49.8453 356.191 49.984C356.095 50.1227 356.004 50.2507 355.919 50.368L351.775 56H350.447ZM363.626 56.096C362.73 56.096 361.989 55.9147 361.402 55.552C360.816 55.1787 360.378 54.6667 360.09 54.016C359.802 53.3653 359.658 52.624 359.658 51.792C359.658 50.9493 359.808 50.208 360.106 49.568C360.416 48.9173 360.864 48.4053 361.45 48.032C362.037 47.6587 362.757 47.472 363.61 47.472C364.24 47.472 364.789 47.5947 365.258 47.84C365.738 48.0747 366.133 48.3947 366.442 48.8C366.762 49.2053 366.992 49.6587 367.13 50.16C367.28 50.6613 367.344 51.1787 367.322 51.712C367.312 51.808 367.306 51.904 367.306 52C367.306 52.096 367.301 52.192 367.29 52.288H361.034C361.077 52.7787 361.2 53.2213 361.402 53.616C361.605 54.0107 361.893 54.3253 362.266 54.56C362.64 54.784 363.104 54.896 363.658 54.896C363.936 54.896 364.213 54.864 364.49 54.8C364.778 54.7253 365.034 54.6027 365.258 54.432C365.493 54.2613 365.658 54.032 365.754 53.744H367.146C367.018 54.288 366.778 54.736 366.426 55.088C366.074 55.4293 365.653 55.6853 365.162 55.856C364.672 56.016 364.16 56.096 363.626 56.096ZM361.066 51.104H365.946C365.936 50.624 365.829 50.2027 365.626 49.84C365.424 49.4773 365.146 49.1947 364.794 48.992C364.453 48.7893 364.042 48.688 363.562 48.688C363.04 48.688 362.597 48.8 362.234 49.024C361.882 49.248 361.61 49.5413 361.418 49.904C361.226 50.2667 361.109 50.6667 361.066 51.104ZM106.072 76V67.568H107.432V74.032C107.507 73.8827 107.608 73.7227 107.736 73.552C107.864 73.3707 107.965 73.232 108.04 73.136L112.12 67.568H113.464V76H112.104V69.536C112.019 69.696 111.923 69.8453 111.816 69.984C111.72 70.1227 111.629 70.2507 111.544 70.368L107.4 76H106.072ZM119.916 76V67.568H126.908V76H125.548V68.768H121.276V76H119.916ZM132.736 76.096C131.851 76.096 131.11 75.9147 130.512 75.552C129.915 75.1787 129.467 74.6667 129.168 74.016C128.88 73.3653 128.736 72.624 128.736 71.792C128.736 70.9493 128.88 70.208 129.168 69.568C129.467 68.9173 129.915 68.4053 130.512 68.032C131.11 67.6587 131.862 67.472 132.768 67.472C133.654 67.472 134.39 67.6587 134.976 68.032C135.574 68.4053 136.016 68.9173 136.304 69.568C136.603 70.208 136.752 70.9493 136.752 71.792C136.752 72.624 136.603 73.3653 136.304 74.016C136.006 74.6667 135.558 75.1787 134.96 75.552C134.374 75.9147 133.632 76.096 132.736 76.096ZM132.736 74.896C133.355 74.896 133.856 74.7573 134.24 74.48C134.635 74.2027 134.923 73.8293 135.104 73.36C135.296 72.8907 135.392 72.368 135.392 71.792C135.392 71.216 135.296 70.6933 135.104 70.224C134.923 69.7547 134.635 69.3813 134.24 69.104C133.856 68.8267 133.355 68.688 132.736 68.688C132.128 68.688 131.627 68.8267 131.232 69.104C130.848 69.3813 130.56 69.7547 130.368 70.224C130.187 70.6933 130.096 71.216 130.096 71.792C130.096 72.368 130.187 72.8907 130.368 73.36C130.56 73.8293 130.848 74.2027 131.232 74.48C131.627 74.7573 132.128 74.896 132.736 74.896ZM138.572 76V67.568H141.836C142.209 67.568 142.577 67.5947 142.94 67.648C143.313 67.6907 143.649 67.7867 143.948 67.936C144.257 68.0747 144.503 68.2827 144.684 68.56C144.876 68.8373 144.972 69.2053 144.972 69.664C144.972 69.9413 144.929 70.1973 144.844 70.432C144.759 70.656 144.631 70.8533 144.46 71.024C144.3 71.1947 144.092 71.344 143.836 71.472C144.412 71.6 144.828 71.8507 145.084 72.224C145.34 72.5973 145.468 73.024 145.468 73.504C145.468 73.9307 145.388 74.304 145.228 74.624C145.079 74.9333 144.865 75.1893 144.588 75.392C144.321 75.5947 144.007 75.7493 143.644 75.856C143.292 75.952 142.913 76 142.508 76H138.572ZM139.964 74.816H142.188C142.519 74.816 142.828 74.784 143.116 74.72C143.404 74.656 143.639 74.5387 143.82 74.368C144.001 74.1867 144.092 73.9307 144.092 73.6C144.092 73.2587 144.012 73.0027 143.852 72.832C143.703 72.6507 143.505 72.528 143.26 72.464C143.025 72.3893 142.769 72.3467 142.492 72.336C142.215 72.3253 141.953 72.32 141.708 72.32H139.964V74.816ZM139.964 71.168H141.132C141.345 71.168 141.591 71.1573 141.868 71.136C142.156 71.1147 142.433 71.0667 142.7 70.992C142.977 70.9067 143.201 70.7787 143.372 70.608C143.553 70.4373 143.644 70.2027 143.644 69.904C143.644 69.5093 143.532 69.2373 143.308 69.088C143.095 68.928 142.839 68.8373 142.54 68.816C142.241 68.784 141.964 68.768 141.708 68.768H139.964V71.168ZM151.002 76.096C150.117 76.096 149.375 75.9147 148.778 75.552C148.181 75.1787 147.733 74.6667 147.434 74.016C147.146 73.3653 147.002 72.624 147.002 71.792C147.002 70.9493 147.146 70.208 147.434 69.568C147.733 68.9173 148.181 68.4053 148.778 68.032C149.375 67.6587 150.127 67.472 151.034 67.472C151.919 67.472 152.655 67.6587 153.242 68.032C153.839 68.4053 154.282 68.9173 154.57 69.568C154.869 70.208 155.018 70.9493 155.018 71.792C155.018 72.624 154.869 73.3653 154.57 74.016C154.271 74.6667 153.823 75.1787 153.226 75.552C152.639 75.9147 151.898 76.096 151.002 76.096ZM151.002 74.896C151.621 74.896 152.122 74.7573 152.506 74.48C152.901 74.2027 153.189 73.8293 153.37 73.36C153.562 72.8907 153.658 72.368 153.658 71.792C153.658 71.216 153.562 70.6933 153.37 70.224C153.189 69.7547 152.901 69.3813 152.506 69.104C152.122 68.8267 151.621 68.688 151.002 68.688C150.394 68.688 149.893 68.8267 149.498 69.104C149.114 69.3813 148.826 69.7547 148.634 70.224C148.453 70.6933 148.362 71.216 148.362 71.792C148.362 72.368 148.453 72.8907 148.634 73.36C148.826 73.8293 149.114 74.2027 149.498 74.48C149.893 74.7573 150.394 74.896 151.002 74.896ZM156.838 79.04V67.568H158.134L158.198 68.864C158.486 68.4053 158.875 68.0587 159.366 67.824C159.867 67.5893 160.406 67.472 160.982 67.472C161.835 67.472 162.534 67.664 163.078 68.048C163.622 68.4213 164.022 68.9333 164.278 69.584C164.544 70.2347 164.678 70.9707 164.678 71.792C164.678 72.6133 164.544 73.3493 164.278 74C164.011 74.6507 163.6 75.1627 163.046 75.536C162.491 75.9093 161.782 76.096 160.918 76.096C160.491 76.096 160.107 76.0533 159.766 75.968C159.424 75.872 159.126 75.7387 158.87 75.568C158.614 75.3973 158.39 75.2053 158.198 74.992V79.04H156.838ZM160.806 74.896C161.424 74.896 161.915 74.7573 162.278 74.48C162.64 74.192 162.902 73.8133 163.062 73.344C163.232 72.8747 163.318 72.3573 163.318 71.792C163.318 71.216 163.232 70.6933 163.062 70.224C162.902 69.7547 162.635 69.3813 162.262 69.104C161.888 68.8267 161.392 68.688 160.774 68.688C160.219 68.688 159.744 68.832 159.35 69.12C158.966 69.3973 158.672 69.776 158.47 70.256C158.267 70.7253 158.166 71.2427 158.166 71.808C158.166 72.3947 158.262 72.9227 158.454 73.392C158.646 73.8613 158.939 74.2293 159.334 74.496C159.728 74.7627 160.219 74.896 160.806 74.896ZM170.111 76.096C169.226 76.096 168.485 75.9147 167.887 75.552C167.29 75.1787 166.842 74.6667 166.543 74.016C166.255 73.3653 166.111 72.624 166.111 71.792C166.111 70.9493 166.255 70.208 166.543 69.568C166.842 68.9173 167.29 68.4053 167.887 68.032C168.485 67.6587 169.237 67.472 170.143 67.472C171.029 67.472 171.765 67.6587 172.351 68.032C172.949 68.4053 173.391 68.9173 173.679 69.568C173.978 70.208 174.127 70.9493 174.127 71.792C174.127 72.624 173.978 73.3653 173.679 74.016C173.381 74.6667 172.933 75.1787 172.335 75.552C171.749 75.9147 171.007 76.096 170.111 76.096ZM170.111 74.896C170.73 74.896 171.231 74.7573 171.615 74.48C172.01 74.2027 172.298 73.8293 172.479 73.36C172.671 72.8907 172.767 72.368 172.767 71.792C172.767 71.216 172.671 70.6933 172.479 70.224C172.298 69.7547 172.01 69.3813 171.615 69.104C171.231 68.8267 170.73 68.688 170.111 68.688C169.503 68.688 169.002 68.8267 168.607 69.104C168.223 69.3813 167.935 69.7547 167.743 70.224C167.562 70.6933 167.471 71.216 167.471 71.792C167.471 72.368 167.562 72.8907 167.743 73.36C167.935 73.8293 168.223 74.2027 168.607 74.48C169.002 74.7573 169.503 74.896 170.111 74.896ZM177.915 76V68.768H175.019V67.568H182.171V68.768H179.275V76H177.915ZM187.697 76V67.568H189.521L192.257 71.792L194.945 67.568H196.737V76H195.393V69.072L192.417 73.84H192.033L189.041 69.072V76H187.697ZM202.533 76.096C201.637 76.096 200.895 75.9147 200.309 75.552C199.722 75.1787 199.285 74.6667 198.997 74.016C198.709 73.3653 198.565 72.624 198.565 71.792C198.565 70.9493 198.714 70.208 199.013 69.568C199.322 68.9173 199.77 68.4053 200.357 68.032C200.943 67.6587 201.663 67.472 202.516 67.472C203.146 67.472 203.695 67.5947 204.165 67.84C204.645 68.0747 205.039 68.3947 205.349 68.8C205.669 69.2053 205.898 69.6587 206.036 70.16C206.186 70.6613 206.25 71.1787 206.229 71.712C206.218 71.808 206.213 71.904 206.213 72C206.213 72.096 206.207 72.192 206.197 72.288H199.941C199.983 72.7787 200.106 73.2213 200.309 73.616C200.511 74.0107 200.799 74.3253 201.173 74.56C201.546 74.784 202.01 74.896 202.565 74.896C202.842 74.896 203.119 74.864 203.397 74.8C203.685 74.7253 203.941 74.6027 204.165 74.432C204.399 74.2613 204.565 74.032 204.661 73.744H206.053C205.925 74.288 205.685 74.736 205.333 75.088C204.981 75.4293 204.559 75.6853 204.069 75.856C203.578 76.016 203.066 76.096 202.533 76.096ZM199.973 71.104H204.853C204.842 70.624 204.735 70.2027 204.533 69.84C204.33 69.4773 204.053 69.1947 203.701 68.992C203.359 68.7893 202.949 68.688 202.469 68.688C201.946 68.688 201.503 68.8 201.141 69.024C200.789 69.248 200.517 69.5413 200.325 69.904C200.133 70.2667 200.015 70.6667 199.973 71.104ZM211.765 76.096C211.231 76.096 210.757 76.0213 210.341 75.872C209.925 75.712 209.567 75.4933 209.269 75.216C208.97 74.928 208.725 74.592 208.533 74.208C208.341 73.8133 208.197 73.3867 208.101 72.928C208.005 72.4693 207.957 71.984 207.957 71.472C207.957 70.6507 207.973 69.888 208.005 69.184C208.047 68.4693 208.165 67.8347 208.357 67.28C208.549 66.7147 208.874 66.2453 209.333 65.872C209.791 65.4987 210.437 65.2373 211.269 65.088C211.695 65.0133 212.117 64.9493 212.533 64.896C212.949 64.8427 213.37 64.7893 213.797 64.736C213.935 64.7147 214.079 64.6933 214.229 64.672C214.378 64.6507 214.533 64.624 214.693 64.592C214.863 64.56 215.023 64.5333 215.173 64.512V65.76C215.055 65.8027 214.927 65.84 214.789 65.872C214.661 65.8933 214.522 65.9147 214.373 65.936C214.234 65.9573 214.09 65.9733 213.941 65.984C213.802 65.9947 213.663 66.0107 213.525 66.032C213.386 66.0427 213.253 66.0587 213.125 66.08C212.751 66.1227 212.357 66.1653 211.941 66.208C211.525 66.24 211.13 66.3253 210.757 66.464C210.394 66.592 210.085 66.8427 209.829 67.216C209.701 67.408 209.589 67.6373 209.493 67.904C209.407 68.1707 209.343 68.4427 209.301 68.72C209.269 68.9867 209.247 69.2427 209.237 69.488C209.45 69.1893 209.711 68.9493 210.021 68.768C210.33 68.576 210.661 68.4373 211.013 68.352C211.365 68.256 211.701 68.208 212.021 68.208C212.789 68.208 213.439 68.368 213.973 68.688C214.506 68.9973 214.911 69.44 215.189 70.016C215.466 70.592 215.605 71.264 215.605 72.032C215.605 72.8 215.455 73.4933 215.157 74.112C214.858 74.72 214.421 75.2053 213.845 75.568C213.279 75.92 212.586 76.096 211.765 76.096ZM211.797 74.896C212.33 74.896 212.778 74.768 213.141 74.512C213.503 74.256 213.775 73.9147 213.957 73.488C214.149 73.0613 214.245 72.592 214.245 72.08C214.245 71.5787 214.149 71.1307 213.957 70.736C213.775 70.3307 213.503 70.0107 213.141 69.776C212.789 69.5413 212.351 69.424 211.829 69.424C211.317 69.424 210.874 69.5467 210.501 69.792C210.138 70.0373 209.855 70.368 209.653 70.784C209.461 71.1893 209.365 71.632 209.365 72.112C209.365 72.6027 209.455 73.0613 209.637 73.488C209.818 73.9147 210.085 74.256 210.437 74.512C210.799 74.768 211.253 74.896 211.797 74.896ZM221.079 76.096C220.183 76.096 219.442 75.9147 218.855 75.552C218.269 75.1787 217.831 74.6667 217.543 74.016C217.255 73.3653 217.111 72.624 217.111 71.792C217.111 70.9493 217.261 70.208 217.559 69.568C217.869 68.9173 218.317 68.4053 218.903 68.032C219.49 67.6587 220.21 67.472 221.063 67.472C221.693 67.472 222.242 67.5947 222.711 67.84C223.191 68.0747 223.586 68.3947 223.895 68.8C224.215 69.2053 224.445 69.6587 224.583 70.16C224.733 70.6613 224.797 71.1787 224.775 71.712C224.765 71.808 224.759 71.904 224.759 72C224.759 72.096 224.754 72.192 224.743 72.288H218.487C218.53 72.7787 218.653 73.2213 218.855 73.616C219.058 74.0107 219.346 74.3253 219.719 74.56C220.093 74.784 220.557 74.896 221.111 74.896C221.389 74.896 221.666 74.864 221.943 74.8C222.231 74.7253 222.487 74.6027 222.711 74.432C222.946 74.2613 223.111 74.032 223.207 73.744H224.599C224.471 74.288 224.231 74.736 223.879 75.088C223.527 75.4293 223.106 75.6853 222.615 75.856C222.125 76.016 221.613 76.096 221.079 76.096ZM218.519 71.104H223.399C223.389 70.624 223.282 70.2027 223.079 69.84C222.877 69.4773 222.599 69.1947 222.247 68.992C221.906 68.7893 221.495 68.688 221.015 68.688C220.493 68.688 220.05 68.8 219.687 69.024C219.335 69.248 219.063 69.5413 218.871 69.904C218.679 70.2667 218.562 70.6667 218.519 71.104ZM225.757 76.016V74.832C225.97 74.832 226.162 74.7893 226.333 74.704C226.504 74.608 226.653 74.4693 226.781 74.288C226.93 74.0747 227.048 73.7653 227.133 73.36C227.218 72.9547 227.277 72.5227 227.309 72.064C227.352 71.552 227.384 71.0507 227.405 70.56C227.426 70.0587 227.442 69.5627 227.453 69.072C227.474 68.5813 227.485 68.08 227.485 67.568H233.341V76H231.981V68.768H228.813C228.802 69.1307 228.786 69.4987 228.765 69.872C228.754 70.2347 228.738 70.6027 228.717 70.976C228.706 71.3387 228.69 71.7067 228.669 72.08C228.658 72.5067 228.616 72.9867 228.541 73.52C228.466 74.0533 228.306 74.5387 228.061 74.976C227.826 75.392 227.538 75.6693 227.197 75.808C226.866 75.9467 226.386 76.016 225.757 76.016ZM235.478 76V67.568H236.838V74.032C236.913 73.8827 237.014 73.7227 237.142 73.552C237.27 73.3707 237.372 73.232 237.446 73.136L241.526 67.568H242.87V76H241.51V69.536C241.425 69.696 241.329 69.8453 241.222 69.984C241.126 70.1227 241.036 70.2507 240.95 70.368L236.806 76H235.478ZM249.322 76V67.568H252.586C252.959 67.568 253.327 67.5947 253.69 67.648C254.063 67.6907 254.399 67.7867 254.698 67.936C255.007 68.0747 255.253 68.2827 255.434 68.56C255.626 68.8373 255.722 69.2053 255.722 69.664C255.722 69.9413 255.679 70.1973 255.594 70.432C255.509 70.656 255.381 70.8533 255.21 71.024C255.05 71.1947 254.842 71.344 254.586 71.472C255.162 71.6 255.578 71.8507 255.834 72.224C256.09 72.5973 256.218 73.024 256.218 73.504C256.218 73.9307 256.138 74.304 255.978 74.624C255.829 74.9333 255.615 75.1893 255.338 75.392C255.071 75.5947 254.757 75.7493 254.394 75.856C254.042 75.952 253.663 76 253.258 76H249.322ZM250.714 74.816H252.938C253.269 74.816 253.578 74.784 253.866 74.72C254.154 74.656 254.389 74.5387 254.57 74.368C254.751 74.1867 254.842 73.9307 254.842 73.6C254.842 73.2587 254.762 73.0027 254.602 72.832C254.453 72.6507 254.255 72.528 254.01 72.464C253.775 72.3893 253.519 72.3467 253.242 72.336C252.965 72.3253 252.703 72.32 252.458 72.32H250.714V74.816ZM250.714 71.168H251.882C252.095 71.168 252.341 71.1573 252.618 71.136C252.906 71.1147 253.183 71.0667 253.45 70.992C253.727 70.9067 253.951 70.7787 254.122 70.608C254.303 70.4373 254.394 70.2027 254.394 69.904C254.394 69.5093 254.282 69.2373 254.058 69.088C253.845 68.928 253.589 68.8373 253.29 68.816C252.991 68.784 252.714 68.768 252.458 68.768H250.714V71.168ZM262.385 76V67.568H269.377V76H268.017V68.768H263.745V76H262.385ZM275.205 76.096C274.32 76.096 273.578 75.9147 272.981 75.552C272.384 75.1787 271.936 74.6667 271.637 74.016C271.349 73.3653 271.205 72.624 271.205 71.792C271.205 70.9493 271.349 70.208 271.637 69.568C271.936 68.9173 272.384 68.4053 272.981 68.032C273.578 67.6587 274.33 67.472 275.237 67.472C276.122 67.472 276.858 67.6587 277.445 68.032C278.042 68.4053 278.485 68.9173 278.773 69.568C279.072 70.208 279.221 70.9493 279.221 71.792C279.221 72.624 279.072 73.3653 278.773 74.016C278.474 74.6667 278.026 75.1787 277.429 75.552C276.842 75.9147 276.101 76.096 275.205 76.096ZM275.205 74.896C275.824 74.896 276.325 74.7573 276.709 74.48C277.104 74.2027 277.392 73.8293 277.573 73.36C277.765 72.8907 277.861 72.368 277.861 71.792C277.861 71.216 277.765 70.6933 277.573 70.224C277.392 69.7547 277.104 69.3813 276.709 69.104C276.325 68.8267 275.824 68.688 275.205 68.688C274.597 68.688 274.096 68.8267 273.701 69.104C273.317 69.3813 273.029 69.7547 272.837 70.224C272.656 70.6933 272.565 71.216 272.565 71.792C272.565 72.368 272.656 72.8907 272.837 73.36C273.029 73.8293 273.317 74.2027 273.701 74.48C274.096 74.7573 274.597 74.896 275.205 74.896ZM281.041 76V67.568H282.865L285.601 71.792L288.289 67.568H290.081V76H288.737V69.072L285.761 73.84H285.377L282.385 69.072V76H281.041ZM295.876 76.096C294.98 76.096 294.239 75.9147 293.652 75.552C293.066 75.1787 292.628 74.6667 292.34 74.016C292.052 73.3653 291.908 72.624 291.908 71.792C291.908 70.9493 292.058 70.208 292.356 69.568C292.666 68.9173 293.114 68.4053 293.7 68.032C294.287 67.6587 295.007 67.472 295.86 67.472C296.49 67.472 297.039 67.5947 297.508 67.84C297.988 68.0747 298.383 68.3947 298.692 68.8C299.012 69.2053 299.242 69.6587 299.38 70.16C299.53 70.6613 299.594 71.1787 299.572 71.712C299.562 71.808 299.556 71.904 299.556 72C299.556 72.096 299.551 72.192 299.54 72.288H293.284C293.327 72.7787 293.45 73.2213 293.652 73.616C293.855 74.0107 294.143 74.3253 294.516 74.56C294.89 74.784 295.354 74.896 295.908 74.896C296.186 74.896 296.463 74.864 296.74 74.8C297.028 74.7253 297.284 74.6027 297.508 74.432C297.743 74.2613 297.908 74.032 298.004 73.744H299.396C299.268 74.288 299.028 74.736 298.676 75.088C298.324 75.4293 297.903 75.6853 297.412 75.856C296.922 76.016 296.41 76.096 295.876 76.096ZM293.316 71.104H298.196C298.186 70.624 298.079 70.2027 297.876 69.84C297.674 69.4773 297.396 69.1947 297.044 68.992C296.703 68.7893 296.292 68.688 295.812 68.688C295.29 68.688 294.847 68.8 294.484 69.024C294.132 69.248 293.86 69.5413 293.668 69.904C293.476 70.2667 293.359 70.6667 293.316 71.104ZM311.64 78.592V76H301.4V67.568H302.76V74.816H305.928V67.568H307.288V74.816H310.488V67.568H311.848V74.816H312.952V78.592H311.64ZM318.017 76.096C317.121 76.096 316.38 75.9147 315.793 75.552C315.206 75.1787 314.769 74.6667 314.481 74.016C314.193 73.3653 314.049 72.624 314.049 71.792C314.049 70.9493 314.198 70.208 314.497 69.568C314.806 68.9173 315.254 68.4053 315.841 68.032C316.428 67.6587 317.148 67.472 318.001 67.472C318.63 67.472 319.18 67.5947 319.649 67.84C320.129 68.0747 320.524 68.3947 320.833 68.8C321.153 69.2053 321.382 69.6587 321.521 70.16C321.67 70.6613 321.734 71.1787 321.713 71.712C321.702 71.808 321.697 71.904 321.697 72C321.697 72.096 321.692 72.192 321.681 72.288H315.425C315.468 72.7787 315.59 73.2213 315.793 73.616C315.996 74.0107 316.284 74.3253 316.657 74.56C317.03 74.784 317.494 74.896 318.049 74.896C318.326 74.896 318.604 74.864 318.881 74.8C319.169 74.7253 319.425 74.6027 319.649 74.432C319.884 74.2613 320.049 74.032 320.145 73.744H321.537C321.409 74.288 321.169 74.736 320.817 75.088C320.465 75.4293 320.044 75.6853 319.553 75.856C319.062 76.016 318.55 76.096 318.017 76.096ZM315.457 71.104H320.337C320.326 70.624 320.22 70.2027 320.017 69.84C319.814 69.4773 319.537 69.1947 319.185 68.992C318.844 68.7893 318.433 68.688 317.953 68.688C317.43 68.688 316.988 68.8 316.625 69.024C316.273 69.248 316.001 69.5413 315.809 69.904C315.617 70.2667 315.5 70.6667 315.457 71.104ZM323.541 76V67.568H324.901V71.264H329.125V67.568H330.485V76H329.125V72.464H324.901V76H323.541ZM332.635 76V67.568H333.995V74.032C334.069 73.8827 334.171 73.7227 334.299 73.552C334.427 73.3707 334.528 73.232 334.603 73.136L338.683 67.568H340.027V76H338.667V69.536C338.581 69.696 338.485 69.8453 338.379 69.984C338.283 70.1227 338.192 70.2507 338.107 70.368L333.963 76H332.635ZM342.166 76V67.568H343.526V74.032C343.6 73.8827 343.702 73.7227 343.83 73.552C343.958 73.3707 344.059 73.232 344.134 73.136L348.214 67.568H349.558V76H348.198V69.536C348.112 69.696 348.016 69.8453 347.91 69.984C347.814 70.1227 347.723 70.2507 347.638 70.368L343.494 76H342.166ZM352.081 77.936L351.697 77.408C351.846 77.3013 351.985 77.1733 352.113 77.024C352.241 76.8747 352.353 76.7147 352.449 76.544C352.556 76.3733 352.63 76.2027 352.673 76.032C352.396 76.0107 352.172 75.92 352.001 75.76C351.83 75.6 351.745 75.3867 351.745 75.12C351.756 74.8427 351.852 74.624 352.033 74.464C352.225 74.2933 352.444 74.208 352.689 74.208C352.998 74.208 353.244 74.32 353.425 74.544C353.617 74.768 353.713 75.0827 353.713 75.488C353.713 75.808 353.633 76.1387 353.473 76.48C353.324 76.8213 353.126 77.12 352.881 77.376C352.636 77.6427 352.369 77.8293 352.081 77.936ZM362.401 76.096C362.017 76.096 361.644 76.048 361.281 75.952C360.929 75.8453 360.609 75.6907 360.321 75.488C360.044 75.2747 359.82 75.0133 359.649 74.704C359.489 74.384 359.409 74.016 359.409 73.6C359.409 73.12 359.494 72.7147 359.665 72.384C359.846 72.0533 360.086 71.792 360.385 71.6C360.684 71.408 361.03 71.2693 361.425 71.184C361.82 71.0987 362.23 71.056 362.657 71.056H365.137C365.137 70.576 365.068 70.16 364.929 69.808C364.801 69.456 364.588 69.184 364.289 68.992C363.99 68.7893 363.596 68.688 363.105 68.688C362.806 68.688 362.529 68.72 362.273 68.784C362.017 68.848 361.798 68.9493 361.617 69.088C361.436 69.2267 361.302 69.4133 361.217 69.648H359.761C359.836 69.264 359.98 68.9387 360.193 68.672C360.417 68.3947 360.684 68.1707 360.993 68C361.313 67.8187 361.654 67.6853 362.017 67.6C362.38 67.5147 362.742 67.472 363.105 67.472C363.916 67.472 364.566 67.6373 365.057 67.968C365.548 68.288 365.905 68.7467 366.129 69.344C366.353 69.9307 366.465 70.6293 366.465 71.44V76H365.329L365.249 74.928C365.014 75.248 364.732 75.4933 364.401 75.664C364.07 75.8347 363.729 75.9467 363.377 76C363.036 76.064 362.71 76.096 362.401 76.096ZM362.529 74.896C363.062 74.896 363.521 74.8107 363.905 74.64C364.3 74.4587 364.604 74.1973 364.817 73.856C365.03 73.5147 365.137 73.0987 365.137 72.608V72.192H363.649C363.297 72.192 362.95 72.1973 362.609 72.208C362.268 72.2187 361.958 72.2613 361.681 72.336C361.404 72.4107 361.18 72.5387 361.009 72.72C360.849 72.9013 360.769 73.1627 360.769 73.504C360.769 73.824 360.849 74.0853 361.009 74.288C361.18 74.4907 361.398 74.6453 361.665 74.752C361.942 74.848 362.23 74.896 362.529 74.896ZM108.04 96V88.768H105.144V87.568H112.296V88.768H109.4V96H108.04ZM116.214 96.096C115.83 96.096 115.456 96.048 115.094 95.952C114.742 95.8453 114.422 95.6907 114.134 95.488C113.856 95.2747 113.632 95.0133 113.462 94.704C113.302 94.384 113.222 94.016 113.222 93.6C113.222 93.12 113.307 92.7147 113.478 92.384C113.659 92.0533 113.899 91.792 114.198 91.6C114.496 91.408 114.843 91.2693 115.238 91.184C115.632 91.0987 116.043 91.056 116.47 91.056H118.95C118.95 90.576 118.88 90.16 118.742 89.808C118.614 89.456 118.4 89.184 118.102 88.992C117.803 88.7893 117.408 88.688 116.918 88.688C116.619 88.688 116.342 88.72 116.086 88.784C115.83 88.848 115.611 88.9493 115.43 89.088C115.248 89.2267 115.115 89.4133 115.03 89.648H113.574C113.648 89.264 113.792 88.9387 114.006 88.672C114.23 88.3947 114.496 88.1707 114.806 88C115.126 87.8187 115.467 87.6853 115.83 87.6C116.192 87.5147 116.555 87.472 116.918 87.472C117.728 87.472 118.379 87.6373 118.87 87.968C119.36 88.288 119.718 88.7467 119.942 89.344C120.166 89.9307 120.278 90.6293 120.278 91.44V96H119.142L119.062 94.928C118.827 95.248 118.544 95.4933 118.214 95.664C117.883 95.8347 117.542 95.9467 117.19 96C116.848 96.064 116.523 96.096 116.214 96.096ZM116.342 94.896C116.875 94.896 117.334 94.8107 117.718 94.64C118.112 94.4587 118.416 94.1973 118.63 93.856C118.843 93.5147 118.95 93.0987 118.95 92.608V92.192H117.462C117.11 92.192 116.763 92.1973 116.422 92.208C116.08 92.2187 115.771 92.2613 115.494 92.336C115.216 92.4107 114.992 92.5387 114.822 92.72C114.662 92.9013 114.582 93.1627 114.582 93.504C114.582 93.824 114.662 94.0853 114.822 94.288C114.992 94.4907 115.211 94.6453 115.478 94.752C115.755 94.848 116.043 94.896 116.342 94.896ZM122.385 96V87.568H123.745V91.2H125.217L127.713 87.568H129.265L126.449 91.584L129.505 96H127.905L125.377 92.384H123.745V96H122.385ZM129.833 96L132.569 91.584L130.073 87.568H131.529L133.753 91.216H135.017V87.568H136.377V91.216H137.641L139.865 87.568H141.321L138.825 91.584L141.561 96H139.977L137.785 92.368H136.377V96H135.017V92.368H133.609L131.417 96H129.833ZM146.345 96.096C145.449 96.096 144.708 95.9147 144.121 95.552C143.534 95.1787 143.097 94.6667 142.809 94.016C142.521 93.3653 142.377 92.624 142.377 91.792C142.377 90.9493 142.526 90.208 142.825 89.568C143.134 88.9173 143.582 88.4053 144.169 88.032C144.756 87.6587 145.476 87.472 146.329 87.472C146.958 87.472 147.508 87.5947 147.977 87.84C148.457 88.0747 148.852 88.3947 149.161 88.8C149.481 89.2053 149.71 89.6587 149.849 90.16C149.998 90.6613 150.062 91.1787 150.041 91.712C150.03 91.808 150.025 91.904 150.025 92C150.025 92.096 150.02 92.192 150.009 92.288H143.753C143.796 92.7787 143.918 93.2213 144.121 93.616C144.324 94.0107 144.612 94.3253 144.985 94.56C145.358 94.784 145.822 94.896 146.377 94.896C146.654 94.896 146.932 94.864 147.209 94.8C147.497 94.7253 147.753 94.6027 147.977 94.432C148.212 94.2613 148.377 94.032 148.473 93.744H149.865C149.737 94.288 149.497 94.736 149.145 95.088C148.793 95.4293 148.372 95.6853 147.881 95.856C147.39 96.016 146.878 96.096 146.345 96.096ZM143.785 91.104H148.665C148.654 90.624 148.548 90.2027 148.345 89.84C148.142 89.4773 147.865 89.1947 147.513 88.992C147.172 88.7893 146.761 88.688 146.281 88.688C145.758 88.688 145.316 88.8 144.953 89.024C144.601 89.248 144.329 89.5413 144.137 89.904C143.945 90.2667 143.828 90.6667 143.785 91.104ZM156.453 99.616V98.32C156.976 98.32 157.392 98.2453 157.701 98.096C158.011 97.9573 158.267 97.7333 158.469 97.424C158.683 97.1253 158.885 96.7413 159.077 96.272L155.381 87.568H156.981L159.829 94.672L162.165 87.568H163.701L161.333 94.208C161.216 94.5493 161.083 94.9333 160.933 95.36C160.784 95.7867 160.619 96.2187 160.437 96.656C160.256 97.104 160.053 97.5147 159.829 97.888C159.616 98.272 159.376 98.5813 159.109 98.816C158.885 99.0187 158.667 99.1787 158.453 99.296C158.24 99.4133 157.979 99.4933 157.669 99.536C157.371 99.5893 156.965 99.616 156.453 99.616ZM164.243 98.592V94.816C164.552 94.816 164.797 94.7307 164.979 94.56C165.171 94.3893 165.32 94.1653 165.427 93.888C165.533 93.6107 165.613 93.312 165.667 92.992C165.72 92.6613 165.763 92.3467 165.795 92.048C165.848 91.5573 165.88 91.072 165.891 90.592C165.912 90.1013 165.923 89.712 165.923 89.424C165.933 89.1147 165.939 88.8053 165.939 88.496C165.939 88.1867 165.939 87.8773 165.939 87.568H171.923V94.816H173.027V98.592H171.715V96H165.555V98.592H164.243ZM166.403 94.816H170.563V88.768H167.235C167.224 89.216 167.213 89.7173 167.203 90.272C167.192 90.8267 167.171 91.344 167.139 91.824C167.128 92.1013 167.101 92.416 167.059 92.768C167.027 93.12 166.963 93.4773 166.867 93.84C166.771 94.192 166.616 94.5173 166.403 94.816ZM177.151 96.096C176.767 96.096 176.394 96.048 176.031 95.952C175.679 95.8453 175.359 95.6907 175.071 95.488C174.794 95.2747 174.57 95.0133 174.399 94.704C174.239 94.384 174.159 94.016 174.159 93.6C174.159 93.12 174.244 92.7147 174.415 92.384C174.596 92.0533 174.836 91.792 175.135 91.6C175.434 91.408 175.78 91.2693 176.175 91.184C176.57 91.0987 176.98 91.056 177.407 91.056H179.887C179.887 90.576 179.818 90.16 179.679 89.808C179.551 89.456 179.338 89.184 179.039 88.992C178.74 88.7893 178.346 88.688 177.855 88.688C177.556 88.688 177.279 88.72 177.023 88.784C176.767 88.848 176.548 88.9493 176.367 89.088C176.186 89.2267 176.052 89.4133 175.967 89.648H174.511C174.586 89.264 174.73 88.9387 174.943 88.672C175.167 88.3947 175.434 88.1707 175.743 88C176.063 87.8187 176.404 87.6853 176.767 87.6C177.13 87.5147 177.492 87.472 177.855 87.472C178.666 87.472 179.316 87.6373 179.807 87.968C180.298 88.288 180.655 88.7467 180.879 89.344C181.103 89.9307 181.215 90.6293 181.215 91.44V96H180.079L179.999 94.928C179.764 95.248 179.482 95.4933 179.151 95.664C178.82 95.8347 178.479 95.9467 178.127 96C177.786 96.064 177.46 96.096 177.151 96.096ZM177.279 94.896C177.812 94.896 178.271 94.8107 178.655 94.64C179.05 94.4587 179.354 94.1973 179.567 93.856C179.78 93.5147 179.887 93.0987 179.887 92.608V92.192H178.399C178.047 92.192 177.7 92.1973 177.359 92.208C177.018 92.2187 176.708 92.2613 176.431 92.336C176.154 92.4107 175.93 92.5387 175.759 92.72C175.599 92.9013 175.519 93.1627 175.519 93.504C175.519 93.824 175.599 94.0853 175.759 94.288C175.93 94.4907 176.148 94.6453 176.415 94.752C176.692 94.848 176.98 94.896 177.279 94.896ZM182.554 96.016V94.832C182.767 94.832 182.959 94.7893 183.13 94.704C183.301 94.608 183.45 94.4693 183.578 94.288C183.727 94.0747 183.845 93.7653 183.93 93.36C184.015 92.9547 184.074 92.5227 184.106 92.064C184.149 91.552 184.181 91.0507 184.202 90.56C184.223 90.0587 184.239 89.5627 184.25 89.072C184.271 88.5813 184.282 88.08 184.282 87.568H190.138V96H188.778V88.768H185.61C185.599 89.1307 185.583 89.4987 185.562 89.872C185.551 90.2347 185.535 90.6027 185.514 90.976C185.503 91.3387 185.487 91.7067 185.466 92.08C185.455 92.5067 185.413 92.9867 185.338 93.52C185.263 94.0533 185.103 94.5387 184.858 94.976C184.623 95.392 184.335 95.6693 183.994 95.808C183.663 95.9467 183.183 96.016 182.554 96.016ZM191.747 96L193.939 92.672C193.331 92.5013 192.851 92.224 192.499 91.84C192.147 91.4453 191.971 90.9227 191.971 90.272C191.971 89.76 192.046 89.3333 192.195 88.992C192.344 88.64 192.563 88.3627 192.851 88.16C193.139 87.9467 193.486 87.7973 193.891 87.712C194.296 87.616 194.76 87.568 195.283 87.568H198.675V96H197.315V92.88H195.379L193.331 96H191.747ZM196.307 91.696H197.315V88.768H195.507C195.187 88.768 194.894 88.784 194.627 88.816C194.36 88.848 194.131 88.9173 193.939 89.024C193.758 89.12 193.614 89.264 193.507 89.456C193.4 89.6373 193.347 89.888 193.347 90.208C193.347 90.56 193.432 90.8373 193.603 91.04C193.784 91.2427 194.014 91.392 194.291 91.488C194.579 91.5733 194.899 91.632 195.251 91.664C195.603 91.6853 195.955 91.696 196.307 91.696ZM202.79 96V88.768H199.894V87.568H207.046V88.768H204.15V96H202.79ZM208.26 96V87.568H209.652V90.784H211.508C212.009 90.784 212.457 90.8267 212.852 90.912C213.257 90.9867 213.604 91.12 213.892 91.312C214.18 91.504 214.398 91.7653 214.548 92.096C214.708 92.416 214.788 92.8267 214.788 93.328C214.788 93.7867 214.708 94.1867 214.548 94.528C214.388 94.8587 214.164 95.136 213.876 95.36C213.588 95.5733 213.241 95.7333 212.836 95.84C212.441 95.9467 212.004 96 211.524 96H208.26ZM209.652 94.816H210.452C210.825 94.816 211.182 94.8053 211.524 94.784C211.876 94.7627 212.196 94.7093 212.484 94.624C212.772 94.5387 212.996 94.4 213.156 94.208C213.326 94.0053 213.412 93.728 213.412 93.376C213.412 93.0347 213.342 92.7733 213.204 92.592C213.076 92.4 212.905 92.2613 212.692 92.176C212.478 92.08 212.244 92.0213 211.988 92C211.742 91.9787 211.497 91.968 211.252 91.968H209.652V94.816ZM220.869 96V87.568H222.229V94.032C222.304 93.8827 222.405 93.7227 222.533 93.552C222.661 93.3707 222.762 93.232 222.837 93.136L226.917 87.568H228.261V96H226.901V89.536C226.816 89.696 226.72 89.8453 226.613 89.984C226.517 90.1227 226.426 90.2507 226.341 90.368L222.197 96H220.869ZM229.552 96L232.56 91.696L229.696 87.568H231.328L233.472 90.768L235.552 87.568H237.136L234.288 91.744L237.344 96H235.728L233.392 92.784L231.088 96H229.552ZM239.595 96.128C239.317 96.128 239.088 96.0373 238.907 95.856C238.725 95.6747 238.635 95.4453 238.635 95.168C238.635 94.8907 238.725 94.6613 238.907 94.48C239.088 94.2987 239.317 94.208 239.595 94.208C239.872 94.208 240.101 94.2987 240.283 94.48C240.464 94.6613 240.555 94.8907 240.555 95.168C240.555 95.4453 240.464 95.6747 240.283 95.856C240.101 96.0373 239.872 96.128 239.595 96.128ZM245.805 99.12V94.736C246.189 94.736 246.477 94.6667 246.669 94.528C246.872 94.3787 247.026 94.1813 247.133 93.936C247.218 93.7227 247.293 93.4667 247.357 93.168C247.421 92.8587 247.474 92.528 247.517 92.176C247.57 91.8133 247.608 91.4507 247.629 91.088C247.704 90.0213 247.757 88.9547 247.789 87.888C247.821 86.8213 247.842 85.7547 247.853 84.688H255.085V94.736H256.445V99.12H255.053V96H247.197V99.12H245.805ZM248.381 94.736H253.693V85.952H249.213L249.069 90.352C249.058 90.608 249.042 90.912 249.021 91.264C249.01 91.616 248.978 91.9893 248.925 92.384C248.882 92.768 248.818 93.1627 248.733 93.568C248.648 93.9733 248.53 94.3627 248.381 94.736ZM257.413 96.016V94.832C257.627 94.832 257.819 94.7893 257.989 94.704C258.16 94.608 258.309 94.4693 258.437 94.288C258.587 94.0747 258.704 93.7653 258.789 93.36C258.875 92.9547 258.933 92.5227 258.965 92.064C259.008 91.552 259.04 91.0507 259.061 90.56C259.083 90.0587 259.099 89.5627 259.109 89.072C259.131 88.5813 259.141 88.08 259.141 87.568H264.997V96H263.637V88.768H260.469C260.459 89.1307 260.443 89.4987 260.421 89.872C260.411 90.2347 260.395 90.6027 260.373 90.976C260.363 91.3387 260.347 91.7067 260.325 92.08C260.315 92.5067 260.272 92.9867 260.197 93.52C260.123 94.0533 259.963 94.5387 259.717 94.976C259.483 95.392 259.195 95.6693 258.853 95.808C258.523 95.9467 258.043 96.016 257.413 96.016ZM266.607 96L268.799 92.672C268.191 92.5013 267.711 92.224 267.359 91.84C267.007 91.4453 266.831 90.9227 266.831 90.272C266.831 89.76 266.905 89.3333 267.055 88.992C267.204 88.64 267.423 88.3627 267.711 88.16C267.999 87.9467 268.345 87.7973 268.751 87.712C269.156 87.616 269.62 87.568 270.143 87.568H273.535V96H272.175V92.88H270.239L268.191 96H266.607ZM271.167 91.696H272.175V88.768H270.367C270.047 88.768 269.753 88.784 269.487 88.816C269.22 88.848 268.991 88.9173 268.799 89.024C268.617 89.12 268.473 89.264 268.367 89.456C268.26 89.6373 268.207 89.888 268.207 90.208C268.207 90.56 268.292 90.8373 268.463 91.04C268.644 91.2427 268.873 91.392 269.151 91.488C269.439 91.5733 269.759 91.632 270.111 91.664C270.463 91.6853 270.815 91.696 271.167 91.696ZM283.114 96.096C282.559 96.096 282.026 96.0107 281.514 95.84C281.013 95.6587 280.586 95.3813 280.234 95.008C279.893 94.6347 279.663 94.16 279.546 93.584H280.954C281.039 93.9147 281.199 94.176 281.434 94.368C281.679 94.56 281.957 94.6987 282.266 94.784C282.575 94.8587 282.879 94.896 283.178 94.896C283.711 94.896 284.154 94.784 284.506 94.56C284.858 94.3253 285.125 94.0213 285.306 93.648C285.498 93.2747 285.599 92.864 285.61 92.416H281.914V91.232H285.626C285.594 90.7307 285.482 90.2933 285.29 89.92C285.098 89.536 284.826 89.2373 284.474 89.024C284.133 88.8 283.701 88.688 283.178 88.688C282.869 88.688 282.559 88.7307 282.25 88.816C281.951 88.8907 281.69 89.024 281.466 89.216C281.242 89.3973 281.087 89.6533 281.002 89.984H279.626C279.765 89.408 280.005 88.9387 280.346 88.576C280.687 88.2027 281.103 87.9253 281.594 87.744C282.085 87.5627 282.613 87.472 283.178 87.472C284.085 87.472 284.815 87.6587 285.37 88.032C285.935 88.4053 286.346 88.9173 286.602 89.568C286.869 90.2187 287.002 90.96 287.002 91.792C287.002 92.6453 286.863 93.3973 286.586 94.048C286.309 94.688 285.882 95.1893 285.306 95.552C284.741 95.9147 284.01 96.096 283.114 96.096ZM290.728 96V88.768H287.832V87.568H294.984V88.768H292.088V96H290.728ZM299.877 96.096C298.992 96.096 298.25 95.9147 297.653 95.552C297.056 95.1787 296.608 94.6667 296.309 94.016C296.021 93.3653 295.877 92.624 295.877 91.792C295.877 90.9493 296.021 90.208 296.309 89.568C296.608 88.9173 297.056 88.4053 297.653 88.032C298.25 87.6587 299.002 87.472 299.909 87.472C300.794 87.472 301.53 87.6587 302.117 88.032C302.714 88.4053 303.157 88.9173 303.445 89.568C303.744 90.208 303.893 90.9493 303.893 91.792C303.893 92.624 303.744 93.3653 303.445 94.016C303.146 94.6667 302.698 95.1787 302.101 95.552C301.514 95.9147 300.773 96.096 299.877 96.096ZM299.877 94.896C300.496 94.896 300.997 94.7573 301.381 94.48C301.776 94.2027 302.064 93.8293 302.245 93.36C302.437 92.8907 302.533 92.368 302.533 91.792C302.533 91.216 302.437 90.6933 302.245 90.224C302.064 89.7547 301.776 89.3813 301.381 89.104C300.997 88.8267 300.496 88.688 299.877 88.688C299.269 88.688 298.768 88.8267 298.373 89.104C297.989 89.3813 297.701 89.7547 297.509 90.224C297.328 90.6933 297.237 91.216 297.237 91.792C297.237 92.368 297.328 92.8907 297.509 93.36C297.701 93.8293 297.989 94.2027 298.373 94.48C298.768 94.7573 299.269 94.896 299.877 94.896ZM305.713 96V87.568H311.537V88.768H307.073V96H305.713ZM316.502 96.096C315.617 96.096 314.875 95.9147 314.278 95.552C313.681 95.1787 313.233 94.6667 312.934 94.016C312.646 93.3653 312.502 92.624 312.502 91.792C312.502 90.9493 312.646 90.208 312.934 89.568C313.233 88.9173 313.681 88.4053 314.278 88.032C314.875 87.6587 315.627 87.472 316.534 87.472C317.419 87.472 318.155 87.6587 318.742 88.032C319.339 88.4053 319.782 88.9173 320.07 89.568C320.369 90.208 320.518 90.9493 320.518 91.792C320.518 92.624 320.369 93.3653 320.07 94.016C319.771 94.6667 319.323 95.1787 318.726 95.552C318.139 95.9147 317.398 96.096 316.502 96.096ZM316.502 94.896C317.121 94.896 317.622 94.7573 318.006 94.48C318.401 94.2027 318.689 93.8293 318.87 93.36C319.062 92.8907 319.158 92.368 319.158 91.792C319.158 91.216 319.062 90.6933 318.87 90.224C318.689 89.7547 318.401 89.3813 318.006 89.104C317.622 88.8267 317.121 88.688 316.502 88.688C315.894 88.688 315.393 88.8267 314.998 89.104C314.614 89.3813 314.326 89.7547 314.134 90.224C313.953 90.6933 313.862 91.216 313.862 91.792C313.862 92.368 313.953 92.8907 314.134 93.36C314.326 93.8293 314.614 94.2027 314.998 94.48C315.393 94.7573 315.894 94.896 316.502 94.896ZM326.65 96V87.568H328.01V91.264H332.234V87.568H333.594V96H332.234V92.464H328.01V96H326.65ZM336.016 99.616V98.32C336.539 98.32 336.955 98.2453 337.264 98.096C337.573 97.9573 337.829 97.7333 338.032 97.424C338.245 97.1253 338.448 96.7413 338.64 96.272L334.944 87.568H336.544L339.392 94.672L341.728 87.568H343.264L340.896 94.208C340.779 94.5493 340.645 94.9333 340.496 95.36C340.347 95.7867 340.181 96.2187 340 96.656C339.819 97.104 339.616 97.5147 339.392 97.888C339.179 98.272 338.939 98.5813 338.672 98.816C338.448 99.0187 338.229 99.1787 338.016 99.296C337.803 99.4133 337.541 99.4933 337.232 99.536C336.933 99.5893 336.528 99.616 336.016 99.616ZM343.677 96L346.413 91.584L343.917 87.568H345.373L347.597 91.216H348.861V87.568H350.221V91.216H351.485L353.709 87.568H355.165L352.669 91.584L355.405 96H353.821L351.629 92.368H350.221V96H348.861V92.368H347.453L345.261 96H343.677ZM356.697 96V87.568H358.057V91.264H362.281V87.568H363.641V96H362.281V92.464H358.057V96H356.697ZM369.471 96.096C368.585 96.096 367.844 95.9147 367.247 95.552C366.649 95.1787 366.201 94.6667 365.903 94.016C365.615 93.3653 365.471 92.624 365.471 91.792C365.471 90.9493 365.615 90.208 365.903 89.568C366.201 88.9173 366.649 88.4053 367.247 88.032C367.844 87.6587 368.596 87.472 369.503 87.472C370.388 87.472 371.124 87.6587 371.711 88.032C372.308 88.4053 372.751 88.9173 373.039 89.568C373.337 90.208 373.487 90.9493 373.487 91.792C373.487 92.624 373.337 93.3653 373.039 94.016C372.74 94.6667 372.292 95.1787 371.695 95.552C371.108 95.9147 370.367 96.096 369.471 96.096ZM369.471 94.896C370.089 94.896 370.591 94.7573 370.975 94.48C371.369 94.2027 371.657 93.8293 371.839 93.36C372.031 92.8907 372.127 92.368 372.127 91.792C372.127 91.216 372.031 90.6933 371.839 90.224C371.657 89.7547 371.369 89.3813 370.975 89.104C370.591 88.8267 370.089 88.688 369.471 88.688C368.863 88.688 368.361 88.8267 367.967 89.104C367.583 89.3813 367.295 89.7547 367.103 90.224C366.921 90.6933 366.831 91.216 366.831 91.792C366.831 92.368 366.921 92.8907 367.103 93.36C367.295 93.8293 367.583 94.2027 367.967 94.48C368.361 94.7573 368.863 94.896 369.471 94.896ZM106.344 119.616V118.32C106.867 118.32 107.283 118.245 107.592 118.096C107.901 117.957 108.157 117.733 108.36 117.424C108.573 117.125 108.776 116.741 108.968 116.272L105.272 107.568H106.872L109.72 114.672L112.056 107.568H113.592L111.224 114.208C111.107 114.549 110.973 114.933 110.824 115.36C110.675 115.787 110.509 116.219 110.328 116.656C110.147 117.104 109.944 117.515 109.72 117.888C109.507 118.272 109.267 118.581 109 118.816C108.776 119.019 108.557 119.179 108.344 119.296C108.131 119.413 107.869 119.493 107.56 119.536C107.261 119.589 106.856 119.616 106.344 119.616ZM114.133 118.592V114.816C114.443 114.816 114.688 114.731 114.869 114.56C115.061 114.389 115.211 114.165 115.317 113.888C115.424 113.611 115.504 113.312 115.557 112.992C115.611 112.661 115.653 112.347 115.685 112.048C115.739 111.557 115.771 111.072 115.781 110.592C115.803 110.101 115.813 109.712 115.813 109.424C115.824 109.115 115.829 108.805 115.829 108.496C115.829 108.187 115.829 107.877 115.829 107.568H121.813V114.816H122.917V118.592H121.605V116H115.445V118.592H114.133ZM116.293 114.816H120.453V108.768H117.125C117.115 109.216 117.104 109.717 117.093 110.272C117.083 110.827 117.061 111.344 117.029 111.824C117.019 112.101 116.992 112.416 116.949 112.768C116.917 113.12 116.853 113.477 116.757 113.84C116.661 114.192 116.507 114.517 116.293 114.816ZM127.986 116.096C127.09 116.096 126.348 115.915 125.762 115.552C125.175 115.179 124.738 114.667 124.45 114.016C124.162 113.365 124.018 112.624 124.018 111.792C124.018 110.949 124.167 110.208 124.466 109.568C124.775 108.917 125.223 108.405 125.81 108.032C126.396 107.659 127.116 107.472 127.97 107.472C128.599 107.472 129.148 107.595 129.618 107.84C130.098 108.075 130.492 108.395 130.802 108.8C131.122 109.205 131.351 109.659 131.49 110.16C131.639 110.661 131.703 111.179 131.682 111.712C131.671 111.808 131.666 111.904 131.666 112C131.666 112.096 131.66 112.192 131.65 112.288H125.394C125.436 112.779 125.559 113.221 125.762 113.616C125.964 114.011 126.252 114.325 126.626 114.56C126.999 114.784 127.463 114.896 128.018 114.896C128.295 114.896 128.572 114.864 128.85 114.8C129.138 114.725 129.394 114.603 129.618 114.432C129.852 114.261 130.018 114.032 130.114 113.744H131.506C131.378 114.288 131.138 114.736 130.786 115.088C130.434 115.429 130.012 115.685 129.522 115.856C129.031 116.016 128.519 116.096 127.986 116.096ZM125.426 111.104H130.306C130.295 110.624 130.188 110.203 129.986 109.84C129.783 109.477 129.506 109.195 129.154 108.992C128.812 108.789 128.402 108.688 127.922 108.688C127.399 108.688 126.956 108.8 126.594 109.024C126.242 109.248 125.97 109.541 125.778 109.904C125.586 110.267 125.468 110.667 125.426 111.104ZM133.51 119.04V107.568H134.806L134.87 108.864C135.158 108.405 135.547 108.059 136.038 107.824C136.539 107.589 137.078 107.472 137.654 107.472C138.507 107.472 139.206 107.664 139.75 108.048C140.294 108.421 140.694 108.933 140.95 109.584C141.216 110.235 141.35 110.971 141.35 111.792C141.35 112.613 141.216 113.349 140.95 114C140.683 114.651 140.272 115.163 139.718 115.536C139.163 115.909 138.454 116.096 137.59 116.096C137.163 116.096 136.779 116.053 136.438 115.968C136.096 115.872 135.798 115.739 135.542 115.568C135.286 115.397 135.062 115.205 134.87 114.992V119.04H133.51ZM137.478 114.896C138.096 114.896 138.587 114.757 138.95 114.48C139.312 114.192 139.574 113.813 139.734 113.344C139.904 112.875 139.99 112.357 139.99 111.792C139.99 111.216 139.904 110.693 139.734 110.224C139.574 109.755 139.307 109.381 138.934 109.104C138.56 108.827 138.064 108.688 137.446 108.688C136.891 108.688 136.416 108.832 136.022 109.12C135.638 109.397 135.344 109.776 135.142 110.256C134.939 110.725 134.838 111.243 134.838 111.808C134.838 112.395 134.934 112.923 135.126 113.392C135.318 113.861 135.611 114.229 136.006 114.496C136.4 114.763 136.891 114.896 137.478 114.896ZM142.099 116L144.835 111.584L142.339 107.568H143.795L146.019 111.216H147.283V107.568H148.643V111.216H149.907L152.131 107.568H153.587L151.091 111.584L153.827 116H152.243L150.051 112.368H148.643V116H147.283V112.368H145.875L143.683 116H142.099ZM155.119 116V107.568H156.479V114.032C156.554 113.883 156.655 113.723 156.783 113.552C156.911 113.371 157.012 113.232 157.087 113.136L161.167 107.568H162.511V116H161.151V109.536C161.066 109.696 160.97 109.845 160.863 109.984C160.767 110.123 160.676 110.251 160.591 110.368L156.447 116H155.119ZM164.65 116V107.568H167.914C168.287 107.568 168.655 107.595 169.018 107.648C169.391 107.691 169.727 107.787 170.026 107.936C170.335 108.075 170.581 108.283 170.762 108.56C170.954 108.837 171.05 109.205 171.05 109.664C171.05 109.941 171.007 110.197 170.922 110.432C170.837 110.656 170.709 110.853 170.538 111.024C170.378 111.195 170.17 111.344 169.914 111.472C170.49 111.6 170.906 111.851 171.162 112.224C171.418 112.597 171.546 113.024 171.546 113.504C171.546 113.931 171.466 114.304 171.306 114.624C171.157 114.933 170.943 115.189 170.666 115.392C170.399 115.595 170.085 115.749 169.722 115.856C169.37 115.952 168.991 116 168.586 116H164.65ZM166.042 114.816H168.266C168.597 114.816 168.906 114.784 169.194 114.72C169.482 114.656 169.717 114.539 169.898 114.368C170.079 114.187 170.17 113.931 170.17 113.6C170.17 113.259 170.09 113.003 169.93 112.832C169.781 112.651 169.583 112.528 169.338 112.464C169.103 112.389 168.847 112.347 168.57 112.336C168.293 112.325 168.031 112.32 167.786 112.32H166.042V114.816ZM166.042 111.168H167.21C167.423 111.168 167.669 111.157 167.946 111.136C168.234 111.115 168.511 111.067 168.778 110.992C169.055 110.907 169.279 110.779 169.45 110.608C169.631 110.437 169.722 110.203 169.722 109.904C169.722 109.509 169.61 109.237 169.386 109.088C169.173 108.928 168.917 108.837 168.618 108.816C168.319 108.784 168.042 108.768 167.786 108.768H166.042V111.168ZM176.104 116.096C175.72 116.096 175.347 116.048 174.984 115.952C174.632 115.845 174.312 115.691 174.024 115.488C173.747 115.275 173.523 115.013 173.352 114.704C173.192 114.384 173.112 114.016 173.112 113.6C173.112 113.12 173.197 112.715 173.368 112.384C173.549 112.053 173.789 111.792 174.088 111.6C174.387 111.408 174.733 111.269 175.128 111.184C175.523 111.099 175.933 111.056 176.36 111.056H178.84C178.84 110.576 178.771 110.16 178.632 109.808C178.504 109.456 178.291 109.184 177.992 108.992C177.693 108.789 177.299 108.688 176.808 108.688C176.509 108.688 176.232 108.72 175.976 108.784C175.72 108.848 175.501 108.949 175.32 109.088C175.139 109.227 175.005 109.413 174.92 109.648H173.464C173.539 109.264 173.683 108.939 173.896 108.672C174.12 108.395 174.387 108.171 174.696 108C175.016 107.819 175.357 107.685 175.72 107.6C176.083 107.515 176.445 107.472 176.808 107.472C177.619 107.472 178.269 107.637 178.76 107.968C179.251 108.288 179.608 108.747 179.832 109.344C180.056 109.931 180.168 110.629 180.168 111.44V116H179.032L178.952 114.928C178.717 115.248 178.435 115.493 178.104 115.664C177.773 115.835 177.432 115.947 177.08 116C176.739 116.064 176.413 116.096 176.104 116.096ZM176.232 114.896C176.765 114.896 177.224 114.811 177.608 114.64C178.003 114.459 178.307 114.197 178.52 113.856C178.733 113.515 178.84 113.099 178.84 112.608V112.192H177.352C177 112.192 176.653 112.197 176.312 112.208C175.971 112.219 175.661 112.261 175.384 112.336C175.107 112.411 174.883 112.539 174.712 112.72C174.552 112.901 174.472 113.163 174.472 113.504C174.472 113.824 174.552 114.085 174.712 114.288C174.883 114.491 175.101 114.645 175.368 114.752C175.645 114.848 175.933 114.896 176.232 114.896ZM184.243 116V108.768H181.347V107.568H188.499V108.768H185.603V116H184.243ZM189.713 116V107.568H191.105V110.784H192.961C193.462 110.784 193.91 110.827 194.305 110.912C194.71 110.987 195.057 111.12 195.345 111.312C195.633 111.504 195.851 111.765 196.001 112.096C196.161 112.416 196.241 112.827 196.241 113.328C196.241 113.787 196.161 114.187 196.001 114.528C195.841 114.859 195.617 115.136 195.329 115.36C195.041 115.573 194.694 115.733 194.289 115.84C193.894 115.947 193.457 116 192.977 116H189.713ZM191.105 114.816H191.905C192.278 114.816 192.635 114.805 192.977 114.784C193.329 114.763 193.649 114.709 193.937 114.624C194.225 114.539 194.449 114.4 194.609 114.208C194.779 114.005 194.865 113.728 194.865 113.376C194.865 113.035 194.795 112.773 194.657 112.592C194.529 112.4 194.358 112.261 194.145 112.176C193.931 112.08 193.697 112.021 193.441 112C193.195 111.979 192.95 111.968 192.705 111.968H191.105V114.816ZM202.322 116V107.568H209.314V116H207.954V108.768H203.682V116H202.322ZM214.167 116.096C213.783 116.096 213.409 116.048 213.047 115.952C212.695 115.845 212.375 115.691 212.087 115.488C211.809 115.275 211.585 115.013 211.415 114.704C211.255 114.384 211.175 114.016 211.175 113.6C211.175 113.12 211.26 112.715 211.431 112.384C211.612 112.053 211.852 111.792 212.151 111.6C212.449 111.408 212.796 111.269 213.191 111.184C213.585 111.099 213.996 111.056 214.423 111.056H216.903C216.903 110.576 216.833 110.16 216.695 109.808C216.567 109.456 216.353 109.184 216.055 108.992C215.756 108.789 215.361 108.688 214.871 108.688C214.572 108.688 214.295 108.72 214.039 108.784C213.783 108.848 213.564 108.949 213.383 109.088C213.201 109.227 213.068 109.413 212.983 109.648H211.527C211.601 109.264 211.745 108.939 211.959 108.672C212.183 108.395 212.449 108.171 212.759 108C213.079 107.819 213.42 107.685 213.783 107.6C214.145 107.515 214.508 107.472 214.871 107.472C215.681 107.472 216.332 107.637 216.823 107.968C217.313 108.288 217.671 108.747 217.895 109.344C218.119 109.931 218.231 110.629 218.231 111.44V116H217.095L217.015 114.928C216.78 115.248 216.497 115.493 216.167 115.664C215.836 115.835 215.495 115.947 215.143 116C214.801 116.064 214.476 116.096 214.167 116.096ZM214.295 114.896C214.828 114.896 215.287 114.811 215.671 114.64C216.065 114.459 216.369 114.197 216.583 113.856C216.796 113.515 216.903 113.099 216.903 112.608V112.192H215.415C215.063 112.192 214.716 112.197 214.375 112.208C214.033 112.219 213.724 112.261 213.447 112.336C213.169 112.411 212.945 112.539 212.775 112.72C212.615 112.901 212.535 113.163 212.535 113.504C212.535 113.824 212.615 114.085 212.775 114.288C212.945 114.491 213.164 114.645 213.431 114.752C213.708 114.848 213.996 114.896 214.295 114.896ZM219.57 116.016V114.832C219.783 114.832 219.975 114.789 220.146 114.704C220.316 114.608 220.466 114.469 220.594 114.288C220.743 114.075 220.86 113.765 220.946 113.36C221.031 112.955 221.09 112.523 221.122 112.064C221.164 111.552 221.196 111.051 221.218 110.56C221.239 110.059 221.255 109.563 221.266 109.072C221.287 108.581 221.298 108.08 221.298 107.568H227.154V116H225.794V108.768H222.626C222.615 109.131 222.599 109.499 222.578 109.872C222.567 110.235 222.551 110.603 222.53 110.976C222.519 111.339 222.503 111.707 222.482 112.08C222.471 112.507 222.428 112.987 222.354 113.52C222.279 114.053 222.119 114.539 221.874 114.976C221.639 115.392 221.351 115.669 221.01 115.808C220.679 115.947 220.199 116.016 219.57 116.016ZM232.939 116.096C232.043 116.096 231.301 115.915 230.715 115.552C230.128 115.179 229.691 114.667 229.403 114.016C229.115 113.365 228.971 112.624 228.971 111.792C228.971 110.949 229.12 110.208 229.419 109.568C229.728 108.917 230.176 108.405 230.763 108.032C231.349 107.659 232.069 107.472 232.923 107.472C233.552 107.472 234.101 107.595 234.571 107.84C235.051 108.075 235.445 108.395 235.755 108.8C236.075 109.205 236.304 109.659 236.443 110.16C236.592 110.661 236.656 111.179 236.635 111.712C236.624 111.808 236.619 111.904 236.619 112C236.619 112.096 236.613 112.192 236.603 112.288H230.347C230.389 112.779 230.512 113.221 230.715 113.616C230.917 114.011 231.205 114.325 231.579 114.56C231.952 114.784 232.416 114.896 232.971 114.896C233.248 114.896 233.525 114.864 233.803 114.8C234.091 114.725 234.347 114.603 234.571 114.432C234.805 114.261 234.971 114.032 235.067 113.744H236.459C236.331 114.288 236.091 114.736 235.739 115.088C235.387 115.429 234.965 115.685 234.475 115.856C233.984 116.016 233.472 116.096 232.939 116.096ZM230.379 111.104H235.259C235.248 110.624 235.141 110.203 234.939 109.84C234.736 109.477 234.459 109.195 234.107 108.992C233.765 108.789 233.355 108.688 232.875 108.688C232.352 108.688 231.909 108.8 231.547 109.024C231.195 109.248 230.923 109.541 230.731 109.904C230.539 110.267 230.421 110.667 230.379 111.104ZM245.055 118.592V116H238.463V107.568H239.823V114.816H243.903V107.568H245.279V114.816H246.383V118.592H245.055ZM252.119 116V107.568H253.479V111.264H257.703V107.568H259.063V116H257.703V112.464H253.479V116H252.119ZM263.917 116.096C263.533 116.096 263.159 116.048 262.797 115.952C262.445 115.845 262.125 115.691 261.837 115.488C261.559 115.275 261.335 115.013 261.165 114.704C261.005 114.384 260.925 114.016 260.925 113.6C260.925 113.12 261.01 112.715 261.181 112.384C261.362 112.053 261.602 111.792 261.901 111.6C262.199 111.408 262.546 111.269 262.941 111.184C263.335 111.099 263.746 111.056 264.173 111.056H266.653C266.653 110.576 266.583 110.16 266.445 109.808C266.317 109.456 266.103 109.184 265.805 108.992C265.506 108.789 265.111 108.688 264.621 108.688C264.322 108.688 264.045 108.72 263.789 108.784C263.533 108.848 263.314 108.949 263.133 109.088C262.951 109.227 262.818 109.413 262.733 109.648H261.277C261.351 109.264 261.495 108.939 261.709 108.672C261.933 108.395 262.199 108.171 262.509 108C262.829 107.819 263.17 107.685 263.533 107.6C263.895 107.515 264.258 107.472 264.621 107.472C265.431 107.472 266.082 107.637 266.573 107.968C267.063 108.288 267.421 108.747 267.645 109.344C267.869 109.931 267.981 110.629 267.981 111.44V116H266.845L266.765 114.928C266.53 115.248 266.247 115.493 265.917 115.664C265.586 115.835 265.245 115.947 264.893 116C264.551 116.064 264.226 116.096 263.917 116.096ZM264.045 114.896C264.578 114.896 265.037 114.811 265.421 114.64C265.815 114.459 266.119 114.197 266.333 113.856C266.546 113.515 266.653 113.099 266.653 112.608V112.192H265.165C264.813 112.192 264.466 112.197 264.125 112.208C263.783 112.219 263.474 112.261 263.197 112.336C262.919 112.411 262.695 112.539 262.525 112.72C262.365 112.901 262.285 113.163 262.285 113.504C262.285 113.824 262.365 114.085 262.525 114.288C262.695 114.491 262.914 114.645 263.181 114.752C263.458 114.848 263.746 114.896 264.045 114.896ZM273.552 116L276.288 111.584L273.792 107.568H275.248L277.472 111.216H278.736V107.568H280.096V111.216H281.36L283.584 107.568H285.04L282.544 111.584L285.28 116H283.696L281.504 112.368H280.096V116H278.736V112.368H277.328L275.136 116H273.552ZM290.064 116.096C289.168 116.096 288.426 115.915 287.84 115.552C287.253 115.179 286.816 114.667 286.528 114.016C286.24 113.365 286.096 112.624 286.096 111.792C286.096 110.949 286.245 110.208 286.544 109.568C286.853 108.917 287.301 108.405 287.888 108.032C288.474 107.659 289.194 107.472 290.048 107.472C290.677 107.472 291.226 107.595 291.696 107.84C292.176 108.075 292.57 108.395 292.88 108.8C293.2 109.205 293.429 109.659 293.568 110.16C293.717 110.661 293.781 111.179 293.76 111.712C293.749 111.808 293.744 111.904 293.744 112C293.744 112.096 293.738 112.192 293.728 112.288H287.472C287.514 112.779 287.637 113.221 287.84 113.616C288.042 114.011 288.33 114.325 288.704 114.56C289.077 114.784 289.541 114.896 290.096 114.896C290.373 114.896 290.65 114.864 290.928 114.8C291.216 114.725 291.472 114.603 291.696 114.432C291.93 114.261 292.096 114.032 292.192 113.744H293.584C293.456 114.288 293.216 114.736 292.864 115.088C292.512 115.429 292.09 115.685 291.6 115.856C291.109 116.016 290.597 116.096 290.064 116.096ZM287.504 111.104H292.384C292.373 110.624 292.266 110.203 292.064 109.84C291.861 109.477 291.584 109.195 291.232 108.992C290.89 108.789 290.48 108.688 290 108.688C289.477 108.688 289.034 108.8 288.672 109.024C288.32 109.248 288.048 109.541 287.856 109.904C287.664 110.267 287.546 110.667 287.504 111.104ZM294.742 116.016V114.832C294.955 114.832 295.147 114.789 295.318 114.704C295.488 114.608 295.638 114.469 295.766 114.288C295.915 114.075 296.032 113.765 296.118 113.36C296.203 112.955 296.262 112.523 296.294 112.064C296.336 111.552 296.368 111.051 296.39 110.56C296.411 110.059 296.427 109.563 296.438 109.072C296.459 108.581 296.47 108.08 296.47 107.568H302.326V116H300.966V108.768H297.798C297.787 109.131 297.771 109.499 297.75 109.872C297.739 110.235 297.723 110.603 297.702 110.976C297.691 111.339 297.675 111.707 297.654 112.08C297.643 112.507 297.6 112.987 297.526 113.52C297.451 114.053 297.291 114.539 297.046 114.976C296.811 115.392 296.523 115.669 296.182 115.808C295.851 115.947 295.371 116.016 294.742 116.016ZM307.167 116.096C306.783 116.096 306.409 116.048 306.047 115.952C305.695 115.845 305.375 115.691 305.087 115.488C304.809 115.275 304.585 115.013 304.415 114.704C304.255 114.384 304.175 114.016 304.175 113.6C304.175 113.12 304.26 112.715 304.431 112.384C304.612 112.053 304.852 111.792 305.151 111.6C305.449 111.408 305.796 111.269 306.191 111.184C306.585 111.099 306.996 111.056 307.423 111.056H309.903C309.903 110.576 309.833 110.16 309.695 109.808C309.567 109.456 309.353 109.184 309.055 108.992C308.756 108.789 308.361 108.688 307.871 108.688C307.572 108.688 307.295 108.72 307.039 108.784C306.783 108.848 306.564 108.949 306.383 109.088C306.201 109.227 306.068 109.413 305.983 109.648H304.527C304.601 109.264 304.745 108.939 304.959 108.672C305.183 108.395 305.449 108.171 305.759 108C306.079 107.819 306.42 107.685 306.783 107.6C307.145 107.515 307.508 107.472 307.871 107.472C308.681 107.472 309.332 107.637 309.823 107.968C310.313 108.288 310.671 108.747 310.895 109.344C311.119 109.931 311.231 110.629 311.231 111.44V116H310.095L310.015 114.928C309.78 115.248 309.497 115.493 309.167 115.664C308.836 115.835 308.495 115.947 308.143 116C307.801 116.064 307.476 116.096 307.167 116.096ZM307.295 114.896C307.828 114.896 308.287 114.811 308.671 114.64C309.065 114.459 309.369 114.197 309.583 113.856C309.796 113.515 309.903 113.099 309.903 112.608V112.192H308.415C308.063 112.192 307.716 112.197 307.375 112.208C307.033 112.219 306.724 112.261 306.447 112.336C306.169 112.411 305.945 112.539 305.775 112.72C305.615 112.901 305.535 113.163 305.535 113.504C305.535 113.824 305.615 114.085 305.775 114.288C305.945 114.491 306.164 114.645 306.431 114.752C306.708 114.848 306.996 114.896 307.295 114.896ZM316.986 116.096C316.09 116.096 315.348 115.915 314.762 115.552C314.175 115.179 313.738 114.667 313.45 114.016C313.162 113.365 313.018 112.624 313.018 111.792C313.018 110.949 313.167 110.208 313.466 109.568C313.775 108.917 314.223 108.405 314.81 108.032C315.396 107.659 316.116 107.472 316.97 107.472C317.599 107.472 318.148 107.595 318.618 107.84C319.098 108.075 319.492 108.395 319.802 108.8C320.122 109.205 320.351 109.659 320.49 110.16C320.639 110.661 320.703 111.179 320.682 111.712C320.671 111.808 320.666 111.904 320.666 112C320.666 112.096 320.66 112.192 320.65 112.288H314.394C314.436 112.779 314.559 113.221 314.762 113.616C314.964 114.011 315.252 114.325 315.626 114.56C315.999 114.784 316.463 114.896 317.018 114.896C317.295 114.896 317.572 114.864 317.85 114.8C318.138 114.725 318.394 114.603 318.618 114.432C318.852 114.261 319.018 114.032 319.114 113.744H320.506C320.378 114.288 320.138 114.736 319.786 115.088C319.434 115.429 319.012 115.685 318.522 115.856C318.031 116.016 317.519 116.096 316.986 116.096ZM314.426 111.104H319.306C319.295 110.624 319.188 110.203 318.986 109.84C318.783 109.477 318.506 109.195 318.154 108.992C317.812 108.789 317.402 108.688 316.922 108.688C316.399 108.688 315.956 108.8 315.594 109.024C315.242 109.248 314.97 109.541 314.778 109.904C314.586 110.267 314.468 110.667 314.426 111.104ZM322.51 116V107.568H324.334L327.07 111.792L329.758 107.568H331.55V116H330.206V109.072L327.23 113.84H326.846L323.854 109.072V116H322.51ZM337.377 116.096C336.492 116.096 335.75 115.915 335.153 115.552C334.556 115.179 334.108 114.667 333.809 114.016C333.521 113.365 333.377 112.624 333.377 111.792C333.377 110.949 333.521 110.208 333.809 109.568C334.108 108.917 334.556 108.405 335.153 108.032C335.75 107.659 336.502 107.472 337.409 107.472C338.294 107.472 339.03 107.659 339.617 108.032C340.214 108.405 340.657 108.917 340.945 109.568C341.244 110.208 341.393 110.949 341.393 111.792C341.393 112.624 341.244 113.365 340.945 114.016C340.646 114.667 340.198 115.179 339.601 115.552C339.014 115.915 338.273 116.096 337.377 116.096ZM337.377 114.896C337.996 114.896 338.497 114.757 338.881 114.48C339.276 114.203 339.564 113.829 339.745 113.36C339.937 112.891 340.033 112.368 340.033 111.792C340.033 111.216 339.937 110.693 339.745 110.224C339.564 109.755 339.276 109.381 338.881 109.104C338.497 108.827 337.996 108.688 337.377 108.688C336.769 108.688 336.268 108.827 335.873 109.104C335.489 109.381 335.201 109.755 335.009 110.224C334.828 110.693 334.737 111.216 334.737 111.792C334.737 112.368 334.828 112.891 335.009 113.36C335.201 113.829 335.489 114.203 335.873 114.48C336.268 114.757 336.769 114.896 337.377 114.896ZM343.213 116V107.568H345.037L347.773 111.792L350.461 107.568H352.253V116H350.909V109.072L347.933 113.84H347.549L344.557 109.072V116H343.213ZM109.752 136.096C108.867 136.096 108.125 135.915 107.528 135.552C106.931 135.179 106.483 134.667 106.184 134.016C105.896 133.365 105.752 132.624 105.752 131.792C105.752 130.949 105.896 130.208 106.184 129.568C106.483 128.917 106.931 128.405 107.528 128.032C108.125 127.659 108.877 127.472 109.784 127.472C110.669 127.472 111.405 127.659 111.992 128.032C112.589 128.405 113.032 128.917 113.32 129.568C113.619 130.208 113.768 130.949 113.768 131.792C113.768 132.624 113.619 133.365 113.32 134.016C113.021 134.667 112.573 135.179 111.976 135.552C111.389 135.915 110.648 136.096 109.752 136.096ZM109.752 134.896C110.371 134.896 110.872 134.757 111.256 134.48C111.651 134.203 111.939 133.829 112.12 133.36C112.312 132.891 112.408 132.368 112.408 131.792C112.408 131.216 112.312 130.693 112.12 130.224C111.939 129.755 111.651 129.381 111.256 129.104C110.872 128.827 110.371 128.688 109.752 128.688C109.144 128.688 108.643 128.827 108.248 129.104C107.864 129.381 107.576 129.755 107.384 130.224C107.203 130.693 107.112 131.216 107.112 131.792C107.112 132.368 107.203 132.891 107.384 133.36C107.576 133.829 107.864 134.203 108.248 134.48C108.643 134.757 109.144 134.896 109.752 134.896ZM119.296 136.096C118.763 136.096 118.288 136.021 117.872 135.872C117.456 135.712 117.099 135.493 116.8 135.216C116.501 134.928 116.256 134.592 116.064 134.208C115.872 133.813 115.728 133.387 115.632 132.928C115.536 132.469 115.488 131.984 115.488 131.472C115.488 130.651 115.504 129.888 115.536 129.184C115.579 128.469 115.696 127.835 115.888 127.28C116.08 126.715 116.405 126.245 116.864 125.872C117.323 125.499 117.968 125.237 118.8 125.088C119.227 125.013 119.648 124.949 120.064 124.896C120.48 124.843 120.901 124.789 121.328 124.736C121.467 124.715 121.611 124.693 121.76 124.672C121.909 124.651 122.064 124.624 122.224 124.592C122.395 124.56 122.555 124.533 122.704 124.512V125.76C122.587 125.803 122.459 125.84 122.32 125.872C122.192 125.893 122.053 125.915 121.904 125.936C121.765 125.957 121.621 125.973 121.472 125.984C121.333 125.995 121.195 126.011 121.056 126.032C120.917 126.043 120.784 126.059 120.656 126.08C120.283 126.123 119.888 126.165 119.472 126.208C119.056 126.24 118.661 126.325 118.288 126.464C117.925 126.592 117.616 126.843 117.36 127.216C117.232 127.408 117.12 127.637 117.024 127.904C116.939 128.171 116.875 128.443 116.832 128.72C116.8 128.987 116.779 129.243 116.768 129.488C116.981 129.189 117.243 128.949 117.552 128.768C117.861 128.576 118.192 128.437 118.544 128.352C118.896 128.256 119.232 128.208 119.552 128.208C120.32 128.208 120.971 128.368 121.504 128.688C122.037 128.997 122.443 129.44 122.72 130.016C122.997 130.592 123.136 131.264 123.136 132.032C123.136 132.8 122.987 133.493 122.688 134.112C122.389 134.72 121.952 135.205 121.376 135.568C120.811 135.92 120.117 136.096 119.296 136.096ZM119.328 134.896C119.861 134.896 120.309 134.768 120.672 134.512C121.035 134.256 121.307 133.915 121.488 133.488C121.68 133.061 121.776 132.592 121.776 132.08C121.776 131.579 121.68 131.131 121.488 130.736C121.307 130.331 121.035 130.011 120.672 129.776C120.32 129.541 119.883 129.424 119.36 129.424C118.848 129.424 118.405 129.547 118.032 129.792C117.669 130.037 117.387 130.368 117.184 130.784C116.992 131.189 116.896 131.632 116.896 132.112C116.896 132.603 116.987 133.061 117.168 133.488C117.349 133.915 117.616 134.256 117.968 134.512C118.331 134.768 118.784 134.896 119.328 134.896ZM126.163 136V128.768H124.115V127.568H127.555V130.784H129.427C129.928 130.784 130.376 130.827 130.771 130.912C131.176 130.987 131.517 131.115 131.795 131.296C132.083 131.477 132.301 131.728 132.451 132.048C132.611 132.368 132.691 132.768 132.691 133.248C132.691 133.739 132.611 134.16 132.451 134.512C132.291 134.864 132.061 135.152 131.763 135.376C131.475 135.589 131.133 135.749 130.739 135.856C130.344 135.952 129.912 136 129.443 136H126.163ZM127.555 134.816H128.355C128.739 134.816 129.107 134.811 129.459 134.8C129.821 134.779 130.141 134.725 130.419 134.64C130.696 134.555 130.915 134.405 131.075 134.192C131.235 133.979 131.315 133.68 131.315 133.296C131.315 132.987 131.251 132.747 131.123 132.576C130.995 132.395 130.824 132.261 130.611 132.176C130.408 132.091 130.179 132.037 129.923 132.016C129.667 131.984 129.416 131.968 129.171 131.968H127.555V134.816ZM138.048 136.096C137.152 136.096 136.411 135.915 135.824 135.552C135.237 135.179 134.8 134.667 134.512 134.016C134.224 133.365 134.08 132.624 134.08 131.792C134.08 130.949 134.229 130.208 134.528 129.568C134.837 128.917 135.285 128.405 135.872 128.032C136.459 127.659 137.179 127.472 138.032 127.472C138.661 127.472 139.211 127.595 139.68 127.84C140.16 128.075 140.555 128.395 140.864 128.8C141.184 129.205 141.413 129.659 141.552 130.16C141.701 130.661 141.765 131.179 141.744 131.712C141.733 131.808 141.728 131.904 141.728 132C141.728 132.096 141.723 132.192 141.712 132.288H135.456C135.499 132.779 135.621 133.221 135.824 133.616C136.027 134.011 136.315 134.325 136.688 134.56C137.061 134.784 137.525 134.896 138.08 134.896C138.357 134.896 138.635 134.864 138.912 134.8C139.2 134.725 139.456 134.603 139.68 134.432C139.915 134.261 140.08 134.032 140.176 133.744H141.568C141.44 134.288 141.2 134.736 140.848 135.088C140.496 135.429 140.075 135.685 139.584 135.856C139.093 136.016 138.581 136.096 138.048 136.096ZM135.488 131.104H140.368C140.357 130.624 140.251 130.203 140.048 129.84C139.845 129.477 139.568 129.195 139.216 128.992C138.875 128.789 138.464 128.688 137.984 128.688C137.461 128.688 137.019 128.8 136.656 129.024C136.304 129.248 136.032 129.541 135.84 129.904C135.648 130.267 135.531 130.667 135.488 131.104ZM143.572 136V127.568H144.932V131.2H146.404L148.9 127.568H150.452L147.636 131.584L150.692 136H149.092L146.564 132.384H144.932V136H143.572ZM153.837 136V128.768H150.941V127.568H158.093V128.768H155.197V136H153.837ZM162.954 136.096C162.058 136.096 161.317 135.915 160.73 135.552C160.144 135.179 159.706 134.667 159.418 134.016C159.13 133.365 158.986 132.624 158.986 131.792C158.986 130.949 159.136 130.208 159.434 129.568C159.744 128.917 160.192 128.405 160.778 128.032C161.365 127.659 162.085 127.472 162.938 127.472C163.568 127.472 164.117 127.595 164.586 127.84C165.066 128.075 165.461 128.395 165.77 128.8C166.09 129.205 166.32 129.659 166.458 130.16C166.608 130.661 166.672 131.179 166.65 131.712C166.64 131.808 166.634 131.904 166.634 132C166.634 132.096 166.629 132.192 166.618 132.288H160.362C160.405 132.779 160.528 133.221 160.73 133.616C160.933 134.011 161.221 134.325 161.594 134.56C161.968 134.784 162.432 134.896 162.986 134.896C163.264 134.896 163.541 134.864 163.818 134.8C164.106 134.725 164.362 134.603 164.586 134.432C164.821 134.261 164.986 134.032 165.082 133.744H166.474C166.346 134.288 166.106 134.736 165.754 135.088C165.402 135.429 164.981 135.685 164.49 135.856C164 136.016 163.488 136.096 162.954 136.096ZM160.394 131.104H165.274C165.264 130.624 165.157 130.203 164.954 129.84C164.752 129.477 164.474 129.195 164.122 128.992C163.781 128.789 163.37 128.688 162.89 128.688C162.368 128.688 161.925 128.8 161.562 129.024C161.21 129.248 160.938 129.541 160.746 129.904C160.554 130.267 160.437 130.667 160.394 131.104ZM172.791 136V127.568H176.055C176.428 127.568 176.796 127.595 177.159 127.648C177.532 127.691 177.868 127.787 178.167 127.936C178.476 128.075 178.721 128.283 178.903 128.56C179.095 128.837 179.191 129.205 179.191 129.664C179.191 129.941 179.148 130.197 179.063 130.432C178.977 130.656 178.849 130.853 178.679 131.024C178.519 131.195 178.311 131.344 178.055 131.472C178.631 131.6 179.047 131.851 179.303 132.224C179.559 132.597 179.687 133.024 179.687 133.504C179.687 133.931 179.607 134.304 179.447 134.624C179.297 134.933 179.084 135.189 178.807 135.392C178.54 135.595 178.225 135.749 177.863 135.856C177.511 135.952 177.132 136 176.727 136H172.791ZM174.183 134.816H176.407C176.737 134.816 177.047 134.784 177.335 134.72C177.623 134.656 177.857 134.539 178.039 134.368C178.22 134.187 178.311 133.931 178.311 133.6C178.311 133.259 178.231 133.003 178.071 132.832C177.921 132.651 177.724 132.528 177.479 132.464C177.244 132.389 176.988 132.347 176.711 132.336C176.433 132.325 176.172 132.32 175.927 132.32H174.183V134.816ZM174.183 131.168H175.351C175.564 131.168 175.809 131.157 176.087 131.136C176.375 131.115 176.652 131.067 176.919 130.992C177.196 130.907 177.42 130.779 177.591 130.608C177.772 130.437 177.863 130.203 177.863 129.904C177.863 129.509 177.751 129.237 177.527 129.088C177.313 128.928 177.057 128.837 176.759 128.816C176.46 128.784 176.183 128.768 175.927 128.768H174.183V131.168ZM187.821 136V128.768H184.925V127.568H192.077V128.768H189.181V136H187.821ZM196.939 136.096C196.043 136.096 195.301 135.915 194.715 135.552C194.128 135.179 193.691 134.667 193.403 134.016C193.115 133.365 192.971 132.624 192.971 131.792C192.971 130.949 193.12 130.208 193.419 129.568C193.728 128.917 194.176 128.405 194.763 128.032C195.349 127.659 196.069 127.472 196.923 127.472C197.552 127.472 198.101 127.595 198.571 127.84C199.051 128.075 199.445 128.395 199.755 128.8C200.075 129.205 200.304 129.659 200.443 130.16C200.592 130.661 200.656 131.179 200.635 131.712C200.624 131.808 200.619 131.904 200.619 132C200.619 132.096 200.613 132.192 200.603 132.288H194.347C194.389 132.779 194.512 133.221 194.715 133.616C194.917 134.011 195.205 134.325 195.579 134.56C195.952 134.784 196.416 134.896 196.971 134.896C197.248 134.896 197.525 134.864 197.803 134.8C198.091 134.725 198.347 134.603 198.571 134.432C198.805 134.261 198.971 134.032 199.067 133.744H200.459C200.331 134.288 200.091 134.736 199.739 135.088C199.387 135.429 198.965 135.685 198.475 135.856C197.984 136.016 197.472 136.096 196.939 136.096ZM194.379 131.104H199.259C199.248 130.624 199.141 130.203 198.939 129.84C198.736 129.477 198.459 129.195 198.107 128.992C197.765 128.789 197.355 128.688 196.875 128.688C196.352 128.688 195.909 128.8 195.547 129.024C195.195 129.248 194.923 129.541 194.731 129.904C194.539 130.267 194.421 130.667 194.379 131.104ZM207.423 136V132.752C207.017 132.827 206.623 132.88 206.239 132.912C205.865 132.933 205.529 132.944 205.231 132.944C204.441 132.944 203.817 132.821 203.359 132.576C202.9 132.331 202.575 131.957 202.383 131.456C202.191 130.944 202.095 130.309 202.095 129.552V127.568H203.455V129.456C203.455 129.947 203.503 130.363 203.599 130.704C203.695 131.045 203.881 131.307 204.159 131.488C204.436 131.659 204.852 131.744 205.407 131.744C205.727 131.744 206.063 131.728 206.415 131.696C206.777 131.664 207.113 131.616 207.423 131.552V127.568H208.783V136H207.423ZM214.579 136.096C213.683 136.096 212.942 135.915 212.355 135.552C211.769 135.179 211.331 134.667 211.043 134.016C210.755 133.365 210.611 132.624 210.611 131.792C210.611 130.949 210.761 130.208 211.059 129.568C211.369 128.917 211.817 128.405 212.403 128.032C212.99 127.659 213.71 127.472 214.563 127.472C215.193 127.472 215.742 127.595 216.211 127.84C216.691 128.075 217.086 128.395 217.395 128.8C217.715 129.205 217.945 129.659 218.083 130.16C218.233 130.661 218.297 131.179 218.275 131.712C218.265 131.808 218.259 131.904 218.259 132C218.259 132.096 218.254 132.192 218.243 132.288H211.987C212.03 132.779 212.153 133.221 212.355 133.616C212.558 134.011 212.846 134.325 213.219 134.56C213.593 134.784 214.057 134.896 214.611 134.896C214.889 134.896 215.166 134.864 215.443 134.8C215.731 134.725 215.987 134.603 216.211 134.432C216.446 134.261 216.611 134.032 216.707 133.744H218.099C217.971 134.288 217.731 134.736 217.379 135.088C217.027 135.429 216.606 135.685 216.115 135.856C215.625 136.016 215.113 136.096 214.579 136.096ZM212.019 131.104H216.899C216.889 130.624 216.782 130.203 216.579 129.84C216.377 129.477 216.099 129.195 215.747 128.992C215.406 128.789 214.995 128.688 214.515 128.688C213.993 128.688 213.55 128.8 213.187 129.024C212.835 129.248 212.563 129.541 212.371 129.904C212.179 130.267 212.062 130.667 212.019 131.104ZM220.103 136V127.568H221.463V131.264H225.687V127.568H227.047V136H225.687V132.464H221.463V136H220.103ZM229.197 136V127.568H230.557V134.032C230.632 133.883 230.733 133.723 230.861 133.552C230.989 133.371 231.09 133.232 231.165 133.136L235.245 127.568H236.589V136H235.229V129.536C235.144 129.696 235.048 129.845 234.941 129.984C234.845 130.123 234.754 130.251 234.669 130.368L230.525 136H229.197ZM238.728 136V127.568H240.088V134.032C240.163 133.883 240.264 133.723 240.392 133.552C240.52 133.371 240.622 133.232 240.696 133.136L244.776 127.568H246.12V136H244.76V129.536C244.675 129.696 244.579 129.845 244.472 129.984C244.376 130.123 244.286 130.251 244.2 130.368L240.056 136H238.728ZM251.98 136V134.832L255.18 132.064C255.468 131.819 255.783 131.552 256.124 131.264C256.476 130.965 256.807 130.645 257.116 130.304C257.436 129.963 257.697 129.6 257.9 129.216C258.113 128.821 258.22 128.405 258.22 127.968C258.22 127.285 258.017 126.763 257.612 126.4C257.207 126.027 256.663 125.84 255.98 125.84C255.436 125.84 254.961 125.952 254.556 126.176C254.151 126.4 253.884 126.725 253.756 127.152H252.268C252.375 126.565 252.615 126.085 252.988 125.712C253.372 125.328 253.831 125.04 254.364 124.848C254.908 124.656 255.468 124.56 256.044 124.56C256.748 124.56 257.367 124.688 257.9 124.944C258.444 125.2 258.865 125.573 259.164 126.064C259.473 126.544 259.628 127.136 259.628 127.84C259.628 128.533 259.495 129.141 259.228 129.664C258.972 130.187 258.631 130.661 258.204 131.088C257.788 131.504 257.34 131.915 256.86 132.32L253.996 134.736H259.756V136H251.98ZM269.547 136.096C268.662 136.096 267.926 135.915 267.339 135.552C266.763 135.179 266.331 134.667 266.043 134.016C265.766 133.365 265.627 132.629 265.627 131.808C265.627 131.008 265.771 130.283 266.059 129.632C266.358 128.971 266.806 128.448 267.403 128.064C268.011 127.669 268.779 127.472 269.707 127.472C270.283 127.472 270.795 127.568 271.243 127.76C271.702 127.952 272.08 128.235 272.379 128.608C272.678 128.971 272.886 129.429 273.003 129.984H271.611C271.451 129.515 271.195 129.184 270.843 128.992C270.502 128.789 270.096 128.688 269.627 128.688C268.987 128.688 268.475 128.837 268.091 129.136C267.707 129.435 267.424 129.824 267.243 130.304C267.072 130.773 266.987 131.275 266.987 131.808C266.987 132.363 267.078 132.875 267.259 133.344C267.44 133.813 267.723 134.192 268.107 134.48C268.491 134.757 268.987 134.896 269.595 134.896C270.043 134.896 270.464 134.8 270.859 134.608C271.264 134.416 271.531 134.075 271.659 133.584H273.067C272.96 134.16 272.731 134.635 272.379 135.008C272.038 135.381 271.616 135.659 271.115 135.84C270.624 136.011 270.102 136.096 269.547 136.096ZM278.439 136.096C277.543 136.096 276.801 135.915 276.215 135.552C275.628 135.179 275.191 134.667 274.903 134.016C274.615 133.365 274.471 132.624 274.471 131.792C274.471 130.949 274.62 130.208 274.919 129.568C275.228 128.917 275.676 128.405 276.263 128.032C276.849 127.659 277.569 127.472 278.423 127.472C279.052 127.472 279.601 127.595 280.071 127.84C280.551 128.075 280.945 128.395 281.255 128.8C281.575 129.205 281.804 129.659 281.943 130.16C282.092 130.661 282.156 131.179 282.135 131.712C282.124 131.808 282.119 131.904 282.119 132C282.119 132.096 282.113 132.192 282.103 132.288H275.847C275.889 132.779 276.012 133.221 276.215 133.616C276.417 134.011 276.705 134.325 277.079 134.56C277.452 134.784 277.916 134.896 278.471 134.896C278.748 134.896 279.025 134.864 279.303 134.8C279.591 134.725 279.847 134.603 280.071 134.432C280.305 134.261 280.471 134.032 280.567 133.744H281.959C281.831 134.288 281.591 134.736 281.239 135.088C280.887 135.429 280.465 135.685 279.975 135.856C279.484 136.016 278.972 136.096 278.439 136.096ZM275.879 131.104H280.759C280.748 130.624 280.641 130.203 280.439 129.84C280.236 129.477 279.959 129.195 279.607 128.992C279.265 128.789 278.855 128.688 278.375 128.688C277.852 128.688 277.409 128.8 277.047 129.024C276.695 129.248 276.423 129.541 276.231 129.904C276.039 130.267 275.921 130.667 275.879 131.104ZM283.963 136V127.568H285.323V131.2H286.795L289.291 127.568H290.843L288.027 131.584L291.083 136H289.483L286.955 132.384H285.323V136H283.963ZM292.532 139.616V138.32C293.054 138.32 293.47 138.245 293.78 138.096C294.089 137.957 294.345 137.733 294.548 137.424C294.761 137.125 294.964 136.741 295.156 136.272L291.46 127.568H293.06L295.908 134.672L298.244 127.568H299.78L297.412 134.208C297.294 134.549 297.161 134.933 297.012 135.36C296.862 135.787 296.697 136.219 296.516 136.656C296.334 137.104 296.132 137.515 295.908 137.888C295.694 138.272 295.454 138.581 295.188 138.816C294.964 139.019 294.745 139.179 294.532 139.296C294.318 139.413 294.057 139.493 293.748 139.536C293.449 139.589 293.044 139.616 292.532 139.616ZM301.041 136V127.568H302.401V131.264H306.625V127.568H307.985V136H306.625V132.464H302.401V136H301.041ZM309.415 138.592V134.816C309.724 134.816 309.969 134.731 310.151 134.56C310.343 134.389 310.492 134.165 310.599 133.888C310.705 133.611 310.785 133.312 310.839 132.992C310.892 132.661 310.935 132.347 310.967 132.048C311.02 131.557 311.052 131.072 311.062 130.592C311.084 130.101 311.095 129.712 311.095 129.424C311.105 129.115 311.111 128.805 311.111 128.496C311.111 128.187 311.111 127.877 311.111 127.568H317.095V134.816H318.199V138.592H316.887V136H310.727V138.592H309.415ZM311.575 134.816H315.735V128.768H312.407C312.396 129.216 312.385 129.717 312.375 130.272C312.364 130.827 312.343 131.344 312.311 131.824C312.3 132.101 312.273 132.416 312.231 132.768C312.199 133.12 312.135 133.477 312.039 133.84C311.943 134.192 311.788 134.517 311.575 134.816Z" fill="black"/>
</svg>
