<svg width="408" height="251" viewBox="0 0 408 251" fill="none" xmlns="http://www.w3.org/2000/svg">
<rect width="408" height="251" rx="30" fill="white"/>
<path d="M57.9961 41C58.9162 40.9995 59.8205 41.2393 60.6191 41.6963C61.4178 42.1534 62.0831 42.8118 62.5488 43.6055L64.459 46.8604H69.3193V46.8643C71.3419 46.8643 73.2817 47.6684 74.7119 49.0986C76.142 50.5288 76.9463 52.4687 76.9463 54.4912V76.7842C76.9466 77.7859 76.7493 78.7786 76.3662 79.7041C75.9831 80.6295 75.421 81.4704 74.7129 82.1787C74.0047 82.8871 73.1637 83.4486 72.2383 83.832C71.3129 84.2154 70.321 84.4131 69.3193 84.4131H37.6357C36.6336 84.4143 35.6411 84.2176 34.7148 83.835C33.7885 83.4523 32.9464 82.8909 32.2373 82.1826C31.5282 81.4743 30.9659 80.6329 30.582 79.707C30.1983 78.7813 30 77.7892 30 76.7871V54.4932C29.9997 53.4916 30.197 52.4997 30.5801 51.5742C30.9632 50.6487 31.5252 49.807 32.2334 49.0986C32.9415 48.3904 33.7827 47.8287 34.708 47.4453C35.6333 47.062 36.6254 46.8643 37.627 46.8643H42.5068L44.5713 43.5225C45.0424 42.7522 45.7037 42.1156 46.4912 41.6738C47.2787 41.2322 48.1665 41.0004 49.0693 41H57.9961ZM53.4795 55.1377C49.0401 55.1377 44.9641 56.172 41.959 57.9033C38.985 59.6169 36.8518 62.1559 36.8516 65.2031C36.8517 67.7539 38.3528 69.9557 40.5674 71.5957C42.5281 73.0477 45.1347 74.1336 48.083 74.7344L45.2871 76.5352C44.755 76.8778 44.6012 77.5876 44.9434 78.1201C45.286 78.6524 45.9957 78.8062 46.5283 78.4639L52.7451 74.4668L48.7451 68.25L48.6016 68.0693C48.2289 67.6876 47.6263 67.6064 47.1602 67.9063C46.6948 68.2062 46.5193 68.7872 46.7119 69.2842L46.8164 69.4912L48.7734 72.5332C45.9838 71.9951 43.6185 71.0021 41.9316 69.7529C40.0699 68.3742 39.1427 66.7804 39.1426 65.2031C39.1428 63.3243 40.4769 61.4051 43.1055 59.8906C45.7036 58.3939 49.3687 57.4297 53.4795 57.4297C57.5904 57.4298 61.2555 58.3938 63.8535 59.8906C66.4819 61.405 67.8132 63.3244 67.8135 65.2031C67.8134 66.7725 66.8933 68.362 65.041 69.7393C63.1949 71.1118 60.5318 72.1795 57.3857 72.6738L57.5645 73.8057L57.7412 74.9404C61.1636 74.4027 64.2001 73.2233 66.4102 71.5801C68.6138 69.9415 70.1073 67.7436 70.1074 65.2031C70.1072 62.1559 67.973 59.6169 64.999 57.9033C61.994 56.172 57.9187 55.1378 53.4795 55.1377ZM49.5732 73.7764L49.4414 73.8604L49.4492 73.8154L49.4775 73.6279L49.5732 73.7764Z" fill="#010101"/>
<path d="M106.392 56V44.688H115.288V56H113.896V45.952H107.784V56H106.392ZM117.76 59.04V47.568H119.056L119.12 48.864C119.408 48.4053 119.797 48.0587 120.288 47.824C120.789 47.5893 121.328 47.472 121.904 47.472C122.757 47.472 123.456 47.664 124 48.048C124.544 48.4213 124.944 48.9333 125.2 49.584C125.466 50.2347 125.6 50.9707 125.6 51.792C125.6 52.6133 125.466 53.3493 125.2 54C124.933 54.6507 124.522 55.1627 123.968 55.536C123.413 55.9093 122.704 56.096 121.84 56.096C121.413 56.096 121.029 56.0533 120.688 55.968C120.346 55.872 120.048 55.7387 119.792 55.568C119.536 55.3973 119.312 55.2053 119.12 54.992V59.04H117.76ZM121.728 54.896C122.346 54.896 122.837 54.7573 123.2 54.48C123.562 54.192 123.824 53.8133 123.984 53.344C124.154 52.8747 124.24 52.3573 124.24 51.792C124.24 51.216 124.154 50.6933 123.984 50.224C123.824 49.7547 123.557 49.3813 123.184 49.104C122.81 48.8267 122.314 48.688 121.696 48.688C121.141 48.688 120.666 48.832 120.272 49.12C119.888 49.3973 119.594 49.776 119.392 50.256C119.189 50.7253 119.088 51.2427 119.088 51.808C119.088 52.3947 119.184 52.9227 119.376 53.392C119.568 53.8613 119.861 54.2293 120.256 54.496C120.65 54.7627 121.141 54.896 121.728 54.896ZM127.353 56V47.568H128.713V54.032C128.788 53.8827 128.889 53.7227 129.017 53.552C129.145 53.3707 129.247 53.232 129.321 53.136L133.401 47.568H134.745V56H133.385V49.536C133.3 49.696 133.204 49.8453 133.097 49.984C133.001 50.1227 132.911 50.2507 132.825 50.368L128.681 56H127.353ZM143.901 56.096C143.517 56.096 143.144 56.048 142.781 55.952C142.429 55.8453 142.109 55.6907 141.821 55.488C141.544 55.2747 141.32 55.0133 141.149 54.704C140.989 54.384 140.909 54.016 140.909 53.6C140.909 53.12 140.994 52.7147 141.165 52.384C141.346 52.0533 141.586 51.792 141.885 51.6C142.184 51.408 142.53 51.2693 142.925 51.184C143.32 51.0987 143.73 51.056 144.157 51.056H146.637C146.637 50.576 146.568 50.16 146.429 49.808C146.301 49.456 146.088 49.184 145.789 48.992C145.49 48.7893 145.096 48.688 144.605 48.688C144.306 48.688 144.029 48.72 143.773 48.784C143.517 48.848 143.298 48.9493 143.117 49.088C142.936 49.2267 142.802 49.4133 142.717 49.648H141.261C141.336 49.264 141.48 48.9387 141.693 48.672C141.917 48.3947 142.184 48.1707 142.493 48C142.813 47.8187 143.154 47.6853 143.517 47.6C143.88 47.5147 144.242 47.472 144.605 47.472C145.416 47.472 146.066 47.6373 146.557 47.968C147.048 48.288 147.405 48.7467 147.629 49.344C147.853 49.9307 147.965 50.6293 147.965 51.44V56H146.829L146.749 54.928C146.514 55.248 146.232 55.4933 145.901 55.664C145.57 55.8347 145.229 55.9467 144.877 56C144.536 56.064 144.21 56.096 143.901 56.096ZM144.029 54.896C144.562 54.896 145.021 54.8107 145.405 54.64C145.8 54.4587 146.104 54.1973 146.317 53.856C146.53 53.5147 146.637 53.0987 146.637 52.608V52.192H145.149C144.797 52.192 144.45 52.1973 144.109 52.208C143.768 52.2187 143.458 52.2613 143.181 52.336C142.904 52.4107 142.68 52.5387 142.509 52.72C142.349 52.9013 142.269 53.1627 142.269 53.504C142.269 53.824 142.349 54.0853 142.509 54.288C142.68 54.4907 142.898 54.6453 143.165 54.752C143.442 54.848 143.73 54.896 144.029 54.896ZM150.072 56V47.568H151.432V51.2H152.904L155.4 47.568H156.952L154.136 51.584L157.192 56H155.592L153.064 52.384H151.432V56H150.072ZM160.337 56V48.768H157.441V47.568H164.593V48.768H161.697V56H160.337ZM165.806 56V47.568H167.166V54.032C167.241 53.8827 167.342 53.7227 167.47 53.552C167.598 53.3707 167.7 53.232 167.774 53.136L171.854 47.568H173.198V56H171.838V49.536C171.753 49.696 171.657 49.8453 171.55 49.984C171.454 50.1227 171.364 50.2507 171.278 50.368L167.134 56H165.806ZM175.338 56V47.568H178.602C178.975 47.568 179.343 47.5947 179.706 47.648C180.079 47.6907 180.415 47.7867 180.714 47.936C181.023 48.0747 181.268 48.2827 181.45 48.56C181.642 48.8373 181.738 49.2053 181.738 49.664C181.738 49.9413 181.695 50.1973 181.61 50.432C181.524 50.656 181.396 50.8533 181.226 51.024C181.066 51.1947 180.858 51.344 180.602 51.472C181.178 51.6 181.594 51.8507 181.85 52.224C182.106 52.5973 182.234 53.024 182.234 53.504C182.234 53.9307 182.154 54.304 181.994 54.624C181.844 54.9333 181.631 55.1893 181.354 55.392C181.087 55.5947 180.772 55.7493 180.41 55.856C180.058 55.952 179.679 56 179.274 56H175.338ZM176.73 54.816H178.954C179.284 54.816 179.594 54.784 179.882 54.72C180.17 54.656 180.404 54.5387 180.586 54.368C180.767 54.1867 180.858 53.9307 180.858 53.6C180.858 53.2587 180.778 53.0027 180.618 52.832C180.468 52.6507 180.271 52.528 180.026 52.464C179.791 52.3893 179.535 52.3467 179.258 52.336C178.98 52.3253 178.719 52.32 178.474 52.32H176.73V54.816ZM176.73 51.168H177.898C178.111 51.168 178.356 51.1573 178.634 51.136C178.922 51.1147 179.199 51.0667 179.466 50.992C179.743 50.9067 179.967 50.7787 180.138 50.608C180.319 50.4373 180.41 50.2027 180.41 49.904C180.41 49.5093 180.298 49.2373 180.074 49.088C179.86 48.928 179.604 48.8373 179.306 48.816C179.007 48.784 178.73 48.768 178.474 48.768H176.73V51.168ZM186.792 56.096C186.408 56.096 186.034 56.048 185.672 55.952C185.32 55.8453 185 55.6907 184.712 55.488C184.434 55.2747 184.21 55.0133 184.04 54.704C183.88 54.384 183.8 54.016 183.8 53.6C183.8 53.12 183.885 52.7147 184.056 52.384C184.237 52.0533 184.477 51.792 184.776 51.6C185.074 51.408 185.421 51.2693 185.816 51.184C186.21 51.0987 186.621 51.056 187.048 51.056H189.528C189.528 50.576 189.458 50.16 189.32 49.808C189.192 49.456 188.978 49.184 188.68 48.992C188.381 48.7893 187.986 48.688 187.496 48.688C187.197 48.688 186.92 48.72 186.664 48.784C186.408 48.848 186.189 48.9493 186.008 49.088C185.826 49.2267 185.693 49.4133 185.608 49.648H184.152C184.226 49.264 184.37 48.9387 184.584 48.672C184.808 48.3947 185.074 48.1707 185.384 48C185.704 47.8187 186.045 47.6853 186.408 47.6C186.77 47.5147 187.133 47.472 187.496 47.472C188.306 47.472 188.957 47.6373 189.448 47.968C189.938 48.288 190.296 48.7467 190.52 49.344C190.744 49.9307 190.856 50.6293 190.856 51.44V56H189.72L189.64 54.928C189.405 55.248 189.122 55.4933 188.792 55.664C188.461 55.8347 188.12 55.9467 187.768 56C187.426 56.064 187.101 56.096 186.792 56.096ZM186.92 54.896C187.453 54.896 187.912 54.8107 188.296 54.64C188.69 54.4587 188.994 54.1973 189.208 53.856C189.421 53.5147 189.528 53.0987 189.528 52.608V52.192H188.04C187.688 52.192 187.341 52.1973 187 52.208C186.658 52.2187 186.349 52.2613 186.072 52.336C185.794 52.4107 185.57 52.5387 185.4 52.72C185.24 52.9013 185.16 53.1627 185.16 53.504C185.16 53.824 185.24 54.0853 185.4 54.288C185.57 54.4907 185.789 54.6453 186.056 54.752C186.333 54.848 186.621 54.896 186.92 54.896ZM199.555 58.592V56H192.963V47.568H194.323V54.816H198.403V47.568H199.779V54.816H200.883V58.592H199.555ZM202.306 56V47.568H203.666V54.032C203.741 53.8827 203.842 53.7227 203.97 53.552C204.098 53.3707 204.2 53.232 204.274 53.136L208.354 47.568H209.698V56H208.338V49.536C208.253 49.696 208.157 49.8453 208.05 49.984C207.954 50.1227 207.864 50.2507 207.778 50.368L203.634 56H202.306ZM211.838 56V47.568H213.198V54.032C213.272 53.8827 213.374 53.7227 213.502 53.552C213.63 53.3707 213.731 53.232 213.806 53.136L217.886 47.568H219.23V56H217.87V49.536C217.784 49.696 217.688 49.8453 217.582 49.984C217.486 50.1227 217.395 50.2507 217.31 50.368L213.166 56H211.838ZM228.801 56.096C228.247 56.096 227.713 56.0107 227.201 55.84C226.7 55.6587 226.273 55.3813 225.921 55.008C225.58 54.6347 225.351 54.16 225.233 53.584H226.641C226.727 53.9147 226.887 54.176 227.121 54.368C227.367 54.56 227.644 54.6987 227.953 54.784C228.263 54.8587 228.567 54.896 228.865 54.896C229.399 54.896 229.841 54.784 230.193 54.56C230.545 54.3253 230.812 54.0213 230.993 53.648C231.185 53.2747 231.287 52.864 231.297 52.416H227.601V51.232H231.313C231.281 50.7307 231.169 50.2933 230.977 49.92C230.785 49.536 230.513 49.2373 230.161 49.024C229.82 48.8 229.388 48.688 228.865 48.688C228.556 48.688 228.247 48.7307 227.937 48.816C227.639 48.8907 227.377 49.024 227.153 49.216C226.929 49.3973 226.775 49.6533 226.689 49.984H225.313C225.452 49.408 225.692 48.9387 226.033 48.576C226.375 48.2027 226.791 47.9253 227.281 47.744C227.772 47.5627 228.3 47.472 228.865 47.472C229.772 47.472 230.503 47.6587 231.057 48.032C231.623 48.4053 232.033 48.9173 232.289 49.568C232.556 50.2187 232.689 50.96 232.689 51.792C232.689 52.6453 232.551 53.3973 232.273 54.048C231.996 54.688 231.569 55.1893 230.993 55.552C230.428 55.9147 229.697 56.096 228.801 56.096ZM236.415 56V48.768H233.519V47.568H240.671V48.768H237.775V56H236.415ZM245.565 56.096C244.679 56.096 243.938 55.9147 243.341 55.552C242.743 55.1787 242.295 54.6667 241.997 54.016C241.709 53.3653 241.565 52.624 241.565 51.792C241.565 50.9493 241.709 50.208 241.997 49.568C242.295 48.9173 242.743 48.4053 243.341 48.032C243.938 47.6587 244.69 47.472 245.597 47.472C246.482 47.472 247.218 47.6587 247.805 48.032C248.402 48.4053 248.845 48.9173 249.133 49.568C249.431 50.208 249.581 50.9493 249.581 51.792C249.581 52.624 249.431 53.3653 249.133 54.016C248.834 54.6667 248.386 55.1787 247.789 55.552C247.202 55.9147 246.461 56.096 245.565 56.096ZM245.565 54.896C246.183 54.896 246.685 54.7573 247.069 54.48C247.463 54.2027 247.751 53.8293 247.933 53.36C248.125 52.8907 248.221 52.368 248.221 51.792C248.221 51.216 248.125 50.6933 247.933 50.224C247.751 49.7547 247.463 49.3813 247.069 49.104C246.685 48.8267 246.183 48.688 245.565 48.688C244.957 48.688 244.455 48.8267 244.061 49.104C243.677 49.3813 243.389 49.7547 243.197 50.224C243.015 50.6933 242.924 51.216 242.924 51.792C242.924 52.368 243.015 52.8907 243.197 53.36C243.389 53.8293 243.677 54.2027 244.061 54.48C244.455 54.7573 244.957 54.896 245.565 54.896ZM251.4 56V47.568H252.76V54.032C252.835 53.8827 252.936 53.7227 253.064 53.552C253.192 53.3707 253.293 53.232 253.368 53.136L257.448 47.568H258.792V56H257.432V49.536C257.347 49.696 257.251 49.8453 257.144 49.984C257.048 50.1227 256.957 50.2507 256.872 50.368L252.728 56H251.4ZM255.208 46.384C254.365 46.384 253.704 46.2027 253.224 45.84C252.755 45.4773 252.509 44.9493 252.488 44.256H253.736C253.757 44.6293 253.896 44.9013 254.152 45.072C254.419 45.2427 254.776 45.328 255.224 45.328C255.672 45.328 256.024 45.2427 256.28 45.072C256.547 44.9013 256.691 44.6293 256.712 44.256H257.96C257.949 44.7147 257.832 45.104 257.608 45.424C257.384 45.744 257.069 45.984 256.664 46.144C256.259 46.304 255.773 46.384 255.208 46.384ZM265.244 56V47.568H266.604V51.2H268.076L270.572 47.568H272.124L269.308 51.584L272.364 56H270.764L268.236 52.384H266.604V56H265.244ZM273.541 56V47.568H274.901V51.264H279.125V47.568H280.485V56H279.125V52.464H274.901V56H273.541ZM286.315 56.096C285.429 56.096 284.688 55.9147 284.091 55.552C283.493 55.1787 283.045 54.6667 282.747 54.016C282.459 53.3653 282.315 52.624 282.315 51.792C282.315 50.9493 282.459 50.208 282.747 49.568C283.045 48.9173 283.493 48.4053 284.091 48.032C284.688 47.6587 285.44 47.472 286.347 47.472C287.232 47.472 287.968 47.6587 288.555 48.032C289.152 48.4053 289.595 48.9173 289.883 49.568C290.181 50.208 290.331 50.9493 290.331 51.792C290.331 52.624 290.181 53.3653 289.883 54.016C289.584 54.6667 289.136 55.1787 288.539 55.552C287.952 55.9147 287.211 56.096 286.315 56.096ZM286.315 54.896C286.933 54.896 287.435 54.7573 287.819 54.48C288.213 54.2027 288.501 53.8293 288.683 53.36C288.875 52.8907 288.971 52.368 288.971 51.792C288.971 51.216 288.875 50.6933 288.683 50.224C288.501 49.7547 288.213 49.3813 287.819 49.104C287.435 48.8267 286.933 48.688 286.315 48.688C285.707 48.688 285.205 48.8267 284.811 49.104C284.427 49.3813 284.139 49.7547 283.947 50.224C283.765 50.6933 283.674 51.216 283.674 51.792C283.674 52.368 283.765 52.8907 283.947 53.36C284.139 53.8293 284.427 54.2027 284.811 54.48C285.205 54.7573 285.707 54.896 286.315 54.896ZM292.15 56V47.568H299.142V56H297.782V48.768H293.51V56H292.15ZM301.291 56V47.568H302.651V51.2H304.123L306.619 47.568H308.171L305.355 51.584L308.411 56H306.811L304.283 52.384H302.651V56H301.291ZM309.588 56V47.568H310.948V54.032C311.022 53.8827 311.124 53.7227 311.252 53.552C311.38 53.3707 311.481 53.232 311.556 53.136L315.636 47.568H316.98V56H315.62V49.536C315.534 49.696 315.438 49.8453 315.332 49.984C315.236 50.1227 315.145 50.2507 315.06 50.368L310.916 56H309.588ZM106.072 76V67.568H107.432V71.2H108.904L111.4 67.568H112.952L110.136 71.584L113.192 76H111.592L109.064 72.384H107.432V76H106.072ZM116.917 76.096C116.533 76.096 116.159 76.048 115.797 75.952C115.445 75.8453 115.125 75.6907 114.837 75.488C114.559 75.2747 114.335 75.0133 114.165 74.704C114.005 74.384 113.925 74.016 113.925 73.6C113.925 73.12 114.01 72.7147 114.181 72.384C114.362 72.0533 114.602 71.792 114.901 71.6C115.199 71.408 115.546 71.2693 115.941 71.184C116.335 71.0987 116.746 71.056 117.173 71.056H119.653C119.653 70.576 119.583 70.16 119.445 69.808C119.317 69.456 119.103 69.184 118.805 68.992C118.506 68.7893 118.111 68.688 117.621 68.688C117.322 68.688 117.045 68.72 116.789 68.784C116.533 68.848 116.314 68.9493 116.133 69.088C115.951 69.2267 115.818 69.4133 115.733 69.648H114.277C114.351 69.264 114.495 68.9387 114.709 68.672C114.933 68.3947 115.199 68.1707 115.509 68C115.829 67.8187 116.17 67.6853 116.533 67.6C116.895 67.5147 117.258 67.472 117.621 67.472C118.431 67.472 119.082 67.6373 119.573 67.968C120.063 68.288 120.421 68.7467 120.645 69.344C120.869 69.9307 120.981 70.6293 120.981 71.44V76H119.845L119.765 74.928C119.53 75.248 119.247 75.4933 118.917 75.664C118.586 75.8347 118.245 75.9467 117.893 76C117.551 76.064 117.226 76.096 116.917 76.096ZM117.045 74.896C117.578 74.896 118.037 74.8107 118.421 74.64C118.815 74.4587 119.119 74.1973 119.333 73.856C119.546 73.5147 119.653 73.0987 119.653 72.608V72.192H118.165C117.813 72.192 117.466 72.1973 117.125 72.208C116.783 72.2187 116.474 72.2613 116.197 72.336C115.919 72.4107 115.695 72.5387 115.525 72.72C115.365 72.9013 115.285 73.1627 115.285 73.504C115.285 73.824 115.365 74.0853 115.525 74.288C115.695 74.4907 115.914 74.6453 116.181 74.752C116.458 74.848 116.746 74.896 117.045 74.896ZM123.088 76V67.568H124.912L127.648 71.792L130.336 67.568H132.128V76H130.784V69.072L127.808 73.84H127.424L124.432 69.072V76H123.088ZM137.923 76.096C137.027 76.096 136.286 75.9147 135.699 75.552C135.112 75.1787 134.675 74.6667 134.387 74.016C134.099 73.3653 133.955 72.624 133.955 71.792C133.955 70.9493 134.104 70.208 134.403 69.568C134.712 68.9173 135.16 68.4053 135.747 68.032C136.334 67.6587 137.054 67.472 137.907 67.472C138.536 67.472 139.086 67.5947 139.555 67.84C140.035 68.0747 140.43 68.3947 140.739 68.8C141.059 69.2053 141.288 69.6587 141.427 70.16C141.576 70.6613 141.64 71.1787 141.619 71.712C141.608 71.808 141.603 71.904 141.603 72C141.603 72.096 141.598 72.192 141.587 72.288H135.331C135.374 72.7787 135.496 73.2213 135.699 73.616C135.902 74.0107 136.19 74.3253 136.563 74.56C136.936 74.784 137.4 74.896 137.955 74.896C138.232 74.896 138.51 74.864 138.787 74.8C139.075 74.7253 139.331 74.6027 139.555 74.432C139.79 74.2613 139.955 74.032 140.051 73.744H141.443C141.315 74.288 141.075 74.736 140.723 75.088C140.371 75.4293 139.95 75.6853 139.459 75.856C138.968 76.016 138.456 76.096 137.923 76.096ZM135.363 71.104H140.243C140.232 70.624 140.126 70.2027 139.923 69.84C139.72 69.4773 139.443 69.1947 139.091 68.992C138.75 68.7893 138.339 68.688 137.859 68.688C137.336 68.688 136.894 68.8 136.531 69.024C136.179 69.248 135.907 69.5413 135.715 69.904C135.523 70.2667 135.406 70.6667 135.363 71.104ZM143.447 79.04V67.568H144.743L144.807 68.864C145.095 68.4053 145.484 68.0587 145.975 67.824C146.476 67.5893 147.015 67.472 147.591 67.472C148.444 67.472 149.143 67.664 149.687 68.048C150.231 68.4213 150.631 68.9333 150.887 69.584C151.154 70.2347 151.287 70.9707 151.287 71.792C151.287 72.6133 151.154 73.3493 150.887 74C150.62 74.6507 150.21 75.1627 149.655 75.536C149.1 75.9093 148.391 76.096 147.527 76.096C147.1 76.096 146.716 76.0533 146.375 75.968C146.034 75.872 145.735 75.7387 145.479 75.568C145.223 75.3973 144.999 75.2053 144.807 74.992V79.04H143.447ZM147.415 74.896C148.034 74.896 148.524 74.7573 148.887 74.48C149.25 74.192 149.511 73.8133 149.671 73.344C149.842 72.8747 149.927 72.3573 149.927 71.792C149.927 71.216 149.842 70.6933 149.671 70.224C149.511 69.7547 149.244 69.3813 148.871 69.104C148.498 68.8267 148.002 68.688 147.383 68.688C146.828 68.688 146.354 68.832 145.959 69.12C145.575 69.3973 145.282 69.776 145.079 70.256C144.876 70.7253 144.775 71.2427 144.775 71.808C144.775 72.3947 144.871 72.9227 145.063 73.392C145.255 73.8613 145.548 74.2293 145.943 74.496C146.338 74.7627 146.828 74.896 147.415 74.896ZM155.745 76.096C155.361 76.096 154.987 76.048 154.625 75.952C154.273 75.8453 153.953 75.6907 153.665 75.488C153.387 75.2747 153.163 75.0133 152.993 74.704C152.833 74.384 152.753 74.016 152.753 73.6C152.753 73.12 152.838 72.7147 153.009 72.384C153.19 72.0533 153.43 71.792 153.729 71.6C154.027 71.408 154.374 71.2693 154.769 71.184C155.163 71.0987 155.574 71.056 156.001 71.056H158.481C158.481 70.576 158.411 70.16 158.273 69.808C158.145 69.456 157.931 69.184 157.633 68.992C157.334 68.7893 156.939 68.688 156.449 68.688C156.15 68.688 155.873 68.72 155.617 68.784C155.361 68.848 155.142 68.9493 154.961 69.088C154.779 69.2267 154.646 69.4133 154.561 69.648H153.105C153.179 69.264 153.323 68.9387 153.537 68.672C153.761 68.3947 154.027 68.1707 154.337 68C154.657 67.8187 154.998 67.6853 155.361 67.6C155.723 67.5147 156.086 67.472 156.449 67.472C157.259 67.472 157.91 67.6373 158.401 67.968C158.891 68.288 159.249 68.7467 159.473 69.344C159.697 69.9307 159.809 70.6293 159.809 71.44V76H158.673L158.593 74.928C158.358 75.248 158.075 75.4933 157.745 75.664C157.414 75.8347 157.073 75.9467 156.721 76C156.379 76.064 156.054 76.096 155.745 76.096ZM155.873 74.896C156.406 74.896 156.865 74.8107 157.249 74.64C157.643 74.4587 157.947 74.1973 158.161 73.856C158.374 73.5147 158.481 73.0987 158.481 72.608V72.192H156.993C156.641 72.192 156.294 72.1973 155.953 72.208C155.611 72.2187 155.302 72.2613 155.025 72.336C154.747 72.4107 154.523 72.5387 154.353 72.72C154.193 72.9013 154.113 73.1627 154.113 73.504C154.113 73.824 154.193 74.0853 154.353 74.288C154.523 74.4907 154.742 74.6453 155.009 74.752C155.286 74.848 155.574 74.896 155.873 74.896ZM169.78 76.096C169.247 76.096 168.772 76.0213 168.356 75.872C167.94 75.712 167.583 75.4933 167.284 75.216C166.986 74.928 166.74 74.592 166.548 74.208C166.356 73.8133 166.212 73.3867 166.116 72.928C166.02 72.4693 165.972 71.984 165.972 71.472C165.972 70.6507 165.988 69.888 166.02 69.184C166.063 68.4693 166.18 67.8347 166.372 67.28C166.564 66.7147 166.89 66.2453 167.348 65.872C167.807 65.4987 168.452 65.2373 169.284 65.088C169.711 65.0133 170.132 64.9493 170.548 64.896C170.964 64.8427 171.386 64.7893 171.812 64.736C171.951 64.7147 172.095 64.6933 172.244 64.672C172.394 64.6507 172.548 64.624 172.708 64.592C172.879 64.56 173.039 64.5333 173.188 64.512V65.76C173.071 65.8027 172.943 65.84 172.804 65.872C172.676 65.8933 172.538 65.9147 172.388 65.936C172.25 65.9573 172.106 65.9733 171.956 65.984C171.818 65.9947 171.679 66.0107 171.54 66.032C171.402 66.0427 171.268 66.0587 171.14 66.08C170.767 66.1227 170.372 66.1653 169.956 66.208C169.54 66.24 169.146 66.3253 168.772 66.464C168.41 66.592 168.1 66.8427 167.844 67.216C167.716 67.408 167.604 67.6373 167.508 67.904C167.423 68.1707 167.359 68.4427 167.316 68.72C167.284 68.9867 167.263 69.2427 167.252 69.488C167.466 69.1893 167.727 68.9493 168.036 68.768C168.346 68.576 168.676 68.4373 169.028 68.352C169.38 68.256 169.716 68.208 170.036 68.208C170.804 68.208 171.455 68.368 171.988 68.688C172.522 68.9973 172.927 69.44 173.204 70.016C173.482 70.592 173.62 71.264 173.62 72.032C173.62 72.8 173.471 73.4933 173.172 74.112C172.874 74.72 172.436 75.2053 171.86 75.568C171.295 75.92 170.602 76.096 169.78 76.096ZM169.812 74.896C170.346 74.896 170.794 74.768 171.156 74.512C171.519 74.256 171.791 73.9147 171.972 73.488C172.164 73.0613 172.26 72.592 172.26 72.08C172.26 71.5787 172.164 71.1307 171.972 70.736C171.791 70.3307 171.519 70.0107 171.156 69.776C170.804 69.5413 170.367 69.424 169.844 69.424C169.332 69.424 168.89 69.5467 168.516 69.792C168.154 70.0373 167.871 70.368 167.668 70.784C167.476 71.1893 167.38 71.632 167.38 72.112C167.38 72.6027 167.471 73.0613 167.652 73.488C167.834 73.9147 168.1 74.256 168.452 74.512C168.815 74.768 169.268 74.896 169.812 74.896ZM175.719 79.616V78.32C176.242 78.32 176.658 78.2453 176.967 78.096C177.276 77.9573 177.532 77.7333 177.735 77.424C177.948 77.1253 178.151 76.7413 178.343 76.272L174.647 67.568H176.247L179.095 74.672L181.431 67.568H182.967L180.599 74.208C180.482 74.5493 180.348 74.9333 180.199 75.36C180.05 75.7867 179.884 76.2187 179.703 76.656C179.522 77.104 179.319 77.5147 179.095 77.888C178.882 78.272 178.642 78.5813 178.375 78.816C178.151 79.0187 177.932 79.1787 177.719 79.296C177.506 79.4133 177.244 79.4933 176.935 79.536C176.636 79.5893 176.231 79.616 175.719 79.616ZM183.508 78.592V74.816C183.818 74.816 184.063 74.7307 184.244 74.56C184.436 74.3893 184.586 74.1653 184.692 73.888C184.799 73.6107 184.879 73.312 184.932 72.992C184.986 72.6613 185.028 72.3467 185.06 72.048C185.114 71.5573 185.146 71.072 185.156 70.592C185.178 70.1013 185.188 69.712 185.188 69.424C185.199 69.1147 185.204 68.8053 185.204 68.496C185.204 68.1867 185.204 67.8773 185.204 67.568H191.188V74.816H192.292V78.592H190.98V76H184.82V78.592H183.508ZM185.668 74.816H189.828V68.768H186.5C186.49 69.216 186.479 69.7173 186.468 70.272C186.458 70.8267 186.436 71.344 186.404 71.824C186.394 72.1013 186.367 72.416 186.324 72.768C186.292 73.12 186.228 73.4773 186.132 73.84C186.036 74.192 185.882 74.5173 185.668 74.816ZM197.361 76.096C196.465 76.096 195.723 75.9147 195.137 75.552C194.55 75.1787 194.113 74.6667 193.825 74.016C193.537 73.3653 193.393 72.624 193.393 71.792C193.393 70.9493 193.542 70.208 193.841 69.568C194.15 68.9173 194.598 68.4053 195.185 68.032C195.771 67.6587 196.491 67.472 197.345 67.472C197.974 67.472 198.523 67.5947 198.993 67.84C199.473 68.0747 199.867 68.3947 200.177 68.8C200.497 69.2053 200.726 69.6587 200.865 70.16C201.014 70.6613 201.078 71.1787 201.057 71.712C201.046 71.808 201.041 71.904 201.041 72C201.041 72.096 201.035 72.192 201.025 72.288H194.769C194.811 72.7787 194.934 73.2213 195.137 73.616C195.339 74.0107 195.627 74.3253 196.001 74.56C196.374 74.784 196.838 74.896 197.393 74.896C197.67 74.896 197.947 74.864 198.225 74.8C198.513 74.7253 198.769 74.6027 198.993 74.432C199.227 74.2613 199.393 74.032 199.489 73.744H200.881C200.753 74.288 200.513 74.736 200.161 75.088C199.809 75.4293 199.387 75.6853 198.897 75.856C198.406 76.016 197.894 76.096 197.361 76.096ZM194.801 71.104H199.681C199.67 70.624 199.563 70.2027 199.361 69.84C199.158 69.4773 198.881 69.1947 198.529 68.992C198.187 68.7893 197.777 68.688 197.297 68.688C196.774 68.688 196.331 68.8 195.969 69.024C195.617 69.248 195.345 69.5413 195.153 69.904C194.961 70.2667 194.843 70.6667 194.801 71.104ZM204.853 76V68.768H201.957V67.568H209.109V68.768H206.213V76H204.853ZM214.635 76V67.568H217.899C218.272 67.568 218.64 67.5947 219.003 67.648C219.376 67.6907 219.712 67.7867 220.011 67.936C220.32 68.0747 220.565 68.2827 220.747 68.56C220.939 68.8373 221.035 69.2053 221.035 69.664C221.035 69.9413 220.992 70.1973 220.907 70.432C220.821 70.656 220.693 70.8533 220.523 71.024C220.363 71.1947 220.155 71.344 219.899 71.472C220.475 71.6 220.891 71.8507 221.147 72.224C221.403 72.5973 221.531 73.024 221.531 73.504C221.531 73.9307 221.451 74.304 221.291 74.624C221.141 74.9333 220.928 75.1893 220.651 75.392C220.384 75.5947 220.069 75.7493 219.707 75.856C219.355 75.952 218.976 76 218.571 76H214.635ZM216.027 74.816H218.251C218.581 74.816 218.891 74.784 219.179 74.72C219.467 74.656 219.701 74.5387 219.883 74.368C220.064 74.1867 220.155 73.9307 220.155 73.6C220.155 73.2587 220.075 73.0027 219.915 72.832C219.765 72.6507 219.568 72.528 219.323 72.464C219.088 72.3893 218.832 72.3467 218.555 72.336C218.277 72.3253 218.016 72.32 217.771 72.32H216.027V74.816ZM216.027 71.168H217.195C217.408 71.168 217.653 71.1573 217.931 71.136C218.219 71.1147 218.496 71.0667 218.763 70.992C219.04 70.9067 219.264 70.7787 219.435 70.608C219.616 70.4373 219.707 70.2027 219.707 69.904C219.707 69.5093 219.595 69.2373 219.371 69.088C219.157 68.928 218.901 68.8373 218.603 68.816C218.304 68.784 218.027 68.768 217.771 68.768H216.027V71.168ZM223.385 79.04V67.568H224.681L224.745 68.864C225.033 68.4053 225.422 68.0587 225.913 67.824C226.414 67.5893 226.953 67.472 227.529 67.472C228.382 67.472 229.081 67.664 229.625 68.048C230.169 68.4213 230.569 68.9333 230.825 69.584C231.091 70.2347 231.225 70.9707 231.225 71.792C231.225 72.6133 231.091 73.3493 230.825 74C230.558 74.6507 230.147 75.1627 229.593 75.536C229.038 75.9093 228.329 76.096 227.465 76.096C227.038 76.096 226.654 76.0533 226.312 75.968C225.971 75.872 225.673 75.7387 225.417 75.568C225.161 75.3973 224.937 75.2053 224.745 74.992V79.04H223.385ZM227.353 74.896C227.971 74.896 228.462 74.7573 228.825 74.48C229.187 74.192 229.449 73.8133 229.609 73.344C229.779 72.8747 229.865 72.3573 229.865 71.792C229.865 71.216 229.779 70.6933 229.609 70.224C229.449 69.7547 229.182 69.3813 228.809 69.104C228.435 68.8267 227.939 68.688 227.321 68.688C226.766 68.688 226.291 68.832 225.897 69.12C225.513 69.3973 225.219 69.776 225.017 70.256C224.814 70.7253 224.713 71.2427 224.713 71.808C224.713 72.3947 224.809 72.9227 225.001 73.392C225.193 73.8613 225.486 74.2293 225.881 74.496C226.275 74.7627 226.766 74.896 227.353 74.896ZM235.682 76.096C235.298 76.096 234.925 76.048 234.562 75.952C234.21 75.8453 233.89 75.6907 233.602 75.488C233.325 75.2747 233.101 75.0133 232.93 74.704C232.77 74.384 232.69 74.016 232.69 73.6C232.69 73.12 232.776 72.7147 232.946 72.384C233.128 72.0533 233.368 71.792 233.666 71.6C233.965 71.408 234.312 71.2693 234.706 71.184C235.101 71.0987 235.512 71.056 235.938 71.056H238.418C238.418 70.576 238.349 70.16 238.21 69.808C238.082 69.456 237.869 69.184 237.57 68.992C237.272 68.7893 236.877 68.688 236.386 68.688C236.088 68.688 235.81 68.72 235.554 68.784C235.298 68.848 235.08 68.9493 234.898 69.088C234.717 69.2267 234.584 69.4133 234.498 69.648H233.042C233.117 69.264 233.261 68.9387 233.474 68.672C233.698 68.3947 233.965 68.1707 234.274 68C234.594 67.8187 234.936 67.6853 235.298 67.6C235.661 67.5147 236.024 67.472 236.386 67.472C237.197 67.472 237.848 67.6373 238.338 67.968C238.829 68.288 239.186 68.7467 239.41 69.344C239.634 69.9307 239.746 70.6293 239.746 71.44V76H238.61L238.53 74.928C238.296 75.248 238.013 75.4933 237.682 75.664C237.352 75.8347 237.01 75.9467 236.658 76C236.317 76.064 235.992 76.096 235.682 76.096ZM235.81 74.896C236.344 74.896 236.802 74.8107 237.186 74.64C237.581 74.4587 237.885 74.1973 238.098 73.856C238.312 73.5147 238.418 73.0987 238.418 72.608V72.192H236.93C236.578 72.192 236.232 72.1973 235.89 72.208C235.549 72.2187 235.24 72.2613 234.962 72.336C234.685 72.4107 234.461 72.5387 234.29 72.72C234.13 72.9013 234.05 73.1627 234.05 73.504C234.05 73.824 234.13 74.0853 234.29 74.288C234.461 74.4907 234.68 74.6453 234.946 74.752C235.224 74.848 235.512 74.896 235.81 74.896ZM252.093 78.592V76H241.853V67.568H243.213V74.816H246.381V67.568H247.741V74.816H250.941V67.568H252.301V74.816H253.405V78.592H252.093ZM257.526 76.096C257.142 76.096 256.769 76.048 256.406 75.952C256.054 75.8453 255.734 75.6907 255.446 75.488C255.169 75.2747 254.945 75.0133 254.774 74.704C254.614 74.384 254.534 74.016 254.534 73.6C254.534 73.12 254.619 72.7147 254.79 72.384C254.971 72.0533 255.211 71.792 255.51 71.6C255.809 71.408 256.155 71.2693 256.55 71.184C256.945 71.0987 257.355 71.056 257.782 71.056H260.262C260.262 70.576 260.193 70.16 260.054 69.808C259.926 69.456 259.713 69.184 259.414 68.992C259.115 68.7893 258.721 68.688 258.23 68.688C257.931 68.688 257.654 68.72 257.398 68.784C257.142 68.848 256.923 68.9493 256.742 69.088C256.561 69.2267 256.427 69.4133 256.342 69.648H254.886C254.961 69.264 255.105 68.9387 255.318 68.672C255.542 68.3947 255.809 68.1707 256.118 68C256.438 67.8187 256.779 67.6853 257.142 67.6C257.505 67.5147 257.867 67.472 258.23 67.472C259.041 67.472 259.691 67.6373 260.182 67.968C260.673 68.288 261.03 68.7467 261.254 69.344C261.478 69.9307 261.59 70.6293 261.59 71.44V76H260.454L260.374 74.928C260.139 75.248 259.857 75.4933 259.526 75.664C259.195 75.8347 258.854 75.9467 258.502 76C258.161 76.064 257.835 76.096 257.526 76.096ZM257.654 74.896C258.187 74.896 258.646 74.8107 259.03 74.64C259.425 74.4587 259.729 74.1973 259.942 73.856C260.155 73.5147 260.262 73.0987 260.262 72.608V72.192H258.774C258.422 72.192 258.075 72.1973 257.734 72.208C257.393 72.2187 257.083 72.2613 256.806 72.336C256.529 72.4107 256.305 72.5387 256.134 72.72C255.974 72.9013 255.894 73.1627 255.894 73.504C255.894 73.824 255.974 74.0853 256.134 74.288C256.305 74.4907 256.523 74.6453 256.79 74.752C257.067 74.848 257.355 74.896 257.654 74.896ZM265.665 76V68.768H262.769V67.568H269.921V68.768H267.025V76H265.665ZM271.135 76V67.568H272.527V70.784H274.383C274.884 70.784 275.332 70.8267 275.727 70.912C276.132 70.9867 276.479 71.12 276.767 71.312C277.055 71.504 277.273 71.7653 277.423 72.096C277.583 72.416 277.663 72.8267 277.663 73.328C277.663 73.7867 277.583 74.1867 277.423 74.528C277.263 74.8587 277.039 75.136 276.751 75.36C276.463 75.5733 276.116 75.7333 275.711 75.84C275.316 75.9467 274.879 76 274.399 76H271.135ZM272.527 74.816H273.327C273.7 74.816 274.057 74.8053 274.399 74.784C274.751 74.7627 275.071 74.7093 275.359 74.624C275.647 74.5387 275.871 74.4 276.031 74.208C276.201 74.0053 276.287 73.728 276.287 73.376C276.287 73.0347 276.217 72.7733 276.079 72.592C275.951 72.4 275.78 72.2613 275.567 72.176C275.353 72.08 275.119 72.0213 274.863 72C274.617 71.9787 274.372 71.968 274.127 71.968H272.527V74.816ZM283.031 76.096C282.146 76.096 281.41 75.9147 280.823 75.552C280.247 75.1787 279.815 74.6667 279.527 74.016C279.25 73.3653 279.111 72.6293 279.111 71.808C279.111 71.008 279.255 70.2827 279.543 69.632C279.842 68.9707 280.29 68.448 280.887 68.064C281.495 67.6693 282.263 67.472 283.191 67.472C283.767 67.472 284.279 67.568 284.727 67.76C285.186 67.952 285.565 68.2347 285.863 68.608C286.162 68.9707 286.37 69.4293 286.487 69.984H285.095C284.935 69.5147 284.679 69.184 284.327 68.992C283.986 68.7893 283.581 68.688 283.111 68.688C282.471 68.688 281.959 68.8373 281.575 69.136C281.191 69.4347 280.909 69.824 280.727 70.304C280.557 70.7733 280.471 71.2747 280.471 71.808C280.471 72.3627 280.562 72.8747 280.743 73.344C280.925 73.8133 281.207 74.192 281.591 74.48C281.975 74.7573 282.471 74.896 283.079 74.896C283.527 74.896 283.949 74.8 284.343 74.608C284.749 74.416 285.015 74.0747 285.143 73.584H286.551C286.445 74.16 286.215 74.6347 285.863 75.008C285.522 75.3813 285.101 75.6587 284.599 75.84C284.109 76.0107 283.586 76.096 283.031 76.096ZM287.747 76L289.939 72.672C289.331 72.5013 288.851 72.224 288.499 71.84C288.147 71.4453 287.971 70.9227 287.971 70.272C287.971 69.76 288.046 69.3333 288.195 68.992C288.344 68.64 288.563 68.3627 288.851 68.16C289.139 67.9467 289.486 67.7973 289.891 67.712C290.296 67.616 290.76 67.568 291.283 67.568H294.675V76H293.315V72.88H291.379L289.331 76H287.747ZM292.307 71.696H293.315V68.768H291.507C291.187 68.768 290.894 68.784 290.627 68.816C290.36 68.848 290.131 68.9173 289.939 69.024C289.758 69.12 289.614 69.264 289.507 69.456C289.4 69.6373 289.347 69.888 289.347 70.208C289.347 70.56 289.432 70.8373 289.603 71.04C289.784 71.2427 290.014 71.392 290.291 71.488C290.579 71.5733 290.899 71.632 291.251 71.664C291.603 71.6853 291.955 71.696 292.307 71.696ZM301.135 76V67.568H308.127V76H306.767V68.768H302.495V76H301.135ZM313.955 76.096C313.07 76.096 312.328 75.9147 311.731 75.552C311.134 75.1787 310.686 74.6667 310.387 74.016C310.099 73.3653 309.955 72.624 309.955 71.792C309.955 70.9493 310.099 70.208 310.387 69.568C310.686 68.9173 311.134 68.4053 311.731 68.032C312.328 67.6587 313.08 67.472 313.987 67.472C314.872 67.472 315.608 67.6587 316.195 68.032C316.792 68.4053 317.235 68.9173 317.523 69.568C317.822 70.208 317.971 70.9493 317.971 71.792C317.971 72.624 317.822 73.3653 317.523 74.016C317.224 74.6667 316.776 75.1787 316.179 75.552C315.592 75.9147 314.851 76.096 313.955 76.096ZM313.955 74.896C314.574 74.896 315.075 74.7573 315.459 74.48C315.854 74.2027 316.142 73.8293 316.323 73.36C316.515 72.8907 316.611 72.368 316.611 71.792C316.611 71.216 316.515 70.6933 316.323 70.224C316.142 69.7547 315.854 69.3813 315.459 69.104C315.075 68.8267 314.574 68.688 313.955 68.688C313.347 68.688 312.846 68.8267 312.451 69.104C312.067 69.3813 311.779 69.7547 311.587 70.224C311.406 70.6933 311.315 71.216 311.315 71.792C311.315 72.368 311.406 72.8907 311.587 73.36C311.779 73.8293 312.067 74.2027 312.451 74.48C312.846 74.7573 313.347 74.896 313.955 74.896ZM327.703 76.096C326.818 76.096 326.082 75.9147 325.495 75.552C324.919 75.1787 324.487 74.6667 324.199 74.016C323.922 73.3653 323.783 72.6293 323.783 71.808C323.783 71.008 323.927 70.2827 324.215 69.632C324.514 68.9707 324.962 68.448 325.559 68.064C326.167 67.6693 326.935 67.472 327.863 67.472C328.439 67.472 328.951 67.568 329.399 67.76C329.858 67.952 330.237 68.2347 330.535 68.608C330.834 68.9707 331.042 69.4293 331.159 69.984H329.767C329.607 69.5147 329.351 69.184 328.999 68.992C328.658 68.7893 328.253 68.688 327.783 68.688C327.143 68.688 326.631 68.8373 326.247 69.136C325.863 69.4347 325.581 69.824 325.399 70.304C325.229 70.7733 325.143 71.2747 325.143 71.808C325.143 72.3627 325.234 72.8747 325.415 73.344C325.597 73.8133 325.879 74.192 326.263 74.48C326.647 74.7573 327.143 74.896 327.751 74.896C328.199 74.896 328.621 74.8 329.015 74.608C329.421 74.416 329.687 74.0747 329.815 73.584H331.223C331.117 74.16 330.887 74.6347 330.535 75.008C330.194 75.3813 329.773 75.6587 329.271 75.84C328.781 76.0107 328.258 76.096 327.703 76.096ZM332.947 76V67.568H336.211C336.584 67.568 336.952 67.5947 337.315 67.648C337.688 67.6907 338.024 67.7867 338.323 67.936C338.632 68.0747 338.878 68.2827 339.059 68.56C339.251 68.8373 339.347 69.2053 339.347 69.664C339.347 69.9413 339.304 70.1973 339.219 70.432C339.134 70.656 339.006 70.8533 338.835 71.024C338.675 71.1947 338.467 71.344 338.211 71.472C338.787 71.6 339.203 71.8507 339.459 72.224C339.715 72.5973 339.843 73.024 339.843 73.504C339.843 73.9307 339.763 74.304 339.603 74.624C339.454 74.9333 339.24 75.1893 338.963 75.392C338.696 75.5947 338.382 75.7493 338.019 75.856C337.667 75.952 337.288 76 336.883 76H332.947ZM334.339 74.816H336.563C336.894 74.816 337.203 74.784 337.491 74.72C337.779 74.656 338.014 74.5387 338.195 74.368C338.376 74.1867 338.467 73.9307 338.467 73.6C338.467 73.2587 338.387 73.0027 338.227 72.832C338.078 72.6507 337.88 72.528 337.635 72.464C337.4 72.3893 337.144 72.3467 336.867 72.336C336.59 72.3253 336.328 72.32 336.083 72.32H334.339V74.816ZM334.339 71.168H335.507C335.72 71.168 335.966 71.1573 336.243 71.136C336.531 71.1147 336.808 71.0667 337.075 70.992C337.352 70.9067 337.576 70.7787 337.747 70.608C337.928 70.4373 338.019 70.2027 338.019 69.904C338.019 69.5093 337.907 69.2373 337.683 69.088C337.47 68.928 337.214 68.8373 336.915 68.816C336.616 68.784 336.339 68.768 336.083 68.768H334.339V71.168ZM345.377 76.096C344.492 76.096 343.75 75.9147 343.153 75.552C342.556 75.1787 342.108 74.6667 341.809 74.016C341.521 73.3653 341.377 72.624 341.377 71.792C341.377 70.9493 341.521 70.208 341.809 69.568C342.108 68.9173 342.556 68.4053 343.153 68.032C343.75 67.6587 344.502 67.472 345.409 67.472C346.294 67.472 347.03 67.6587 347.617 68.032C348.214 68.4053 348.657 68.9173 348.945 69.568C349.244 70.208 349.393 70.9493 349.393 71.792C349.393 72.624 349.244 73.3653 348.945 74.016C348.646 74.6667 348.198 75.1787 347.601 75.552C347.014 75.9147 346.273 76.096 345.377 76.096ZM345.377 74.896C345.996 74.896 346.497 74.7573 346.881 74.48C347.276 74.2027 347.564 73.8293 347.745 73.36C347.937 72.8907 348.033 72.368 348.033 71.792C348.033 71.216 347.937 70.6933 347.745 70.224C347.564 69.7547 347.276 69.3813 346.881 69.104C346.497 68.8267 345.996 68.688 345.377 68.688C344.769 68.688 344.268 68.8267 343.873 69.104C343.489 69.3813 343.201 69.7547 343.009 70.224C342.828 70.6933 342.737 71.216 342.737 71.792C342.737 72.368 342.828 72.8907 343.009 73.36C343.201 73.8293 343.489 74.2027 343.873 74.48C344.268 74.7573 344.769 74.896 345.377 74.896ZM354.861 76.096C353.965 76.096 353.223 75.9147 352.637 75.552C352.05 75.1787 351.613 74.6667 351.325 74.016C351.037 73.3653 350.893 72.624 350.893 71.792C350.893 70.9493 351.042 70.208 351.341 69.568C351.65 68.9173 352.098 68.4053 352.685 68.032C353.271 67.6587 353.991 67.472 354.845 67.472C355.474 67.472 356.023 67.5947 356.493 67.84C356.973 68.0747 357.367 68.3947 357.677 68.8C357.997 69.2053 358.226 69.6587 358.365 70.16C358.514 70.6613 358.578 71.1787 358.557 71.712C358.546 71.808 358.541 71.904 358.541 72C358.541 72.096 358.535 72.192 358.525 72.288H352.269C352.311 72.7787 352.434 73.2213 352.637 73.616C352.839 74.0107 353.127 74.3253 353.501 74.56C353.874 74.784 354.338 74.896 354.893 74.896C355.17 74.896 355.447 74.864 355.725 74.8C356.013 74.7253 356.269 74.6027 356.493 74.432C356.727 74.2613 356.893 74.032 356.989 73.744H358.381C358.253 74.288 358.013 74.736 357.661 75.088C357.309 75.4293 356.887 75.6853 356.397 75.856C355.906 76.016 355.394 76.096 354.861 76.096ZM352.301 71.104H357.181C357.17 70.624 357.063 70.2027 356.861 69.84C356.658 69.4773 356.381 69.1947 356.029 68.992C355.687 68.7893 355.277 68.688 354.797 68.688C354.274 68.688 353.831 68.8 353.469 69.024C353.117 69.248 352.845 69.5413 352.653 69.904C352.461 70.2667 352.343 70.6667 352.301 71.104ZM360.385 76V67.568H361.745V74.032C361.819 73.8827 361.921 73.7227 362.049 73.552C362.177 73.3707 362.278 73.232 362.353 73.136L366.433 67.568H367.777V76H366.417V69.536C366.331 69.696 366.235 69.8453 366.129 69.984C366.033 70.1227 365.942 70.2507 365.857 70.368L361.713 76H360.385ZM364.193 66.384C363.35 66.384 362.689 66.2027 362.209 65.84C361.739 65.4773 361.494 64.9493 361.473 64.256H362.721C362.742 64.6293 362.881 64.9013 363.137 65.072C363.403 65.2427 363.761 65.328 364.209 65.328C364.657 65.328 365.009 65.2427 365.265 65.072C365.531 64.9013 365.675 64.6293 365.697 64.256H366.945C366.934 64.7147 366.817 65.104 366.593 65.424C366.369 65.744 366.054 65.984 365.649 66.144C365.243 66.304 364.758 66.384 364.193 66.384ZM106.072 96V87.568H109.336C109.709 87.568 110.077 87.5947 110.44 87.648C110.813 87.6907 111.149 87.7867 111.448 87.936C111.757 88.0747 112.003 88.2827 112.184 88.56C112.376 88.8373 112.472 89.2053 112.472 89.664C112.472 89.9413 112.429 90.1973 112.344 90.432C112.259 90.656 112.131 90.8533 111.96 91.024C111.8 91.1947 111.592 91.344 111.336 91.472C111.912 91.6 112.328 91.8507 112.584 92.224C112.84 92.5973 112.968 93.024 112.968 93.504C112.968 93.9307 112.888 94.304 112.728 94.624C112.579 94.9333 112.365 95.1893 112.088 95.392C111.821 95.5947 111.507 95.7493 111.144 95.856C110.792 95.952 110.413 96 110.008 96H106.072ZM107.464 94.816H109.688C110.019 94.816 110.328 94.784 110.616 94.72C110.904 94.656 111.139 94.5387 111.32 94.368C111.501 94.1867 111.592 93.9307 111.592 93.6C111.592 93.2587 111.512 93.0027 111.352 92.832C111.203 92.6507 111.005 92.528 110.76 92.464C110.525 92.3893 110.269 92.3467 109.992 92.336C109.715 92.3253 109.453 92.32 109.208 92.32H107.464V94.816ZM107.464 91.168H108.632C108.845 91.168 109.091 91.1573 109.368 91.136C109.656 91.1147 109.933 91.0667 110.2 90.992C110.477 90.9067 110.701 90.7787 110.872 90.608C111.053 90.4373 111.144 90.2027 111.144 89.904C111.144 89.5093 111.032 89.2373 110.808 89.088C110.595 88.928 110.339 88.8373 110.04 88.816C109.741 88.784 109.464 88.768 109.208 88.768H107.464V91.168ZM118.47 96.096C117.574 96.096 116.833 95.9147 116.246 95.552C115.659 95.1787 115.222 94.6667 114.934 94.016C114.646 93.3653 114.502 92.624 114.502 91.792C114.502 90.9493 114.651 90.208 114.95 89.568C115.259 88.9173 115.707 88.4053 116.294 88.032C116.881 87.6587 117.601 87.472 118.454 87.472C119.083 87.472 119.633 87.5947 120.102 87.84C120.582 88.0747 120.977 88.3947 121.286 88.8C121.606 89.2053 121.835 89.6587 121.974 90.16C122.123 90.6613 122.187 91.1787 122.166 91.712C122.155 91.808 122.15 91.904 122.15 92C122.15 92.096 122.145 92.192 122.134 92.288H115.878C115.921 92.7787 116.043 93.2213 116.246 93.616C116.449 94.0107 116.737 94.3253 117.11 94.56C117.483 94.784 117.947 94.896 118.502 94.896C118.779 94.896 119.057 94.864 119.334 94.8C119.622 94.7253 119.878 94.6027 120.102 94.432C120.337 94.2613 120.502 94.032 120.598 93.744H121.99C121.862 94.288 121.622 94.736 121.27 95.088C120.918 95.4293 120.497 95.6853 120.006 95.856C119.515 96.016 119.003 96.096 118.47 96.096ZM115.91 91.104H120.79C120.779 90.624 120.673 90.2027 120.47 89.84C120.267 89.4773 119.99 89.1947 119.638 88.992C119.297 88.7893 118.886 88.688 118.406 88.688C117.883 88.688 117.441 88.8 117.078 89.024C116.726 89.248 116.454 89.5413 116.262 89.904C116.07 90.2667 115.953 90.6667 115.91 91.104ZM123.994 99.04V87.568H125.29L125.354 88.864C125.642 88.4053 126.031 88.0587 126.522 87.824C127.023 87.5893 127.562 87.472 128.138 87.472C128.991 87.472 129.69 87.664 130.234 88.048C130.778 88.4213 131.178 88.9333 131.434 89.584C131.701 90.2347 131.834 90.9707 131.834 91.792C131.834 92.6133 131.701 93.3493 131.434 94C131.167 94.6507 130.757 95.1627 130.202 95.536C129.647 95.9093 128.938 96.096 128.074 96.096C127.647 96.096 127.263 96.0533 126.922 95.968C126.581 95.872 126.282 95.7387 126.026 95.568C125.77 95.3973 125.546 95.2053 125.354 94.992V99.04H123.994ZM127.962 94.896C128.581 94.896 129.071 94.7573 129.434 94.48C129.797 94.192 130.058 93.8133 130.218 93.344C130.389 92.8747 130.474 92.3573 130.474 91.792C130.474 91.216 130.389 90.6933 130.218 90.224C130.058 89.7547 129.791 89.3813 129.418 89.104C129.045 88.8267 128.549 88.688 127.93 88.688C127.375 88.688 126.901 88.832 126.506 89.12C126.122 89.3973 125.829 89.776 125.626 90.256C125.423 90.7253 125.322 91.2427 125.322 91.808C125.322 92.3947 125.418 92.9227 125.61 93.392C125.802 93.8613 126.095 94.2293 126.49 94.496C126.885 94.7627 127.375 94.896 127.962 94.896ZM135.556 96V88.768H132.66V87.568H139.812V88.768H136.916V96H135.556ZM141.025 96V87.568H142.385V94.032C142.46 93.8827 142.561 93.7227 142.689 93.552C142.817 93.3707 142.918 93.232 142.993 93.136L147.073 87.568H148.417V96H147.057V89.536C146.972 89.696 146.876 89.8453 146.769 89.984C146.673 90.1227 146.582 90.2507 146.497 90.368L142.353 96H141.025ZM150.556 96V87.568H151.916V91.2H153.388L155.884 87.568H157.436L154.62 91.584L157.676 96H156.076L153.548 92.384H151.916V96H150.556ZM161.401 96.096C161.017 96.096 160.644 96.048 160.281 95.952C159.929 95.8453 159.609 95.6907 159.321 95.488C159.044 95.2747 158.82 95.0133 158.649 94.704C158.489 94.384 158.409 94.016 158.409 93.6C158.409 93.12 158.494 92.7147 158.665 92.384C158.846 92.0533 159.086 91.792 159.385 91.6C159.684 91.408 160.03 91.2693 160.425 91.184C160.82 91.0987 161.23 91.056 161.657 91.056H164.137C164.137 90.576 164.068 90.16 163.929 89.808C163.801 89.456 163.588 89.184 163.289 88.992C162.99 88.7893 162.596 88.688 162.105 88.688C161.806 88.688 161.529 88.72 161.273 88.784C161.017 88.848 160.798 88.9493 160.617 89.088C160.436 89.2267 160.302 89.4133 160.217 89.648H158.761C158.836 89.264 158.98 88.9387 159.193 88.672C159.417 88.3947 159.684 88.1707 159.993 88C160.313 87.8187 160.654 87.6853 161.017 87.6C161.38 87.5147 161.742 87.472 162.105 87.472C162.916 87.472 163.566 87.6373 164.057 87.968C164.548 88.288 164.905 88.7467 165.129 89.344C165.353 89.9307 165.465 90.6293 165.465 91.44V96H164.329L164.249 94.928C164.014 95.248 163.732 95.4933 163.401 95.664C163.07 95.8347 162.729 95.9467 162.377 96C162.036 96.064 161.71 96.096 161.401 96.096ZM161.529 94.896C162.062 94.896 162.521 94.8107 162.905 94.64C163.3 94.4587 163.604 94.1973 163.817 93.856C164.03 93.5147 164.137 93.0987 164.137 92.608V92.192H162.649C162.297 92.192 161.95 92.1973 161.609 92.208C161.268 92.2187 160.958 92.2613 160.681 92.336C160.404 92.4107 160.18 92.5387 160.009 92.72C159.849 92.9013 159.769 93.1627 159.769 93.504C159.769 93.824 159.849 94.0853 160.009 94.288C160.18 94.4907 160.398 94.6453 160.665 94.752C160.942 94.848 161.23 94.896 161.529 94.896ZM166.804 96.016V94.832C167.017 94.832 167.209 94.7893 167.38 94.704C167.551 94.608 167.7 94.4693 167.828 94.288C167.977 94.0747 168.095 93.7653 168.18 93.36C168.265 92.9547 168.324 92.5227 168.356 92.064C168.399 91.552 168.431 91.0507 168.452 90.56C168.473 90.0587 168.489 89.5627 168.5 89.072C168.521 88.5813 168.532 88.08 168.532 87.568H174.388V96H173.028V88.768H169.86C169.849 89.1307 169.833 89.4987 169.812 89.872C169.801 90.2347 169.785 90.6027 169.764 90.976C169.753 91.3387 169.737 91.7067 169.716 92.08C169.705 92.5067 169.663 92.9867 169.588 93.52C169.513 94.0533 169.353 94.5387 169.108 94.976C168.873 95.392 168.585 95.6693 168.244 95.808C167.913 95.9467 167.433 96.016 166.804 96.016ZM176.525 96V87.568H177.917V90.784H179.773C180.274 90.784 180.722 90.8267 181.117 90.912C181.522 90.9867 181.869 91.12 182.157 91.312C182.445 91.504 182.664 91.7653 182.813 92.096C182.973 92.416 183.053 92.8267 183.053 93.328C183.053 93.7867 182.973 94.1867 182.813 94.528C182.653 94.8587 182.429 95.136 182.141 95.36C181.853 95.5733 181.506 95.7333 181.101 95.84C180.706 95.9467 180.269 96 179.789 96H176.525ZM177.917 94.816H178.717C179.09 94.816 179.448 94.8053 179.789 94.784C180.141 94.7627 180.461 94.7093 180.749 94.624C181.037 94.5387 181.261 94.4 181.421 94.208C181.592 94.0053 181.677 93.728 181.677 93.376C181.677 93.0347 181.608 92.7733 181.469 92.592C181.341 92.4 181.17 92.2613 180.957 92.176C180.744 92.08 180.509 92.0213 180.253 92C180.008 91.9787 179.762 91.968 179.517 91.968H177.917V94.816ZM184.822 96V87.568H186.182V91.264H190.406V87.568H191.766V96H190.406V92.464H186.182V96H184.822ZM197.596 96.096C196.71 96.096 195.969 95.9147 195.372 95.552C194.774 95.1787 194.326 94.6667 194.028 94.016C193.74 93.3653 193.596 92.624 193.596 91.792C193.596 90.9493 193.74 90.208 194.028 89.568C194.326 88.9173 194.774 88.4053 195.372 88.032C195.969 87.6587 196.721 87.472 197.628 87.472C198.513 87.472 199.249 87.6587 199.836 88.032C200.433 88.4053 200.876 88.9173 201.164 89.568C201.462 90.208 201.612 90.9493 201.612 91.792C201.612 92.624 201.462 93.3653 201.164 94.016C200.865 94.6667 200.417 95.1787 199.82 95.552C199.233 95.9147 198.492 96.096 197.596 96.096ZM197.596 94.896C198.214 94.896 198.716 94.7573 199.1 94.48C199.494 94.2027 199.782 93.8293 199.964 93.36C200.156 92.8907 200.252 92.368 200.252 91.792C200.252 91.216 200.156 90.6933 199.964 90.224C199.782 89.7547 199.494 89.3813 199.1 89.104C198.716 88.8267 198.214 88.688 197.596 88.688C196.988 88.688 196.486 88.8267 196.092 89.104C195.708 89.3813 195.42 89.7547 195.228 90.224C195.046 90.6933 194.956 91.216 194.956 91.792C194.956 92.368 195.046 92.8907 195.228 93.36C195.42 93.8293 195.708 94.2027 196.092 94.48C196.486 94.7573 196.988 94.896 197.596 94.896ZM203.431 96V87.568H204.791V94.032C204.866 93.8827 204.967 93.7227 205.095 93.552C205.223 93.3707 205.325 93.232 205.399 93.136L209.479 87.568H210.823V96H209.463V89.536C209.378 89.696 209.282 89.8453 209.175 89.984C209.079 90.1227 208.989 90.2507 208.903 90.368L204.759 96H203.431ZM207.239 86.384C206.397 86.384 205.735 86.2027 205.255 85.84C204.786 85.4773 204.541 84.9493 204.519 84.256H205.767C205.789 84.6293 205.927 84.9013 206.183 85.072C206.45 85.2427 206.807 85.328 207.255 85.328C207.703 85.328 208.055 85.2427 208.311 85.072C208.578 84.9013 208.722 84.6293 208.743 84.256H209.991C209.981 84.7147 209.863 85.104 209.639 85.424C209.415 85.744 209.101 85.984 208.695 86.144C208.29 86.304 207.805 86.384 207.239 86.384ZM220.955 96.096C220.07 96.096 219.328 95.9147 218.731 95.552C218.134 95.1787 217.686 94.6667 217.387 94.016C217.099 93.3653 216.955 92.624 216.955 91.792C216.955 90.9493 217.099 90.208 217.387 89.568C217.686 88.9173 218.134 88.4053 218.731 88.032C219.328 87.6587 220.08 87.472 220.987 87.472C221.872 87.472 222.608 87.6587 223.195 88.032C223.792 88.4053 224.235 88.9173 224.523 89.568C224.822 90.208 224.971 90.9493 224.971 91.792C224.971 92.624 224.822 93.3653 224.523 94.016C224.224 94.6667 223.776 95.1787 223.179 95.552C222.592 95.9147 221.851 96.096 220.955 96.096ZM220.955 94.896C221.574 94.896 222.075 94.7573 222.459 94.48C222.854 94.2027 223.142 93.8293 223.323 93.36C223.515 92.8907 223.611 92.368 223.611 91.792C223.611 91.216 223.515 90.6933 223.323 90.224C223.142 89.7547 222.854 89.3813 222.459 89.104C222.075 88.8267 221.574 88.688 220.955 88.688C220.347 88.688 219.846 88.8267 219.451 89.104C219.067 89.3813 218.779 89.7547 218.587 90.224C218.406 90.6933 218.315 91.216 218.315 91.792C218.315 92.368 218.406 92.8907 218.587 93.36C218.779 93.8293 219.067 94.2027 219.451 94.48C219.846 94.7573 220.347 94.896 220.955 94.896ZM230.391 96.096C229.505 96.096 228.769 95.9147 228.183 95.552C227.607 95.1787 227.175 94.6667 226.887 94.016C226.609 93.3653 226.471 92.6293 226.471 91.808C226.471 91.008 226.615 90.2827 226.903 89.632C227.201 88.9707 227.649 88.448 228.247 88.064C228.855 87.6693 229.623 87.472 230.551 87.472C231.127 87.472 231.639 87.568 232.087 87.76C232.545 87.952 232.924 88.2347 233.223 88.608C233.521 88.9707 233.729 89.4293 233.847 89.984H232.455C232.295 89.5147 232.039 89.184 231.687 88.992C231.345 88.7893 230.94 88.688 230.471 88.688C229.831 88.688 229.319 88.8373 228.935 89.136C228.551 89.4347 228.268 89.824 228.087 90.304C227.916 90.7733 227.831 91.2747 227.831 91.808C227.831 92.3627 227.921 92.8747 228.103 93.344C228.284 93.8133 228.567 94.192 228.951 94.48C229.335 94.7573 229.831 94.896 230.439 94.896C230.887 94.896 231.308 94.8 231.703 94.608C232.108 94.416 232.375 94.0747 232.503 93.584H233.911C233.804 94.16 233.575 94.6347 233.223 95.008C232.881 95.3813 232.46 95.6587 231.959 95.84C231.468 96.0107 230.945 96.096 230.391 96.096ZM235.635 96V87.568H236.995V94.032C237.069 93.8827 237.171 93.7227 237.299 93.552C237.427 93.3707 237.528 93.232 237.603 93.136L241.683 87.568H243.027V96H241.667V89.536C241.581 89.696 241.485 89.8453 241.379 89.984C241.283 90.1227 241.192 90.2507 241.107 90.368L236.963 96H235.635ZM246.126 96.128C245.848 96.128 245.619 96.0373 245.438 95.856C245.256 95.6747 245.166 95.4453 245.166 95.168C245.166 94.8907 245.256 94.6613 245.438 94.48C245.619 94.2987 245.848 94.208 246.126 94.208C246.403 94.208 246.632 94.2987 246.814 94.48C246.995 94.6613 247.086 94.8907 247.086 95.168C247.086 95.4453 246.995 95.6747 246.814 95.856C246.632 96.0373 246.403 96.128 246.126 96.128ZM253.36 96V84.688H257.328C257.894 84.688 258.406 84.736 258.864 84.832C259.323 84.9173 259.718 85.0667 260.048 85.28C260.39 85.4933 260.651 85.7813 260.832 86.144C261.014 86.5067 261.104 86.9653 261.104 87.52C261.104 88.096 260.971 88.608 260.704 89.056C260.448 89.504 260.048 89.8347 259.504 90.048C260.23 90.176 260.774 90.4853 261.136 90.976C261.499 91.456 261.68 92.08 261.68 92.848C261.68 93.456 261.563 93.9627 261.328 94.368C261.104 94.7733 260.784 95.0987 260.368 95.344C259.963 95.5787 259.494 95.7493 258.96 95.856C258.427 95.952 257.856 96 257.248 96H253.36ZM254.752 94.736H257.2C257.531 94.736 257.872 94.72 258.224 94.688C258.587 94.6453 258.923 94.5653 259.232 94.448C259.542 94.32 259.792 94.1227 259.984 93.856C260.176 93.5893 260.272 93.232 260.272 92.784C260.272 92.4 260.198 92.0853 260.048 91.84C259.91 91.5947 259.718 91.4027 259.472 91.264C259.238 91.1253 258.966 91.0293 258.656 90.976C258.347 90.9227 258.032 90.896 257.712 90.896H254.752V94.736ZM254.752 89.648H256.928C257.323 89.648 257.691 89.616 258.032 89.552C258.374 89.4773 258.672 89.36 258.928 89.2C259.184 89.04 259.382 88.832 259.52 88.576C259.67 88.32 259.744 88 259.744 87.616C259.744 87.1253 259.632 86.7627 259.408 86.528C259.184 86.2933 258.891 86.1387 258.528 86.064C258.166 85.9893 257.771 85.952 257.344 85.952H254.752V89.648ZM267.853 96V87.568H269.213V91.264H273.437V87.568H274.797V96H273.437V92.464H269.213V96H267.853ZM279.651 96.096C279.267 96.096 278.894 96.048 278.531 95.952C278.179 95.8453 277.859 95.6907 277.571 95.488C277.294 95.2747 277.07 95.0133 276.899 94.704C276.739 94.384 276.659 94.016 276.659 93.6C276.659 93.12 276.744 92.7147 276.915 92.384C277.096 92.0533 277.336 91.792 277.635 91.6C277.934 91.408 278.28 91.2693 278.675 91.184C279.07 91.0987 279.48 91.056 279.907 91.056H282.387C282.387 90.576 282.318 90.16 282.179 89.808C282.051 89.456 281.838 89.184 281.539 88.992C281.24 88.7893 280.846 88.688 280.355 88.688C280.056 88.688 279.779 88.72 279.523 88.784C279.267 88.848 279.048 88.9493 278.867 89.088C278.686 89.2267 278.552 89.4133 278.467 89.648H277.011C277.086 89.264 277.23 88.9387 277.443 88.672C277.667 88.3947 277.934 88.1707 278.243 88C278.563 87.8187 278.904 87.6853 279.267 87.6C279.63 87.5147 279.992 87.472 280.355 87.472C281.166 87.472 281.816 87.6373 282.307 87.968C282.798 88.288 283.155 88.7467 283.379 89.344C283.603 89.9307 283.715 90.6293 283.715 91.44V96H282.579L282.499 94.928C282.264 95.248 281.982 95.4933 281.651 95.664C281.32 95.8347 280.979 95.9467 280.627 96C280.286 96.064 279.96 96.096 279.651 96.096ZM279.779 94.896C280.312 94.896 280.771 94.8107 281.155 94.64C281.55 94.4587 281.854 94.1973 282.067 93.856C282.28 93.5147 282.387 93.0987 282.387 92.608V92.192H280.899C280.547 92.192 280.2 92.1973 279.859 92.208C279.518 92.2187 279.208 92.2613 278.931 92.336C278.654 92.4107 278.43 92.5387 278.259 92.72C278.099 92.9013 278.019 93.1627 278.019 93.504C278.019 93.824 278.099 94.0853 278.259 94.288C278.43 94.4907 278.648 94.6453 278.915 94.752C279.192 94.848 279.48 94.896 279.779 94.896ZM289.422 96.096C288.537 96.096 287.801 95.9147 287.214 95.552C286.638 95.1787 286.206 94.6667 285.918 94.016C285.641 93.3653 285.502 92.6293 285.502 91.808C285.502 91.008 285.646 90.2827 285.934 89.632C286.233 88.9707 286.681 88.448 287.278 88.064C287.886 87.6693 288.654 87.472 289.582 87.472C290.158 87.472 290.67 87.568 291.118 87.76C291.577 87.952 291.955 88.2347 292.254 88.608C292.553 88.9707 292.761 89.4293 292.878 89.984H291.486C291.326 89.5147 291.07 89.184 290.718 88.992C290.377 88.7893 289.971 88.688 289.502 88.688C288.862 88.688 288.35 88.8373 287.966 89.136C287.582 89.4347 287.299 89.824 287.118 90.304C286.947 90.7733 286.862 91.2747 286.862 91.808C286.862 92.3627 286.953 92.8747 287.134 93.344C287.315 93.8133 287.598 94.192 287.982 94.48C288.366 94.7573 288.862 94.896 289.47 94.896C289.918 94.896 290.339 94.8 290.734 94.608C291.139 94.416 291.406 94.0747 291.534 93.584H292.942C292.835 94.16 292.606 94.6347 292.254 95.008C291.913 95.3813 291.491 95.6587 290.99 95.84C290.499 96.0107 289.977 96.096 289.422 96.096ZM296.634 96V88.768H293.738V87.568H300.89V88.768H297.994V96H296.634ZM302.103 99.04V87.568H303.399L303.463 88.864C303.751 88.4053 304.141 88.0587 304.631 87.824C305.133 87.5893 305.671 87.472 306.247 87.472C307.101 87.472 307.799 87.664 308.343 88.048C308.887 88.4213 309.287 88.9333 309.543 89.584C309.81 90.2347 309.943 90.9707 309.943 91.792C309.943 92.6133 309.81 93.3493 309.543 94C309.277 94.6507 308.866 95.1627 308.311 95.536C307.757 95.9093 307.047 96.096 306.183 96.096C305.757 96.096 305.373 96.0533 305.031 95.968C304.69 95.872 304.391 95.7387 304.135 95.568C303.879 95.3973 303.655 95.2053 303.463 94.992V99.04H302.103ZM306.071 94.896C306.69 94.896 307.181 94.7573 307.543 94.48C307.906 94.192 308.167 93.8133 308.327 93.344C308.498 92.8747 308.583 92.3573 308.583 91.792C308.583 91.216 308.498 90.6933 308.327 90.224C308.167 89.7547 307.901 89.3813 307.527 89.104C307.154 88.8267 306.658 88.688 306.039 88.688C305.485 88.688 305.01 88.832 304.615 89.12C304.231 89.3973 303.938 89.776 303.735 90.256C303.533 90.7253 303.431 91.2427 303.431 91.808C303.431 92.3947 303.527 92.9227 303.719 93.392C303.911 93.8613 304.205 94.2293 304.599 94.496C304.994 94.7627 305.485 94.896 306.071 94.896ZM315.377 96.096C314.492 96.096 313.75 95.9147 313.153 95.552C312.556 95.1787 312.108 94.6667 311.809 94.016C311.521 93.3653 311.377 92.624 311.377 91.792C311.377 90.9493 311.521 90.208 311.809 89.568C312.108 88.9173 312.556 88.4053 313.153 88.032C313.75 87.6587 314.502 87.472 315.409 87.472C316.294 87.472 317.03 87.6587 317.617 88.032C318.214 88.4053 318.657 88.9173 318.945 89.568C319.244 90.208 319.393 90.9493 319.393 91.792C319.393 92.624 319.244 93.3653 318.945 94.016C318.646 94.6667 318.198 95.1787 317.601 95.552C317.014 95.9147 316.273 96.096 315.377 96.096ZM315.377 94.896C315.996 94.896 316.497 94.7573 316.881 94.48C317.276 94.2027 317.564 93.8293 317.745 93.36C317.937 92.8907 318.033 92.368 318.033 91.792C318.033 91.216 317.937 90.6933 317.745 90.224C317.564 89.7547 317.276 89.3813 316.881 89.104C316.497 88.8267 315.996 88.688 315.377 88.688C314.769 88.688 314.268 88.8267 313.873 89.104C313.489 89.3813 313.201 89.7547 313.009 90.224C312.828 90.6933 312.737 91.216 312.737 91.792C312.737 92.368 312.828 92.8907 313.009 93.36C313.201 93.8293 313.489 94.2027 313.873 94.48C314.268 94.7573 314.769 94.896 315.377 94.896ZM321.213 96V87.568H322.573V94.032C322.647 93.8827 322.749 93.7227 322.877 93.552C323.005 93.3707 323.106 93.232 323.181 93.136L327.261 87.568H328.605V96H327.245V89.536C327.159 89.696 327.063 89.8453 326.957 89.984C326.861 90.1227 326.77 90.2507 326.685 90.368L322.541 96H321.213ZM325.021 86.384C324.178 86.384 323.517 86.2027 323.037 85.84C322.567 85.4773 322.322 84.9493 322.301 84.256H323.549C323.57 84.6293 323.709 84.9013 323.965 85.072C324.231 85.2427 324.589 85.328 325.037 85.328C325.485 85.328 325.837 85.2427 326.093 85.072C326.359 84.9013 326.503 84.6293 326.525 84.256H327.773C327.762 84.7147 327.645 85.104 327.421 85.424C327.197 85.744 326.882 85.984 326.477 86.144C326.071 86.304 325.586 86.384 325.021 86.384ZM330.744 96V87.568H332.104V91.2H333.576L336.072 87.568H337.624L334.808 91.584L337.864 96H336.264L333.736 92.384H332.104V96H330.744ZM341.589 96.096C341.205 96.096 340.831 96.048 340.469 95.952C340.117 95.8453 339.797 95.6907 339.509 95.488C339.231 95.2747 339.007 95.0133 338.837 94.704C338.677 94.384 338.597 94.016 338.597 93.6C338.597 93.12 338.682 92.7147 338.853 92.384C339.034 92.0533 339.274 91.792 339.573 91.6C339.871 91.408 340.218 91.2693 340.613 91.184C341.007 91.0987 341.418 91.056 341.845 91.056H344.325C344.325 90.576 344.255 90.16 344.117 89.808C343.989 89.456 343.775 89.184 343.477 88.992C343.178 88.7893 342.783 88.688 342.293 88.688C341.994 88.688 341.717 88.72 341.461 88.784C341.205 88.848 340.986 88.9493 340.805 89.088C340.623 89.2267 340.49 89.4133 340.405 89.648H338.949C339.023 89.264 339.167 88.9387 339.381 88.672C339.605 88.3947 339.871 88.1707 340.181 88C340.501 87.8187 340.842 87.6853 341.205 87.6C341.567 87.5147 341.93 87.472 342.293 87.472C343.103 87.472 343.754 87.6373 344.245 87.968C344.735 88.288 345.093 88.7467 345.317 89.344C345.541 89.9307 345.653 90.6293 345.653 91.44V96H344.517L344.437 94.928C344.202 95.248 343.919 95.4933 343.589 95.664C343.258 95.8347 342.917 95.9467 342.565 96C342.223 96.064 341.898 96.096 341.589 96.096ZM341.717 94.896C342.25 94.896 342.709 94.8107 343.093 94.64C343.487 94.4587 343.791 94.1973 344.005 93.856C344.218 93.5147 344.325 93.0987 344.325 92.608V92.192H342.837C342.485 92.192 342.138 92.1973 341.797 92.208C341.455 92.2187 341.146 92.2613 340.869 92.336C340.591 92.4107 340.367 92.5387 340.197 92.72C340.037 92.9013 339.957 93.1627 339.957 93.504C339.957 93.824 340.037 94.0853 340.197 94.288C340.367 94.4907 340.586 94.6453 340.853 94.752C341.13 94.848 341.418 94.896 341.717 94.896ZM346.912 96L349.92 91.696L347.056 87.568H348.688L350.832 90.768L352.912 87.568H354.496L351.648 91.744L354.704 96H353.088L350.752 92.784L348.448 96H346.912ZM106.072 116V107.568H107.896L110.632 111.792L113.32 107.568H115.112V116H113.768V109.072L110.792 113.84H110.408L107.416 109.072V116H106.072ZM120.94 116.096C120.054 116.096 119.313 115.915 118.716 115.552C118.118 115.179 117.67 114.667 117.372 114.016C117.084 113.365 116.94 112.624 116.94 111.792C116.94 110.949 117.084 110.208 117.372 109.568C117.67 108.917 118.118 108.405 118.716 108.032C119.313 107.659 120.065 107.472 120.972 107.472C121.857 107.472 122.593 107.659 123.18 108.032C123.777 108.405 124.22 108.917 124.508 109.568C124.806 110.208 124.956 110.949 124.956 111.792C124.956 112.624 124.806 113.365 124.508 114.016C124.209 114.667 123.761 115.179 123.164 115.552C122.577 115.915 121.836 116.096 120.94 116.096ZM120.94 114.896C121.558 114.896 122.06 114.757 122.444 114.48C122.838 114.203 123.126 113.829 123.308 113.36C123.5 112.891 123.596 112.368 123.596 111.792C123.596 111.216 123.5 110.693 123.308 110.224C123.126 109.755 122.838 109.381 122.444 109.104C122.06 108.827 121.558 108.688 120.94 108.688C120.332 108.688 119.83 108.827 119.436 109.104C119.052 109.381 118.764 109.755 118.572 110.224C118.39 110.693 118.299 111.216 118.299 111.792C118.299 112.368 118.39 112.891 118.572 113.36C118.764 113.829 119.052 114.203 119.436 114.48C119.83 114.757 120.332 114.896 120.94 114.896ZM125.771 116L128.507 111.584L126.011 107.568H127.467L129.691 111.216H130.955V107.568H132.315V111.216H133.579L135.803 107.568H137.259L134.763 111.584L137.499 116H135.915L133.723 112.368H132.315V116H130.955V112.368H129.547L127.355 116H125.771ZM138.791 116V107.568H140.151V111.264H144.375V107.568H145.735V116H144.375V112.464H140.151V116H138.791ZM151.565 116.096C150.679 116.096 149.938 115.915 149.341 115.552C148.743 115.179 148.295 114.667 147.997 114.016C147.709 113.365 147.565 112.624 147.565 111.792C147.565 110.949 147.709 110.208 147.997 109.568C148.295 108.917 148.743 108.405 149.341 108.032C149.938 107.659 150.69 107.472 151.597 107.472C152.482 107.472 153.218 107.659 153.805 108.032C154.402 108.405 154.845 108.917 155.133 109.568C155.431 110.208 155.581 110.949 155.581 111.792C155.581 112.624 155.431 113.365 155.133 114.016C154.834 114.667 154.386 115.179 153.789 115.552C153.202 115.915 152.461 116.096 151.565 116.096ZM151.565 114.896C152.183 114.896 152.685 114.757 153.069 114.48C153.463 114.203 153.751 113.829 153.933 113.36C154.125 112.891 154.221 112.368 154.221 111.792C154.221 111.216 154.125 110.693 153.933 110.224C153.751 109.755 153.463 109.381 153.069 109.104C152.685 108.827 152.183 108.688 151.565 108.688C150.957 108.688 150.455 108.827 150.061 109.104C149.677 109.381 149.389 109.755 149.197 110.224C149.015 110.693 148.924 111.216 148.924 111.792C148.924 112.368 149.015 112.891 149.197 113.36C149.389 113.829 149.677 114.203 150.061 114.48C150.455 114.757 150.957 114.896 151.565 114.896ZM161.713 116V107.568H163.073V114.032C163.147 113.883 163.249 113.723 163.377 113.552C163.505 113.371 163.606 113.232 163.681 113.136L167.761 107.568H169.105V116H167.745V109.536C167.659 109.696 167.563 109.845 167.457 109.984C167.361 110.123 167.27 110.251 167.185 110.368L163.041 116H161.713ZM174.3 116.096C173.895 116.096 173.489 116.059 173.084 115.984C172.679 115.909 172.3 115.787 171.948 115.616C171.607 115.435 171.329 115.195 171.116 114.896C170.903 114.587 170.785 114.203 170.764 113.744H172.092C172.145 114.032 172.3 114.261 172.556 114.432C172.812 114.603 173.1 114.725 173.42 114.8C173.751 114.864 174.044 114.896 174.3 114.896C174.599 114.896 174.903 114.864 175.212 114.8C175.532 114.736 175.799 114.608 176.012 114.416C176.236 114.224 176.348 113.941 176.348 113.568C176.348 113.205 176.257 112.939 176.076 112.768C175.905 112.597 175.676 112.485 175.388 112.432C175.111 112.379 174.807 112.352 174.476 112.352H172.972V111.152H174.204C174.407 111.152 174.615 111.136 174.828 111.104C175.041 111.061 175.239 110.997 175.42 110.912C175.601 110.816 175.745 110.683 175.852 110.512C175.969 110.341 176.028 110.123 176.028 109.856C176.028 109.557 175.943 109.323 175.772 109.152C175.601 108.981 175.383 108.864 175.116 108.8C174.849 108.725 174.577 108.688 174.3 108.688C174.044 108.688 173.772 108.715 173.484 108.768C173.207 108.821 172.967 108.928 172.764 109.088C172.561 109.237 172.439 109.461 172.396 109.76H171.052C171.073 109.184 171.249 108.731 171.58 108.4C171.911 108.069 172.321 107.835 172.812 107.696C173.303 107.547 173.793 107.472 174.284 107.472C174.657 107.472 175.025 107.509 175.388 107.584C175.751 107.659 176.081 107.787 176.38 107.968C176.679 108.139 176.913 108.368 177.084 108.656C177.265 108.944 177.356 109.301 177.356 109.728C177.356 110.112 177.265 110.453 177.084 110.752C176.903 111.051 176.625 111.291 176.252 111.472C176.796 111.643 177.175 111.909 177.388 112.272C177.601 112.635 177.708 113.067 177.708 113.568C177.708 114.016 177.612 114.4 177.42 114.72C177.228 115.029 176.967 115.291 176.636 115.504C176.316 115.707 175.953 115.856 175.548 115.952C175.143 116.048 174.727 116.096 174.3 116.096ZM179.463 116V107.568H181.287L184.023 111.792L186.711 107.568H188.503V116H187.159V109.072L184.183 113.84H183.799L180.807 109.072V116H179.463ZM194.298 116.096C193.402 116.096 192.661 115.915 192.074 115.552C191.487 115.179 191.05 114.667 190.762 114.016C190.474 113.365 190.33 112.624 190.33 111.792C190.33 110.949 190.479 110.208 190.778 109.568C191.087 108.917 191.535 108.405 192.122 108.032C192.709 107.659 193.429 107.472 194.282 107.472C194.911 107.472 195.461 107.595 195.93 107.84C196.41 108.075 196.805 108.395 197.114 108.8C197.434 109.205 197.663 109.659 197.802 110.16C197.951 110.661 198.015 111.179 197.994 111.712C197.983 111.808 197.978 111.904 197.978 112C197.978 112.096 197.973 112.192 197.962 112.288H191.706C191.749 112.779 191.871 113.221 192.074 113.616C192.277 114.011 192.565 114.325 192.938 114.56C193.311 114.784 193.775 114.896 194.33 114.896C194.607 114.896 194.885 114.864 195.162 114.8C195.45 114.725 195.706 114.603 195.93 114.432C196.165 114.261 196.33 114.032 196.426 113.744H197.818C197.69 114.288 197.45 114.736 197.098 115.088C196.746 115.429 196.325 115.685 195.834 115.856C195.343 116.016 194.831 116.096 194.298 116.096ZM191.738 111.104H196.618C196.607 110.624 196.501 110.203 196.298 109.84C196.095 109.477 195.818 109.195 195.466 108.992C195.125 108.789 194.714 108.688 194.234 108.688C193.711 108.688 193.269 108.8 192.906 109.024C192.554 109.248 192.282 109.541 192.09 109.904C191.898 110.267 191.781 110.667 191.738 111.104ZM199.822 116V107.568H201.182V111.264H205.406V107.568H206.766V116H205.406V112.464H201.182V116H199.822ZM208.916 116V107.568H210.276V114.032C210.35 113.883 210.452 113.723 210.58 113.552C210.708 113.371 210.809 113.232 210.884 113.136L214.964 107.568H216.308V116H214.948V109.536C214.862 109.696 214.766 109.845 214.66 109.984C214.564 110.123 214.473 110.251 214.388 110.368L210.244 116H208.916ZM220.415 116V108.768H217.519V107.568H224.671V108.768H221.775V116H220.415ZM225.885 116V107.568H227.277V110.784H229.133C229.634 110.784 230.082 110.827 230.477 110.912C230.882 110.987 231.229 111.12 231.517 111.312C231.805 111.504 232.023 111.765 232.173 112.096C232.333 112.416 232.413 112.827 232.413 113.328C232.413 113.787 232.333 114.187 232.173 114.528C232.013 114.859 231.789 115.136 231.501 115.36C231.213 115.573 230.866 115.733 230.461 115.84C230.066 115.947 229.629 116 229.149 116H225.885ZM227.277 114.816H228.077C228.45 114.816 228.807 114.805 229.149 114.784C229.501 114.763 229.821 114.709 230.109 114.624C230.397 114.539 230.621 114.4 230.781 114.208C230.951 114.005 231.037 113.728 231.037 113.376C231.037 113.035 230.967 112.773 230.829 112.592C230.701 112.4 230.53 112.261 230.317 112.176C230.103 112.08 229.869 112.021 229.613 112C229.367 111.979 229.122 111.968 228.877 111.968H227.277V114.816ZM240.462 116V108.768H237.566V107.568H244.718V108.768H241.822V116H240.462ZM245.931 116V107.568H247.291V114.032C247.366 113.883 247.467 113.723 247.595 113.552C247.723 113.371 247.825 113.232 247.899 113.136L251.979 107.568H253.323V116H251.963V109.536C251.878 109.696 251.782 109.845 251.675 109.984C251.579 110.123 251.489 110.251 251.403 110.368L247.259 116H245.931ZM255.463 116V107.568H262.455V116H261.095V108.768H256.823V116H255.463ZM268.916 116V107.568H272.18C272.553 107.568 272.921 107.595 273.284 107.648C273.657 107.691 273.993 107.787 274.292 107.936C274.601 108.075 274.846 108.283 275.028 108.56C275.22 108.837 275.316 109.205 275.316 109.664C275.316 109.941 275.273 110.197 275.188 110.432C275.102 110.656 274.974 110.853 274.804 111.024C274.644 111.195 274.436 111.344 274.18 111.472C274.756 111.6 275.172 111.851 275.428 112.224C275.684 112.597 275.812 113.024 275.812 113.504C275.812 113.931 275.732 114.304 275.572 114.624C275.422 114.933 275.209 115.189 274.932 115.392C274.665 115.595 274.35 115.749 273.988 115.856C273.636 115.952 273.257 116 272.852 116H268.916ZM270.308 114.816H272.532C272.862 114.816 273.172 114.784 273.46 114.72C273.748 114.656 273.982 114.539 274.164 114.368C274.345 114.187 274.436 113.931 274.436 113.6C274.436 113.259 274.356 113.003 274.196 112.832C274.046 112.651 273.849 112.528 273.604 112.464C273.369 112.389 273.113 112.347 272.836 112.336C272.558 112.325 272.297 112.32 272.052 112.32H270.308V114.816ZM270.308 111.168H271.476C271.689 111.168 271.934 111.157 272.212 111.136C272.5 111.115 272.777 111.067 273.044 110.992C273.321 110.907 273.545 110.779 273.716 110.608C273.897 110.437 273.988 110.203 273.988 109.904C273.988 109.509 273.876 109.237 273.652 109.088C273.438 108.928 273.182 108.837 272.884 108.816C272.585 108.784 272.308 108.768 272.052 108.768H270.308V111.168ZM277.666 119.04V107.568H278.962L279.026 108.864C279.314 108.405 279.703 108.059 280.194 107.824C280.695 107.589 281.234 107.472 281.81 107.472C282.663 107.472 283.362 107.664 283.906 108.048C284.45 108.421 284.85 108.933 285.106 109.584C285.372 110.235 285.506 110.971 285.506 111.792C285.506 112.613 285.372 113.349 285.106 114C284.839 114.651 284.428 115.163 283.874 115.536C283.319 115.909 282.61 116.096 281.746 116.096C281.319 116.096 280.935 116.053 280.594 115.968C280.252 115.872 279.954 115.739 279.698 115.568C279.442 115.397 279.218 115.205 279.026 114.992V119.04H277.666ZM281.634 114.896C282.252 114.896 282.743 114.757 283.106 114.48C283.468 114.192 283.73 113.813 283.89 113.344C284.06 112.875 284.146 112.357 284.146 111.792C284.146 111.216 284.06 110.693 283.89 110.224C283.73 109.755 283.463 109.381 283.09 109.104C282.716 108.827 282.22 108.688 281.602 108.688C281.047 108.688 280.572 108.832 280.178 109.12C279.794 109.397 279.5 109.776 279.298 110.256C279.095 110.725 278.994 111.243 278.994 111.808C278.994 112.395 279.09 112.923 279.282 113.392C279.474 113.861 279.767 114.229 280.162 114.496C280.556 114.763 281.047 114.896 281.634 114.896ZM289.964 116.096C289.58 116.096 289.206 116.048 288.844 115.952C288.492 115.845 288.172 115.691 287.884 115.488C287.606 115.275 287.382 115.013 287.212 114.704C287.052 114.384 286.972 114.016 286.972 113.6C286.972 113.12 287.057 112.715 287.228 112.384C287.409 112.053 287.649 111.792 287.948 111.6C288.246 111.408 288.593 111.269 288.988 111.184C289.382 111.099 289.793 111.056 290.22 111.056H292.7C292.7 110.576 292.63 110.16 292.492 109.808C292.364 109.456 292.15 109.184 291.852 108.992C291.553 108.789 291.158 108.688 290.668 108.688C290.369 108.688 290.092 108.72 289.836 108.784C289.58 108.848 289.361 108.949 289.18 109.088C288.998 109.227 288.865 109.413 288.78 109.648H287.324C287.398 109.264 287.542 108.939 287.756 108.672C287.98 108.395 288.246 108.171 288.556 108C288.876 107.819 289.217 107.685 289.58 107.6C289.942 107.515 290.305 107.472 290.668 107.472C291.478 107.472 292.129 107.637 292.62 107.968C293.11 108.288 293.468 108.747 293.692 109.344C293.916 109.931 294.028 110.629 294.028 111.44V116H292.892L292.812 114.928C292.577 115.248 292.294 115.493 291.964 115.664C291.633 115.835 291.292 115.947 290.94 116C290.598 116.064 290.273 116.096 289.964 116.096ZM290.092 114.896C290.625 114.896 291.084 114.811 291.468 114.64C291.862 114.459 292.166 114.197 292.38 113.856C292.593 113.515 292.7 113.099 292.7 112.608V112.192H291.212C290.86 112.192 290.513 112.197 290.172 112.208C289.83 112.219 289.521 112.261 289.244 112.336C288.966 112.411 288.742 112.539 288.572 112.72C288.412 112.901 288.332 113.163 288.332 113.504C288.332 113.824 288.412 114.085 288.572 114.288C288.742 114.491 288.961 114.645 289.228 114.752C289.505 114.848 289.793 114.896 290.092 114.896ZM306.375 118.592V116H296.135V107.568H297.495V114.816H300.663V107.568H302.023V114.816H305.223V107.568H306.583V114.816H307.687V118.592H306.375ZM312.751 116.096C311.855 116.096 311.114 115.915 310.527 115.552C309.941 115.179 309.503 114.667 309.215 114.016C308.927 113.365 308.783 112.624 308.783 111.792C308.783 110.949 308.933 110.208 309.231 109.568C309.541 108.917 309.989 108.405 310.575 108.032C311.162 107.659 311.882 107.472 312.735 107.472C313.365 107.472 313.914 107.595 314.383 107.84C314.863 108.075 315.258 108.395 315.567 108.8C315.887 109.205 316.117 109.659 316.255 110.16C316.405 110.661 316.469 111.179 316.447 111.712C316.437 111.808 316.431 111.904 316.431 112C316.431 112.096 316.426 112.192 316.415 112.288H310.159C310.202 112.779 310.325 113.221 310.527 113.616C310.73 114.011 311.018 114.325 311.391 114.56C311.765 114.784 312.229 114.896 312.783 114.896C313.061 114.896 313.338 114.864 313.615 114.8C313.903 114.725 314.159 114.603 314.383 114.432C314.618 114.261 314.783 114.032 314.879 113.744H316.271C316.143 114.288 315.903 114.736 315.551 115.088C315.199 115.429 314.778 115.685 314.287 115.856C313.797 116.016 313.285 116.096 312.751 116.096ZM310.191 111.104H315.071C315.061 110.624 314.954 110.203 314.751 109.84C314.549 109.477 314.271 109.195 313.919 108.992C313.578 108.789 313.167 108.688 312.687 108.688C312.165 108.688 311.722 108.8 311.359 109.024C311.007 109.248 310.735 109.541 310.543 109.904C310.351 110.267 310.234 110.667 310.191 111.104ZM318.275 116V107.568H319.635V111.264H323.859V107.568H325.219V116H323.859V112.464H319.635V116H318.275ZM327.369 116V107.568H328.729V114.032C328.804 113.883 328.905 113.723 329.033 113.552C329.161 113.371 329.262 113.232 329.337 113.136L333.417 107.568H334.761V116H333.401V109.536C333.316 109.696 333.22 109.845 333.113 109.984C333.017 110.123 332.926 110.251 332.841 110.368L328.697 116H327.369ZM336.372 116L338.564 112.672C337.956 112.501 337.476 112.224 337.124 111.84C336.772 111.445 336.596 110.923 336.596 110.272C336.596 109.76 336.671 109.333 336.82 108.992C336.969 108.64 337.188 108.363 337.476 108.16C337.764 107.947 338.111 107.797 338.516 107.712C338.921 107.616 339.385 107.568 339.908 107.568H343.3V116H341.94V112.88H340.004L337.956 116H336.372ZM340.932 111.696H341.94V108.768H340.132C339.812 108.768 339.519 108.784 339.252 108.816C338.985 108.848 338.756 108.917 338.564 109.024C338.383 109.12 338.239 109.264 338.132 109.456C338.025 109.637 337.972 109.888 337.972 110.208C337.972 110.56 338.057 110.837 338.228 111.04C338.409 111.243 338.639 111.392 338.916 111.488C339.204 111.573 339.524 111.632 339.876 111.664C340.228 111.685 340.58 111.696 340.932 111.696ZM106.072 136V127.568H107.432V131.264H111.656V127.568H113.016V136H111.656V132.464H107.432V136H106.072ZM117.87 136.096C117.486 136.096 117.112 136.048 116.75 135.952C116.398 135.845 116.078 135.691 115.79 135.488C115.512 135.275 115.288 135.013 115.118 134.704C114.958 134.384 114.878 134.016 114.878 133.6C114.878 133.12 114.963 132.715 115.134 132.384C115.315 132.053 115.555 131.792 115.854 131.6C116.152 131.408 116.499 131.269 116.894 131.184C117.288 131.099 117.699 131.056 118.126 131.056H120.606C120.606 130.576 120.536 130.16 120.398 129.808C120.27 129.456 120.056 129.184 119.758 128.992C119.459 128.789 119.064 128.688 118.574 128.688C118.275 128.688 117.998 128.72 117.742 128.784C117.486 128.848 117.267 128.949 117.086 129.088C116.904 129.227 116.771 129.413 116.686 129.648H115.23C115.304 129.264 115.448 128.939 115.662 128.672C115.886 128.395 116.152 128.171 116.462 128C116.782 127.819 117.123 127.685 117.486 127.6C117.848 127.515 118.211 127.472 118.574 127.472C119.384 127.472 120.035 127.637 120.526 127.968C121.016 128.288 121.374 128.747 121.598 129.344C121.822 129.931 121.934 130.629 121.934 131.44V136H120.798L120.718 134.928C120.483 135.248 120.2 135.493 119.87 135.664C119.539 135.835 119.198 135.947 118.846 136C118.504 136.064 118.179 136.096 117.87 136.096ZM117.998 134.896C118.531 134.896 118.99 134.811 119.374 134.64C119.768 134.459 120.072 134.197 120.286 133.856C120.499 133.515 120.606 133.099 120.606 132.608V132.192H119.118C118.766 132.192 118.419 132.197 118.078 132.208C117.736 132.219 117.427 132.261 117.15 132.336C116.872 132.411 116.648 132.539 116.478 132.72C116.318 132.901 116.238 133.163 116.238 133.504C116.238 133.824 116.318 134.085 116.478 134.288C116.648 134.491 116.867 134.645 117.134 134.752C117.411 134.848 117.699 134.896 117.998 134.896ZM129.713 134.56L127.905 131.776L129.713 128.992H131.169L129.281 131.776L131.169 134.56H129.713ZM132.513 134.56L130.705 131.776L132.513 128.992H133.953L132.113 131.776L133.953 134.56H132.513ZM139.643 136.096C138.757 136.096 138.016 135.915 137.419 135.552C136.821 135.179 136.373 134.667 136.075 134.016C135.787 133.365 135.643 132.624 135.643 131.792C135.643 130.949 135.787 130.208 136.075 129.568C136.373 128.917 136.821 128.405 137.419 128.032C138.016 127.659 138.768 127.472 139.675 127.472C140.56 127.472 141.296 127.659 141.883 128.032C142.48 128.405 142.923 128.917 143.211 129.568C143.509 130.208 143.659 130.949 143.659 131.792C143.659 132.624 143.509 133.365 143.211 134.016C142.912 134.667 142.464 135.179 141.867 135.552C141.28 135.915 140.539 136.096 139.643 136.096ZM139.643 134.896C140.261 134.896 140.763 134.757 141.147 134.48C141.541 134.203 141.829 133.829 142.011 133.36C142.203 132.891 142.299 132.368 142.299 131.792C142.299 131.216 142.203 130.693 142.011 130.224C141.829 129.755 141.541 129.381 141.147 129.104C140.763 128.827 140.261 128.688 139.643 128.688C139.035 128.688 138.533 128.827 138.139 129.104C137.755 129.381 137.467 129.755 137.275 130.224C137.093 130.693 137.003 131.216 137.003 131.792C137.003 132.368 137.093 132.891 137.275 133.36C137.467 133.829 137.755 134.203 138.139 134.48C138.533 134.757 139.035 134.896 139.643 134.896ZM147.446 136V128.768H144.55V127.568H151.702V128.768H148.806V136H147.446ZM152.916 136V127.568H154.276V131.264H158.5V127.568H159.86V136H158.5V132.464H154.276V136H152.916ZM165.69 136.096C164.804 136.096 164.063 135.915 163.466 135.552C162.868 135.179 162.42 134.667 162.122 134.016C161.834 133.365 161.69 132.624 161.69 131.792C161.69 130.949 161.834 130.208 162.122 129.568C162.42 128.917 162.868 128.405 163.466 128.032C164.063 127.659 164.815 127.472 165.722 127.472C166.607 127.472 167.343 127.659 167.93 128.032C168.527 128.405 168.97 128.917 169.258 129.568C169.556 130.208 169.706 130.949 169.706 131.792C169.706 132.624 169.556 133.365 169.258 134.016C168.959 134.667 168.511 135.179 167.914 135.552C167.327 135.915 166.586 136.096 165.69 136.096ZM165.69 134.896C166.308 134.896 166.81 134.757 167.194 134.48C167.588 134.203 167.876 133.829 168.058 133.36C168.25 132.891 168.346 132.368 168.346 131.792C168.346 131.216 168.25 130.693 168.058 130.224C167.876 129.755 167.588 129.381 167.194 129.104C166.81 128.827 166.308 128.688 165.69 128.688C165.082 128.688 164.58 128.827 164.186 129.104C163.802 129.381 163.514 129.755 163.322 130.224C163.14 130.693 163.049 131.216 163.049 131.792C163.049 132.368 163.14 132.891 163.322 133.36C163.514 133.829 163.802 134.203 164.186 134.48C164.58 134.757 165.082 134.896 165.69 134.896ZM175.125 136.096C174.24 136.096 173.504 135.915 172.917 135.552C172.341 135.179 171.909 134.667 171.621 134.016C171.344 133.365 171.205 132.629 171.205 131.808C171.205 131.008 171.349 130.283 171.637 129.632C171.936 128.971 172.384 128.448 172.981 128.064C173.589 127.669 174.357 127.472 175.285 127.472C175.861 127.472 176.373 127.568 176.821 127.76C177.28 127.952 177.658 128.235 177.957 128.608C178.256 128.971 178.464 129.429 178.581 129.984H177.189C177.029 129.515 176.773 129.184 176.421 128.992C176.08 128.789 175.674 128.688 175.205 128.688C174.565 128.688 174.053 128.837 173.669 129.136C173.285 129.435 173.002 129.824 172.821 130.304C172.65 130.773 172.565 131.275 172.565 131.808C172.565 132.363 172.656 132.875 172.837 133.344C173.018 133.813 173.301 134.192 173.685 134.48C174.069 134.757 174.565 134.896 175.173 134.896C175.621 134.896 176.042 134.8 176.437 134.608C176.842 134.416 177.109 134.075 177.237 133.584H178.645C178.538 134.16 178.309 134.635 177.957 135.008C177.616 135.381 177.194 135.659 176.693 135.84C176.202 136.011 175.68 136.096 175.125 136.096ZM180.369 136V127.568H181.729V134.032C181.804 133.883 181.905 133.723 182.033 133.552C182.161 133.371 182.262 133.232 182.337 133.136L186.417 127.568H187.761V136H186.401V129.536C186.316 129.696 186.22 129.845 186.113 129.984C186.017 130.123 185.926 130.251 185.841 130.368L181.697 136H180.369ZM191.868 136V128.768H188.972V127.568H196.124V128.768H193.228V136H191.868ZM200.986 136.096C200.09 136.096 199.348 135.915 198.762 135.552C198.175 135.179 197.738 134.667 197.45 134.016C197.162 133.365 197.018 132.624 197.018 131.792C197.018 130.949 197.167 130.208 197.466 129.568C197.775 128.917 198.223 128.405 198.81 128.032C199.396 127.659 200.116 127.472 200.97 127.472C201.599 127.472 202.148 127.595 202.618 127.84C203.098 128.075 203.492 128.395 203.802 128.8C204.122 129.205 204.351 129.659 204.49 130.16C204.639 130.661 204.703 131.179 204.682 131.712C204.671 131.808 204.666 131.904 204.666 132C204.666 132.096 204.66 132.192 204.65 132.288H198.394C198.436 132.779 198.559 133.221 198.762 133.616C198.964 134.011 199.252 134.325 199.626 134.56C199.999 134.784 200.463 134.896 201.018 134.896C201.295 134.896 201.572 134.864 201.85 134.8C202.138 134.725 202.394 134.603 202.618 134.432C202.852 134.261 203.018 134.032 203.114 133.744H204.506C204.378 134.288 204.138 134.736 203.786 135.088C203.434 135.429 203.012 135.685 202.522 135.856C202.031 136.016 201.519 136.096 200.986 136.096ZM198.426 131.104H203.306C203.295 130.624 203.188 130.203 202.986 129.84C202.783 129.477 202.506 129.195 202.154 128.992C201.812 128.789 201.402 128.688 200.922 128.688C200.399 128.688 199.956 128.8 199.594 129.024C199.242 129.248 198.97 129.541 198.778 129.904C198.586 130.267 198.468 130.667 198.426 131.104ZM205.663 136.016V134.832C205.877 134.832 206.069 134.789 206.239 134.704C206.41 134.608 206.559 134.469 206.687 134.288C206.837 134.075 206.954 133.765 207.039 133.36C207.125 132.955 207.183 132.523 207.215 132.064C207.258 131.552 207.29 131.051 207.311 130.56C207.333 130.059 207.349 129.563 207.359 129.072C207.381 128.581 207.391 128.08 207.391 127.568H213.247V136H211.887V128.768H208.719C208.709 129.131 208.693 129.499 208.671 129.872C208.661 130.235 208.645 130.603 208.623 130.976C208.613 131.339 208.597 131.707 208.575 132.08C208.565 132.507 208.522 132.987 208.447 133.52C208.373 134.053 208.213 134.539 207.967 134.976C207.733 135.392 207.445 135.669 207.103 135.808C206.773 135.947 206.293 136.016 205.663 136.016ZM215.385 136V127.568H216.777V130.784H218.633C219.134 130.784 219.582 130.827 219.977 130.912C220.382 130.987 220.729 131.12 221.017 131.312C221.305 131.504 221.523 131.765 221.673 132.096C221.833 132.416 221.913 132.827 221.913 133.328C221.913 133.787 221.833 134.187 221.673 134.528C221.513 134.859 221.289 135.136 221.001 135.36C220.713 135.573 220.366 135.733 219.961 135.84C219.566 135.947 219.129 136 218.649 136H215.385ZM216.777 134.816H217.577C217.95 134.816 218.307 134.805 218.649 134.784C219.001 134.763 219.321 134.709 219.609 134.624C219.897 134.539 220.121 134.4 220.281 134.208C220.451 134.005 220.537 133.728 220.537 133.376C220.537 133.035 220.467 132.773 220.329 132.592C220.201 132.4 220.03 132.261 219.817 132.176C219.603 132.08 219.369 132.021 219.113 132C218.867 131.979 218.622 131.968 218.377 131.968H216.777V134.816ZM223.681 136V127.568H225.041V131.264H229.265V127.568H230.625V136H229.265V132.464H225.041V136H223.681ZM236.455 136.096C235.57 136.096 234.828 135.915 234.231 135.552C233.634 135.179 233.186 134.667 232.887 134.016C232.599 133.365 232.455 132.624 232.455 131.792C232.455 130.949 232.599 130.208 232.887 129.568C233.186 128.917 233.634 128.405 234.231 128.032C234.828 127.659 235.58 127.472 236.487 127.472C237.372 127.472 238.108 127.659 238.695 128.032C239.292 128.405 239.735 128.917 240.023 129.568C240.322 130.208 240.471 130.949 240.471 131.792C240.471 132.624 240.322 133.365 240.023 134.016C239.724 134.667 239.276 135.179 238.679 135.552C238.092 135.915 237.351 136.096 236.455 136.096ZM236.455 134.896C237.074 134.896 237.575 134.757 237.959 134.48C238.354 134.203 238.642 133.829 238.823 133.36C239.015 132.891 239.111 132.368 239.111 131.792C239.111 131.216 239.015 130.693 238.823 130.224C238.642 129.755 238.354 129.381 237.959 129.104C237.575 128.827 237.074 128.688 236.455 128.688C235.847 128.688 235.346 128.827 234.951 129.104C234.567 129.381 234.279 129.755 234.087 130.224C233.906 130.693 233.815 131.216 233.815 131.792C233.815 132.368 233.906 132.891 234.087 133.36C234.279 133.829 234.567 134.203 234.951 134.48C235.346 134.757 235.847 134.896 236.455 134.896ZM253.195 138.592V136H246.603V127.568H247.963V134.816H252.043V127.568H253.419V134.816H254.523V138.592H253.195ZM259.595 136.096C258.699 136.096 257.958 135.915 257.371 135.552C256.784 135.179 256.347 134.667 256.059 134.016C255.771 133.365 255.627 132.624 255.627 131.792C255.627 130.949 255.776 130.208 256.075 129.568C256.384 128.917 256.832 128.405 257.419 128.032C258.006 127.659 258.726 127.472 259.579 127.472C260.208 127.472 260.758 127.595 261.227 127.84C261.707 128.075 262.102 128.395 262.411 128.8C262.731 129.205 262.96 129.659 263.099 130.16C263.248 130.661 263.312 131.179 263.291 131.712C263.28 131.808 263.275 131.904 263.275 132C263.275 132.096 263.27 132.192 263.259 132.288H257.003C257.046 132.779 257.168 133.221 257.371 133.616C257.574 134.011 257.862 134.325 258.235 134.56C258.608 134.784 259.072 134.896 259.627 134.896C259.904 134.896 260.182 134.864 260.459 134.8C260.747 134.725 261.003 134.603 261.227 134.432C261.462 134.261 261.627 134.032 261.723 133.744H263.115C262.987 134.288 262.747 134.736 262.395 135.088C262.043 135.429 261.622 135.685 261.131 135.856C260.64 136.016 260.128 136.096 259.595 136.096ZM257.035 131.104H261.915C261.904 130.624 261.798 130.203 261.595 129.84C261.392 129.477 261.115 129.195 260.763 128.992C260.422 128.789 260.011 128.688 259.531 128.688C259.008 128.688 258.566 128.8 258.203 129.024C257.851 129.248 257.579 129.541 257.387 129.904C257.195 130.267 257.078 130.667 257.035 131.104ZM265.119 136V127.568H266.479V131.264H270.703V127.568H272.063V136H270.703V132.464H266.479V136H265.119ZM276.181 136V128.768H273.285V127.568H280.437V128.768H277.541V136H276.181ZM281.65 139.04V127.568H282.946L283.01 128.864C283.298 128.405 283.687 128.059 284.178 127.824C284.679 127.589 285.218 127.472 285.794 127.472C286.647 127.472 287.346 127.664 287.89 128.048C288.434 128.421 288.834 128.933 289.09 129.584C289.357 130.235 289.49 130.971 289.49 131.792C289.49 132.613 289.357 133.349 289.09 134C288.823 134.651 288.413 135.163 287.858 135.536C287.303 135.909 286.594 136.096 285.73 136.096C285.303 136.096 284.919 136.053 284.578 135.968C284.237 135.872 283.938 135.739 283.682 135.568C283.426 135.397 283.202 135.205 283.01 134.992V139.04H281.65ZM285.618 134.896C286.237 134.896 286.727 134.757 287.09 134.48C287.453 134.192 287.714 133.813 287.874 133.344C288.045 132.875 288.13 132.357 288.13 131.792C288.13 131.216 288.045 130.693 287.874 130.224C287.714 129.755 287.447 129.381 287.074 129.104C286.701 128.827 286.205 128.688 285.586 128.688C285.031 128.688 284.557 128.832 284.162 129.12C283.778 129.397 283.485 129.776 283.282 130.256C283.079 130.725 282.978 131.243 282.978 131.808C282.978 132.395 283.074 132.923 283.266 133.392C283.458 133.861 283.751 134.229 284.146 134.496C284.541 134.763 285.031 134.896 285.618 134.896ZM293.948 136.096C293.564 136.096 293.191 136.048 292.828 135.952C292.476 135.845 292.156 135.691 291.868 135.488C291.591 135.275 291.367 135.013 291.196 134.704C291.036 134.384 290.956 134.016 290.956 133.6C290.956 133.12 291.041 132.715 291.212 132.384C291.393 132.053 291.633 131.792 291.932 131.6C292.231 131.408 292.577 131.269 292.972 131.184C293.367 131.099 293.777 131.056 294.204 131.056H296.684C296.684 130.576 296.615 130.16 296.476 129.808C296.348 129.456 296.135 129.184 295.836 128.992C295.537 128.789 295.143 128.688 294.652 128.688C294.353 128.688 294.076 128.72 293.82 128.784C293.564 128.848 293.345 128.949 293.164 129.088C292.983 129.227 292.849 129.413 292.764 129.648H291.308C291.383 129.264 291.527 128.939 291.74 128.672C291.964 128.395 292.231 128.171 292.54 128C292.86 127.819 293.201 127.685 293.564 127.6C293.927 127.515 294.289 127.472 294.652 127.472C295.463 127.472 296.113 127.637 296.604 127.968C297.095 128.288 297.452 128.747 297.676 129.344C297.9 129.931 298.012 130.629 298.012 131.44V136H296.876L296.796 134.928C296.561 135.248 296.279 135.493 295.948 135.664C295.617 135.835 295.276 135.947 294.924 136C294.583 136.064 294.257 136.096 293.948 136.096ZM294.076 134.896C294.609 134.896 295.068 134.811 295.452 134.64C295.847 134.459 296.151 134.197 296.364 133.856C296.577 133.515 296.684 133.099 296.684 132.608V132.192H295.196C294.844 132.192 294.497 132.197 294.156 132.208C293.815 132.219 293.505 132.261 293.228 132.336C292.951 132.411 292.727 132.539 292.556 132.72C292.396 132.901 292.316 133.163 292.316 133.504C292.316 133.824 292.396 134.085 292.556 134.288C292.727 134.491 292.945 134.645 293.212 134.752C293.489 134.848 293.777 134.896 294.076 134.896ZM106.072 156V147.568H107.432V151.2H108.904L111.4 147.568H112.952L110.136 151.584L113.192 156H111.592L109.064 152.384H107.432V156H106.072ZM114.369 156V147.568H117.633C118.006 147.568 118.374 147.595 118.737 147.648C119.11 147.691 119.446 147.787 119.745 147.936C120.054 148.075 120.3 148.283 120.481 148.56C120.673 148.837 120.769 149.205 120.769 149.664C120.769 149.941 120.726 150.197 120.641 150.432C120.556 150.656 120.428 150.853 120.257 151.024C120.097 151.195 119.889 151.344 119.633 151.472C120.209 151.6 120.625 151.851 120.881 152.224C121.137 152.597 121.265 153.024 121.265 153.504C121.265 153.931 121.185 154.304 121.025 154.624C120.876 154.933 120.662 155.189 120.385 155.392C120.118 155.595 119.804 155.749 119.441 155.856C119.089 155.952 118.71 156 118.305 156H114.369ZM115.761 154.816H117.985C118.316 154.816 118.625 154.784 118.913 154.72C119.201 154.656 119.436 154.539 119.617 154.368C119.798 154.187 119.889 153.931 119.889 153.6C119.889 153.259 119.809 153.003 119.649 152.832C119.5 152.651 119.302 152.528 119.057 152.464C118.822 152.389 118.566 152.347 118.289 152.336C118.012 152.325 117.75 152.32 117.505 152.32H115.761V154.816ZM115.761 151.168H116.929C117.142 151.168 117.388 151.157 117.665 151.136C117.953 151.115 118.23 151.067 118.497 150.992C118.774 150.907 118.998 150.779 119.169 150.608C119.35 150.437 119.441 150.203 119.441 149.904C119.441 149.509 119.329 149.237 119.105 149.088C118.892 148.928 118.636 148.837 118.337 148.816C118.038 148.784 117.761 148.768 117.505 148.768H115.761V151.168ZM125.823 156.096C125.439 156.096 125.066 156.048 124.703 155.952C124.351 155.845 124.031 155.691 123.743 155.488C123.466 155.275 123.242 155.013 123.071 154.704C122.911 154.384 122.831 154.016 122.831 153.6C122.831 153.12 122.916 152.715 123.087 152.384C123.268 152.053 123.508 151.792 123.807 151.6C124.106 151.408 124.452 151.269 124.847 151.184C125.242 151.099 125.652 151.056 126.079 151.056H128.559C128.559 150.576 128.49 150.16 128.351 149.808C128.223 149.456 128.01 149.184 127.711 148.992C127.412 148.789 127.018 148.688 126.527 148.688C126.228 148.688 125.951 148.72 125.695 148.784C125.439 148.848 125.22 148.949 125.039 149.088C124.858 149.227 124.724 149.413 124.639 149.648H123.183C123.258 149.264 123.402 148.939 123.615 148.672C123.839 148.395 124.106 148.171 124.415 148C124.735 147.819 125.076 147.685 125.439 147.6C125.802 147.515 126.164 147.472 126.527 147.472C127.338 147.472 127.988 147.637 128.479 147.968C128.97 148.288 129.327 148.747 129.551 149.344C129.775 149.931 129.887 150.629 129.887 151.44V156H128.751L128.671 154.928C128.436 155.248 128.154 155.493 127.823 155.664C127.492 155.835 127.151 155.947 126.799 156C126.458 156.064 126.132 156.096 125.823 156.096ZM125.951 154.896C126.484 154.896 126.943 154.811 127.327 154.64C127.722 154.459 128.026 154.197 128.239 153.856C128.452 153.515 128.559 153.099 128.559 152.608V152.192H127.071C126.719 152.192 126.372 152.197 126.031 152.208C125.69 152.219 125.38 152.261 125.103 152.336C124.826 152.411 124.602 152.539 124.431 152.72C124.271 152.901 124.191 153.163 124.191 153.504C124.191 153.824 124.271 154.085 124.431 154.288C124.602 154.491 124.82 154.645 125.087 154.752C125.364 154.848 125.652 154.896 125.951 154.896ZM131.994 159.04V147.568H133.29L133.354 148.864C133.642 148.405 134.031 148.059 134.522 147.824C135.023 147.589 135.562 147.472 136.138 147.472C136.991 147.472 137.69 147.664 138.234 148.048C138.778 148.421 139.178 148.933 139.434 149.584C139.701 150.235 139.834 150.971 139.834 151.792C139.834 152.613 139.701 153.349 139.434 154C139.167 154.651 138.757 155.163 138.202 155.536C137.647 155.909 136.938 156.096 136.074 156.096C135.647 156.096 135.263 156.053 134.922 155.968C134.581 155.872 134.282 155.739 134.026 155.568C133.77 155.397 133.546 155.205 133.354 154.992V159.04H131.994ZM135.962 154.896C136.581 154.896 137.071 154.757 137.434 154.48C137.797 154.192 138.058 153.813 138.218 153.344C138.389 152.875 138.474 152.357 138.474 151.792C138.474 151.216 138.389 150.693 138.218 150.224C138.058 149.755 137.791 149.381 137.418 149.104C137.045 148.827 136.549 148.688 135.93 148.688C135.375 148.688 134.901 148.832 134.506 149.12C134.122 149.397 133.829 149.776 133.626 150.256C133.423 150.725 133.322 151.243 133.322 151.808C133.322 152.395 133.418 152.923 133.61 153.392C133.802 153.861 134.095 154.229 134.49 154.496C134.885 154.763 135.375 154.896 135.962 154.896ZM143.556 156V148.768H140.66V147.568H147.812V148.768H144.916V156H143.556ZM149.025 156V147.568H150.385V154.032C150.46 153.883 150.561 153.723 150.689 153.552C150.817 153.371 150.918 153.232 150.993 153.136L155.073 147.568H156.417V156H155.057V149.536C154.972 149.696 154.876 149.845 154.769 149.984C154.673 150.123 154.582 150.251 154.497 150.368L150.353 156H149.025ZM158.556 159.04V147.568H159.852L159.916 148.864C160.204 148.405 160.594 148.059 161.084 147.824C161.586 147.589 162.124 147.472 162.7 147.472C163.554 147.472 164.252 147.664 164.796 148.048C165.34 148.421 165.74 148.933 165.996 149.584C166.263 150.235 166.396 150.971 166.396 151.792C166.396 152.613 166.263 153.349 165.996 154C165.73 154.651 165.319 155.163 164.764 155.536C164.21 155.909 163.5 156.096 162.636 156.096C162.21 156.096 161.826 156.053 161.484 155.968C161.143 155.872 160.844 155.739 160.588 155.568C160.332 155.397 160.108 155.205 159.916 154.992V159.04H158.556ZM162.524 154.896C163.143 154.896 163.634 154.757 163.996 154.48C164.359 154.192 164.62 153.813 164.78 153.344C164.951 152.875 165.036 152.357 165.036 151.792C165.036 151.216 164.951 150.693 164.78 150.224C164.62 149.755 164.354 149.381 163.98 149.104C163.607 148.827 163.111 148.688 162.492 148.688C161.938 148.688 161.463 148.832 161.068 149.12C160.684 149.397 160.391 149.776 160.188 150.256C159.986 150.725 159.884 151.243 159.884 151.808C159.884 152.395 159.98 152.923 160.172 153.392C160.364 153.861 160.658 154.229 161.052 154.496C161.447 154.763 161.938 154.896 162.524 154.896ZM168.15 156V147.568H169.542V150.784H171.062C171.563 150.784 172.017 150.827 172.422 150.912C172.827 150.997 173.174 151.136 173.462 151.328C173.75 151.52 173.969 151.781 174.118 152.112C174.267 152.432 174.342 152.837 174.342 153.328C174.342 153.797 174.262 154.203 174.102 154.544C173.942 154.885 173.713 155.163 173.414 155.376C173.126 155.589 172.779 155.749 172.374 155.856C171.979 155.952 171.547 156 171.078 156H168.15ZM169.542 154.816H169.99C170.363 154.816 170.726 154.811 171.078 154.8C171.43 154.779 171.745 154.725 172.022 154.64C172.31 154.555 172.539 154.416 172.71 154.224C172.881 154.021 172.966 153.739 172.966 153.376C172.966 153.035 172.897 152.773 172.758 152.592C172.63 152.4 172.459 152.261 172.246 152.176C172.033 152.08 171.798 152.021 171.542 152C171.297 151.979 171.051 151.968 170.806 151.968H169.542V154.816ZM175.51 156V147.568H176.87V156H175.51ZM181.666 154.56L183.554 151.776L181.666 148.992H183.122L184.93 151.776L183.122 154.56H181.666ZM178.882 154.56L180.722 151.776L178.882 148.992H180.322L182.13 151.776L180.322 154.56H178.882Z" fill="black"/>
</svg>
