<svg width="408" height="251" viewBox="0 0 408 251" fill="none" xmlns="http://www.w3.org/2000/svg">
<rect width="408" height="251" rx="30" fill="white"/>
<path d="M54.0947 83.835C54.568 83.835 55.0218 84.0228 55.3564 84.3574C55.6911 84.6921 55.8798 85.1459 55.8799 85.6191V87.4043C55.8799 87.8776 55.6911 88.3313 55.3564 88.666C55.0218 89.0007 54.5681 89.1894 54.0947 89.1895C53.6214 89.1895 53.1677 89.0007 52.833 88.666C52.4983 88.3313 52.3096 87.8776 52.3096 87.4043V85.6191C52.3096 85.1459 52.4984 84.6921 52.833 84.3574C53.1677 84.0228 53.6215 83.835 54.0947 83.835ZM39.5635 77.8848C40.0215 77.896 40.4583 78.0833 40.7822 78.4072C41.106 78.7311 41.2934 79.1671 41.3047 79.625C41.316 80.0829 41.1503 80.5277 40.8428 80.8672L39.5713 82.1387C39.2381 82.4668 38.7889 82.6516 38.3213 82.6523C37.8474 82.6503 37.3923 82.4661 37.0498 82.1387C36.7163 81.8042 36.5284 81.3513 36.5283 80.8789C36.5283 80.4063 36.7161 79.9527 37.0498 79.6182L38.3213 78.3467C38.6607 78.0391 39.1056 77.8736 39.5635 77.8848ZM68.625 77.8848C69.083 77.8735 69.5287 78.0391 69.8682 78.3467L71.1396 79.6182C71.4733 79.9527 71.6602 80.4064 71.6602 80.8789C71.6601 81.3512 71.4731 81.8042 71.1396 82.1387C70.7972 82.466 70.3419 82.6502 69.8682 82.6523C69.4006 82.6516 68.9513 82.4668 68.6182 82.1387L67.3467 80.8672C67.0391 80.5277 66.8735 80.0829 66.8848 79.625C66.8961 79.1671 67.0834 78.7312 67.4072 78.4072C67.7311 78.0834 68.1671 77.8961 68.625 77.8848ZM54.0947 49.9238C58.1163 49.9298 61.9717 51.5294 64.8154 54.373C67.6592 57.2168 69.2597 61.073 69.2656 65.0947C69.2655 68.0949 68.3757 71.0278 66.709 73.5225C65.042 76.0172 62.6724 77.9621 59.9004 79.1104C57.1283 80.2586 54.0776 80.559 51.1348 79.9736C48.192 79.3882 45.4888 77.9429 43.3672 75.8213C41.2457 73.6997 39.8012 70.9964 39.2158 68.0537C38.6305 65.111 38.9309 62.0611 40.0791 59.2891C41.2273 56.5171 43.1713 54.1474 45.666 52.4805C48.1608 50.8135 51.0942 49.9238 54.0947 49.9238ZM33.5693 63.3096C34.0427 63.3096 34.4973 63.4973 34.832 63.832C35.1667 64.1667 35.3545 64.6214 35.3545 65.0947C35.3544 65.5679 35.1665 66.0218 34.832 66.3564C34.4973 66.6912 34.0427 66.8789 33.5693 66.8789H31.7852C31.3118 66.8789 30.8572 66.6912 30.5225 66.3564C30.1879 66.0218 30.0001 65.5679 30 65.0947C30 64.6214 30.1877 64.1667 30.5225 63.832C30.8572 63.4973 31.3118 63.3096 31.7852 63.3096H33.5693ZM76.4043 63.3096C76.8777 63.3096 77.3323 63.4973 77.667 63.832C78.0017 64.1667 78.1895 64.6214 78.1895 65.0947C78.1893 65.5679 78.0015 66.0218 77.667 66.3564C77.3323 66.6912 76.8777 66.8789 76.4043 66.8789H74.6201C74.1468 66.8789 73.6921 66.6912 73.3574 66.3564C73.0229 66.0218 72.8351 65.5679 72.835 65.0947C72.835 64.6214 73.0227 64.1667 73.3574 63.832C73.6921 63.4973 74.1468 63.3096 74.6201 63.3096H76.4043ZM69.8975 47.4639C70.139 47.458 70.3792 47.5011 70.6035 47.5908C70.828 47.6806 71.0322 47.8154 71.2031 47.9863C71.3739 48.1572 71.5089 48.3606 71.5986 48.585C71.6884 48.8095 71.7315 49.0503 71.7256 49.292C71.7196 49.5336 71.6641 49.7715 71.5635 49.9912C71.488 50.1559 71.3884 50.3082 71.2676 50.4424L69.8682 51.8418C69.7047 52.0062 69.5094 52.1365 69.2949 52.2246C69.0804 52.3127 68.8501 52.3575 68.6182 52.3555C68.3826 52.3605 68.1482 52.3177 67.9297 52.2295C67.7111 52.1413 67.5128 52.009 67.3467 51.8418C67.0131 51.5073 66.8253 51.0544 66.8252 50.582C66.8252 50.1094 67.0129 49.6559 67.3467 49.3213L68.7461 47.9219C68.8803 47.8009 69.0324 47.7006 69.1973 47.625C69.4171 47.5243 69.6558 47.4698 69.8975 47.4639ZM38.3281 47.5879C38.7861 47.5766 39.2318 47.7422 39.5713 48.0498L40.8428 49.3213C41.1765 49.6559 41.3643 50.1095 41.3643 50.582C41.3642 51.0544 41.1763 51.5073 40.8428 51.8418C40.5054 52.1702 40.0529 52.3545 39.582 52.3545C39.1112 52.3545 38.6587 52.1702 38.3213 51.8418L37.0498 50.5703C36.7423 50.2308 36.5766 49.786 36.5879 49.3281C36.5992 48.8702 36.7865 48.4343 37.1104 48.1104C37.4342 47.7865 37.8703 47.5993 38.3281 47.5879ZM54.0947 41C54.568 41 55.0218 41.1878 55.3564 41.5225C55.6911 41.8571 55.8798 42.3109 55.8799 42.7842V44.5693C55.8799 45.0427 55.6911 45.4964 55.3564 45.8311C55.0218 46.1657 54.568 46.3545 54.0947 46.3545C53.6214 46.3545 53.1677 46.1657 52.833 45.8311C52.4983 45.4964 52.3096 45.0427 52.3096 44.5693V42.7842C52.3096 42.3109 52.4984 41.8571 52.833 41.5225C53.1677 41.1879 53.6215 41 54.0947 41Z" fill="black"/>
<path d="M106.392 56V44.688H115.288V56H113.896V45.952H107.784V56H106.392ZM121.44 56.096C120.554 56.096 119.813 55.9147 119.216 55.552C118.618 55.1787 118.17 54.6667 117.872 54.016C117.584 53.3653 117.44 52.624 117.44 51.792C117.44 50.9493 117.584 50.208 117.872 49.568C118.17 48.9173 118.618 48.4053 119.216 48.032C119.813 47.6587 120.565 47.472 121.472 47.472C122.357 47.472 123.093 47.6587 123.68 48.032C124.277 48.4053 124.72 48.9173 125.008 49.568C125.306 50.208 125.456 50.9493 125.456 51.792C125.456 52.624 125.306 53.3653 125.008 54.016C124.709 54.6667 124.261 55.1787 123.664 55.552C123.077 55.9147 122.336 56.096 121.44 56.096ZM121.44 54.896C122.058 54.896 122.56 54.7573 122.944 54.48C123.338 54.2027 123.626 53.8293 123.808 53.36C124 52.8907 124.096 52.368 124.096 51.792C124.096 51.216 124 50.6933 123.808 50.224C123.626 49.7547 123.338 49.3813 122.944 49.104C122.56 48.8267 122.058 48.688 121.44 48.688C120.832 48.688 120.33 48.8267 119.936 49.104C119.552 49.3813 119.264 49.7547 119.072 50.224C118.89 50.6933 118.799 51.216 118.799 51.792C118.799 52.368 118.89 52.8907 119.072 53.36C119.264 53.8293 119.552 54.2027 119.936 54.48C120.33 54.7573 120.832 54.896 121.44 54.896ZM127.275 56V47.568H128.635V51.2H130.107L132.603 47.568H134.155L131.339 51.584L134.395 56H132.795L130.267 52.384H128.635V56H127.275ZM138.12 56.096C137.736 56.096 137.362 56.048 137 55.952C136.648 55.8453 136.328 55.6907 136.04 55.488C135.762 55.2747 135.538 55.0133 135.368 54.704C135.208 54.384 135.128 54.016 135.128 53.6C135.128 53.12 135.213 52.7147 135.384 52.384C135.565 52.0533 135.805 51.792 136.104 51.6C136.402 51.408 136.749 51.2693 137.144 51.184C137.538 51.0987 137.949 51.056 138.376 51.056H140.856C140.856 50.576 140.786 50.16 140.648 49.808C140.52 49.456 140.306 49.184 140.008 48.992C139.709 48.7893 139.314 48.688 138.824 48.688C138.525 48.688 138.248 48.72 137.992 48.784C137.736 48.848 137.517 48.9493 137.336 49.088C137.154 49.2267 137.021 49.4133 136.936 49.648H135.48C135.554 49.264 135.698 48.9387 135.912 48.672C136.136 48.3947 136.402 48.1707 136.712 48C137.032 47.8187 137.373 47.6853 137.736 47.6C138.098 47.5147 138.461 47.472 138.824 47.472C139.634 47.472 140.285 47.6373 140.776 47.968C141.266 48.288 141.624 48.7467 141.848 49.344C142.072 49.9307 142.184 50.6293 142.184 51.44V56H141.048L140.968 54.928C140.733 55.248 140.45 55.4933 140.12 55.664C139.789 55.8347 139.448 55.9467 139.096 56C138.754 56.064 138.429 56.096 138.12 56.096ZM138.248 54.896C138.781 54.896 139.24 54.8107 139.624 54.64C140.018 54.4587 140.322 54.1973 140.536 53.856C140.749 53.5147 140.856 53.0987 140.856 52.608V52.192H139.368C139.016 52.192 138.669 52.1973 138.328 52.208C137.986 52.2187 137.677 52.2613 137.4 52.336C137.122 52.4107 136.898 52.5387 136.728 52.72C136.568 52.9013 136.488 53.1627 136.488 53.504C136.488 53.824 136.568 54.0853 136.728 54.288C136.898 54.4907 137.117 54.6453 137.384 54.752C137.661 54.848 137.949 54.896 138.248 54.896ZM147.347 56.096C146.941 56.096 146.536 56.0587 146.131 55.984C145.725 55.9093 145.347 55.7867 144.995 55.616C144.653 55.4347 144.376 55.1947 144.163 54.896C143.949 54.5867 143.832 54.2027 143.811 53.744H145.139C145.192 54.032 145.347 54.2613 145.603 54.432C145.859 54.6027 146.147 54.7253 146.467 54.8C146.797 54.864 147.091 54.896 147.347 54.896C147.645 54.896 147.949 54.864 148.259 54.8C148.579 54.736 148.845 54.608 149.059 54.416C149.283 54.224 149.395 53.9413 149.395 53.568C149.395 53.2053 149.304 52.9387 149.123 52.768C148.952 52.5973 148.723 52.4853 148.435 52.432C148.157 52.3787 147.853 52.352 147.523 52.352H146.019V51.152H147.251C147.453 51.152 147.661 51.136 147.875 51.104C148.088 51.0613 148.285 50.9973 148.467 50.912C148.648 50.816 148.792 50.6827 148.899 50.512C149.016 50.3413 149.075 50.1227 149.075 49.856C149.075 49.5573 148.989 49.3227 148.819 49.152C148.648 48.9813 148.429 48.864 148.163 48.8C147.896 48.7253 147.624 48.688 147.347 48.688C147.091 48.688 146.819 48.7147 146.531 48.768C146.253 48.8213 146.013 48.928 145.811 49.088C145.608 49.2373 145.485 49.4613 145.443 49.76H144.099C144.12 49.184 144.296 48.7307 144.627 48.4C144.957 48.0693 145.368 47.8347 145.859 47.696C146.349 47.5467 146.84 47.472 147.331 47.472C147.704 47.472 148.072 47.5093 148.435 47.584C148.797 47.6587 149.128 47.7867 149.427 47.968C149.725 48.1387 149.96 48.368 150.131 48.656C150.312 48.944 150.403 49.3013 150.403 49.728C150.403 50.112 150.312 50.4533 150.131 50.752C149.949 51.0507 149.672 51.2907 149.299 51.472C149.843 51.6427 150.221 51.9093 150.435 52.272C150.648 52.6347 150.755 53.0667 150.755 53.568C150.755 54.016 150.659 54.4 150.467 54.72C150.275 55.0293 150.013 55.2907 149.683 55.504C149.363 55.7067 149 55.856 148.595 55.952C148.189 56.048 147.773 56.096 147.347 56.096ZM152.51 56V47.568H153.902V50.784H155.422C155.923 50.784 156.376 50.8267 156.782 50.912C157.187 50.9973 157.534 51.136 157.822 51.328C158.11 51.52 158.328 51.7813 158.478 52.112C158.627 52.432 158.702 52.8373 158.702 53.328C158.702 53.7973 158.622 54.2027 158.462 54.544C158.302 54.8853 158.072 55.1627 157.774 55.376C157.486 55.5893 157.139 55.7493 156.734 55.856C156.339 55.952 155.907 56 155.438 56H152.51ZM153.902 54.816H154.35C154.723 54.816 155.086 54.8107 155.438 54.8C155.79 54.7787 156.104 54.7253 156.382 54.64C156.67 54.5547 156.899 54.416 157.07 54.224C157.24 54.0213 157.326 53.7387 157.326 53.376C157.326 53.0347 157.256 52.7733 157.118 52.592C156.99 52.4 156.819 52.2613 156.606 52.176C156.392 52.08 156.158 52.0213 155.902 52C155.656 51.9787 155.411 51.968 155.166 51.968H153.902V54.816ZM159.87 56V47.568H161.23V56H159.87ZM163.369 56V47.568H166.633C167.006 47.568 167.374 47.5947 167.737 47.648C168.11 47.6907 168.446 47.7867 168.745 47.936C169.054 48.0747 169.3 48.2827 169.481 48.56C169.673 48.8373 169.769 49.2053 169.769 49.664C169.769 49.9413 169.726 50.1973 169.641 50.432C169.556 50.656 169.428 50.8533 169.257 51.024C169.097 51.1947 168.889 51.344 168.633 51.472C169.209 51.6 169.625 51.8507 169.881 52.224C170.137 52.5973 170.265 53.024 170.265 53.504C170.265 53.9307 170.185 54.304 170.025 54.624C169.876 54.9333 169.662 55.1893 169.385 55.392C169.118 55.5947 168.804 55.7493 168.441 55.856C168.089 55.952 167.71 56 167.305 56H163.369ZM164.761 54.816H166.985C167.316 54.816 167.625 54.784 167.913 54.72C168.201 54.656 168.436 54.5387 168.617 54.368C168.798 54.1867 168.889 53.9307 168.889 53.6C168.889 53.2587 168.809 53.0027 168.649 52.832C168.5 52.6507 168.302 52.528 168.057 52.464C167.822 52.3893 167.566 52.3467 167.289 52.336C167.012 52.3253 166.75 52.32 166.505 52.32H164.761V54.816ZM164.761 51.168H165.929C166.142 51.168 166.388 51.1573 166.665 51.136C166.953 51.1147 167.23 51.0667 167.497 50.992C167.774 50.9067 167.998 50.7787 168.169 50.608C168.35 50.4373 168.441 50.2027 168.441 49.904C168.441 49.5093 168.329 49.2373 168.105 49.088C167.892 48.928 167.636 48.8373 167.337 48.816C167.038 48.784 166.761 48.768 166.505 48.768H164.761V51.168ZM174.823 56.096C174.439 56.096 174.066 56.048 173.703 55.952C173.351 55.8453 173.031 55.6907 172.743 55.488C172.466 55.2747 172.242 55.0133 172.071 54.704C171.911 54.384 171.831 54.016 171.831 53.6C171.831 53.12 171.916 52.7147 172.087 52.384C172.268 52.0533 172.508 51.792 172.807 51.6C173.106 51.408 173.452 51.2693 173.847 51.184C174.242 51.0987 174.652 51.056 175.079 51.056H177.559C177.559 50.576 177.49 50.16 177.351 49.808C177.223 49.456 177.01 49.184 176.711 48.992C176.412 48.7893 176.018 48.688 175.527 48.688C175.228 48.688 174.951 48.72 174.695 48.784C174.439 48.848 174.22 48.9493 174.039 49.088C173.858 49.2267 173.724 49.4133 173.639 49.648H172.183C172.258 49.264 172.402 48.9387 172.615 48.672C172.839 48.3947 173.106 48.1707 173.415 48C173.735 47.8187 174.076 47.6853 174.439 47.6C174.802 47.5147 175.164 47.472 175.527 47.472C176.338 47.472 176.988 47.6373 177.479 47.968C177.97 48.288 178.327 48.7467 178.551 49.344C178.775 49.9307 178.887 50.6293 178.887 51.44V56H177.751L177.671 54.928C177.436 55.248 177.154 55.4933 176.823 55.664C176.492 55.8347 176.151 55.9467 175.799 56C175.458 56.064 175.132 56.096 174.823 56.096ZM174.951 54.896C175.484 54.896 175.943 54.8107 176.327 54.64C176.722 54.4587 177.026 54.1973 177.239 53.856C177.452 53.5147 177.559 53.0987 177.559 52.608V52.192H176.071C175.719 52.192 175.372 52.1973 175.031 52.208C174.69 52.2187 174.38 52.2613 174.103 52.336C173.826 52.4107 173.602 52.5387 173.431 52.72C173.271 52.9013 173.191 53.1627 173.191 53.504C173.191 53.824 173.271 54.0853 173.431 54.288C173.602 54.4907 173.82 54.6453 174.087 54.752C174.364 54.848 174.652 54.896 174.951 54.896ZM184.642 56.096C183.746 56.096 183.005 55.9147 182.418 55.552C181.831 55.1787 181.394 54.6667 181.106 54.016C180.818 53.3653 180.674 52.624 180.674 51.792C180.674 50.9493 180.823 50.208 181.122 49.568C181.431 48.9173 181.879 48.4053 182.466 48.032C183.053 47.6587 183.773 47.472 184.626 47.472C185.255 47.472 185.805 47.5947 186.274 47.84C186.754 48.0747 187.149 48.3947 187.458 48.8C187.778 49.2053 188.007 49.6587 188.146 50.16C188.295 50.6613 188.359 51.1787 188.338 51.712C188.327 51.808 188.322 51.904 188.322 52C188.322 52.096 188.317 52.192 188.306 52.288H182.05C182.093 52.7787 182.215 53.2213 182.418 53.616C182.621 54.0107 182.909 54.3253 183.282 54.56C183.655 54.784 184.119 54.896 184.674 54.896C184.951 54.896 185.229 54.864 185.506 54.8C185.794 54.7253 186.05 54.6027 186.274 54.432C186.509 54.2613 186.674 54.032 186.77 53.744H188.162C188.034 54.288 187.794 54.736 187.442 55.088C187.09 55.4293 186.669 55.6853 186.178 55.856C185.687 56.016 185.175 56.096 184.642 56.096ZM182.082 51.104H186.962C186.951 50.624 186.845 50.2027 186.642 49.84C186.439 49.4773 186.162 49.1947 185.81 48.992C185.469 48.7893 185.058 48.688 184.578 48.688C184.055 48.688 183.613 48.8 183.25 49.024C182.898 49.248 182.626 49.5413 182.434 49.904C182.242 50.2667 182.125 50.6667 182.082 51.104ZM192.134 56V48.768H189.238V47.568H196.39V48.768H193.494V56H192.134ZM201.916 56V47.568H208.908V56H207.548V48.768H203.276V56H201.916ZM214.736 56.096C213.851 56.096 213.11 55.9147 212.512 55.552C211.915 55.1787 211.467 54.6667 211.168 54.016C210.88 53.3653 210.736 52.624 210.736 51.792C210.736 50.9493 210.88 50.208 211.168 49.568C211.467 48.9173 211.915 48.4053 212.512 48.032C213.11 47.6587 213.862 47.472 214.768 47.472C215.654 47.472 216.39 47.6587 216.976 48.032C217.574 48.4053 218.016 48.9173 218.304 49.568C218.603 50.208 218.752 50.9493 218.752 51.792C218.752 52.624 218.603 53.3653 218.304 54.016C218.006 54.6667 217.558 55.1787 216.96 55.552C216.374 55.9147 215.632 56.096 214.736 56.096ZM214.736 54.896C215.355 54.896 215.856 54.7573 216.24 54.48C216.635 54.2027 216.923 53.8293 217.104 53.36C217.296 52.8907 217.392 52.368 217.392 51.792C217.392 51.216 217.296 50.6933 217.104 50.224C216.923 49.7547 216.635 49.3813 216.24 49.104C215.856 48.8267 215.355 48.688 214.736 48.688C214.128 48.688 213.627 48.8267 213.232 49.104C212.848 49.3813 212.56 49.7547 212.368 50.224C212.187 50.6933 212.096 51.216 212.096 51.792C212.096 52.368 212.187 52.8907 212.368 53.36C212.56 53.8293 212.848 54.2027 213.232 54.48C213.627 54.7573 214.128 54.896 214.736 54.896ZM219.726 56.016V54.832C219.939 54.832 220.131 54.7893 220.302 54.704C220.473 54.608 220.622 54.4693 220.75 54.288C220.899 54.0747 221.017 53.7653 221.102 53.36C221.187 52.9547 221.246 52.5227 221.278 52.064C221.321 51.552 221.353 51.0507 221.374 50.56C221.395 50.0587 221.411 49.5627 221.422 49.072C221.443 48.5813 221.454 48.08 221.454 47.568H227.31V56H225.95V48.768H222.782C222.771 49.1307 222.755 49.4987 222.734 49.872C222.723 50.2347 222.707 50.6027 222.686 50.976C222.675 51.3387 222.659 51.7067 222.638 52.08C222.627 52.5067 222.585 52.9867 222.51 53.52C222.435 54.0533 222.275 54.5387 222.03 54.976C221.795 55.392 221.507 55.6693 221.166 55.808C220.835 55.9467 220.355 56.016 219.726 56.016ZM232.503 56.096C232.098 56.096 231.692 56.0587 231.287 55.984C230.882 55.9093 230.503 55.7867 230.151 55.616C229.81 55.4347 229.532 55.1947 229.319 54.896C229.106 54.5867 228.988 54.2027 228.967 53.744H230.295C230.348 54.032 230.503 54.2613 230.759 54.432C231.015 54.6027 231.303 54.7253 231.623 54.8C231.954 54.864 232.247 54.896 232.503 54.896C232.802 54.896 233.106 54.864 233.415 54.8C233.735 54.736 234.002 54.608 234.215 54.416C234.439 54.224 234.551 53.9413 234.551 53.568C234.551 53.2053 234.46 52.9387 234.279 52.768C234.108 52.5973 233.879 52.4853 233.591 52.432C233.314 52.3787 233.01 52.352 232.679 52.352H231.175V51.152H232.407C232.61 51.152 232.818 51.136 233.031 51.104C233.244 51.0613 233.442 50.9973 233.623 50.912C233.804 50.816 233.948 50.6827 234.055 50.512C234.172 50.3413 234.231 50.1227 234.231 49.856C234.231 49.5573 234.146 49.3227 233.975 49.152C233.804 48.9813 233.586 48.864 233.319 48.8C233.052 48.7253 232.78 48.688 232.503 48.688C232.247 48.688 231.975 48.7147 231.687 48.768C231.41 48.8213 231.17 48.928 230.967 49.088C230.764 49.2373 230.642 49.4613 230.599 49.76H229.255C229.276 49.184 229.452 48.7307 229.783 48.4C230.114 48.0693 230.524 47.8347 231.015 47.696C231.506 47.5467 231.996 47.472 232.487 47.472C232.86 47.472 233.228 47.5093 233.591 47.584C233.954 47.6587 234.284 47.7867 234.583 47.968C234.882 48.1387 235.116 48.368 235.287 48.656C235.468 48.944 235.559 49.3013 235.559 49.728C235.559 50.112 235.468 50.4533 235.287 50.752C235.106 51.0507 234.828 51.2907 234.455 51.472C234.999 51.6427 235.378 51.9093 235.591 52.272C235.804 52.6347 235.911 53.0667 235.911 53.568C235.911 54.016 235.815 54.4 235.623 54.72C235.431 55.0293 235.17 55.2907 234.839 55.504C234.519 55.7067 234.156 55.856 233.751 55.952C233.346 56.048 232.93 56.096 232.503 56.096ZM237.938 59.616V58.32C238.46 58.32 238.876 58.2453 239.186 58.096C239.495 57.9573 239.751 57.7333 239.954 57.424C240.167 57.1253 240.37 56.7413 240.562 56.272L236.866 47.568H238.466L241.314 54.672L243.65 47.568H245.186L242.818 54.208C242.7 54.5493 242.567 54.9333 242.418 55.36C242.268 55.7867 242.103 56.2187 241.922 56.656C241.74 57.104 241.538 57.5147 241.314 57.888C241.1 58.272 240.86 58.5813 240.594 58.816C240.37 59.0187 240.151 59.1787 239.938 59.296C239.724 59.4133 239.463 59.4933 239.154 59.536C238.855 59.5893 238.45 59.616 237.938 59.616ZM246.447 56V47.568H247.807V51.264H252.031V47.568H253.391V56H252.031V52.464H247.807V56H246.447ZM259.221 56.096C258.335 56.096 257.594 55.9147 256.997 55.552C256.399 55.1787 255.951 54.6667 255.653 54.016C255.365 53.3653 255.221 52.624 255.221 51.792C255.221 50.9493 255.365 50.208 255.653 49.568C255.951 48.9173 256.399 48.4053 256.997 48.032C257.594 47.6587 258.346 47.472 259.253 47.472C260.138 47.472 260.874 47.6587 261.461 48.032C262.058 48.4053 262.501 48.9173 262.789 49.568C263.087 50.208 263.237 50.9493 263.237 51.792C263.237 52.624 263.087 53.3653 262.789 54.016C262.49 54.6667 262.042 55.1787 261.445 55.552C260.858 55.9147 260.117 56.096 259.221 56.096ZM259.221 54.896C259.839 54.896 260.341 54.7573 260.725 54.48C261.119 54.2027 261.407 53.8293 261.589 53.36C261.781 52.8907 261.877 52.368 261.877 51.792C261.877 51.216 261.781 50.6933 261.589 50.224C261.407 49.7547 261.119 49.3813 260.725 49.104C260.341 48.8267 259.839 48.688 259.221 48.688C258.613 48.688 258.111 48.8267 257.717 49.104C257.333 49.3813 257.045 49.7547 256.853 50.224C256.671 50.6933 256.581 51.216 256.581 51.792C256.581 52.368 256.671 52.8907 256.853 53.36C257.045 53.8293 257.333 54.2027 257.717 54.48C258.111 54.7573 258.613 54.896 259.221 54.896ZM265.056 56V47.568H266.416V51.2H267.888L270.384 47.568H271.936L269.12 51.584L272.176 56H270.576L268.048 52.384H266.416V56H265.056ZM106.072 79.04V67.568H107.368L107.432 68.864C107.72 68.4053 108.109 68.0587 108.6 67.824C109.101 67.5893 109.64 67.472 110.216 67.472C111.069 67.472 111.768 67.664 112.312 68.048C112.856 68.4213 113.256 68.9333 113.512 69.584C113.779 70.2347 113.912 70.9707 113.912 71.792C113.912 72.6133 113.779 73.3493 113.512 74C113.245 74.6507 112.835 75.1627 112.28 75.536C111.725 75.9093 111.016 76.096 110.152 76.096C109.725 76.096 109.341 76.0533 109 75.968C108.659 75.872 108.36 75.7387 108.104 75.568C107.848 75.3973 107.624 75.2053 107.432 74.992V79.04H106.072ZM110.04 74.896C110.659 74.896 111.149 74.7573 111.512 74.48C111.875 74.192 112.136 73.8133 112.296 73.344C112.467 72.8747 112.552 72.3573 112.552 71.792C112.552 71.216 112.467 70.6933 112.296 70.224C112.136 69.7547 111.869 69.3813 111.496 69.104C111.123 68.8267 110.627 68.688 110.008 68.688C109.453 68.688 108.979 68.832 108.584 69.12C108.2 69.3973 107.907 69.776 107.704 70.256C107.501 70.7253 107.4 71.2427 107.4 71.808C107.4 72.3947 107.496 72.9227 107.688 73.392C107.88 73.8613 108.173 74.2293 108.568 74.496C108.963 74.7627 109.453 74.896 110.04 74.896ZM119.314 76.096C118.418 76.096 117.676 75.9147 117.09 75.552C116.503 75.1787 116.066 74.6667 115.778 74.016C115.49 73.3653 115.346 72.624 115.346 71.792C115.346 70.9493 115.495 70.208 115.794 69.568C116.103 68.9173 116.551 68.4053 117.138 68.032C117.724 67.6587 118.444 67.472 119.298 67.472C119.927 67.472 120.476 67.5947 120.946 67.84C121.426 68.0747 121.82 68.3947 122.13 68.8C122.45 69.2053 122.679 69.6587 122.818 70.16C122.967 70.6613 123.031 71.1787 123.01 71.712C122.999 71.808 122.994 71.904 122.994 72C122.994 72.096 122.988 72.192 122.978 72.288H116.722C116.764 72.7787 116.887 73.2213 117.09 73.616C117.292 74.0107 117.58 74.3253 117.954 74.56C118.327 74.784 118.791 74.896 119.346 74.896C119.623 74.896 119.9 74.864 120.178 74.8C120.466 74.7253 120.722 74.6027 120.946 74.432C121.18 74.2613 121.346 74.032 121.442 73.744H122.834C122.706 74.288 122.466 74.736 122.114 75.088C121.762 75.4293 121.34 75.6853 120.85 75.856C120.359 76.016 119.847 76.096 119.314 76.096ZM116.754 71.104H121.634C121.623 70.624 121.516 70.2027 121.314 69.84C121.111 69.4773 120.834 69.1947 120.482 68.992C120.14 68.7893 119.73 68.688 119.25 68.688C118.727 68.688 118.284 68.8 117.922 69.024C117.57 69.248 117.298 69.5413 117.106 69.904C116.914 70.2667 116.796 70.6667 116.754 71.104ZM124.838 76V67.568H130.662V68.768H126.198V76H124.838ZM132.375 79.616V78.32C132.898 78.32 133.314 78.2453 133.623 78.096C133.933 77.9573 134.189 77.7333 134.391 77.424C134.605 77.1253 134.807 76.7413 134.999 76.272L131.303 67.568H132.903L135.751 74.672L138.087 67.568H139.623L137.255 74.208C137.138 74.5493 137.005 74.9333 136.855 75.36C136.706 75.7867 136.541 76.2187 136.359 76.656C136.178 77.104 135.975 77.5147 135.751 77.888C135.538 78.272 135.298 78.5813 135.031 78.816C134.807 79.0187 134.589 79.1787 134.375 79.296C134.162 79.4133 133.901 79.4933 133.591 79.536C133.293 79.5893 132.887 79.616 132.375 79.616ZM140.117 76.016V74.832C140.33 74.832 140.522 74.7893 140.693 74.704C140.863 74.608 141.013 74.4693 141.141 74.288C141.29 74.0747 141.407 73.7653 141.493 73.36C141.578 72.9547 141.637 72.5227 141.669 72.064C141.711 71.552 141.743 71.0507 141.765 70.56C141.786 70.0587 141.802 69.5627 141.812 69.072C141.834 68.5813 141.845 68.08 141.845 67.568H147.701V76H146.341V68.768H143.173C143.162 69.1307 143.146 69.4987 143.125 69.872C143.114 70.2347 143.098 70.6027 143.077 70.976C143.066 71.3387 143.05 71.7067 143.029 72.08C143.018 72.5067 142.975 72.9867 142.901 73.52C142.826 74.0533 142.666 74.5387 142.421 74.976C142.186 75.392 141.898 75.6693 141.557 75.808C141.226 75.9467 140.746 76.016 140.117 76.016ZM149.838 76V67.568H151.198V74.032C151.272 73.8827 151.374 73.7227 151.502 73.552C151.63 73.3707 151.731 73.232 151.806 73.136L155.886 67.568H157.23V76H155.87V69.536C155.784 69.696 155.688 69.8453 155.582 69.984C155.486 70.1227 155.395 70.2507 155.31 70.368L151.166 76H149.838ZM159.369 79.04V67.568H160.665L160.729 68.864C161.017 68.4053 161.406 68.0587 161.897 67.824C162.398 67.5893 162.937 67.472 163.513 67.472C164.366 67.472 165.065 67.664 165.609 68.048C166.153 68.4213 166.553 68.9333 166.809 69.584C167.076 70.2347 167.209 70.9707 167.209 71.792C167.209 72.6133 167.076 73.3493 166.809 74C166.542 74.6507 166.132 75.1627 165.577 75.536C165.022 75.9093 164.313 76.096 163.449 76.096C163.022 76.096 162.638 76.0533 162.297 75.968C161.956 75.872 161.657 75.7387 161.401 75.568C161.145 75.3973 160.921 75.2053 160.729 74.992V79.04H159.369ZM163.337 74.896C163.956 74.896 164.446 74.7573 164.809 74.48C165.172 74.192 165.433 73.8133 165.593 73.344C165.764 72.8747 165.849 72.3573 165.849 71.792C165.849 71.216 165.764 70.6933 165.593 70.224C165.433 69.7547 165.166 69.3813 164.793 69.104C164.42 68.8267 163.924 68.688 163.305 68.688C162.75 68.688 162.276 68.832 161.881 69.12C161.497 69.3973 161.204 69.776 161.001 70.256C160.798 70.7253 160.697 71.2427 160.697 71.808C160.697 72.3947 160.793 72.9227 160.985 73.392C161.177 73.8613 161.47 74.2293 161.865 74.496C162.26 74.7627 162.75 74.896 163.337 74.896ZM169.235 79.616V78.32C169.757 78.32 170.173 78.2453 170.483 78.096C170.792 77.9573 171.048 77.7333 171.251 77.424C171.464 77.1253 171.667 76.7413 171.859 76.272L168.163 67.568H169.763L172.611 74.672L174.947 67.568H176.483L174.115 74.208C173.997 74.5493 173.864 74.9333 173.715 75.36C173.565 75.7867 173.4 76.2187 173.219 76.656C173.037 77.104 172.835 77.5147 172.611 77.888C172.397 78.272 172.157 78.5813 171.891 78.816C171.667 79.0187 171.448 79.1787 171.235 79.296C171.021 79.4133 170.76 79.4933 170.451 79.536C170.152 79.5893 169.747 79.616 169.235 79.616ZM184.576 76.096C183.339 76.096 182.405 75.7547 181.776 75.072C181.147 74.3787 180.789 73.4827 180.704 72.384H179.104V76H177.744V67.568H179.104V71.2H180.704C180.768 70.464 180.944 69.8187 181.232 69.264C181.531 68.6987 181.957 68.2613 182.512 67.952C183.067 67.632 183.755 67.472 184.576 67.472C185.472 67.472 186.213 67.6587 186.8 68.032C187.387 68.4053 187.824 68.9173 188.112 69.568C188.4 70.208 188.544 70.9493 188.544 71.792C188.544 72.624 188.4 73.3653 188.112 74.016C187.824 74.6667 187.387 75.1787 186.8 75.552C186.213 75.9147 185.472 76.096 184.576 76.096ZM184.576 74.896C185.195 74.896 185.691 74.7573 186.064 74.48C186.448 74.2027 186.731 73.8293 186.912 73.36C187.093 72.8907 187.184 72.368 187.184 71.792C187.184 71.216 187.093 70.6933 186.912 70.224C186.731 69.7547 186.448 69.3813 186.064 69.104C185.691 68.8267 185.195 68.688 184.576 68.688C183.968 68.688 183.472 68.8267 183.088 69.104C182.715 69.3813 182.443 69.7547 182.272 70.224C182.101 70.6933 182.016 71.216 182.016 71.792C182.016 72.368 182.101 72.8907 182.272 73.36C182.443 73.8293 182.715 74.2027 183.088 74.48C183.472 74.7573 183.968 74.896 184.576 74.896ZM200.546 78.592V76H190.306V67.568H191.666V74.816H194.834V67.568H196.194V74.816H199.394V67.568H200.754V74.816H201.858V78.592H200.546ZM203.275 76V67.568H204.635V74.032C204.71 73.8827 204.811 73.7227 204.939 73.552C205.067 73.3707 205.168 73.232 205.243 73.136L209.323 67.568H210.667V76H209.307V69.536C209.222 69.696 209.126 69.8453 209.019 69.984C208.923 70.1227 208.832 70.2507 208.747 70.368L204.603 76H203.275ZM212.806 76V67.568H214.166V74.032C214.241 73.8827 214.342 73.7227 214.47 73.552C214.598 73.3707 214.7 73.232 214.774 73.136L218.854 67.568H220.198V76H218.838V69.536C218.753 69.696 218.657 69.8453 218.55 69.984C218.454 70.1227 218.364 70.2507 218.278 70.368L214.134 76H212.806ZM216.614 66.384C215.772 66.384 215.11 66.2027 214.63 65.84C214.161 65.4773 213.916 64.9493 213.894 64.256H215.142C215.164 64.6293 215.302 64.9013 215.558 65.072C215.825 65.2427 216.182 65.328 216.63 65.328C217.078 65.328 217.43 65.2427 217.686 65.072C217.953 64.9013 218.097 64.6293 218.118 64.256H219.366C219.356 64.7147 219.238 65.104 219.014 65.424C218.79 65.744 218.476 65.984 218.07 66.144C217.665 66.304 217.18 66.384 216.614 66.384ZM226.65 76V67.568H233.642V76H232.282V68.768H228.01V76H226.65ZM239.471 76.096C238.585 76.096 237.844 75.9147 237.247 75.552C236.649 75.1787 236.201 74.6667 235.903 74.016C235.615 73.3653 235.471 72.624 235.471 71.792C235.471 70.9493 235.615 70.208 235.903 69.568C236.201 68.9173 236.649 68.4053 237.247 68.032C237.844 67.6587 238.596 67.472 239.503 67.472C240.388 67.472 241.124 67.6587 241.711 68.032C242.308 68.4053 242.751 68.9173 243.039 69.568C243.337 70.208 243.487 70.9493 243.487 71.792C243.487 72.624 243.337 73.3653 243.039 74.016C242.74 74.6667 242.292 75.1787 241.695 75.552C241.108 75.9147 240.367 76.096 239.471 76.096ZM239.471 74.896C240.089 74.896 240.591 74.7573 240.975 74.48C241.369 74.2027 241.657 73.8293 241.839 73.36C242.031 72.8907 242.127 72.368 242.127 71.792C242.127 71.216 242.031 70.6933 241.839 70.224C241.657 69.7547 241.369 69.3813 240.975 69.104C240.591 68.8267 240.089 68.688 239.471 68.688C238.863 68.688 238.361 68.8267 237.967 69.104C237.583 69.3813 237.295 69.7547 237.103 70.224C236.921 70.6933 236.831 71.216 236.831 71.792C236.831 72.368 236.921 72.8907 237.103 73.36C237.295 73.8293 237.583 74.2027 237.967 74.48C238.361 74.7573 238.863 74.896 239.471 74.896ZM244.46 76.016V74.832C244.674 74.832 244.866 74.7893 245.036 74.704C245.207 74.608 245.356 74.4693 245.484 74.288C245.634 74.0747 245.751 73.7653 245.836 73.36C245.922 72.9547 245.98 72.5227 246.012 72.064C246.055 71.552 246.087 71.0507 246.108 70.56C246.13 70.0587 246.146 69.5627 246.156 69.072C246.178 68.5813 246.188 68.08 246.188 67.568H252.044V76H250.684V68.768H247.516C247.506 69.1307 247.49 69.4987 247.468 69.872C247.458 70.2347 247.442 70.6027 247.42 70.976C247.41 71.3387 247.394 71.7067 247.372 72.08C247.362 72.5067 247.319 72.9867 247.244 73.52C247.17 74.0533 247.01 74.5387 246.764 74.976C246.53 75.392 246.242 75.6693 245.9 75.808C245.57 75.9467 245.09 76.016 244.46 76.016ZM257.861 76.096C256.976 76.096 256.235 75.9147 255.637 75.552C255.04 75.1787 254.592 74.6667 254.293 74.016C254.005 73.3653 253.861 72.624 253.861 71.792C253.861 70.9493 254.005 70.208 254.293 69.568C254.592 68.9173 255.04 68.4053 255.637 68.032C256.235 67.6587 256.987 67.472 257.893 67.472C258.779 67.472 259.515 67.6587 260.101 68.032C260.699 68.4053 261.141 68.9173 261.429 69.568C261.728 70.208 261.877 70.9493 261.877 71.792C261.877 72.624 261.728 73.3653 261.429 74.016C261.131 74.6667 260.683 75.1787 260.085 75.552C259.499 75.9147 258.757 76.096 257.861 76.096ZM257.861 74.896C258.48 74.896 258.981 74.7573 259.365 74.48C259.76 74.2027 260.048 73.8293 260.229 73.36C260.421 72.8907 260.517 72.368 260.517 71.792C260.517 71.216 260.421 70.6933 260.229 70.224C260.048 69.7547 259.76 69.3813 259.365 69.104C258.981 68.8267 258.48 68.688 257.861 68.688C257.253 68.688 256.752 68.8267 256.357 69.104C255.973 69.3813 255.685 69.7547 255.493 70.224C255.312 70.6933 255.221 71.216 255.221 71.792C255.221 72.368 255.312 72.8907 255.493 73.36C255.685 73.8293 255.973 74.2027 256.357 74.48C256.752 74.7573 257.253 74.896 257.861 74.896ZM262.693 76L265.429 71.584L262.933 67.568H264.389L266.613 71.216H267.877V67.568H269.237V71.216H270.501L272.725 67.568H274.181L271.685 71.584L274.421 76H272.837L270.645 72.368H269.237V76H267.877V72.368H266.469L264.277 76H262.693ZM279.204 76.096C278.308 76.096 277.567 75.9147 276.98 75.552C276.394 75.1787 275.956 74.6667 275.668 74.016C275.38 73.3653 275.236 72.624 275.236 71.792C275.236 70.9493 275.386 70.208 275.684 69.568C275.994 68.9173 276.442 68.4053 277.028 68.032C277.615 67.6587 278.335 67.472 279.188 67.472C279.818 67.472 280.367 67.5947 280.836 67.84C281.316 68.0747 281.711 68.3947 282.02 68.8C282.34 69.2053 282.57 69.6587 282.708 70.16C282.858 70.6613 282.922 71.1787 282.9 71.712C282.89 71.808 282.884 71.904 282.884 72C282.884 72.096 282.879 72.192 282.868 72.288H276.612C276.655 72.7787 276.778 73.2213 276.98 73.616C277.183 74.0107 277.471 74.3253 277.844 74.56C278.218 74.784 278.682 74.896 279.236 74.896C279.514 74.896 279.791 74.864 280.068 74.8C280.356 74.7253 280.612 74.6027 280.836 74.432C281.071 74.2613 281.236 74.032 281.332 73.744H282.724C282.596 74.288 282.356 74.736 282.004 75.088C281.652 75.4293 281.231 75.6853 280.74 75.856C280.25 76.016 279.738 76.096 279.204 76.096ZM276.644 71.104H281.524C281.514 70.624 281.407 70.2027 281.204 69.84C281.002 69.4773 280.724 69.1947 280.372 68.992C280.031 68.7893 279.62 68.688 279.14 68.688C278.618 68.688 278.175 68.8 277.812 69.024C277.46 69.248 277.188 69.5413 276.996 69.904C276.804 70.2667 276.687 70.6667 276.644 71.104ZM284.728 76V67.568H286.088V71.264H290.312V67.568H291.672V76H290.312V72.464H286.088V76H284.728ZM293.822 76V67.568H295.182V74.032C295.257 73.8827 295.358 73.7227 295.486 73.552C295.614 73.3707 295.715 73.232 295.79 73.136L299.87 67.568H301.214V76H299.854V69.536C299.769 69.696 299.673 69.8453 299.566 69.984C299.47 70.1227 299.379 70.2507 299.294 70.368L295.15 76H293.822ZM307.001 76.096C306.105 76.096 305.364 75.9147 304.777 75.552C304.191 75.1787 303.753 74.6667 303.465 74.016C303.177 73.3653 303.033 72.624 303.033 71.792C303.033 70.9493 303.183 70.208 303.481 69.568C303.791 68.9173 304.239 68.4053 304.825 68.032C305.412 67.6587 306.132 67.472 306.985 67.472C307.615 67.472 308.164 67.5947 308.633 67.84C309.113 68.0747 309.508 68.3947 309.817 68.8C310.137 69.2053 310.367 69.6587 310.505 70.16C310.655 70.6613 310.719 71.1787 310.697 71.712C310.687 71.808 310.681 71.904 310.681 72C310.681 72.096 310.676 72.192 310.665 72.288H304.409C304.452 72.7787 304.575 73.2213 304.777 73.616C304.98 74.0107 305.268 74.3253 305.641 74.56C306.015 74.784 306.479 74.896 307.033 74.896C307.311 74.896 307.588 74.864 307.865 74.8C308.153 74.7253 308.409 74.6027 308.633 74.432C308.868 74.2613 309.033 74.032 309.129 73.744H310.521C310.393 74.288 310.153 74.736 309.801 75.088C309.449 75.4293 309.028 75.6853 308.537 75.856C308.047 76.016 307.535 76.096 307.001 76.096ZM304.441 71.104H309.321C309.311 70.624 309.204 70.2027 309.001 69.84C308.799 69.4773 308.521 69.1947 308.169 68.992C307.828 68.7893 307.417 68.688 306.937 68.688C306.415 68.688 305.972 68.8 305.609 69.024C305.257 69.248 304.985 69.5413 304.793 69.904C304.601 70.2667 304.484 70.6667 304.441 71.104ZM106.072 96V87.568H107.432V94.032C107.507 93.8827 107.608 93.7227 107.736 93.552C107.864 93.3707 107.965 93.232 108.04 93.136L112.12 87.568H113.464V96H112.104V89.536C112.019 89.696 111.923 89.8453 111.816 89.984C111.72 90.1227 111.629 90.2507 111.544 90.368L107.4 96H106.072ZM119.388 96L121.58 92.672C120.972 92.5013 120.492 92.224 120.14 91.84C119.788 91.4453 119.612 90.9227 119.612 90.272C119.612 89.76 119.686 89.3333 119.836 88.992C119.985 88.64 120.204 88.3627 120.492 88.16C120.78 87.9467 121.126 87.7973 121.532 87.712C121.937 87.616 122.401 87.568 122.924 87.568H126.316V96H124.956V92.88H123.02L120.972 96H119.388ZM123.948 91.696H124.956V88.768H123.148C122.828 88.768 122.534 88.784 122.268 88.816C122.001 88.848 121.772 88.9173 121.58 89.024C121.398 89.12 121.254 89.264 121.148 89.456C121.041 89.6373 120.988 89.888 120.988 90.208C120.988 90.56 121.073 90.8373 121.244 91.04C121.425 91.2427 121.654 91.392 121.932 91.488C122.22 91.5733 122.54 91.632 122.892 91.664C123.244 91.6853 123.596 91.696 123.948 91.696ZM128.463 99.04V87.568H129.759L129.823 88.864C130.111 88.4053 130.5 88.0587 130.991 87.824C131.492 87.5893 132.031 87.472 132.607 87.472C133.46 87.472 134.159 87.664 134.703 88.048C135.247 88.4213 135.647 88.9333 135.903 89.584C136.169 90.2347 136.303 90.9707 136.303 91.792C136.303 92.6133 136.169 93.3493 135.903 94C135.636 94.6507 135.225 95.1627 134.671 95.536C134.116 95.9093 133.407 96.096 132.543 96.096C132.116 96.096 131.732 96.0533 131.391 95.968C131.049 95.872 130.751 95.7387 130.495 95.568C130.239 95.3973 130.015 95.2053 129.823 94.992V99.04H128.463ZM132.431 94.896C133.049 94.896 133.54 94.7573 133.903 94.48C134.265 94.192 134.527 93.8133 134.687 93.344C134.857 92.8747 134.943 92.3573 134.943 91.792C134.943 91.216 134.857 90.6933 134.687 90.224C134.527 89.7547 134.26 89.3813 133.887 89.104C133.513 88.8267 133.017 88.688 132.399 88.688C131.844 88.688 131.369 88.832 130.975 89.12C130.591 89.3973 130.297 89.776 130.095 90.256C129.892 90.7253 129.791 91.2427 129.791 91.808C129.791 92.3947 129.887 92.9227 130.079 93.392C130.271 93.8613 130.564 94.2293 130.959 94.496C131.353 94.7627 131.844 94.896 132.431 94.896ZM138.056 96V87.568H139.416V91.2H140.888L143.384 87.568H144.936L142.12 91.584L145.176 96H143.576L141.048 92.384H139.416V96H138.056ZM149.877 96.096C148.992 96.096 148.25 95.9147 147.653 95.552C147.056 95.1787 146.608 94.6667 146.309 94.016C146.021 93.3653 145.877 92.624 145.877 91.792C145.877 90.9493 146.021 90.208 146.309 89.568C146.608 88.9173 147.056 88.4053 147.653 88.032C148.25 87.6587 149.002 87.472 149.909 87.472C150.794 87.472 151.53 87.6587 152.117 88.032C152.714 88.4053 153.157 88.9173 153.445 89.568C153.744 90.208 153.893 90.9493 153.893 91.792C153.893 92.624 153.744 93.3653 153.445 94.016C153.146 94.6667 152.698 95.1787 152.101 95.552C151.514 95.9147 150.773 96.096 149.877 96.096ZM149.877 94.896C150.496 94.896 150.997 94.7573 151.381 94.48C151.776 94.2027 152.064 93.8293 152.245 93.36C152.437 92.8907 152.533 92.368 152.533 91.792C152.533 91.216 152.437 90.6933 152.245 90.224C152.064 89.7547 151.776 89.3813 151.381 89.104C150.997 88.8267 150.496 88.688 149.877 88.688C149.269 88.688 148.768 88.8267 148.373 89.104C147.989 89.3813 147.701 89.7547 147.509 90.224C147.328 90.6933 147.237 91.216 147.237 91.792C147.237 92.368 147.328 92.8907 147.509 93.36C147.701 93.8293 147.989 94.2027 148.373 94.48C148.768 94.7573 149.269 94.896 149.877 94.896ZM159.313 96.096C158.427 96.096 157.691 95.9147 157.105 95.552C156.529 95.1787 156.097 94.6667 155.809 94.016C155.531 93.3653 155.393 92.6293 155.393 91.808C155.393 91.008 155.537 90.2827 155.825 89.632C156.123 88.9707 156.571 88.448 157.169 88.064C157.777 87.6693 158.545 87.472 159.473 87.472C160.049 87.472 160.561 87.568 161.009 87.76C161.467 87.952 161.846 88.2347 162.145 88.608C162.443 88.9707 162.651 89.4293 162.769 89.984H161.377C161.217 89.5147 160.961 89.184 160.609 88.992C160.267 88.7893 159.862 88.688 159.393 88.688C158.753 88.688 158.241 88.8373 157.857 89.136C157.473 89.4347 157.19 89.824 157.009 90.304C156.838 90.7733 156.753 91.2747 156.753 91.808C156.753 92.3627 156.843 92.8747 157.025 93.344C157.206 93.8133 157.489 94.192 157.873 94.48C158.257 94.7573 158.753 94.896 159.361 94.896C159.809 94.896 160.23 94.8 160.625 94.608C161.03 94.416 161.297 94.0747 161.425 93.584H162.833C162.726 94.16 162.497 94.6347 162.145 95.008C161.803 95.3813 161.382 95.6587 160.881 95.84C160.39 96.0107 159.867 96.096 159.313 96.096ZM166.524 96V88.768H163.628V87.568H170.78V88.768H167.884V96H166.524ZM171.994 96V87.568H173.386V90.784H175.242C175.743 90.784 176.191 90.8267 176.586 90.912C176.991 90.9867 177.338 91.12 177.626 91.312C177.914 91.504 178.133 91.7653 178.282 92.096C178.442 92.416 178.522 92.8267 178.522 93.328C178.522 93.7867 178.442 94.1867 178.282 94.528C178.122 94.8587 177.898 95.136 177.61 95.36C177.322 95.5733 176.975 95.7333 176.57 95.84C176.175 95.9467 175.738 96 175.258 96H171.994ZM173.386 94.816H174.186C174.559 94.816 174.917 94.8053 175.258 94.784C175.61 94.7627 175.93 94.7093 176.218 94.624C176.506 94.5387 176.73 94.4 176.89 94.208C177.061 94.0053 177.146 93.728 177.146 93.376C177.146 93.0347 177.077 92.7733 176.938 92.592C176.81 92.4 176.639 92.2613 176.426 92.176C176.213 92.08 175.978 92.0213 175.722 92C175.477 91.9787 175.231 91.968 174.986 91.968H173.386V94.816ZM188.203 96.096C187.318 96.096 186.582 95.9147 185.995 95.552C185.419 95.1787 184.987 94.6667 184.699 94.016C184.422 93.3653 184.283 92.6293 184.283 91.808C184.283 91.008 184.427 90.2827 184.715 89.632C185.014 88.9707 185.462 88.448 186.059 88.064C186.667 87.6693 187.435 87.472 188.363 87.472C188.939 87.472 189.451 87.568 189.899 87.76C190.358 87.952 190.737 88.2347 191.035 88.608C191.334 88.9707 191.542 89.4293 191.659 89.984H190.267C190.107 89.5147 189.851 89.184 189.499 88.992C189.158 88.7893 188.753 88.688 188.283 88.688C187.643 88.688 187.131 88.8373 186.747 89.136C186.363 89.4347 186.081 89.824 185.899 90.304C185.729 90.7733 185.643 91.2747 185.643 91.808C185.643 92.3627 185.734 92.8747 185.915 93.344C186.097 93.8133 186.379 94.192 186.763 94.48C187.147 94.7573 187.643 94.896 188.251 94.896C188.699 94.896 189.121 94.8 189.515 94.608C189.921 94.416 190.187 94.0747 190.315 93.584H191.723C191.617 94.16 191.387 94.6347 191.035 95.008C190.694 95.3813 190.273 95.6587 189.771 95.84C189.281 96.0107 188.758 96.096 188.203 96.096ZM197.127 96.096C196.242 96.096 195.5 95.9147 194.903 95.552C194.306 95.1787 193.858 94.6667 193.559 94.016C193.271 93.3653 193.127 92.624 193.127 91.792C193.127 90.9493 193.271 90.208 193.559 89.568C193.858 88.9173 194.306 88.4053 194.903 88.032C195.5 87.6587 196.252 87.472 197.159 87.472C198.044 87.472 198.78 87.6587 199.367 88.032C199.964 88.4053 200.407 88.9173 200.695 89.568C200.994 90.208 201.143 90.9493 201.143 91.792C201.143 92.624 200.994 93.3653 200.695 94.016C200.396 94.6667 199.948 95.1787 199.351 95.552C198.764 95.9147 198.023 96.096 197.127 96.096ZM197.127 94.896C197.746 94.896 198.247 94.7573 198.631 94.48C199.026 94.2027 199.314 93.8293 199.495 93.36C199.687 92.8907 199.783 92.368 199.783 91.792C199.783 91.216 199.687 90.6933 199.495 90.224C199.314 89.7547 199.026 89.3813 198.631 89.104C198.247 88.8267 197.746 88.688 197.127 88.688C196.519 88.688 196.018 88.8267 195.623 89.104C195.239 89.3813 194.951 89.7547 194.759 90.224C194.578 90.6933 194.487 91.216 194.487 91.792C194.487 92.368 194.578 92.8907 194.759 93.36C194.951 93.8293 195.239 94.2027 195.623 94.48C196.018 94.7573 196.519 94.896 197.127 94.896ZM202.117 96.016V94.832C202.33 94.832 202.522 94.7893 202.693 94.704C202.863 94.608 203.013 94.4693 203.141 94.288C203.29 94.0747 203.407 93.7653 203.493 93.36C203.578 92.9547 203.637 92.5227 203.669 92.064C203.711 91.552 203.743 91.0507 203.765 90.56C203.786 90.0587 203.802 89.5627 203.812 89.072C203.834 88.5813 203.845 88.08 203.845 87.568H209.701V96H208.341V88.768H205.173C205.162 89.1307 205.146 89.4987 205.125 89.872C205.114 90.2347 205.098 90.6027 205.077 90.976C205.066 91.3387 205.05 91.7067 205.029 92.08C205.018 92.5067 204.975 92.9867 204.901 93.52C204.826 94.0533 204.666 94.5387 204.421 94.976C204.186 95.392 203.898 95.6693 203.557 95.808C203.226 95.9467 202.746 96.016 202.117 96.016ZM211.838 96V87.568H213.198V91.264H217.422V87.568H218.782V96H217.422V92.464H213.198V96H211.838ZM227.523 98.592V96H220.931V87.568H222.291V94.816H226.371V87.568H227.747V94.816H228.851V98.592H227.523ZM232.979 96.096C232.595 96.096 232.222 96.048 231.859 95.952C231.507 95.8453 231.187 95.6907 230.899 95.488C230.622 95.2747 230.398 95.0133 230.227 94.704C230.067 94.384 229.987 94.016 229.987 93.6C229.987 93.12 230.072 92.7147 230.243 92.384C230.424 92.0533 230.664 91.792 230.963 91.6C231.262 91.408 231.608 91.2693 232.003 91.184C232.398 91.0987 232.808 91.056 233.235 91.056H235.715C235.715 90.576 235.646 90.16 235.507 89.808C235.379 89.456 235.166 89.184 234.867 88.992C234.568 88.7893 234.174 88.688 233.683 88.688C233.384 88.688 233.107 88.72 232.851 88.784C232.595 88.848 232.376 88.9493 232.195 89.088C232.014 89.2267 231.88 89.4133 231.795 89.648H230.339C230.414 89.264 230.558 88.9387 230.771 88.672C230.995 88.3947 231.262 88.1707 231.571 88C231.891 87.8187 232.232 87.6853 232.595 87.6C232.958 87.5147 233.32 87.472 233.683 87.472C234.494 87.472 235.144 87.6373 235.635 87.968C236.126 88.288 236.483 88.7467 236.707 89.344C236.931 89.9307 237.043 90.6293 237.043 91.44V96H235.907L235.827 94.928C235.592 95.248 235.31 95.4933 234.979 95.664C234.648 95.8347 234.307 95.9467 233.955 96C233.614 96.064 233.288 96.096 232.979 96.096ZM233.107 94.896C233.64 94.896 234.099 94.8107 234.483 94.64C234.878 94.4587 235.182 94.1973 235.395 93.856C235.608 93.5147 235.715 93.0987 235.715 92.608V92.192H234.227C233.875 92.192 233.528 92.1973 233.187 92.208C232.846 92.2187 232.536 92.2613 232.259 92.336C231.982 92.4107 231.758 92.5387 231.587 92.72C231.427 92.9013 231.347 93.1627 231.347 93.504C231.347 93.824 231.427 94.0853 231.587 94.288C231.758 94.4907 231.976 94.6453 232.243 94.752C232.52 94.848 232.808 94.896 233.107 94.896ZM247.143 96.096C246.257 96.096 245.516 95.9147 244.919 95.552C244.321 95.1787 243.873 94.6667 243.575 94.016C243.287 93.3653 243.143 92.624 243.143 91.792C243.143 90.9493 243.287 90.208 243.575 89.568C243.873 88.9173 244.321 88.4053 244.919 88.032C245.516 87.6587 246.268 87.472 247.175 87.472C248.06 87.472 248.796 87.6587 249.383 88.032C249.98 88.4053 250.423 88.9173 250.711 89.568C251.009 90.208 251.159 90.9493 251.159 91.792C251.159 92.624 251.009 93.3653 250.711 94.016C250.412 94.6667 249.964 95.1787 249.367 95.552C248.78 95.9147 248.039 96.096 247.143 96.096ZM247.143 94.896C247.761 94.896 248.263 94.7573 248.647 94.48C249.041 94.2027 249.329 93.8293 249.511 93.36C249.703 92.8907 249.799 92.368 249.799 91.792C249.799 91.216 249.703 90.6933 249.511 90.224C249.329 89.7547 249.041 89.3813 248.647 89.104C248.263 88.8267 247.761 88.688 247.143 88.688C246.535 88.688 246.033 88.8267 245.639 89.104C245.255 89.3813 244.967 89.7547 244.775 90.224C244.593 90.6933 244.503 91.216 244.503 91.792C244.503 92.368 244.593 92.8907 244.775 93.36C244.967 93.8293 245.255 94.2027 245.639 94.48C246.033 94.7573 246.535 94.896 247.143 94.896ZM254.946 96V88.768H252.05V87.568H259.202V88.768H256.306V96H254.946ZM264.728 96V87.568H267.992C268.366 87.568 268.734 87.5947 269.096 87.648C269.47 87.6907 269.806 87.7867 270.104 87.936C270.414 88.0747 270.659 88.2827 270.84 88.56C271.032 88.8373 271.128 89.2053 271.128 89.664C271.128 89.9413 271.086 90.1973 271 90.432C270.915 90.656 270.787 90.8533 270.616 91.024C270.456 91.1947 270.248 91.344 269.992 91.472C270.568 91.6 270.984 91.8507 271.24 92.224C271.496 92.5973 271.624 93.024 271.624 93.504C271.624 93.9307 271.544 94.304 271.384 94.624C271.235 94.9333 271.022 95.1893 270.744 95.392C270.478 95.5947 270.163 95.7493 269.8 95.856C269.448 95.952 269.07 96 268.664 96H264.728ZM266.12 94.816H268.344C268.675 94.816 268.984 94.784 269.272 94.72C269.56 94.656 269.795 94.5387 269.976 94.368C270.158 94.1867 270.248 93.9307 270.248 93.6C270.248 93.2587 270.168 93.0027 270.008 92.832C269.859 92.6507 269.662 92.528 269.416 92.464C269.182 92.3893 268.926 92.3467 268.648 92.336C268.371 92.3253 268.11 92.32 267.864 92.32H266.12V94.816ZM266.12 91.168H267.288C267.502 91.168 267.747 91.1573 268.024 91.136C268.312 91.1147 268.59 91.0667 268.856 90.992C269.134 90.9067 269.358 90.7787 269.528 90.608C269.71 90.4373 269.8 90.2027 269.8 89.904C269.8 89.5093 269.688 89.2373 269.464 89.088C269.251 88.928 268.995 88.8373 268.696 88.816C268.398 88.784 268.12 88.768 267.864 88.768H266.12V91.168ZM273.478 99.04V87.568H274.774L274.838 88.864C275.126 88.4053 275.516 88.0587 276.006 87.824C276.508 87.5893 277.046 87.472 277.622 87.472C278.476 87.472 279.174 87.664 279.718 88.048C280.262 88.4213 280.662 88.9333 280.918 89.584C281.185 90.2347 281.318 90.9707 281.318 91.792C281.318 92.6133 281.185 93.3493 280.918 94C280.652 94.6507 280.241 95.1627 279.686 95.536C279.132 95.9093 278.422 96.096 277.558 96.096C277.132 96.096 276.748 96.0533 276.406 95.968C276.065 95.872 275.766 95.7387 275.51 95.568C275.254 95.3973 275.03 95.2053 274.838 94.992V99.04H273.478ZM277.446 94.896C278.065 94.896 278.556 94.7573 278.918 94.48C279.281 94.192 279.542 93.8133 279.702 93.344C279.873 92.8747 279.958 92.3573 279.958 91.792C279.958 91.216 279.873 90.6933 279.702 90.224C279.542 89.7547 279.276 89.3813 278.902 89.104C278.529 88.8267 278.033 88.688 277.414 88.688C276.86 88.688 276.385 88.832 275.99 89.12C275.606 89.3973 275.313 89.776 275.11 90.256C274.908 90.7253 274.806 91.2427 274.806 91.808C274.806 92.3947 274.902 92.9227 275.094 93.392C275.286 93.8613 275.58 94.2293 275.974 94.496C276.369 94.7627 276.86 94.896 277.446 94.896ZM286.72 96.096C285.824 96.096 285.083 95.9147 284.496 95.552C283.909 95.1787 283.472 94.6667 283.184 94.016C282.896 93.3653 282.752 92.624 282.752 91.792C282.752 90.9493 282.901 90.208 283.2 89.568C283.509 88.9173 283.957 88.4053 284.544 88.032C285.131 87.6587 285.851 87.472 286.704 87.472C287.333 87.472 287.883 87.5947 288.352 87.84C288.832 88.0747 289.227 88.3947 289.536 88.8C289.856 89.2053 290.085 89.6587 290.224 90.16C290.373 90.6613 290.437 91.1787 290.416 91.712C290.405 91.808 290.4 91.904 290.4 92C290.4 92.096 290.395 92.192 290.384 92.288H284.128C284.171 92.7787 284.293 93.2213 284.496 93.616C284.699 94.0107 284.987 94.3253 285.36 94.56C285.733 94.784 286.197 94.896 286.752 94.896C287.029 94.896 287.307 94.864 287.584 94.8C287.872 94.7253 288.128 94.6027 288.352 94.432C288.587 94.2613 288.752 94.032 288.848 93.744H290.24C290.112 94.288 289.872 94.736 289.52 95.088C289.168 95.4293 288.747 95.6853 288.256 95.856C287.765 96.016 287.253 96.096 286.72 96.096ZM284.16 91.104H289.04C289.029 90.624 288.923 90.2027 288.72 89.84C288.517 89.4773 288.24 89.1947 287.888 88.992C287.547 88.7893 287.136 88.688 286.656 88.688C286.133 88.688 285.691 88.8 285.328 89.024C284.976 89.248 284.704 89.5413 284.512 89.904C284.32 90.2667 284.203 90.6667 284.16 91.104ZM292.244 96V87.568H294.068L296.804 91.792L299.492 87.568H301.284V96H299.94V89.072L296.964 93.84H296.58L293.588 89.072V96H292.244ZM307.079 96.096C306.183 96.096 305.442 95.9147 304.855 95.552C304.269 95.1787 303.831 94.6667 303.543 94.016C303.255 93.3653 303.111 92.624 303.111 91.792C303.111 90.9493 303.261 90.208 303.559 89.568C303.869 88.9173 304.317 88.4053 304.903 88.032C305.49 87.6587 306.21 87.472 307.063 87.472C307.693 87.472 308.242 87.5947 308.711 87.84C309.191 88.0747 309.586 88.3947 309.895 88.8C310.215 89.2053 310.445 89.6587 310.583 90.16C310.733 90.6613 310.797 91.1787 310.775 91.712C310.765 91.808 310.759 91.904 310.759 92C310.759 92.096 310.754 92.192 310.743 92.288H304.487C304.53 92.7787 304.653 93.2213 304.855 93.616C305.058 94.0107 305.346 94.3253 305.719 94.56C306.093 94.784 306.557 94.896 307.111 94.896C307.389 94.896 307.666 94.864 307.943 94.8C308.231 94.7253 308.487 94.6027 308.711 94.432C308.946 94.2613 309.111 94.032 309.207 93.744H310.599C310.471 94.288 310.231 94.736 309.879 95.088C309.527 95.4293 309.106 95.6853 308.615 95.856C308.125 96.016 307.613 96.096 307.079 96.096ZM304.519 91.104H309.399C309.389 90.624 309.282 90.2027 309.079 89.84C308.877 89.4773 308.599 89.1947 308.247 88.992C307.906 88.7893 307.495 88.688 307.015 88.688C306.493 88.688 306.05 88.8 305.687 89.024C305.335 89.248 305.063 89.5413 304.871 89.904C304.679 90.2667 304.562 90.6667 304.519 91.104ZM312.603 96V87.568H313.963V91.264H318.187V87.568H319.547V96H318.187V92.464H313.963V96H312.603ZM321.697 96V87.568H323.057V94.032C323.132 93.8827 323.233 93.7227 323.361 93.552C323.489 93.3707 323.59 93.232 323.665 93.136L327.745 87.568H329.089V96H327.729V89.536C327.644 89.696 327.548 89.8453 327.441 89.984C327.345 90.1227 327.254 90.2507 327.169 90.368L323.025 96H321.697ZM109.672 116.096C108.787 116.096 108.051 115.915 107.464 115.552C106.888 115.179 106.456 114.667 106.168 114.016C105.891 113.365 105.752 112.629 105.752 111.808C105.752 111.008 105.896 110.283 106.184 109.632C106.483 108.971 106.931 108.448 107.528 108.064C108.136 107.669 108.904 107.472 109.832 107.472C110.408 107.472 110.92 107.568 111.368 107.76C111.827 107.952 112.205 108.235 112.504 108.608C112.803 108.971 113.011 109.429 113.128 109.984H111.736C111.576 109.515 111.32 109.184 110.968 108.992C110.627 108.789 110.221 108.688 109.752 108.688C109.112 108.688 108.6 108.837 108.216 109.136C107.832 109.435 107.549 109.824 107.368 110.304C107.197 110.773 107.112 111.275 107.112 111.808C107.112 112.363 107.203 112.875 107.384 113.344C107.565 113.813 107.848 114.192 108.232 114.48C108.616 114.757 109.112 114.896 109.72 114.896C110.168 114.896 110.589 114.8 110.984 114.608C111.389 114.416 111.656 114.075 111.784 113.584H113.192C113.085 114.16 112.856 114.635 112.504 115.008C112.163 115.381 111.741 115.659 111.24 115.84C110.749 116.011 110.227 116.096 109.672 116.096ZM115.188 119.616V118.32C115.71 118.32 116.126 118.245 116.436 118.096C116.745 117.957 117.001 117.733 117.204 117.424C117.417 117.125 117.62 116.741 117.812 116.272L114.116 107.568H115.716L118.564 114.672L120.9 107.568H122.436L120.068 114.208C119.95 114.549 119.817 114.933 119.668 115.36C119.518 115.787 119.353 116.219 119.172 116.656C118.99 117.104 118.788 117.515 118.564 117.888C118.35 118.272 118.11 118.581 117.844 118.816C117.62 119.019 117.401 119.179 117.188 119.296C116.974 119.413 116.713 119.493 116.404 119.536C116.105 119.589 115.7 119.616 115.188 119.616ZM125.821 116V108.768H122.925V107.568H130.077V108.768H127.181V116H125.821ZM134.971 116.096C134.085 116.096 133.344 115.915 132.747 115.552C132.149 115.179 131.701 114.667 131.403 114.016C131.115 113.365 130.971 112.624 130.971 111.792C130.971 110.949 131.115 110.208 131.403 109.568C131.701 108.917 132.149 108.405 132.747 108.032C133.344 107.659 134.096 107.472 135.003 107.472C135.888 107.472 136.624 107.659 137.211 108.032C137.808 108.405 138.251 108.917 138.539 109.568C138.837 110.208 138.987 110.949 138.987 111.792C138.987 112.624 138.837 113.365 138.539 114.016C138.24 114.667 137.792 115.179 137.195 115.552C136.608 115.915 135.867 116.096 134.971 116.096ZM134.971 114.896C135.589 114.896 136.091 114.757 136.475 114.48C136.869 114.203 137.157 113.829 137.339 113.36C137.531 112.891 137.627 112.368 137.627 111.792C137.627 111.216 137.531 110.693 137.339 110.224C137.157 109.755 136.869 109.381 136.475 109.104C136.091 108.827 135.589 108.688 134.971 108.688C134.363 108.688 133.861 108.827 133.467 109.104C133.083 109.381 132.795 109.755 132.603 110.224C132.421 110.693 132.331 111.216 132.331 111.792C132.331 112.368 132.421 112.891 132.603 113.36C132.795 113.829 133.083 114.203 133.467 114.48C133.861 114.757 134.363 114.896 134.971 114.896ZM140.806 116V107.568H142.166V111.2H143.638L146.134 107.568H147.686L144.87 111.584L147.926 116H146.326L143.798 112.384H142.166V116H140.806ZM150.063 116.128C149.786 116.128 149.557 116.037 149.375 115.856C149.194 115.675 149.103 115.445 149.103 115.168C149.103 114.891 149.194 114.661 149.375 114.48C149.557 114.299 149.786 114.208 150.063 114.208C150.341 114.208 150.57 114.299 150.751 114.48C150.933 114.661 151.023 114.891 151.023 115.168C151.023 115.445 150.933 115.675 150.751 115.856C150.57 116.037 150.341 116.128 150.063 116.128ZM157.314 116V104.688H166.21V116H164.818V105.952H158.706V116H157.314ZM172.361 116.096C171.476 116.096 170.735 115.915 170.137 115.552C169.54 115.179 169.092 114.667 168.793 114.016C168.505 113.365 168.361 112.624 168.361 111.792C168.361 110.949 168.505 110.208 168.793 109.568C169.092 108.917 169.54 108.405 170.137 108.032C170.735 107.659 171.487 107.472 172.393 107.472C173.279 107.472 174.015 107.659 174.601 108.032C175.199 108.405 175.641 108.917 175.929 109.568C176.228 110.208 176.377 110.949 176.377 111.792C176.377 112.624 176.228 113.365 175.929 114.016C175.631 114.667 175.183 115.179 174.585 115.552C173.999 115.915 173.257 116.096 172.361 116.096ZM172.361 114.896C172.98 114.896 173.481 114.757 173.865 114.48C174.26 114.203 174.548 113.829 174.729 113.36C174.921 112.891 175.017 112.368 175.017 111.792C175.017 111.216 174.921 110.693 174.729 110.224C174.548 109.755 174.26 109.381 173.865 109.104C173.481 108.827 172.98 108.688 172.361 108.688C171.753 108.688 171.252 108.827 170.857 109.104C170.473 109.381 170.185 109.755 169.993 110.224C169.812 110.693 169.721 111.216 169.721 111.792C169.721 112.368 169.812 112.891 169.993 113.36C170.185 113.829 170.473 114.203 170.857 114.48C171.252 114.757 171.753 114.896 172.361 114.896ZM178.197 116V107.568H179.557V111.2H181.029L183.525 107.568H185.077L182.261 111.584L185.317 116H183.717L181.189 112.384H179.557V116H178.197ZM189.042 116.096C188.658 116.096 188.284 116.048 187.922 115.952C187.57 115.845 187.25 115.691 186.962 115.488C186.684 115.275 186.46 115.013 186.29 114.704C186.13 114.384 186.05 114.016 186.05 113.6C186.05 113.12 186.135 112.715 186.306 112.384C186.487 112.053 186.727 111.792 187.026 111.6C187.324 111.408 187.671 111.269 188.066 111.184C188.46 111.099 188.871 111.056 189.298 111.056H191.778C191.778 110.576 191.708 110.16 191.57 109.808C191.442 109.456 191.228 109.184 190.93 108.992C190.631 108.789 190.236 108.688 189.746 108.688C189.447 108.688 189.17 108.72 188.914 108.784C188.658 108.848 188.439 108.949 188.258 109.088C188.076 109.227 187.943 109.413 187.858 109.648H186.402C186.476 109.264 186.62 108.939 186.834 108.672C187.058 108.395 187.324 108.171 187.634 108C187.954 107.819 188.295 107.685 188.658 107.6C189.02 107.515 189.383 107.472 189.746 107.472C190.556 107.472 191.207 107.637 191.698 107.968C192.188 108.288 192.546 108.747 192.77 109.344C192.994 109.931 193.106 110.629 193.106 111.44V116H191.97L191.89 114.928C191.655 115.248 191.372 115.493 191.042 115.664C190.711 115.835 190.37 115.947 190.018 116C189.676 116.064 189.351 116.096 189.042 116.096ZM189.17 114.896C189.703 114.896 190.162 114.811 190.546 114.64C190.94 114.459 191.244 114.197 191.458 113.856C191.671 113.515 191.778 113.099 191.778 112.608V112.192H190.29C189.938 112.192 189.591 112.197 189.25 112.208C188.908 112.219 188.599 112.261 188.322 112.336C188.044 112.411 187.82 112.539 187.65 112.72C187.49 112.901 187.41 113.163 187.41 113.504C187.41 113.824 187.49 114.085 187.65 114.288C187.82 114.491 188.039 114.645 188.306 114.752C188.583 114.848 188.871 114.896 189.17 114.896ZM202.229 116.096C201.845 116.096 201.472 116.048 201.109 115.952C200.757 115.845 200.437 115.691 200.149 115.488C199.872 115.275 199.648 115.013 199.477 114.704C199.317 114.384 199.237 114.016 199.237 113.6C199.237 113.12 199.322 112.715 199.493 112.384C199.674 112.053 199.914 111.792 200.213 111.6C200.512 111.408 200.858 111.269 201.253 111.184C201.648 111.099 202.058 111.056 202.485 111.056H204.965C204.965 110.576 204.896 110.16 204.757 109.808C204.629 109.456 204.416 109.184 204.117 108.992C203.818 108.789 203.424 108.688 202.933 108.688C202.634 108.688 202.357 108.72 202.101 108.784C201.845 108.848 201.626 108.949 201.445 109.088C201.264 109.227 201.13 109.413 201.045 109.648H199.589C199.664 109.264 199.808 108.939 200.021 108.672C200.245 108.395 200.512 108.171 200.821 108C201.141 107.819 201.482 107.685 201.845 107.6C202.208 107.515 202.57 107.472 202.933 107.472C203.744 107.472 204.394 107.637 204.885 107.968C205.376 108.288 205.733 108.747 205.957 109.344C206.181 109.931 206.293 110.629 206.293 111.44V116H205.157L205.077 114.928C204.842 115.248 204.56 115.493 204.229 115.664C203.898 115.835 203.557 115.947 203.205 116C202.864 116.064 202.538 116.096 202.229 116.096ZM202.357 114.896C202.89 114.896 203.349 114.811 203.733 114.64C204.128 114.459 204.432 114.197 204.645 113.856C204.858 113.515 204.965 113.099 204.965 112.608V112.192H203.477C203.125 112.192 202.778 112.197 202.437 112.208C202.096 112.219 201.786 112.261 201.509 112.336C201.232 112.411 201.008 112.539 200.837 112.72C200.677 112.901 200.597 113.163 200.597 113.504C200.597 113.824 200.677 114.085 200.837 114.288C201.008 114.491 201.226 114.645 201.493 114.752C201.77 114.848 202.058 114.896 202.357 114.896ZM208.4 116V107.568H209.76V111.2H211.232L213.728 107.568H215.28L212.464 111.584L215.52 116H213.92L211.392 112.384H209.76V116H208.4ZM218.665 116V108.768H215.769V107.568H222.921V108.768H220.025V116H218.665ZM224.135 116V107.568H225.495V114.032C225.569 113.883 225.671 113.723 225.799 113.552C225.927 113.371 226.028 113.232 226.103 113.136L230.183 107.568H231.527V116H230.167V109.536C230.081 109.696 229.985 109.845 229.879 109.984C229.783 110.123 229.692 110.251 229.607 110.368L225.463 116H224.135ZM233.666 116V107.568H236.93C237.303 107.568 237.671 107.595 238.034 107.648C238.407 107.691 238.743 107.787 239.042 107.936C239.351 108.075 239.596 108.283 239.778 108.56C239.97 108.837 240.066 109.205 240.066 109.664C240.066 109.941 240.023 110.197 239.938 110.432C239.852 110.656 239.724 110.853 239.554 111.024C239.394 111.195 239.186 111.344 238.93 111.472C239.506 111.6 239.922 111.851 240.178 112.224C240.434 112.597 240.562 113.024 240.562 113.504C240.562 113.931 240.482 114.304 240.322 114.624C240.172 114.933 239.959 115.189 239.682 115.392C239.415 115.595 239.1 115.749 238.738 115.856C238.386 115.952 238.007 116 237.602 116H233.666ZM235.058 114.816H237.282C237.612 114.816 237.922 114.784 238.21 114.72C238.498 114.656 238.732 114.539 238.914 114.368C239.095 114.187 239.186 113.931 239.186 113.6C239.186 113.259 239.106 113.003 238.946 112.832C238.796 112.651 238.599 112.528 238.354 112.464C238.119 112.389 237.863 112.347 237.586 112.336C237.308 112.325 237.047 112.32 236.802 112.32H235.058V114.816ZM235.058 111.168H236.226C236.439 111.168 236.684 111.157 236.962 111.136C237.25 111.115 237.527 111.067 237.794 110.992C238.071 110.907 238.295 110.779 238.466 110.608C238.647 110.437 238.738 110.203 238.738 109.904C238.738 109.509 238.626 109.237 238.402 109.088C238.188 108.928 237.932 108.837 237.634 108.816C237.335 108.784 237.058 108.768 236.802 108.768H235.058V111.168ZM246.064 116.096C245.168 116.096 244.426 115.915 243.84 115.552C243.253 115.179 242.816 114.667 242.528 114.016C242.24 113.365 242.096 112.624 242.096 111.792C242.096 110.949 242.245 110.208 242.544 109.568C242.853 108.917 243.301 108.405 243.888 108.032C244.474 107.659 245.194 107.472 246.048 107.472C246.677 107.472 247.226 107.595 247.696 107.84C248.176 108.075 248.57 108.395 248.88 108.8C249.2 109.205 249.429 109.659 249.568 110.16C249.717 110.661 249.781 111.179 249.76 111.712C249.749 111.808 249.744 111.904 249.744 112C249.744 112.096 249.738 112.192 249.728 112.288H243.472C243.514 112.779 243.637 113.221 243.84 113.616C244.042 114.011 244.33 114.325 244.704 114.56C245.077 114.784 245.541 114.896 246.096 114.896C246.373 114.896 246.65 114.864 246.928 114.8C247.216 114.725 247.472 114.603 247.696 114.432C247.93 114.261 248.096 114.032 248.192 113.744H249.584C249.456 114.288 249.216 114.736 248.864 115.088C248.512 115.429 248.09 115.685 247.6 115.856C247.109 116.016 246.597 116.096 246.064 116.096ZM243.504 111.104H248.384C248.373 110.624 248.266 110.203 248.064 109.84C247.861 109.477 247.584 109.195 247.232 108.992C246.89 108.789 246.48 108.688 246 108.688C245.477 108.688 245.034 108.8 244.672 109.024C244.32 109.248 244.048 109.541 243.856 109.904C243.664 110.267 243.546 110.667 243.504 111.104ZM251.588 116V107.568H252.948V111.264H257.172V107.568H258.532V116H257.172V112.464H252.948V116H251.588ZM264.994 116V107.568H271.986V116H270.626V108.768H266.354V116H264.994ZM277.815 116.096C276.929 116.096 276.188 115.915 275.591 115.552C274.993 115.179 274.545 114.667 274.247 114.016C273.959 113.365 273.815 112.624 273.815 111.792C273.815 110.949 273.959 110.208 274.247 109.568C274.545 108.917 274.993 108.405 275.591 108.032C276.188 107.659 276.94 107.472 277.847 107.472C278.732 107.472 279.468 107.659 280.055 108.032C280.652 108.405 281.095 108.917 281.383 109.568C281.681 110.208 281.831 110.949 281.831 111.792C281.831 112.624 281.681 113.365 281.383 114.016C281.084 114.667 280.636 115.179 280.039 115.552C279.452 115.915 278.711 116.096 277.815 116.096ZM277.815 114.896C278.433 114.896 278.935 114.757 279.319 114.48C279.713 114.203 280.001 113.829 280.183 113.36C280.375 112.891 280.471 112.368 280.471 111.792C280.471 111.216 280.375 110.693 280.183 110.224C280.001 109.755 279.713 109.381 279.319 109.104C278.935 108.827 278.433 108.688 277.815 108.688C277.207 108.688 276.705 108.827 276.311 109.104C275.927 109.381 275.639 109.755 275.447 110.224C275.265 110.693 275.174 111.216 275.174 111.792C275.174 112.368 275.265 112.891 275.447 113.36C275.639 113.829 275.927 114.203 276.311 114.48C276.705 114.757 277.207 114.896 277.815 114.896ZM282.804 116.016V114.832C283.017 114.832 283.209 114.789 283.38 114.704C283.551 114.608 283.7 114.469 283.828 114.288C283.977 114.075 284.095 113.765 284.18 113.36C284.265 112.955 284.324 112.523 284.356 112.064C284.399 111.552 284.431 111.051 284.452 110.56C284.473 110.059 284.489 109.563 284.5 109.072C284.521 108.581 284.532 108.08 284.532 107.568H290.388V116H289.028V108.768H285.86C285.849 109.131 285.833 109.499 285.812 109.872C285.801 110.235 285.785 110.603 285.764 110.976C285.753 111.339 285.737 111.707 285.716 112.08C285.705 112.507 285.663 112.987 285.588 113.52C285.513 114.053 285.353 114.539 285.108 114.976C284.873 115.392 284.585 115.669 284.244 115.808C283.913 115.947 283.433 116.016 282.804 116.016ZM295.581 116.096C295.176 116.096 294.77 116.059 294.365 115.984C293.96 115.909 293.581 115.787 293.229 115.616C292.888 115.435 292.61 115.195 292.397 114.896C292.184 114.587 292.066 114.203 292.045 113.744H293.373C293.426 114.032 293.581 114.261 293.837 114.432C294.093 114.603 294.381 114.725 294.701 114.8C295.032 114.864 295.325 114.896 295.581 114.896C295.88 114.896 296.184 114.864 296.493 114.8C296.813 114.736 297.08 114.608 297.293 114.416C297.517 114.224 297.629 113.941 297.629 113.568C297.629 113.205 297.538 112.939 297.357 112.768C297.186 112.597 296.957 112.485 296.669 112.432C296.392 112.379 296.088 112.352 295.757 112.352H294.253V111.152H295.485C295.688 111.152 295.896 111.136 296.109 111.104C296.322 111.061 296.52 110.997 296.701 110.912C296.882 110.816 297.026 110.683 297.133 110.512C297.25 110.341 297.309 110.123 297.309 109.856C297.309 109.557 297.224 109.323 297.053 109.152C296.882 108.981 296.664 108.864 296.397 108.8C296.13 108.725 295.858 108.688 295.581 108.688C295.325 108.688 295.053 108.715 294.765 108.768C294.488 108.821 294.248 108.928 294.045 109.088C293.842 109.237 293.72 109.461 293.677 109.76H292.333C292.354 109.184 292.53 108.731 292.861 108.4C293.192 108.069 293.602 107.835 294.093 107.696C294.584 107.547 295.074 107.472 295.565 107.472C295.938 107.472 296.306 107.509 296.669 107.584C297.032 107.659 297.362 107.787 297.661 107.968C297.96 108.139 298.194 108.368 298.365 108.656C298.546 108.944 298.637 109.301 298.637 109.728C298.637 110.112 298.546 110.453 298.365 110.752C298.184 111.051 297.906 111.291 297.533 111.472C298.077 111.643 298.456 111.909 298.669 112.272C298.882 112.635 298.989 113.067 298.989 113.568C298.989 114.016 298.893 114.4 298.701 114.72C298.509 115.029 298.248 115.291 297.917 115.504C297.597 115.707 297.234 115.856 296.829 115.952C296.424 116.048 296.008 116.096 295.581 116.096ZM301.016 119.616V118.32C301.539 118.32 301.955 118.245 302.264 118.096C302.573 117.957 302.829 117.733 303.032 117.424C303.245 117.125 303.448 116.741 303.64 116.272L299.944 107.568H301.544L304.392 114.672L306.728 107.568H308.264L305.896 114.208C305.779 114.549 305.645 114.933 305.496 115.36C305.347 115.787 305.181 116.219 305 116.656C304.819 117.104 304.616 117.515 304.392 117.888C304.179 118.272 303.939 118.581 303.672 118.816C303.448 119.019 303.229 119.179 303.016 119.296C302.803 119.413 302.541 119.493 302.232 119.536C301.933 119.589 301.528 119.616 301.016 119.616ZM309.525 116V107.568H310.885V111.264H315.109V107.568H316.469V116H315.109V112.464H310.885V116H309.525ZM322.299 116.096C321.414 116.096 320.672 115.915 320.075 115.552C319.478 115.179 319.03 114.667 318.731 114.016C318.443 113.365 318.299 112.624 318.299 111.792C318.299 110.949 318.443 110.208 318.731 109.568C319.03 108.917 319.478 108.405 320.075 108.032C320.672 107.659 321.424 107.472 322.331 107.472C323.216 107.472 323.952 107.659 324.539 108.032C325.136 108.405 325.579 108.917 325.867 109.568C326.166 110.208 326.315 110.949 326.315 111.792C326.315 112.624 326.166 113.365 325.867 114.016C325.568 114.667 325.12 115.179 324.523 115.552C323.936 115.915 323.195 116.096 322.299 116.096ZM322.299 114.896C322.918 114.896 323.419 114.757 323.803 114.48C324.198 114.203 324.486 113.829 324.667 113.36C324.859 112.891 324.955 112.368 324.955 111.792C324.955 111.216 324.859 110.693 324.667 110.224C324.486 109.755 324.198 109.381 323.803 109.104C323.419 108.827 322.918 108.688 322.299 108.688C321.691 108.688 321.19 108.827 320.795 109.104C320.411 109.381 320.123 109.755 319.931 110.224C319.75 110.693 319.659 111.216 319.659 111.792C319.659 112.368 319.75 112.891 319.931 113.36C320.123 113.829 320.411 114.203 320.795 114.48C321.19 114.757 321.691 114.896 322.299 114.896ZM328.135 116V107.568H329.495V111.2H330.967L333.463 107.568H335.015L332.199 111.584L335.255 116H333.655L331.127 112.384H329.495V116H328.135ZM109.752 136.096C108.867 136.096 108.125 135.915 107.528 135.552C106.931 135.179 106.483 134.667 106.184 134.016C105.896 133.365 105.752 132.624 105.752 131.792C105.752 130.949 105.896 130.208 106.184 129.568C106.483 128.917 106.931 128.405 107.528 128.032C108.125 127.659 108.877 127.472 109.784 127.472C110.669 127.472 111.405 127.659 111.992 128.032C112.589 128.405 113.032 128.917 113.32 129.568C113.619 130.208 113.768 130.949 113.768 131.792C113.768 132.624 113.619 133.365 113.32 134.016C113.021 134.667 112.573 135.179 111.976 135.552C111.389 135.915 110.648 136.096 109.752 136.096ZM109.752 134.896C110.371 134.896 110.872 134.757 111.256 134.48C111.651 134.203 111.939 133.829 112.12 133.36C112.312 132.891 112.408 132.368 112.408 131.792C112.408 131.216 112.312 130.693 112.12 130.224C111.939 129.755 111.651 129.381 111.256 129.104C110.872 128.827 110.371 128.688 109.752 128.688C109.144 128.688 108.643 128.827 108.248 129.104C107.864 129.381 107.576 129.755 107.384 130.224C107.203 130.693 107.112 131.216 107.112 131.792C107.112 132.368 107.203 132.891 107.384 133.36C107.576 133.829 107.864 134.203 108.248 134.48C108.643 134.757 109.144 134.896 109.752 134.896ZM117.556 136V128.768H114.66V127.568H121.812V128.768H118.916V136H117.556ZM123.025 136V127.568H124.385V131.2H125.857L128.353 127.568H129.905L127.089 131.584L130.145 136H128.545L126.017 132.384H124.385V136H123.025ZM130.554 136.016V134.832C130.767 134.832 130.959 134.789 131.13 134.704C131.301 134.608 131.45 134.469 131.578 134.288C131.727 134.075 131.845 133.765 131.93 133.36C132.015 132.955 132.074 132.523 132.106 132.064C132.149 131.552 132.181 131.051 132.202 130.56C132.223 130.059 132.239 129.563 132.25 129.072C132.271 128.581 132.282 128.08 132.282 127.568H138.138V136H136.778V128.768H133.61C133.599 129.131 133.583 129.499 133.562 129.872C133.551 130.235 133.535 130.603 133.514 130.976C133.503 131.339 133.487 131.707 133.466 132.08C133.455 132.507 133.413 132.987 133.338 133.52C133.263 134.053 133.103 134.539 132.858 134.976C132.623 135.392 132.335 135.669 131.994 135.808C131.663 135.947 131.183 136.016 130.554 136.016ZM147.107 136.096C145.87 136.096 144.936 135.755 144.307 135.072C143.678 134.379 143.32 133.483 143.235 132.384H141.635V136H140.275V127.568H141.635V131.2H143.235C143.299 130.464 143.475 129.819 143.763 129.264C144.062 128.699 144.488 128.261 145.043 127.952C145.598 127.632 146.286 127.472 147.107 127.472C148.003 127.472 148.744 127.659 149.331 128.032C149.918 128.405 150.355 128.917 150.643 129.568C150.931 130.208 151.075 130.949 151.075 131.792C151.075 132.624 150.931 133.365 150.643 134.016C150.355 134.667 149.918 135.179 149.331 135.552C148.744 135.915 148.003 136.096 147.107 136.096ZM147.107 134.896C147.726 134.896 148.222 134.757 148.595 134.48C148.979 134.203 149.262 133.829 149.443 133.36C149.624 132.891 149.715 132.368 149.715 131.792C149.715 131.216 149.624 130.693 149.443 130.224C149.262 129.755 148.979 129.381 148.595 129.104C148.222 128.827 147.726 128.688 147.107 128.688C146.499 128.688 146.003 128.827 145.619 129.104C145.246 129.381 144.974 129.755 144.803 130.224C144.632 130.693 144.547 131.216 144.547 131.792C144.547 132.368 144.632 132.891 144.803 133.36C144.974 133.829 145.246 134.203 145.619 134.48C146.003 134.757 146.499 134.896 147.107 134.896ZM157.798 136V132.752C157.392 132.827 156.998 132.88 156.614 132.912C156.24 132.933 155.904 132.944 155.606 132.944C154.816 132.944 154.192 132.821 153.734 132.576C153.275 132.331 152.95 131.957 152.758 131.456C152.566 130.944 152.47 130.309 152.47 129.552V127.568H153.83V129.456C153.83 129.947 153.878 130.363 153.974 130.704C154.07 131.045 154.256 131.307 154.534 131.488C154.811 131.659 155.227 131.744 155.782 131.744C156.102 131.744 156.438 131.728 156.79 131.696C157.152 131.664 157.488 131.616 157.798 131.552V127.568H159.158V136H157.798ZM164.954 136.096C164.058 136.096 163.317 135.915 162.73 135.552C162.144 135.179 161.706 134.667 161.418 134.016C161.13 133.365 160.986 132.624 160.986 131.792C160.986 130.949 161.136 130.208 161.434 129.568C161.744 128.917 162.192 128.405 162.778 128.032C163.365 127.659 164.085 127.472 164.938 127.472C165.568 127.472 166.117 127.595 166.586 127.84C167.066 128.075 167.461 128.395 167.77 128.8C168.09 129.205 168.32 129.659 168.458 130.16C168.608 130.661 168.672 131.179 168.65 131.712C168.64 131.808 168.634 131.904 168.634 132C168.634 132.096 168.629 132.192 168.618 132.288H162.362C162.405 132.779 162.528 133.221 162.73 133.616C162.933 134.011 163.221 134.325 163.594 134.56C163.968 134.784 164.432 134.896 164.986 134.896C165.264 134.896 165.541 134.864 165.818 134.8C166.106 134.725 166.362 134.603 166.586 134.432C166.821 134.261 166.986 134.032 167.082 133.744H168.474C168.346 134.288 168.106 134.736 167.754 135.088C167.402 135.429 166.981 135.685 166.49 135.856C166 136.016 165.488 136.096 164.954 136.096ZM162.394 131.104H167.274C167.264 130.624 167.157 130.203 166.954 129.84C166.752 129.477 166.474 129.195 166.122 128.992C165.781 128.789 165.37 128.688 164.89 128.688C164.368 128.688 163.925 128.8 163.562 129.024C163.21 129.248 162.938 129.541 162.746 129.904C162.554 130.267 162.437 130.667 162.394 131.104ZM170.478 136V127.568H171.838V131.264H176.062V127.568H177.422V136H176.062V132.464H171.838V136H170.478ZM183.252 136.096C182.367 136.096 181.625 135.915 181.028 135.552C180.431 135.179 179.983 134.667 179.684 134.016C179.396 133.365 179.252 132.624 179.252 131.792C179.252 130.949 179.396 130.208 179.684 129.568C179.983 128.917 180.431 128.405 181.028 128.032C181.625 127.659 182.377 127.472 183.284 127.472C184.169 127.472 184.905 127.659 185.492 128.032C186.089 128.405 186.532 128.917 186.82 129.568C187.119 130.208 187.268 130.949 187.268 131.792C187.268 132.624 187.119 133.365 186.82 134.016C186.521 134.667 186.073 135.179 185.476 135.552C184.889 135.915 184.148 136.096 183.252 136.096ZM183.252 134.896C183.871 134.896 184.372 134.757 184.756 134.48C185.151 134.203 185.439 133.829 185.62 133.36C185.812 132.891 185.908 132.368 185.908 131.792C185.908 131.216 185.812 130.693 185.62 130.224C185.439 129.755 185.151 129.381 184.756 129.104C184.372 128.827 183.871 128.688 183.252 128.688C182.644 128.688 182.143 128.827 181.748 129.104C181.364 129.381 181.076 129.755 180.884 130.224C180.703 130.693 180.612 131.216 180.612 131.792C180.612 132.368 180.703 132.891 180.884 133.36C181.076 133.829 181.364 134.203 181.748 134.48C182.143 134.757 182.644 134.896 183.252 134.896ZM193.672 139.616V138.32C194.195 138.32 194.611 138.245 194.92 138.096C195.229 137.957 195.485 137.733 195.688 137.424C195.901 137.125 196.104 136.741 196.296 136.272L192.6 127.568H194.2L197.048 134.672L199.384 127.568H200.92L198.552 134.208C198.435 134.549 198.301 134.933 198.152 135.36C198.003 135.787 197.837 136.219 197.656 136.656C197.475 137.104 197.272 137.515 197.048 137.888C196.835 138.272 196.595 138.581 196.328 138.816C196.104 139.019 195.885 139.179 195.672 139.296C195.459 139.413 195.197 139.493 194.888 139.536C194.589 139.589 194.184 139.616 193.672 139.616ZM202.181 136V127.568H209.173V136H207.813V128.768H203.541V136H202.181ZM211.322 139.04V127.568H212.618L212.682 128.864C212.97 128.405 213.359 128.059 213.85 127.824C214.351 127.589 214.89 127.472 215.466 127.472C216.319 127.472 217.018 127.664 217.562 128.048C218.106 128.421 218.506 128.933 218.762 129.584C219.029 130.235 219.162 130.971 219.162 131.792C219.162 132.613 219.029 133.349 218.762 134C218.495 134.651 218.085 135.163 217.53 135.536C216.975 135.909 216.266 136.096 215.402 136.096C214.975 136.096 214.591 136.053 214.25 135.968C213.909 135.872 213.61 135.739 213.354 135.568C213.098 135.397 212.874 135.205 212.682 134.992V139.04H211.322ZM215.29 134.896C215.909 134.896 216.399 134.757 216.762 134.48C217.125 134.192 217.386 133.813 217.546 133.344C217.717 132.875 217.802 132.357 217.802 131.792C217.802 131.216 217.717 130.693 217.546 130.224C217.386 129.755 217.119 129.381 216.746 129.104C216.373 128.827 215.877 128.688 215.258 128.688C214.703 128.688 214.229 128.832 213.834 129.12C213.45 129.397 213.157 129.776 212.954 130.256C212.751 130.725 212.65 131.243 212.65 131.808C212.65 132.395 212.746 132.923 212.938 133.392C213.13 133.861 213.423 134.229 213.818 134.496C214.213 134.763 214.703 134.896 215.29 134.896ZM223.62 136.096C223.236 136.096 222.862 136.048 222.5 135.952C222.148 135.845 221.828 135.691 221.54 135.488C221.262 135.275 221.038 135.013 220.868 134.704C220.708 134.384 220.628 134.016 220.628 133.6C220.628 133.12 220.713 132.715 220.884 132.384C221.065 132.053 221.305 131.792 221.604 131.6C221.902 131.408 222.249 131.269 222.644 131.184C223.038 131.099 223.449 131.056 223.876 131.056H226.356C226.356 130.576 226.286 130.16 226.148 129.808C226.02 129.456 225.806 129.184 225.508 128.992C225.209 128.789 224.814 128.688 224.324 128.688C224.025 128.688 223.748 128.72 223.492 128.784C223.236 128.848 223.017 128.949 222.836 129.088C222.654 129.227 222.521 129.413 222.436 129.648H220.98C221.054 129.264 221.198 128.939 221.412 128.672C221.636 128.395 221.902 128.171 222.212 128C222.532 127.819 222.873 127.685 223.236 127.6C223.598 127.515 223.961 127.472 224.324 127.472C225.134 127.472 225.785 127.637 226.276 127.968C226.766 128.288 227.124 128.747 227.348 129.344C227.572 129.931 227.684 130.629 227.684 131.44V136H226.548L226.468 134.928C226.233 135.248 225.95 135.493 225.62 135.664C225.289 135.835 224.948 135.947 224.596 136C224.254 136.064 223.929 136.096 223.62 136.096ZM223.748 134.896C224.281 134.896 224.74 134.811 225.124 134.64C225.518 134.459 225.822 134.197 226.036 133.856C226.249 133.515 226.356 133.099 226.356 132.608V132.192H224.868C224.516 132.192 224.169 132.197 223.828 132.208C223.486 132.219 223.177 132.261 222.9 132.336C222.622 132.411 222.398 132.539 222.228 132.72C222.068 132.901 221.988 133.163 221.988 133.504C221.988 133.824 222.068 134.085 222.228 134.288C222.398 134.491 222.617 134.645 222.884 134.752C223.161 134.848 223.449 134.896 223.748 134.896ZM229.791 136V127.568H233.055C233.428 127.568 233.796 127.595 234.159 127.648C234.532 127.691 234.868 127.787 235.167 127.936C235.476 128.075 235.721 128.283 235.903 128.56C236.095 128.837 236.191 129.205 236.191 129.664C236.191 129.941 236.148 130.197 236.063 130.432C235.977 130.656 235.849 130.853 235.679 131.024C235.519 131.195 235.311 131.344 235.055 131.472C235.631 131.6 236.047 131.851 236.303 132.224C236.559 132.597 236.687 133.024 236.687 133.504C236.687 133.931 236.607 134.304 236.447 134.624C236.297 134.933 236.084 135.189 235.807 135.392C235.54 135.595 235.225 135.749 234.863 135.856C234.511 135.952 234.132 136 233.727 136H229.791ZM231.183 134.816H233.407C233.737 134.816 234.047 134.784 234.335 134.72C234.623 134.656 234.857 134.539 235.039 134.368C235.22 134.187 235.311 133.931 235.311 133.6C235.311 133.259 235.231 133.003 235.071 132.832C234.921 132.651 234.724 132.528 234.479 132.464C234.244 132.389 233.988 132.347 233.711 132.336C233.433 132.325 233.172 132.32 232.927 132.32H231.183V134.816ZM231.183 131.168H232.351C232.564 131.168 232.809 131.157 233.087 131.136C233.375 131.115 233.652 131.067 233.919 130.992C234.196 130.907 234.42 130.779 234.591 130.608C234.772 130.437 234.863 130.203 234.863 129.904C234.863 129.509 234.751 129.237 234.527 129.088C234.313 128.928 234.057 128.837 233.759 128.816C233.46 128.784 233.183 128.768 232.927 128.768H231.183V131.168ZM237.773 136.016V134.832C237.986 134.832 238.178 134.789 238.349 134.704C238.519 134.608 238.669 134.469 238.797 134.288C238.946 134.075 239.063 133.765 239.149 133.36C239.234 132.955 239.293 132.523 239.325 132.064C239.367 131.552 239.399 131.051 239.421 130.56C239.442 130.059 239.458 129.563 239.469 129.072C239.49 128.581 239.501 128.08 239.501 127.568H245.357V136H243.997V128.768H240.829C240.818 129.131 240.802 129.499 240.781 129.872C240.77 130.235 240.754 130.603 240.733 130.976C240.722 131.339 240.706 131.707 240.685 132.08C240.674 132.507 240.631 132.987 240.557 133.52C240.482 134.053 240.322 134.539 240.077 134.976C239.842 135.392 239.554 135.669 239.213 135.808C238.882 135.947 238.402 136.016 237.773 136.016ZM251.142 136.096C250.246 136.096 249.505 135.915 248.918 135.552C248.331 135.179 247.894 134.667 247.606 134.016C247.318 133.365 247.174 132.624 247.174 131.792C247.174 130.949 247.323 130.208 247.622 129.568C247.931 128.917 248.379 128.405 248.966 128.032C249.553 127.659 250.273 127.472 251.126 127.472C251.755 127.472 252.305 127.595 252.774 127.84C253.254 128.075 253.649 128.395 253.958 128.8C254.278 129.205 254.507 129.659 254.646 130.16C254.795 130.661 254.859 131.179 254.838 131.712C254.827 131.808 254.822 131.904 254.822 132C254.822 132.096 254.817 132.192 254.806 132.288H248.55C248.593 132.779 248.715 133.221 248.918 133.616C249.121 134.011 249.409 134.325 249.782 134.56C250.155 134.784 250.619 134.896 251.174 134.896C251.451 134.896 251.729 134.864 252.006 134.8C252.294 134.725 252.55 134.603 252.774 134.432C253.009 134.261 253.174 134.032 253.27 133.744H254.662C254.534 134.288 254.294 134.736 253.942 135.088C253.59 135.429 253.169 135.685 252.678 135.856C252.187 136.016 251.675 136.096 251.142 136.096ZM248.582 131.104H253.462C253.451 130.624 253.345 130.203 253.142 129.84C252.939 129.477 252.662 129.195 252.31 128.992C251.969 128.789 251.558 128.688 251.078 128.688C250.555 128.688 250.113 128.8 249.75 129.024C249.398 129.248 249.126 129.541 248.934 129.904C248.742 130.267 248.625 130.667 248.582 131.104ZM256.666 136V127.568H258.026V131.264H262.25V127.568H263.61V136H262.25V132.464H258.026V136H256.666ZM265.76 136V127.568H267.12V134.032C267.194 133.883 267.296 133.723 267.424 133.552C267.552 133.371 267.653 133.232 267.728 133.136L271.808 127.568H273.152V136H271.792V129.536C271.706 129.696 271.61 129.845 271.504 129.984C271.408 130.123 271.317 130.251 271.232 130.368L267.088 136H265.76ZM278.939 136.096C278.043 136.096 277.301 135.915 276.715 135.552C276.128 135.179 275.691 134.667 275.403 134.016C275.115 133.365 274.971 132.624 274.971 131.792C274.971 130.949 275.12 130.208 275.419 129.568C275.728 128.917 276.176 128.405 276.763 128.032C277.349 127.659 278.069 127.472 278.923 127.472C279.552 127.472 280.101 127.595 280.571 127.84C281.051 128.075 281.445 128.395 281.755 128.8C282.075 129.205 282.304 129.659 282.443 130.16C282.592 130.661 282.656 131.179 282.635 131.712C282.624 131.808 282.619 131.904 282.619 132C282.619 132.096 282.613 132.192 282.603 132.288H276.347C276.389 132.779 276.512 133.221 276.715 133.616C276.917 134.011 277.205 134.325 277.579 134.56C277.952 134.784 278.416 134.896 278.971 134.896C279.248 134.896 279.525 134.864 279.803 134.8C280.091 134.725 280.347 134.603 280.571 134.432C280.805 134.261 280.971 134.032 281.067 133.744H282.459C282.331 134.288 282.091 134.736 281.739 135.088C281.387 135.429 280.965 135.685 280.475 135.856C279.984 136.016 279.472 136.096 278.939 136.096ZM276.379 131.104H281.259C281.248 130.624 281.141 130.203 280.939 129.84C280.736 129.477 280.459 129.195 280.107 128.992C279.765 128.789 279.355 128.688 278.875 128.688C278.352 128.688 277.909 128.8 277.547 129.024C277.195 129.248 276.923 129.541 276.731 129.904C276.539 130.267 276.421 130.667 276.379 131.104ZM288.775 136V127.568H290.135V131.2H291.607L294.103 127.568H295.655L292.839 131.584L295.895 136H294.295L291.767 132.384H290.135V136H288.775ZM299.62 136.096C299.236 136.096 298.862 136.048 298.5 135.952C298.148 135.845 297.828 135.691 297.54 135.488C297.262 135.275 297.038 135.013 296.868 134.704C296.708 134.384 296.628 134.016 296.628 133.6C296.628 133.12 296.713 132.715 296.884 132.384C297.065 132.053 297.305 131.792 297.604 131.6C297.902 131.408 298.249 131.269 298.644 131.184C299.038 131.099 299.449 131.056 299.876 131.056H302.356C302.356 130.576 302.286 130.16 302.148 129.808C302.02 129.456 301.806 129.184 301.508 128.992C301.209 128.789 300.814 128.688 300.324 128.688C300.025 128.688 299.748 128.72 299.492 128.784C299.236 128.848 299.017 128.949 298.836 129.088C298.654 129.227 298.521 129.413 298.436 129.648H296.98C297.054 129.264 297.198 128.939 297.412 128.672C297.636 128.395 297.902 128.171 298.212 128C298.532 127.819 298.873 127.685 299.236 127.6C299.598 127.515 299.961 127.472 300.324 127.472C301.134 127.472 301.785 127.637 302.276 127.968C302.766 128.288 303.124 128.747 303.348 129.344C303.572 129.931 303.684 130.629 303.684 131.44V136H302.548L302.468 134.928C302.233 135.248 301.95 135.493 301.62 135.664C301.289 135.835 300.948 135.947 300.596 136C300.254 136.064 299.929 136.096 299.62 136.096ZM299.748 134.896C300.281 134.896 300.74 134.811 301.124 134.64C301.518 134.459 301.822 134.197 302.036 133.856C302.249 133.515 302.356 133.099 302.356 132.608V132.192H300.868C300.516 132.192 300.169 132.197 299.828 132.208C299.486 132.219 299.177 132.261 298.9 132.336C298.622 132.411 298.398 132.539 298.228 132.72C298.068 132.901 297.988 133.163 297.988 133.504C297.988 133.824 298.068 134.085 298.228 134.288C298.398 134.491 298.617 134.645 298.884 134.752C299.161 134.848 299.449 134.896 299.748 134.896ZM305.791 136V127.568H307.615L310.351 131.792L313.039 127.568H314.831V136H313.487V129.072L310.511 133.84H310.127L307.135 129.072V136H305.791ZM320.626 136.096C319.73 136.096 318.989 135.915 318.402 135.552C317.816 135.179 317.378 134.667 317.09 134.016C316.802 133.365 316.658 132.624 316.658 131.792C316.658 130.949 316.808 130.208 317.106 129.568C317.416 128.917 317.864 128.405 318.45 128.032C319.037 127.659 319.757 127.472 320.61 127.472C321.24 127.472 321.789 127.595 322.258 127.84C322.738 128.075 323.133 128.395 323.442 128.8C323.762 129.205 323.992 129.659 324.13 130.16C324.28 130.661 324.344 131.179 324.322 131.712C324.312 131.808 324.306 131.904 324.306 132C324.306 132.096 324.301 132.192 324.29 132.288H318.034C318.077 132.779 318.2 133.221 318.402 133.616C318.605 134.011 318.893 134.325 319.266 134.56C319.64 134.784 320.104 134.896 320.658 134.896C320.936 134.896 321.213 134.864 321.49 134.8C321.778 134.725 322.034 134.603 322.258 134.432C322.493 134.261 322.658 134.032 322.754 133.744H324.146C324.018 134.288 323.778 134.736 323.426 135.088C323.074 135.429 322.653 135.685 322.162 135.856C321.672 136.016 321.16 136.096 320.626 136.096ZM318.066 131.104H322.946C322.936 130.624 322.829 130.203 322.626 129.84C322.424 129.477 322.146 129.195 321.794 128.992C321.453 128.789 321.042 128.688 320.562 128.688C320.04 128.688 319.597 128.8 319.234 129.024C318.882 129.248 318.61 129.541 318.418 129.904C318.226 130.267 318.109 130.667 318.066 131.104ZM326.15 139.04V127.568H327.446L327.51 128.864C327.798 128.405 328.187 128.059 328.678 127.824C329.179 127.589 329.718 127.472 330.294 127.472C331.147 127.472 331.846 127.664 332.39 128.048C332.934 128.421 333.334 128.933 333.59 129.584C333.857 130.235 333.99 130.971 333.99 131.792C333.99 132.613 333.857 133.349 333.59 134C333.323 134.651 332.913 135.163 332.358 135.536C331.803 135.909 331.094 136.096 330.23 136.096C329.803 136.096 329.419 136.053 329.078 135.968C328.737 135.872 328.438 135.739 328.182 135.568C327.926 135.397 327.702 135.205 327.51 134.992V139.04H326.15ZM330.118 134.896C330.737 134.896 331.227 134.757 331.59 134.48C331.953 134.192 332.214 133.813 332.374 133.344C332.545 132.875 332.63 132.357 332.63 131.792C332.63 131.216 332.545 130.693 332.374 130.224C332.214 129.755 331.947 129.381 331.574 129.104C331.201 128.827 330.705 128.688 330.086 128.688C329.531 128.688 329.057 128.832 328.662 129.12C328.278 129.397 327.985 129.776 327.782 130.256C327.579 130.725 327.478 131.243 327.478 131.808C327.478 132.395 327.574 132.923 327.766 133.392C327.958 133.861 328.251 134.229 328.646 134.496C329.041 134.763 329.531 134.896 330.118 134.896ZM339.424 136.096C338.539 136.096 337.797 135.915 337.2 135.552C336.603 135.179 336.155 134.667 335.856 134.016C335.568 133.365 335.424 132.624 335.424 131.792C335.424 130.949 335.568 130.208 335.856 129.568C336.155 128.917 336.603 128.405 337.2 128.032C337.797 127.659 338.549 127.472 339.456 127.472C340.341 127.472 341.077 127.659 341.664 128.032C342.261 128.405 342.704 128.917 342.992 129.568C343.291 130.208 343.44 130.949 343.44 131.792C343.44 132.624 343.291 133.365 342.992 134.016C342.693 134.667 342.245 135.179 341.648 135.552C341.061 135.915 340.32 136.096 339.424 136.096ZM339.424 134.896C340.043 134.896 340.544 134.757 340.928 134.48C341.323 134.203 341.611 133.829 341.792 133.36C341.984 132.891 342.08 132.368 342.08 131.792C342.08 131.216 341.984 130.693 341.792 130.224C341.611 129.755 341.323 129.381 340.928 129.104C340.544 128.827 340.043 128.688 339.424 128.688C338.816 128.688 338.315 128.827 337.92 129.104C337.536 129.381 337.248 129.755 337.056 130.224C336.875 130.693 336.784 131.216 336.784 131.792C336.784 132.368 336.875 132.891 337.056 133.36C337.248 133.829 337.536 134.203 337.92 134.48C338.315 134.757 338.816 134.896 339.424 134.896ZM345.26 136V127.568H346.62V134.032C346.694 133.883 346.796 133.723 346.924 133.552C347.052 133.371 347.153 133.232 347.228 133.136L351.308 127.568H352.652V136H351.292V129.536C351.206 129.696 351.11 129.845 351.004 129.984C350.908 130.123 350.817 130.251 350.732 130.368L346.588 136H345.26ZM349.068 126.384C348.225 126.384 347.564 126.203 347.084 125.84C346.614 125.477 346.369 124.949 346.348 124.256H347.596C347.617 124.629 347.756 124.901 348.012 125.072C348.278 125.243 348.636 125.328 349.084 125.328C349.532 125.328 349.884 125.243 350.14 125.072C350.406 124.901 350.55 124.629 350.572 124.256H351.82C351.809 124.715 351.692 125.104 351.468 125.424C351.244 125.744 350.929 125.984 350.524 126.144C350.118 126.304 349.633 126.384 349.068 126.384ZM106.072 156V147.568H107.432V154.032C107.507 153.883 107.608 153.723 107.736 153.552C107.864 153.371 107.965 153.232 108.04 153.136L112.12 147.568H113.464V156H112.104V149.536C112.019 149.696 111.923 149.845 111.816 149.984C111.72 150.123 111.629 150.251 111.544 150.368L107.4 156H106.072ZM119.916 156V147.568H121.74L124.476 151.792L127.164 147.568H128.956V156H127.612V149.072L124.636 153.84H124.252L121.26 149.072V156H119.916ZM134.751 156.096C133.855 156.096 133.114 155.915 132.527 155.552C131.941 155.179 131.503 154.667 131.215 154.016C130.927 153.365 130.783 152.624 130.783 151.792C130.783 150.949 130.933 150.208 131.231 149.568C131.541 148.917 131.989 148.405 132.575 148.032C133.162 147.659 133.882 147.472 134.735 147.472C135.365 147.472 135.914 147.595 136.383 147.84C136.863 148.075 137.258 148.395 137.567 148.8C137.887 149.205 138.117 149.659 138.255 150.16C138.405 150.661 138.469 151.179 138.447 151.712C138.437 151.808 138.431 151.904 138.431 152C138.431 152.096 138.426 152.192 138.415 152.288H132.159C132.202 152.779 132.325 153.221 132.527 153.616C132.73 154.011 133.018 154.325 133.391 154.56C133.765 154.784 134.229 154.896 134.783 154.896C135.061 154.896 135.338 154.864 135.615 154.8C135.903 154.725 136.159 154.603 136.383 154.432C136.618 154.261 136.783 154.032 136.879 153.744H138.271C138.143 154.288 137.903 154.736 137.551 155.088C137.199 155.429 136.778 155.685 136.287 155.856C135.797 156.016 135.285 156.096 134.751 156.096ZM132.191 151.104H137.071C137.061 150.624 136.954 150.203 136.751 149.84C136.549 149.477 136.271 149.195 135.919 148.992C135.578 148.789 135.167 148.688 134.687 148.688C134.165 148.688 133.722 148.8 133.359 149.024C133.007 149.248 132.735 149.541 132.543 149.904C132.351 150.267 132.234 150.667 132.191 151.104ZM143.983 156.096C143.45 156.096 142.975 156.021 142.559 155.872C142.143 155.712 141.786 155.493 141.487 155.216C141.189 154.928 140.943 154.592 140.751 154.208C140.559 153.813 140.415 153.387 140.319 152.928C140.223 152.469 140.175 151.984 140.175 151.472C140.175 150.651 140.191 149.888 140.223 149.184C140.266 148.469 140.383 147.835 140.575 147.28C140.767 146.715 141.093 146.245 141.551 145.872C142.01 145.499 142.655 145.237 143.487 145.088C143.914 145.013 144.335 144.949 144.751 144.896C145.167 144.843 145.589 144.789 146.015 144.736C146.154 144.715 146.298 144.693 146.447 144.672C146.597 144.651 146.751 144.624 146.911 144.592C147.082 144.56 147.242 144.533 147.391 144.512V145.76C147.274 145.803 147.146 145.84 147.007 145.872C146.879 145.893 146.741 145.915 146.591 145.936C146.453 145.957 146.309 145.973 146.159 145.984C146.021 145.995 145.882 146.011 145.743 146.032C145.605 146.043 145.471 146.059 145.343 146.08C144.97 146.123 144.575 146.165 144.159 146.208C143.743 146.24 143.349 146.325 142.975 146.464C142.613 146.592 142.303 146.843 142.047 147.216C141.919 147.408 141.807 147.637 141.711 147.904C141.626 148.171 141.562 148.443 141.519 148.72C141.487 148.987 141.466 149.243 141.455 149.488C141.669 149.189 141.93 148.949 142.239 148.768C142.549 148.576 142.879 148.437 143.231 148.352C143.583 148.256 143.919 148.208 144.239 148.208C145.007 148.208 145.658 148.368 146.191 148.688C146.725 148.997 147.13 149.44 147.407 150.016C147.685 150.592 147.823 151.264 147.823 152.032C147.823 152.8 147.674 153.493 147.375 154.112C147.077 154.72 146.639 155.205 146.063 155.568C145.498 155.92 144.805 156.096 143.983 156.096ZM144.015 154.896C144.549 154.896 144.997 154.768 145.359 154.512C145.722 154.256 145.994 153.915 146.175 153.488C146.367 153.061 146.463 152.592 146.463 152.08C146.463 151.579 146.367 151.131 146.175 150.736C145.994 150.331 145.722 150.011 145.359 149.776C145.007 149.541 144.57 149.424 144.047 149.424C143.535 149.424 143.093 149.547 142.719 149.792C142.357 150.037 142.074 150.368 141.871 150.784C141.679 151.189 141.583 151.632 141.583 152.112C141.583 152.603 141.674 153.061 141.855 153.488C142.037 153.915 142.303 154.256 142.655 154.512C143.018 154.768 143.471 154.896 144.015 154.896ZM153.298 156.096C152.402 156.096 151.661 155.915 151.074 155.552C150.487 155.179 150.05 154.667 149.762 154.016C149.474 153.365 149.33 152.624 149.33 151.792C149.33 150.949 149.479 150.208 149.778 149.568C150.087 148.917 150.535 148.405 151.122 148.032C151.709 147.659 152.429 147.472 153.282 147.472C153.911 147.472 154.461 147.595 154.93 147.84C155.41 148.075 155.805 148.395 156.114 148.8C156.434 149.205 156.663 149.659 156.802 150.16C156.951 150.661 157.015 151.179 156.994 151.712C156.983 151.808 156.978 151.904 156.978 152C156.978 152.096 156.973 152.192 156.962 152.288H150.706C150.749 152.779 150.871 153.221 151.074 153.616C151.277 154.011 151.565 154.325 151.938 154.56C152.311 154.784 152.775 154.896 153.33 154.896C153.607 154.896 153.885 154.864 154.162 154.8C154.45 154.725 154.706 154.603 154.93 154.432C155.165 154.261 155.33 154.032 155.426 153.744H156.818C156.69 154.288 156.45 154.736 156.098 155.088C155.746 155.429 155.325 155.685 154.834 155.856C154.343 156.016 153.831 156.096 153.298 156.096ZM150.738 151.104H155.618C155.607 150.624 155.501 150.203 155.298 149.84C155.095 149.477 154.818 149.195 154.466 148.992C154.125 148.789 153.714 148.688 153.234 148.688C152.711 148.688 152.269 148.8 151.906 149.024C151.554 149.248 151.282 149.541 151.09 149.904C150.898 150.267 150.781 150.667 150.738 151.104ZM157.976 156.016V154.832C158.189 154.832 158.381 154.789 158.552 154.704C158.723 154.608 158.872 154.469 159 154.288C159.149 154.075 159.267 153.765 159.352 153.36C159.437 152.955 159.496 152.523 159.528 152.064C159.571 151.552 159.603 151.051 159.624 150.56C159.645 150.059 159.661 149.563 159.672 149.072C159.693 148.581 159.704 148.08 159.704 147.568H165.56V156H164.2V148.768H161.032C161.021 149.131 161.005 149.499 160.984 149.872C160.973 150.235 160.957 150.603 160.936 150.976C160.925 151.339 160.909 151.707 160.888 152.08C160.877 152.507 160.835 152.987 160.76 153.52C160.685 154.053 160.525 154.539 160.28 154.976C160.045 155.392 159.757 155.669 159.416 155.808C159.085 155.947 158.605 156.016 157.976 156.016ZM167.697 156V147.568H169.089V150.784H170.945C171.446 150.784 171.894 150.827 172.289 150.912C172.694 150.987 173.041 151.12 173.329 151.312C173.617 151.504 173.836 151.765 173.985 152.096C174.145 152.416 174.225 152.827 174.225 153.328C174.225 153.787 174.145 154.187 173.985 154.528C173.825 154.859 173.601 155.136 173.313 155.36C173.025 155.573 172.678 155.733 172.273 155.84C171.878 155.947 171.441 156 170.961 156H167.697ZM169.089 154.816H169.889C170.262 154.816 170.62 154.805 170.961 154.784C171.313 154.763 171.633 154.709 171.921 154.624C172.209 154.539 172.433 154.4 172.593 154.208C172.764 154.005 172.849 153.728 172.849 153.376C172.849 153.035 172.78 152.773 172.641 152.592C172.513 152.4 172.342 152.261 172.129 152.176C171.916 152.08 171.681 152.021 171.425 152C171.18 151.979 170.934 151.968 170.689 151.968H169.089V154.816ZM182.826 156.096C181.589 156.096 180.655 155.755 180.026 155.072C179.397 154.379 179.039 153.483 178.954 152.384H177.354V156H175.994V147.568H177.354V151.2H178.954C179.018 150.464 179.194 149.819 179.482 149.264C179.781 148.699 180.207 148.261 180.762 147.952C181.317 147.632 182.005 147.472 182.826 147.472C183.722 147.472 184.463 147.659 185.05 148.032C185.637 148.405 186.074 148.917 186.362 149.568C186.65 150.208 186.794 150.949 186.794 151.792C186.794 152.624 186.65 153.365 186.362 154.016C186.074 154.667 185.637 155.179 185.05 155.552C184.463 155.915 183.722 156.096 182.826 156.096ZM182.826 154.896C183.445 154.896 183.941 154.757 184.314 154.48C184.698 154.203 184.981 153.829 185.162 153.36C185.343 152.891 185.434 152.368 185.434 151.792C185.434 151.216 185.343 150.693 185.162 150.224C184.981 149.755 184.698 149.381 184.314 149.104C183.941 148.827 183.445 148.688 182.826 148.688C182.218 148.688 181.722 148.827 181.338 149.104C180.965 149.381 180.693 149.755 180.522 150.224C180.351 150.693 180.266 151.216 180.266 151.792C180.266 152.368 180.351 152.891 180.522 153.36C180.693 153.829 180.965 154.203 181.338 154.48C181.722 154.757 182.218 154.896 182.826 154.896Z" fill="black"/>
</svg>
