<svg width="408" height="191" viewBox="0 0 408 191" fill="none" xmlns="http://www.w3.org/2000/svg">
<rect width="408" height="191" rx="30" fill="white"/>
<path d="M56.3232 41.002C57.8016 41.0387 59.2115 41.6423 60.2598 42.6904C61.3419 43.7725 61.9502 45.2402 61.9502 46.7705V51.7295H75.3555V54.499H71.6035L69.8164 78.7871C69.6677 80.8049 68.7606 82.6922 67.2783 84.0693C65.7958 85.4463 63.8466 86.2121 61.8232 86.2119H43.5479C41.5224 86.215 39.5699 85.4507 38.085 84.0732C36.6003 82.6958 35.6919 80.8069 35.543 78.7871L33.7598 54.499H30V51.7295H43.4004V46.7705C43.4004 45.2403 44.0079 43.7725 45.0898 42.6904C46.1719 41.6084 47.6397 41.0001 49.1699 41H56.1797L56.3232 41.002ZM44.7344 80.5186H47.042V58.8037H44.7344V80.5186ZM51.5244 80.3691H53.832V58.6543H51.5244V80.3691ZM58.3105 80.3691H60.6182V58.6543H58.3105V80.3691ZM49.1699 43.7705C48.3744 43.7706 47.6114 44.086 47.0488 44.6484C46.4861 45.2111 46.1699 45.9747 46.1699 46.7705V51.7295H59.1807V46.7705L59.1797 46.6963C59.1606 45.9276 58.8468 45.1935 58.3018 44.6484C57.7566 44.1034 57.0226 43.7896 56.2539 43.7705H49.1699Z" fill="#010101"/>
<path d="M106.856 56.016V54.704C107.293 54.704 107.677 54.6667 108.008 54.592C108.349 54.5173 108.653 54.368 108.92 54.144C109.197 53.92 109.453 53.584 109.688 53.136L105.24 44.688H106.888L110.488 51.696L113.336 44.688H114.84L112.808 49.472C112.669 49.8133 112.488 50.2507 112.264 50.784C112.04 51.3067 111.789 51.856 111.512 52.432C111.245 52.9973 110.963 53.5253 110.664 54.016C110.376 54.5067 110.083 54.8853 109.784 55.152C109.389 55.504 108.957 55.7387 108.488 55.856C108.019 55.9627 107.475 56.016 106.856 56.016ZM114.055 58.592V54.816C114.364 54.816 114.61 54.7307 114.791 54.56C114.983 54.3893 115.132 54.1653 115.239 53.888C115.346 53.6107 115.426 53.312 115.479 52.992C115.532 52.6613 115.575 52.3467 115.607 52.048C115.66 51.5573 115.692 51.072 115.703 50.592C115.724 50.1013 115.735 49.712 115.735 49.424C115.746 49.1147 115.751 48.8053 115.751 48.496C115.751 48.1867 115.751 47.8773 115.751 47.568H121.735V54.816H122.839V58.592H121.527V56H115.367V58.592H114.055ZM116.215 54.816H120.375V48.768H117.047C117.036 49.216 117.026 49.7173 117.015 50.272C117.004 50.8267 116.983 51.344 116.951 51.824C116.94 52.1013 116.914 52.416 116.871 52.768C116.839 53.12 116.775 53.4773 116.679 53.84C116.583 54.192 116.428 54.5173 116.215 54.816ZM126.964 56.096C126.58 56.096 126.206 56.048 125.844 55.952C125.492 55.8453 125.172 55.6907 124.884 55.488C124.606 55.2747 124.382 55.0133 124.212 54.704C124.052 54.384 123.972 54.016 123.972 53.6C123.972 53.12 124.057 52.7147 124.228 52.384C124.409 52.0533 124.649 51.792 124.948 51.6C125.246 51.408 125.593 51.2693 125.988 51.184C126.382 51.0987 126.793 51.056 127.22 51.056H129.7C129.7 50.576 129.63 50.16 129.492 49.808C129.364 49.456 129.15 49.184 128.852 48.992C128.553 48.7893 128.158 48.688 127.668 48.688C127.369 48.688 127.092 48.72 126.836 48.784C126.58 48.848 126.361 48.9493 126.18 49.088C125.998 49.2267 125.865 49.4133 125.78 49.648H124.324C124.398 49.264 124.542 48.9387 124.756 48.672C124.98 48.3947 125.246 48.1707 125.556 48C125.876 47.8187 126.217 47.6853 126.58 47.6C126.942 47.5147 127.305 47.472 127.668 47.472C128.478 47.472 129.129 47.6373 129.62 47.968C130.11 48.288 130.468 48.7467 130.692 49.344C130.916 49.9307 131.028 50.6293 131.028 51.44V56H129.892L129.812 54.928C129.577 55.248 129.294 55.4933 128.964 55.664C128.633 55.8347 128.292 55.9467 127.94 56C127.598 56.064 127.273 56.096 126.964 56.096ZM127.092 54.896C127.625 54.896 128.084 54.8107 128.468 54.64C128.862 54.4587 129.166 54.1973 129.38 53.856C129.593 53.5147 129.7 53.0987 129.7 52.608V52.192H128.212C127.86 52.192 127.513 52.1973 127.172 52.208C126.83 52.2187 126.521 52.2613 126.244 52.336C125.966 52.4107 125.742 52.5387 125.572 52.72C125.412 52.9013 125.332 53.1627 125.332 53.504C125.332 53.824 125.412 54.0853 125.572 54.288C125.742 54.4907 125.961 54.6453 126.228 54.752C126.505 54.848 126.793 54.896 127.092 54.896ZM132.367 56.016V54.832C132.58 54.832 132.772 54.7893 132.943 54.704C133.113 54.608 133.263 54.4693 133.391 54.288C133.54 54.0747 133.657 53.7653 133.743 53.36C133.828 52.9547 133.887 52.5227 133.919 52.064C133.961 51.552 133.993 51.0507 134.015 50.56C134.036 50.0587 134.052 49.5627 134.062 49.072C134.084 48.5813 134.095 48.08 134.095 47.568H139.951V56H138.591V48.768H135.423C135.412 49.1307 135.396 49.4987 135.375 49.872C135.364 50.2347 135.348 50.6027 135.327 50.976C135.316 51.3387 135.3 51.7067 135.279 52.08C135.268 52.5067 135.225 52.9867 135.151 53.52C135.076 54.0533 134.916 54.5387 134.671 54.976C134.436 55.392 134.148 55.6693 133.807 55.808C133.476 55.9467 132.996 56.016 132.367 56.016ZM141.56 56L143.752 52.672C143.144 52.5013 142.664 52.224 142.312 51.84C141.96 51.4453 141.784 50.9227 141.784 50.272C141.784 49.76 141.858 49.3333 142.008 48.992C142.157 48.64 142.376 48.3627 142.664 48.16C142.952 47.9467 143.298 47.7973 143.704 47.712C144.109 47.616 144.573 47.568 145.096 47.568H148.488V56H147.128V52.88H145.192L143.144 56H141.56ZM146.12 51.696H147.128V48.768H145.32C145 48.768 144.706 48.784 144.44 48.816C144.173 48.848 143.944 48.9173 143.752 49.024C143.57 49.12 143.426 49.264 143.32 49.456C143.213 49.6373 143.16 49.888 143.16 50.208C143.16 50.56 143.245 50.8373 143.416 51.04C143.597 51.2427 143.826 51.392 144.104 51.488C144.392 51.5733 144.712 51.632 145.064 51.664C145.416 51.6853 145.768 51.696 146.12 51.696ZM154.283 56.096C153.387 56.096 152.645 55.9147 152.059 55.552C151.472 55.1787 151.035 54.6667 150.747 54.016C150.459 53.3653 150.315 52.624 150.315 51.792C150.315 50.9493 150.464 50.208 150.763 49.568C151.072 48.9173 151.52 48.4053 152.107 48.032C152.693 47.6587 153.413 47.472 154.266 47.472C154.896 47.472 155.445 47.5947 155.915 47.84C156.395 48.0747 156.789 48.3947 157.099 48.8C157.419 49.2053 157.648 49.6587 157.786 50.16C157.936 50.6613 158 51.1787 157.979 51.712C157.968 51.808 157.963 51.904 157.963 52C157.963 52.096 157.957 52.192 157.947 52.288H151.691C151.733 52.7787 151.856 53.2213 152.059 53.616C152.261 54.0107 152.549 54.3253 152.923 54.56C153.296 54.784 153.76 54.896 154.315 54.896C154.592 54.896 154.869 54.864 155.147 54.8C155.435 54.7253 155.691 54.6027 155.915 54.432C156.149 54.2613 156.315 54.032 156.411 53.744H157.803C157.675 54.288 157.435 54.736 157.083 55.088C156.731 55.4293 156.309 55.6853 155.819 55.856C155.328 56.016 154.816 56.096 154.283 56.096ZM151.723 51.104H156.603C156.592 50.624 156.485 50.2027 156.283 49.84C156.08 49.4773 155.803 49.1947 155.451 48.992C155.109 48.7893 154.699 48.688 154.219 48.688C153.696 48.688 153.253 48.8 152.891 49.024C152.539 49.248 152.267 49.5413 152.075 49.904C151.883 50.2667 151.765 50.6667 151.723 51.104ZM161.774 56V48.768H158.878V47.568H166.03V48.768H163.134V56H161.774ZM171.828 59.616V58.32C172.351 58.32 172.767 58.2453 173.076 58.096C173.386 57.9573 173.642 57.7333 173.844 57.424C174.058 57.1253 174.26 56.7413 174.452 56.272L170.756 47.568H172.356L175.204 54.672L177.54 47.568H179.076L176.708 54.208C176.591 54.5493 176.458 54.9333 176.308 55.36C176.159 55.7867 175.994 56.2187 175.812 56.656C175.631 57.104 175.428 57.5147 175.204 57.888C174.991 58.272 174.751 58.5813 174.484 58.816C174.26 59.0187 174.042 59.1787 173.828 59.296C173.615 59.4133 173.354 59.4933 173.044 59.536C172.746 59.5893 172.34 59.616 171.828 59.616ZM183.938 56.096C183.052 56.096 182.316 55.9147 181.73 55.552C181.154 55.1787 180.722 54.6667 180.434 54.016C180.156 53.3653 180.018 52.6293 180.018 51.808C180.018 51.008 180.162 50.2827 180.45 49.632C180.748 48.9707 181.196 48.448 181.794 48.064C182.402 47.6693 183.17 47.472 184.098 47.472C184.674 47.472 185.186 47.568 185.634 47.76C186.092 47.952 186.471 48.2347 186.77 48.608C187.068 48.9707 187.276 49.4293 187.394 49.984H186.002C185.842 49.5147 185.586 49.184 185.234 48.992C184.892 48.7893 184.487 48.688 184.018 48.688C183.378 48.688 182.866 48.8373 182.482 49.136C182.098 49.4347 181.815 49.824 181.634 50.304C181.463 50.7733 181.378 51.2747 181.378 51.808C181.378 52.3627 181.468 52.8747 181.65 53.344C181.831 53.8133 182.114 54.192 182.498 54.48C182.882 54.7573 183.378 54.896 183.986 54.896C184.434 54.896 184.855 54.8 185.25 54.608C185.655 54.416 185.922 54.0747 186.05 53.584H187.458C187.351 54.16 187.122 54.6347 186.77 55.008C186.428 55.3813 186.007 55.6587 185.506 55.84C185.015 56.0107 184.492 56.096 183.938 56.096ZM188.335 56.016V54.832C188.549 54.832 188.741 54.7893 188.911 54.704C189.082 54.608 189.231 54.4693 189.359 54.288C189.509 54.0747 189.626 53.7653 189.711 53.36C189.797 52.9547 189.855 52.5227 189.887 52.064C189.93 51.552 189.962 51.0507 189.983 50.56C190.005 50.0587 190.021 49.5627 190.031 49.072C190.053 48.5813 190.063 48.08 190.063 47.568H195.919V56H194.559V48.768H191.391C191.381 49.1307 191.365 49.4987 191.343 49.872C191.333 50.2347 191.317 50.6027 191.295 50.976C191.285 51.3387 191.269 51.7067 191.247 52.08C191.237 52.5067 191.194 52.9867 191.119 53.52C191.045 54.0533 190.885 54.5387 190.639 54.976C190.405 55.392 190.117 55.6693 189.775 55.808C189.445 55.9467 188.965 56.016 188.335 56.016ZM201.736 56.096C200.851 56.096 200.11 55.9147 199.512 55.552C198.915 55.1787 198.467 54.6667 198.168 54.016C197.88 53.3653 197.736 52.624 197.736 51.792C197.736 50.9493 197.88 50.208 198.168 49.568C198.467 48.9173 198.915 48.4053 199.512 48.032C200.11 47.6587 200.862 47.472 201.768 47.472C202.654 47.472 203.39 47.6587 203.976 48.032C204.574 48.4053 205.016 48.9173 205.304 49.568C205.603 50.208 205.752 50.9493 205.752 51.792C205.752 52.624 205.603 53.3653 205.304 54.016C205.006 54.6667 204.558 55.1787 203.96 55.552C203.374 55.9147 202.632 56.096 201.736 56.096ZM201.736 54.896C202.355 54.896 202.856 54.7573 203.24 54.48C203.635 54.2027 203.923 53.8293 204.104 53.36C204.296 52.8907 204.392 52.368 204.392 51.792C204.392 51.216 204.296 50.6933 204.104 50.224C203.923 49.7547 203.635 49.3813 203.24 49.104C202.856 48.8267 202.355 48.688 201.736 48.688C201.128 48.688 200.627 48.8267 200.232 49.104C199.848 49.3813 199.56 49.7547 199.368 50.224C199.187 50.6933 199.096 51.216 199.096 51.792C199.096 52.368 199.187 52.8907 199.368 53.36C199.56 53.8293 199.848 54.2027 200.232 54.48C200.627 54.7573 201.128 54.896 201.736 54.896ZM207.572 56V47.568H210.836C211.209 47.568 211.577 47.5947 211.94 47.648C212.313 47.6907 212.649 47.7867 212.948 47.936C213.257 48.0747 213.503 48.2827 213.684 48.56C213.876 48.8373 213.972 49.2053 213.972 49.664C213.972 49.9413 213.929 50.1973 213.844 50.432C213.759 50.656 213.631 50.8533 213.46 51.024C213.3 51.1947 213.092 51.344 212.836 51.472C213.412 51.6 213.828 51.8507 214.084 52.224C214.34 52.5973 214.468 53.024 214.468 53.504C214.468 53.9307 214.388 54.304 214.228 54.624C214.079 54.9333 213.865 55.1893 213.588 55.392C213.321 55.5947 213.007 55.7493 212.644 55.856C212.292 55.952 211.913 56 211.508 56H207.572ZM208.964 54.816H211.188C211.519 54.816 211.828 54.784 212.116 54.72C212.404 54.656 212.639 54.5387 212.82 54.368C213.001 54.1867 213.092 53.9307 213.092 53.6C213.092 53.2587 213.012 53.0027 212.852 52.832C212.703 52.6507 212.505 52.528 212.26 52.464C212.025 52.3893 211.769 52.3467 211.492 52.336C211.215 52.3253 210.953 52.32 210.708 52.32H208.964V54.816ZM208.964 51.168H210.132C210.345 51.168 210.591 51.1573 210.868 51.136C211.156 51.1147 211.433 51.0667 211.7 50.992C211.977 50.9067 212.201 50.7787 212.372 50.608C212.553 50.4373 212.644 50.2027 212.644 49.904C212.644 49.5093 212.532 49.2373 212.308 49.088C212.095 48.928 211.839 48.8373 211.54 48.816C211.241 48.784 210.964 48.768 210.708 48.768H208.964V51.168ZM216.322 56V47.568H217.682V51.264H221.906V47.568H223.266V56H221.906V52.464H217.682V56H216.322ZM229.096 56.096C228.21 56.096 227.469 55.9147 226.872 55.552C226.274 55.1787 225.826 54.6667 225.528 54.016C225.24 53.3653 225.096 52.624 225.096 51.792C225.096 50.9493 225.24 50.208 225.528 49.568C225.826 48.9173 226.274 48.4053 226.872 48.032C227.469 47.6587 228.221 47.472 229.128 47.472C230.013 47.472 230.749 47.6587 231.336 48.032C231.933 48.4053 232.376 48.9173 232.664 49.568C232.962 50.208 233.112 50.9493 233.112 51.792C233.112 52.624 232.962 53.3653 232.664 54.016C232.365 54.6667 231.917 55.1787 231.32 55.552C230.733 55.9147 229.992 56.096 229.096 56.096ZM229.096 54.896C229.714 54.896 230.216 54.7573 230.6 54.48C230.994 54.2027 231.282 53.8293 231.464 53.36C231.656 52.8907 231.752 52.368 231.752 51.792C231.752 51.216 231.656 50.6933 231.464 50.224C231.282 49.7547 230.994 49.3813 230.6 49.104C230.216 48.8267 229.714 48.688 229.096 48.688C228.488 48.688 227.986 48.8267 227.592 49.104C227.208 49.3813 226.92 49.7547 226.728 50.224C226.546 50.6933 226.456 51.216 226.456 51.792C226.456 52.368 226.546 52.8907 226.728 53.36C226.92 53.8293 227.208 54.2027 227.592 54.48C227.986 54.7573 228.488 54.896 229.096 54.896ZM239.244 56V47.568H242.508C242.881 47.568 243.249 47.5947 243.612 47.648C243.985 47.6907 244.321 47.7867 244.62 47.936C244.929 48.0747 245.175 48.2827 245.356 48.56C245.548 48.8373 245.644 49.2053 245.644 49.664C245.644 49.9413 245.601 50.1973 245.516 50.432C245.431 50.656 245.303 50.8533 245.132 51.024C244.972 51.1947 244.764 51.344 244.508 51.472C245.084 51.6 245.5 51.8507 245.756 52.224C246.012 52.5973 246.14 53.024 246.14 53.504C246.14 53.9307 246.06 54.304 245.9 54.624C245.751 54.9333 245.537 55.1893 245.26 55.392C244.993 55.5947 244.679 55.7493 244.316 55.856C243.964 55.952 243.585 56 243.18 56H239.244ZM240.636 54.816H242.86C243.191 54.816 243.5 54.784 243.788 54.72C244.076 54.656 244.311 54.5387 244.492 54.368C244.673 54.1867 244.764 53.9307 244.764 53.6C244.764 53.2587 244.684 53.0027 244.524 52.832C244.375 52.6507 244.177 52.528 243.932 52.464C243.697 52.3893 243.441 52.3467 243.164 52.336C242.887 52.3253 242.625 52.32 242.38 52.32H240.636V54.816ZM240.636 51.168H241.804C242.017 51.168 242.263 51.1573 242.54 51.136C242.828 51.1147 243.105 51.0667 243.372 50.992C243.649 50.9067 243.873 50.7787 244.044 50.608C244.225 50.4373 244.316 50.2027 244.316 49.904C244.316 49.5093 244.204 49.2373 243.98 49.088C243.767 48.928 243.511 48.8373 243.212 48.816C242.913 48.784 242.636 48.768 242.38 48.768H240.636V51.168ZM247.994 56V47.568H249.386V50.784H250.906C251.407 50.784 251.861 50.8267 252.266 50.912C252.671 50.9973 253.018 51.136 253.306 51.328C253.594 51.52 253.813 51.7813 253.962 52.112C254.111 52.432 254.186 52.8373 254.186 53.328C254.186 53.7973 254.106 54.2027 253.946 54.544C253.786 54.8853 253.557 55.1627 253.258 55.376C252.97 55.5893 252.623 55.7493 252.218 55.856C251.823 55.952 251.391 56 250.922 56H247.994ZM249.386 54.816H249.834C250.207 54.816 250.57 54.8107 250.922 54.8C251.274 54.7787 251.589 54.7253 251.866 54.64C252.154 54.5547 252.383 54.416 252.554 54.224C252.725 54.0213 252.81 53.7387 252.81 53.376C252.81 53.0347 252.741 52.7733 252.602 52.592C252.474 52.4 252.303 52.2613 252.09 52.176C251.877 52.08 251.642 52.0213 251.386 52C251.141 51.9787 250.895 51.968 250.65 51.968H249.386V54.816ZM255.354 56V47.568H256.714V56H255.354ZM258.133 58.592V54.816C258.443 54.816 258.688 54.7307 258.869 54.56C259.061 54.3893 259.211 54.1653 259.317 53.888C259.424 53.6107 259.504 53.312 259.557 52.992C259.611 52.6613 259.653 52.3467 259.685 52.048C259.739 51.5573 259.771 51.072 259.781 50.592C259.803 50.1013 259.813 49.712 259.813 49.424C259.824 49.1147 259.829 48.8053 259.829 48.496C259.829 48.1867 259.829 47.8773 259.829 47.568H265.813V54.816H266.917V58.592H265.605V56H259.445V58.592H258.133ZM260.293 54.816H264.453V48.768H261.125C261.115 49.216 261.104 49.7173 261.093 50.272C261.083 50.8267 261.061 51.344 261.029 51.824C261.019 52.1013 260.992 52.416 260.949 52.768C260.917 53.12 260.853 53.4773 260.757 53.84C260.661 54.192 260.507 54.5173 260.293 54.816ZM271.986 56.096C271.09 56.096 270.348 55.9147 269.762 55.552C269.175 55.1787 268.738 54.6667 268.45 54.016C268.162 53.3653 268.018 52.624 268.018 51.792C268.018 50.9493 268.167 50.208 268.466 49.568C268.775 48.9173 269.223 48.4053 269.81 48.032C270.396 47.6587 271.116 47.472 271.97 47.472C272.599 47.472 273.148 47.5947 273.618 47.84C274.098 48.0747 274.492 48.3947 274.802 48.8C275.122 49.2053 275.351 49.6587 275.49 50.16C275.639 50.6613 275.703 51.1787 275.682 51.712C275.671 51.808 275.666 51.904 275.666 52C275.666 52.096 275.66 52.192 275.65 52.288H269.394C269.436 52.7787 269.559 53.2213 269.762 53.616C269.964 54.0107 270.252 54.3253 270.626 54.56C270.999 54.784 271.463 54.896 272.018 54.896C272.295 54.896 272.572 54.864 272.85 54.8C273.138 54.7253 273.394 54.6027 273.618 54.432C273.852 54.2613 274.018 54.032 274.114 53.744H275.506C275.378 54.288 275.138 54.736 274.786 55.088C274.434 55.4293 274.012 55.6853 273.522 55.856C273.031 56.016 272.519 56.096 271.986 56.096ZM269.426 51.104H274.306C274.295 50.624 274.188 50.2027 273.986 49.84C273.783 49.4773 273.506 49.1947 273.154 48.992C272.812 48.7893 272.402 48.688 271.922 48.688C271.399 48.688 270.956 48.8 270.594 49.024C270.242 49.248 269.97 49.5413 269.778 49.904C269.586 50.2667 269.468 50.6667 269.426 51.104ZM276.663 56.016V54.832C276.877 54.832 277.069 54.7893 277.239 54.704C277.41 54.608 277.559 54.4693 277.687 54.288C277.837 54.0747 277.954 53.7653 278.039 53.36C278.125 52.9547 278.183 52.5227 278.215 52.064C278.258 51.552 278.29 51.0507 278.311 50.56C278.333 50.0587 278.349 49.5627 278.359 49.072C278.381 48.5813 278.391 48.08 278.391 47.568H284.247V56H282.887V48.768H279.719C279.709 49.1307 279.693 49.4987 279.671 49.872C279.661 50.2347 279.645 50.6027 279.623 50.976C279.613 51.3387 279.597 51.7067 279.575 52.08C279.565 52.5067 279.522 52.9867 279.447 53.52C279.373 54.0533 279.213 54.5387 278.967 54.976C278.733 55.392 278.445 55.6693 278.103 55.808C277.773 55.9467 277.293 56.016 276.663 56.016ZM290.033 56.096C289.137 56.096 288.395 55.9147 287.809 55.552C287.222 55.1787 286.785 54.6667 286.497 54.016C286.209 53.3653 286.065 52.624 286.065 51.792C286.065 50.9493 286.214 50.208 286.513 49.568C286.822 48.9173 287.27 48.4053 287.857 48.032C288.443 47.6587 289.163 47.472 290.016 47.472C290.646 47.472 291.195 47.5947 291.665 47.84C292.145 48.0747 292.539 48.3947 292.849 48.8C293.169 49.2053 293.398 49.6587 293.536 50.16C293.686 50.6613 293.75 51.1787 293.729 51.712C293.718 51.808 293.713 51.904 293.713 52C293.713 52.096 293.707 52.192 293.697 52.288H287.441C287.483 52.7787 287.606 53.2213 287.809 53.616C288.011 54.0107 288.299 54.3253 288.673 54.56C289.046 54.784 289.51 54.896 290.065 54.896C290.342 54.896 290.619 54.864 290.897 54.8C291.185 54.7253 291.441 54.6027 291.665 54.432C291.899 54.2613 292.065 54.032 292.161 53.744H293.553C293.425 54.288 293.185 54.736 292.833 55.088C292.481 55.4293 292.059 55.6853 291.569 55.856C291.078 56.016 290.566 56.096 290.033 56.096ZM287.473 51.104H292.353C292.342 50.624 292.235 50.2027 292.033 49.84C291.83 49.4773 291.553 49.1947 291.201 48.992C290.859 48.7893 290.449 48.688 289.969 48.688C289.446 48.688 289.003 48.8 288.641 49.024C288.289 49.248 288.017 49.5413 287.825 49.904C287.633 50.2667 287.515 50.6667 287.473 51.104ZM295.556 56V47.568H296.916V51.264H301.14V47.568H302.5V56H301.14V52.464H296.916V56H295.556ZM304.65 56V47.568H306.01V51.264H310.234V47.568H311.594V56H310.234V52.464H306.01V56H304.65ZM313.744 56V47.568H315.136V50.784H316.656C317.157 50.784 317.611 50.8267 318.016 50.912C318.421 50.9973 318.768 51.136 319.056 51.328C319.344 51.52 319.563 51.7813 319.712 52.112C319.861 52.432 319.936 52.8373 319.936 53.328C319.936 53.7973 319.856 54.2027 319.696 54.544C319.536 54.8853 319.307 55.1627 319.008 55.376C318.72 55.5893 318.373 55.7493 317.968 55.856C317.573 55.952 317.141 56 316.672 56H313.744ZM315.136 54.816H315.584C315.957 54.816 316.32 54.8107 316.672 54.8C317.024 54.7787 317.339 54.7253 317.616 54.64C317.904 54.5547 318.133 54.416 318.304 54.224C318.475 54.0213 318.56 53.7387 318.56 53.376C318.56 53.0347 318.491 52.7733 318.352 52.592C318.224 52.4 318.053 52.2613 317.84 52.176C317.627 52.08 317.392 52.0213 317.136 52C316.891 51.9787 316.645 51.968 316.4 51.968H315.136V54.816ZM321.104 56V47.568H322.464V56H321.104ZM324.603 56V47.568H325.963V54.032C326.038 53.8827 326.139 53.7227 326.267 53.552C326.395 53.3707 326.497 53.232 326.571 53.136L330.651 47.568H331.995V56H330.635V49.536C330.55 49.696 330.454 49.8453 330.347 49.984C330.251 50.1227 330.161 50.2507 330.075 50.368L325.931 56H324.603ZM328.411 46.384C327.569 46.384 326.907 46.2027 326.427 45.84C325.958 45.4773 325.713 44.9493 325.691 44.256H326.939C326.961 44.6293 327.099 44.9013 327.355 45.072C327.622 45.2427 327.979 45.328 328.427 45.328C328.875 45.328 329.227 45.2427 329.483 45.072C329.75 44.9013 329.894 44.6293 329.915 44.256H331.163C331.153 44.7147 331.035 45.104 330.811 45.424C330.587 45.744 330.273 45.984 329.867 46.144C329.462 46.304 328.977 46.384 328.411 46.384ZM109.752 76.096C108.867 76.096 108.125 75.9147 107.528 75.552C106.931 75.1787 106.483 74.6667 106.184 74.016C105.896 73.3653 105.752 72.624 105.752 71.792C105.752 70.9493 105.896 70.208 106.184 69.568C106.483 68.9173 106.931 68.4053 107.528 68.032C108.125 67.6587 108.877 67.472 109.784 67.472C110.669 67.472 111.405 67.6587 111.992 68.032C112.589 68.4053 113.032 68.9173 113.32 69.568C113.619 70.208 113.768 70.9493 113.768 71.792C113.768 72.624 113.619 73.3653 113.32 74.016C113.021 74.6667 112.573 75.1787 111.976 75.552C111.389 75.9147 110.648 76.096 109.752 76.096ZM109.752 74.896C110.371 74.896 110.872 74.7573 111.256 74.48C111.651 74.2027 111.939 73.8293 112.12 73.36C112.312 72.8907 112.408 72.368 112.408 71.792C112.408 71.216 112.312 70.6933 112.12 70.224C111.939 69.7547 111.651 69.3813 111.256 69.104C110.872 68.8267 110.371 68.688 109.752 68.688C109.144 68.688 108.643 68.8267 108.248 69.104C107.864 69.3813 107.576 69.7547 107.384 70.224C107.203 70.6933 107.112 71.216 107.112 71.792C107.112 72.368 107.203 72.8907 107.384 73.36C107.576 73.8293 107.864 74.2027 108.248 74.48C108.643 74.7573 109.144 74.896 109.752 74.896ZM119.296 76.096C118.763 76.096 118.288 76.0213 117.872 75.872C117.456 75.712 117.099 75.4933 116.8 75.216C116.501 74.928 116.256 74.592 116.064 74.208C115.872 73.8133 115.728 73.3867 115.632 72.928C115.536 72.4693 115.488 71.984 115.488 71.472C115.488 70.6507 115.504 69.888 115.536 69.184C115.579 68.4693 115.696 67.8347 115.888 67.28C116.08 66.7147 116.405 66.2453 116.864 65.872C117.323 65.4987 117.968 65.2373 118.8 65.088C119.227 65.0133 119.648 64.9493 120.064 64.896C120.48 64.8427 120.901 64.7893 121.328 64.736C121.467 64.7147 121.611 64.6933 121.76 64.672C121.909 64.6507 122.064 64.624 122.224 64.592C122.395 64.56 122.555 64.5333 122.704 64.512V65.76C122.587 65.8027 122.459 65.84 122.32 65.872C122.192 65.8933 122.053 65.9147 121.904 65.936C121.765 65.9573 121.621 65.9733 121.472 65.984C121.333 65.9947 121.195 66.0107 121.056 66.032C120.917 66.0427 120.784 66.0587 120.656 66.08C120.283 66.1227 119.888 66.1653 119.472 66.208C119.056 66.24 118.661 66.3253 118.288 66.464C117.925 66.592 117.616 66.8427 117.36 67.216C117.232 67.408 117.12 67.6373 117.024 67.904C116.939 68.1707 116.875 68.4427 116.832 68.72C116.8 68.9867 116.779 69.2427 116.768 69.488C116.981 69.1893 117.243 68.9493 117.552 68.768C117.861 68.576 118.192 68.4373 118.544 68.352C118.896 68.256 119.232 68.208 119.552 68.208C120.32 68.208 120.971 68.368 121.504 68.688C122.037 68.9973 122.443 69.44 122.72 70.016C122.997 70.592 123.136 71.264 123.136 72.032C123.136 72.8 122.987 73.4933 122.688 74.112C122.389 74.72 121.952 75.2053 121.376 75.568C120.811 75.92 120.117 76.096 119.296 76.096ZM119.328 74.896C119.861 74.896 120.309 74.768 120.672 74.512C121.035 74.256 121.307 73.9147 121.488 73.488C121.68 73.0613 121.776 72.592 121.776 72.08C121.776 71.5787 121.68 71.1307 121.488 70.736C121.307 70.3307 121.035 70.0107 120.672 69.776C120.32 69.5413 119.883 69.424 119.36 69.424C118.848 69.424 118.405 69.5467 118.032 69.792C117.669 70.0373 117.387 70.368 117.184 70.784C116.992 71.1893 116.896 71.632 116.896 72.112C116.896 72.6027 116.987 73.0613 117.168 73.488C117.349 73.9147 117.616 74.256 117.968 74.512C118.331 74.768 118.784 74.896 119.328 74.896ZM126.163 76V68.768H124.115V67.568H127.555V70.784H129.427C129.928 70.784 130.376 70.8267 130.771 70.912C131.176 70.9867 131.517 71.1147 131.795 71.296C132.083 71.4773 132.301 71.728 132.451 72.048C132.611 72.368 132.691 72.768 132.691 73.248C132.691 73.7387 132.611 74.16 132.451 74.512C132.291 74.864 132.061 75.152 131.763 75.376C131.475 75.5893 131.133 75.7493 130.739 75.856C130.344 75.952 129.912 76 129.443 76H126.163ZM127.555 74.816H128.355C128.739 74.816 129.107 74.8107 129.459 74.8C129.821 74.7787 130.141 74.7253 130.419 74.64C130.696 74.5547 130.915 74.4053 131.075 74.192C131.235 73.9787 131.315 73.68 131.315 73.296C131.315 72.9867 131.251 72.7467 131.123 72.576C130.995 72.3947 130.824 72.2613 130.611 72.176C130.408 72.0907 130.179 72.0373 129.923 72.016C129.667 71.984 129.416 71.968 129.171 71.968H127.555V74.816ZM138.048 76.096C137.152 76.096 136.411 75.9147 135.824 75.552C135.237 75.1787 134.8 74.6667 134.512 74.016C134.224 73.3653 134.08 72.624 134.08 71.792C134.08 70.9493 134.229 70.208 134.528 69.568C134.837 68.9173 135.285 68.4053 135.872 68.032C136.459 67.6587 137.179 67.472 138.032 67.472C138.661 67.472 139.211 67.5947 139.68 67.84C140.16 68.0747 140.555 68.3947 140.864 68.8C141.184 69.2053 141.413 69.6587 141.552 70.16C141.701 70.6613 141.765 71.1787 141.744 71.712C141.733 71.808 141.728 71.904 141.728 72C141.728 72.096 141.723 72.192 141.712 72.288H135.456C135.499 72.7787 135.621 73.2213 135.824 73.616C136.027 74.0107 136.315 74.3253 136.688 74.56C137.061 74.784 137.525 74.896 138.08 74.896C138.357 74.896 138.635 74.864 138.912 74.8C139.2 74.7253 139.456 74.6027 139.68 74.432C139.915 74.2613 140.08 74.032 140.176 73.744H141.568C141.44 74.288 141.2 74.736 140.848 75.088C140.496 75.4293 140.075 75.6853 139.584 75.856C139.093 76.016 138.581 76.096 138.048 76.096ZM135.488 71.104H140.368C140.357 70.624 140.251 70.2027 140.048 69.84C139.845 69.4773 139.568 69.1947 139.216 68.992C138.875 68.7893 138.464 68.688 137.984 68.688C137.461 68.688 137.019 68.8 136.656 69.024C136.304 69.248 136.032 69.5413 135.84 69.904C135.648 70.2667 135.531 70.6667 135.488 71.104ZM143.572 76V67.568H144.932V71.2H146.404L148.9 67.568H150.452L147.636 71.584L150.692 76H149.092L146.564 72.384H144.932V76H143.572ZM153.837 76V68.768H150.941V67.568H158.093V68.768H155.197V76H153.837ZM163.619 76V67.568H164.979V74.032C165.054 73.8827 165.155 73.7227 165.283 73.552C165.411 73.3707 165.512 73.232 165.587 73.136L169.667 67.568H171.011V76H169.651V69.536C169.566 69.696 169.47 69.8453 169.363 69.984C169.267 70.1227 169.176 70.2507 169.091 70.368L164.947 76H163.619ZM180.519 76.096C180.113 76.096 179.708 76.0587 179.303 75.984C178.897 75.9093 178.519 75.7867 178.167 75.616C177.825 75.4347 177.548 75.1947 177.335 74.896C177.121 74.5867 177.004 74.2027 176.983 73.744H178.311C178.364 74.032 178.519 74.2613 178.775 74.432C179.031 74.6027 179.319 74.7253 179.639 74.8C179.969 74.864 180.263 74.896 180.519 74.896C180.817 74.896 181.121 74.864 181.431 74.8C181.751 74.736 182.017 74.608 182.231 74.416C182.455 74.224 182.567 73.9413 182.567 73.568C182.567 73.2053 182.476 72.9387 182.295 72.768C182.124 72.5973 181.895 72.4853 181.607 72.432C181.329 72.3787 181.025 72.352 180.695 72.352H179.191V71.152H180.423C180.625 71.152 180.833 71.136 181.047 71.104C181.26 71.0613 181.457 70.9973 181.639 70.912C181.82 70.816 181.964 70.6827 182.071 70.512C182.188 70.3413 182.247 70.1227 182.247 69.856C182.247 69.5573 182.161 69.3227 181.991 69.152C181.82 68.9813 181.601 68.864 181.335 68.8C181.068 68.7253 180.796 68.688 180.519 68.688C180.263 68.688 179.991 68.7147 179.703 68.768C179.425 68.8213 179.185 68.928 178.983 69.088C178.78 69.2373 178.657 69.4613 178.615 69.76H177.271C177.292 69.184 177.468 68.7307 177.799 68.4C178.129 68.0693 178.54 67.8347 179.031 67.696C179.521 67.5467 180.012 67.472 180.503 67.472C180.876 67.472 181.244 67.5093 181.607 67.584C181.969 67.6587 182.3 67.7867 182.599 67.968C182.897 68.1387 183.132 68.368 183.303 68.656C183.484 68.944 183.575 69.3013 183.575 69.728C183.575 70.112 183.484 70.4533 183.303 70.752C183.121 71.0507 182.844 71.2907 182.471 71.472C183.015 71.6427 183.393 71.9093 183.607 72.272C183.82 72.6347 183.927 73.0667 183.927 73.568C183.927 74.016 183.831 74.4 183.639 74.72C183.447 75.0293 183.185 75.2907 182.855 75.504C182.535 75.7067 182.172 75.856 181.767 75.952C181.361 76.048 180.945 76.096 180.519 76.096ZM188.385 76.096C188.001 76.096 187.628 76.048 187.265 75.952C186.913 75.8453 186.593 75.6907 186.305 75.488C186.028 75.2747 185.804 75.0133 185.633 74.704C185.473 74.384 185.393 74.016 185.393 73.6C185.393 73.12 185.479 72.7147 185.649 72.384C185.831 72.0533 186.071 71.792 186.369 71.6C186.668 71.408 187.015 71.2693 187.409 71.184C187.804 71.0987 188.215 71.056 188.641 71.056H191.121C191.121 70.576 191.052 70.16 190.913 69.808C190.785 69.456 190.572 69.184 190.273 68.992C189.975 68.7893 189.58 68.688 189.089 68.688C188.791 68.688 188.513 68.72 188.257 68.784C188.001 68.848 187.783 68.9493 187.601 69.088C187.42 69.2267 187.287 69.4133 187.201 69.648H185.745C185.82 69.264 185.964 68.9387 186.177 68.672C186.401 68.3947 186.668 68.1707 186.977 68C187.297 67.8187 187.639 67.6853 188.001 67.6C188.364 67.5147 188.727 67.472 189.089 67.472C189.9 67.472 190.551 67.6373 191.041 67.968C191.532 68.288 191.889 68.7467 192.113 69.344C192.337 69.9307 192.449 70.6293 192.449 71.44V76H191.313L191.233 74.928C190.999 75.248 190.716 75.4933 190.385 75.664C190.055 75.8347 189.713 75.9467 189.361 76C189.02 76.064 188.695 76.096 188.385 76.096ZM188.513 74.896C189.047 74.896 189.505 74.8107 189.889 74.64C190.284 74.4587 190.588 74.1973 190.801 73.856C191.015 73.5147 191.121 73.0987 191.121 72.608V72.192H189.633C189.281 72.192 188.935 72.1973 188.593 72.208C188.252 72.2187 187.943 72.2613 187.665 72.336C187.388 72.4107 187.164 72.5387 186.993 72.72C186.833 72.9013 186.753 73.1627 186.753 73.504C186.753 73.824 186.833 74.0853 186.993 74.288C187.164 74.4907 187.383 74.6453 187.649 74.752C187.927 74.848 188.215 74.896 188.513 74.896ZM194.556 76V67.568H195.916V71.2H197.388L199.884 67.568H201.436L198.62 71.584L201.676 76H200.076L197.548 72.384H195.916V76H194.556ZM202.853 79.04V67.568H204.149L204.213 68.864C204.501 68.4053 204.891 68.0587 205.381 67.824C205.883 67.5893 206.421 67.472 206.997 67.472C207.851 67.472 208.549 67.664 209.093 68.048C209.637 68.4213 210.037 68.9333 210.293 69.584C210.56 70.2347 210.693 70.9707 210.693 71.792C210.693 72.6133 210.56 73.3493 210.293 74C210.027 74.6507 209.616 75.1627 209.061 75.536C208.507 75.9093 207.797 76.096 206.933 76.096C206.507 76.096 206.123 76.0533 205.781 75.968C205.44 75.872 205.141 75.7387 204.885 75.568C204.629 75.3973 204.405 75.2053 204.213 74.992V79.04H202.853ZM206.821 74.896C207.44 74.896 207.931 74.7573 208.293 74.48C208.656 74.192 208.917 73.8133 209.077 73.344C209.248 72.8747 209.333 72.3573 209.333 71.792C209.333 71.216 209.248 70.6933 209.077 70.224C208.917 69.7547 208.651 69.3813 208.277 69.104C207.904 68.8267 207.408 68.688 206.789 68.688C206.235 68.688 205.76 68.832 205.365 69.12C204.981 69.3973 204.688 69.776 204.485 70.256C204.283 70.7253 204.181 71.2427 204.181 71.808C204.181 72.3947 204.277 72.9227 204.469 73.392C204.661 73.8613 204.955 74.2293 205.349 74.496C205.744 74.7627 206.235 74.896 206.821 74.896ZM212.447 76V67.568H213.839V70.784H215.359C215.86 70.784 216.314 70.8267 216.719 70.912C217.124 70.9973 217.471 71.136 217.759 71.328C218.047 71.52 218.266 71.7813 218.415 72.112C218.564 72.432 218.639 72.8373 218.639 73.328C218.639 73.7973 218.559 74.2027 218.399 74.544C218.239 74.8853 218.01 75.1627 217.711 75.376C217.423 75.5893 217.076 75.7493 216.671 75.856C216.276 75.952 215.844 76 215.375 76H212.447ZM213.839 74.816H214.287C214.66 74.816 215.023 74.8107 215.375 74.8C215.727 74.7787 216.042 74.7253 216.319 74.64C216.607 74.5547 216.836 74.416 217.007 74.224C217.178 74.0213 217.263 73.7387 217.263 73.376C217.263 73.0347 217.194 72.7733 217.055 72.592C216.927 72.4 216.756 72.2613 216.543 72.176C216.33 72.08 216.095 72.0213 215.839 72C215.594 71.9787 215.348 71.968 215.103 71.968H213.839V74.816ZM219.807 76V67.568H221.167V76H219.807ZM223.306 76V67.568H226.57C226.944 67.568 227.312 67.5947 227.674 67.648C228.048 67.6907 228.384 67.7867 228.682 67.936C228.992 68.0747 229.237 68.2827 229.418 68.56C229.61 68.8373 229.706 69.2053 229.706 69.664C229.706 69.9413 229.664 70.1973 229.578 70.432C229.493 70.656 229.365 70.8533 229.194 71.024C229.034 71.1947 228.826 71.344 228.57 71.472C229.146 71.6 229.562 71.8507 229.818 72.224C230.074 72.5973 230.202 73.024 230.202 73.504C230.202 73.9307 230.122 74.304 229.962 74.624C229.813 74.9333 229.6 75.1893 229.322 75.392C229.056 75.5947 228.741 75.7493 228.378 75.856C228.026 75.952 227.648 76 227.242 76H223.306ZM224.698 74.816H226.922C227.253 74.816 227.562 74.784 227.85 74.72C228.138 74.656 228.373 74.5387 228.554 74.368C228.736 74.1867 228.826 73.9307 228.826 73.6C228.826 73.2587 228.746 73.0027 228.586 72.832C228.437 72.6507 228.24 72.528 227.994 72.464C227.76 72.3893 227.504 72.3467 227.226 72.336C226.949 72.3253 226.688 72.32 226.442 72.32H224.698V74.816ZM224.698 71.168H225.866C226.08 71.168 226.325 71.1573 226.602 71.136C226.89 71.1147 227.168 71.0667 227.434 70.992C227.712 70.9067 227.936 70.7787 228.106 70.608C228.288 70.4373 228.378 70.2027 228.378 69.904C228.378 69.5093 228.266 69.2373 228.042 69.088C227.829 68.928 227.573 68.8373 227.274 68.816C226.976 68.784 226.698 68.768 226.442 68.768H224.698V71.168ZM234.76 76.096C234.376 76.096 234.003 76.048 233.64 75.952C233.288 75.8453 232.968 75.6907 232.68 75.488C232.403 75.2747 232.179 75.0133 232.008 74.704C231.848 74.384 231.768 74.016 231.768 73.6C231.768 73.12 231.854 72.7147 232.024 72.384C232.206 72.0533 232.446 71.792 232.744 71.6C233.043 71.408 233.39 71.2693 233.784 71.184C234.179 71.0987 234.59 71.056 235.016 71.056H237.496C237.496 70.576 237.427 70.16 237.288 69.808C237.16 69.456 236.947 69.184 236.648 68.992C236.35 68.7893 235.955 68.688 235.464 68.688C235.166 68.688 234.888 68.72 234.632 68.784C234.376 68.848 234.158 68.9493 233.976 69.088C233.795 69.2267 233.662 69.4133 233.576 69.648H232.12C232.195 69.264 232.339 68.9387 232.552 68.672C232.776 68.3947 233.043 68.1707 233.352 68C233.672 67.8187 234.014 67.6853 234.376 67.6C234.739 67.5147 235.102 67.472 235.464 67.472C236.275 67.472 236.926 67.6373 237.416 67.968C237.907 68.288 238.264 68.7467 238.488 69.344C238.712 69.9307 238.824 70.6293 238.824 71.44V76H237.688L237.608 74.928C237.374 75.248 237.091 75.4933 236.76 75.664C236.43 75.8347 236.088 75.9467 235.736 76C235.395 76.064 235.07 76.096 234.76 76.096ZM234.888 74.896C235.422 74.896 235.88 74.8107 236.264 74.64C236.659 74.4587 236.963 74.1973 237.176 73.856C237.39 73.5147 237.496 73.0987 237.496 72.608V72.192H236.008C235.656 72.192 235.31 72.1973 234.968 72.208C234.627 72.2187 234.318 72.2613 234.04 72.336C233.763 72.4107 233.539 72.5387 233.368 72.72C233.208 72.9013 233.128 73.1627 233.128 73.504C233.128 73.824 233.208 74.0853 233.368 74.288C233.539 74.4907 233.758 74.6453 234.024 74.752C234.302 74.848 234.59 74.896 234.888 74.896ZM244.579 76.096C243.683 76.096 242.942 75.9147 242.355 75.552C241.769 75.1787 241.331 74.6667 241.043 74.016C240.755 73.3653 240.611 72.624 240.611 71.792C240.611 70.9493 240.761 70.208 241.059 69.568C241.369 68.9173 241.817 68.4053 242.403 68.032C242.99 67.6587 243.71 67.472 244.563 67.472C245.193 67.472 245.742 67.5947 246.211 67.84C246.691 68.0747 247.086 68.3947 247.395 68.8C247.715 69.2053 247.945 69.6587 248.083 70.16C248.233 70.6613 248.297 71.1787 248.275 71.712C248.265 71.808 248.259 71.904 248.259 72C248.259 72.096 248.254 72.192 248.243 72.288H241.987C242.03 72.7787 242.153 73.2213 242.355 73.616C242.558 74.0107 242.846 74.3253 243.219 74.56C243.593 74.784 244.057 74.896 244.611 74.896C244.889 74.896 245.166 74.864 245.443 74.8C245.731 74.7253 245.987 74.6027 246.211 74.432C246.446 74.2613 246.611 74.032 246.707 73.744H248.099C247.971 74.288 247.731 74.736 247.379 75.088C247.027 75.4293 246.606 75.6853 246.115 75.856C245.625 76.016 245.113 76.096 244.579 76.096ZM242.019 71.104H246.899C246.889 70.624 246.782 70.2027 246.579 69.84C246.377 69.4773 246.099 69.1947 245.747 68.992C245.406 68.7893 244.995 68.688 244.515 68.688C243.993 68.688 243.55 68.8 243.187 69.024C242.835 69.248 242.563 69.5413 242.371 69.904C242.179 70.2667 242.062 70.6667 242.019 71.104ZM252.071 76V68.768H249.175V67.568H256.327V68.768H253.431V76H252.071ZM261.853 76V67.568H263.213V71.2H264.685L267.181 67.568H268.733L265.917 71.584L268.973 76H267.373L264.845 72.384H263.213V76H261.853ZM270.15 76V67.568H271.51V71.264H275.734V67.568H277.094V76H275.734V72.464H271.51V76H270.15ZM282.924 76.096C282.039 76.096 281.297 75.9147 280.7 75.552C280.103 75.1787 279.655 74.6667 279.356 74.016C279.068 73.3653 278.924 72.624 278.924 71.792C278.924 70.9493 279.068 70.208 279.356 69.568C279.655 68.9173 280.103 68.4053 280.7 68.032C281.297 67.6587 282.049 67.472 282.956 67.472C283.841 67.472 284.577 67.6587 285.164 68.032C285.761 68.4053 286.204 68.9173 286.492 69.568C286.791 70.208 286.94 70.9493 286.94 71.792C286.94 72.624 286.791 73.3653 286.492 74.016C286.193 74.6667 285.745 75.1787 285.148 75.552C284.561 75.9147 283.82 76.096 282.924 76.096ZM282.924 74.896C283.543 74.896 284.044 74.7573 284.428 74.48C284.823 74.2027 285.111 73.8293 285.292 73.36C285.484 72.8907 285.58 72.368 285.58 71.792C285.58 71.216 285.484 70.6933 285.292 70.224C285.111 69.7547 284.823 69.3813 284.428 69.104C284.044 68.8267 283.543 68.688 282.924 68.688C282.316 68.688 281.815 68.8267 281.42 69.104C281.036 69.3813 280.748 69.7547 280.556 70.224C280.375 70.6933 280.284 71.216 280.284 71.792C280.284 72.368 280.375 72.8907 280.556 73.36C280.748 73.8293 281.036 74.2027 281.42 74.48C281.815 74.7573 282.316 74.896 282.924 74.896ZM288.76 76V67.568H295.752V76H294.392V68.768H290.12V76H288.76ZM297.9 76V67.568H299.26V71.2H300.732L303.228 67.568H304.78L301.964 71.584L305.02 76H303.42L300.892 72.384H299.26V76H297.9ZM306.197 76V67.568H307.557V74.032C307.632 73.8827 307.733 73.7227 307.861 73.552C307.989 73.3707 308.09 73.232 308.165 73.136L312.245 67.568H313.589V76H312.229V69.536C312.144 69.696 312.048 69.8453 311.941 69.984C311.845 70.1227 311.754 70.2507 311.669 70.368L307.525 76H306.197ZM106.344 99.616V98.32C106.867 98.32 107.283 98.2453 107.592 98.096C107.901 97.9573 108.157 97.7333 108.36 97.424C108.573 97.1253 108.776 96.7413 108.968 96.272L105.272 87.568H106.872L109.72 94.672L112.056 87.568H113.592L111.224 94.208C111.107 94.5493 110.973 94.9333 110.824 95.36C110.675 95.7867 110.509 96.2187 110.328 96.656C110.147 97.104 109.944 97.5147 109.72 97.888C109.507 98.272 109.267 98.5813 109 98.816C108.776 99.0187 108.557 99.1787 108.344 99.296C108.131 99.4133 107.869 99.4933 107.56 99.536C107.261 99.5893 106.856 99.616 106.344 99.616ZM114.853 96V87.568H121.845V96H120.485V88.768H116.213V96H114.853ZM123.994 99.04V87.568H125.29L125.354 88.864C125.642 88.4053 126.031 88.0587 126.522 87.824C127.023 87.5893 127.562 87.472 128.138 87.472C128.991 87.472 129.69 87.664 130.234 88.048C130.778 88.4213 131.178 88.9333 131.434 89.584C131.701 90.2347 131.834 90.9707 131.834 91.792C131.834 92.6133 131.701 93.3493 131.434 94C131.167 94.6507 130.757 95.1627 130.202 95.536C129.647 95.9093 128.938 96.096 128.074 96.096C127.647 96.096 127.263 96.0533 126.922 95.968C126.581 95.872 126.282 95.7387 126.026 95.568C125.77 95.3973 125.546 95.2053 125.354 94.992V99.04H123.994ZM127.962 94.896C128.581 94.896 129.071 94.7573 129.434 94.48C129.797 94.192 130.058 93.8133 130.218 93.344C130.389 92.8747 130.474 92.3573 130.474 91.792C130.474 91.216 130.389 90.6933 130.218 90.224C130.058 89.7547 129.791 89.3813 129.418 89.104C129.045 88.8267 128.549 88.688 127.93 88.688C127.375 88.688 126.901 88.832 126.506 89.12C126.122 89.3973 125.829 89.776 125.626 90.256C125.423 90.7253 125.322 91.2427 125.322 91.808C125.322 92.3947 125.418 92.9227 125.61 93.392C125.802 93.8613 126.095 94.2293 126.49 94.496C126.885 94.7627 127.375 94.896 127.962 94.896ZM136.292 96.096C135.908 96.096 135.534 96.048 135.172 95.952C134.82 95.8453 134.5 95.6907 134.212 95.488C133.934 95.2747 133.71 95.0133 133.54 94.704C133.38 94.384 133.3 94.016 133.3 93.6C133.3 93.12 133.385 92.7147 133.556 92.384C133.737 92.0533 133.977 91.792 134.276 91.6C134.574 91.408 134.921 91.2693 135.316 91.184C135.71 91.0987 136.121 91.056 136.548 91.056H139.028C139.028 90.576 138.958 90.16 138.82 89.808C138.692 89.456 138.478 89.184 138.18 88.992C137.881 88.7893 137.486 88.688 136.996 88.688C136.697 88.688 136.42 88.72 136.164 88.784C135.908 88.848 135.689 88.9493 135.508 89.088C135.326 89.2267 135.193 89.4133 135.108 89.648H133.652C133.726 89.264 133.87 88.9387 134.084 88.672C134.308 88.3947 134.574 88.1707 134.884 88C135.204 87.8187 135.545 87.6853 135.908 87.6C136.27 87.5147 136.633 87.472 136.996 87.472C137.806 87.472 138.457 87.6373 138.948 87.968C139.438 88.288 139.796 88.7467 140.02 89.344C140.244 89.9307 140.356 90.6293 140.356 91.44V96H139.22L139.14 94.928C138.905 95.248 138.622 95.4933 138.292 95.664C137.961 95.8347 137.62 95.9467 137.268 96C136.926 96.064 136.601 96.096 136.292 96.096ZM136.42 94.896C136.953 94.896 137.412 94.8107 137.796 94.64C138.19 94.4587 138.494 94.1973 138.708 93.856C138.921 93.5147 139.028 93.0987 139.028 92.608V92.192H137.54C137.188 92.192 136.841 92.1973 136.5 92.208C136.158 92.2187 135.849 92.2613 135.572 92.336C135.294 92.4107 135.07 92.5387 134.9 92.72C134.74 92.9013 134.66 93.1627 134.66 93.504C134.66 93.824 134.74 94.0853 134.9 94.288C135.07 94.4907 135.289 94.6453 135.556 94.752C135.833 94.848 136.121 94.896 136.42 94.896ZM142.463 96V87.568H145.727C146.1 87.568 146.468 87.5947 146.831 87.648C147.204 87.6907 147.54 87.7867 147.839 87.936C148.148 88.0747 148.393 88.2827 148.575 88.56C148.767 88.8373 148.863 89.2053 148.863 89.664C148.863 89.9413 148.82 90.1973 148.735 90.432C148.649 90.656 148.521 90.8533 148.351 91.024C148.191 91.1947 147.983 91.344 147.727 91.472C148.303 91.6 148.719 91.8507 148.975 92.224C149.231 92.5973 149.359 93.024 149.359 93.504C149.359 93.9307 149.279 94.304 149.119 94.624C148.969 94.9333 148.756 95.1893 148.479 95.392C148.212 95.5947 147.897 95.7493 147.535 95.856C147.183 95.952 146.804 96 146.399 96H142.463ZM143.855 94.816H146.079C146.409 94.816 146.719 94.784 147.007 94.72C147.295 94.656 147.529 94.5387 147.711 94.368C147.892 94.1867 147.983 93.9307 147.983 93.6C147.983 93.2587 147.903 93.0027 147.743 92.832C147.593 92.6507 147.396 92.528 147.151 92.464C146.916 92.3893 146.66 92.3467 146.383 92.336C146.105 92.3253 145.844 92.32 145.599 92.32H143.855V94.816ZM143.855 91.168H145.023C145.236 91.168 145.481 91.1573 145.759 91.136C146.047 91.1147 146.324 91.0667 146.591 90.992C146.868 90.9067 147.092 90.7787 147.263 90.608C147.444 90.4373 147.535 90.2027 147.535 89.904C147.535 89.5093 147.423 89.2373 147.199 89.088C146.985 88.928 146.729 88.8373 146.431 88.816C146.132 88.784 145.855 88.768 145.599 88.768H143.855V91.168ZM150.445 96.016V94.832C150.658 94.832 150.85 94.7893 151.021 94.704C151.191 94.608 151.341 94.4693 151.469 94.288C151.618 94.0747 151.735 93.7653 151.821 93.36C151.906 92.9547 151.965 92.5227 151.997 92.064C152.039 91.552 152.071 91.0507 152.093 90.56C152.114 90.0587 152.13 89.5627 152.141 89.072C152.162 88.5813 152.173 88.08 152.173 87.568H158.029V96H156.669V88.768H153.501C153.49 89.1307 153.474 89.4987 153.453 89.872C153.442 90.2347 153.426 90.6027 153.405 90.976C153.394 91.3387 153.378 91.7067 153.357 92.08C153.346 92.5067 153.303 92.9867 153.229 93.52C153.154 94.0533 152.994 94.5387 152.749 94.976C152.514 95.392 152.226 95.6693 151.885 95.808C151.554 95.9467 151.074 96.016 150.445 96.016ZM163.814 96.096C162.918 96.096 162.176 95.9147 161.59 95.552C161.003 95.1787 160.566 94.6667 160.278 94.016C159.99 93.3653 159.846 92.624 159.846 91.792C159.846 90.9493 159.995 90.208 160.294 89.568C160.603 88.9173 161.051 88.4053 161.638 88.032C162.224 87.6587 162.944 87.472 163.798 87.472C164.427 87.472 164.976 87.5947 165.446 87.84C165.926 88.0747 166.32 88.3947 166.63 88.8C166.95 89.2053 167.179 89.6587 167.318 90.16C167.467 90.6613 167.531 91.1787 167.51 91.712C167.499 91.808 167.494 91.904 167.494 92C167.494 92.096 167.488 92.192 167.478 92.288H161.222C161.264 92.7787 161.387 93.2213 161.59 93.616C161.792 94.0107 162.08 94.3253 162.454 94.56C162.827 94.784 163.291 94.896 163.846 94.896C164.123 94.896 164.4 94.864 164.678 94.8C164.966 94.7253 165.222 94.6027 165.446 94.432C165.68 94.2613 165.846 94.032 165.942 93.744H167.334C167.206 94.288 166.966 94.736 166.614 95.088C166.262 95.4293 165.84 95.6853 165.35 95.856C164.859 96.016 164.347 96.096 163.814 96.096ZM161.254 91.104H166.134C166.123 90.624 166.016 90.2027 165.814 89.84C165.611 89.4773 165.334 89.1947 164.982 88.992C164.64 88.7893 164.23 88.688 163.75 88.688C163.227 88.688 162.784 88.8 162.422 89.024C162.07 89.248 161.798 89.5413 161.606 89.904C161.414 90.2667 161.296 90.6667 161.254 91.104ZM169.338 96V87.568H170.698V91.264H174.922V87.568H176.282V96H174.922V92.464H170.698V96H169.338ZM178.431 96V87.568H179.791V94.032C179.866 93.8827 179.967 93.7227 180.095 93.552C180.223 93.3707 180.325 93.232 180.399 93.136L184.479 87.568H185.823V96H184.463V89.536C184.378 89.696 184.282 89.8453 184.175 89.984C184.079 90.1227 183.989 90.2507 183.903 90.368L179.759 96H178.431ZM187.435 96L189.627 92.672C189.019 92.5013 188.539 92.224 188.187 91.84C187.835 91.4453 187.659 90.9227 187.659 90.272C187.659 89.76 187.733 89.3333 187.883 88.992C188.032 88.64 188.251 88.3627 188.539 88.16C188.827 87.9467 189.173 87.7973 189.579 87.712C189.984 87.616 190.448 87.568 190.971 87.568H194.363V96H193.003V92.88H191.067L189.019 96H187.435ZM191.995 91.696H193.003V88.768H191.195C190.875 88.768 190.581 88.784 190.315 88.816C190.048 88.848 189.819 88.9173 189.627 89.024C189.445 89.12 189.301 89.264 189.195 89.456C189.088 89.6373 189.035 89.888 189.035 90.208C189.035 90.56 189.12 90.8373 189.291 91.04C189.472 91.2427 189.701 91.392 189.979 91.488C190.267 91.5733 190.587 91.632 190.939 91.664C191.291 91.6853 191.643 91.696 191.995 91.696ZM204.502 96.096C203.617 96.096 202.875 95.9147 202.278 95.552C201.681 95.1787 201.233 94.6667 200.934 94.016C200.646 93.3653 200.502 92.624 200.502 91.792C200.502 90.9493 200.646 90.208 200.934 89.568C201.233 88.9173 201.681 88.4053 202.278 88.032C202.875 87.6587 203.627 87.472 204.534 87.472C205.419 87.472 206.155 87.6587 206.742 88.032C207.339 88.4053 207.782 88.9173 208.07 89.568C208.369 90.208 208.518 90.9493 208.518 91.792C208.518 92.624 208.369 93.3653 208.07 94.016C207.771 94.6667 207.323 95.1787 206.726 95.552C206.139 95.9147 205.398 96.096 204.502 96.096ZM204.502 94.896C205.121 94.896 205.622 94.7573 206.006 94.48C206.401 94.2027 206.689 93.8293 206.87 93.36C207.062 92.8907 207.158 92.368 207.158 91.792C207.158 91.216 207.062 90.6933 206.87 90.224C206.689 89.7547 206.401 89.3813 206.006 89.104C205.622 88.8267 205.121 88.688 204.502 88.688C203.894 88.688 203.393 88.8267 202.998 89.104C202.614 89.3813 202.326 89.7547 202.134 90.224C201.953 90.6933 201.862 91.216 201.862 91.792C201.862 92.368 201.953 92.8907 202.134 93.36C202.326 93.8293 202.614 94.2027 202.998 94.48C203.393 94.7573 203.894 94.896 204.502 94.896ZM214.046 96.096C213.513 96.096 213.038 96.0213 212.622 95.872C212.206 95.712 211.849 95.4933 211.55 95.216C211.251 94.928 211.006 94.592 210.814 94.208C210.622 93.8133 210.478 93.3867 210.382 92.928C210.286 92.4693 210.238 91.984 210.238 91.472C210.238 90.6507 210.254 89.888 210.286 89.184C210.329 88.4693 210.446 87.8347 210.638 87.28C210.83 86.7147 211.155 86.2453 211.614 85.872C212.073 85.4987 212.718 85.2373 213.55 85.088C213.977 85.0133 214.398 84.9493 214.814 84.896C215.23 84.8427 215.651 84.7893 216.078 84.736C216.217 84.7147 216.361 84.6933 216.51 84.672C216.659 84.6507 216.814 84.624 216.974 84.592C217.145 84.56 217.305 84.5333 217.454 84.512V85.76C217.337 85.8027 217.209 85.84 217.07 85.872C216.942 85.8933 216.803 85.9147 216.654 85.936C216.515 85.9573 216.371 85.9733 216.222 85.984C216.083 85.9947 215.945 86.0107 215.806 86.032C215.667 86.0427 215.534 86.0587 215.406 86.08C215.033 86.1227 214.638 86.1653 214.222 86.208C213.806 86.24 213.411 86.3253 213.038 86.464C212.675 86.592 212.366 86.8427 212.11 87.216C211.982 87.408 211.87 87.6373 211.774 87.904C211.689 88.1707 211.625 88.4427 211.582 88.72C211.55 88.9867 211.529 89.2427 211.518 89.488C211.731 89.1893 211.993 88.9493 212.302 88.768C212.611 88.576 212.942 88.4373 213.294 88.352C213.646 88.256 213.982 88.208 214.302 88.208C215.07 88.208 215.721 88.368 216.254 88.688C216.787 88.9973 217.193 89.44 217.47 90.016C217.747 90.592 217.886 91.264 217.886 92.032C217.886 92.8 217.737 93.4933 217.438 94.112C217.139 94.72 216.702 95.2053 216.126 95.568C215.561 95.92 214.867 96.096 214.046 96.096ZM214.078 94.896C214.611 94.896 215.059 94.768 215.422 94.512C215.785 94.256 216.057 93.9147 216.238 93.488C216.43 93.0613 216.526 92.592 216.526 92.08C216.526 91.5787 216.43 91.1307 216.238 90.736C216.057 90.3307 215.785 90.0107 215.422 89.776C215.07 89.5413 214.633 89.424 214.11 89.424C213.598 89.424 213.155 89.5467 212.782 89.792C212.419 90.0373 212.137 90.368 211.934 90.784C211.742 91.1893 211.646 91.632 211.646 92.112C211.646 92.6027 211.737 93.0613 211.918 93.488C212.099 93.9147 212.366 94.256 212.718 94.512C213.081 94.768 213.534 94.896 214.078 94.896ZM220.913 96V88.768H218.865V87.568H222.305V90.784H224.177C224.678 90.784 225.126 90.8267 225.521 90.912C225.926 90.9867 226.267 91.1147 226.545 91.296C226.833 91.4773 227.051 91.728 227.201 92.048C227.361 92.368 227.441 92.768 227.441 93.248C227.441 93.7387 227.361 94.16 227.201 94.512C227.041 94.864 226.811 95.152 226.513 95.376C226.225 95.5893 225.883 95.7493 225.489 95.856C225.094 95.952 224.662 96 224.193 96H220.913ZM222.305 94.816H223.105C223.489 94.816 223.857 94.8107 224.209 94.8C224.571 94.7787 224.891 94.7253 225.169 94.64C225.446 94.5547 225.665 94.4053 225.825 94.192C225.985 93.9787 226.065 93.68 226.065 93.296C226.065 92.9867 226.001 92.7467 225.873 92.576C225.745 92.3947 225.574 92.2613 225.361 92.176C225.158 92.0907 224.929 92.0373 224.673 92.016C224.417 91.984 224.166 91.968 223.921 91.968H222.305V94.816ZM232.798 96.096C231.902 96.096 231.161 95.9147 230.574 95.552C229.987 95.1787 229.55 94.6667 229.262 94.016C228.974 93.3653 228.83 92.624 228.83 91.792C228.83 90.9493 228.979 90.208 229.278 89.568C229.587 88.9173 230.035 88.4053 230.622 88.032C231.209 87.6587 231.929 87.472 232.782 87.472C233.411 87.472 233.961 87.5947 234.43 87.84C234.91 88.0747 235.305 88.3947 235.614 88.8C235.934 89.2053 236.163 89.6587 236.302 90.16C236.451 90.6613 236.515 91.1787 236.494 91.712C236.483 91.808 236.478 91.904 236.478 92C236.478 92.096 236.473 92.192 236.462 92.288H230.206C230.249 92.7787 230.371 93.2213 230.574 93.616C230.777 94.0107 231.065 94.3253 231.438 94.56C231.811 94.784 232.275 94.896 232.83 94.896C233.107 94.896 233.385 94.864 233.662 94.8C233.95 94.7253 234.206 94.6027 234.43 94.432C234.665 94.2613 234.83 94.032 234.926 93.744H236.318C236.19 94.288 235.95 94.736 235.598 95.088C235.246 95.4293 234.825 95.6853 234.334 95.856C233.843 96.016 233.331 96.096 232.798 96.096ZM230.238 91.104H235.118C235.107 90.624 235.001 90.2027 234.798 89.84C234.595 89.4773 234.318 89.1947 233.966 88.992C233.625 88.7893 233.214 88.688 232.734 88.688C232.211 88.688 231.769 88.8 231.406 89.024C231.054 89.248 230.782 89.5413 230.59 89.904C230.398 90.2667 230.281 90.6667 230.238 91.104ZM238.322 96V87.568H239.682V91.2H241.154L243.65 87.568H245.202L242.386 91.584L245.442 96H243.842L241.314 92.384H239.682V96H238.322ZM248.587 96V88.768H245.691V87.568H252.843V88.768H249.947V96H248.587ZM257.736 96.096C256.851 96.096 256.11 95.9147 255.512 95.552C254.915 95.1787 254.467 94.6667 254.168 94.016C253.88 93.3653 253.736 92.624 253.736 91.792C253.736 90.9493 253.88 90.208 254.168 89.568C254.467 88.9173 254.915 88.4053 255.512 88.032C256.11 87.6587 256.862 87.472 257.768 87.472C258.654 87.472 259.39 87.6587 259.976 88.032C260.574 88.4053 261.016 88.9173 261.304 89.568C261.603 90.208 261.752 90.9493 261.752 91.792C261.752 92.624 261.603 93.3653 261.304 94.016C261.006 94.6667 260.558 95.1787 259.96 95.552C259.374 95.9147 258.632 96.096 257.736 96.096ZM257.736 94.896C258.355 94.896 258.856 94.7573 259.24 94.48C259.635 94.2027 259.923 93.8293 260.104 93.36C260.296 92.8907 260.392 92.368 260.392 91.792C260.392 91.216 260.296 90.6933 260.104 90.224C259.923 89.7547 259.635 89.3813 259.24 89.104C258.856 88.8267 258.355 88.688 257.736 88.688C257.128 88.688 256.627 88.8267 256.232 89.104C255.848 89.3813 255.56 89.7547 255.368 90.224C255.187 90.6933 255.096 91.216 255.096 91.792C255.096 92.368 255.187 92.8907 255.368 93.36C255.56 93.8293 255.848 94.2027 256.232 94.48C256.627 94.7573 257.128 94.896 257.736 94.896ZM263.572 96V87.568H265.396L268.132 91.792L270.82 87.568H272.612V96H271.268V89.072L268.292 93.84H267.908L264.916 89.072V96H263.572Z" fill="black"/>
</svg>
