<svg width="408" height="191" viewBox="0 0 408 191" fill="none" xmlns="http://www.w3.org/2000/svg">
<mask id="mask0_180_3392" style="mask-type:alpha" maskUnits="userSpaceOnUse" x="0" y="0" width="408" height="191">
<rect width="408" height="191" fill="#D9D9D9"/>
</mask>
<g mask="url(#mask0_180_3392)">
<path d="M378 0C394.569 2.31934e-06 408 13.4315 408 30V140C408 156.569 394.569 170 378 170H220C214.477 170 210 174.477 210 180V181C210 186.523 214.477 191 220 191H260.5C272.926 191 283 201.074 283 213.5C283 225.926 272.926 236 260.5 236H147.5C135.074 236 125 225.926 125 213.5C125 201.074 135.074 191 147.5 191H188C193.523 191 198 186.523 198 181V180C198 174.477 193.523 170 188 170H30C13.4315 170 4.02687e-07 156.569 0 140V30C0 13.4315 13.4315 6.76473e-07 30 0H378Z" fill="white"/>
</g>
<path d="M36.096 50.128C34.9227 50.128 33.9413 49.8773 33.152 49.376C32.3627 48.8747 31.7653 48.1867 31.36 47.312C30.9653 46.4373 30.768 45.4507 30.768 44.352C30.768 43.2427 30.9653 42.2507 31.36 41.376C31.7653 40.5013 32.3627 39.8133 33.152 39.312C33.9413 38.8107 34.9227 38.56 36.096 38.56C37.2693 38.56 38.2453 38.8107 39.024 39.312C39.8133 39.8133 40.4053 40.5013 40.8 41.376C41.2053 42.2507 41.408 43.2427 41.408 44.352C41.408 45.4507 41.2053 46.4373 40.8 47.312C40.4053 48.1867 39.8133 48.8747 39.024 49.376C38.2453 49.8773 37.2693 50.128 36.096 50.128ZM36.096 48.864C36.992 48.864 37.728 48.6613 38.304 48.256C38.88 47.84 39.3013 47.2907 39.568 46.608C39.8453 45.9253 39.984 45.1733 39.984 44.352C39.984 43.7333 39.904 43.152 39.744 42.608C39.5947 42.0533 39.36 41.568 39.04 41.152C38.72 40.736 38.3147 40.4107 37.824 40.176C37.3333 39.9413 36.7573 39.824 36.096 39.824C35.2107 39.824 34.4747 40.032 33.888 40.448C33.312 40.864 32.88 41.4133 32.592 42.096C32.3147 42.7787 32.176 43.5307 32.176 44.352C32.176 45.1627 32.3147 45.9093 32.592 46.592C32.8693 47.2747 33.296 47.824 33.872 48.24C34.4587 48.656 35.2 48.864 36.096 48.864ZM45.3681 50V42.768H42.4721V41.568H49.6241V42.768H46.7281V50H45.3681ZM50.8376 50V41.568H52.1976V45.2H53.6696L56.1656 41.568H57.7176L54.9016 45.584L57.9576 50H56.3576L53.8296 46.384H52.1976V50H50.8376ZM59.1345 53.04V41.568H60.4305L60.4945 42.864C60.7825 42.4053 61.1718 42.0587 61.6625 41.824C62.1638 41.5893 62.7025 41.472 63.2785 41.472C64.1318 41.472 64.8305 41.664 65.3745 42.048C65.9185 42.4213 66.3185 42.9333 66.5745 43.584C66.8412 44.2347 66.9745 44.9707 66.9745 45.792C66.9745 46.6133 66.8412 47.3493 66.5745 48C66.3078 48.6507 65.8972 49.1627 65.3425 49.536C64.7878 49.9093 64.0785 50.096 63.2145 50.096C62.7878 50.096 62.4038 50.0533 62.0625 49.968C61.7212 49.872 61.4225 49.7387 61.1665 49.568C60.9105 49.3973 60.6865 49.2053 60.4945 48.992V53.04H59.1345ZM63.1025 48.896C63.7212 48.896 64.2118 48.7573 64.5745 48.48C64.9372 48.192 65.1985 47.8133 65.3585 47.344C65.5292 46.8747 65.6145 46.3573 65.6145 45.792C65.6145 45.216 65.5292 44.6933 65.3585 44.224C65.1985 43.7547 64.9318 43.3813 64.5585 43.104C64.1852 42.8267 63.6892 42.688 63.0705 42.688C62.5158 42.688 62.0412 42.832 61.6465 43.12C61.2625 43.3973 60.9692 43.776 60.7665 44.256C60.5638 44.7253 60.4625 45.2427 60.4625 45.808C60.4625 46.3947 60.5585 46.9227 60.7505 47.392C60.9425 47.8613 61.2358 48.2293 61.6305 48.496C62.0252 48.7627 62.5158 48.896 63.1025 48.896ZM68.7283 50V41.568H70.1203V44.784H71.6403C72.1416 44.784 72.5949 44.8267 73.0003 44.912C73.4056 44.9973 73.7523 45.136 74.0403 45.328C74.3283 45.52 74.5469 45.7813 74.6963 46.112C74.8456 46.432 74.9203 46.8373 74.9203 47.328C74.9203 47.7973 74.8403 48.2027 74.6803 48.544C74.5203 48.8853 74.2909 49.1627 73.9923 49.376C73.7043 49.5893 73.3576 49.7493 72.9523 49.856C72.5576 49.952 72.1256 50 71.6562 50H68.7283ZM70.1203 48.816H70.5683C70.9416 48.816 71.3043 48.8107 71.6562 48.8C72.0083 48.7787 72.3229 48.7253 72.6003 48.64C72.8883 48.5547 73.1176 48.416 73.2883 48.224C73.4589 48.0213 73.5443 47.7387 73.5443 47.376C73.5443 47.0347 73.4749 46.7733 73.3363 46.592C73.2083 46.4 73.0376 46.2613 72.8243 46.176C72.6109 46.08 72.3763 46.0213 72.1203 46C71.8749 45.9787 71.6296 45.968 71.3843 45.968H70.1203V48.816ZM76.0883 50V41.568H77.4483V50H76.0883ZM79.5876 50V41.568H82.8516C83.225 41.568 83.593 41.5947 83.9556 41.648C84.329 41.6907 84.665 41.7867 84.9636 41.936C85.273 42.0747 85.5183 42.2827 85.6996 42.56C85.8916 42.8373 85.9876 43.2053 85.9876 43.664C85.9876 43.9413 85.945 44.1973 85.8596 44.432C85.7743 44.656 85.6463 44.8533 85.4756 45.024C85.3156 45.1947 85.1076 45.344 84.8516 45.472C85.4276 45.6 85.8436 45.8507 86.0996 46.224C86.3556 46.5973 86.4836 47.024 86.4836 47.504C86.4836 47.9307 86.4036 48.304 86.2436 48.624C86.0943 48.9333 85.881 49.1893 85.6036 49.392C85.337 49.5947 85.0223 49.7493 84.6596 49.856C84.3076 49.952 83.929 50 83.5236 50H79.5876ZM80.9796 48.816H83.2036C83.5343 48.816 83.8436 48.784 84.1316 48.72C84.4196 48.656 84.6543 48.5387 84.8356 48.368C85.017 48.1867 85.1076 47.9307 85.1076 47.6C85.1076 47.2587 85.0276 47.0027 84.8676 46.832C84.7183 46.6507 84.521 46.528 84.2756 46.464C84.041 46.3893 83.785 46.3467 83.5076 46.336C83.2303 46.3253 82.969 46.32 82.7236 46.32H80.9796V48.816ZM80.9796 45.168H82.1476C82.361 45.168 82.6063 45.1573 82.8836 45.136C83.1716 45.1147 83.449 45.0667 83.7156 44.992C83.993 44.9067 84.217 44.7787 84.3876 44.608C84.569 44.4373 84.6596 44.2027 84.6596 43.904C84.6596 43.5093 84.5476 43.2373 84.3236 43.088C84.1103 42.928 83.8543 42.8373 83.5556 42.816C83.257 42.784 82.9796 42.768 82.7236 42.768H80.9796V45.168ZM91.0416 50.096C90.6576 50.096 90.2843 50.048 89.9216 49.952C89.5696 49.8453 89.2496 49.6907 88.9616 49.488C88.6843 49.2747 88.4603 49.0133 88.2896 48.704C88.1296 48.384 88.0496 48.016 88.0496 47.6C88.0496 47.12 88.135 46.7147 88.3056 46.384C88.487 46.0533 88.727 45.792 89.0256 45.6C89.3243 45.408 89.671 45.2693 90.0656 45.184C90.4603 45.0987 90.871 45.056 91.2976 45.056H93.7776C93.7776 44.576 93.7083 44.16 93.5696 43.808C93.4416 43.456 93.2283 43.184 92.9296 42.992C92.631 42.7893 92.2363 42.688 91.7456 42.688C91.447 42.688 91.1696 42.72 90.9136 42.784C90.6576 42.848 90.439 42.9493 90.2576 43.088C90.0763 43.2267 89.943 43.4133 89.8576 43.648H88.4016C88.4763 43.264 88.6203 42.9387 88.8336 42.672C89.0576 42.3947 89.3243 42.1707 89.6336 42C89.9536 41.8187 90.295 41.6853 90.6576 41.6C91.0203 41.5147 91.383 41.472 91.7456 41.472C92.5563 41.472 93.207 41.6373 93.6976 41.968C94.1883 42.288 94.5456 42.7467 94.7696 43.344C94.9936 43.9307 95.1056 44.6293 95.1056 45.44V50H93.9696L93.8896 48.928C93.655 49.248 93.3723 49.4933 93.0416 49.664C92.711 49.8347 92.3696 49.9467 92.0176 50C91.6763 50.064 91.351 50.096 91.0416 50.096ZM91.1696 48.896C91.703 48.896 92.1616 48.8107 92.5456 48.64C92.9403 48.4587 93.2443 48.1973 93.4576 47.856C93.671 47.5147 93.7776 47.0987 93.7776 46.608V46.192H92.2896C91.9376 46.192 91.591 46.1973 91.2496 46.208C90.9083 46.2187 90.599 46.2613 90.3216 46.336C90.0443 46.4107 89.8203 46.5387 89.6496 46.72C89.4896 46.9013 89.4096 47.1627 89.4096 47.504C89.4096 47.824 89.4896 48.0853 89.6496 48.288C89.8203 48.4907 90.039 48.6453 90.3056 48.752C90.583 48.848 90.871 48.896 91.1696 48.896ZM100.861 50.096C99.9646 50.096 99.2233 49.9147 98.6366 49.552C98.05 49.1787 97.6126 48.6667 97.3246 48.016C97.0366 47.3653 96.8926 46.624 96.8926 45.792C96.8926 44.9493 97.042 44.208 97.3406 43.568C97.65 42.9173 98.098 42.4053 98.6846 42.032C99.2713 41.6587 99.9913 41.472 100.845 41.472C101.474 41.472 102.023 41.5947 102.493 41.84C102.973 42.0747 103.367 42.3947 103.677 42.8C103.997 43.2053 104.226 43.6587 104.365 44.16C104.514 44.6613 104.578 45.1787 104.557 45.712C104.546 45.808 104.541 45.904 104.541 46C104.541 46.096 104.535 46.192 104.525 46.288H98.2686C98.3113 46.7787 98.434 47.2213 98.6366 47.616C98.8393 48.0107 99.1273 48.3253 99.5006 48.56C99.874 48.784 100.338 48.896 100.893 48.896C101.17 48.896 101.447 48.864 101.725 48.8C102.013 48.7253 102.269 48.6027 102.493 48.432C102.727 48.2613 102.893 48.032 102.989 47.744H104.381C104.253 48.288 104.013 48.736 103.661 49.088C103.309 49.4293 102.887 49.6853 102.397 49.856C101.906 50.016 101.394 50.096 100.861 50.096ZM98.3006 45.104H103.181C103.17 44.624 103.063 44.2027 102.861 43.84C102.658 43.4773 102.381 43.1947 102.029 42.992C101.687 42.7893 101.277 42.688 100.797 42.688C100.274 42.688 99.8313 42.8 99.4686 43.024C99.1166 43.248 98.8446 43.5413 98.6526 43.904C98.4606 44.2667 98.3433 44.6667 98.3006 45.104ZM108.353 50V42.768H105.457V41.568H112.609V42.768H109.713V50H108.353ZM121.815 50.096C120.929 50.096 120.188 49.9147 119.591 49.552C118.993 49.1787 118.545 48.6667 118.247 48.016C117.959 47.3653 117.815 46.624 117.815 45.792C117.815 44.9493 117.959 44.208 118.247 43.568C118.545 42.9173 118.993 42.4053 119.591 42.032C120.188 41.6587 120.94 41.472 121.847 41.472C122.732 41.472 123.468 41.6587 124.055 42.032C124.652 42.4053 125.095 42.9173 125.383 43.568C125.681 44.208 125.831 44.9493 125.831 45.792C125.831 46.624 125.681 47.3653 125.383 48.016C125.084 48.6667 124.636 49.1787 124.039 49.552C123.452 49.9147 122.711 50.096 121.815 50.096ZM121.815 48.896C122.433 48.896 122.935 48.7573 123.319 48.48C123.713 48.2027 124.001 47.8293 124.183 47.36C124.375 46.8907 124.471 46.368 124.471 45.792C124.471 45.216 124.375 44.6933 124.183 44.224C124.001 43.7547 123.713 43.3813 123.319 43.104C122.935 42.8267 122.433 42.688 121.815 42.688C121.207 42.688 120.705 42.8267 120.311 43.104C119.927 43.3813 119.639 43.7547 119.447 44.224C119.265 44.6933 119.174 45.216 119.174 45.792C119.174 46.368 119.265 46.8907 119.447 47.36C119.639 47.8293 119.927 48.2027 120.311 48.48C120.705 48.7573 121.207 48.896 121.815 48.896ZM127.65 50V41.568H129.01V45.2H130.482L132.978 41.568H134.53L131.714 45.584L134.77 50H133.17L130.642 46.384H129.01V50H127.65ZM135.947 50V41.568H137.307V45.264H141.531V41.568H142.891V50H141.531V46.464H137.307V50H135.947ZM148.721 50.096C147.835 50.096 147.094 49.9147 146.497 49.552C145.899 49.1787 145.451 48.6667 145.153 48.016C144.865 47.3653 144.721 46.624 144.721 45.792C144.721 44.9493 144.865 44.208 145.153 43.568C145.451 42.9173 145.899 42.4053 146.497 42.032C147.094 41.6587 147.846 41.472 148.753 41.472C149.638 41.472 150.374 41.6587 150.961 42.032C151.558 42.4053 152.001 42.9173 152.289 43.568C152.587 44.208 152.737 44.9493 152.737 45.792C152.737 46.624 152.587 47.3653 152.289 48.016C151.99 48.6667 151.542 49.1787 150.945 49.552C150.358 49.9147 149.617 50.096 148.721 50.096ZM148.721 48.896C149.339 48.896 149.841 48.7573 150.225 48.48C150.619 48.2027 150.907 47.8293 151.089 47.36C151.281 46.8907 151.377 46.368 151.377 45.792C151.377 45.216 151.281 44.6933 151.089 44.224C150.907 43.7547 150.619 43.3813 150.225 43.104C149.841 42.8267 149.339 42.688 148.721 42.688C148.113 42.688 147.611 42.8267 147.217 43.104C146.833 43.3813 146.545 43.7547 146.353 44.224C146.171 44.6933 146.081 45.216 146.081 45.792C146.081 46.368 146.171 46.8907 146.353 47.36C146.545 47.8293 146.833 48.2027 147.217 48.48C147.611 48.7573 148.113 48.896 148.721 48.896ZM162.469 50.096C161.584 50.096 160.848 49.9147 160.261 49.552C159.685 49.1787 159.253 48.6667 158.965 48.016C158.688 47.3653 158.549 46.6293 158.549 45.808C158.549 45.008 158.693 44.2827 158.981 43.632C159.28 42.9707 159.728 42.448 160.325 42.064C160.933 41.6693 161.701 41.472 162.629 41.472C163.205 41.472 163.717 41.568 164.165 41.76C164.624 41.952 165.002 42.2347 165.301 42.608C165.6 42.9707 165.808 43.4293 165.925 43.984H164.533C164.373 43.5147 164.117 43.184 163.765 42.992C163.424 42.7893 163.018 42.688 162.549 42.688C161.909 42.688 161.397 42.8373 161.013 43.136C160.629 43.4347 160.346 43.824 160.165 44.304C159.994 44.7733 159.909 45.2747 159.909 45.808C159.909 46.3627 160 46.8747 160.181 47.344C160.362 47.8133 160.645 48.192 161.029 48.48C161.413 48.7573 161.909 48.896 162.517 48.896C162.965 48.896 163.386 48.8 163.781 48.608C164.186 48.416 164.453 48.0747 164.581 47.584H165.989C165.882 48.16 165.653 48.6347 165.301 49.008C164.96 49.3813 164.538 49.6587 164.037 49.84C163.546 50.0107 163.024 50.096 162.469 50.096ZM172.025 50V41.568H179.017V50H177.657V42.768H173.385V50H172.025ZM184.846 50.096C183.96 50.096 183.219 49.9147 182.622 49.552C182.024 49.1787 181.576 48.6667 181.278 48.016C180.99 47.3653 180.846 46.624 180.846 45.792C180.846 44.9493 180.99 44.208 181.278 43.568C181.576 42.9173 182.024 42.4053 182.622 42.032C183.219 41.6587 183.971 41.472 184.878 41.472C185.763 41.472 186.499 41.6587 187.086 42.032C187.683 42.4053 188.126 42.9173 188.414 43.568C188.712 44.208 188.862 44.9493 188.862 45.792C188.862 46.624 188.712 47.3653 188.414 48.016C188.115 48.6667 187.667 49.1787 187.07 49.552C186.483 49.9147 185.742 50.096 184.846 50.096ZM184.846 48.896C185.464 48.896 185.966 48.7573 186.35 48.48C186.744 48.2027 187.032 47.8293 187.214 47.36C187.406 46.8907 187.502 46.368 187.502 45.792C187.502 45.216 187.406 44.6933 187.214 44.224C187.032 43.7547 186.744 43.3813 186.35 43.104C185.966 42.8267 185.464 42.688 184.846 42.688C184.238 42.688 183.736 42.8267 183.342 43.104C182.958 43.3813 182.67 43.7547 182.478 44.224C182.296 44.6933 182.206 45.216 182.206 45.792C182.206 46.368 182.296 46.8907 182.478 47.36C182.67 47.8293 182.958 48.2027 183.342 48.48C183.736 48.7573 184.238 48.896 184.846 48.896ZM189.774 52.592V48.816C190.083 48.816 190.329 48.7307 190.51 48.56C190.702 48.3893 190.851 48.1653 190.958 47.888C191.065 47.6107 191.145 47.312 191.198 46.992C191.251 46.6613 191.294 46.3467 191.326 46.048C191.379 45.5573 191.411 45.072 191.422 44.592C191.443 44.1013 191.454 43.712 191.454 43.424C191.465 43.1147 191.47 42.8053 191.47 42.496C191.47 42.1867 191.47 41.8773 191.47 41.568H197.454V48.816H198.558V52.592H197.246V50H191.086V52.592H189.774ZM191.934 48.816H196.094V42.768H192.766C192.755 43.216 192.745 43.7173 192.734 44.272C192.723 44.8267 192.702 45.344 192.67 45.824C192.659 46.1013 192.633 46.416 192.59 46.768C192.558 47.12 192.494 47.4773 192.398 47.84C192.302 48.192 192.147 48.5173 191.934 48.816ZM199.978 53.04V41.568H201.274L201.338 42.864C201.626 42.4053 202.016 42.0587 202.506 41.824C203.008 41.5893 203.546 41.472 204.122 41.472C204.976 41.472 205.674 41.664 206.218 42.048C206.762 42.4213 207.162 42.9333 207.418 43.584C207.685 44.2347 207.818 44.9707 207.818 45.792C207.818 46.6133 207.685 47.3493 207.418 48C207.152 48.6507 206.741 49.1627 206.186 49.536C205.632 49.9093 204.922 50.096 204.058 50.096C203.632 50.096 203.248 50.0533 202.906 49.968C202.565 49.872 202.266 49.7387 202.01 49.568C201.754 49.3973 201.53 49.2053 201.338 48.992V53.04H199.978ZM203.946 48.896C204.565 48.896 205.056 48.7573 205.418 48.48C205.781 48.192 206.042 47.8133 206.202 47.344C206.373 46.8747 206.458 46.3573 206.458 45.792C206.458 45.216 206.373 44.6933 206.202 44.224C206.042 43.7547 205.776 43.3813 205.402 43.104C205.029 42.8267 204.533 42.688 203.914 42.688C203.36 42.688 202.885 42.832 202.49 43.12C202.106 43.3973 201.813 43.776 201.61 44.256C201.408 44.7253 201.306 45.2427 201.306 45.808C201.306 46.3947 201.402 46.9227 201.594 47.392C201.786 47.8613 202.08 48.2293 202.474 48.496C202.869 48.7627 203.36 48.896 203.946 48.896ZM213.252 50.096C212.367 50.096 211.625 49.9147 211.028 49.552C210.431 49.1787 209.983 48.6667 209.684 48.016C209.396 47.3653 209.252 46.624 209.252 45.792C209.252 44.9493 209.396 44.208 209.684 43.568C209.983 42.9173 210.431 42.4053 211.028 42.032C211.625 41.6587 212.377 41.472 213.284 41.472C214.169 41.472 214.905 41.6587 215.492 42.032C216.089 42.4053 216.532 42.9173 216.82 43.568C217.119 44.208 217.268 44.9493 217.268 45.792C217.268 46.624 217.119 47.3653 216.82 48.016C216.521 48.6667 216.073 49.1787 215.476 49.552C214.889 49.9147 214.148 50.096 213.252 50.096ZM213.252 48.896C213.871 48.896 214.372 48.7573 214.756 48.48C215.151 48.2027 215.439 47.8293 215.62 47.36C215.812 46.8907 215.908 46.368 215.908 45.792C215.908 45.216 215.812 44.6933 215.62 44.224C215.439 43.7547 215.151 43.3813 214.756 43.104C214.372 42.8267 213.871 42.688 213.252 42.688C212.644 42.688 212.143 42.8267 211.748 43.104C211.364 43.3813 211.076 43.7547 210.884 44.224C210.703 44.6933 210.612 45.216 210.612 45.792C210.612 46.368 210.703 46.8907 210.884 47.36C211.076 47.8293 211.364 48.2027 211.748 48.48C212.143 48.7573 212.644 48.896 213.252 48.896ZM222.796 50.096C222.263 50.096 221.788 50.0213 221.372 49.872C220.956 49.712 220.599 49.4933 220.3 49.216C220.001 48.928 219.756 48.592 219.564 48.208C219.372 47.8133 219.228 47.3867 219.132 46.928C219.036 46.4693 218.988 45.984 218.988 45.472C218.988 44.6507 219.004 43.888 219.036 43.184C219.079 42.4693 219.196 41.8347 219.388 41.28C219.58 40.7147 219.905 40.2453 220.364 39.872C220.823 39.4987 221.468 39.2373 222.3 39.088C222.727 39.0133 223.148 38.9493 223.564 38.896C223.98 38.8427 224.401 38.7893 224.828 38.736C224.967 38.7147 225.111 38.6933 225.26 38.672C225.409 38.6507 225.564 38.624 225.724 38.592C225.895 38.56 226.055 38.5333 226.204 38.512V39.76C226.087 39.8027 225.959 39.84 225.82 39.872C225.692 39.8933 225.553 39.9147 225.404 39.936C225.265 39.9573 225.121 39.9733 224.972 39.984C224.833 39.9947 224.695 40.0107 224.556 40.032C224.417 40.0427 224.284 40.0587 224.156 40.08C223.783 40.1227 223.388 40.1653 222.972 40.208C222.556 40.24 222.161 40.3253 221.788 40.464C221.425 40.592 221.116 40.8427 220.86 41.216C220.732 41.408 220.62 41.6373 220.524 41.904C220.439 42.1707 220.375 42.4427 220.332 42.72C220.3 42.9867 220.279 43.2427 220.268 43.488C220.481 43.1893 220.743 42.9493 221.052 42.768C221.361 42.576 221.692 42.4373 222.044 42.352C222.396 42.256 222.732 42.208 223.052 42.208C223.82 42.208 224.471 42.368 225.004 42.688C225.537 42.9973 225.943 43.44 226.22 44.016C226.497 44.592 226.636 45.264 226.636 46.032C226.636 46.8 226.487 47.4933 226.188 48.112C225.889 48.72 225.452 49.2053 224.876 49.568C224.311 49.92 223.617 50.096 222.796 50.096ZM222.828 48.896C223.361 48.896 223.809 48.768 224.172 48.512C224.535 48.256 224.807 47.9147 224.988 47.488C225.18 47.0613 225.276 46.592 225.276 46.08C225.276 45.5787 225.18 45.1307 224.988 44.736C224.807 44.3307 224.535 44.0107 224.172 43.776C223.82 43.5413 223.383 43.424 222.86 43.424C222.348 43.424 221.905 43.5467 221.532 43.792C221.169 44.0373 220.887 44.368 220.684 44.784C220.492 45.1893 220.396 45.632 220.396 46.112C220.396 46.6027 220.487 47.0613 220.668 47.488C220.849 47.9147 221.116 48.256 221.468 48.512C221.831 48.768 222.284 48.896 222.828 48.896ZM228.463 50V41.568H229.823V45.264H234.047V41.568H235.407V50H234.047V46.464H229.823V50H228.463ZM241.236 50.096C240.351 50.096 239.61 49.9147 239.012 49.552C238.415 49.1787 237.967 48.6667 237.668 48.016C237.38 47.3653 237.236 46.624 237.236 45.792C237.236 44.9493 237.38 44.208 237.668 43.568C237.967 42.9173 238.415 42.4053 239.012 42.032C239.61 41.6587 240.362 41.472 241.268 41.472C242.154 41.472 242.89 41.6587 243.476 42.032C244.074 42.4053 244.516 42.9173 244.804 43.568C245.103 44.208 245.252 44.9493 245.252 45.792C245.252 46.624 245.103 47.3653 244.804 48.016C244.506 48.6667 244.058 49.1787 243.46 49.552C242.874 49.9147 242.132 50.096 241.236 50.096ZM241.236 48.896C241.855 48.896 242.356 48.7573 242.74 48.48C243.135 48.2027 243.423 47.8293 243.604 47.36C243.796 46.8907 243.892 46.368 243.892 45.792C243.892 45.216 243.796 44.6933 243.604 44.224C243.423 43.7547 243.135 43.3813 242.74 43.104C242.356 42.8267 241.855 42.688 241.236 42.688C240.628 42.688 240.127 42.8267 239.732 43.104C239.348 43.3813 239.06 43.7547 238.868 44.224C238.687 44.6933 238.596 45.216 238.596 45.792C238.596 46.368 238.687 46.8907 238.868 47.36C239.06 47.8293 239.348 48.2027 239.732 48.48C240.127 48.7573 240.628 48.896 241.236 48.896ZM247.072 50V41.568H248.432V48.032C248.507 47.8827 248.608 47.7227 248.736 47.552C248.864 47.3707 248.965 47.232 249.04 47.136L253.12 41.568H254.464V50H253.104V43.536C253.019 43.696 252.923 43.8453 252.816 43.984C252.72 44.1227 252.629 44.2507 252.544 44.368L248.4 50H247.072ZM250.88 40.384C250.037 40.384 249.376 40.2027 248.896 39.84C248.427 39.4773 248.181 38.9493 248.16 38.256H249.408C249.429 38.6293 249.568 38.9013 249.824 39.072C250.091 39.2427 250.448 39.328 250.896 39.328C251.344 39.328 251.696 39.2427 251.952 39.072C252.219 38.9013 252.363 38.6293 252.384 38.256H253.632C253.621 38.7147 253.504 39.104 253.28 39.424C253.056 39.744 252.741 39.984 252.336 40.144C251.931 40.304 251.445 40.384 250.88 40.384ZM260.916 50V41.568H262.276V48.032C262.35 47.8827 262.452 47.7227 262.58 47.552C262.708 47.3707 262.809 47.232 262.884 47.136L266.964 41.568H268.308V50H266.948V43.536C266.862 43.696 266.766 43.8453 266.66 43.984C266.564 44.1227 266.473 44.2507 266.388 44.368L262.244 50H260.916ZM270.447 50V41.568H271.807V45.264H276.031V41.568H277.391V50H276.031V46.464H271.807V50H270.447ZM283.557 52.88V50.096C282.906 50.0747 282.309 49.9787 281.765 49.808C281.231 49.6267 280.767 49.3653 280.373 49.024C279.989 48.672 279.69 48.2347 279.477 47.712C279.263 47.1893 279.157 46.5707 279.157 45.856C279.157 44.896 279.333 44.096 279.685 43.456C280.037 42.816 280.538 42.3307 281.189 42C281.85 41.6693 282.639 41.4987 283.557 41.488V38.896H284.917V41.488C285.834 41.4987 286.623 41.6747 287.285 42.016C287.946 42.3467 288.453 42.832 288.805 43.472C289.157 44.112 289.333 44.9067 289.333 45.856C289.333 46.8053 289.146 47.5893 288.773 48.208C288.399 48.8267 287.882 49.2907 287.221 49.6C286.559 49.8987 285.791 50.064 284.917 50.096V52.88H283.557ZM283.557 48.96V42.656C282.554 42.656 281.797 42.9227 281.285 43.456C280.773 43.9893 280.517 44.7733 280.517 45.808C280.517 46.4907 280.629 47.0667 280.853 47.536C281.077 48.0053 281.413 48.3573 281.861 48.592C282.309 48.8267 282.874 48.9493 283.557 48.96ZM284.917 48.96C285.61 48.9493 286.181 48.8267 286.629 48.592C287.077 48.3573 287.413 48.0053 287.637 47.536C287.861 47.0667 287.973 46.4907 287.973 45.808C287.973 44.7733 287.711 43.9893 287.189 43.456C286.677 42.9227 285.919 42.656 284.917 42.656V48.96ZM294.768 50.096C293.882 50.096 293.141 49.9147 292.544 49.552C291.946 49.1787 291.498 48.6667 291.2 48.016C290.912 47.3653 290.768 46.624 290.768 45.792C290.768 44.9493 290.912 44.208 291.2 43.568C291.498 42.9173 291.946 42.4053 292.544 42.032C293.141 41.6587 293.893 41.472 294.8 41.472C295.685 41.472 296.421 41.6587 297.008 42.032C297.605 42.4053 298.048 42.9173 298.336 43.568C298.634 44.208 298.784 44.9493 298.784 45.792C298.784 46.624 298.634 47.3653 298.336 48.016C298.037 48.6667 297.589 49.1787 296.992 49.552C296.405 49.9147 295.664 50.096 294.768 50.096ZM294.768 48.896C295.386 48.896 295.888 48.7573 296.272 48.48C296.666 48.2027 296.954 47.8293 297.136 47.36C297.328 46.8907 297.424 46.368 297.424 45.792C297.424 45.216 297.328 44.6933 297.136 44.224C296.954 43.7547 296.666 43.3813 296.272 43.104C295.888 42.8267 295.386 42.688 294.768 42.688C294.16 42.688 293.658 42.8267 293.264 43.104C292.88 43.3813 292.592 43.7547 292.4 44.224C292.218 44.6933 292.128 45.216 292.128 45.792C292.128 46.368 292.218 46.8907 292.4 47.36C292.592 47.8293 292.88 48.2027 293.264 48.48C293.658 48.7573 294.16 48.896 294.768 48.896ZM300.603 53.04V41.568H301.899L301.963 42.864C302.251 42.4053 302.641 42.0587 303.131 41.824C303.633 41.5893 304.171 41.472 304.747 41.472C305.601 41.472 306.299 41.664 306.843 42.048C307.387 42.4213 307.787 42.9333 308.043 43.584C308.31 44.2347 308.443 44.9707 308.443 45.792C308.443 46.6133 308.31 47.3493 308.043 48C307.777 48.6507 307.366 49.1627 306.811 49.536C306.257 49.9093 305.547 50.096 304.683 50.096C304.257 50.096 303.873 50.0533 303.531 49.968C303.19 49.872 302.891 49.7387 302.635 49.568C302.379 49.3973 302.155 49.2053 301.963 48.992V53.04H300.603ZM304.571 48.896C305.19 48.896 305.681 48.7573 306.043 48.48C306.406 48.192 306.667 47.8133 306.827 47.344C306.998 46.8747 307.083 46.3573 307.083 45.792C307.083 45.216 306.998 44.6933 306.827 44.224C306.667 43.7547 306.401 43.3813 306.027 43.104C305.654 42.8267 305.158 42.688 304.539 42.688C303.985 42.688 303.51 42.832 303.115 43.12C302.731 43.3973 302.438 43.776 302.235 44.256C302.033 44.7253 301.931 45.2427 301.931 45.808C301.931 46.3947 302.027 46.9227 302.219 47.392C302.411 47.8613 302.705 48.2293 303.099 48.496C303.494 48.7627 303.985 48.896 304.571 48.896ZM310.197 50V41.568H312.021L314.757 45.792L317.445 41.568H319.237V50H317.893V43.072L314.917 47.84H314.533L311.541 43.072V50H310.197ZM324.089 50.096C323.705 50.096 323.331 50.048 322.969 49.952C322.617 49.8453 322.297 49.6907 322.009 49.488C321.731 49.2747 321.507 49.0133 321.337 48.704C321.177 48.384 321.097 48.016 321.097 47.6C321.097 47.12 321.182 46.7147 321.353 46.384C321.534 46.0533 321.774 45.792 322.073 45.6C322.371 45.408 322.718 45.2693 323.113 45.184C323.507 45.0987 323.918 45.056 324.345 45.056H326.825C326.825 44.576 326.755 44.16 326.617 43.808C326.489 43.456 326.275 43.184 325.977 42.992C325.678 42.7893 325.283 42.688 324.793 42.688C324.494 42.688 324.217 42.72 323.961 42.784C323.705 42.848 323.486 42.9493 323.305 43.088C323.123 43.2267 322.99 43.4133 322.905 43.648H321.449C321.523 43.264 321.667 42.9387 321.881 42.672C322.105 42.3947 322.371 42.1707 322.681 42C323.001 41.8187 323.342 41.6853 323.705 41.6C324.067 41.5147 324.43 41.472 324.793 41.472C325.603 41.472 326.254 41.6373 326.745 41.968C327.235 42.288 327.593 42.7467 327.817 43.344C328.041 43.9307 328.153 44.6293 328.153 45.44V50H327.017L326.937 48.928C326.702 49.248 326.419 49.4933 326.089 49.664C325.758 49.8347 325.417 49.9467 325.065 50C324.723 50.064 324.398 50.096 324.089 50.096ZM324.217 48.896C324.75 48.896 325.209 48.8107 325.593 48.64C325.987 48.4587 326.291 48.1973 326.505 47.856C326.718 47.5147 326.825 47.0987 326.825 46.608V46.192H325.337C324.985 46.192 324.638 46.1973 324.297 46.208C323.955 46.2187 323.646 46.2613 323.369 46.336C323.091 46.4107 322.867 46.5387 322.697 46.72C322.537 46.9013 322.457 47.1627 322.457 47.504C322.457 47.824 322.537 48.0853 322.697 48.288C322.867 48.4907 323.086 48.6453 323.353 48.752C323.63 48.848 323.918 48.896 324.217 48.896ZM336.852 52.592V50H330.26V41.568H331.62V48.816H335.7V41.568H337.076V48.816H338.18V52.592H336.852ZM339.603 50V41.568H340.963V48.032C341.038 47.8827 341.139 47.7227 341.267 47.552C341.395 47.3707 341.497 47.232 341.571 47.136L345.651 41.568H346.995V50H345.635V43.536C345.55 43.696 345.454 43.8453 345.347 43.984C345.251 44.1227 345.161 44.2507 345.075 44.368L340.931 50H339.603ZM352.783 50.096C351.887 50.096 351.145 49.9147 350.559 49.552C349.972 49.1787 349.535 48.6667 349.247 48.016C348.959 47.3653 348.815 46.624 348.815 45.792C348.815 44.9493 348.964 44.208 349.263 43.568C349.572 42.9173 350.02 42.4053 350.607 42.032C351.193 41.6587 351.913 41.472 352.766 41.472C353.396 41.472 353.945 41.5947 354.415 41.84C354.895 42.0747 355.289 42.3947 355.599 42.8C355.919 43.2053 356.148 43.6587 356.286 44.16C356.436 44.6613 356.5 45.1787 356.479 45.712C356.468 45.808 356.463 45.904 356.463 46C356.463 46.096 356.457 46.192 356.447 46.288H350.191C350.233 46.7787 350.356 47.2213 350.559 47.616C350.761 48.0107 351.049 48.3253 351.423 48.56C351.796 48.784 352.26 48.896 352.815 48.896C353.092 48.896 353.369 48.864 353.647 48.8C353.935 48.7253 354.191 48.6027 354.415 48.432C354.649 48.2613 354.815 48.032 354.911 47.744H356.303C356.175 48.288 355.935 48.736 355.583 49.088C355.231 49.4293 354.809 49.6853 354.319 49.856C353.828 50.016 353.316 50.096 352.783 50.096ZM350.223 45.104H355.103C355.092 44.624 354.985 44.2027 354.783 43.84C354.58 43.4773 354.303 43.1947 353.951 42.992C353.609 42.7893 353.199 42.688 352.719 42.688C352.196 42.688 351.753 42.8 351.391 43.024C351.039 43.248 350.767 43.5413 350.575 43.904C350.383 44.2667 350.265 44.6667 350.223 45.104ZM358.306 50V41.568H359.666V48.032C359.741 47.8827 359.842 47.7227 359.97 47.552C360.098 47.3707 360.2 47.232 360.274 47.136L364.354 41.568H365.698V50H364.338V43.536C364.253 43.696 364.157 43.8453 364.05 43.984C363.954 44.1227 363.864 44.2507 363.778 44.368L359.634 50H358.306ZM362.114 40.384C361.272 40.384 360.61 40.2027 360.13 39.84C359.661 39.4773 359.416 38.9493 359.394 38.256H360.642C360.664 38.6293 360.802 38.9013 361.058 39.072C361.325 39.2427 361.682 39.328 362.13 39.328C362.578 39.328 362.93 39.2427 363.186 39.072C363.453 38.9013 363.597 38.6293 363.618 38.256H364.866C364.856 38.7147 364.738 39.104 364.514 39.424C364.29 39.744 363.976 39.984 363.57 40.144C363.165 40.304 362.68 40.384 362.114 40.384ZM34.752 70.096C33.8667 70.096 33.1253 69.9147 32.528 69.552C31.9307 69.1787 31.4827 68.6667 31.184 68.016C30.896 67.3653 30.752 66.624 30.752 65.792C30.752 64.9493 30.896 64.208 31.184 63.568C31.4827 62.9173 31.9307 62.4053 32.528 62.032C33.1253 61.6587 33.8773 61.472 34.784 61.472C35.6693 61.472 36.4053 61.6587 36.992 62.032C37.5893 62.4053 38.032 62.9173 38.32 63.568C38.6187 64.208 38.768 64.9493 38.768 65.792C38.768 66.624 38.6187 67.3653 38.32 68.016C38.0213 68.6667 37.5733 69.1787 36.976 69.552C36.3893 69.9147 35.648 70.096 34.752 70.096ZM34.752 68.896C35.3707 68.896 35.872 68.7573 36.256 68.48C36.6507 68.2027 36.9387 67.8293 37.12 67.36C37.312 66.8907 37.408 66.368 37.408 65.792C37.408 65.216 37.312 64.6933 37.12 64.224C36.9387 63.7547 36.6507 63.3813 36.256 63.104C35.872 62.8267 35.3707 62.688 34.752 62.688C34.144 62.688 33.6427 62.8267 33.248 63.104C32.864 63.3813 32.576 63.7547 32.384 64.224C32.2027 64.6933 32.112 65.216 32.112 65.792C32.112 66.368 32.2027 66.8907 32.384 67.36C32.576 67.8293 32.864 68.2027 33.248 68.48C33.6427 68.7573 34.144 68.896 34.752 68.896ZM44.9001 70V61.568H51.8921V70H50.5321V62.768H46.2601V70H44.9001ZM57.7208 70.096C56.8354 70.096 56.0941 69.9147 55.4968 69.552C54.8994 69.1787 54.4514 68.6667 54.1528 68.016C53.8648 67.3653 53.7208 66.624 53.7208 65.792C53.7208 64.9493 53.8648 64.208 54.1528 63.568C54.4514 62.9173 54.8994 62.4053 55.4968 62.032C56.0941 61.6587 56.8461 61.472 57.7528 61.472C58.6381 61.472 59.3741 61.6587 59.9608 62.032C60.5581 62.4053 61.0008 62.9173 61.2888 63.568C61.5874 64.208 61.7368 64.9493 61.7368 65.792C61.7368 66.624 61.5874 67.3653 61.2888 68.016C60.9901 68.6667 60.5421 69.1787 59.9448 69.552C59.3581 69.9147 58.6168 70.096 57.7208 70.096ZM57.7208 68.896C58.3394 68.896 58.8408 68.7573 59.2248 68.48C59.6194 68.2027 59.9074 67.8293 60.0888 67.36C60.2808 66.8907 60.3768 66.368 60.3768 65.792C60.3768 65.216 60.2808 64.6933 60.0888 64.224C59.9074 63.7547 59.6194 63.3813 59.2248 63.104C58.8408 62.8267 58.3394 62.688 57.7208 62.688C57.1128 62.688 56.6114 62.8267 56.2168 63.104C55.8328 63.3813 55.5448 63.7547 55.3528 64.224C55.1714 64.6933 55.0807 65.216 55.0807 65.792C55.0807 66.368 55.1714 66.8907 55.3528 67.36C55.5448 67.8293 55.8328 68.2027 56.2168 68.48C56.6114 68.7573 57.1128 68.896 57.7208 68.896ZM63.5564 70V61.568H65.3804L68.1164 65.792L70.8044 61.568H72.5964V70H71.2524V63.072L68.2764 67.84H67.8924L64.9004 63.072V70H63.5564ZM78.3919 70.096C77.4959 70.096 76.7545 69.9147 76.1679 69.552C75.5812 69.1787 75.1439 68.6667 74.8559 68.016C74.5679 67.3653 74.4239 66.624 74.4239 65.792C74.4239 64.9493 74.5732 64.208 74.8719 63.568C75.1812 62.9173 75.6292 62.4053 76.2159 62.032C76.8025 61.6587 77.5225 61.472 78.3759 61.472C79.0052 61.472 79.5545 61.5947 80.0239 61.84C80.5039 62.0747 80.8985 62.3947 81.2079 62.8C81.5279 63.2053 81.7572 63.6587 81.8959 64.16C82.0452 64.6613 82.1092 65.1787 82.0879 65.712C82.0772 65.808 82.0719 65.904 82.0719 66C82.0719 66.096 82.0665 66.192 82.0559 66.288H75.7999C75.8425 66.7787 75.9652 67.2213 76.1679 67.616C76.3705 68.0107 76.6585 68.3253 77.0319 68.56C77.4052 68.784 77.8692 68.896 78.4239 68.896C78.7012 68.896 78.9785 68.864 79.2559 68.8C79.5439 68.7253 79.7999 68.6027 80.0239 68.432C80.2585 68.2613 80.4239 68.032 80.5199 67.744H81.9119C81.7839 68.288 81.5439 68.736 81.1919 69.088C80.8399 69.4293 80.4185 69.6853 79.9279 69.856C79.4372 70.016 78.9252 70.096 78.3919 70.096ZM75.8319 65.104H80.7119C80.7012 64.624 80.5945 64.2027 80.3919 63.84C80.1892 63.4773 79.9119 63.1947 79.5599 62.992C79.2185 62.7893 78.8079 62.688 78.3279 62.688C77.8052 62.688 77.3625 62.8 76.9999 63.024C76.6479 63.248 76.3759 63.5413 76.1839 63.904C75.9919 64.2667 75.8745 64.6667 75.8319 65.104ZM94.1558 72.592V70H83.9158V61.568H85.2758V68.816H88.4438V61.568H89.8038V68.816H93.0038V61.568H94.3638V68.816H95.4678V72.592H94.1558ZM100.533 70.096C99.6365 70.096 98.8952 69.9147 98.3085 69.552C97.7218 69.1787 97.2845 68.6667 96.9965 68.016C96.7085 67.3653 96.5645 66.624 96.5645 65.792C96.5645 64.9493 96.7138 64.208 97.0125 63.568C97.3218 62.9173 97.7698 62.4053 98.3565 62.032C98.9432 61.6587 99.6632 61.472 100.516 61.472C101.146 61.472 101.695 61.5947 102.165 61.84C102.645 62.0747 103.039 62.3947 103.349 62.8C103.669 63.2053 103.898 63.6587 104.036 64.16C104.186 64.6613 104.25 65.1787 104.229 65.712C104.218 65.808 104.213 65.904 104.213 66C104.213 66.096 104.207 66.192 104.197 66.288H97.9405C97.9832 66.7787 98.1058 67.2213 98.3085 67.616C98.5112 68.0107 98.7992 68.3253 99.1725 68.56C99.5458 68.784 100.01 68.896 100.565 68.896C100.842 68.896 101.119 68.864 101.397 68.8C101.685 68.7253 101.941 68.6027 102.165 68.432C102.399 68.2613 102.565 68.032 102.661 67.744H104.053C103.925 68.288 103.685 68.736 103.333 69.088C102.981 69.4293 102.559 69.6853 102.069 69.856C101.578 70.016 101.066 70.096 100.533 70.096ZM97.9725 65.104H102.853C102.842 64.624 102.735 64.2027 102.533 63.84C102.33 63.4773 102.053 63.1947 101.701 62.992C101.359 62.7893 100.949 62.688 100.469 62.688C99.9458 62.688 99.5032 62.8 99.1405 63.024C98.7885 63.248 98.5165 63.5413 98.3245 63.904C98.1325 64.2667 98.0152 64.6667 97.9725 65.104ZM106.056 70V61.568H107.416V65.264H111.64V61.568H113V70H111.64V66.464H107.416V70H106.056ZM115.15 70V61.568H116.51V68.032C116.585 67.8827 116.686 67.7227 116.814 67.552C116.942 67.3707 117.043 67.232 117.118 67.136L121.198 61.568H122.542V70H121.182V63.536C121.097 63.696 121.001 63.8453 120.894 63.984C120.798 64.1227 120.707 64.2507 120.622 64.368L116.478 70H115.15ZM124.681 70V61.568H126.041V68.032C126.116 67.8827 126.217 67.7227 126.345 67.552C126.473 67.3707 126.575 67.232 126.649 67.136L130.729 61.568H132.073V70H130.713V63.536C130.628 63.696 130.532 63.8453 130.425 63.984C130.329 64.1227 130.239 64.2507 130.153 64.368L126.009 70H124.681ZM138.525 70V61.568H139.885V68.032C139.96 67.8827 140.061 67.7227 140.189 67.552C140.317 67.3707 140.418 67.232 140.493 67.136L144.573 61.568H145.917V70H144.557V63.536C144.472 63.696 144.376 63.8453 144.269 63.984C144.173 64.1227 144.082 64.2507 143.997 64.368L139.853 70H138.525ZM151.649 72.592V68.816C151.958 68.816 152.204 68.7307 152.385 68.56C152.577 68.3893 152.726 68.1653 152.833 67.888C152.94 67.6107 153.02 67.312 153.073 66.992C153.126 66.6613 153.169 66.3467 153.201 66.048C153.254 65.5573 153.286 65.072 153.297 64.592C153.318 64.1013 153.329 63.712 153.329 63.424C153.34 63.1147 153.345 62.8053 153.345 62.496C153.345 62.1867 153.345 61.8773 153.345 61.568H159.329V68.816H160.433V72.592H159.121V70H152.961V72.592H151.649ZM153.809 68.816H157.969V62.768H154.641C154.63 63.216 154.62 63.7173 154.609 64.272C154.598 64.8267 154.577 65.344 154.545 65.824C154.534 66.1013 154.508 66.416 154.465 66.768C154.433 67.12 154.369 67.4773 154.273 67.84C154.177 68.192 154.022 68.5173 153.809 68.816ZM165.533 70.096C164.648 70.096 163.907 69.9147 163.309 69.552C162.712 69.1787 162.264 68.6667 161.965 68.016C161.677 67.3653 161.533 66.624 161.533 65.792C161.533 64.9493 161.677 64.208 161.965 63.568C162.264 62.9173 162.712 62.4053 163.309 62.032C163.907 61.6587 164.659 61.472 165.565 61.472C166.451 61.472 167.187 61.6587 167.773 62.032C168.371 62.4053 168.813 62.9173 169.101 63.568C169.4 64.208 169.549 64.9493 169.549 65.792C169.549 66.624 169.4 67.3653 169.101 68.016C168.803 68.6667 168.355 69.1787 167.757 69.552C167.171 69.9147 166.429 70.096 165.533 70.096ZM165.533 68.896C166.152 68.896 166.653 68.7573 167.037 68.48C167.432 68.2027 167.72 67.8293 167.901 67.36C168.093 66.8907 168.189 66.368 168.189 65.792C168.189 65.216 168.093 64.6933 167.901 64.224C167.72 63.7547 167.432 63.3813 167.037 63.104C166.653 62.8267 166.152 62.688 165.533 62.688C164.925 62.688 164.424 62.8267 164.029 63.104C163.645 63.3813 163.357 63.7547 163.165 64.224C162.984 64.6933 162.893 65.216 162.893 65.792C162.893 66.368 162.984 66.8907 163.165 67.36C163.357 67.8293 163.645 68.2027 164.029 68.48C164.424 68.7573 164.925 68.896 165.533 68.896ZM171.369 70V61.568H173.193L175.929 65.792L178.617 61.568H180.409V70H179.065V63.072L176.089 67.84H175.705L172.713 63.072V70H171.369ZM186.204 70.096C185.308 70.096 184.567 69.9147 183.98 69.552C183.394 69.1787 182.956 68.6667 182.668 68.016C182.38 67.3653 182.236 66.624 182.236 65.792C182.236 64.9493 182.386 64.208 182.684 63.568C182.994 62.9173 183.442 62.4053 184.028 62.032C184.615 61.6587 185.335 61.472 186.188 61.472C186.818 61.472 187.367 61.5947 187.836 61.84C188.316 62.0747 188.711 62.3947 189.02 62.8C189.34 63.2053 189.57 63.6587 189.708 64.16C189.858 64.6613 189.922 65.1787 189.9 65.712C189.89 65.808 189.884 65.904 189.884 66C189.884 66.096 189.879 66.192 189.868 66.288H183.612C183.655 66.7787 183.778 67.2213 183.98 67.616C184.183 68.0107 184.471 68.3253 184.844 68.56C185.218 68.784 185.682 68.896 186.236 68.896C186.514 68.896 186.791 68.864 187.068 68.8C187.356 68.7253 187.612 68.6027 187.836 68.432C188.071 68.2613 188.236 68.032 188.332 67.744H189.724C189.596 68.288 189.356 68.736 189.004 69.088C188.652 69.4293 188.231 69.6853 187.74 69.856C187.25 70.016 186.738 70.096 186.204 70.096ZM183.644 65.104H188.524C188.514 64.624 188.407 64.2027 188.204 63.84C188.002 63.4773 187.724 63.1947 187.372 62.992C187.031 62.7893 186.62 62.688 186.14 62.688C185.618 62.688 185.175 62.8 184.812 63.024C184.46 63.248 184.188 63.5413 183.996 63.904C183.804 64.2667 183.687 64.6667 183.644 65.104Z" fill="black"/>
</svg>
