<svg width="408" height="231" viewBox="0 0 408 231" fill="none" xmlns="http://www.w3.org/2000/svg">
<rect width="408" height="231" rx="30" fill="white"/>
<path d="M110.04 56.128C109.496 56.128 108.968 56.0693 108.456 55.952C107.944 55.8347 107.48 55.6587 107.064 55.424C106.659 55.1787 106.333 54.864 106.088 54.48C105.843 54.096 105.715 53.632 105.704 53.088H107.096C107.117 53.408 107.213 53.68 107.384 53.904C107.565 54.128 107.795 54.3147 108.072 54.464C108.349 54.6027 108.659 54.704 109 54.768C109.341 54.832 109.677 54.864 110.008 54.864C110.275 54.864 110.568 54.8427 110.888 54.8C111.208 54.7573 111.512 54.6667 111.8 54.528C112.099 54.3893 112.339 54.1867 112.52 53.92C112.712 53.6427 112.808 53.28 112.808 52.832C112.808 52.416 112.739 52.08 112.6 51.824C112.461 51.568 112.264 51.3707 112.008 51.232C111.752 51.0933 111.448 51.0027 111.096 50.96C110.755 50.9067 110.376 50.88 109.96 50.88H108.584V49.632H109.4C109.784 49.632 110.152 49.6 110.504 49.536C110.867 49.4613 111.187 49.3493 111.464 49.2C111.741 49.0507 111.96 48.8533 112.12 48.608C112.291 48.3627 112.376 48.064 112.376 47.712C112.376 47.1893 112.248 46.7947 111.992 46.528C111.747 46.2613 111.437 46.08 111.064 45.984C110.691 45.8773 110.317 45.824 109.944 45.824C109.517 45.824 109.107 45.888 108.712 46.016C108.328 46.1333 108.013 46.32 107.768 46.576C107.523 46.832 107.4 47.152 107.4 47.536H106.008C106.008 47.0347 106.104 46.6133 106.296 46.272C106.499 45.92 106.755 45.6373 107.064 45.424C107.384 45.2 107.725 45.024 108.088 44.896C108.451 44.768 108.803 44.6827 109.144 44.64C109.496 44.5867 109.795 44.56 110.04 44.56C110.52 44.56 110.979 44.6133 111.416 44.72C111.853 44.816 112.248 44.9813 112.6 45.216C112.952 45.44 113.229 45.7387 113.432 46.112C113.635 46.4853 113.736 46.9387 113.736 47.472C113.736 47.7387 113.699 48.0267 113.624 48.336C113.549 48.6347 113.395 48.9333 113.16 49.232C112.925 49.52 112.563 49.7813 112.072 50.016C112.744 50.144 113.272 50.4693 113.656 50.992C114.04 51.5147 114.232 52.1227 114.232 52.816C114.221 53.4133 114.093 53.9253 113.848 54.352C113.613 54.768 113.299 55.1093 112.904 55.376C112.509 55.632 112.067 55.824 111.576 55.952C111.085 56.0693 110.573 56.128 110.04 56.128ZM118.792 56.096C118.408 56.096 118.034 56.048 117.672 55.952C117.32 55.8453 117 55.6907 116.712 55.488C116.434 55.2747 116.21 55.0133 116.04 54.704C115.88 54.384 115.8 54.016 115.8 53.6C115.8 53.12 115.885 52.7147 116.056 52.384C116.237 52.0533 116.477 51.792 116.776 51.6C117.074 51.408 117.421 51.2693 117.816 51.184C118.21 51.0987 118.621 51.056 119.048 51.056H121.528C121.528 50.576 121.458 50.16 121.32 49.808C121.192 49.456 120.978 49.184 120.68 48.992C120.381 48.7893 119.986 48.688 119.496 48.688C119.197 48.688 118.92 48.72 118.664 48.784C118.408 48.848 118.189 48.9493 118.008 49.088C117.826 49.2267 117.693 49.4133 117.608 49.648H116.152C116.226 49.264 116.37 48.9387 116.584 48.672C116.808 48.3947 117.074 48.1707 117.384 48C117.704 47.8187 118.045 47.6853 118.408 47.6C118.77 47.5147 119.133 47.472 119.496 47.472C120.306 47.472 120.957 47.6373 121.448 47.968C121.938 48.288 122.296 48.7467 122.52 49.344C122.744 49.9307 122.856 50.6293 122.856 51.44V56H121.72L121.64 54.928C121.405 55.248 121.122 55.4933 120.792 55.664C120.461 55.8347 120.12 55.9467 119.768 56C119.426 56.064 119.101 56.096 118.792 56.096ZM118.92 54.896C119.453 54.896 119.912 54.8107 120.296 54.64C120.69 54.4587 120.994 54.1973 121.208 53.856C121.421 53.5147 121.528 53.0987 121.528 52.608V52.192H120.04C119.688 52.192 119.341 52.1973 119 52.208C118.658 52.2187 118.349 52.2613 118.072 52.336C117.794 52.4107 117.57 52.5387 117.4 52.72C117.24 52.9013 117.16 53.1627 117.16 53.504C117.16 53.824 117.24 54.0853 117.4 54.288C117.57 54.4907 117.789 54.6453 118.056 54.752C118.333 54.848 118.621 54.896 118.92 54.896ZM124.963 56V47.568H126.323V51.2H127.795L130.291 47.568H131.843L129.027 51.584L132.083 56H130.483L127.955 52.384H126.323V56H124.963ZM133.26 59.04V47.568H134.556L134.62 48.864C134.908 48.4053 135.297 48.0587 135.788 47.824C136.289 47.5893 136.828 47.472 137.404 47.472C138.257 47.472 138.956 47.664 139.5 48.048C140.044 48.4213 140.444 48.9333 140.7 49.584C140.966 50.2347 141.1 50.9707 141.1 51.792C141.1 52.6133 140.966 53.3493 140.7 54C140.433 54.6507 140.022 55.1627 139.468 55.536C138.913 55.9093 138.204 56.096 137.34 56.096C136.913 56.096 136.529 56.0533 136.188 55.968C135.846 55.872 135.548 55.7387 135.292 55.568C135.036 55.3973 134.812 55.2053 134.62 54.992V59.04H133.26ZM137.228 54.896C137.846 54.896 138.337 54.7573 138.7 54.48C139.062 54.192 139.324 53.8133 139.484 53.344C139.654 52.8747 139.74 52.3573 139.74 51.792C139.74 51.216 139.654 50.6933 139.484 50.224C139.324 49.7547 139.057 49.3813 138.684 49.104C138.31 48.8267 137.814 48.688 137.196 48.688C136.641 48.688 136.166 48.832 135.772 49.12C135.388 49.3973 135.094 49.776 134.892 50.256C134.689 50.7253 134.588 51.2427 134.588 51.808C134.588 52.3947 134.684 52.9227 134.876 53.392C135.068 53.8613 135.361 54.2293 135.756 54.496C136.15 54.7627 136.641 54.896 137.228 54.896ZM142.853 56V47.568H144.245V50.784H145.765C146.267 50.784 146.72 50.8267 147.125 50.912C147.531 50.9973 147.877 51.136 148.165 51.328C148.453 51.52 148.672 51.7813 148.821 52.112C148.971 52.432 149.045 52.8373 149.045 53.328C149.045 53.7973 148.965 54.2027 148.805 54.544C148.645 54.8853 148.416 55.1627 148.117 55.376C147.829 55.5893 147.483 55.7493 147.077 55.856C146.683 55.952 146.251 56 145.781 56H142.853ZM144.245 54.816H144.693C145.067 54.816 145.429 54.8107 145.781 54.8C146.133 54.7787 146.448 54.7253 146.725 54.64C147.013 54.5547 147.243 54.416 147.413 54.224C147.584 54.0213 147.669 53.7387 147.669 53.376C147.669 53.0347 147.6 52.7733 147.461 52.592C147.333 52.4 147.163 52.2613 146.949 52.176C146.736 52.08 146.501 52.0213 146.245 52C146 51.9787 145.755 51.968 145.509 51.968H144.245V54.816ZM150.213 56V47.568H151.573V56H150.213ZM153.713 56V47.568H156.977C157.35 47.568 157.718 47.5947 158.081 47.648C158.454 47.6907 158.79 47.7867 159.089 47.936C159.398 48.0747 159.643 48.2827 159.825 48.56C160.017 48.8373 160.113 49.2053 160.113 49.664C160.113 49.9413 160.07 50.1973 159.985 50.432C159.899 50.656 159.771 50.8533 159.601 51.024C159.441 51.1947 159.233 51.344 158.977 51.472C159.553 51.6 159.969 51.8507 160.225 52.224C160.481 52.5973 160.609 53.024 160.609 53.504C160.609 53.9307 160.529 54.304 160.369 54.624C160.219 54.9333 160.006 55.1893 159.729 55.392C159.462 55.5947 159.147 55.7493 158.785 55.856C158.433 55.952 158.054 56 157.649 56H153.713ZM155.105 54.816H157.329C157.659 54.816 157.969 54.784 158.257 54.72C158.545 54.656 158.779 54.5387 158.961 54.368C159.142 54.1867 159.233 53.9307 159.233 53.6C159.233 53.2587 159.153 53.0027 158.993 52.832C158.843 52.6507 158.646 52.528 158.401 52.464C158.166 52.3893 157.91 52.3467 157.633 52.336C157.355 52.3253 157.094 52.32 156.849 52.32H155.105V54.816ZM155.105 51.168H156.273C156.486 51.168 156.731 51.1573 157.009 51.136C157.297 51.1147 157.574 51.0667 157.841 50.992C158.118 50.9067 158.342 50.7787 158.513 50.608C158.694 50.4373 158.785 50.2027 158.785 49.904C158.785 49.5093 158.673 49.2373 158.449 49.088C158.235 48.928 157.979 48.8373 157.681 48.816C157.382 48.784 157.105 48.768 156.849 48.768H155.105V51.168ZM165.167 56.096C164.783 56.096 164.409 56.048 164.047 55.952C163.695 55.8453 163.375 55.6907 163.087 55.488C162.809 55.2747 162.585 55.0133 162.415 54.704C162.255 54.384 162.175 54.016 162.175 53.6C162.175 53.12 162.26 52.7147 162.431 52.384C162.612 52.0533 162.852 51.792 163.151 51.6C163.449 51.408 163.796 51.2693 164.191 51.184C164.585 51.0987 164.996 51.056 165.423 51.056H167.903C167.903 50.576 167.833 50.16 167.695 49.808C167.567 49.456 167.353 49.184 167.055 48.992C166.756 48.7893 166.361 48.688 165.871 48.688C165.572 48.688 165.295 48.72 165.039 48.784C164.783 48.848 164.564 48.9493 164.383 49.088C164.201 49.2267 164.068 49.4133 163.983 49.648H162.527C162.601 49.264 162.745 48.9387 162.959 48.672C163.183 48.3947 163.449 48.1707 163.759 48C164.079 47.8187 164.42 47.6853 164.783 47.6C165.145 47.5147 165.508 47.472 165.871 47.472C166.681 47.472 167.332 47.6373 167.823 47.968C168.313 48.288 168.671 48.7467 168.895 49.344C169.119 49.9307 169.231 50.6293 169.231 51.44V56H168.095L168.015 54.928C167.78 55.248 167.497 55.4933 167.167 55.664C166.836 55.8347 166.495 55.9467 166.143 56C165.801 56.064 165.476 56.096 165.167 56.096ZM165.295 54.896C165.828 54.896 166.287 54.8107 166.671 54.64C167.065 54.4587 167.369 54.1973 167.583 53.856C167.796 53.5147 167.903 53.0987 167.903 52.608V52.192H166.415C166.063 52.192 165.716 52.1973 165.375 52.208C165.033 52.2187 164.724 52.2613 164.447 52.336C164.169 52.4107 163.945 52.5387 163.775 52.72C163.615 52.9013 163.535 53.1627 163.535 53.504C163.535 53.824 163.615 54.0853 163.775 54.288C163.945 54.4907 164.164 54.6453 164.431 54.752C164.708 54.848 164.996 54.896 165.295 54.896ZM174.986 56.096C174.09 56.096 173.348 55.9147 172.762 55.552C172.175 55.1787 171.738 54.6667 171.45 54.016C171.162 53.3653 171.018 52.624 171.018 51.792C171.018 50.9493 171.167 50.208 171.466 49.568C171.775 48.9173 172.223 48.4053 172.81 48.032C173.396 47.6587 174.116 47.472 174.97 47.472C175.599 47.472 176.148 47.5947 176.618 47.84C177.098 48.0747 177.492 48.3947 177.802 48.8C178.122 49.2053 178.351 49.6587 178.49 50.16C178.639 50.6613 178.703 51.1787 178.682 51.712C178.671 51.808 178.666 51.904 178.666 52C178.666 52.096 178.66 52.192 178.65 52.288H172.394C172.436 52.7787 172.559 53.2213 172.762 53.616C172.964 54.0107 173.252 54.3253 173.626 54.56C173.999 54.784 174.463 54.896 175.018 54.896C175.295 54.896 175.572 54.864 175.85 54.8C176.138 54.7253 176.394 54.6027 176.618 54.432C176.852 54.2613 177.018 54.032 177.114 53.744H178.506C178.378 54.288 178.138 54.736 177.786 55.088C177.434 55.4293 177.012 55.6853 176.522 55.856C176.031 56.016 175.519 56.096 174.986 56.096ZM172.426 51.104H177.306C177.295 50.624 177.188 50.2027 176.986 49.84C176.783 49.4773 176.506 49.1947 176.154 48.992C175.812 48.7893 175.402 48.688 174.922 48.688C174.399 48.688 173.956 48.8 173.594 49.024C173.242 49.248 172.97 49.5413 172.778 49.904C172.586 50.2667 172.468 50.6667 172.426 51.104ZM182.478 56V48.768H179.582V47.568H186.734V48.768H183.838V56H182.478ZM192.26 59.04V47.568H193.556L193.62 48.864C193.908 48.4053 194.297 48.0587 194.788 47.824C195.289 47.5893 195.828 47.472 196.404 47.472C197.257 47.472 197.956 47.664 198.5 48.048C199.044 48.4213 199.444 48.9333 199.7 49.584C199.966 50.2347 200.1 50.9707 200.1 51.792C200.1 52.6133 199.966 53.3493 199.7 54C199.433 54.6507 199.022 55.1627 198.468 55.536C197.913 55.9093 197.204 56.096 196.34 56.096C195.913 56.096 195.529 56.0533 195.188 55.968C194.846 55.872 194.548 55.7387 194.292 55.568C194.036 55.3973 193.812 55.2053 193.62 54.992V59.04H192.26ZM196.228 54.896C196.846 54.896 197.337 54.7573 197.7 54.48C198.062 54.192 198.324 53.8133 198.484 53.344C198.654 52.8747 198.74 52.3573 198.74 51.792C198.74 51.216 198.654 50.6933 198.484 50.224C198.324 49.7547 198.057 49.3813 197.684 49.104C197.31 48.8267 196.814 48.688 196.196 48.688C195.641 48.688 195.166 48.832 194.772 49.12C194.388 49.3973 194.094 49.776 193.892 50.256C193.689 50.7253 193.588 51.2427 193.588 51.808C193.588 52.3947 193.684 52.9227 193.876 53.392C194.068 53.8613 194.361 54.2293 194.756 54.496C195.15 54.7627 195.641 54.896 196.228 54.896ZM205.501 56.096C204.605 56.096 203.864 55.9147 203.277 55.552C202.691 55.1787 202.253 54.6667 201.965 54.016C201.677 53.3653 201.533 52.624 201.533 51.792C201.533 50.9493 201.683 50.208 201.981 49.568C202.291 48.9173 202.739 48.4053 203.325 48.032C203.912 47.6587 204.632 47.472 205.485 47.472C206.115 47.472 206.664 47.5947 207.133 47.84C207.613 48.0747 208.008 48.3947 208.317 48.8C208.637 49.2053 208.867 49.6587 209.005 50.16C209.155 50.6613 209.219 51.1787 209.197 51.712C209.187 51.808 209.181 51.904 209.181 52C209.181 52.096 209.176 52.192 209.165 52.288H202.909C202.952 52.7787 203.075 53.2213 203.277 53.616C203.48 54.0107 203.768 54.3253 204.141 54.56C204.515 54.784 204.979 54.896 205.533 54.896C205.811 54.896 206.088 54.864 206.365 54.8C206.653 54.7253 206.909 54.6027 207.133 54.432C207.368 54.2613 207.533 54.032 207.629 53.744H209.021C208.893 54.288 208.653 54.736 208.301 55.088C207.949 55.4293 207.528 55.6853 207.037 55.856C206.547 56.016 206.035 56.096 205.501 56.096ZM202.941 51.104H207.821C207.811 50.624 207.704 50.2027 207.501 49.84C207.299 49.4773 207.021 49.1947 206.669 48.992C206.328 48.7893 205.917 48.688 205.437 48.688C204.915 48.688 204.472 48.8 204.109 49.024C203.757 49.248 203.485 49.5413 203.293 49.904C203.101 50.2667 202.984 50.6667 202.941 51.104ZM210.021 56L212.757 51.584L210.261 47.568H211.717L213.941 51.216H215.205V47.568H216.565V51.216H217.829L220.053 47.568H221.509L219.013 51.584L221.749 56H220.165L217.973 52.368H216.565V56H215.205V52.368H213.797L211.605 56H210.021ZM223.041 56V47.568H224.401V54.032C224.475 53.8827 224.577 53.7227 224.705 53.552C224.833 53.3707 224.934 53.232 225.009 53.136L229.089 47.568H230.433V56H229.073V49.536C228.987 49.696 228.891 49.8453 228.785 49.984C228.689 50.1227 228.598 50.2507 228.513 50.368L224.369 56H223.041ZM232.572 56V47.568H234.396L237.132 51.792L239.82 47.568H241.612V56H240.268V49.072L237.292 53.84H236.908L233.916 49.072V56H232.572ZM248.072 56V47.568H251.336C251.709 47.568 252.077 47.5947 252.44 47.648C252.813 47.6907 253.149 47.7867 253.448 47.936C253.757 48.0747 254.003 48.2827 254.184 48.56C254.376 48.8373 254.472 49.2053 254.472 49.664C254.472 49.9413 254.429 50.1973 254.344 50.432C254.259 50.656 254.131 50.8533 253.96 51.024C253.8 51.1947 253.592 51.344 253.336 51.472C253.912 51.6 254.328 51.8507 254.584 52.224C254.84 52.5973 254.968 53.024 254.968 53.504C254.968 53.9307 254.888 54.304 254.728 54.624C254.579 54.9333 254.365 55.1893 254.088 55.392C253.821 55.5947 253.507 55.7493 253.144 55.856C252.792 55.952 252.413 56 252.008 56H248.072ZM249.464 54.816H251.688C252.019 54.816 252.328 54.784 252.616 54.72C252.904 54.656 253.139 54.5387 253.32 54.368C253.501 54.1867 253.592 53.9307 253.592 53.6C253.592 53.2587 253.512 53.0027 253.352 52.832C253.203 52.6507 253.005 52.528 252.76 52.464C252.525 52.3893 252.269 52.3467 251.992 52.336C251.715 52.3253 251.453 52.32 251.208 52.32H249.464V54.816ZM249.464 51.168H250.632C250.845 51.168 251.091 51.1573 251.368 51.136C251.656 51.1147 251.933 51.0667 252.2 50.992C252.477 50.9067 252.701 50.7787 252.872 50.608C253.053 50.4373 253.144 50.2027 253.144 49.904C253.144 49.5093 253.032 49.2373 252.808 49.088C252.595 48.928 252.339 48.8373 252.04 48.816C251.741 48.784 251.464 48.768 251.208 48.768H249.464V51.168ZM256.822 56V47.568H258.182V54.032C258.257 53.8827 258.358 53.7227 258.486 53.552C258.614 53.3707 258.715 53.232 258.79 53.136L262.87 47.568H264.214V56H262.854V49.536C262.769 49.696 262.673 49.8453 262.566 49.984C262.47 50.1227 262.379 50.2507 262.294 50.368L258.15 56H256.822ZM266.353 59.04V47.568H267.649L267.713 48.864C268.001 48.4053 268.391 48.0587 268.881 47.824C269.383 47.5893 269.921 47.472 270.497 47.472C271.351 47.472 272.049 47.664 272.593 48.048C273.137 48.4213 273.537 48.9333 273.793 49.584C274.06 50.2347 274.193 50.9707 274.193 51.792C274.193 52.6133 274.06 53.3493 273.793 54C273.527 54.6507 273.116 55.1627 272.561 55.536C272.007 55.9093 271.297 56.096 270.433 56.096C270.007 56.096 269.623 56.0533 269.281 55.968C268.94 55.872 268.641 55.7387 268.385 55.568C268.129 55.3973 267.905 55.2053 267.713 54.992V59.04H266.353ZM270.321 54.896C270.94 54.896 271.431 54.7573 271.793 54.48C272.156 54.192 272.417 53.8133 272.577 53.344C272.748 52.8747 272.833 52.3573 272.833 51.792C272.833 51.216 272.748 50.6933 272.577 50.224C272.417 49.7547 272.151 49.3813 271.777 49.104C271.404 48.8267 270.908 48.688 270.289 48.688C269.735 48.688 269.26 48.832 268.865 49.12C268.481 49.3973 268.188 49.776 267.985 50.256C267.783 50.7253 267.681 51.2427 267.681 51.808C267.681 52.3947 267.777 52.9227 267.969 53.392C268.161 53.8613 268.455 54.2293 268.849 54.496C269.244 54.7627 269.735 54.896 270.321 54.896ZM277.915 56V48.768H275.019V47.568H282.171V48.768H279.275V56H277.915ZM283.969 59.616V58.32C284.492 58.32 284.908 58.2453 285.217 58.096C285.526 57.9573 285.782 57.7333 285.985 57.424C286.198 57.1253 286.401 56.7413 286.593 56.272L282.897 47.568H284.497L287.345 54.672L289.681 47.568H291.217L288.849 54.208C288.732 54.5493 288.598 54.9333 288.449 55.36C288.3 55.7867 288.134 56.2187 287.953 56.656C287.772 57.104 287.569 57.5147 287.345 57.888C287.132 58.272 286.892 58.5813 286.625 58.816C286.401 59.0187 286.182 59.1787 285.969 59.296C285.756 59.4133 285.494 59.4933 285.185 59.536C284.886 59.5893 284.481 59.616 283.969 59.616ZM295.182 56.096C294.798 56.096 294.425 56.048 294.062 55.952C293.71 55.8453 293.39 55.6907 293.102 55.488C292.825 55.2747 292.601 55.0133 292.43 54.704C292.27 54.384 292.19 54.016 292.19 53.6C292.19 53.12 292.276 52.7147 292.446 52.384C292.628 52.0533 292.868 51.792 293.166 51.6C293.465 51.408 293.812 51.2693 294.206 51.184C294.601 51.0987 295.012 51.056 295.438 51.056H297.918C297.918 50.576 297.849 50.16 297.71 49.808C297.582 49.456 297.369 49.184 297.07 48.992C296.772 48.7893 296.377 48.688 295.886 48.688C295.588 48.688 295.31 48.72 295.054 48.784C294.798 48.848 294.58 48.9493 294.398 49.088C294.217 49.2267 294.084 49.4133 293.998 49.648H292.542C292.617 49.264 292.761 48.9387 292.974 48.672C293.198 48.3947 293.465 48.1707 293.774 48C294.094 47.8187 294.436 47.6853 294.798 47.6C295.161 47.5147 295.524 47.472 295.886 47.472C296.697 47.472 297.348 47.6373 297.838 47.968C298.329 48.288 298.686 48.7467 298.91 49.344C299.134 49.9307 299.246 50.6293 299.246 51.44V56H298.11L298.03 54.928C297.796 55.248 297.513 55.4933 297.182 55.664C296.852 55.8347 296.51 55.9467 296.158 56C295.817 56.064 295.492 56.096 295.182 56.096ZM295.31 54.896C295.844 54.896 296.302 54.8107 296.686 54.64C297.081 54.4587 297.385 54.1973 297.598 53.856C297.812 53.5147 297.918 53.0987 297.918 52.608V52.192H296.43C296.078 52.192 295.732 52.1973 295.39 52.208C295.049 52.2187 294.74 52.2613 294.462 52.336C294.185 52.4107 293.961 52.5387 293.79 52.72C293.63 52.9013 293.55 53.1627 293.55 53.504C293.55 53.824 293.63 54.0853 293.79 54.288C293.961 54.4907 294.18 54.6453 294.446 54.752C294.724 54.848 295.012 54.896 295.31 54.896ZM300.585 56.016V54.832C300.799 54.832 300.991 54.7893 301.161 54.704C301.332 54.608 301.481 54.4693 301.609 54.288C301.759 54.0747 301.876 53.7653 301.961 53.36C302.047 52.9547 302.105 52.5227 302.137 52.064C302.18 51.552 302.212 51.0507 302.233 50.56C302.255 50.0587 302.271 49.5627 302.281 49.072C302.303 48.5813 302.313 48.08 302.313 47.568H308.169V56H306.809V48.768H303.641C303.631 49.1307 303.615 49.4987 303.593 49.872C303.583 50.2347 303.567 50.6027 303.545 50.976C303.535 51.3387 303.519 51.7067 303.497 52.08C303.487 52.5067 303.444 52.9867 303.369 53.52C303.295 54.0533 303.135 54.5387 302.889 54.976C302.655 55.392 302.367 55.6693 302.025 55.808C301.695 55.9467 301.215 56.016 300.585 56.016ZM310.306 56V47.568H311.698V50.784H313.554C314.056 50.784 314.504 50.8267 314.898 50.912C315.304 50.9867 315.65 51.12 315.938 51.312C316.226 51.504 316.445 51.7653 316.594 52.096C316.754 52.416 316.834 52.8267 316.834 53.328C316.834 53.7867 316.754 54.1867 316.594 54.528C316.434 54.8587 316.21 55.136 315.922 55.36C315.634 55.5733 315.288 55.7333 314.882 55.84C314.488 55.9467 314.05 56 313.57 56H310.306ZM311.698 54.816H312.498C312.872 54.816 313.229 54.8053 313.57 54.784C313.922 54.7627 314.242 54.7093 314.53 54.624C314.818 54.5387 315.042 54.4 315.202 54.208C315.373 54.0053 315.458 53.728 315.458 53.376C315.458 53.0347 315.389 52.7733 315.25 52.592C315.122 52.4 314.952 52.2613 314.738 52.176C314.525 52.08 314.29 52.0213 314.034 52C313.789 51.9787 313.544 51.968 313.298 51.968H311.698V54.816ZM318.603 56V47.568H319.963V51.264H324.187V47.568H325.547V56H324.187V52.464H319.963V56H318.603ZM331.377 56.096C330.492 56.096 329.75 55.9147 329.153 55.552C328.556 55.1787 328.108 54.6667 327.809 54.016C327.521 53.3653 327.377 52.624 327.377 51.792C327.377 50.9493 327.521 50.208 327.809 49.568C328.108 48.9173 328.556 48.4053 329.153 48.032C329.75 47.6587 330.502 47.472 331.409 47.472C332.294 47.472 333.03 47.6587 333.617 48.032C334.214 48.4053 334.657 48.9173 334.945 49.568C335.244 50.208 335.393 50.9493 335.393 51.792C335.393 52.624 335.244 53.3653 334.945 54.016C334.646 54.6667 334.198 55.1787 333.601 55.552C333.014 55.9147 332.273 56.096 331.377 56.096ZM331.377 54.896C331.996 54.896 332.497 54.7573 332.881 54.48C333.276 54.2027 333.564 53.8293 333.745 53.36C333.937 52.8907 334.033 52.368 334.033 51.792C334.033 51.216 333.937 50.6933 333.745 50.224C333.564 49.7547 333.276 49.3813 332.881 49.104C332.497 48.8267 331.996 48.688 331.377 48.688C330.769 48.688 330.268 48.8267 329.873 49.104C329.489 49.3813 329.201 49.7547 329.009 50.224C328.828 50.6933 328.737 51.216 328.737 51.792C328.737 52.368 328.828 52.8907 329.009 53.36C329.201 53.8293 329.489 54.2027 329.873 54.48C330.268 54.7573 330.769 54.896 331.377 54.896ZM337.213 56V47.568H338.573V54.032C338.647 53.8827 338.749 53.7227 338.877 53.552C339.005 53.3707 339.106 53.232 339.181 53.136L343.261 47.568H344.605V56H343.245V49.536C343.159 49.696 343.063 49.8453 342.957 49.984C342.861 50.1227 342.77 50.2507 342.685 50.368L338.541 56H337.213ZM341.021 46.384C340.178 46.384 339.517 46.2027 339.037 45.84C338.567 45.4773 338.322 44.9493 338.301 44.256H339.549C339.57 44.6293 339.709 44.9013 339.965 45.072C340.231 45.2427 340.589 45.328 341.037 45.328C341.485 45.328 341.837 45.2427 342.093 45.072C342.359 44.9013 342.503 44.6293 342.525 44.256H343.773C343.762 44.7147 343.645 45.104 343.421 45.424C343.197 45.744 342.882 45.984 342.477 46.144C342.071 46.304 341.586 46.384 341.021 46.384ZM106.072 79.04V67.568H107.368L107.432 68.864C107.72 68.4053 108.109 68.0587 108.6 67.824C109.101 67.5893 109.64 67.472 110.216 67.472C111.069 67.472 111.768 67.664 112.312 68.048C112.856 68.4213 113.256 68.9333 113.512 69.584C113.779 70.2347 113.912 70.9707 113.912 71.792C113.912 72.6133 113.779 73.3493 113.512 74C113.245 74.6507 112.835 75.1627 112.28 75.536C111.725 75.9093 111.016 76.096 110.152 76.096C109.725 76.096 109.341 76.0533 109 75.968C108.659 75.872 108.36 75.7387 108.104 75.568C107.848 75.3973 107.624 75.2053 107.432 74.992V79.04H106.072ZM110.04 74.896C110.659 74.896 111.149 74.7573 111.512 74.48C111.875 74.192 112.136 73.8133 112.296 73.344C112.467 72.8747 112.552 72.3573 112.552 71.792C112.552 71.216 112.467 70.6933 112.296 70.224C112.136 69.7547 111.869 69.3813 111.496 69.104C111.123 68.8267 110.627 68.688 110.008 68.688C109.453 68.688 108.979 68.832 108.584 69.12C108.2 69.3973 107.907 69.776 107.704 70.256C107.501 70.7253 107.4 71.2427 107.4 71.808C107.4 72.3947 107.496 72.9227 107.688 73.392C107.88 73.8613 108.173 74.2293 108.568 74.496C108.963 74.7627 109.453 74.896 110.04 74.896ZM119.314 76.096C118.418 76.096 117.676 75.9147 117.09 75.552C116.503 75.1787 116.066 74.6667 115.778 74.016C115.49 73.3653 115.346 72.624 115.346 71.792C115.346 70.9493 115.495 70.208 115.794 69.568C116.103 68.9173 116.551 68.4053 117.138 68.032C117.724 67.6587 118.444 67.472 119.298 67.472C119.927 67.472 120.476 67.5947 120.946 67.84C121.426 68.0747 121.82 68.3947 122.13 68.8C122.45 69.2053 122.679 69.6587 122.818 70.16C122.967 70.6613 123.031 71.1787 123.01 71.712C122.999 71.808 122.994 71.904 122.994 72C122.994 72.096 122.988 72.192 122.978 72.288H116.722C116.764 72.7787 116.887 73.2213 117.09 73.616C117.292 74.0107 117.58 74.3253 117.954 74.56C118.327 74.784 118.791 74.896 119.346 74.896C119.623 74.896 119.9 74.864 120.178 74.8C120.466 74.7253 120.722 74.6027 120.946 74.432C121.18 74.2613 121.346 74.032 121.442 73.744H122.834C122.706 74.288 122.466 74.736 122.114 75.088C121.762 75.4293 121.34 75.6853 120.85 75.856C120.359 76.016 119.847 76.096 119.314 76.096ZM116.754 71.104H121.634C121.623 70.624 121.516 70.2027 121.314 69.84C121.111 69.4773 120.834 69.1947 120.482 68.992C120.14 68.7893 119.73 68.688 119.25 68.688C118.727 68.688 118.284 68.8 117.922 69.024C117.57 69.248 117.298 69.5413 117.106 69.904C116.914 70.2667 116.796 70.6667 116.754 71.104ZM127.542 76.096C127.158 76.096 126.784 76.048 126.422 75.952C126.07 75.8453 125.75 75.6907 125.462 75.488C125.184 75.2747 124.96 75.0133 124.79 74.704C124.63 74.384 124.55 74.016 124.55 73.6C124.55 73.12 124.635 72.7147 124.806 72.384C124.987 72.0533 125.227 71.792 125.526 71.6C125.824 71.408 126.171 71.2693 126.566 71.184C126.96 71.0987 127.371 71.056 127.798 71.056H130.278C130.278 70.576 130.208 70.16 130.07 69.808C129.942 69.456 129.728 69.184 129.43 68.992C129.131 68.7893 128.736 68.688 128.246 68.688C127.947 68.688 127.67 68.72 127.414 68.784C127.158 68.848 126.939 68.9493 126.758 69.088C126.576 69.2267 126.443 69.4133 126.358 69.648H124.902C124.976 69.264 125.12 68.9387 125.334 68.672C125.558 68.3947 125.824 68.1707 126.134 68C126.454 67.8187 126.795 67.6853 127.158 67.6C127.52 67.5147 127.883 67.472 128.246 67.472C129.056 67.472 129.707 67.6373 130.198 67.968C130.688 68.288 131.046 68.7467 131.27 69.344C131.494 69.9307 131.606 70.6293 131.606 71.44V76H130.47L130.39 74.928C130.155 75.248 129.872 75.4933 129.542 75.664C129.211 75.8347 128.87 75.9467 128.518 76C128.176 76.064 127.851 76.096 127.542 76.096ZM127.67 74.896C128.203 74.896 128.662 74.8107 129.046 74.64C129.44 74.4587 129.744 74.1973 129.958 73.856C130.171 73.5147 130.278 73.0987 130.278 72.608V72.192H128.79C128.438 72.192 128.091 72.1973 127.75 72.208C127.408 72.2187 127.099 72.2613 126.822 72.336C126.544 72.4107 126.32 72.5387 126.15 72.72C125.99 72.9013 125.91 73.1627 125.91 73.504C125.91 73.824 125.99 74.0853 126.15 74.288C126.32 74.4907 126.539 74.6453 126.806 74.752C127.083 74.848 127.371 74.896 127.67 74.896ZM132.945 76.016V74.832C133.158 74.832 133.35 74.7893 133.521 74.704C133.691 74.608 133.841 74.4693 133.969 74.288C134.118 74.0747 134.235 73.7653 134.321 73.36C134.406 72.9547 134.465 72.5227 134.497 72.064C134.539 71.552 134.571 71.0507 134.593 70.56C134.614 70.0587 134.63 69.5627 134.641 69.072C134.662 68.5813 134.673 68.08 134.673 67.568H140.529V76H139.169V68.768H136.001C135.99 69.1307 135.974 69.4987 135.953 69.872C135.942 70.2347 135.926 70.6027 135.905 70.976C135.894 71.3387 135.878 71.7067 135.857 72.08C135.846 72.5067 135.803 72.9867 135.729 73.52C135.654 74.0533 135.494 74.5387 135.249 74.976C135.014 75.392 134.726 75.6693 134.385 75.808C134.054 75.9467 133.574 76.016 132.945 76.016ZM142.666 76V67.568H144.058V70.784H145.914C146.415 70.784 146.863 70.8267 147.258 70.912C147.663 70.9867 148.01 71.12 148.298 71.312C148.586 71.504 148.804 71.7653 148.954 72.096C149.114 72.416 149.194 72.8267 149.194 73.328C149.194 73.7867 149.114 74.1867 148.954 74.528C148.794 74.8587 148.57 75.136 148.282 75.36C147.994 75.5733 147.647 75.7333 147.242 75.84C146.847 75.9467 146.41 76 145.93 76H142.666ZM144.058 74.816H144.858C145.231 74.816 145.588 74.8053 145.93 74.784C146.282 74.7627 146.602 74.7093 146.89 74.624C147.178 74.5387 147.402 74.4 147.562 74.208C147.732 74.0053 147.818 73.728 147.818 73.376C147.818 73.0347 147.748 72.7733 147.61 72.592C147.482 72.4 147.311 72.2613 147.098 72.176C146.884 72.08 146.65 72.0213 146.394 72C146.148 71.9787 145.903 71.968 145.658 71.968H144.058V74.816ZM150.963 76V67.568H152.323V71.264H156.547V67.568H157.907V76H156.547V72.464H152.323V76H150.963ZM163.736 76.096C162.851 76.096 162.11 75.9147 161.512 75.552C160.915 75.1787 160.467 74.6667 160.168 74.016C159.88 73.3653 159.736 72.624 159.736 71.792C159.736 70.9493 159.88 70.208 160.168 69.568C160.467 68.9173 160.915 68.4053 161.512 68.032C162.11 67.6587 162.862 67.472 163.768 67.472C164.654 67.472 165.39 67.6587 165.976 68.032C166.574 68.4053 167.016 68.9173 167.304 69.568C167.603 70.208 167.752 70.9493 167.752 71.792C167.752 72.624 167.603 73.3653 167.304 74.016C167.006 74.6667 166.558 75.1787 165.96 75.552C165.374 75.9147 164.632 76.096 163.736 76.096ZM163.736 74.896C164.355 74.896 164.856 74.7573 165.24 74.48C165.635 74.2027 165.923 73.8293 166.104 73.36C166.296 72.8907 166.392 72.368 166.392 71.792C166.392 71.216 166.296 70.6933 166.104 70.224C165.923 69.7547 165.635 69.3813 165.24 69.104C164.856 68.8267 164.355 68.688 163.736 68.688C163.128 68.688 162.627 68.8267 162.232 69.104C161.848 69.3813 161.56 69.7547 161.368 70.224C161.187 70.6933 161.096 71.216 161.096 71.792C161.096 72.368 161.187 72.8907 161.368 73.36C161.56 73.8293 161.848 74.2027 162.232 74.48C162.627 74.7573 163.128 74.896 163.736 74.896ZM173.172 76.096C172.287 76.096 171.551 75.9147 170.964 75.552C170.388 75.1787 169.956 74.6667 169.668 74.016C169.391 73.3653 169.252 72.6293 169.252 71.808C169.252 71.008 169.396 70.2827 169.684 69.632C169.983 68.9707 170.431 68.448 171.028 68.064C171.636 67.6693 172.404 67.472 173.332 67.472C173.908 67.472 174.42 67.568 174.868 67.76C175.327 67.952 175.705 68.2347 176.004 68.608C176.303 68.9707 176.511 69.4293 176.628 69.984H175.236C175.076 69.5147 174.82 69.184 174.468 68.992C174.127 68.7893 173.721 68.688 173.252 68.688C172.612 68.688 172.1 68.8373 171.716 69.136C171.332 69.4347 171.049 69.824 170.868 70.304C170.697 70.7733 170.612 71.2747 170.612 71.808C170.612 72.3627 170.703 72.8747 170.884 73.344C171.065 73.8133 171.348 74.192 171.732 74.48C172.116 74.7573 172.612 74.896 173.22 74.896C173.668 74.896 174.089 74.8 174.484 74.608C174.889 74.416 175.156 74.0747 175.284 73.584H176.692C176.585 74.16 176.356 74.6347 176.004 75.008C175.663 75.3813 175.241 75.6587 174.74 75.84C174.249 76.0107 173.727 76.096 173.172 76.096ZM180.384 76V68.768H177.488V67.568H184.64V68.768H181.744V76H180.384ZM185.853 76V67.568H187.213V74.032C187.288 73.8827 187.389 73.7227 187.517 73.552C187.645 73.3707 187.747 73.232 187.821 73.136L191.901 67.568H193.245V76H191.885V69.536C191.8 69.696 191.704 69.8453 191.597 69.984C191.501 70.1227 191.411 70.2507 191.325 70.368L187.181 76H185.853ZM196.345 76.128C196.067 76.128 195.838 76.0373 195.657 75.856C195.475 75.6747 195.385 75.4453 195.385 75.168C195.385 74.8907 195.475 74.6613 195.657 74.48C195.838 74.2987 196.067 74.208 196.345 74.208C196.622 74.208 196.851 74.2987 197.033 74.48C197.214 74.6613 197.305 74.8907 197.305 75.168C197.305 75.4453 197.214 75.6747 197.033 75.856C196.851 76.0373 196.622 76.128 196.345 76.128ZM207.243 76.128C206.699 76.128 206.171 76.0693 205.659 75.952C205.147 75.8347 204.683 75.6587 204.267 75.424C203.862 75.1787 203.536 74.864 203.291 74.48C203.046 74.096 202.918 73.632 202.907 73.088H204.299C204.32 73.408 204.416 73.68 204.587 73.904C204.768 74.128 204.998 74.3147 205.275 74.464C205.552 74.6027 205.862 74.704 206.203 74.768C206.544 74.832 206.88 74.864 207.211 74.864C207.478 74.864 207.771 74.8427 208.091 74.8C208.411 74.7573 208.715 74.6667 209.003 74.528C209.302 74.3893 209.542 74.1867 209.723 73.92C209.915 73.6427 210.011 73.28 210.011 72.832C210.011 72.416 209.942 72.08 209.803 71.824C209.664 71.568 209.467 71.3707 209.211 71.232C208.955 71.0933 208.651 71.0027 208.299 70.96C207.958 70.9067 207.579 70.88 207.163 70.88H205.787V69.632H206.603C206.987 69.632 207.355 69.6 207.707 69.536C208.07 69.4613 208.39 69.3493 208.667 69.2C208.944 69.0507 209.163 68.8533 209.323 68.608C209.494 68.3627 209.579 68.064 209.579 67.712C209.579 67.1893 209.451 66.7947 209.195 66.528C208.95 66.2613 208.64 66.08 208.267 65.984C207.894 65.8773 207.52 65.824 207.147 65.824C206.72 65.824 206.31 65.888 205.915 66.016C205.531 66.1333 205.216 66.32 204.971 66.576C204.726 66.832 204.603 67.152 204.603 67.536H203.211C203.211 67.0347 203.307 66.6133 203.499 66.272C203.702 65.92 203.958 65.6373 204.267 65.424C204.587 65.2 204.928 65.024 205.291 64.896C205.654 64.768 206.006 64.6827 206.347 64.64C206.699 64.5867 206.998 64.56 207.243 64.56C207.723 64.56 208.182 64.6133 208.619 64.72C209.056 64.816 209.451 64.9813 209.803 65.216C210.155 65.44 210.432 65.7387 210.635 66.112C210.838 66.4853 210.939 66.9387 210.939 67.472C210.939 67.7387 210.902 68.0267 210.827 68.336C210.752 68.6347 210.598 68.9333 210.363 69.232C210.128 69.52 209.766 69.7813 209.275 70.016C209.947 70.144 210.475 70.4693 210.859 70.992C211.243 71.5147 211.435 72.1227 211.435 72.816C211.424 73.4133 211.296 73.9253 211.051 74.352C210.816 74.768 210.502 75.1093 210.107 75.376C209.712 75.632 209.27 75.824 208.779 75.952C208.288 76.0693 207.776 76.128 207.243 76.128ZM215.995 76.096C215.611 76.096 215.237 76.048 214.875 75.952C214.523 75.8453 214.203 75.6907 213.915 75.488C213.637 75.2747 213.413 75.0133 213.243 74.704C213.083 74.384 213.003 74.016 213.003 73.6C213.003 73.12 213.088 72.7147 213.259 72.384C213.44 72.0533 213.68 71.792 213.979 71.6C214.277 71.408 214.624 71.2693 215.019 71.184C215.413 71.0987 215.824 71.056 216.251 71.056H218.731C218.731 70.576 218.661 70.16 218.523 69.808C218.395 69.456 218.181 69.184 217.883 68.992C217.584 68.7893 217.189 68.688 216.699 68.688C216.4 68.688 216.123 68.72 215.867 68.784C215.611 68.848 215.392 68.9493 215.211 69.088C215.029 69.2267 214.896 69.4133 214.811 69.648H213.355C213.429 69.264 213.573 68.9387 213.787 68.672C214.011 68.3947 214.277 68.1707 214.587 68C214.907 67.8187 215.248 67.6853 215.611 67.6C215.973 67.5147 216.336 67.472 216.699 67.472C217.509 67.472 218.16 67.6373 218.651 67.968C219.141 68.288 219.499 68.7467 219.723 69.344C219.947 69.9307 220.059 70.6293 220.059 71.44V76H218.923L218.843 74.928C218.608 75.248 218.325 75.4933 217.995 75.664C217.664 75.8347 217.323 75.9467 216.971 76C216.629 76.064 216.304 76.096 215.995 76.096ZM216.123 74.896C216.656 74.896 217.115 74.8107 217.499 74.64C217.893 74.4587 218.197 74.1973 218.411 73.856C218.624 73.5147 218.731 73.0987 218.731 72.608V72.192H217.243C216.891 72.192 216.544 72.1973 216.203 72.208C215.861 72.2187 215.552 72.2613 215.275 72.336C214.997 72.4107 214.773 72.5387 214.603 72.72C214.443 72.9013 214.363 73.1627 214.363 73.504C214.363 73.824 214.443 74.0853 214.603 74.288C214.773 74.4907 214.992 74.6453 215.259 74.752C215.536 74.848 215.824 74.896 216.123 74.896ZM221.446 78.592V74.816C221.755 74.816 222 74.7307 222.182 74.56C222.374 74.3893 222.523 74.1653 222.63 73.888C222.736 73.6107 222.816 73.312 222.87 72.992C222.923 72.6613 222.966 72.3467 222.998 72.048C223.051 71.5573 223.083 71.072 223.094 70.592C223.115 70.1013 223.126 69.712 223.126 69.424C223.136 69.1147 223.142 68.8053 223.142 68.496C223.142 68.1867 223.142 67.8773 223.142 67.568H229.126V74.816H230.23V78.592H228.918V76H222.758V78.592H221.446ZM223.606 74.816H227.766V68.768H224.438C224.427 69.216 224.416 69.7173 224.406 70.272C224.395 70.8267 224.374 71.344 224.342 71.824C224.331 72.1013 224.304 72.416 224.262 72.768C224.23 73.12 224.166 73.4773 224.07 73.84C223.974 74.192 223.819 74.5173 223.606 74.816ZM234.354 76.096C233.97 76.096 233.597 76.048 233.234 75.952C232.882 75.8453 232.562 75.6907 232.274 75.488C231.997 75.2747 231.773 75.0133 231.602 74.704C231.442 74.384 231.362 74.016 231.362 73.6C231.362 73.12 231.447 72.7147 231.618 72.384C231.799 72.0533 232.039 71.792 232.338 71.6C232.637 71.408 232.983 71.2693 233.378 71.184C233.773 71.0987 234.183 71.056 234.61 71.056H237.09C237.09 70.576 237.021 70.16 236.882 69.808C236.754 69.456 236.541 69.184 236.242 68.992C235.943 68.7893 235.549 68.688 235.058 68.688C234.759 68.688 234.482 68.72 234.226 68.784C233.97 68.848 233.751 68.9493 233.57 69.088C233.389 69.2267 233.255 69.4133 233.17 69.648H231.714C231.789 69.264 231.933 68.9387 232.146 68.672C232.37 68.3947 232.637 68.1707 232.946 68C233.266 67.8187 233.607 67.6853 233.97 67.6C234.333 67.5147 234.695 67.472 235.058 67.472C235.869 67.472 236.519 67.6373 237.01 67.968C237.501 68.288 237.858 68.7467 238.082 69.344C238.306 69.9307 238.418 70.6293 238.418 71.44V76H237.282L237.202 74.928C236.967 75.248 236.685 75.4933 236.354 75.664C236.023 75.8347 235.682 75.9467 235.33 76C234.989 76.064 234.663 76.096 234.354 76.096ZM234.482 74.896C235.015 74.896 235.474 74.8107 235.858 74.64C236.253 74.4587 236.557 74.1973 236.77 73.856C236.983 73.5147 237.09 73.0987 237.09 72.608V72.192H235.602C235.25 72.192 234.903 72.1973 234.562 72.208C234.221 72.2187 233.911 72.2613 233.634 72.336C233.357 72.4107 233.133 72.5387 232.962 72.72C232.802 72.9013 232.722 73.1627 232.722 73.504C232.722 73.824 232.802 74.0853 232.962 74.288C233.133 74.4907 233.351 74.6453 233.618 74.752C233.895 74.848 234.183 74.896 234.482 74.896ZM244.173 76.096C243.277 76.096 242.536 75.9147 241.949 75.552C241.362 75.1787 240.925 74.6667 240.637 74.016C240.349 73.3653 240.205 72.624 240.205 71.792C240.205 70.9493 240.354 70.208 240.653 69.568C240.962 68.9173 241.41 68.4053 241.997 68.032C242.584 67.6587 243.304 67.472 244.157 67.472C244.786 67.472 245.336 67.5947 245.805 67.84C246.285 68.0747 246.68 68.3947 246.989 68.8C247.309 69.2053 247.538 69.6587 247.677 70.16C247.826 70.6613 247.89 71.1787 247.869 71.712C247.858 71.808 247.853 71.904 247.853 72C247.853 72.096 247.848 72.192 247.837 72.288H241.581C241.624 72.7787 241.746 73.2213 241.949 73.616C242.152 74.0107 242.44 74.3253 242.813 74.56C243.186 74.784 243.65 74.896 244.205 74.896C244.482 74.896 244.76 74.864 245.037 74.8C245.325 74.7253 245.581 74.6027 245.805 74.432C246.04 74.2613 246.205 74.032 246.301 73.744H247.693C247.565 74.288 247.325 74.736 246.973 75.088C246.621 75.4293 246.2 75.6853 245.709 75.856C245.218 76.016 244.706 76.096 244.173 76.096ZM241.613 71.104H246.493C246.482 70.624 246.376 70.2027 246.173 69.84C245.97 69.4773 245.693 69.1947 245.341 68.992C245 68.7893 244.589 68.688 244.109 68.688C243.586 68.688 243.144 68.8 242.781 69.024C242.429 69.248 242.157 69.5413 241.965 69.904C241.773 70.2667 241.656 70.6667 241.613 71.104ZM251.665 76V68.768H248.769V67.568H255.921V68.768H253.025V76H251.665ZM265.127 76.096C264.242 76.096 263.5 75.9147 262.903 75.552C262.306 75.1787 261.858 74.6667 261.559 74.016C261.271 73.3653 261.127 72.624 261.127 71.792C261.127 70.9493 261.271 70.208 261.559 69.568C261.858 68.9173 262.306 68.4053 262.903 68.032C263.5 67.6587 264.252 67.472 265.159 67.472C266.044 67.472 266.78 67.6587 267.367 68.032C267.964 68.4053 268.407 68.9173 268.695 69.568C268.994 70.208 269.143 70.9493 269.143 71.792C269.143 72.624 268.994 73.3653 268.695 74.016C268.396 74.6667 267.948 75.1787 267.351 75.552C266.764 75.9147 266.023 76.096 265.127 76.096ZM265.127 74.896C265.746 74.896 266.247 74.7573 266.631 74.48C267.026 74.2027 267.314 73.8293 267.495 73.36C267.687 72.8907 267.783 72.368 267.783 71.792C267.783 71.216 267.687 70.6933 267.495 70.224C267.314 69.7547 267.026 69.3813 266.631 69.104C266.247 68.8267 265.746 68.688 265.127 68.688C264.519 68.688 264.018 68.8267 263.623 69.104C263.239 69.3813 262.951 69.7547 262.759 70.224C262.578 70.6933 262.487 71.216 262.487 71.792C262.487 72.368 262.578 72.8907 262.759 73.36C262.951 73.8293 263.239 74.2027 263.623 74.48C264.018 74.7573 264.519 74.896 265.127 74.896ZM270.963 79.04V67.568H272.259L272.323 68.864C272.611 68.4053 273 68.0587 273.491 67.824C273.992 67.5893 274.531 67.472 275.107 67.472C275.96 67.472 276.659 67.664 277.203 68.048C277.747 68.4213 278.147 68.9333 278.403 69.584C278.669 70.2347 278.803 70.9707 278.803 71.792C278.803 72.6133 278.669 73.3493 278.403 74C278.136 74.6507 277.725 75.1627 277.171 75.536C276.616 75.9093 275.907 76.096 275.043 76.096C274.616 76.096 274.232 76.0533 273.891 75.968C273.549 75.872 273.251 75.7387 272.995 75.568C272.739 75.3973 272.515 75.2053 272.323 74.992V79.04H270.963ZM274.931 74.896C275.549 74.896 276.04 74.7573 276.403 74.48C276.765 74.192 277.027 73.8133 277.187 73.344C277.357 72.8747 277.443 72.3573 277.443 71.792C277.443 71.216 277.357 70.6933 277.187 70.224C277.027 69.7547 276.76 69.3813 276.387 69.104C276.013 68.8267 275.517 68.688 274.899 68.688C274.344 68.688 273.869 68.832 273.475 69.12C273.091 69.3973 272.797 69.776 272.595 70.256C272.392 70.7253 272.291 71.2427 272.291 71.808C272.291 72.3947 272.387 72.9227 272.579 73.392C272.771 73.8613 273.064 74.2293 273.459 74.496C273.853 74.7627 274.344 74.896 274.931 74.896ZM280.556 76V67.568H281.916V74.032C281.991 73.8827 282.092 73.7227 282.22 73.552C282.348 73.3707 282.45 73.232 282.524 73.136L286.604 67.568H287.948V76H286.588V69.536C286.503 69.696 286.407 69.8453 286.3 69.984C286.204 70.1227 286.114 70.2507 286.028 70.368L281.884 76H280.556ZM293.736 76.096C292.84 76.096 292.098 75.9147 291.512 75.552C290.925 75.1787 290.488 74.6667 290.2 74.016C289.912 73.3653 289.768 72.624 289.768 71.792C289.768 70.9493 289.917 70.208 290.216 69.568C290.525 68.9173 290.973 68.4053 291.56 68.032C292.146 67.6587 292.866 67.472 293.72 67.472C294.349 67.472 294.898 67.5947 295.368 67.84C295.848 68.0747 296.242 68.3947 296.552 68.8C296.872 69.2053 297.101 69.6587 297.24 70.16C297.389 70.6613 297.453 71.1787 297.432 71.712C297.421 71.808 297.416 71.904 297.416 72C297.416 72.096 297.41 72.192 297.4 72.288H291.144C291.186 72.7787 291.309 73.2213 291.512 73.616C291.714 74.0107 292.002 74.3253 292.376 74.56C292.749 74.784 293.213 74.896 293.768 74.896C294.045 74.896 294.322 74.864 294.6 74.8C294.888 74.7253 295.144 74.6027 295.368 74.432C295.602 74.2613 295.768 74.032 295.864 73.744H297.256C297.128 74.288 296.888 74.736 296.536 75.088C296.184 75.4293 295.762 75.6853 295.272 75.856C294.781 76.016 294.269 76.096 293.736 76.096ZM291.176 71.104H296.056C296.045 70.624 295.938 70.2027 295.736 69.84C295.533 69.4773 295.256 69.1947 294.904 68.992C294.562 68.7893 294.152 68.688 293.672 68.688C293.149 68.688 292.706 68.8 292.344 69.024C291.992 69.248 291.72 69.5413 291.528 69.904C291.336 70.2667 291.218 70.6667 291.176 71.104ZM299.26 76V67.568H300.62V71.264H304.844V67.568H306.204V76H304.844V72.464H300.62V76H299.26ZM310.321 76V68.768H307.425V67.568H314.577V68.768H311.681V76H310.321ZM318.495 76.096C318.111 76.096 317.737 76.048 317.375 75.952C317.023 75.8453 316.703 75.6907 316.415 75.488C316.137 75.2747 315.913 75.0133 315.743 74.704C315.583 74.384 315.503 74.016 315.503 73.6C315.503 73.12 315.588 72.7147 315.759 72.384C315.94 72.0533 316.18 71.792 316.479 71.6C316.777 71.408 317.124 71.2693 317.519 71.184C317.913 71.0987 318.324 71.056 318.751 71.056H321.231C321.231 70.576 321.161 70.16 321.023 69.808C320.895 69.456 320.681 69.184 320.383 68.992C320.084 68.7893 319.689 68.688 319.199 68.688C318.9 68.688 318.623 68.72 318.367 68.784C318.111 68.848 317.892 68.9493 317.711 69.088C317.529 69.2267 317.396 69.4133 317.311 69.648H315.855C315.929 69.264 316.073 68.9387 316.287 68.672C316.511 68.3947 316.777 68.1707 317.087 68C317.407 67.8187 317.748 67.6853 318.111 67.6C318.473 67.5147 318.836 67.472 319.199 67.472C320.009 67.472 320.66 67.6373 321.151 67.968C321.641 68.288 321.999 68.7467 322.223 69.344C322.447 69.9307 322.559 70.6293 322.559 71.44V76H321.423L321.343 74.928C321.108 75.248 320.825 75.4933 320.495 75.664C320.164 75.8347 319.823 75.9467 319.471 76C319.129 76.064 318.804 76.096 318.495 76.096ZM318.623 74.896C319.156 74.896 319.615 74.8107 319.999 74.64C320.393 74.4587 320.697 74.1973 320.911 73.856C321.124 73.5147 321.231 73.0987 321.231 72.608V72.192H319.743C319.391 72.192 319.044 72.1973 318.703 72.208C318.361 72.2187 318.052 72.2613 317.775 72.336C317.497 72.4107 317.273 72.5387 317.103 72.72C316.943 72.9013 316.863 73.1627 316.863 73.504C316.863 73.824 316.943 74.0853 317.103 74.288C317.273 74.4907 317.492 74.6453 317.759 74.752C318.036 74.848 318.324 74.896 318.623 74.896ZM331.258 78.592V76H324.666V67.568H326.026V74.816H330.106V67.568H331.482V74.816H332.586V78.592H331.258ZM334.01 76V67.568H335.37V74.032C335.444 73.8827 335.546 73.7227 335.674 73.552C335.802 73.3707 335.903 73.232 335.978 73.136L340.058 67.568H341.402V76H340.042V69.536C339.956 69.696 339.86 69.8453 339.754 69.984C339.658 70.1227 339.567 70.2507 339.482 70.368L335.338 76H334.01ZM343.541 76V67.568H344.901V74.032C344.975 73.8827 345.077 73.7227 345.205 73.552C345.333 73.3707 345.434 73.232 345.509 73.136L349.589 67.568H350.933V76H349.573V69.536C349.487 69.696 349.391 69.8453 349.285 69.984C349.189 70.1227 349.098 70.2507 349.013 70.368L344.869 76H343.541ZM109.192 96.096C108.637 96.096 108.104 96.0107 107.592 95.84C107.091 95.6587 106.664 95.3813 106.312 95.008C105.971 94.6347 105.741 94.16 105.624 93.584H107.032C107.117 93.9147 107.277 94.176 107.512 94.368C107.757 94.56 108.035 94.6987 108.344 94.784C108.653 94.8587 108.957 94.896 109.256 94.896C109.789 94.896 110.232 94.784 110.584 94.56C110.936 94.3253 111.203 94.0213 111.384 93.648C111.576 93.2747 111.677 92.864 111.688 92.416H107.992V91.232H111.704C111.672 90.7307 111.56 90.2933 111.368 89.92C111.176 89.536 110.904 89.2373 110.552 89.024C110.211 88.8 109.779 88.688 109.256 88.688C108.947 88.688 108.637 88.7307 108.328 88.816C108.029 88.8907 107.768 89.024 107.544 89.216C107.32 89.3973 107.165 89.6533 107.08 89.984H105.704C105.843 89.408 106.083 88.9387 106.424 88.576C106.765 88.2027 107.181 87.9253 107.672 87.744C108.163 87.5627 108.691 87.472 109.256 87.472C110.163 87.472 110.893 87.6587 111.448 88.032C112.013 88.4053 112.424 88.9173 112.68 89.568C112.947 90.2187 113.08 90.96 113.08 91.792C113.08 92.6453 112.941 93.3973 112.664 94.048C112.387 94.688 111.96 95.1893 111.384 95.552C110.819 95.9147 110.088 96.096 109.192 96.096ZM114.838 96V87.568H116.198V91.2H117.67L120.166 87.568H121.718L118.902 91.584L121.958 96H120.358L117.83 92.384H116.198V96H114.838ZM123.135 99.04V87.568H124.431L124.495 88.864C124.783 88.4053 125.172 88.0587 125.663 87.824C126.164 87.5893 126.703 87.472 127.279 87.472C128.132 87.472 128.831 87.664 129.375 88.048C129.919 88.4213 130.319 88.9333 130.575 89.584C130.841 90.2347 130.975 90.9707 130.975 91.792C130.975 92.6133 130.841 93.3493 130.575 94C130.308 94.6507 129.897 95.1627 129.343 95.536C128.788 95.9093 128.079 96.096 127.215 96.096C126.788 96.096 126.404 96.0533 126.062 95.968C125.721 95.872 125.423 95.7387 125.167 95.568C124.911 95.3973 124.687 95.2053 124.495 94.992V99.04H123.135ZM127.103 94.896C127.721 94.896 128.212 94.7573 128.575 94.48C128.937 94.192 129.199 93.8133 129.359 93.344C129.529 92.8747 129.615 92.3573 129.615 91.792C129.615 91.216 129.529 90.6933 129.359 90.224C129.199 89.7547 128.932 89.3813 128.559 89.104C128.185 88.8267 127.689 88.688 127.071 88.688C126.516 88.688 126.041 88.832 125.647 89.12C125.263 89.3973 124.969 89.776 124.767 90.256C124.564 90.7253 124.463 91.2427 124.463 91.808C124.463 92.3947 124.559 92.9227 124.751 93.392C124.943 93.8613 125.236 94.2293 125.631 94.496C126.025 94.7627 126.516 94.896 127.103 94.896ZM135.432 96.096C135.048 96.096 134.675 96.048 134.312 95.952C133.96 95.8453 133.64 95.6907 133.352 95.488C133.075 95.2747 132.851 95.0133 132.68 94.704C132.52 94.384 132.44 94.016 132.44 93.6C132.44 93.12 132.526 92.7147 132.696 92.384C132.878 92.0533 133.118 91.792 133.416 91.6C133.715 91.408 134.062 91.2693 134.456 91.184C134.851 91.0987 135.262 91.056 135.688 91.056H138.168C138.168 90.576 138.099 90.16 137.96 89.808C137.832 89.456 137.619 89.184 137.32 88.992C137.022 88.7893 136.627 88.688 136.136 88.688C135.838 88.688 135.56 88.72 135.304 88.784C135.048 88.848 134.83 88.9493 134.648 89.088C134.467 89.2267 134.334 89.4133 134.248 89.648H132.792C132.867 89.264 133.011 88.9387 133.224 88.672C133.448 88.3947 133.715 88.1707 134.024 88C134.344 87.8187 134.686 87.6853 135.048 87.6C135.411 87.5147 135.774 87.472 136.136 87.472C136.947 87.472 137.598 87.6373 138.088 87.968C138.579 88.288 138.936 88.7467 139.16 89.344C139.384 89.9307 139.496 90.6293 139.496 91.44V96H138.36L138.28 94.928C138.046 95.248 137.763 95.4933 137.432 95.664C137.102 95.8347 136.76 95.9467 136.408 96C136.067 96.064 135.742 96.096 135.432 96.096ZM135.56 94.896C136.094 94.896 136.552 94.8107 136.936 94.64C137.331 94.4587 137.635 94.1973 137.848 93.856C138.062 93.5147 138.168 93.0987 138.168 92.608V92.192H136.68C136.328 92.192 135.982 92.1973 135.64 92.208C135.299 92.2187 134.99 92.2613 134.712 92.336C134.435 92.4107 134.211 92.5387 134.04 92.72C133.88 92.9013 133.8 93.1627 133.8 93.504C133.8 93.824 133.88 94.0853 134.04 94.288C134.211 94.4907 134.43 94.6453 134.696 94.752C134.974 94.848 135.262 94.896 135.56 94.896ZM141.603 96V87.568H142.963V91.264H147.187V87.568H148.547V96H147.187V92.464H142.963V96H141.603ZM153.401 96.096C153.017 96.096 152.644 96.048 152.281 95.952C151.929 95.8453 151.609 95.6907 151.321 95.488C151.044 95.2747 150.82 95.0133 150.649 94.704C150.489 94.384 150.409 94.016 150.409 93.6C150.409 93.12 150.494 92.7147 150.665 92.384C150.846 92.0533 151.086 91.792 151.385 91.6C151.684 91.408 152.03 91.2693 152.425 91.184C152.82 91.0987 153.23 91.056 153.657 91.056H156.137C156.137 90.576 156.068 90.16 155.929 89.808C155.801 89.456 155.588 89.184 155.289 88.992C154.99 88.7893 154.596 88.688 154.105 88.688C153.806 88.688 153.529 88.72 153.273 88.784C153.017 88.848 152.798 88.9493 152.617 89.088C152.436 89.2267 152.302 89.4133 152.217 89.648H150.761C150.836 89.264 150.98 88.9387 151.193 88.672C151.417 88.3947 151.684 88.1707 151.993 88C152.313 87.8187 152.654 87.6853 153.017 87.6C153.38 87.5147 153.742 87.472 154.105 87.472C154.916 87.472 155.566 87.6373 156.057 87.968C156.548 88.288 156.905 88.7467 157.129 89.344C157.353 89.9307 157.465 90.6293 157.465 91.44V96H156.329L156.249 94.928C156.014 95.248 155.732 95.4933 155.401 95.664C155.07 95.8347 154.729 95.9467 154.377 96C154.036 96.064 153.71 96.096 153.401 96.096ZM153.529 94.896C154.062 94.896 154.521 94.8107 154.905 94.64C155.3 94.4587 155.604 94.1973 155.817 93.856C156.03 93.5147 156.137 93.0987 156.137 92.608V92.192H154.649C154.297 92.192 153.95 92.1973 153.609 92.208C153.268 92.2187 152.958 92.2613 152.681 92.336C152.404 92.4107 152.18 92.5387 152.009 92.72C151.849 92.9013 151.769 93.1627 151.769 93.504C151.769 93.824 151.849 94.0853 152.009 94.288C152.18 94.4907 152.398 94.6453 152.665 94.752C152.942 94.848 153.23 94.896 153.529 94.896ZM163.997 92.112V90.864H168.957V92.112H163.997ZM175.525 96V87.568H182.517V96H181.157V88.768H176.885V96H175.525ZM188.346 96.096C187.46 96.096 186.719 95.9147 186.122 95.552C185.524 95.1787 185.076 94.6667 184.778 94.016C184.49 93.3653 184.346 92.624 184.346 91.792C184.346 90.9493 184.49 90.208 184.778 89.568C185.076 88.9173 185.524 88.4053 186.122 88.032C186.719 87.6587 187.471 87.472 188.378 87.472C189.263 87.472 189.999 87.6587 190.586 88.032C191.183 88.4053 191.626 88.9173 191.914 89.568C192.212 90.208 192.362 90.9493 192.362 91.792C192.362 92.624 192.212 93.3653 191.914 94.016C191.615 94.6667 191.167 95.1787 190.57 95.552C189.983 95.9147 189.242 96.096 188.346 96.096ZM188.346 94.896C188.964 94.896 189.466 94.7573 189.85 94.48C190.244 94.2027 190.532 93.8293 190.714 93.36C190.906 92.8907 191.002 92.368 191.002 91.792C191.002 91.216 190.906 90.6933 190.714 90.224C190.532 89.7547 190.244 89.3813 189.85 89.104C189.466 88.8267 188.964 88.688 188.346 88.688C187.738 88.688 187.236 88.8267 186.842 89.104C186.458 89.3813 186.17 89.7547 185.978 90.224C185.796 90.6933 185.706 91.216 185.706 91.792C185.706 92.368 185.796 92.8907 185.978 93.36C186.17 93.8293 186.458 94.2027 186.842 94.48C187.236 94.7573 187.738 94.896 188.346 94.896ZM194.181 99.04V87.568H195.477L195.541 88.864C195.829 88.4053 196.219 88.0587 196.709 87.824C197.211 87.5893 197.749 87.472 198.325 87.472C199.179 87.472 199.877 87.664 200.421 88.048C200.965 88.4213 201.365 88.9333 201.621 89.584C201.888 90.2347 202.021 90.9707 202.021 91.792C202.021 92.6133 201.888 93.3493 201.621 94C201.355 94.6507 200.944 95.1627 200.389 95.536C199.835 95.9093 199.125 96.096 198.261 96.096C197.835 96.096 197.451 96.0533 197.109 95.968C196.768 95.872 196.469 95.7387 196.213 95.568C195.957 95.3973 195.733 95.2053 195.541 94.992V99.04H194.181ZM198.149 94.896C198.768 94.896 199.259 94.7573 199.621 94.48C199.984 94.192 200.245 93.8133 200.405 93.344C200.576 92.8747 200.661 92.3573 200.661 91.792C200.661 91.216 200.576 90.6933 200.405 90.224C200.245 89.7547 199.979 89.3813 199.605 89.104C199.232 88.8267 198.736 88.688 198.117 88.688C197.563 88.688 197.088 88.832 196.693 89.12C196.309 89.3973 196.016 89.776 195.813 90.256C195.611 90.7253 195.509 91.2427 195.509 91.808C195.509 92.3947 195.605 92.9227 195.797 93.392C195.989 93.8613 196.283 94.2293 196.677 94.496C197.072 94.7627 197.563 94.896 198.149 94.896ZM205.743 96V88.768H202.847V87.568H209.999V88.768H207.103V96H205.743ZM211.213 99.04V87.568H212.509L212.573 88.864C212.861 88.4053 213.25 88.0587 213.741 87.824C214.242 87.5893 214.781 87.472 215.357 87.472C216.21 87.472 216.909 87.664 217.453 88.048C217.997 88.4213 218.397 88.9333 218.653 89.584C218.919 90.2347 219.053 90.9707 219.053 91.792C219.053 92.6133 218.919 93.3493 218.653 94C218.386 94.6507 217.975 95.1627 217.421 95.536C216.866 95.9093 216.157 96.096 215.293 96.096C214.866 96.096 214.482 96.0533 214.141 95.968C213.799 95.872 213.501 95.7387 213.245 95.568C212.989 95.3973 212.765 95.2053 212.573 94.992V99.04H211.213ZM215.181 94.896C215.799 94.896 216.29 94.7573 216.653 94.48C217.015 94.192 217.277 93.8133 217.437 93.344C217.607 92.8747 217.693 92.3573 217.693 91.792C217.693 91.216 217.607 90.6933 217.437 90.224C217.277 89.7547 217.01 89.3813 216.637 89.104C216.263 88.8267 215.767 88.688 215.149 88.688C214.594 88.688 214.119 88.832 213.725 89.12C213.341 89.3973 213.047 89.776 212.845 90.256C212.642 90.7253 212.541 91.2427 212.541 91.808C212.541 92.3947 212.637 92.9227 212.829 93.392C213.021 93.8613 213.314 94.2293 213.709 94.496C214.103 94.7627 214.594 94.896 215.181 94.896ZM224.454 96.096C223.558 96.096 222.817 95.9147 222.23 95.552C221.644 95.1787 221.206 94.6667 220.918 94.016C220.63 93.3653 220.486 92.624 220.486 91.792C220.486 90.9493 220.636 90.208 220.934 89.568C221.244 88.9173 221.692 88.4053 222.278 88.032C222.865 87.6587 223.585 87.472 224.438 87.472C225.068 87.472 225.617 87.5947 226.086 87.84C226.566 88.0747 226.961 88.3947 227.27 88.8C227.59 89.2053 227.82 89.6587 227.958 90.16C228.108 90.6613 228.172 91.1787 228.15 91.712C228.14 91.808 228.134 91.904 228.134 92C228.134 92.096 228.129 92.192 228.118 92.288H221.862C221.905 92.7787 222.028 93.2213 222.23 93.616C222.433 94.0107 222.721 94.3253 223.094 94.56C223.468 94.784 223.932 94.896 224.486 94.896C224.764 94.896 225.041 94.864 225.318 94.8C225.606 94.7253 225.862 94.6027 226.086 94.432C226.321 94.2613 226.486 94.032 226.582 93.744H227.974C227.846 94.288 227.606 94.736 227.254 95.088C226.902 95.4293 226.481 95.6853 225.99 95.856C225.5 96.016 224.988 96.096 224.454 96.096ZM221.894 91.104H226.774C226.764 90.624 226.657 90.2027 226.454 89.84C226.252 89.4773 225.974 89.1947 225.622 88.992C225.281 88.7893 224.87 88.688 224.39 88.688C223.868 88.688 223.425 88.8 223.062 89.024C222.71 89.248 222.438 89.5413 222.246 89.904C222.054 90.2667 221.937 90.6667 221.894 91.104ZM231.946 96V88.768H229.05V87.568H236.202V88.768H233.306V96H231.946ZM237.159 97.936L236.775 97.408C236.924 97.3013 237.063 97.1733 237.191 97.024C237.319 96.8747 237.431 96.7147 237.527 96.544C237.634 96.3733 237.708 96.2027 237.751 96.032C237.474 96.0107 237.25 95.92 237.079 95.76C236.908 95.6 236.823 95.3867 236.823 95.12C236.834 94.8427 236.93 94.624 237.111 94.464C237.303 94.2933 237.522 94.208 237.767 94.208C238.076 94.208 238.322 94.32 238.503 94.544C238.695 94.768 238.791 95.0827 238.791 95.488C238.791 95.808 238.711 96.1387 238.551 96.48C238.402 96.8213 238.204 97.12 237.959 97.376C237.714 97.6427 237.447 97.8293 237.159 97.936ZM244.775 96V87.568H246.135V94.032C246.21 93.8827 246.311 93.7227 246.439 93.552C246.567 93.3707 246.668 93.232 246.743 93.136L250.823 87.568H252.167V96H250.807V89.536C250.722 89.696 250.626 89.8453 250.519 89.984C250.423 90.1227 250.332 90.2507 250.247 90.368L246.103 96H244.775ZM262.299 96.096C261.414 96.096 260.672 95.9147 260.075 95.552C259.478 95.1787 259.03 94.6667 258.731 94.016C258.443 93.3653 258.299 92.624 258.299 91.792C258.299 90.9493 258.443 90.208 258.731 89.568C259.03 88.9173 259.478 88.4053 260.075 88.032C260.672 87.6587 261.424 87.472 262.331 87.472C263.216 87.472 263.952 87.6587 264.539 88.032C265.136 88.4053 265.579 88.9173 265.867 89.568C266.166 90.208 266.315 90.9493 266.315 91.792C266.315 92.624 266.166 93.3653 265.867 94.016C265.568 94.6667 265.12 95.1787 264.523 95.552C263.936 95.9147 263.195 96.096 262.299 96.096ZM262.299 94.896C262.918 94.896 263.419 94.7573 263.803 94.48C264.198 94.2027 264.486 93.8293 264.667 93.36C264.859 92.8907 264.955 92.368 264.955 91.792C264.955 91.216 264.859 90.6933 264.667 90.224C264.486 89.7547 264.198 89.3813 263.803 89.104C263.419 88.8267 262.918 88.688 262.299 88.688C261.691 88.688 261.19 88.8267 260.795 89.104C260.411 89.3813 260.123 89.7547 259.931 90.224C259.75 90.6933 259.659 91.216 259.659 91.792C259.659 92.368 259.75 92.8907 259.931 93.36C260.123 93.8293 260.411 94.2027 260.795 94.48C261.19 94.7573 261.691 94.896 262.299 94.896ZM270.103 96V88.768H267.207V87.568H274.359V88.768H271.463V96H270.103ZM275.572 96V87.568H276.932V91.2H278.404L280.9 87.568H282.452L279.636 91.584L282.692 96H281.092L278.564 92.384H276.932V96H275.572ZM283.869 99.04V87.568H285.165L285.229 88.864C285.517 88.4053 285.906 88.0587 286.397 87.824C286.898 87.5893 287.437 87.472 288.013 87.472C288.866 87.472 289.565 87.664 290.109 88.048C290.653 88.4213 291.053 88.9333 291.309 89.584C291.576 90.2347 291.709 90.9707 291.709 91.792C291.709 92.6133 291.576 93.3493 291.309 94C291.042 94.6507 290.632 95.1627 290.077 95.536C289.522 95.9093 288.813 96.096 287.949 96.096C287.522 96.096 287.138 96.0533 286.797 95.968C286.456 95.872 286.157 95.7387 285.901 95.568C285.645 95.3973 285.421 95.2053 285.229 94.992V99.04H283.869ZM287.837 94.896C288.456 94.896 288.946 94.7573 289.309 94.48C289.672 94.192 289.933 93.8133 290.093 93.344C290.264 92.8747 290.349 92.3573 290.349 91.792C290.349 91.216 290.264 90.6933 290.093 90.224C289.933 89.7547 289.666 89.3813 289.293 89.104C288.92 88.8267 288.424 88.688 287.805 88.688C287.25 88.688 286.776 88.832 286.381 89.12C285.997 89.3973 285.704 89.776 285.501 90.256C285.298 90.7253 285.197 91.2427 285.197 91.808C285.197 92.3947 285.293 92.9227 285.485 93.392C285.677 93.8613 285.97 94.2293 286.365 94.496C286.76 94.7627 287.25 94.896 287.837 94.896ZM293.463 96V87.568H294.855V90.784H296.375C296.876 90.784 297.329 90.8267 297.735 90.912C298.14 90.9973 298.487 91.136 298.775 91.328C299.063 91.52 299.281 91.7813 299.431 92.112C299.58 92.432 299.655 92.8373 299.655 93.328C299.655 93.7973 299.575 94.2027 299.415 94.544C299.255 94.8853 299.025 95.1627 298.727 95.376C298.439 95.5893 298.092 95.7493 297.687 95.856C297.292 95.952 296.86 96 296.391 96H293.463ZM294.855 94.816H295.303C295.676 94.816 296.039 94.8107 296.391 94.8C296.743 94.7787 297.057 94.7253 297.335 94.64C297.623 94.5547 297.852 94.416 298.023 94.224C298.193 94.0213 298.279 93.7387 298.279 93.376C298.279 93.0347 298.209 92.7733 298.071 92.592C297.943 92.4 297.772 92.2613 297.559 92.176C297.345 92.08 297.111 92.0213 296.855 92C296.609 91.9787 296.364 91.968 296.119 91.968H294.855V94.816ZM300.823 96V87.568H302.183V96H300.823ZM304.322 96V87.568H307.586C307.959 87.568 308.327 87.5947 308.69 87.648C309.063 87.6907 309.399 87.7867 309.698 87.936C310.007 88.0747 310.253 88.2827 310.434 88.56C310.626 88.8373 310.722 89.2053 310.722 89.664C310.722 89.9413 310.679 90.1973 310.594 90.432C310.509 90.656 310.381 90.8533 310.21 91.024C310.05 91.1947 309.842 91.344 309.586 91.472C310.162 91.6 310.578 91.8507 310.834 92.224C311.09 92.5973 311.218 93.024 311.218 93.504C311.218 93.9307 311.138 94.304 310.978 94.624C310.829 94.9333 310.615 95.1893 310.338 95.392C310.071 95.5947 309.757 95.7493 309.394 95.856C309.042 95.952 308.663 96 308.258 96H304.322ZM305.714 94.816H307.938C308.269 94.816 308.578 94.784 308.866 94.72C309.154 94.656 309.389 94.5387 309.57 94.368C309.751 94.1867 309.842 93.9307 309.842 93.6C309.842 93.2587 309.762 93.0027 309.602 92.832C309.453 92.6507 309.255 92.528 309.01 92.464C308.775 92.3893 308.519 92.3467 308.242 92.336C307.965 92.3253 307.703 92.32 307.458 92.32H305.714V94.816ZM305.714 91.168H306.882C307.095 91.168 307.341 91.1573 307.618 91.136C307.906 91.1147 308.183 91.0667 308.45 90.992C308.727 90.9067 308.951 90.7787 309.122 90.608C309.303 90.4373 309.394 90.2027 309.394 89.904C309.394 89.5093 309.282 89.2373 309.058 89.088C308.845 88.928 308.589 88.8373 308.29 88.816C307.991 88.784 307.714 88.768 307.458 88.768H305.714V91.168ZM315.776 96.096C315.392 96.096 315.019 96.048 314.656 95.952C314.304 95.8453 313.984 95.6907 313.696 95.488C313.419 95.2747 313.195 95.0133 313.024 94.704C312.864 94.384 312.784 94.016 312.784 93.6C312.784 93.12 312.869 92.7147 313.04 92.384C313.221 92.0533 313.461 91.792 313.76 91.6C314.059 91.408 314.405 91.2693 314.8 91.184C315.195 91.0987 315.605 91.056 316.032 91.056H318.512C318.512 90.576 318.443 90.16 318.304 89.808C318.176 89.456 317.963 89.184 317.664 88.992C317.365 88.7893 316.971 88.688 316.48 88.688C316.181 88.688 315.904 88.72 315.648 88.784C315.392 88.848 315.173 88.9493 314.992 89.088C314.811 89.2267 314.677 89.4133 314.592 89.648H313.136C313.211 89.264 313.355 88.9387 313.568 88.672C313.792 88.3947 314.059 88.1707 314.368 88C314.688 87.8187 315.029 87.6853 315.392 87.6C315.755 87.5147 316.117 87.472 316.48 87.472C317.291 87.472 317.941 87.6373 318.432 87.968C318.923 88.288 319.28 88.7467 319.504 89.344C319.728 89.9307 319.84 90.6293 319.84 91.44V96H318.704L318.624 94.928C318.389 95.248 318.107 95.4933 317.776 95.664C317.445 95.8347 317.104 95.9467 316.752 96C316.411 96.064 316.085 96.096 315.776 96.096ZM315.904 94.896C316.437 94.896 316.896 94.8107 317.28 94.64C317.675 94.4587 317.979 94.1973 318.192 93.856C318.405 93.5147 318.512 93.0987 318.512 92.608V92.192H317.024C316.672 92.192 316.325 92.1973 315.984 92.208C315.643 92.2187 315.333 92.2613 315.056 92.336C314.779 92.4107 314.555 92.5387 314.384 92.72C314.224 92.9013 314.144 93.1627 314.144 93.504C314.144 93.824 314.224 94.0853 314.384 94.288C314.555 94.4907 314.773 94.6453 315.04 94.752C315.317 94.848 315.605 94.896 315.904 94.896ZM325.595 96.096C324.699 96.096 323.958 95.9147 323.371 95.552C322.784 95.1787 322.347 94.6667 322.059 94.016C321.771 93.3653 321.627 92.624 321.627 91.792C321.627 90.9493 321.776 90.208 322.075 89.568C322.384 88.9173 322.832 88.4053 323.419 88.032C324.006 87.6587 324.726 87.472 325.579 87.472C326.208 87.472 326.758 87.5947 327.227 87.84C327.707 88.0747 328.102 88.3947 328.411 88.8C328.731 89.2053 328.96 89.6587 329.099 90.16C329.248 90.6613 329.312 91.1787 329.291 91.712C329.28 91.808 329.275 91.904 329.275 92C329.275 92.096 329.27 92.192 329.259 92.288H323.003C323.046 92.7787 323.168 93.2213 323.371 93.616C323.574 94.0107 323.862 94.3253 324.235 94.56C324.608 94.784 325.072 94.896 325.627 94.896C325.904 94.896 326.182 94.864 326.459 94.8C326.747 94.7253 327.003 94.6027 327.227 94.432C327.462 94.2613 327.627 94.032 327.723 93.744H329.115C328.987 94.288 328.747 94.736 328.395 95.088C328.043 95.4293 327.622 95.6853 327.131 95.856C326.64 96.016 326.128 96.096 325.595 96.096ZM323.035 91.104H327.915C327.904 90.624 327.798 90.2027 327.595 89.84C327.392 89.4773 327.115 89.1947 326.763 88.992C326.422 88.7893 326.011 88.688 325.531 88.688C325.008 88.688 324.566 88.8 324.203 89.024C323.851 89.248 323.579 89.5413 323.387 89.904C323.195 90.2667 323.078 90.6667 323.035 91.104ZM333.087 96V88.768H330.191V87.568H337.343V88.768H334.447V96H333.087ZM106.072 116V107.568H113.064V116H111.704V108.768H107.432V116H106.072ZM115.213 119.04V107.568H116.509L116.573 108.864C116.861 108.405 117.25 108.059 117.741 107.824C118.242 107.589 118.781 107.472 119.357 107.472C120.21 107.472 120.909 107.664 121.453 108.048C121.997 108.421 122.397 108.933 122.653 109.584C122.919 110.235 123.053 110.971 123.053 111.792C123.053 112.613 122.919 113.349 122.653 114C122.386 114.651 121.975 115.163 121.421 115.536C120.866 115.909 120.157 116.096 119.293 116.096C118.866 116.096 118.482 116.053 118.141 115.968C117.799 115.872 117.501 115.739 117.245 115.568C116.989 115.397 116.765 115.205 116.573 114.992V119.04H115.213ZM119.181 114.896C119.799 114.896 120.29 114.757 120.653 114.48C121.015 114.192 121.277 113.813 121.437 113.344C121.607 112.875 121.693 112.357 121.693 111.792C121.693 111.216 121.607 110.693 121.437 110.224C121.277 109.755 121.01 109.381 120.637 109.104C120.263 108.827 119.767 108.688 119.149 108.688C118.594 108.688 118.119 108.832 117.725 109.12C117.341 109.397 117.047 109.776 116.845 110.256C116.642 110.725 116.541 111.243 116.541 111.808C116.541 112.395 116.637 112.923 116.829 113.392C117.021 113.861 117.314 114.229 117.709 114.496C118.103 114.763 118.594 114.896 119.181 114.896ZM128.486 116.096C127.601 116.096 126.86 115.915 126.262 115.552C125.665 115.179 125.217 114.667 124.918 114.016C124.63 113.365 124.486 112.624 124.486 111.792C124.486 110.949 124.63 110.208 124.918 109.568C125.217 108.917 125.665 108.405 126.262 108.032C126.86 107.659 127.612 107.472 128.518 107.472C129.404 107.472 130.14 107.659 130.726 108.032C131.324 108.405 131.766 108.917 132.054 109.568C132.353 110.208 132.502 110.949 132.502 111.792C132.502 112.624 132.353 113.365 132.054 114.016C131.756 114.667 131.308 115.179 130.71 115.552C130.124 115.915 129.382 116.096 128.486 116.096ZM128.486 114.896C129.105 114.896 129.606 114.757 129.99 114.48C130.385 114.203 130.673 113.829 130.854 113.36C131.046 112.891 131.142 112.368 131.142 111.792C131.142 111.216 131.046 110.693 130.854 110.224C130.673 109.755 130.385 109.381 129.99 109.104C129.606 108.827 129.105 108.688 128.486 108.688C127.878 108.688 127.377 108.827 126.982 109.104C126.598 109.381 126.31 109.755 126.118 110.224C125.937 110.693 125.846 111.216 125.846 111.792C125.846 112.368 125.937 112.891 126.118 113.36C126.31 113.829 126.598 114.203 126.982 114.48C127.377 114.757 127.878 114.896 128.486 114.896ZM137.922 116.096C137.037 116.096 136.301 115.915 135.714 115.552C135.138 115.179 134.706 114.667 134.418 114.016C134.141 113.365 134.002 112.629 134.002 111.808C134.002 111.008 134.146 110.283 134.434 109.632C134.733 108.971 135.181 108.448 135.778 108.064C136.386 107.669 137.154 107.472 138.082 107.472C138.658 107.472 139.17 107.568 139.618 107.76C140.077 107.952 140.455 108.235 140.754 108.608C141.053 108.971 141.261 109.429 141.378 109.984H139.986C139.826 109.515 139.57 109.184 139.218 108.992C138.877 108.789 138.471 108.688 138.002 108.688C137.362 108.688 136.85 108.837 136.466 109.136C136.082 109.435 135.799 109.824 135.618 110.304C135.447 110.773 135.362 111.275 135.362 111.808C135.362 112.363 135.453 112.875 135.634 113.344C135.815 113.813 136.098 114.192 136.482 114.48C136.866 114.757 137.362 114.896 137.97 114.896C138.418 114.896 138.839 114.8 139.234 114.608C139.639 114.416 139.906 114.075 140.034 113.584H141.442C141.335 114.16 141.106 114.635 140.754 115.008C140.413 115.381 139.991 115.659 139.49 115.84C138.999 116.011 138.477 116.096 137.922 116.096ZM143.166 116V107.568H144.99L147.726 111.792L150.414 107.568H152.206V116H150.862V109.072L147.886 113.84H147.502L144.51 109.072V116H143.166ZM158.033 116.096C157.148 116.096 156.407 115.915 155.809 115.552C155.212 115.179 154.764 114.667 154.465 114.016C154.177 113.365 154.033 112.624 154.033 111.792C154.033 110.949 154.177 110.208 154.465 109.568C154.764 108.917 155.212 108.405 155.809 108.032C156.407 107.659 157.159 107.472 158.065 107.472C158.951 107.472 159.687 107.659 160.273 108.032C160.871 108.405 161.313 108.917 161.601 109.568C161.9 110.208 162.049 110.949 162.049 111.792C162.049 112.624 161.9 113.365 161.601 114.016C161.303 114.667 160.855 115.179 160.257 115.552C159.671 115.915 158.929 116.096 158.033 116.096ZM158.033 114.896C158.652 114.896 159.153 114.757 159.537 114.48C159.932 114.203 160.22 113.829 160.401 113.36C160.593 112.891 160.689 112.368 160.689 111.792C160.689 111.216 160.593 110.693 160.401 110.224C160.22 109.755 159.932 109.381 159.537 109.104C159.153 108.827 158.652 108.688 158.033 108.688C157.425 108.688 156.924 108.827 156.529 109.104C156.145 109.381 155.857 109.755 155.665 110.224C155.484 110.693 155.393 111.216 155.393 111.792C155.393 112.368 155.484 112.891 155.665 113.36C155.857 113.829 156.145 114.203 156.529 114.48C156.924 114.757 157.425 114.896 158.033 114.896ZM165.837 116V108.768H162.941V107.568H170.093V108.768H167.197V116H165.837ZM171.306 119.04V107.568H172.602L172.666 108.864C172.954 108.405 173.344 108.059 173.834 107.824C174.336 107.589 174.874 107.472 175.45 107.472C176.304 107.472 177.002 107.664 177.546 108.048C178.09 108.421 178.49 108.933 178.746 109.584C179.013 110.235 179.146 110.971 179.146 111.792C179.146 112.613 179.013 113.349 178.746 114C178.48 114.651 178.069 115.163 177.514 115.536C176.96 115.909 176.25 116.096 175.386 116.096C174.96 116.096 174.576 116.053 174.234 115.968C173.893 115.872 173.594 115.739 173.338 115.568C173.082 115.397 172.858 115.205 172.666 114.992V119.04H171.306ZM175.274 114.896C175.893 114.896 176.384 114.757 176.746 114.48C177.109 114.192 177.37 113.813 177.53 113.344C177.701 112.875 177.786 112.357 177.786 111.792C177.786 111.216 177.701 110.693 177.53 110.224C177.37 109.755 177.104 109.381 176.73 109.104C176.357 108.827 175.861 108.688 175.242 108.688C174.688 108.688 174.213 108.832 173.818 109.12C173.434 109.397 173.141 109.776 172.938 110.256C172.736 110.725 172.634 111.243 172.634 111.808C172.634 112.395 172.73 112.923 172.922 113.392C173.114 113.861 173.408 114.229 173.802 114.496C174.197 114.763 174.688 114.896 175.274 114.896ZM185.213 116V107.568H187.037L189.773 111.792L192.461 107.568H194.253V116H192.909V109.072L189.933 113.84H189.549L186.557 109.072V116H185.213ZM200.08 116.096C199.195 116.096 198.453 115.915 197.856 115.552C197.259 115.179 196.811 114.667 196.512 114.016C196.224 113.365 196.08 112.624 196.08 111.792C196.08 110.949 196.224 110.208 196.512 109.568C196.811 108.917 197.259 108.405 197.856 108.032C198.453 107.659 199.205 107.472 200.112 107.472C200.997 107.472 201.733 107.659 202.32 108.032C202.917 108.405 203.36 108.917 203.648 109.568C203.947 110.208 204.096 110.949 204.096 111.792C204.096 112.624 203.947 113.365 203.648 114.016C203.349 114.667 202.901 115.179 202.304 115.552C201.717 115.915 200.976 116.096 200.08 116.096ZM200.08 114.896C200.699 114.896 201.2 114.757 201.584 114.48C201.979 114.203 202.267 113.829 202.448 113.36C202.64 112.891 202.736 112.368 202.736 111.792C202.736 111.216 202.64 110.693 202.448 110.224C202.267 109.755 201.979 109.381 201.584 109.104C201.2 108.827 200.699 108.688 200.08 108.688C199.472 108.688 198.971 108.827 198.576 109.104C198.192 109.381 197.904 109.755 197.712 110.224C197.531 110.693 197.44 111.216 197.44 111.792C197.44 112.368 197.531 112.891 197.712 113.36C197.904 113.829 198.192 114.203 198.576 114.48C198.971 114.757 199.472 114.896 200.08 114.896ZM205.008 118.592V114.816C205.318 114.816 205.563 114.731 205.744 114.56C205.936 114.389 206.086 114.165 206.192 113.888C206.299 113.611 206.379 113.312 206.432 112.992C206.486 112.661 206.528 112.347 206.56 112.048C206.614 111.557 206.646 111.072 206.656 110.592C206.678 110.101 206.688 109.712 206.688 109.424C206.699 109.115 206.704 108.805 206.704 108.496C206.704 108.187 206.704 107.877 206.704 107.568H212.688V114.816H213.792V118.592H212.48V116H206.32V118.592H205.008ZM207.168 114.816H211.328V108.768H208C207.99 109.216 207.979 109.717 207.968 110.272C207.958 110.827 207.936 111.344 207.904 111.824C207.894 112.101 207.867 112.416 207.824 112.768C207.792 113.12 207.728 113.477 207.632 113.84C207.536 114.192 207.382 114.517 207.168 114.816ZM218.861 116.096C217.965 116.096 217.223 115.915 216.637 115.552C216.05 115.179 215.613 114.667 215.325 114.016C215.037 113.365 214.893 112.624 214.893 111.792C214.893 110.949 215.042 110.208 215.341 109.568C215.65 108.917 216.098 108.405 216.685 108.032C217.271 107.659 217.991 107.472 218.845 107.472C219.474 107.472 220.023 107.595 220.493 107.84C220.973 108.075 221.367 108.395 221.677 108.8C221.997 109.205 222.226 109.659 222.365 110.16C222.514 110.661 222.578 111.179 222.557 111.712C222.546 111.808 222.541 111.904 222.541 112C222.541 112.096 222.535 112.192 222.525 112.288H216.269C216.311 112.779 216.434 113.221 216.637 113.616C216.839 114.011 217.127 114.325 217.501 114.56C217.874 114.784 218.338 114.896 218.893 114.896C219.17 114.896 219.447 114.864 219.725 114.8C220.013 114.725 220.269 114.603 220.493 114.432C220.727 114.261 220.893 114.032 220.989 113.744H222.381C222.253 114.288 222.013 114.736 221.661 115.088C221.309 115.429 220.887 115.685 220.397 115.856C219.906 116.016 219.394 116.096 218.861 116.096ZM216.301 111.104H221.181C221.17 110.624 221.063 110.203 220.861 109.84C220.658 109.477 220.381 109.195 220.029 108.992C219.687 108.789 219.277 108.688 218.797 108.688C218.274 108.688 217.831 108.8 217.469 109.024C217.117 109.248 216.845 109.541 216.653 109.904C216.461 110.267 216.343 110.667 216.301 111.104ZM223.538 116.016V114.832C223.752 114.832 223.944 114.789 224.114 114.704C224.285 114.608 224.434 114.469 224.562 114.288C224.712 114.075 224.829 113.765 224.914 113.36C225 112.955 225.058 112.523 225.09 112.064C225.133 111.552 225.165 111.051 225.186 110.56C225.208 110.059 225.224 109.563 225.234 109.072C225.256 108.581 225.266 108.08 225.266 107.568H231.122V116H229.762V108.768H226.594C226.584 109.131 226.568 109.499 226.546 109.872C226.536 110.235 226.52 110.603 226.498 110.976C226.488 111.339 226.472 111.707 226.45 112.08C226.44 112.507 226.397 112.987 226.322 113.52C226.248 114.053 226.088 114.539 225.842 114.976C225.608 115.392 225.32 115.669 224.978 115.808C224.648 115.947 224.168 116.016 223.538 116.016ZM233.26 116V107.568H234.62V114.032C234.694 113.883 234.796 113.723 234.924 113.552C235.052 113.371 235.153 113.232 235.228 113.136L239.308 107.568H240.652V116H239.292V109.536C239.206 109.696 239.11 109.845 239.004 109.984C238.908 110.123 238.817 110.251 238.732 110.368L234.588 116H233.26ZM247.103 116V107.568H250.367C250.741 107.568 251.109 107.595 251.471 107.648C251.845 107.691 252.181 107.787 252.479 107.936C252.789 108.075 253.034 108.283 253.215 108.56C253.407 108.837 253.503 109.205 253.503 109.664C253.503 109.941 253.461 110.197 253.375 110.432C253.29 110.656 253.162 110.853 252.991 111.024C252.831 111.195 252.623 111.344 252.367 111.472C252.943 111.6 253.359 111.851 253.615 112.224C253.871 112.597 253.999 113.024 253.999 113.504C253.999 113.931 253.919 114.304 253.759 114.624C253.61 114.933 253.397 115.189 253.119 115.392C252.853 115.595 252.538 115.749 252.175 115.856C251.823 115.952 251.445 116 251.039 116H247.103ZM248.495 114.816H250.719C251.05 114.816 251.359 114.784 251.647 114.72C251.935 114.656 252.17 114.539 252.351 114.368C252.533 114.187 252.623 113.931 252.623 113.6C252.623 113.259 252.543 113.003 252.383 112.832C252.234 112.651 252.037 112.528 251.791 112.464C251.557 112.389 251.301 112.347 251.023 112.336C250.746 112.325 250.485 112.32 250.239 112.32H248.495V114.816ZM248.495 111.168H249.663C249.877 111.168 250.122 111.157 250.399 111.136C250.687 111.115 250.965 111.067 251.231 110.992C251.509 110.907 251.733 110.779 251.903 110.608C252.085 110.437 252.175 110.203 252.175 109.904C252.175 109.509 252.063 109.237 251.839 109.088C251.626 108.928 251.37 108.837 251.071 108.816C250.773 108.784 250.495 108.768 250.239 108.768H248.495V111.168ZM260.166 116V107.568H261.526V111.264H265.75V107.568H267.11V116H265.75V112.464H261.526V116H260.166ZM272.94 116.096C272.054 116.096 271.313 115.915 270.716 115.552C270.118 115.179 269.67 114.667 269.372 114.016C269.084 113.365 268.94 112.624 268.94 111.792C268.94 110.949 269.084 110.208 269.372 109.568C269.67 108.917 270.118 108.405 270.716 108.032C271.313 107.659 272.065 107.472 272.972 107.472C273.857 107.472 274.593 107.659 275.18 108.032C275.777 108.405 276.22 108.917 276.508 109.568C276.806 110.208 276.956 110.949 276.956 111.792C276.956 112.624 276.806 113.365 276.508 114.016C276.209 114.667 275.761 115.179 275.164 115.552C274.577 115.915 273.836 116.096 272.94 116.096ZM272.94 114.896C273.558 114.896 274.06 114.757 274.444 114.48C274.838 114.203 275.126 113.829 275.308 113.36C275.5 112.891 275.596 112.368 275.596 111.792C275.596 111.216 275.5 110.693 275.308 110.224C275.126 109.755 274.838 109.381 274.444 109.104C274.06 108.827 273.558 108.688 272.94 108.688C272.332 108.688 271.83 108.827 271.436 109.104C271.052 109.381 270.764 109.755 270.572 110.224C270.39 110.693 270.299 111.216 270.299 111.792C270.299 112.368 270.39 112.891 270.572 113.36C270.764 113.829 271.052 114.203 271.436 114.48C271.83 114.757 272.332 114.896 272.94 114.896ZM278.775 119.04V107.568H280.071L280.135 108.864C280.423 108.405 280.812 108.059 281.303 107.824C281.804 107.589 282.343 107.472 282.919 107.472C283.772 107.472 284.471 107.664 285.015 108.048C285.559 108.421 285.959 108.933 286.215 109.584C286.482 110.235 286.615 110.971 286.615 111.792C286.615 112.613 286.482 113.349 286.215 114C285.948 114.651 285.538 115.163 284.983 115.536C284.428 115.909 283.719 116.096 282.855 116.096C282.428 116.096 282.044 116.053 281.703 115.968C281.362 115.872 281.063 115.739 280.807 115.568C280.551 115.397 280.327 115.205 280.135 114.992V119.04H278.775ZM282.743 114.896C283.362 114.896 283.852 114.757 284.215 114.48C284.578 114.192 284.839 113.813 284.999 113.344C285.17 112.875 285.255 112.357 285.255 111.792C285.255 111.216 285.17 110.693 284.999 110.224C284.839 109.755 284.572 109.381 284.199 109.104C283.826 108.827 283.33 108.688 282.711 108.688C282.156 108.688 281.682 108.832 281.287 109.12C280.903 109.397 280.61 109.776 280.407 110.256C280.204 110.725 280.103 111.243 280.103 111.808C280.103 112.395 280.199 112.923 280.391 113.392C280.583 113.861 280.876 114.229 281.271 114.496C281.666 114.763 282.156 114.896 282.743 114.896ZM288.369 116V107.568H290.193L292.929 111.792L295.617 107.568H297.409V116H296.065V109.072L293.089 113.84H292.705L289.713 109.072V116H288.369ZM302.26 116.096C301.876 116.096 301.503 116.048 301.14 115.952C300.788 115.845 300.468 115.691 300.18 115.488C299.903 115.275 299.679 115.013 299.508 114.704C299.348 114.384 299.268 114.016 299.268 113.6C299.268 113.12 299.354 112.715 299.524 112.384C299.706 112.053 299.946 111.792 300.244 111.6C300.543 111.408 300.89 111.269 301.284 111.184C301.679 111.099 302.09 111.056 302.516 111.056H304.996C304.996 110.576 304.927 110.16 304.788 109.808C304.66 109.456 304.447 109.184 304.148 108.992C303.85 108.789 303.455 108.688 302.964 108.688C302.666 108.688 302.388 108.72 302.132 108.784C301.876 108.848 301.658 108.949 301.476 109.088C301.295 109.227 301.162 109.413 301.076 109.648H299.62C299.695 109.264 299.839 108.939 300.052 108.672C300.276 108.395 300.543 108.171 300.852 108C301.172 107.819 301.514 107.685 301.876 107.6C302.239 107.515 302.602 107.472 302.964 107.472C303.775 107.472 304.426 107.637 304.916 107.968C305.407 108.288 305.764 108.747 305.988 109.344C306.212 109.931 306.324 110.629 306.324 111.44V116H305.188L305.108 114.928C304.874 115.248 304.591 115.493 304.26 115.664C303.93 115.835 303.588 115.947 303.236 116C302.895 116.064 302.57 116.096 302.26 116.096ZM302.388 114.896C302.922 114.896 303.38 114.811 303.764 114.64C304.159 114.459 304.463 114.197 304.676 113.856C304.89 113.515 304.996 113.099 304.996 112.608V112.192H303.508C303.156 112.192 302.81 112.197 302.468 112.208C302.127 112.219 301.818 112.261 301.54 112.336C301.263 112.411 301.039 112.539 300.868 112.72C300.708 112.901 300.628 113.163 300.628 113.504C300.628 113.824 300.708 114.085 300.868 114.288C301.039 114.491 301.258 114.645 301.524 114.752C301.802 114.848 302.09 114.896 302.388 114.896ZM307.663 116.016V114.832C307.877 114.832 308.069 114.789 308.239 114.704C308.41 114.608 308.559 114.469 308.687 114.288C308.837 114.075 308.954 113.765 309.039 113.36C309.125 112.955 309.183 112.523 309.215 112.064C309.258 111.552 309.29 111.051 309.311 110.56C309.333 110.059 309.349 109.563 309.359 109.072C309.381 108.581 309.391 108.08 309.391 107.568H315.247V116H313.887V108.768H310.719C310.709 109.131 310.693 109.499 310.671 109.872C310.661 110.235 310.645 110.603 310.623 110.976C310.613 111.339 310.597 111.707 310.575 112.08C310.565 112.507 310.522 112.987 310.447 113.52C310.373 114.053 310.213 114.539 309.967 114.976C309.733 115.392 309.445 115.669 309.103 115.808C308.773 115.947 308.293 116.016 307.663 116.016ZM317.385 116V107.568H318.777V110.784H320.633C321.134 110.784 321.582 110.827 321.977 110.912C322.382 110.987 322.729 111.12 323.017 111.312C323.305 111.504 323.523 111.765 323.673 112.096C323.833 112.416 323.913 112.827 323.913 113.328C323.913 113.787 323.833 114.187 323.673 114.528C323.513 114.859 323.289 115.136 323.001 115.36C322.713 115.573 322.366 115.733 321.961 115.84C321.566 115.947 321.129 116 320.649 116H317.385ZM318.777 114.816H319.577C319.95 114.816 320.307 114.805 320.649 114.784C321.001 114.763 321.321 114.709 321.609 114.624C321.897 114.539 322.121 114.4 322.281 114.208C322.451 114.005 322.537 113.728 322.537 113.376C322.537 113.035 322.467 112.773 322.329 112.592C322.201 112.4 322.03 112.261 321.817 112.176C321.603 112.08 321.369 112.021 321.113 112C320.867 111.979 320.622 111.968 320.377 111.968H318.777V114.816ZM325.681 116V107.568H327.041V111.264H331.265V107.568H332.625V116H331.265V112.464H327.041V116H325.681ZM338.455 116.096C337.57 116.096 336.828 115.915 336.231 115.552C335.634 115.179 335.186 114.667 334.887 114.016C334.599 113.365 334.455 112.624 334.455 111.792C334.455 110.949 334.599 110.208 334.887 109.568C335.186 108.917 335.634 108.405 336.231 108.032C336.828 107.659 337.58 107.472 338.487 107.472C339.372 107.472 340.108 107.659 340.695 108.032C341.292 108.405 341.735 108.917 342.023 109.568C342.322 110.208 342.471 110.949 342.471 111.792C342.471 112.624 342.322 113.365 342.023 114.016C341.724 114.667 341.276 115.179 340.679 115.552C340.092 115.915 339.351 116.096 338.455 116.096ZM338.455 114.896C339.074 114.896 339.575 114.757 339.959 114.48C340.354 114.203 340.642 113.829 340.823 113.36C341.015 112.891 341.111 112.368 341.111 111.792C341.111 111.216 341.015 110.693 340.823 110.224C340.642 109.755 340.354 109.381 339.959 109.104C339.575 108.827 339.074 108.688 338.455 108.688C337.847 108.688 337.346 108.827 336.951 109.104C336.567 109.381 336.279 109.755 336.087 110.224C335.906 110.693 335.815 111.216 335.815 111.792C335.815 112.368 335.906 112.891 336.087 113.36C336.279 113.829 336.567 114.203 336.951 114.48C337.346 114.757 337.847 114.896 338.455 114.896ZM344.291 116V107.568H346.115L348.851 111.792L351.539 107.568H353.331V116H351.987V109.072L349.011 113.84H348.627L345.635 109.072V116H344.291ZM106.072 139.04V127.568H107.368L107.432 128.864C107.72 128.405 108.109 128.059 108.6 127.824C109.101 127.589 109.64 127.472 110.216 127.472C111.069 127.472 111.768 127.664 112.312 128.048C112.856 128.421 113.256 128.933 113.512 129.584C113.779 130.235 113.912 130.971 113.912 131.792C113.912 132.613 113.779 133.349 113.512 134C113.245 134.651 112.835 135.163 112.28 135.536C111.725 135.909 111.016 136.096 110.152 136.096C109.725 136.096 109.341 136.053 109 135.968C108.659 135.872 108.36 135.739 108.104 135.568C107.848 135.397 107.624 135.205 107.432 134.992V139.04H106.072ZM110.04 134.896C110.659 134.896 111.149 134.757 111.512 134.48C111.875 134.192 112.136 133.813 112.296 133.344C112.467 132.875 112.552 132.357 112.552 131.792C112.552 131.216 112.467 130.693 112.296 130.224C112.136 129.755 111.869 129.381 111.496 129.104C111.123 128.827 110.627 128.688 110.008 128.688C109.453 128.688 108.979 128.832 108.584 129.12C108.2 129.397 107.907 129.776 107.704 130.256C107.501 130.725 107.4 131.243 107.4 131.808C107.4 132.395 107.496 132.923 107.688 133.392C107.88 133.861 108.173 134.229 108.568 134.496C108.963 134.763 109.453 134.896 110.04 134.896ZM119.314 136.096C118.418 136.096 117.676 135.915 117.09 135.552C116.503 135.179 116.066 134.667 115.778 134.016C115.49 133.365 115.346 132.624 115.346 131.792C115.346 130.949 115.495 130.208 115.794 129.568C116.103 128.917 116.551 128.405 117.138 128.032C117.724 127.659 118.444 127.472 119.298 127.472C119.927 127.472 120.476 127.595 120.946 127.84C121.426 128.075 121.82 128.395 122.13 128.8C122.45 129.205 122.679 129.659 122.818 130.16C122.967 130.661 123.031 131.179 123.01 131.712C122.999 131.808 122.994 131.904 122.994 132C122.994 132.096 122.988 132.192 122.978 132.288H116.722C116.764 132.779 116.887 133.221 117.09 133.616C117.292 134.011 117.58 134.325 117.954 134.56C118.327 134.784 118.791 134.896 119.346 134.896C119.623 134.896 119.9 134.864 120.178 134.8C120.466 134.725 120.722 134.603 120.946 134.432C121.18 134.261 121.346 134.032 121.442 133.744H122.834C122.706 134.288 122.466 134.736 122.114 135.088C121.762 135.429 121.34 135.685 120.85 135.856C120.359 136.016 119.847 136.096 119.314 136.096ZM116.754 131.104H121.634C121.623 130.624 121.516 130.203 121.314 129.84C121.111 129.477 120.834 129.195 120.482 128.992C120.14 128.789 119.73 128.688 119.25 128.688C118.727 128.688 118.284 128.8 117.922 129.024C117.57 129.248 117.298 129.541 117.106 129.904C116.914 130.267 116.796 130.667 116.754 131.104ZM123.833 136L126.569 131.584L124.073 127.568H125.529L127.753 131.216H129.017V127.568H130.377V131.216H131.641L133.865 127.568H135.321L132.825 131.584L135.561 136H133.977L131.785 132.368H130.377V136H129.017V132.368H127.609L125.417 136H123.833ZM136.853 136V127.568H138.213V134.032C138.288 133.883 138.389 133.723 138.517 133.552C138.645 133.371 138.747 133.232 138.821 133.136L142.901 127.568H144.245V136H142.885V129.536C142.8 129.696 142.704 129.845 142.597 129.984C142.501 130.123 142.411 130.251 142.325 130.368L138.181 136H136.853ZM146.385 136V127.568H148.209L150.945 131.792L153.633 127.568H155.425V136H154.081V129.072L151.105 133.84H150.721L147.729 129.072V136H146.385ZM161.22 136.096C160.324 136.096 159.583 135.915 158.996 135.552C158.409 135.179 157.972 134.667 157.684 134.016C157.396 133.365 157.252 132.624 157.252 131.792C157.252 130.949 157.401 130.208 157.7 129.568C158.009 128.917 158.457 128.405 159.044 128.032C159.631 127.659 160.351 127.472 161.204 127.472C161.833 127.472 162.383 127.595 162.852 127.84C163.332 128.075 163.727 128.395 164.036 128.8C164.356 129.205 164.585 129.659 164.724 130.16C164.873 130.661 164.937 131.179 164.916 131.712C164.905 131.808 164.9 131.904 164.9 132C164.9 132.096 164.895 132.192 164.884 132.288H158.628C158.671 132.779 158.793 133.221 158.996 133.616C159.199 134.011 159.487 134.325 159.86 134.56C160.233 134.784 160.697 134.896 161.252 134.896C161.529 134.896 161.807 134.864 162.084 134.8C162.372 134.725 162.628 134.603 162.852 134.432C163.087 134.261 163.252 134.032 163.348 133.744H164.74C164.612 134.288 164.372 134.736 164.02 135.088C163.668 135.429 163.247 135.685 162.756 135.856C162.265 136.016 161.753 136.096 161.22 136.096ZM158.66 131.104H163.54C163.529 130.624 163.423 130.203 163.22 129.84C163.017 129.477 162.74 129.195 162.388 128.992C162.047 128.789 161.636 128.688 161.156 128.688C160.633 128.688 160.191 128.8 159.828 129.024C159.476 129.248 159.204 129.541 159.012 129.904C158.82 130.267 158.703 130.667 158.66 131.104Z" fill="black"/>
<path d="M55.2383 46L40.0006 61.2377" stroke="black" stroke-width="1.90131" stroke-miterlimit="10" stroke-linecap="square"/>
<path d="M55.2377 61.2572L40 46.0195" stroke="black" stroke-width="1.90131" stroke-miterlimit="10" stroke-linecap="square"/>
</svg>
